<svg width="154" height="68" viewBox="0 0 154 68" fill="none" xmlns="http://www.w3.org/2000/svg">
<g filter="url(#filter0_d_1732_1998)">
<path d="M79.2402 14.0601C73.93 12.7521 68.8331 20.9791 66.0536 31.9915C63.2742 43.0041 63.8645 52.632 69.1752 53.94C74.4858 55.248 79.5825 47.021 82.3619 36.0083C85.1414 24.9959 84.5508 15.3678 79.2402 14.0601ZM95.9253 33.9999C95.3049 46.1502 85.7127 56 73.084 56C60.4554 56 51.8697 46.1502 52.4904 33.9999C53.1109 21.8495 62.7029 12 75.3314 12C87.9599 12 96.5459 21.8495 95.9253 33.9999ZM125.284 14.0601C119.973 12.7521 114.876 20.9791 112.097 31.9915C109.318 43.0041 109.908 52.632 115.218 53.94C120.529 55.248 125.626 47.021 128.405 36.0083C131.184 24.9959 130.593 15.3678 125.284 14.0601ZM141.968 33.9999C141.348 46.1502 131.756 56 119.127 56C106.499 56 97.913 46.1502 98.5335 33.9999C99.154 21.8495 108.746 12 121.375 12C134.003 12 142.589 21.8495 141.968 33.9999ZM50.3266 40.8273C49.9818 50.5853 40.7146 55.8779 31.1741 55.8779C23.0905 55.8779 15.5429 51.6077 12 49.0107L15.9857 38.07L16.2234 38.1543C22.7777 47.8327 28.3473 54.4986 34.1696 53.9799C38.0204 53.6367 40.3081 51.3176 40.4705 46.7221C40.6964 40.3297 35.7567 32.4046 17.1723 35.6747L16.8943 35.5758L25.2599 12.6105H53.2998L49.5357 22.9445H23.2656L20.7886 29.7448C35.6331 22.2124 50.7038 30.1583 50.3266 40.8273Z" fill="#2A2A42"/>
</g>
<defs>
<filter id="filter0_d_1732_1998" x="0" y="0" width="154" height="68" filterUnits="userSpaceOnUse" color-interpolation-filters="sRGB">
<feFlood flood-opacity="0" result="BackgroundImageFix"/>
<feColorMatrix in="SourceAlpha" type="matrix" values="0 0 0 0 0 0 0 0 0 0 0 0 0 0 0 0 0 0 127 0" result="hardAlpha"/>
<feOffset/>
<feGaussianBlur stdDeviation="6"/>
<feComposite in2="hardAlpha" operator="out"/>
<feColorMatrix type="matrix" values="0 0 0 0 1 0 0 0 0 1 0 0 0 0 1 0 0 0 0.7 0"/>
<feBlend mode="normal" in2="BackgroundImageFix" result="effect1_dropShadow_1732_1998"/>
<feBlend mode="normal" in="SourceGraphic" in2="effect1_dropShadow_1732_1998" result="shape"/>
</filter>
</defs>
</svg>
