<svg width="174" height="174" viewBox="0 0 174 174" fill="none" xmlns="http://www.w3.org/2000/svg">
<circle cx="86.7973" cy="86.7973" r="86.7973" fill="white"/>
<g filter="url(#filter0_d_1909_2404)">
<path d="M88.7426 66.1674C83.1558 64.7912 77.7935 73.4468 74.8692 85.0328C71.945 96.6191 72.5661 106.748 78.1534 108.125C83.7406 109.501 89.1027 100.845 92.0269 89.2589C94.9512 77.6728 94.3298 67.5433 88.7426 66.1674ZM106.297 87.1459C105.644 99.9291 95.5523 110.292 82.2657 110.292C68.9793 110.292 59.9465 99.9291 60.5994 87.1459C61.2523 74.3625 71.3439 64 84.6302 64C97.9166 64 106.95 74.3625 106.297 87.1459ZM137.185 66.1674C131.598 64.7912 126.235 73.4468 123.311 85.0328C120.387 96.6191 121.008 106.748 126.595 108.125C132.182 109.501 137.544 100.845 140.468 89.2589C143.392 77.6728 142.771 67.5433 137.185 66.1674ZM154.738 87.1459C154.086 99.9291 143.994 110.292 130.708 110.292C117.421 110.292 108.388 99.9291 109.041 87.1459C109.694 74.3625 119.785 64 133.072 64C146.358 64 155.391 74.3625 154.738 87.1459ZM58.323 94.3289C57.9602 104.595 48.2103 110.163 38.1728 110.163C29.6682 110.163 21.7274 105.671 18 102.939L22.1933 91.4279L22.4434 91.5167C29.3391 101.699 35.1988 108.712 41.3244 108.167C45.3758 107.806 47.7826 105.366 47.9535 100.531C48.1911 93.8053 42.9941 85.4675 23.4418 88.9079L23.1492 88.8038L31.9506 64.6423H61.451L57.4908 75.5145H29.8524L27.2464 82.6691C42.8641 74.7443 58.7198 83.1042 58.323 94.3289Z" fill="#2A2A42"/>
</g>
<defs>
<filter id="filter0_d_1909_2404" x="9.24324" y="55.2432" width="154.285" height="63.8055" filterUnits="userSpaceOnUse" color-interpolation-filters="sRGB">
<feFlood flood-opacity="0" result="BackgroundImageFix"/>
<feColorMatrix in="SourceAlpha" type="matrix" values="0 0 0 0 0 0 0 0 0 0 0 0 0 0 0 0 0 0 127 0" result="hardAlpha"/>
<feOffset/>
<feGaussianBlur stdDeviation="4.37838"/>
<feComposite in2="hardAlpha" operator="out"/>
<feColorMatrix type="matrix" values="0 0 0 0 1 0 0 0 0 1 0 0 0 0 1 0 0 0 0.7 0"/>
<feBlend mode="normal" in2="BackgroundImageFix" result="effect1_dropShadow_1909_2404"/>
<feBlend mode="normal" in="SourceGraphic" in2="effect1_dropShadow_1909_2404" result="shape"/>
</filter>
</defs>
</svg>
