<svg width="170" height="76" viewBox="0 0 170 76" fill="none" xmlns="http://www.w3.org/2000/svg">
<g filter="url(#filter0_d_1732_2006)">
<path d="M87.514 16.116C81.6728 14.6772 76.0663 23.7269 73.0088 35.8406C69.9515 47.9545 70.6008 58.5452 76.4425 59.9839C82.2842 61.4227 87.8905 52.373 90.9479 40.2591C94.0053 28.1454 93.3557 17.5546 87.514 16.116ZM105.868 38.0499C105.185 51.4152 94.6338 62.25 80.7421 62.25C66.8507 62.25 57.4065 51.4152 58.0892 38.0499C58.7718 24.6844 69.323 13.85 83.2143 13.85C97.1058 13.85 106.55 24.6844 105.868 38.0499ZM138.162 16.116C132.321 14.6772 126.714 23.7269 123.657 35.8406C120.6 47.9545 121.248 58.5452 127.09 59.9839C132.931 61.4227 138.538 52.373 141.595 40.2591C144.652 28.1454 144.003 17.5546 138.162 16.116ZM156.515 38.0499C155.833 51.4152 145.281 62.25 131.39 62.25C117.499 62.25 108.054 51.4152 108.737 38.0499C109.419 24.6844 119.97 13.85 133.862 13.85C147.753 13.85 157.197 24.6844 156.515 38.0499ZM55.7091 45.56C55.3298 56.2938 45.1359 62.1157 34.6413 62.1157C25.7493 62.1157 17.4469 57.4184 13.5498 54.5617L17.9341 42.527L18.1955 42.6197C25.4053 53.2659 31.5319 60.5984 37.9364 60.0278C42.1723 59.6504 44.6887 57.0993 44.8673 52.0443C45.1158 45.0126 39.6821 36.2951 19.2394 39.8922L18.9335 39.7833L28.1357 14.5215H58.9796L54.839 25.8889H25.942L23.2173 33.3693C39.5462 25.0836 56.124 33.8242 55.7091 45.56Z" fill="white"/>
</g>
<defs>
<filter id="filter0_d_1732_2006" x="0.349804" y="0.649975" width="169.4" height="74.8" filterUnits="userSpaceOnUse" color-interpolation-filters="sRGB">
<feFlood flood-opacity="0" result="BackgroundImageFix"/>
<feColorMatrix in="SourceAlpha" type="matrix" values="0 0 0 0 0 0 0 0 0 0 0 0 0 0 0 0 0 0 127 0" result="hardAlpha"/>
<feOffset/>
<feGaussianBlur stdDeviation="6.6"/>
<feComposite in2="hardAlpha" operator="out"/>
<feColorMatrix type="matrix" values="0 0 0 0 1 0 0 0 0 1 0 0 0 0 1 0 0 0 0.7 0"/>
<feBlend mode="normal" in2="BackgroundImageFix" result="effect1_dropShadow_1732_2006"/>
<feBlend mode="normal" in="SourceGraphic" in2="effect1_dropShadow_1732_2006" result="shape"/>
</filter>
</defs>
</svg>
