<svg width="18" height="18" viewBox="0 0 18 14" fill="none" xmlns="http://www.w3.org/2000/svg">
<path d="M13.2842 13.2353C13.2842 13.2353 12.7295 12.5578 12.2671 11.959C14.286 11.3761 15.0565 10.0841 15.0565 10.0841C14.4247 10.5095 13.8236 10.8088 13.2842 11.0137C12.5137 11.3446 11.774 11.5651 11.0497 11.6912C9.5702 11.9748 8.21404 11.896 7.05822 11.6754C6.17979 11.5021 5.42466 11.25 4.79281 10.9979C4.43836 10.8561 4.05308 10.6828 3.66781 10.4622C3.62158 10.4307 3.57534 10.4149 3.52911 10.3834C3.49829 10.3677 3.48288 10.3519 3.46747 10.3362C3.19007 10.1786 3.03596 10.0683 3.03596 10.0683C3.03596 10.0683 3.77568 11.3288 5.73288 11.9275C5.27055 12.5263 4.70034 13.2353 4.70034 13.2353C1.29452 13.125 0 10.8404 0 10.8404C0 5.76688 2.21918 1.65453 2.21918 1.65453C4.43836 -0.0471374 6.54966 0.000130937 6.54966 0.000130937L6.70377 0.189204C3.92979 1.00852 2.65069 2.25326 2.65069 2.25326C2.65069 2.25326 2.98973 2.06419 3.55993 1.79633C5.2089 1.05579 6.51884 0.850963 7.05822 0.803694C7.15068 0.787938 7.22774 0.772182 7.32021 0.772182C8.26027 0.646133 9.32363 0.614621 10.4332 0.74067C11.8973 0.913987 13.4692 1.35516 15.0719 2.25326C15.0719 2.25326 13.8545 1.07155 11.2346 0.252229L11.4503 0.000130937C11.4503 0.000130937 13.5616 -0.0471374 15.7808 1.65453C15.7808 1.65453 18 5.76688 18 10.8404C18 10.8404 16.6901 13.125 13.2842 13.2353ZM6.11815 5.87717C5.23973 5.87717 4.54623 6.66498 4.54623 7.62611C4.54623 8.58723 5.25514 9.37504 6.11815 9.37504C6.99657 9.37504 7.69007 8.58723 7.69007 7.62611C7.70548 6.66498 6.99657 5.87717 6.11815 5.87717ZM11.7431 5.87717C10.8647 5.87717 10.1712 6.66498 10.1712 7.62611C10.1712 8.58723 10.8801 9.37504 11.7431 9.37504C12.6216 9.37504 13.3151 8.58723 13.3151 7.62611C13.3151 6.66498 12.6216 5.87717 11.7431 5.87717Z" fill="#9F9F9F"/>
</svg>
