<svg width="18" height="18" viewBox="0 0 18 18" fill="none" xmlns="http://www.w3.org/2000/svg">
<path fill-rule="evenodd" clip-rule="evenodd" d="M9.00917 4.65294e-06C6.87043 -0.0021691 4.80082 0.757371 3.17123 2.14251C1.54163 3.52765 0.458568 5.44785 0.11613 7.55899C-0.226307 9.67014 0.194264 11.8342 1.30247 13.6635C2.41069 15.4927 4.1341 16.8675 6.16386 17.5414C6.6169 17.6243 6.77712 17.3425 6.77712 17.105C6.77712 16.8674 6.77712 16.326 6.77712 15.5746C4.26331 16.1216 3.73292 14.3646 3.73292 14.3646C3.56616 13.8201 3.21186 13.3523 2.73292 13.0442C1.92077 12.4917 2.79922 12.4917 2.79922 12.4917C3.08392 12.5319 3.35573 12.6364 3.59407 12.7972C3.83242 12.958 4.03104 13.171 4.17491 13.4199C4.29716 13.6416 4.46197 13.8369 4.65989 13.9947C4.85781 14.1525 5.08494 14.2697 5.32825 14.3395C5.57156 14.4093 5.82627 14.4304 6.07775 14.4015C6.32923 14.3726 6.57253 14.2944 6.7937 14.1713C6.82837 13.7168 7.02431 13.2896 7.34618 12.9669C5.34618 12.7403 3.24674 11.9669 3.24674 8.54697C3.233 7.65359 3.56335 6.78914 4.16939 6.1326C3.89947 5.35582 3.93102 4.50602 4.25779 3.75139C4.25779 3.75139 5.01469 3.50829 6.73292 4.67404C8.20839 4.26893 9.76575 4.26893 11.2412 4.67404C12.9594 3.50829 13.7108 3.75139 13.7108 3.75139C14.0421 4.49803 14.0816 5.34174 13.8213 6.11603C14.4274 6.77256 14.7577 7.63701 14.744 8.53039C14.744 11.989 12.639 12.7459 10.6335 12.9503C10.8485 13.1665 11.0146 13.4263 11.1204 13.7123C11.2262 13.9983 11.2693 14.3037 11.2467 14.6077C11.2467 15.8122 11.2467 16.7845 11.2467 17.0774C11.2467 17.3702 11.407 17.5967 11.8655 17.5083C13.8722 16.8165 15.5698 15.4378 16.6584 13.6157C17.7471 11.7936 18.1567 9.6454 17.8149 7.55055C17.4732 5.4557 16.402 3.54905 14.7907 2.16742C13.1794 0.7858 11.1316 0.0181202 9.00917 4.65294e-06Z" fill="#9F9F9F"/>
</svg>
