<svg width="18" height="18" viewBox="0 0 22 22" fill="none" xmlns="http://www.w3.org/2000/svg">
<path fill-rule="evenodd" clip-rule="evenodd" d="M11.0527 5.83068e-06C8.42886 -0.00271814 5.8898 0.949074 3.89056 2.68481C1.89132 4.42055 0.562586 6.82679 0.142472 9.47229C-0.277641 12.1178 0.238329 14.8297 1.59792 17.1219C2.95751 19.4141 5.07184 21.1369 7.56202 21.9815C8.11782 22.0853 8.31439 21.7322 8.31439 21.4345C8.31439 21.1368 8.31439 20.4583 8.31439 19.5168C5.23036 20.2022 4.57967 18.0006 4.57967 18.0006C4.37507 17.3182 3.94041 16.732 3.35284 16.3459C2.35646 15.6536 3.43417 15.6536 3.43417 15.6536C3.78345 15.704 4.11691 15.8349 4.40932 16.0364C4.70173 16.2379 4.94541 16.5047 5.12191 16.8167C5.27189 17.0944 5.47408 17.3392 5.7169 17.537C5.95971 17.7347 6.23836 17.8816 6.53687 17.969C6.83537 18.0565 7.14785 18.0829 7.45637 18.0468C7.76489 18.0106 8.06339 17.9125 8.33472 17.7583C8.37726 17.1887 8.61765 16.6534 9.01253 16.249C6.55887 15.9651 3.9832 14.9959 3.9832 10.7103C3.96635 9.59083 4.37163 8.50758 5.11514 7.68486C4.784 6.71147 4.8227 5.64656 5.22359 4.70092C5.22359 4.70092 6.15218 4.3963 8.26016 5.85711C10.0703 5.34947 11.9809 5.34947 13.7911 5.85711C15.8991 4.3963 16.8209 4.70092 16.8209 4.70092C17.2273 5.63655 17.2757 6.69382 16.9564 7.66409C17.6999 8.48681 18.1052 9.57006 18.0884 10.6896C18.0884 15.0236 15.5059 15.972 13.0455 16.2282C13.3093 16.4991 13.513 16.8248 13.6428 17.1831C13.7727 17.5415 13.8255 17.9241 13.7978 18.3052C13.7978 19.8145 13.7978 21.033 13.7978 21.3999C13.7978 21.7668 13.9944 22.0507 14.557 21.9399C17.0188 21.0731 19.1015 19.3454 20.4371 17.0621C21.7726 14.7788 22.2752 12.0868 21.8559 9.46171C21.4366 6.83663 20.1225 4.44737 18.1457 2.71603C16.1689 0.984698 13.6566 0.0227067 11.0527 5.83068e-06Z" fill="#2A2A42"/>
</svg>
