<svg width="30" height="30" viewBox="0 0 30 30" fill="none" xmlns="http://www.w3.org/2000/svg">
<path d="M28.4269 0.405273H1.57284C0.92703 0.405273 0.405273 0.92703 0.405273 1.57284V28.4269C0.405273 29.0727 0.92703 29.5945 1.57284 29.5945H28.4269C29.0727 29.5945 29.5945 29.0727 29.5945 28.4269V1.57284C29.5945 0.92703 29.0727 0.405273 28.4269 0.405273ZM9.06352 25.2781H4.73257V11.3476H9.06352V25.2781ZM6.89987 9.44298C6.40338 9.44298 5.91805 9.29575 5.50524 9.01992C5.09242 8.74409 4.77068 8.35204 4.58068 7.89334C4.39068 7.43465 4.34097 6.92992 4.43783 6.44298C4.53469 5.95603 4.77377 5.50874 5.12484 5.15768C5.47591 4.80661 5.92319 4.56753 6.41014 4.47067C6.89708 4.37381 7.40182 4.42352 7.86051 4.61352C8.3192 4.80351 8.71125 5.12526 8.98708 5.53807C9.26291 5.95089 9.41014 6.43622 9.41014 6.93271C9.40649 8.31919 8.28271 9.44298 6.89987 9.44298ZM25.2781 25.2781H20.9508V18.5026C20.9508 16.8862 20.9216 14.8101 18.6996 14.8101C16.4484 14.8101 16.1018 16.5688 16.1018 18.3858V25.2781H11.7781V11.3476H15.9303V13.2522H15.9887C16.5651 12.1576 17.9772 11.0009 20.0861 11.0009C24.4718 11.0009 25.2781 13.887 25.2781 17.6378V25.2781Z" fill="white"/>
</svg>
