<svg width="21" height="18" viewBox="0 0 21 18" fill="none" xmlns="http://www.w3.org/2000/svg">
<path d="M20.25 0.857422H0.75C0.335156 0.857422 0 1.19258 0 1.60742V16.6074C0 17.0223 0.335156 17.3574 0.75 17.3574H20.25C20.6648 17.3574 21 17.0223 21 16.6074V1.60742C21 1.19258 20.6648 0.857422 20.25 0.857422ZM19.3125 3.4543V15.6699H1.6875V3.4543L1.04063 2.95039L1.96172 1.7668L2.96484 2.54727H18.0375L19.0406 1.7668L19.9617 2.95039L19.3125 3.4543ZM18.0375 2.54492L10.5 8.4043L2.9625 2.54492L1.95938 1.76445L1.03828 2.94805L1.68516 3.45195L9.69141 9.67695C9.92165 9.85583 10.2049 9.95293 10.4965 9.95293C10.7881 9.95293 11.0713 9.85583 11.3016 9.67695L19.3125 3.4543L19.9594 2.95039L19.0383 1.7668L18.0375 2.54492Z" fill="#9696B4"/>
</svg>
