<svg width="18" height="21" viewBox="0 0 18 21" fill="none" xmlns="http://www.w3.org/2000/svg">
<path d="M16.7484 5.20547C16.3072 4.188 15.671 3.26677 14.8758 2.49375C14.0779 1.71375 13.1374 1.09467 12.1055 0.670312C11.032 0.225 9.89297 0 8.71875 0C7.54453 0 6.40547 0.225 5.33203 0.667969C4.29375 1.09687 3.36328 1.71094 2.56172 2.49141C1.76701 3.26486 1.1309 4.18598 0.689062 5.20312C0.232031 6.25781 0 7.37812 0 8.53125C0 10.1859 0.396094 11.8336 1.17422 13.4227C1.8 14.7 2.67422 15.9445 3.77578 17.1281C5.65781 19.1484 7.63125 20.3836 8.19141 20.7141C8.35041 20.808 8.53175 20.8574 8.71641 20.857C8.89922 20.857 9.07969 20.8102 9.24141 20.7141C9.80156 20.3836 11.775 19.1484 13.657 17.1281C14.7586 15.9469 15.6328 14.7 16.2586 13.4227C17.0414 11.8359 17.4375 10.1906 17.4375 8.53359C17.4375 7.38047 17.2055 6.26016 16.7484 5.20547ZM8.71875 19.0594C7.17422 18.0773 1.6875 14.1891 1.6875 8.53359C1.6875 6.70781 2.41641 4.99219 3.74063 3.69844C5.06953 2.40234 6.83672 1.6875 8.71875 1.6875C10.6008 1.6875 12.368 2.40234 13.6969 3.70078C15.0211 4.99219 15.75 6.70781 15.75 8.53359C15.75 14.1891 10.2633 18.0773 8.71875 19.0594ZM8.71875 4.59375C6.44063 4.59375 4.59375 6.44063 4.59375 8.71875C4.59375 10.9969 6.44063 12.8438 8.71875 12.8438C10.9969 12.8438 12.8438 10.9969 12.8438 8.71875C12.8438 6.44063 10.9969 4.59375 8.71875 4.59375ZM10.575 10.575C10.3315 10.8192 10.0422 11.0128 9.72363 11.1447C9.40506 11.2766 9.06356 11.3443 8.71875 11.3438C8.01797 11.3438 7.35937 11.0695 6.8625 10.575C6.61834 10.3315 6.42472 10.0422 6.29279 9.72363C6.16086 9.40506 6.09321 9.06356 6.09375 8.71875C6.09375 8.01797 6.36797 7.35937 6.8625 6.8625C7.35937 6.36562 8.01797 6.09375 8.71875 6.09375C9.41953 6.09375 10.0781 6.36562 10.575 6.8625C11.0719 7.35937 11.3438 8.01797 11.3438 8.71875C11.3438 9.41953 11.0719 10.0781 10.575 10.575Z" fill="#9696B4"/>
</svg>
