<svg width="36" height="33" viewBox="0 0 36 33" fill="none" xmlns="http://www.w3.org/2000/svg">
<path d="M36 16.3054C35.9992 15.5335 35.7714 14.7789 35.3451 14.1354C34.9189 13.4919 34.3128 12.9879 33.6024 12.6861C32.892 12.3843 32.1085 12.298 31.3494 12.4379C30.5903 12.5778 29.8891 12.9377 29.3329 13.473C26.2242 11.3567 22.5644 10.1958 18.8042 10.1333L20.5973 1.69681L26.4567 2.94316C26.4886 3.62685 26.7687 4.27545 27.2446 4.76738C27.7204 5.25931 28.3594 5.56081 29.0416 5.61536C29.7239 5.66991 30.4026 5.47377 30.9506 5.06371C31.4986 4.65364 31.8783 4.0578 32.0184 3.38786C32.1585 2.71792 32.0495 2.01988 31.7118 1.42456C31.374 0.829249 30.8308 0.377536 30.1839 0.154087C29.5369 -0.0693622 28.8307 -0.0492058 28.1976 0.210777C27.5644 0.47076 27.0479 0.952722 26.7446 1.56633L20.1968 0.17375C20.0145 0.135067 19.8244 0.170325 19.6681 0.271777C19.5118 0.373229 19.4022 0.532577 19.3633 0.714809L17.361 10.1299C13.5479 10.1639 9.83 11.3247 6.67486 13.4662C6.2614 13.0661 5.76527 12.7615 5.22139 12.5738C4.67751 12.3861 4.0991 12.3199 3.52687 12.3798C2.95465 12.4398 2.40251 12.6244 1.90933 12.9207C1.41615 13.217 0.99391 13.6179 0.672336 14.095C0.350761 14.5721 0.137666 15.1139 0.0480502 15.6822C-0.0415661 16.2505 -0.00552547 16.8316 0.153636 17.3845C0.312797 17.9374 0.59121 18.4487 0.969278 18.8824C1.34735 19.3161 1.81588 19.6617 2.3419 19.8948C2.2821 20.2891 2.25276 20.6873 2.25416 21.086C2.25416 27.1434 9.30029 32.0534 18.0022 32.0534C26.7041 32.0534 33.7503 27.1434 33.7503 21.086C33.7496 20.6898 33.7188 20.2942 33.658 19.9027C34.3546 19.594 34.9467 19.0898 35.3624 18.4513C35.7781 17.8128 35.9996 17.0673 36 16.3054ZM9.00333 19.1175C9.00333 18.5613 9.16826 18.0176 9.47726 17.5552C9.78626 17.0927 10.2255 16.7323 10.7393 16.5195C11.2532 16.3066 11.8186 16.2509 12.3641 16.3594C12.9096 16.4679 13.4107 16.7358 13.804 17.129C14.1973 17.5223 14.4651 18.0234 14.5736 18.5689C14.6821 19.1144 14.6264 19.6799 14.4136 20.1937C14.2007 20.7076 13.8403 21.1468 13.3778 21.4558C12.9154 21.7648 12.3717 21.9297 11.8155 21.9297C11.0697 21.9297 10.3544 21.6334 9.82699 21.106C9.29961 20.5787 9.00333 19.8634 9.00333 19.1175ZM24.6839 26.5484C22.7649 28.4606 19.0866 28.6147 18.0056 28.6147C16.9246 28.6147 13.2452 28.4651 11.3284 26.5484C11.2608 26.4806 11.2071 26.4003 11.1705 26.3118C11.1339 26.2233 11.1151 26.1285 11.1152 26.0328C11.1152 25.9371 11.1341 25.8423 11.1708 25.7539C11.2075 25.6654 11.2612 25.5851 11.329 25.5174C11.3967 25.4498 11.4771 25.3961 11.5656 25.3595C11.654 25.323 11.7488 25.3042 11.8446 25.3042C11.9403 25.3043 12.0351 25.3232 12.1235 25.3599C12.2119 25.3965 12.2923 25.4503 12.3599 25.518C13.5691 26.7272 16.1574 27.1569 18.0056 27.1569C19.8537 27.1569 22.442 26.7272 23.6546 25.5169C23.7216 25.4459 23.8021 25.3892 23.8915 25.3499C23.9808 25.3107 24.077 25.2897 24.1746 25.2884C24.2721 25.287 24.369 25.3053 24.4593 25.342C24.5497 25.3788 24.6318 25.4333 24.7007 25.5024C24.7696 25.5714 24.8239 25.6536 24.8605 25.7441C24.897 25.8345 24.9151 25.9314 24.9135 26.0289C24.912 26.1265 24.8908 26.2227 24.8514 26.3119C24.8119 26.4012 24.755 26.4816 24.6839 26.5484ZM24.189 21.9297C23.6328 21.9297 23.0891 21.7648 22.6266 21.4558C22.1641 21.1468 21.8037 20.7076 21.5909 20.1937C21.378 19.6799 21.3223 19.1144 21.4308 18.5689C21.5393 18.0234 21.8072 17.5223 22.2005 17.129C22.5937 16.7358 23.0948 16.4679 23.6403 16.3594C24.1858 16.2509 24.7513 16.3066 25.2651 16.5195C25.779 16.7323 26.2182 17.0927 26.5272 17.5552C26.8362 18.0176 27.0011 18.5613 27.0011 19.1175C27.0011 19.8634 26.7048 20.5787 26.1774 21.106C25.6501 21.6334 24.9348 21.9297 24.189 21.9297Z" fill="#FF4500"/>
</svg>
