<svg width="18" height="18" viewBox="0 0 18 15" fill="none" xmlns="http://www.w3.org/2000/svg">
<path d="M5.64751 14.5714C12.4444 14.5714 16.1609 8.9641 16.1609 4.10441C16.1609 3.94421 16.1609 3.784 16.1533 3.63142C16.8736 3.11264 17.5019 2.46417 18 1.72416C17.341 2.01406 16.6284 2.21242 15.8774 2.30396C16.6437 1.84622 17.2261 1.12909 17.5019 0.267016C16.7893 0.686612 16 0.991772 15.1571 1.15961C14.4828 0.442483 13.5249 0 12.4598 0C10.4215 0 8.76628 1.64787 8.76628 3.67719C8.76628 3.96709 8.79693 4.24937 8.8659 4.51638C5.7931 4.3638 3.0728 2.89903 1.24904 0.671354C0.934866 1.21301 0.750958 1.84622 0.750958 2.51758C0.750958 3.79162 1.4023 4.92072 2.39847 5.57682C1.7931 5.56156 1.22605 5.39372 0.727969 5.11907C0.727969 5.13433 0.727969 5.14959 0.727969 5.16485C0.727969 6.95004 2 8.43007 3.69349 8.77337C3.38697 8.85729 3.05747 8.90307 2.72031 8.90307C2.48276 8.90307 2.25287 8.88018 2.02299 8.83441C2.49042 10.2992 3.85441 11.3596 5.47126 11.3901C4.2069 12.3743 2.61303 12.9617 0.881226 12.9617C0.582375 12.9617 0.291188 12.9464 0 12.9083C1.61686 13.9611 3.56322 14.5714 5.64751 14.5714Z" fill="#9F9F9F"/>
</svg>
