<svg width="16" height="38" viewBox="0 0 16 38" fill="none" xmlns="http://www.w3.org/2000/svg">
<path fill-rule="evenodd" clip-rule="evenodd" d="M2.26738 2.24331C3.71725 0.809519 5.68317 0.00276309 7.73394 0C9.78471 0.00276309 11.7506 0.809519 13.2005 2.24331C14.6504 3.67711 15.4658 5.62088 15.4679 7.64822V29.8544C15.4679 31.8821 14.6531 33.8268 13.2027 35.2607C11.7523 36.6945 9.78511 37.5 7.73394 37.5C5.68277 37.5 3.71562 36.6945 2.26522 35.2607C0.814824 33.8268 0 31.8821 0 29.8544V7.64822C0.00209447 5.62088 0.817515 3.67711 2.26738 2.24331ZM11.5658 3.86014C10.5495 2.85548 9.17116 2.29107 7.73394 2.29107C7.0223 2.29107 6.31764 2.42964 5.66017 2.69886C5.0027 2.96808 4.40532 3.36268 3.90211 3.86014C3.39891 4.3576 2.99974 4.94817 2.72741 5.59813C2.45508 6.24809 2.31491 6.94471 2.31491 7.64822V29.8544C2.31491 31.2752 2.88585 32.6378 3.90211 33.6425C4.91838 34.6471 6.29672 35.2115 7.73394 35.2115C9.17116 35.2115 10.5495 34.6471 11.5658 33.6425C12.582 32.6378 13.153 31.2752 13.153 29.8544V7.64822C13.153 6.22742 12.582 4.8648 11.5658 3.86014Z" fill="white"/>
<path d="M11.7223 7.52252C11.7223 9.77359 9.87631 11.5984 7.59923 11.5984C5.32215 11.5984 3.47622 9.77359 3.47622 7.52252C3.47622 5.27145 5.32215 3.44661 7.59923 3.44661C9.87631 3.44661 11.7223 5.27145 11.7223 7.52252Z" fill="white"/>
</svg>
