<svg width="32" height="40" viewBox="0 0 32 40" fill="none" xmlns="http://www.w3.org/2000/svg">
  <path d="M0 15.1397C0 6.77825 7.16345 1.18171e-06 16 0C24.8366 -1.18171e-06 32 6.77825 32 15.1397C32 23.5011 24.6573 29.2744 16 40C6.98414 29.2744 0 23.5011 0 15.1397Z" fill="#FA541C"/>
  <path fill-rule="evenodd" clip-rule="evenodd" d="M19.3486 10.967C19.5559 10.9811 19.7517 11.0113 19.9411 11.0898C20.3798 11.2715 20.7285 11.6201 20.9102 12.0589C20.9885 12.248 21.0189 12.4431 21.033 12.6495C21.0465 12.8479 21.0465 13.0895 21.0465 13.3789V13.3954C21.0465 13.6651 20.8279 13.8837 20.5581 13.8837H20.0315C20.2384 14.0989 20.4426 14.3439 20.6328 14.616C21.1595 15.3694 21.5956 16.3537 21.6821 17.5282C22.4417 17.7356 23 18.4305 23 19.2558C23 20.2448 22.1983 21.0465 21.2093 21.0465C20.2203 21.0465 19.4186 20.2448 19.4186 19.2558C19.4186 19.2009 19.4211 19.1466 19.4259 19.093H15.1372C14.911 20.2076 13.9255 21.0465 12.7442 21.0465C11.5628 21.0465 10.5774 20.2076 10.3512 19.093H9.48837C9.21865 19.093 9 18.8744 9 18.6047C9 17.4479 9.41037 16.5006 10.1071 15.8443C10.7993 15.1923 11.7388 14.8605 12.7442 14.8605C13.7496 14.8605 14.6891 15.1923 15.3812 15.8443C15.9631 16.3923 16.3452 17.1433 16.4554 18.0496C16.7021 17.9718 16.9068 17.8286 17.0839 17.6357C17.3729 17.3207 17.5933 16.8646 17.7535 16.3275C18.0741 15.2528 18.1097 14.0105 18.1097 13.3954V11.9302H16.615V10.9535L18.6145 10.9535C18.9061 10.9535 19.1493 10.9535 19.3486 10.967ZM19.0864 11.9333V12.907H20.0666C20.0649 12.8358 20.0624 12.773 20.0585 12.716C20.0478 12.5593 20.0286 12.483 20.0078 12.4327M19.0606 14.3037C19.0211 14.9745 18.924 15.8205 18.6895 16.6067C18.5301 17.1409 18.2989 17.6774 17.9557 18.1163H19.8279C20.0525 17.8444 20.3558 17.6399 20.703 17.5377C20.6208 16.5931 20.2662 15.7964 19.8323 15.1757C19.583 14.819 19.3123 14.5273 19.0606 14.3037ZM15.4793 18.1163C15.3869 17.4432 15.1032 16.9242 14.7115 16.5553C14.2253 16.0973 13.5369 15.8372 12.7442 15.8372C11.9515 15.8372 11.263 16.0973 10.7768 16.5553C10.3852 16.9242 10.1014 17.4432 10.0091 18.1163H15.4793ZM19.0864 11.9333C19.1596 11.935 19.2242 11.9375 19.2825 11.9415C19.4407 11.9522 19.5173 11.9715 19.5673 11.9922C19.7667 12.0748 19.9252 12.2333 20.0078 12.4327M11.3624 19.093C11.5636 19.6621 12.1063 20.0698 12.7442 20.0698C13.3821 20.0698 13.9248 19.6621 14.1259 19.093H11.3624ZM14.0465 13.8837H11.4419V12.907H14.0465V13.8837ZM21.2093 18.4419C20.7598 18.4419 20.3953 18.8063 20.3953 19.2558C20.3953 19.7054 20.7598 20.0698 21.2093 20.0698C21.6588 20.0698 22.0233 19.7054 22.0233 19.2558C22.0233 18.8063 21.6588 18.4419 21.2093 18.4419Z" fill="white"/>
  </svg>
  