<svg width="32" height="40" viewBox="0 0 32 40" fill="none" xmlns="http://www.w3.org/2000/svg">
  <path d="M0 15.1397C0 6.77825 7.16345 1.18171e-06 16 0C24.8366 -1.18171e-06 32 6.77825 32 15.1397C32 23.5011 24.6573 29.2744 16 40C6.98414 29.2744 0 23.5011 0 15.1397Z" fill="#FA541C"/>
  <path d="M21.4136 19.9294C21.1189 19.2312 20.6911 18.597 20.1542 18.0622C19.619 17.5258 18.9849 17.0981 18.2871 16.8028C18.2808 16.7997 18.2746 16.7981 18.2683 16.795C19.2417 16.0919 19.8746 14.9465 19.8746 13.6544C19.8746 11.5137 18.1402 9.77936 15.9996 9.77936C13.8589 9.77936 12.1246 11.5137 12.1246 13.6544C12.1246 14.9465 12.7574 16.0919 13.7308 16.7965C13.7246 16.7997 13.7183 16.8012 13.7121 16.8044C13.0121 17.0997 12.3839 17.5231 11.8449 18.0637C11.3085 18.599 10.8808 19.2331 10.5855 19.9309C10.2954 20.6141 10.1389 21.3466 10.1246 22.0887C10.1241 22.1054 10.1271 22.122 10.1332 22.1375C10.1392 22.1531 10.1484 22.1672 10.16 22.1792C10.1717 22.1911 10.1856 22.2006 10.201 22.2071C10.2164 22.2135 10.2329 22.2169 10.2496 22.2169H11.1871C11.2558 22.2169 11.3105 22.1622 11.3121 22.095C11.3433 20.8887 11.8277 19.759 12.6839 18.9028C13.5699 18.0169 14.7464 17.5294 15.9996 17.5294C17.2527 17.5294 18.4292 18.0169 19.3152 18.9028C20.1714 19.759 20.6558 20.8887 20.6871 22.095C20.6886 22.1637 20.7433 22.2169 20.8121 22.2169H21.7496C21.7662 22.2169 21.7827 22.2135 21.7981 22.2071C21.8135 22.2006 21.8274 22.1911 21.8391 22.1792C21.8507 22.1672 21.8599 22.1531 21.8659 22.1375C21.872 22.122 21.875 22.1054 21.8746 22.0887C21.8589 21.3419 21.7042 20.6153 21.4136 19.9294ZM15.9996 16.3419C15.2824 16.3419 14.6074 16.0622 14.0996 15.5544C13.5917 15.0465 13.3121 14.3715 13.3121 13.6544C13.3121 12.9372 13.5917 12.2622 14.0996 11.7544C14.6074 11.2465 15.2824 10.9669 15.9996 10.9669C16.7167 10.9669 17.3917 11.2465 17.8996 11.7544C18.4074 12.2622 18.6871 12.9372 18.6871 13.6544C18.6871 14.3715 18.4074 15.0465 17.8996 15.5544C17.3917 16.0622 16.7167 16.3419 15.9996 16.3419Z" fill="white"/>
  </svg>
  