<svg width="128" height="54" viewBox="0 0 128 54" fill="none" xmlns="http://www.w3.org/2000/svg">
<path d="M27.9313 33.9217L23.4964 26.2404L23.2614 25.8334L22.6413 24.7588L22.0208 25.8334L21.7858 26.2404L13.8619 39.965L13.7832 40.1008L13.5767 40.4587L13.7837 40.8171L13.8619 40.9524L18.2967 48.6337L18.5313 49.0412L19.1518 50.1153L19.7723 49.0412L20.0074 48.6337L27.9313 34.9091L28.0095 34.7733L28.2165 34.4154L28.0095 34.057L27.9313 33.9217Z" fill="#E5E5EC"/>
<path d="M21.0013 25.3446L21.6218 24.2705H20.3813H19.9112H4.01275H3.5426H2.30206L2.92258 25.3446L3.15766 25.7521L11.1066 39.5203L11.3417 39.9273L11.9617 41.002L12.5822 39.9273L12.8173 39.5203L20.7662 25.7521L21.0013 25.3446Z" fill="#9696B4"/>
<path d="M4.12504 23.1435H12.074H12.5441H13.7847L13.1642 22.0689L12.9291 21.6619L8.95486 14.7775L8.71978 14.3705L8.09926 13.2959L7.47924 14.3705L7.24417 14.7775L3.26944 21.6619L3.03437 22.0689L2.41385 23.1435H3.65489H4.12504Z" fill="#E5E5EC"/>
<path d="M11.2846 16.5583L14.8012 22.6492L14.8799 22.785L15.0864 23.1434H15.4999H15.6568H19.3257H19.4821H19.8956L20.1026 22.785L20.1808 22.6497L24.5701 15.0471L24.6488 14.9112L24.8553 14.5533L24.6488 14.195L24.5701 14.0591L19.219 4.79095L18.9839 4.38345L18.3634 3.30933L17.7434 4.38345L17.5083 4.79095L11.2846 15.5703L11.2059 15.7062L10.9994 16.0645L11.2059 16.4224L11.2846 16.5583Z" fill="#7C7C9E"/>
<path d="M35.2462 24.2705H34.776H25.3715H24.9014H23.6603L24.2809 25.3446L24.5159 25.7521L29.2184 33.8966L29.4535 34.3036L30.0735 35.3782L30.6941 34.3036L30.9291 33.8966L35.6311 25.7521L35.8662 25.3446L36.4867 24.2705H35.2462Z" fill="#9696B4"/>
<path d="M21.8178 22.0688L21.1978 23.1434H22.4384H22.9085H34.6638H35.1339H36.375L35.7544 22.0688L35.5194 21.6618L29.6415 11.4809L29.4064 11.0739L28.7864 9.99976L28.1659 11.0739L27.9308 11.4809L22.0529 21.6618L21.8178 22.0688Z" fill="#E5E5EC"/>
<path d="M28.7859 6.69037L25.5063 12.3713L18.3634 0L10.7472 13.1918L10.3462 13.8825L8.09674 9.98694L0.122223 23.8053L11.9617 44.3104L12.9256 42.6409L19.1518 53.4247L28.8676 36.5976L30.074 38.6872L38.6665 23.8053L28.7859 6.69037ZM35.1745 25.4864L30.0735 34.3235L24.5736 24.8002H35.5735L35.1725 25.4909L35.1745 25.4864ZM3.32707 22.6158L3.72805 21.9252L8.10125 14.3501L12.8734 22.6158H3.32707ZM19.5914 22.6158H15.3906L11.6083 16.0643L18.3634 4.36368L24.2468 14.5531L19.5914 22.6158ZM20.7086 24.7977L11.9617 39.9473L3.21529 24.7977H20.7086ZM22.6413 25.8137L27.6075 34.4157L19.1518 49.0611L14.1856 40.4595L22.6413 25.8137ZM28.3874 11.7442L28.7884 11.0536L35.4617 22.6158H22.1105L28.3874 11.7442Z" fill="#A3A3BE"/>
<path d="M58.7143 31.4762C58.793 31.6336 58.8324 31.801 58.8324 31.9781C58.8324 32.2734 58.7143 32.5194 58.4781 32.7163C58.2615 32.9131 57.9958 33.0116 57.6808 33.0116C57.1887 33.0116 56.8442 32.7753 56.6474 32.3029L54.551 27.5196H43.4194L41.2935 32.3029C41.0966 32.7753 40.7521 33.0116 40.26 33.0116C39.9451 33.0116 39.6695 32.9131 39.4333 32.7163C39.1971 32.4998 39.0789 32.2439 39.0789 31.9486C39.0789 31.7911 39.1183 31.6336 39.1971 31.4762L47.6417 12.6971C47.7598 12.4215 47.937 12.2148 48.1732 12.077C48.4094 11.9393 48.6653 11.8704 48.9409 11.8704C49.2362 11.8704 49.5019 11.9491 49.7381 12.1066C49.9743 12.2444 50.1515 12.4412 50.2696 12.6971L58.7143 31.4762ZM44.3052 25.5117H53.6652L48.9704 14.9116L44.3052 25.5117Z" fill="#9696B4"/>
<path d="M62.5103 33.0116C62.156 33.0116 61.8607 32.9131 61.6245 32.7163C61.408 32.4998 61.2997 32.2045 61.2997 31.8305V13.081C61.2997 12.707 61.408 12.4215 61.6245 12.2247C61.8607 12.0082 62.156 11.8999 62.5103 11.8999C62.8449 11.8999 63.1205 12.0082 63.3371 12.2247C63.5733 12.4215 63.6914 12.707 63.6914 13.081V31.8305C63.6914 32.2045 63.5733 32.4998 63.3371 32.7163C63.1205 32.9131 62.8449 33.0116 62.5103 33.0116Z" fill="#9696B4"/>
<path d="M74.2154 31.1218C74.9043 31.1809 75.2488 31.4958 75.2488 32.0667C75.2488 32.4013 75.1209 32.6572 74.865 32.8344C74.6288 32.9919 74.2646 33.0509 73.7725 33.0116L72.9753 32.9525C71.4005 32.8344 70.2391 32.362 69.4911 31.5352C68.7431 30.7085 68.3691 29.4585 68.3691 27.7853V20.3741H66.3908C66.0561 20.3741 65.7904 20.2953 65.5936 20.1379C65.4164 19.9607 65.3278 19.7343 65.3278 19.4587C65.3278 19.1635 65.4164 18.9273 65.5936 18.7501C65.7904 18.5729 66.0561 18.4844 66.3908 18.4844H68.3691V15.1478C68.3691 14.7738 68.4773 14.4884 68.6939 14.2916C68.9104 14.075 69.2057 13.9668 69.5797 13.9668C69.934 13.9668 70.2194 14.075 70.436 14.2916C70.6525 14.4884 70.7607 14.7738 70.7607 15.1478V18.4844H74.0382C74.3532 18.4844 74.5992 18.5729 74.7764 18.7501C74.9732 18.9273 75.0717 19.1635 75.0717 19.4587C75.0717 19.7343 74.9732 19.9607 74.7764 20.1379C74.5992 20.2953 74.3532 20.3741 74.0382 20.3741H70.7607V27.9034C70.7607 28.9861 70.9773 29.7734 71.4103 30.2656C71.8631 30.738 72.5324 31.0037 73.4182 31.0628L74.2154 31.1218Z" fill="#9696B4"/>
<path d="M82.9802 33.0706C81.622 33.0706 80.4212 32.7655 79.378 32.1553C78.3544 31.5451 77.5571 30.6789 76.9863 29.5569C76.4351 28.4152 76.1595 27.0964 76.1595 25.6003C76.1595 24.1043 76.4351 22.7953 76.9863 21.6733C77.5571 20.5316 78.3544 19.6556 79.378 19.0454C80.4212 18.4352 81.622 18.13 82.9802 18.13C84.3385 18.13 85.5392 18.4352 86.5825 19.0454C87.6258 19.6556 88.423 20.5316 88.9742 21.6733C89.545 22.7953 89.8304 24.1043 89.8304 25.6003C89.8304 27.0964 89.545 28.4152 88.9742 29.5569C88.423 30.6789 87.6258 31.5451 86.5825 32.1553C85.5392 32.7655 84.3385 33.0706 82.9802 33.0706ZM82.9802 31.0923C84.3975 31.0923 85.4802 30.6297 86.2282 29.7046C86.9959 28.7597 87.3797 27.3916 87.3797 25.6003C87.3797 23.8484 86.9959 22.5 86.2282 21.5552C85.4605 20.5906 84.3778 20.1083 82.9802 20.1083C81.5826 20.1083 80.5 20.5906 79.7323 21.5552C78.9646 22.5 78.5807 23.8484 78.5807 25.6003C78.5807 27.3719 78.9547 28.7302 79.7028 29.675C80.4704 30.6199 81.5629 31.0923 82.9802 31.0923Z" fill="#9696B4"/>
<path d="M104.467 18.1891C104.841 18.1891 105.136 18.2974 105.352 18.5139C105.569 18.7304 105.677 19.0158 105.677 19.3702V31.8895C105.677 34.0352 105.126 35.6493 104.024 36.7319C102.921 37.8343 101.287 38.3854 99.1222 38.3854C97.0159 38.3854 95.264 37.9721 93.8664 37.1453C93.1578 36.7516 92.8034 36.2989 92.8034 35.7871C92.8034 35.5115 92.8723 35.2851 93.0101 35.108C93.1676 34.9308 93.3644 34.8422 93.6007 34.8422C93.7975 34.8422 94.1518 34.98 94.6636 35.2556C95.3526 35.6099 96.0317 35.8953 96.701 36.1119C97.3702 36.3284 98.1675 36.4367 99.0926 36.4367C100.49 36.4367 101.543 36.0627 102.252 35.3146C102.961 34.5863 103.315 33.5135 103.315 32.0962V29.5569C102.902 30.4821 102.262 31.1907 101.396 31.6828C100.549 32.175 99.5454 32.421 98.384 32.421C97.1242 32.421 96.0022 32.1257 95.0179 31.5352C94.0534 30.9447 93.2955 30.1081 92.7444 29.0254C92.2129 27.9428 91.9472 26.6928 91.9472 25.2755C91.9472 23.8582 92.2129 22.6083 92.7444 21.5256C93.2955 20.443 94.0534 19.6064 95.0179 19.0158C96.0022 18.4253 97.1242 18.13 98.384 18.13C99.5257 18.13 100.52 18.3761 101.366 18.8682C102.213 19.3603 102.852 20.0591 103.285 20.9646V19.3702C103.285 19.0158 103.384 18.7304 103.581 18.5139C103.797 18.2974 104.093 18.1891 104.467 18.1891ZM98.8564 30.4427C100.234 30.4427 101.317 29.99 102.104 29.0845C102.892 28.1593 103.285 26.8897 103.285 25.2755C103.285 23.6811 102.892 22.4311 102.104 21.5256C101.337 20.6005 100.254 20.1379 98.8564 20.1379C97.4588 20.1379 96.3565 20.6005 95.5494 21.5256C94.762 22.4311 94.3683 23.6811 94.3683 25.2755C94.3683 26.8897 94.762 28.1593 95.5494 29.0845C96.3565 29.99 97.4588 30.4427 98.8564 30.4427Z" fill="#9696B4"/>
<path d="M110.724 33.0116C110.37 33.0116 110.075 32.9131 109.839 32.7163C109.622 32.4998 109.514 32.2045 109.514 31.8305V19.3702C109.514 18.9962 109.622 18.7107 109.839 18.5139C110.075 18.2974 110.37 18.1891 110.724 18.1891C111.079 18.1891 111.364 18.2974 111.581 18.5139C111.797 18.7107 111.905 18.9962 111.905 19.3702V31.8305C111.905 32.2242 111.797 32.5194 111.581 32.7163C111.364 32.9131 111.079 33.0116 110.724 33.0116ZM110.724 15.0888C110.252 15.0888 109.868 14.951 109.573 14.6754C109.278 14.3998 109.13 14.0357 109.13 13.5829C109.13 13.1499 109.278 12.7955 109.573 12.52C109.868 12.2444 110.252 12.1066 110.724 12.1066C111.197 12.1066 111.581 12.2444 111.876 12.52C112.171 12.7955 112.319 13.1499 112.319 13.5829C112.319 14.0357 112.171 14.3998 111.876 14.6754C111.581 14.951 111.197 15.0888 110.724 15.0888Z" fill="#9696B4"/>
<path d="M121.721 33.0706C120.382 33.0706 119.191 32.7655 118.148 32.1553C117.124 31.5451 116.327 30.6789 115.756 29.5569C115.205 28.4349 114.93 27.1357 114.93 25.6594C114.93 24.183 115.215 22.874 115.786 21.7323C116.376 20.5906 117.193 19.7048 118.237 19.0749C119.28 18.445 120.481 18.13 121.839 18.13C122.587 18.13 123.325 18.2383 124.053 18.4548C124.801 18.6517 125.451 18.947 126.002 19.3406C126.356 19.5769 126.603 19.8131 126.74 20.0493C126.898 20.2658 126.977 20.5119 126.977 20.7875C126.977 21.063 126.898 21.2894 126.74 21.4666C126.603 21.6437 126.416 21.7323 126.179 21.7323C126.042 21.7323 125.894 21.6929 125.736 21.6142C125.579 21.5355 125.441 21.4567 125.323 21.378C125.225 21.2993 125.156 21.25 125.116 21.2304C124.605 20.8957 124.112 20.63 123.64 20.4331C123.187 20.2363 122.626 20.1379 121.957 20.1379C120.52 20.1379 119.398 20.63 118.591 21.6142C117.804 22.5787 117.41 23.9271 117.41 25.6594C117.41 27.3916 117.804 28.7302 118.591 29.675C119.398 30.6199 120.52 31.0923 121.957 31.0923C122.626 31.0923 123.197 30.9939 123.67 30.797C124.162 30.6002 124.654 30.3345 125.146 29.9998C125.362 29.862 125.569 29.7439 125.766 29.6455C125.963 29.5471 126.13 29.4979 126.268 29.4979C126.484 29.4979 126.662 29.5864 126.799 29.7636C126.957 29.9408 127.036 30.1671 127.036 30.4427C127.036 30.6986 126.967 30.9348 126.829 31.1514C126.691 31.3482 126.435 31.5746 126.061 31.8305C125.51 32.2045 124.841 32.5096 124.053 32.7458C123.286 32.9623 122.508 33.0706 121.721 33.0706Z" fill="#9696B4"/>
</svg>
