<svg width="141" height="60" viewBox="0 0 141 60" fill="none" xmlns="http://www.w3.org/2000/svg">
<path d="M31.3665 37.6427L26.4882 29.1933L26.2296 28.7456L25.5476 27.5635L24.865 28.7456L24.6064 29.1933L15.8901 44.2903L15.8036 44.4397L15.5764 44.8334L15.8041 45.2276L15.8901 45.3765L20.7685 53.8259L21.0265 54.2741L21.7091 55.4557L22.3916 54.2741L22.6502 53.8259L31.3665 38.7289L31.4525 38.5794L31.6802 38.1858L31.4525 37.7916L31.3665 37.6427Z" fill="#84D5F7"/>
<path d="M23.7436 28.2079L24.4261 27.0264H23.0615H22.5444H5.05613H4.53897H3.17438L3.85695 28.2079L4.11553 28.6562L12.8594 43.8012L13.118 44.2489L13.8 45.431L14.4825 44.2489L14.7411 43.8012L23.485 28.6562L23.7436 28.2079Z" fill="#438CCB"/>
<path d="M5.17967 25.7867H13.9235H14.4407H15.8053L15.1227 24.6046L14.8641 24.1569L10.4925 16.5841L10.2339 16.1364L9.55132 14.9543L8.8693 16.1364L8.61072 16.5841L4.23852 24.1569L3.97993 24.6046L3.29736 25.7867H4.6625H5.17967Z" fill="#84D5F7"/>
<path d="M13.0551 18.5431L16.9234 25.2431L17.0099 25.3925L17.2371 25.7867H17.692H17.8645H21.9004H22.0724H22.5273L22.755 25.3925L22.841 25.2436L27.6692 16.8807L27.7557 16.7313L27.9829 16.3377L27.7557 15.9434L27.6692 15.794L21.783 5.59903L21.5244 5.15078L20.8418 3.96924L20.1598 5.15078L19.9012 5.59903L13.0551 17.4563L12.9685 17.6058L12.7414 18L12.9685 18.3936L13.0551 18.5431Z" fill="#55A6D7"/>
<path d="M39.4129 27.0264H38.8958H28.5508H28.0336H26.6685L27.3511 28.2079L27.6096 28.6562L32.7824 37.615L33.041 38.0627L33.723 39.2448L34.4056 38.0627L34.6642 37.615L39.8364 28.6562L40.0949 28.2079L40.7775 27.0264H39.4129Z" fill="#55A6D7"/>
<path d="M24.6417 24.6046L23.9597 25.7866H25.3243H25.8415H38.7723H39.2894H40.6546L39.972 24.6046L39.7134 24.1569L33.2477 12.9579L32.9892 12.5102L32.3071 11.3286L31.6246 12.5102L31.366 12.9579L24.9003 24.1569L24.6417 24.6046Z" fill="#62BFEC"/>
<path d="M32.3066 7.68827L28.6991 13.9373L20.8418 0.328857L12.4641 14.8398L12.023 15.5996L9.54852 11.3145L0.77655 26.5146L13.8 49.0703L14.8602 47.2338L21.7091 59.0961L32.3964 40.5862L33.7235 42.8848L43.1753 26.5146L32.3066 7.68827ZM39.3341 28.3639L33.723 38.0847L27.673 27.6091H39.7729L39.3319 28.3688L39.3341 28.3639ZM4.30188 25.2063L4.74296 24.4465L9.55348 16.114L14.8029 25.2063H4.30188ZM22.1926 25.2063H17.5718L13.4113 17.9996L20.8418 5.1289L27.3135 16.3373L22.1926 25.2063ZM23.4216 27.6063L13.8 44.2708L4.17893 27.6063H23.4216ZM25.5476 28.7239L31.0103 38.1862L21.7091 54.296L16.2463 44.8343L25.5476 28.7239ZM31.8682 13.2475L32.3093 12.4878L39.65 25.2063H24.9637L31.8682 13.2475Z" fill="#002C3B"/>
<path d="M65.2278 34.9526C65.3144 35.1258 65.3577 35.3099 65.3577 35.5048C65.3577 35.8296 65.2278 36.1002 64.968 36.3167C64.7298 36.5333 64.4375 36.6415 64.091 36.6415C63.5497 36.6415 63.1708 36.3817 62.9542 35.862L60.6482 30.6004H48.4034L46.0649 35.862C45.8484 36.3817 45.4694 36.6415 44.9281 36.6415C44.5817 36.6415 44.2785 36.5333 44.0187 36.3167C43.7589 36.0786 43.6289 35.7971 43.6289 35.4723C43.6289 35.2991 43.6722 35.1258 43.7589 34.9526L53.048 14.2957C53.1779 13.9925 53.3728 13.7652 53.6326 13.6136C53.8925 13.462 54.1739 13.3862 54.4771 13.3862C54.8019 13.3862 55.0942 13.4728 55.354 13.6461C55.6139 13.7976 55.8087 14.0142 55.9387 14.2957L65.2278 34.9526ZM49.3778 28.3918H59.6738L54.5096 16.7316L49.3778 28.3918Z" fill="black"/>
<path d="M69.4034 36.6415C69.0137 36.6415 68.6889 36.5333 68.4291 36.3167C68.1909 36.0786 68.0718 35.7538 68.0718 35.3424V14.7179C68.0718 14.3065 68.1909 13.9925 68.4291 13.776C68.6889 13.5378 69.0137 13.4187 69.4034 13.4187C69.7715 13.4187 70.0747 13.5378 70.3129 13.776C70.5727 13.9925 70.7026 14.3065 70.7026 14.7179V35.3424C70.7026 35.7538 70.5727 36.0786 70.3129 36.3167C70.0747 36.5333 69.7715 36.6415 69.4034 36.6415Z" fill="black"/>
<path d="M82.279 34.5629C83.0369 34.6278 83.4158 34.9743 83.4158 35.6022C83.4158 35.9703 83.2751 36.2518 82.9936 36.4467C82.7337 36.6199 82.3331 36.6848 81.7918 36.6415L80.9149 36.5766C79.1826 36.4467 77.9051 35.927 77.0823 35.0176C76.2595 34.1081 75.8481 32.7332 75.8481 30.8927V22.7403H73.672C73.3039 22.7403 73.0115 22.6537 72.795 22.4805C72.6001 22.2856 72.5027 22.0366 72.5027 21.7335C72.5027 21.4087 72.6001 21.1488 72.795 20.954C73.0115 20.7591 73.3039 20.6616 73.672 20.6616H75.8481V16.9915C75.8481 16.58 75.9672 16.2661 76.2054 16.0495C76.4435 15.8114 76.7683 15.6923 77.1797 15.6923C77.5695 15.6923 77.8835 15.8114 78.1216 16.0495C78.3598 16.2661 78.4789 16.58 78.4789 16.9915V20.6616H82.0841C82.4306 20.6616 82.7012 20.7591 82.8961 20.954C83.1127 21.1488 83.2209 21.4087 83.2209 21.7335C83.2209 22.0366 83.1127 22.2856 82.8961 22.4805C82.7012 22.6537 82.4306 22.7403 82.0841 22.7403H78.4789V31.0226C78.4789 32.2135 78.7171 33.0796 79.1935 33.621C79.6915 34.1406 80.4277 34.4329 81.4021 34.4979L82.279 34.5629Z" fill="black"/>
<path d="M91.9203 36.7065C90.4263 36.7065 89.1055 36.3709 87.9578 35.6996C86.8319 35.0284 85.9549 34.0757 85.327 32.8414C84.7207 31.5856 84.4176 30.1348 84.4176 28.4892C84.4176 26.8436 84.7207 25.4036 85.327 24.1694C85.9549 22.9135 86.8319 21.95 87.9578 21.2787C89.1055 20.6075 90.4263 20.2719 91.9203 20.2719C93.4144 20.2719 94.7352 20.6075 95.8828 21.2787C97.0305 21.95 97.9074 22.9135 98.5137 24.1694C99.1416 25.4036 99.4556 26.8436 99.4556 28.4892C99.4556 30.1348 99.1416 31.5856 98.5137 32.8414C97.9074 34.0757 97.0305 35.0284 95.8828 35.6996C94.7352 36.3709 93.4144 36.7065 91.9203 36.7065ZM91.9203 34.5304C93.4794 34.5304 94.6703 34.0215 95.4931 33.0038C96.3376 31.9645 96.7598 30.4596 96.7598 28.4892C96.7598 26.5621 96.3376 25.0788 95.4931 24.0395C94.6486 22.9785 93.4577 22.448 91.9203 22.448C90.383 22.448 89.1921 22.9785 88.3476 24.0395C87.5031 25.0788 87.0809 26.5621 87.0809 28.4892C87.0809 30.438 87.4923 31.932 88.3151 32.9714C89.1596 34.0107 90.3613 34.5304 91.9203 34.5304Z" fill="black"/>
<path d="M115.555 20.3368C115.967 20.3368 116.291 20.4559 116.53 20.6941C116.768 20.9323 116.887 21.2463 116.887 21.636V35.4073C116.887 37.7675 116.281 39.543 115.068 40.734C113.856 41.9465 112.058 42.5528 109.676 42.5528C107.36 42.5528 105.432 42.0981 103.895 41.1887C103.116 40.7556 102.726 40.2576 102.726 39.6946C102.726 39.3915 102.802 39.1425 102.953 38.9476C103.126 38.7527 103.343 38.6553 103.603 38.6553C103.819 38.6553 104.209 38.8068 104.772 39.11C105.53 39.4997 106.277 39.8137 107.013 40.0519C107.749 40.2901 108.626 40.4092 109.644 40.4092C111.181 40.4092 112.34 39.9978 113.119 39.1749C113.899 38.3738 114.289 37.1937 114.289 35.6347V32.8414C113.834 33.8591 113.13 34.6386 112.177 35.18C111.246 35.7213 110.142 35.992 108.864 35.992C107.479 35.992 106.244 35.6672 105.162 35.0176C104.101 34.368 103.267 33.4477 102.661 32.2568C102.076 31.0659 101.784 29.6909 101.784 28.1319C101.784 26.5729 102.076 25.1979 102.661 24.007C103.267 22.8161 104.101 21.8959 105.162 21.2463C106.244 20.5967 107.479 20.2719 108.864 20.2719C110.12 20.2719 111.214 20.5425 112.145 21.0839C113.076 21.6252 113.78 22.3939 114.256 23.3899V21.636C114.256 21.2463 114.364 20.9323 114.581 20.6941C114.819 20.4559 115.144 20.3368 115.555 20.3368ZM109.384 33.8158C110.9 33.8158 112.091 33.3178 112.957 32.3218C113.823 31.3041 114.256 29.9075 114.256 28.1319C114.256 26.378 113.823 25.0031 112.957 24.007C112.112 22.9893 110.922 22.4805 109.384 22.4805C107.847 22.4805 106.634 22.9893 105.746 24.007C104.88 25.0031 104.447 26.378 104.447 28.1319C104.447 29.9075 104.88 31.3041 105.746 32.3218C106.634 33.3178 107.847 33.8158 109.384 33.8158Z" fill="black"/>
<path d="M122.439 36.6415C122.049 36.6415 121.724 36.5333 121.464 36.3167C121.226 36.0786 121.107 35.7538 121.107 35.3424V21.636C121.107 21.2246 121.226 20.9106 121.464 20.6941C121.724 20.4559 122.049 20.3368 122.439 20.3368C122.829 20.3368 123.143 20.4559 123.381 20.6941C123.619 20.9106 123.738 21.2246 123.738 21.636V35.3424C123.738 35.7754 123.619 36.1002 123.381 36.3167C123.143 36.5333 122.829 36.6415 122.439 36.6415ZM122.439 16.9265C121.919 16.9265 121.497 16.7749 121.172 16.4718C120.847 16.1686 120.685 15.7681 120.685 15.27C120.685 14.7937 120.847 14.4039 121.172 14.1008C121.497 13.7976 121.919 13.6461 122.439 13.6461C122.959 13.6461 123.381 13.7976 123.706 14.1008C124.03 14.4039 124.193 14.7937 124.193 15.27C124.193 15.7681 124.03 16.1686 123.706 16.4718C123.381 16.7749 122.959 16.9265 122.439 16.9265Z" fill="black"/>
<path d="M134.535 36.7065C133.063 36.7065 131.753 36.3709 130.605 35.6996C129.479 35.0284 128.602 34.0757 127.974 32.8414C127.368 31.6072 127.065 30.1781 127.065 28.5541C127.065 26.9302 127.379 25.4903 128.007 24.2344C128.656 22.9785 129.555 22.0041 130.702 21.3112C131.85 20.6183 133.171 20.2719 134.665 20.2719C135.488 20.2719 136.3 20.391 137.101 20.6292C137.924 20.8457 138.638 21.1705 139.244 21.6035C139.634 21.8634 139.905 22.1232 140.056 22.383C140.23 22.6212 140.316 22.8919 140.316 23.195C140.316 23.4982 140.23 23.7472 140.056 23.9421C139.905 24.1369 139.699 24.2344 139.439 24.2344C139.288 24.2344 139.125 24.1911 138.952 24.1045C138.779 24.0178 138.627 23.9312 138.497 23.8446C138.389 23.758 138.313 23.7039 138.27 23.6822C137.707 23.3141 137.166 23.0218 136.646 22.8053C136.148 22.5887 135.531 22.4805 134.795 22.4805C133.214 22.4805 131.98 23.0218 131.092 24.1045C130.226 25.1655 129.793 26.6487 129.793 28.5541C129.793 30.4596 130.226 31.932 131.092 32.9714C131.98 34.0107 133.214 34.5304 134.795 34.5304C135.531 34.5304 136.159 34.4221 136.679 34.2056C137.22 33.989 137.761 33.6967 138.303 33.3286C138.541 33.1771 138.768 33.0471 138.985 32.9389C139.201 32.8306 139.385 32.7765 139.537 32.7765C139.775 32.7765 139.97 32.8739 140.121 33.0688C140.295 33.2637 140.381 33.5127 140.381 33.8158C140.381 34.0973 140.305 34.3572 140.154 34.5953C140.002 34.8119 139.721 35.0609 139.309 35.3424C138.703 35.7538 137.967 36.0894 137.101 36.3492C136.256 36.5874 135.401 36.7065 134.535 36.7065Z" fill="black"/>
</svg>
