<svg width="170" height="30" viewBox="0 0 170 30" fill="none" xmlns="http://www.w3.org/2000/svg">
<path d="M35.3642 15.2539C35.3642 21.579 30.2368 26.7066 23.9114 26.7066C20.9735 26.7066 18.2941 25.6001 16.2667 23.7817C19.5145 22.3195 21.7755 19.0549 21.7755 15.2622C21.7755 11.4645 19.5089 8.19657 16.2543 6.7371C18.2834 4.91205 20.9675 3.80127 23.9114 3.80127C30.2368 3.80127 35.3642 8.92878 35.3642 15.2539Z" fill="#9696B4"/>
<path d="M19.3335 6.11222C12.2999 0.796806 2.14951 5.08849 1.06311 13.8376C0.558256 17.9037 2.26394 21.9298 5.53603 24.3956C12.5736 29.7063 22.7209 25.4072 23.8014 16.6573C24.3027 12.5963 22.5995 8.57667 19.3335 6.11211V6.11222ZM18.0596 7.79985C23.798 12.1299 22.6968 21.0478 16.0775 23.8522C13.0059 25.1538 9.47283 24.7176 6.80977 22.7079C1.07173 18.3777 2.17274 9.45976 8.79191 6.65548C11.8637 5.35414 15.3967 5.79022 18.0596 7.79985Z" fill="#9696B4"/>
<path d="M48.5425 6.84914C50.1142 6.84914 51.4538 7.2559 52.5616 8.06987C53.6693 8.88396 54.4309 9.96288 54.8468 11.3067V7.04614H56.8077V22.5548H54.8468V18.2945C54.4309 19.6396 53.6693 20.7189 52.5616 21.5329C51.4538 22.347 50.1142 22.754 48.5425 22.754C47.1413 22.754 45.8868 22.432 44.779 21.7883C43.6713 21.1448 42.8098 20.2216 42.1943 19.0187C41.579 17.8159 41.271 16.4098 41.271 14.8005C41.271 13.1725 41.579 11.7572 42.1943 10.5543C42.8098 9.35269 43.6666 8.43488 44.7649 7.80031C45.8632 7.16597 47.1223 6.84914 48.5425 6.84914ZM49.0535 8.6091C47.3115 8.6091 45.9149 9.16283 44.8635 10.2707C43.8134 11.3785 43.2883 12.8885 43.2883 14.8005C43.2883 16.7128 43.8134 18.2229 44.8635 19.3307C45.9149 20.4382 47.3115 20.992 49.0535 20.992C50.1517 20.992 51.141 20.7367 52.0208 20.2255C52.9015 19.7148 53.5928 18.9904 54.0946 18.053C54.5961 17.1157 54.8468 16.0317 54.8468 14.8005C54.8468 13.5695 54.5961 12.4861 54.0946 11.5497C53.5928 10.6126 52.9015 9.88756 52.0208 9.37581C51.141 8.86463 50.1517 8.6091 49.0535 8.6091ZM69.4176 6.84914C70.8377 6.84914 72.0923 7.16597 73.181 7.80031C74.2699 8.43488 75.1222 9.35269 75.7377 10.5543C76.353 11.7572 76.6608 13.1725 76.6608 14.8005C76.6608 16.4098 76.353 17.8159 75.7377 19.0187C75.1222 20.2216 74.2649 21.1448 73.1671 21.7883C72.0688 22.432 70.8189 22.754 69.4176 22.754C67.8269 22.754 66.4827 22.347 65.3844 21.5329C64.2862 20.7189 63.529 19.6396 63.1131 18.2945V29.8828H61.1239V7.04614H63.1131V11.3067C63.529 9.96288 64.2862 8.88396 65.3844 8.06987C66.4827 7.2559 67.8269 6.84914 69.4176 6.84914ZM68.8783 8.6091C67.78 8.6091 66.7904 8.86463 65.9094 9.37581C65.0297 9.88756 64.3436 10.6126 63.8515 11.5497C63.3594 12.4861 63.1131 13.5695 63.1131 14.8005C63.1131 16.0317 63.3594 17.1157 63.8515 18.053C64.3436 18.9904 65.0297 19.7148 65.9094 20.2255C66.7904 20.7367 67.78 20.992 68.8783 20.992C70.639 20.992 72.0404 20.4382 73.0823 19.3307C74.1232 18.2229 74.6434 16.7128 74.6434 14.8005C74.6434 12.8885 74.1232 11.3785 73.0823 10.2707C72.0404 9.16283 70.639 8.6091 68.8783 8.6091ZM88.532 6.84914C89.9524 6.84914 91.2069 7.16597 92.2956 7.80031C93.3845 8.43488 94.2369 9.35269 94.8524 10.5543C95.4676 11.7572 95.7755 13.1725 95.7755 14.8005C95.7755 16.4098 95.4676 17.8159 94.8524 19.0187C94.2369 20.2216 93.3798 21.1448 92.2816 21.7883C91.1834 22.432 89.9336 22.754 88.532 22.754C86.9415 22.754 85.5974 22.347 84.4993 21.5329C83.4008 20.7189 82.6439 19.6396 82.228 18.2945V29.8828H80.2388V7.04614H82.228V11.3067C82.6439 9.96288 83.4008 8.88396 84.4993 8.06987C85.5974 7.2559 86.9415 6.84914 88.532 6.84914ZM87.9931 8.6091C86.895 8.6091 85.905 8.86463 85.0241 9.37581C84.1445 9.88756 83.4585 10.6126 82.9662 11.5497C82.4741 12.4861 82.228 13.5695 82.228 14.8005C82.228 16.0317 82.4741 17.1157 82.9662 18.053C83.4585 18.9904 84.1445 19.7148 85.0241 20.2255C85.905 20.7367 86.895 20.992 87.9931 20.992C89.7539 20.992 91.1551 20.4382 92.1969 19.3307C93.2378 18.2229 93.7582 16.7128 93.7582 14.8005C93.7582 12.8885 93.2378 11.3785 92.1969 10.2707C91.1551 9.16283 89.7539 8.6091 87.9931 8.6091ZM117.787 6.82085H121.536L117.304 22.5548H112.873L109.494 11.1093L106.028 22.5548H101.598L97.3942 6.82085H101.399L103.956 18.9765L107.448 6.82085H111.68L115.202 18.9765L117.787 6.82085ZM127.529 9.83017C128.116 8.82714 128.892 8.03675 129.857 7.45864C130.824 6.88192 131.903 6.59373 133.096 6.59373V10.882H131.931C128.997 10.882 127.529 12.2452 127.529 14.9712V22.5548H123.525V6.82085H127.529V9.83017ZM134.857 2.30308C134.857 1.65954 135.084 1.13445 135.539 0.727925C135.993 0.320594 136.59 0.116699 137.327 0.116699C138.066 0.116699 138.663 0.320594 139.117 0.727925C139.572 1.13445 139.799 1.65954 139.799 2.30308C139.799 2.9281 139.572 3.44434 139.117 3.85201C138.663 4.25946 138.066 4.46335 137.327 4.46335C136.59 4.46335 135.993 4.25946 135.539 3.85201C135.084 3.44434 134.857 2.9281 134.857 2.30308ZM135.311 6.82085H139.316V22.5548H135.311V6.82085ZM149.797 19.1175H151.358V22.5548H149.256C147.495 22.5548 146.146 22.1292 145.209 21.2775C144.272 20.4247 143.803 19.0048 143.803 17.0171V10.2001H141.616V6.82085H143.803V2.92868H147.808V6.82085H151.33V10.2001H147.808V17.0735C147.808 17.8311 147.959 18.3616 148.262 18.6645C148.565 18.9665 149.077 19.1175 149.797 19.1175ZM169.024 14.0906C169.024 14.4886 168.977 14.9433 168.883 15.4541H157.351C157.408 16.8554 157.787 17.8875 158.488 18.55C159.188 19.2126 160.059 19.5439 161.101 19.5439C162.029 19.5439 162.8 19.3166 163.414 18.8619C164.03 18.4085 164.423 17.7937 164.593 17.0171H168.825C168.617 18.1154 168.173 19.0996 167.492 19.9703C166.809 20.8419 165.933 21.5237 164.864 22.0158C163.794 22.5079 162.606 22.754 161.3 22.754C159.766 22.754 158.402 22.4275 157.209 21.7744C156.017 21.1212 155.089 20.1886 154.427 18.9765C153.763 17.7644 153.431 16.3346 153.431 14.6878C153.431 13.0399 153.763 11.6057 154.427 10.3853C155.089 9.16352 156.017 8.23064 157.209 7.58733C158.402 6.94368 159.766 6.62179 161.3 6.62179C162.852 6.62179 164.21 6.94368 165.375 7.58733C166.539 8.23064 167.439 9.11602 168.073 10.2426C168.707 11.3689 169.024 12.6516 169.024 14.0906ZM164.991 13.6943C165.049 12.4056 164.713 11.4298 163.983 10.7677C163.254 10.1049 162.36 9.77382 161.3 9.77382C160.22 9.77382 159.311 10.1049 158.573 10.7677C157.834 11.4298 157.427 12.4056 157.351 13.6943H164.991Z" fill="#9696B4"/>
<path d="M12.7416 11.2915C12.728 11.3252 12.5526 12.0129 12.3644 12.8289C12.1685 13.6446 11.8584 14.9323 11.6834 15.694C11.3461 17.0896 11.1438 18.0065 11.1438 18.1277C11.1438 18.1613 11.353 18.1886 11.6088 18.1886H12.0743L12.2831 17.258C12.4046 16.7526 12.6745 15.5928 12.89 14.6827C13.1059 13.7726 13.3686 12.6668 13.4699 12.2217C13.571 11.7767 13.6722 11.3726 13.6924 11.3252C13.7126 11.2646 13.5979 11.2446 13.2472 11.2446C12.9842 11.2446 12.7549 11.2646 12.7416 11.2915ZM9.12103 14.2106L8.50084 14.885L8.68312 15.1007C8.78397 15.2219 9.06077 15.5254 9.29653 15.7751L9.72812 16.2331H10.9553L10.3752 15.6062C10.0582 15.2695 9.79528 14.9456 9.79528 14.9053C9.79528 14.858 10.038 14.5549 10.335 14.2311C10.6314 13.901 10.8742 13.6174 10.8742 13.5838C10.8742 13.5567 10.6181 13.5366 10.3081 13.5366H9.74836L9.12103 14.2106ZM13.8404 13.5771C13.8404 13.5974 13.9552 13.7252 14.0966 13.8669C14.6229 14.3928 14.9935 14.8379 14.9732 14.9252C14.9599 14.9728 14.7035 15.2894 14.3934 15.6197L13.834 16.2331H14.4608L15.0878 16.2265L15.6606 15.5994C15.9779 15.2492 16.234 14.9387 16.234 14.8984C16.234 14.8648 15.9643 14.5479 15.627 14.1907L15.0208 13.5366H14.4338C14.1034 13.5366 13.8404 13.5567 13.8404 13.5771Z" fill="#9696B4"/>
</svg>
