<svg width="188" height="40" viewBox="0 0 188 40" fill="none" xmlns="http://www.w3.org/2000/svg">
<path fill-rule="evenodd" clip-rule="evenodd" d="M51.8188 25.1871C51.5168 25.1178 51.2734 25.0386 51.0396 24.9396C50.8838 24.8604 50.7474 24.7812 50.6305 24.6723C50.5917 24.6386 50.5616 24.5957 50.5429 24.5473C50.5242 24.499 50.5175 24.4467 50.5234 24.3951C50.6403 23.1378 50.5137 22.0191 50.6208 20.7816C51.1175 15.7128 54.2537 17.3166 57.0684 16.4949C58.6754 16.0296 60.2922 15.1188 60.8863 13.3269C60.9837 13.0299 60.8961 12.7131 60.6915 12.4854C58.8768 10.3808 56.8312 8.49415 54.5945 6.86225C47.0413 1.51822 37.7818 -0.730491 28.6678 0.565847C28.5908 0.575214 28.5175 0.604287 28.4546 0.650342C28.3917 0.696397 28.3414 0.757925 28.3083 0.829161C28.2752 0.900397 28.2604 0.979007 28.2654 1.05762C28.2703 1.13624 28.2949 1.21229 28.3366 1.27865C29.4357 3.01811 30.9031 4.48606 32.6318 5.57525C32.9435 5.77325 32.8168 6.19895 32.4565 6.10985C31.4157 5.87731 30.4297 5.44011 29.5541 4.82285C29.5056 4.79043 29.45 4.77075 29.3922 4.76557C29.3344 4.76039 29.2762 4.76986 29.2229 4.79315L27.5769 5.46635C27.5053 5.49606 27.4424 5.54414 27.3944 5.60591C27.3465 5.66768 27.3151 5.74102 27.3033 5.81879C27.2915 5.89656 27.2998 5.97611 27.3273 6.04967C27.3547 6.12324 27.4005 6.18831 27.4601 6.23855C29.6409 8.15966 32.3651 9.32794 35.2407 9.57522C38.1163 9.8225 40.9949 9.13605 43.4622 7.61465C43.7739 7.41665 44.2706 7.81265 44.1732 8.16905C44.0076 8.73335 43.8226 9.51545 43.6278 10.5747C42.3616 17.0394 38.7385 16.5444 34.2486 14.9109C25.2881 11.6043 20.1943 14.4258 15.6752 8.84225C15.3538 8.44625 14.7986 8.31755 14.4285 8.64425C13.9256 9.07923 13.5294 9.62742 13.2715 10.2453C13.0135 10.8631 12.9009 11.5336 12.9425 12.2035C12.9841 12.8734 13.1788 13.5241 13.5111 14.1041C13.8435 14.6841 14.3043 15.1773 14.857 15.5445C15.0031 15.6435 15.1882 15.6039 15.2953 15.4752C15.5778 15.1089 15.8018 14.8812 16.094 14.7228C16.3959 14.5644 16.5517 15.0198 16.2888 15.2475C15.3245 16.1088 15.0518 17.1384 14.4285 19.1778C13.4351 22.3557 13.8539 25.6128 9.24705 26.4642C6.81215 26.5929 6.85111 28.2759 5.96481 30.7806C4.93241 33.81 3.58835 35.1367 1.09502 37.7898C0.744394 38.1462 0.715175 38.7303 1.09502 39.057C2.08846 39.9183 3.12085 39.9678 4.16299 39.5322C6.75372 38.4234 8.75033 35.0178 10.6301 32.8101C12.7241 30.3549 17.7497 31.4043 21.5481 28.9986C23.5935 27.7215 24.8304 26.088 24.4408 23.6526C24.3726 23.2566 24.8206 23.019 24.9765 23.3853C25.2784 24.0783 25.4829 24.8109 25.5609 25.5633C25.5901 25.7712 25.7556 25.9197 25.9602 25.9098C30.0703 25.6722 35.3783 30.2757 40.3455 31.5231C40.6475 31.6023 40.8617 31.2459 40.6962 30.9786C40.086 30.0433 39.6472 29.0036 39.4008 27.9096C39.3034 27.5235 39.8683 27.4146 40.0631 27.771C40.8013 29.1294 41.8613 30.279 43.147 31.1157C44.4328 31.9524 45.9036 32.4497 47.4262 32.5626C48.6339 32.6616 49.9585 32.5131 51.3415 32.0874C52.9973 31.5825 54.5264 30.9291 56.3477 31.2855C57.0266 31.3919 57.6779 31.635 58.2632 32.0005C58.8486 32.366 59.3563 32.8465 59.7565 33.414C60.8571 35.0574 63.1946 35.493 64.4413 33.7704C64.5227 33.6537 64.5727 33.5174 64.5863 33.3751C64.6 33.2327 64.5768 33.0891 64.5192 32.9586C61.7726 26.4246 54.8088 25.9791 51.809 25.1871H51.8188Z" fill="#6644FF"/>
<path d="M89.735 10.8815C89.7728 10.667 89.8792 10.4711 90.0377 10.3244C90.1962 10.1776 90.3979 10.0881 90.6115 10.0697L93.9425 9.77269C94.0033 9.76672 94.0646 9.77537 94.1215 9.79794C94.1784 9.82051 94.2293 9.85637 94.2701 9.90263C94.3109 9.94888 94.3404 10.0042 94.3562 10.0642C94.372 10.1242 94.3738 10.1871 94.3613 10.2479L91.0109 29.2064C90.9699 29.4337 90.8521 29.6392 90.6778 29.7875C90.5035 29.9357 90.2837 30.0173 90.0564 30.0182H87.5338C87.3098 30.0182 87.1442 29.8202 87.1735 29.5826C87.2319 29.2361 86.8131 28.9886 86.5209 29.1965C85.4203 29.9885 84.1932 30.3845 82.8686 30.3845C82.0071 30.4054 81.1515 30.2356 80.361 29.8869C79.5706 29.5382 78.8642 29.0188 78.291 28.3649C77.0759 27.0322 76.4192 25.271 76.4599 23.4545C76.4599 20.9795 77.2099 18.9203 78.7098 17.2769C79.4371 16.4704 80.3269 15.8328 81.3185 15.4074C82.3101 14.982 83.3803 14.7789 84.4561 14.8118C85.8489 14.8118 87.0274 15.188 87.9916 15.9305C88.313 16.178 88.8195 16.0295 88.8876 15.6236L89.735 10.8716V10.8815ZM84.086 26.5235C84.6182 26.5406 85.1476 26.4376 85.6359 26.2219C86.1243 26.0062 86.5596 25.6832 86.9105 25.2761C87.6325 24.4252 88.0147 23.3303 87.9818 22.2071C87.9818 21.1577 87.6897 20.3063 87.1053 19.6628C86.8172 19.3396 86.463 19.0845 86.0676 18.9151C85.6723 18.7458 85.2452 18.6665 84.8165 18.6827C83.6672 18.6827 82.742 19.0985 82.0212 19.9301C81.2898 20.776 80.9032 21.8735 80.9401 22.9991C80.9401 24.0386 81.2323 24.8801 81.8167 25.5434C82.1038 25.8645 82.4566 26.1178 82.8504 26.2854C83.2441 26.453 83.6692 26.5309 84.0958 26.5136L84.086 26.5235ZM99.2798 12.8021C98.598 12.8021 98.0136 12.5546 97.5266 12.0794C97.289 11.8509 97.1012 11.5742 96.9753 11.2672C96.8495 10.9602 96.7885 10.6298 96.7962 10.2974C96.7962 9.42619 97.1176 8.67379 97.7507 8.05999C98.374 7.43629 99.1142 7.12939 99.9908 7.12939C100.663 7.12939 101.237 7.37689 101.724 7.88179C102.211 8.39659 102.445 8.99059 102.445 9.65389C102.445 10.5251 102.133 11.2577 101.51 11.8715C100.887 12.4952 100.147 12.8021 99.2798 12.8021ZM98.8123 29.2163C98.7714 29.4436 98.6535 29.6491 98.4792 29.7974C98.3049 29.9456 98.0851 30.0272 97.8578 30.0281H95.3352C95.1928 30.0276 95.0522 29.9953 94.9233 29.9335C94.7945 29.8717 94.6806 29.782 94.5896 29.6706C94.4985 29.5592 94.4327 29.4289 94.3966 29.2888C94.3605 29.1487 94.3551 29.0023 94.3808 28.8599L96.6501 15.9899C96.6913 15.761 96.8105 15.5541 96.9869 15.4056C97.1632 15.2572 97.3853 15.1766 97.6143 15.1781H100.147C100.289 15.1786 100.43 15.2109 100.558 15.2727C100.687 15.3344 100.801 15.4242 100.892 15.5356C100.983 15.647 101.049 15.7773 101.085 15.9174C101.121 16.0574 101.127 16.2039 101.101 16.3463L98.8123 29.2163ZM114.581 15.2474C114.688 15.2969 114.775 15.386 114.824 15.4949C114.873 15.6137 114.863 15.7523 114.814 15.8711L113.47 18.8114C113.427 18.9127 113.352 18.9963 113.256 19.049C113.182 19.0865 113.1 19.106 113.017 19.106C112.935 19.106 112.853 19.0865 112.779 19.049C112.321 18.8213 111.805 18.7223 111.259 18.7322C110.061 18.7322 109.146 19.2272 108.493 20.2172C108.26 20.5934 108.006 21.4745 107.724 22.8506L106.633 29.1965C106.594 29.4256 106.477 29.6334 106.303 29.7837C106.128 29.9339 105.907 30.0169 105.679 30.0182H103.146C103.002 30.0206 102.859 29.9905 102.728 29.93C102.597 29.8695 102.481 29.7801 102.387 29.6684C102.294 29.5566 102.227 29.4253 102.189 29.2837C102.152 29.1422 102.146 28.9941 102.172 28.85L104.451 15.98C104.493 15.7511 104.612 15.5442 104.788 15.3957C104.965 15.2473 105.187 15.1667 105.416 15.1682H107.558C107.967 15.1682 108.279 15.5345 108.211 15.9404C108.153 16.2869 108.601 16.5047 108.864 16.277C109.613 15.5587 110.551 15.0778 111.565 14.8932C112.579 14.7086 113.623 14.8282 114.571 15.2375L114.581 15.2474ZM122.363 14.8118C124.7 14.8118 126.453 15.5741 127.622 17.0888C128.209 17.8552 128.616 18.7476 128.811 19.6982C129.007 20.6487 128.987 21.6321 128.752 22.5734C128.742 22.7021 128.713 22.8308 128.674 22.9694C128.576 23.3654 128.206 23.6228 127.797 23.6228H118.837C118.321 23.6228 117.882 24.0188 117.96 24.5336C118.058 25.1969 118.33 25.7216 118.778 26.1275C119.421 26.7116 120.249 26.9987 121.281 26.9987C122.733 26.9987 124.028 26.4839 125.177 25.4543C125.255 25.3949 125.343 25.3553 125.431 25.3553C125.538 25.3553 125.645 25.4048 125.723 25.4939L127.115 27.1769C127.181 27.263 127.215 27.3704 127.209 27.4794C127.204 27.5884 127.16 27.6919 127.086 27.7709C126.236 28.621 125.229 29.2907 124.122 29.7411C123.015 30.1915 121.831 30.4136 120.639 30.3944C118.476 30.3944 116.743 29.7014 115.399 28.3055C114.733 27.6102 114.228 26.7738 113.918 25.8564C113.608 24.939 113.502 23.9632 113.607 22.9991C113.65 21.5832 114.055 20.2031 114.78 18.9936C115.506 17.7841 116.528 16.7867 117.746 16.0988C119.14 15.2484 120.737 14.8033 122.363 14.8118ZM118.905 19.7222C118.545 20.2865 119.012 20.9399 119.665 20.9399H123.755C124.272 20.9399 124.729 20.5142 124.603 19.9994C124.517 19.6506 124.361 19.3236 124.145 19.0391C123.677 18.3758 122.937 18.0491 121.954 18.059C121.067 18.059 120.298 18.3164 119.665 18.8312C119.373 19.0886 119.119 19.3955 118.905 19.7222ZM137.264 30.3944C135.17 30.3944 133.466 29.7212 132.141 28.3748C131.476 27.698 130.955 26.8888 130.611 25.9978C130.268 25.1068 130.109 24.1534 130.144 23.1971C130.134 21.877 130.439 20.574 131.033 19.3998C131.627 18.2256 132.491 17.2153 133.553 16.4552C135.08 15.3708 136.901 14.7964 138.764 14.8118C141.287 14.8118 143.215 15.6632 144.569 17.366C144.647 17.465 144.666 17.5937 144.637 17.7224C144.613 17.8012 144.565 17.8705 144.501 17.9204L141.871 20.0489C141.807 20.1019 141.729 20.1331 141.647 20.138C141.585 20.1388 141.524 20.1249 141.468 20.0974C141.412 20.0699 141.363 20.0295 141.326 19.9796C141.005 19.5617 140.592 19.2272 140.119 19.0034C139.647 18.7797 139.129 18.6732 138.608 18.6926C137.508 18.6926 136.592 19.0292 135.871 19.7123C135.448 20.1291 135.117 20.6321 134.899 21.1884C134.681 21.7446 134.581 22.3414 134.605 22.9397C134.605 24.0287 134.917 24.8801 135.53 25.5335C136.125 26.1869 136.933 26.5235 137.936 26.5235C138.978 26.5235 139.913 26.1275 140.722 25.3553C140.759 25.3191 140.803 25.2909 140.852 25.2723C140.9 25.2537 140.952 25.2451 141.003 25.247C141.055 25.2488 141.106 25.2611 141.153 25.2831C141.2 25.3051 141.242 25.3364 141.277 25.3751L143.127 27.4739C143.197 27.5538 143.235 27.658 143.231 27.765C143.227 27.8719 143.183 27.9733 143.108 28.0481C141.542 29.585 139.441 30.4286 137.264 30.3944ZM156.763 17.7422C156.722 17.9711 156.602 18.178 156.426 18.3264C156.25 18.4749 156.028 18.5555 155.799 18.554H153.227C152.997 18.5529 152.774 18.6349 152.597 18.7853C152.421 18.9358 152.302 19.1449 152.263 19.3757L151.367 24.4445C151.124 25.8107 151.562 26.4938 152.711 26.4938C153.188 26.4938 153.636 26.3453 154.075 26.0582C154.129 26.0205 154.193 25.9995 154.258 25.9977C154.324 25.996 154.389 26.0135 154.445 26.0483C154.513 26.0879 154.562 26.1572 154.581 26.2463L155.214 28.6124C155.247 28.7419 155.24 28.8782 155.194 29.0036C155.149 29.129 155.068 29.2377 154.961 29.3153C153.919 30.0336 152.685 30.4102 151.425 30.3944C149.848 30.3944 148.611 29.9291 147.724 28.9985C146.828 28.0877 146.526 26.7215 146.838 24.89L147.763 19.7222C147.789 19.5798 147.784 19.4333 147.748 19.2933C147.711 19.1532 147.646 19.0229 147.555 18.9115C147.464 18.8001 147.35 18.7103 147.221 18.6486C147.092 18.5868 146.951 18.5545 146.809 18.554H146.624C146.482 18.5532 146.343 18.5211 146.215 18.4599C146.087 18.3987 145.973 18.3099 145.883 18.1997C145.792 18.0895 145.726 17.9604 145.689 17.8216C145.652 17.6827 145.645 17.5374 145.669 17.3957L145.903 15.9998C145.942 15.769 146.061 15.5599 146.237 15.4094C146.414 15.259 146.637 15.177 146.867 15.1781H147.773C148 15.1772 148.22 15.0956 148.395 14.9474C148.569 14.7991 148.687 14.5936 148.728 14.3663L149.244 11.4458C149.282 11.2313 149.388 11.0354 149.547 10.8887C149.705 10.7419 149.907 10.6524 150.12 10.634L153.393 10.337C153.453 10.3327 153.513 10.3425 153.569 10.3658C153.624 10.3891 153.674 10.4252 153.714 10.4712C153.753 10.5173 153.782 10.572 153.797 10.6312C153.813 10.6903 153.814 10.7523 153.802 10.8122L153.237 14.0099C153.211 14.1523 153.217 14.2987 153.253 14.4388C153.289 14.5789 153.355 14.7092 153.446 14.8206C153.537 14.932 153.651 15.0217 153.78 15.0835C153.908 15.1453 154.049 15.1776 154.192 15.1781H156.042C156.184 15.1774 156.325 15.2085 156.454 15.269C156.583 15.3296 156.698 15.4182 156.79 15.5286C156.882 15.639 156.949 15.7686 156.986 15.9081C157.024 16.0477 157.03 16.1939 157.006 16.3364L156.763 17.7422ZM167.174 23.9396L168.567 15.9899C168.608 15.761 168.728 15.5541 168.904 15.4056C169.08 15.2572 169.302 15.1766 169.531 15.1781H172.025C172.168 15.1772 172.31 15.2084 172.44 15.2695C172.57 15.3307 172.685 15.4202 172.777 15.5318C172.869 15.6433 172.936 15.7742 172.972 15.915C173.009 16.0558 173.015 16.203 172.989 16.3463L170.72 29.2163C170.679 29.4436 170.561 29.6491 170.387 29.7974C170.212 29.9456 169.992 30.0272 169.765 30.0281H167.291C167.236 30.0291 167.182 30.0176 167.132 29.9945C167.082 29.9714 167.038 29.9373 167.002 29.8947C166.967 29.852 166.941 29.8019 166.927 29.7479C166.913 29.6939 166.911 29.6375 166.921 29.5826C166.98 29.2262 166.551 28.9688 166.259 29.1866C165.185 29.968 163.898 30.3901 162.577 30.3944C160.824 30.3944 159.5 29.8004 158.613 28.6322C157.717 27.464 157.435 25.9097 157.756 23.9693L159.168 15.9899C159.209 15.7626 159.327 15.5571 159.502 15.4088C159.676 15.2606 159.896 15.1789 160.123 15.1781H162.665C162.808 15.1772 162.95 15.2084 163.08 15.2695C163.21 15.3307 163.325 15.4202 163.417 15.5318C163.509 15.6433 163.576 15.7742 163.613 15.915C163.649 16.0558 163.655 16.203 163.629 16.3463L162.324 23.7317C162.188 24.5732 162.285 25.2464 162.616 25.7513C162.947 26.2463 163.473 26.4938 164.184 26.4938C165.188 26.4938 165.967 26.1077 166.522 25.3553C166.824 25.0286 167.038 24.5633 167.174 23.9396ZM179.407 30.4241C177.956 30.4241 176.68 30.1667 175.55 29.6519C174.609 29.2913 173.796 28.6537 173.213 27.8204C173.156 27.7293 173.135 27.6196 173.155 27.5135C173.174 27.4145 173.223 27.3155 173.301 27.2561L175.482 25.187C175.55 25.1276 175.628 25.088 175.716 25.088C175.823 25.088 175.93 25.1573 176.008 25.2464C176.32 25.682 176.826 26.0681 177.508 26.4047C178.258 26.7809 179.008 26.969 179.758 26.969C180.352 26.969 180.81 26.8502 181.131 26.6225C181.462 26.3849 181.628 26.0681 181.628 25.6622C181.628 25.4246 181.54 25.1969 181.365 24.9989C181.19 24.7811 180.975 24.6128 180.732 24.4841C180.41 24.3356 180.099 24.197 179.787 24.0881C178.727 23.7726 177.723 23.2845 176.817 22.6427C176.349 22.3206 175.97 21.8823 175.716 21.3694C175.462 20.8565 175.341 20.286 175.365 19.7123C175.365 18.2669 175.95 17.0789 177.109 16.1681C178.437 15.1935 180.05 14.705 181.686 14.7821C182.86 14.7695 184.025 14.9915 185.115 15.4355C186.069 15.8414 186.79 16.3859 187.277 17.0789C187.345 17.168 187.374 17.2769 187.345 17.3957C187.335 17.4947 187.287 17.5937 187.209 17.663L185.095 19.5539C185.022 19.6174 184.929 19.6524 184.832 19.6529C184.774 19.6526 184.716 19.6402 184.662 19.6164C184.609 19.5925 184.56 19.5578 184.521 19.5143C184.137 19.0935 183.673 18.7566 183.157 18.5243C182.601 18.2646 181.996 18.1295 181.384 18.1283C180.878 18.1283 180.469 18.2273 180.157 18.4451C180.017 18.5273 179.901 18.6457 179.821 18.7883C179.74 18.9309 179.698 19.0925 179.7 19.2569C179.7 19.4648 179.797 19.6529 179.972 19.7915C180.206 19.9895 180.459 20.138 180.732 20.2568L181.151 20.4449C181.58 20.6236 182.012 20.7952 182.446 20.9597C183.443 21.3699 184.34 21.9948 185.076 22.7912C185.641 23.4545 185.923 24.296 185.923 25.2959C185.923 26.87 185.329 28.1075 184.131 29.0282C182.751 30.0103 181.09 30.4979 179.407 30.4142V30.4241Z" fill="#6644FF"/>
</svg>
