<svg width="170" height="37" viewBox="0 0 170 37" fill="none" xmlns="http://www.w3.org/2000/svg">
<path fill-rule="evenodd" clip-rule="evenodd" d="M46.6615 22.7161C46.387 22.6531 46.1657 22.5811 45.9532 22.4911C45.8115 22.4191 45.6875 22.3471 45.5813 22.2481C45.546 22.2174 45.5186 22.1784 45.5016 22.1344C45.4846 22.0905 45.4785 22.043 45.4839 21.9961C45.5901 20.8531 45.475 19.8361 45.5724 18.7111C46.024 14.1031 48.875 15.5611 51.4339 14.8141C52.8948 14.3911 54.3646 13.5631 54.9047 11.9341C54.9933 11.6641 54.9136 11.3761 54.7276 11.1691C53.0779 9.25578 51.2183 7.54063 49.1849 6.05708C42.3184 1.19887 33.9006 -0.845413 25.6151 0.333077C25.5452 0.341592 25.4785 0.368022 25.4213 0.40989C25.3642 0.451758 25.3184 0.507693 25.2883 0.572453C25.2582 0.637212 25.2448 0.708676 25.2493 0.780147C25.2538 0.851617 25.2761 0.920754 25.3141 0.981077C26.3132 2.56241 27.6473 3.8969 29.2188 4.88708C29.5021 5.06708 29.387 5.45408 29.0594 5.37308C28.1133 5.16168 27.2169 4.76422 26.4209 4.20308C26.3768 4.17361 26.3262 4.15572 26.2737 4.15101C26.2211 4.14629 26.1683 4.15491 26.1198 4.17608L24.6235 4.78808C24.5583 4.81509 24.5011 4.8588 24.4575 4.91495C24.4139 4.9711 24.3854 5.03778 24.3747 5.10848C24.364 5.17918 24.3715 5.2515 24.3965 5.31837C24.4215 5.38525 24.4631 5.44441 24.5172 5.49008C26.4998 7.23655 28.9764 8.29861 31.5905 8.52341C34.2047 8.74822 36.8216 8.12417 39.0646 6.74108C39.3479 6.56108 39.7995 6.92108 39.711 7.24508C39.5604 7.75808 39.3922 8.46908 39.2151 9.43208C38.0641 15.3091 34.7703 14.8591 30.6886 13.3741C22.5427 10.3681 17.912 12.9331 13.8037 7.85708C13.5115 7.49708 13.0068 7.38008 12.6703 7.67708C12.2132 8.07251 11.853 8.57087 11.6185 9.13256C11.384 9.69425 11.2816 10.3038 11.3194 10.9128C11.3572 11.5217 11.5342 12.1133 11.8364 12.6406C12.1385 13.1679 12.5575 13.6162 13.0599 13.9501C13.1927 14.0401 13.361 14.0041 13.4584 13.8871C13.7151 13.5541 13.9188 13.3471 14.1844 13.2031C14.4589 13.0591 14.6005 13.4731 14.3615 13.6801C13.4849 14.4631 13.237 15.3991 12.6703 17.2531C11.7672 20.1421 12.1479 23.1031 7.95993 23.8771C5.74638 23.9941 5.7818 25.5241 4.97607 27.8011C4.03753 30.5551 2.81566 31.7611 0.548989 34.1731C0.230239 34.4971 0.203676 35.0281 0.548989 35.3251C1.45211 36.1081 2.39066 36.1531 3.33805 35.7571C5.69326 34.7491 7.50836 31.6531 9.21722 29.6461C11.1209 27.4141 15.6896 28.3681 19.1427 26.1811C21.0021 25.0201 22.1266 23.5351 21.7724 21.3211C21.7104 20.9611 22.1177 20.7451 22.2594 21.0781C22.5339 21.7081 22.7198 22.3741 22.7907 23.0581C22.8172 23.2471 22.9677 23.3821 23.1537 23.3731C26.8901 23.1571 31.7157 27.3421 36.2313 28.4761C36.5058 28.5481 36.7005 28.2241 36.55 27.9811C35.9954 27.1308 35.5964 26.1856 35.3724 25.1911C35.2839 24.8401 35.7974 24.7411 35.9745 25.0651C36.6456 26.2999 37.6093 27.345 38.7781 28.1056C39.947 28.8663 41.2841 29.3184 42.6683 29.4211C43.7662 29.5111 44.9703 29.3761 46.2276 28.9891C47.7328 28.5301 49.1229 27.9361 50.7787 28.2601C51.3959 28.3568 51.9879 28.5777 52.5201 28.91C53.0522 29.2423 53.5137 29.6792 53.8776 30.1951C54.8782 31.6891 57.0032 32.0851 58.1365 30.5191C58.2105 30.413 58.2559 30.2891 58.2683 30.1596C58.2808 30.0302 58.2597 29.8997 58.2073 29.7811C55.7104 23.8411 49.3797 23.4361 46.6526 22.7161H46.6615Z" fill="#9696B4"/>
<path d="M81.1308 9.71105C81.1652 9.51603 81.2619 9.338 81.406 9.20457C81.5501 9.07113 81.7334 8.98975 81.9276 8.97305L84.9558 8.70305C85.011 8.69762 85.0668 8.70548 85.1186 8.726C85.1703 8.74652 85.2166 8.77912 85.2536 8.82117C85.2907 8.86322 85.3175 8.91354 85.3319 8.96806C85.3463 9.02259 85.3479 9.07979 85.3365 9.13505L82.2907 26.37C82.2535 26.5766 82.1464 26.7635 81.9879 26.8983C81.8294 27.0331 81.6296 27.1073 81.423 27.108H79.1297C78.9261 27.108 78.7756 26.928 78.8021 26.712C78.8552 26.397 78.4745 26.172 78.2089 26.361C77.2084 27.081 76.0928 27.441 74.8886 27.441C74.1054 27.4601 73.3276 27.3057 72.609 26.9887C71.8904 26.6717 71.2483 26.1995 70.7271 25.605C69.6225 24.3935 69.0255 22.7924 69.0625 21.141C69.0625 18.891 69.7443 17.019 71.1079 15.525C71.7691 14.7919 72.5779 14.2122 73.4794 13.8255C74.3809 13.4388 75.3538 13.2541 76.3318 13.284C77.598 13.284 78.6693 13.626 79.5459 14.301C79.8381 14.526 80.2985 14.391 80.3605 14.022L81.1308 9.70205V9.71105ZM75.9954 23.931C76.4792 23.9466 76.9604 23.853 77.4044 23.6569C77.8484 23.4608 78.2441 23.1672 78.5631 22.797C79.2194 22.0235 79.5669 21.0281 79.537 20.007C79.537 19.053 79.2714 18.279 78.7401 17.694C78.4782 17.4003 78.1563 17.1683 77.7968 17.0144C77.4374 16.8605 77.0492 16.7883 76.6594 16.803C75.6146 16.803 74.7735 17.181 74.1183 17.937C73.4533 18.7061 73.1019 19.7038 73.1355 20.727C73.1355 21.672 73.4011 22.437 73.9323 23.04C74.1933 23.332 74.5141 23.5622 74.872 23.7146C75.23 23.867 75.6164 23.9378 76.0042 23.922L75.9954 23.931ZM89.8079 11.457C89.1881 11.457 88.6568 11.232 88.2141 10.8C87.998 10.5923 87.8273 10.3408 87.7129 10.0617C87.5985 9.78264 87.543 9.48228 87.55 9.18005C87.55 8.38805 87.8422 7.70405 88.4177 7.14605C88.9844 6.57905 89.6573 6.30005 90.4542 6.30005C91.0651 6.30005 91.5875 6.52505 92.0303 6.98405C92.473 7.45205 92.6855 7.99205 92.6855 8.59505C92.6855 9.38705 92.4021 10.053 91.8355 10.611C91.2688 11.178 90.5959 11.457 89.8079 11.457ZM89.3829 26.379C89.3457 26.5856 89.2386 26.7725 89.0801 26.9073C88.9216 27.0421 88.7218 27.1163 88.5151 27.117H86.2219C86.0924 27.1166 85.9646 27.0872 85.8475 27.0311C85.7303 26.9749 85.6268 26.8933 85.544 26.7921C85.4613 26.6908 85.4014 26.5723 85.3686 26.445C85.3358 26.3176 85.3309 26.1845 85.3542 26.055L87.4172 14.355C87.4547 14.1469 87.5631 13.9589 87.7234 13.8239C87.8837 13.689 88.0856 13.6157 88.2938 13.617H90.5959C90.7254 13.6175 90.8532 13.6469 90.9703 13.703C91.0874 13.7592 91.191 13.8408 91.2738 13.942C91.3565 14.0433 91.4164 14.1618 91.4492 14.2891C91.482 14.4165 91.4869 14.5496 91.4636 14.679L89.3829 26.379ZM103.718 13.68C103.815 13.725 103.895 13.806 103.939 13.905C103.983 14.013 103.975 14.139 103.93 14.247L102.708 16.92C102.669 17.0121 102.6 17.0882 102.514 17.136C102.446 17.1701 102.372 17.1879 102.297 17.1879C102.221 17.1879 102.147 17.1701 102.08 17.136C101.664 16.929 101.194 16.839 100.698 16.848C99.6094 16.848 98.7771 17.298 98.1839 18.198C97.9714 18.54 97.7412 19.341 97.4844 20.592L96.4928 26.361C96.4574 26.5693 96.3511 26.7583 96.1925 26.8948C96.0338 27.0314 95.8329 27.1069 95.625 27.108H93.323C93.192 27.1102 93.0621 27.0828 92.9428 27.0278C92.8235 26.9728 92.7177 26.8916 92.633 26.79C92.5483 26.6884 92.4868 26.569 92.453 26.4404C92.4192 26.3117 92.4139 26.177 92.4375 26.046L94.5094 14.346C94.5469 14.1379 94.6553 13.9499 94.8156 13.8149C94.9759 13.68 95.1778 13.6067 95.386 13.608H97.3339C97.7058 13.608 97.9891 13.941 97.9271 14.31C97.874 14.625 98.2813 14.823 98.5203 14.616C99.2013 13.9631 100.055 13.5259 100.976 13.3581C101.898 13.1903 102.847 13.299 103.709 13.671L103.718 13.68ZM110.792 13.284C112.917 13.284 114.511 13.977 115.573 15.354C116.107 16.0507 116.477 16.8621 116.655 17.7262C116.833 18.5903 116.814 19.4843 116.601 20.34C116.592 20.457 116.565 20.574 116.53 20.7C116.441 21.06 116.105 21.294 115.733 21.294H107.587C107.118 21.294 106.719 21.654 106.79 22.122C106.879 22.725 107.127 23.202 107.534 23.571C108.118 24.102 108.871 24.363 109.809 24.363C111.129 24.363 112.306 23.895 113.351 22.959C113.422 22.905 113.502 22.869 113.581 22.869C113.679 22.869 113.776 22.914 113.847 22.995L115.113 24.525C115.173 24.6034 115.203 24.701 115.198 24.8001C115.194 24.8992 115.154 24.9932 115.086 25.065C114.314 25.8378 113.398 26.4467 112.392 26.8561C111.385 27.2656 110.309 27.4675 109.225 27.45C107.259 27.45 105.683 26.82 104.462 25.551C103.857 24.9189 103.397 24.1586 103.115 23.3246C102.834 22.4906 102.737 21.6035 102.832 20.727C102.872 19.4399 103.24 18.1852 103.899 17.0857C104.559 15.9862 105.488 15.0794 106.595 14.454C107.863 13.681 109.314 13.2763 110.792 13.284ZM107.649 17.748C107.321 18.261 107.746 18.855 108.34 18.855H112.058C112.528 18.855 112.944 18.468 112.829 18C112.751 17.683 112.609 17.3857 112.413 17.127C111.988 16.524 111.315 16.227 110.42 16.236C109.615 16.236 108.915 16.47 108.34 16.938C108.074 17.172 107.844 17.451 107.649 17.748ZM124.339 27.45C122.435 27.45 120.886 26.838 119.682 25.614C119.077 24.9988 118.603 24.2631 118.291 23.4531C117.979 22.6432 117.834 21.7764 117.867 20.907C117.857 19.7069 118.135 18.5224 118.674 17.455C119.214 16.3876 120 15.469 120.966 14.778C122.354 13.7922 124.009 13.27 125.703 13.284C127.996 13.284 129.749 14.058 130.98 15.606C131.051 15.696 131.068 15.813 131.042 15.93C131.02 16.0017 130.977 16.0646 130.918 16.11L128.527 18.045C128.469 18.0932 128.398 18.1216 128.323 18.126C128.267 18.1267 128.211 18.1141 128.161 18.0891C128.11 18.0641 128.066 18.0275 128.031 17.982C127.74 17.6022 127.364 17.298 126.935 17.0946C126.505 16.8912 126.034 16.7944 125.561 16.812C124.56 16.812 123.728 17.118 123.073 17.739C122.688 18.118 122.387 18.5753 122.189 19.0809C121.99 19.5866 121.899 20.1292 121.922 20.673C121.922 21.663 122.205 22.437 122.763 23.031C123.303 23.625 124.038 23.931 124.95 23.931C125.897 23.931 126.747 23.571 127.482 22.869C127.516 22.8362 127.557 22.8105 127.601 22.7936C127.645 22.7767 127.691 22.7689 127.738 22.7706C127.785 22.7722 127.832 22.7834 127.874 22.8034C127.917 22.8234 127.955 22.8518 127.987 22.887L129.669 24.795C129.733 24.8677 129.767 24.9624 129.763 25.0597C129.76 25.1569 129.72 25.2491 129.652 25.317C128.228 26.7142 126.318 27.4812 124.339 27.45ZM142.065 15.948C142.028 16.1562 141.919 16.3442 141.759 16.4792C141.599 16.6141 141.397 16.6874 141.189 16.686H138.851C138.642 16.6851 138.439 16.7596 138.278 16.8964C138.118 17.0331 138.01 17.2233 137.975 17.433L137.16 22.041C136.939 23.283 137.337 23.904 138.382 23.904C138.816 23.904 139.223 23.769 139.621 23.508C139.671 23.4738 139.729 23.4547 139.788 23.4531C139.848 23.4515 139.907 23.4674 139.958 23.499C140.02 23.535 140.064 23.598 140.082 23.679L140.657 25.83C140.687 25.9477 140.68 26.0717 140.639 26.1857C140.598 26.2997 140.524 26.3985 140.427 26.469C139.479 27.122 138.358 27.4644 137.213 27.45C135.779 27.45 134.654 27.027 133.848 26.181C133.034 25.353 132.759 24.111 133.043 22.446L133.884 17.748C133.907 17.6186 133.902 17.4855 133.869 17.3581C133.837 17.2308 133.777 17.1123 133.694 17.011C133.611 16.9098 133.508 16.8282 133.391 16.772C133.274 16.7159 133.146 16.6865 133.016 16.686H132.848C132.719 16.6853 132.592 16.6562 132.476 16.6005C132.36 16.5449 132.257 16.4642 132.174 16.364C132.091 16.2637 132.031 16.1464 131.998 16.0202C131.964 15.894 131.958 15.7619 131.98 15.633L132.193 14.364C132.228 14.1543 132.336 13.9641 132.496 13.8274C132.657 13.6906 132.86 13.6161 133.069 13.617H133.893C134.099 13.6163 134.299 13.5421 134.458 13.4073C134.616 13.2725 134.723 13.0856 134.76 12.879L135.23 10.224C135.264 10.029 135.361 9.851 135.505 9.71757C135.649 9.58413 135.832 9.50275 136.027 9.48605L139.002 9.21605C139.056 9.21212 139.111 9.22109 139.161 9.24226C139.212 9.26343 139.257 9.29623 139.293 9.33809C139.329 9.37994 139.355 9.4297 139.369 9.48348C139.383 9.53726 139.385 9.59359 139.373 9.64805L138.86 12.555C138.837 12.6845 138.842 12.8176 138.874 12.945C138.907 13.0723 138.967 13.1908 139.05 13.2921C139.132 13.3933 139.236 13.4749 139.353 13.5311C139.47 13.5872 139.598 13.6166 139.728 13.617H141.41C141.539 13.6164 141.667 13.6447 141.785 13.6997C141.902 13.7548 142.006 13.8353 142.09 13.9357C142.173 14.0361 142.234 14.1538 142.268 14.2807C142.302 14.4076 142.308 14.5405 142.286 14.67L142.065 15.948ZM151.53 21.582L152.796 14.355C152.834 14.1469 152.942 13.9589 153.103 13.8239C153.263 13.689 153.465 13.6157 153.673 13.617H155.94C156.07 13.6162 156.199 13.6446 156.317 13.7002C156.435 13.7557 156.54 13.8371 156.624 13.9386C156.707 14.04 156.768 14.1589 156.801 14.2869C156.835 14.4149 156.84 14.5488 156.816 14.679L154.753 26.379C154.716 26.5856 154.609 26.7725 154.45 26.9073C154.292 27.0421 154.092 27.1163 153.885 27.117H151.636C151.587 27.1179 151.537 27.1075 151.492 27.0865C151.446 27.0655 151.406 27.0345 151.374 26.9958C151.341 26.957 151.318 26.9114 151.305 26.8623C151.293 26.8133 151.291 26.7619 151.3 26.712C151.353 26.388 150.964 26.154 150.698 26.352C149.722 27.0624 148.552 27.4462 147.351 27.45C145.757 27.45 144.553 26.91 143.747 25.848C142.933 24.786 142.676 23.373 142.968 21.609L144.252 14.355C144.289 14.1485 144.396 13.9616 144.555 13.8268C144.713 13.692 144.913 13.6178 145.12 13.617H147.431C147.561 13.6162 147.69 13.6446 147.808 13.7002C147.926 13.7557 148.031 13.8371 148.115 13.9386C148.198 14.04 148.259 14.1589 148.292 14.2869C148.326 14.4149 148.331 14.5488 148.307 14.679L147.121 21.393C146.997 22.158 147.085 22.77 147.387 23.229C147.688 23.679 148.166 23.904 148.812 23.904C149.724 23.904 150.432 23.553 150.937 22.869C151.211 22.572 151.406 22.149 151.53 21.582ZM162.651 27.477C161.332 27.477 160.172 27.243 159.145 26.775C158.289 26.4473 157.549 25.8676 157.02 25.11C156.968 25.0273 156.949 24.9275 156.967 24.831C156.984 24.741 157.029 24.651 157.1 24.597L159.083 22.716C159.145 22.662 159.216 22.626 159.295 22.626C159.393 22.626 159.49 22.689 159.561 22.77C159.844 23.166 160.305 23.517 160.925 23.823C161.606 24.165 162.288 24.3361 162.97 24.3361C163.51 24.3361 163.926 24.228 164.218 24.021C164.519 23.805 164.67 23.517 164.67 23.148C164.67 22.932 164.59 22.725 164.431 22.545C164.271 22.347 164.077 22.194 163.855 22.077C163.563 21.942 163.28 21.816 162.996 21.717C162.032 21.4302 161.12 20.9865 160.296 20.403C159.871 20.1103 159.526 19.7118 159.295 19.2455C159.064 18.7792 158.955 18.2606 158.977 17.739C158.977 16.425 159.508 15.345 160.561 14.517C161.769 13.6311 163.236 13.1869 164.723 13.257C165.79 13.2456 166.849 13.4474 167.84 13.851C168.707 14.22 169.363 14.715 169.805 15.345C169.867 15.426 169.894 15.525 169.867 15.633C169.858 15.723 169.814 15.813 169.743 15.876L167.822 17.595C167.755 17.6527 167.67 17.6846 167.583 17.685C167.53 17.6848 167.477 17.6735 167.428 17.6519C167.38 17.6302 167.336 17.5986 167.3 17.559C166.951 17.1765 166.529 16.8702 166.06 16.659C165.554 16.4229 165.005 16.3002 164.448 16.299C163.988 16.299 163.616 16.389 163.333 16.587C163.206 16.6618 163.1 16.7694 163.027 16.899C162.954 17.0286 162.916 17.1756 162.917 17.325C162.917 17.514 163.005 17.685 163.165 17.811C163.377 17.991 163.607 18.126 163.855 18.234L164.236 18.405C164.626 18.5675 165.019 18.7235 165.414 18.873C166.319 19.246 167.135 19.814 167.804 20.538C168.318 21.141 168.575 21.906 168.575 22.815C168.575 24.246 168.034 25.371 166.945 26.208C165.691 27.1009 164.18 27.5442 162.651 27.468V27.477Z" fill="#9696B4"/>
</svg>
