<svg width="161" height="40" viewBox="0 0 161 40" fill="none" xmlns="http://www.w3.org/2000/svg">
<path d="M7.10919 31.1511L11.5461 2.60605C11.5798 2.39505 11.6947 2.20593 11.866 2.07978C12.0372 1.95362 12.251 1.90063 12.4608 1.9323C12.5848 1.9552 12.7022 2.00524 12.8049 2.0789C12.9075 2.15256 12.9928 2.24803 13.0547 2.35855L17.635 10.9729L19.4508 7.46668C19.5004 7.37047 19.5685 7.28507 19.651 7.21536C19.7335 7.14565 19.8288 7.09301 19.9315 7.06045C20.0342 7.02788 20.1423 7.01603 20.2495 7.02557C20.3568 7.03511 20.4611 7.06586 20.5566 7.11606C20.7012 7.20004 20.8213 7.32099 20.9047 7.46668L33.2599 31.1511H7.10919Z" fill="#FFA000"/>
<path d="M7.10919 31.1508L11.5461 2.60581C11.5798 2.39481 11.6947 2.20569 11.866 2.07953C12.0372 1.95338 12.251 1.90038 12.4608 1.93206C12.5848 1.95495 12.7022 2.005 12.8049 2.07866C12.9075 2.15231 12.9928 2.24778 13.0547 2.35831L17.635 10.9727L19.4508 7.46644C19.5004 7.37022 19.5685 7.28482 19.651 7.21512C19.7335 7.14541 19.8288 7.09277 19.9315 7.0602C20.0342 7.02764 20.1423 7.01579 20.2495 7.02533C20.3568 7.03487 20.4611 7.06562 20.5566 7.11581C20.7012 7.1998 20.8213 7.32075 20.9047 7.46644L33.2599 31.1508H7.10919Z" fill="#9696B4"/>
<path opacity="0.12" d="M17.4364 10.8334L0.562988 0.261719V39.8067L7.10921 31.1511L17.4364 10.8334Z" fill="url(#paint0_linear_129_361)"/>
<path d="M22.4269 20.0343L17.6487 10.9524L7.10919 31.1511L22.4269 20.0343Z" fill="#8C8CA8"/>
<path d="M33.2872 31.151L29.8742 10.0035C29.839 9.78697 29.7202 9.59319 29.5438 9.46442C29.3673 9.33565 29.1475 9.28231 28.9322 9.31603C28.7635 9.34022 28.6075 9.42 28.4885 9.54291L7.10919 31.151L18.9525 37.8748C19.3176 38.0764 19.7272 38.1821 20.1436 38.1821C20.56 38.1821 20.9696 38.0764 21.3348 37.8748L33.2872 31.151Z" fill="#D3D3DF"/>
<path d="M29.9083 10.0242C29.8731 9.80766 29.7543 9.61389 29.5779 9.48512C29.4014 9.35634 29.1816 9.30301 28.9663 9.33673C28.7971 9.35936 28.6406 9.43939 28.5226 9.5636L24.2631 13.8467L20.932 7.43923C20.8823 7.34302 20.8143 7.25762 20.7318 7.18791C20.6493 7.1182 20.554 7.06556 20.4513 7.033C20.3486 7.00043 20.2405 6.98858 20.1332 6.99812C20.026 7.00766 19.9216 7.03841 19.8262 7.08861C19.6815 7.17259 19.5615 7.29354 19.4781 7.43923L17.6623 10.9455L13.082 2.33798C13.0307 2.24345 12.9613 2.16007 12.8778 2.09263C12.7944 2.02519 12.6985 1.97502 12.5958 1.945C12.493 1.91497 12.3854 1.90569 12.2791 1.91768C12.1727 1.92966 12.0698 1.96269 11.9762 2.01486C11.8651 2.0746 11.7687 2.15877 11.6943 2.26112C11.6198 2.36347 11.5692 2.48137 11.5461 2.6061L7.10919 31.1511L7.23206 31.213L24.2973 14.0255L28.5568 9.74235C28.6319 9.66376 28.722 9.60123 28.8217 9.55852C28.9214 9.51582 29.0286 9.49381 29.137 9.49381C29.2453 9.49381 29.3525 9.51582 29.4522 9.55852C29.5519 9.60123 29.642 9.66376 29.7172 9.74235C29.8433 9.86192 29.9232 10.0227 29.9425 10.1961L33.3009 31.1374H33.3418L29.9083 10.0242ZM7.15015 31.1099L11.5461 2.81236C11.5603 2.70625 11.5954 2.60406 11.6493 2.51178C11.7032 2.4195 11.7748 2.33898 11.86 2.27495C11.9452 2.21092 12.0422 2.16466 12.1454 2.13889C12.2486 2.11311 12.3558 2.10834 12.4608 2.12486C12.5853 2.14636 12.7033 2.19585 12.8061 2.26965C12.9089 2.34345 12.9939 2.43966 13.0547 2.55111L17.635 11.1655L19.4508 7.65923C19.4998 7.56237 19.5674 7.47631 19.6498 7.40608C19.7322 7.33586 19.8277 7.28288 19.9306 7.25023C20.0336 7.21759 20.142 7.20594 20.2494 7.21596C20.3569 7.22598 20.4613 7.25748 20.5566 7.30861C20.7012 7.39259 20.8213 7.51354 20.9047 7.65923L24.1744 13.9224L7.15015 31.1099Z" fill="white" fill-opacity="0.2"/>
<path opacity="0.2" d="M21.3348 37.641C20.9688 37.8439 20.5579 37.9502 20.1402 37.9502C19.7225 37.9502 19.3116 37.8439 18.9456 37.641L7.12967 30.9998V31.1854L18.9525 37.8748C19.3176 38.0764 19.7272 38.1821 20.1436 38.1821C20.56 38.1821 20.9696 38.0764 21.3348 37.8748L33.2804 31.1785V30.9929L21.3348 37.641Z" fill="#A52714"/>
<path d="M29.9083 10.0242C29.8731 9.80766 29.7543 9.61389 29.5779 9.48512C29.4014 9.35634 29.1816 9.30301 28.9663 9.33673C28.7971 9.35936 28.6406 9.43939 28.5226 9.5636L24.2631 13.8467L20.932 7.43923C20.8823 7.34302 20.8143 7.25762 20.7318 7.18791C20.6493 7.1182 20.554 7.06556 20.4513 7.033C20.3486 7.00043 20.2405 6.98858 20.1332 6.99812C20.026 7.00766 19.9216 7.03841 19.8262 7.08861C19.6815 7.17259 19.5615 7.29354 19.4781 7.43923L17.6623 10.9455L13.082 2.33798C13.0307 2.24345 12.9613 2.16007 12.8778 2.09263C12.7944 2.02519 12.6985 1.97502 12.5958 1.945C12.493 1.91497 12.3854 1.90569 12.2791 1.91768C12.1727 1.92966 12.0698 1.96269 11.9762 2.01486C11.8651 2.0746 11.7687 2.15877 11.6943 2.26112C11.6198 2.36347 11.5692 2.48137 11.5461 2.6061L7.10919 31.1511L18.9525 37.8749C19.3176 38.0765 19.7272 38.1821 20.1436 38.1821C20.56 38.1821 20.9696 38.0765 21.3348 37.8749L33.2804 31.1786L29.9083 10.0242Z" fill="url(#paint1_linear_129_361)"/>
<path d="M58.4823 30.9998H55.6563V8.93793H68.4689V11.6879H58.4823V18.9204H67.5064V21.5742H58.5028V30.9998H58.4823ZM73.3291 12.0936C72.9996 12.441 72.5601 12.6618 72.0863 12.7177C71.6125 12.7736 71.1342 12.6612 70.734 12.3998C70.3337 12.1384 70.0366 11.7445 69.8939 11.286C69.7513 10.8276 69.772 10.3333 69.9525 9.88863C70.133 9.44392 70.4621 9.07664 70.8828 8.85018C71.3035 8.62372 71.7895 8.55229 72.2569 8.64823C72.7243 8.74416 73.1439 9.00144 73.443 9.37565C73.7422 9.74987 73.9023 10.2175 73.8956 10.6979C73.8988 10.961 73.8503 11.2221 73.7531 11.4663C73.6559 11.7105 73.5118 11.933 73.3291 12.1211V12.0936ZM73.3291 30.9998H70.4826V15.8748H73.3086L73.3291 30.9998ZM79.22 30.9998H76.394V15.8748H79.1244V18.3361H79.2473C79.5703 17.4644 80.2026 16.7442 81.0221 16.3148C81.7929 15.815 82.6858 15.539 83.6023 15.5173C84.322 15.4953 85.0388 15.6168 85.7116 15.8748L84.6331 18.5286C84.1474 18.3653 83.6361 18.2931 83.1245 18.3154C82.6087 18.3131 82.0982 18.4216 81.6274 18.6338C81.1565 18.846 80.736 19.1571 80.3941 19.5461C79.994 19.9727 79.6838 20.4765 79.482 21.0271C79.2802 21.5777 79.1911 22.1637 79.22 22.7498V30.9998ZM92.4899 31.5086C91.4585 31.5463 90.4309 31.3615 89.4762 30.9667C88.5214 30.5718 87.6614 29.976 86.9539 29.2192C85.5249 27.66 84.7581 25.5997 84.8174 23.4786C84.779 21.3915 85.5084 19.364 86.8652 17.7861C87.5139 17.0154 88.3259 16.4011 89.2414 15.9883C90.1569 15.5754 91.1527 15.3745 92.1554 15.4004C93.1498 15.3549 94.1421 15.5275 95.0637 15.9061C95.9854 16.2848 96.8144 16.8605 97.4934 17.5936C98.9035 19.208 99.6375 21.31 99.5413 23.4579V23.9873H87.6502C87.6648 25.3449 88.2063 26.6429 89.1588 27.6036C89.5869 28.0318 90.0951 28.3702 90.6541 28.5991C91.213 28.8281 91.8115 28.943 92.4148 28.9373C94.4626 28.9373 95.8279 28.0711 96.5105 26.3317L99.0225 27.3904C98.5247 28.5774 97.6945 29.5927 96.6333 30.3123C95.4132 31.1466 93.9641 31.5746 92.4899 31.5361V31.5086ZM96.5378 21.6154C96.438 20.6858 96.0234 19.819 95.3637 19.1611C94.9367 18.7467 94.428 18.4273 93.8707 18.2236C93.3133 18.0198 92.7196 17.9364 92.1281 17.9786C91.1275 17.9554 90.1541 18.3083 89.3977 18.9686C88.604 19.659 88.0493 20.5861 87.814 21.6154H96.5378ZM109.446 31.5086C108.368 31.5317 107.303 31.2735 106.354 30.7592C105.514 30.3429 104.805 29.7004 104.306 28.9029H104.183V30.9654H101.453V8.93793H104.279V15.8748L104.156 17.9786H104.279C104.784 17.1861 105.491 16.545 106.326 16.1223C107.279 15.6173 108.342 15.3598 109.419 15.3729C110.372 15.3706 111.316 15.5765 112.183 15.9764C113.05 16.3764 113.821 16.9609 114.443 17.6898C115.875 19.2499 116.642 21.3136 116.579 23.4373C116.644 25.5544 115.888 27.6137 114.47 29.1779C113.854 29.9168 113.086 30.5109 112.218 30.9183C111.35 31.3257 110.404 31.5366 109.446 31.5361V31.5086ZM108.961 28.9373C109.598 28.9416 110.228 28.8102 110.81 28.5519C111.392 28.2936 111.914 27.9142 112.34 27.4386C113.312 26.3611 113.82 24.9395 113.753 23.4854C113.82 22.0313 113.312 20.6098 112.34 19.5323C111.914 19.0567 111.392 18.6772 110.81 18.4189C110.228 18.1606 109.598 18.0293 108.961 18.0336C108.327 18.0215 107.698 18.1466 107.117 18.4004C106.535 18.6542 106.014 19.0308 105.589 19.5048C104.639 20.6035 104.15 22.0305 104.224 23.4854C104.181 24.2067 104.279 24.9295 104.513 25.6126C104.748 26.2956 105.113 26.9254 105.589 27.4661C106.015 27.9386 106.536 28.3143 107.118 28.568C107.699 28.8217 108.328 28.9476 108.961 28.9373ZM123.596 31.5429C122.14 31.602 120.713 31.1117 119.596 30.1679C119.069 29.7208 118.651 29.1581 118.373 28.523C118.095 27.8879 117.964 27.1971 117.992 26.5036C117.964 25.7491 118.122 24.9994 118.452 24.3215C118.782 23.6436 119.273 23.0587 119.883 22.6192C121.258 21.6572 122.907 21.1743 124.579 21.2442C126 21.1857 127.412 21.5009 128.675 22.1586V21.7254C128.692 21.2239 128.601 20.7245 128.406 20.2625C128.212 19.8005 127.919 19.387 127.549 19.0511C126.785 18.3683 125.791 18.0044 124.77 18.0336C123.991 18.0246 123.223 18.2239 122.545 18.6111C121.907 18.9604 121.42 19.5362 121.18 20.2267L118.593 19.1198C119.028 18.106 119.737 17.2363 120.641 16.6104C121.829 15.7915 123.25 15.386 124.689 15.4554C126.435 15.3904 128.142 15.992 129.467 17.1398C130.117 17.7505 130.625 18.499 130.953 19.3312C131.281 20.1635 131.421 21.0587 131.364 21.9523V30.9998H128.634V28.9373H128.504C127.986 29.7674 127.259 30.4448 126.397 30.9011C125.535 31.3574 124.569 31.5765 123.596 31.5361V31.5429ZM124.054 28.9373C125.235 28.9341 126.368 28.4681 127.214 27.6379C127.664 27.2553 128.025 26.7784 128.273 26.2404C128.521 25.7024 128.648 25.1165 128.648 24.5236C127.609 23.7943 126.355 23.4427 125.091 23.5267C123.988 23.442 122.89 23.7591 121.999 24.4204C121.685 24.6664 121.429 24.9784 121.247 25.3347C121.066 25.6909 120.963 26.0828 120.948 26.4829C120.939 26.8351 121.023 27.1832 121.191 27.4923C121.359 27.8013 121.604 28.0603 121.904 28.2429C122.535 28.686 123.284 28.9279 124.054 28.9373ZM139.187 31.5429C137.709 31.604 136.252 31.1713 135.044 30.3123C133.977 29.5265 133.147 28.4579 132.648 27.2254L135.16 26.1873C135.445 27.0438 135.998 27.7838 136.737 28.2959C137.475 28.808 138.359 29.0645 139.255 29.0267C140.016 29.0615 140.769 28.8599 141.412 28.4492C141.67 28.2782 141.88 28.0439 142.022 27.7683C142.164 27.4928 142.234 27.1852 142.225 26.8748C142.225 25.8848 141.542 25.2111 140.177 24.8742L137.126 24.1248C136.13 23.8636 135.2 23.3952 134.395 22.7498C133.975 22.4199 133.639 21.994 133.415 21.5075C133.191 21.021 133.084 20.4877 133.105 19.9517C133.104 19.3036 133.266 18.6658 133.575 18.0973C133.884 17.5288 134.33 17.0482 134.873 16.6998C136.011 15.9402 137.333 15.5075 138.697 15.4481C140.061 15.3888 141.415 15.705 142.614 16.3629C143.642 16.9349 144.431 17.8596 144.839 18.9686L142.395 19.9792C141.843 18.6523 140.696 17.9786 138.982 17.9786C138.246 17.9486 137.516 18.1324 136.88 18.5079C136.622 18.6397 136.405 18.8401 136.252 19.0873C136.099 19.3346 136.017 19.6192 136.013 19.9104C136.013 20.7767 136.696 21.3542 137.999 21.6704L140.969 22.3579C142.164 22.5766 143.262 23.1654 144.109 24.0423C144.766 24.8044 145.123 25.7829 145.112 26.7923C145.118 27.4487 144.971 28.0973 144.684 28.6868C144.398 29.2763 143.979 29.7905 143.46 30.1886C142.243 31.1405 140.726 31.6189 139.187 31.5361V31.5429ZM153.918 31.5429C152.886 31.5807 151.859 31.3959 150.904 31.0011C149.949 30.6062 149.089 30.0104 148.382 29.2536C146.947 27.6847 146.182 25.6105 146.252 23.4786C146.214 21.3915 146.943 19.364 148.3 17.7861C148.949 17.0154 149.761 16.4011 150.676 15.9883C151.592 15.5754 152.587 15.3745 153.59 15.4004C154.585 15.3549 155.577 15.5275 156.499 15.9061C157.42 16.2848 158.249 16.8605 158.928 17.5936C160.326 19.2059 161.052 21.2991 160.956 23.4373V23.9667H149.078C149.093 25.3243 149.634 26.6222 150.587 27.5829C151.013 28.0149 151.521 28.3571 152.08 28.5896C152.639 28.8221 153.238 28.9403 153.843 28.9373C155.856 28.9373 157.256 28.0711 157.938 26.3317L160.457 27.3904C159.957 28.58 159.122 29.5959 158.054 30.3123C156.837 31.1473 155.39 31.5754 153.918 31.5361V31.5429ZM157.959 21.6498C157.865 20.7199 157.452 19.8521 156.792 19.1954C156.365 18.781 155.856 18.4616 155.299 18.2579C154.741 18.0542 154.148 17.9708 153.556 18.0129C152.556 17.9962 151.585 18.3484 150.826 19.0029C150.036 19.6959 149.484 20.6222 149.249 21.6498H157.959Z" fill="#9696B4"/>
<defs>
<linearGradient id="paint0_linear_129_361" x1="12.2083" y1="21.3817" x2="10.5719" y2="20.5319" gradientUnits="userSpaceOnUse">
<stop/>
<stop offset="0.4" stop-opacity="0.5"/>
<stop offset="0.8" stop-opacity="0"/>
</linearGradient>
<linearGradient id="paint1_linear_129_361" x1="6.4117" y1="8.28891" x2="33.9272" y2="35.6268" gradientUnits="userSpaceOnUse">
<stop stop-color="white" stop-opacity="0.1"/>
<stop offset="1" stop-color="white" stop-opacity="0"/>
</linearGradient>
</defs>
</svg>
