<svg width="151" height="49" viewBox="0 0 151 49" fill="none" xmlns="http://www.w3.org/2000/svg">
<path d="M58.4873 14.3186C57.7099 14.3186 57.0005 14.4221 56.3591 14.6291C55.7372 14.8195 55.192 15.1402 54.7236 15.5911C54.2737 16.0236 53.9103 16.5862 53.6333 17.2791C53.3738 17.971 53.2266 18.797 53.1916 19.7571C53.1372 21.3149 53.1372 22.8727 53.1916 24.4304C53.2266 25.3993 53.3738 26.2253 53.6333 26.9085C53.9103 27.6004 54.2737 28.1718 54.7236 28.6227C55.1901 29.0552 55.7353 29.3758 56.3591 29.5848C57.0005 29.7752 57.7099 29.8705 58.4873 29.8705C59.2512 29.8705 59.9606 29.767 60.6155 29.56C61.2705 29.3345 61.8332 29.0071 62.3035 28.5775C62.7894 28.1276 63.1713 27.5562 63.4493 26.8633C63.7262 26.1714 63.8647 25.358 63.8647 24.4232V23.0996H59.3415C58.9606 23.0996 58.7701 22.9052 58.7701 22.5165V22.1521C58.7701 21.7634 58.9606 21.569 59.3415 21.569H64.8953C65.284 21.569 65.4783 21.7634 65.4783 22.1521V24.4363C65.4783 25.4761 65.3229 26.4284 65.0119 27.2933C64.7009 28.1417 64.2422 28.8783 63.6358 29.5031C63.0479 30.1251 62.3113 30.6095 61.426 30.9564C60.5514 31.2849 59.565 31.4491 58.4669 31.4491C57.3416 31.4491 56.3553 31.2849 55.5079 30.9564C54.6595 30.6105 53.9413 30.1343 53.3534 29.5279C52.782 28.9225 52.3408 28.2044 52.0299 27.3735C51.7354 26.5251 51.5712 25.5903 51.5372 24.5689C51.5022 23.7915 51.4847 22.9694 51.4847 22.1025C51.4847 21.2279 51.5022 20.4058 51.5372 19.6362C51.5721 18.6158 51.7451 17.6897 52.0561 16.8578C52.3671 16.0095 52.8083 15.2826 53.3797 14.6772C53.9676 14.0717 54.6857 13.6043 55.5341 13.2749C56.3825 12.9289 57.3601 12.756 58.4669 12.756C59.6622 12.756 60.6836 12.9377 61.531 13.3011C62.3793 13.6646 63.0717 14.1019 63.6081 14.613C64.1446 15.1154 64.543 15.6436 64.8034 16.1975C65.0629 16.7514 65.2014 17.2101 65.2189 17.5736C65.2364 17.729 65.1926 17.8588 65.0877 17.9628C64.9837 18.0502 64.8452 18.0939 64.6722 18.0939H64.1008C63.9454 18.0939 63.8326 18.0599 63.7627 17.9919C63.6946 17.9045 63.6256 17.766 63.5557 17.5765C63.4177 17.1878 63.2233 16.799 62.9726 16.4103C62.7297 16.0216 62.4022 15.6757 61.9901 15.3725C61.5752 15.0615 61.082 14.8103 60.5106 14.6189C59.9392 14.4284 59.2638 14.3332 58.4844 14.3332L58.4873 14.3186ZM70.7434 19.4831C71.3654 18.2878 72.5422 17.6902 74.2739 17.6902H75.236C75.6169 17.6902 75.8074 17.8806 75.8074 18.2616V18.626C75.8074 19.0069 75.6169 19.1974 75.236 19.1974H74.1194C73.0796 19.1974 72.2575 19.5001 71.653 20.1055C71.0476 20.711 70.7449 21.5331 70.7449 22.5719V30.6183C70.7449 30.7912 70.6842 30.9297 70.5627 31.0337C70.4587 31.1377 70.3202 31.1897 70.1473 31.1897H69.7318C69.3509 31.1897 69.1604 30.9992 69.1604 30.6183V18.2864C69.1604 18.1134 69.2124 17.9749 69.3164 17.8709C69.4204 17.7495 69.5588 17.6887 69.7318 17.6887H70.1473C70.3202 17.6887 70.4587 17.7495 70.5627 17.8709C70.6842 17.9749 70.7449 18.1134 70.7449 18.2864V19.4817L70.7434 19.4831ZM86.7778 31.197C86.3969 31.197 86.2064 31.0065 86.2064 30.6256V29.4055C86.0509 29.6484 85.8435 29.8914 85.584 30.1343C85.3411 30.3773 85.0384 30.5935 84.6759 30.783C84.3124 30.9734 83.8751 31.1289 83.364 31.2494C82.8616 31.3874 82.2736 31.4564 81.6002 31.4564C80.9782 31.4564 80.3806 31.3612 79.8073 31.1707C79.2533 30.9637 78.7602 30.6868 78.3277 30.3399C77.9128 29.9939 77.5756 29.5872 77.3161 29.1198C77.0731 28.6533 76.9517 28.1431 76.9517 27.5892C76.9517 27.0013 77.0731 26.4731 77.3161 26.0047C77.5756 25.5383 77.9303 25.1316 78.3802 24.7847C78.8301 24.4212 79.3665 24.1273 79.9895 23.9028C80.6308 23.6598 81.332 23.4868 82.0929 23.3838L86.1948 22.8124V21.9043C86.1948 20.9694 85.9091 20.2426 85.3377 19.7236C84.7837 19.2047 83.8926 18.9452 82.6643 18.9452C81.6954 18.9452 80.9423 19.1357 80.4049 19.5166C79.886 19.8801 79.5585 20.2785 79.4224 20.7119C79.3544 20.9189 79.2679 21.0661 79.163 21.1536C79.0755 21.2216 78.954 21.2556 78.7985 21.2556H78.4341C78.2786 21.2556 78.1402 21.2036 78.0187 21.0997C77.9147 20.9782 77.8627 20.8397 77.8627 20.6842C77.8627 20.4413 77.9492 20.1386 78.1222 19.7761C78.2952 19.4127 78.5721 19.058 78.9531 18.712C79.3418 18.366 79.8437 18.0721 80.4588 17.8301C81.0643 17.5706 81.8009 17.4409 82.6687 17.4409C83.689 17.4409 84.5287 17.5794 85.1875 17.8563C85.8619 18.1333 86.3901 18.4967 86.772 18.9467C87.1529 19.3791 87.4124 19.8636 87.5504 20.4C87.7059 20.9364 87.7836 21.4646 87.7836 21.9845V30.6285C87.7836 31.0094 87.5932 31.1999 87.2122 31.1999H86.7706L86.7778 31.197ZM81.8713 29.9506C82.4592 29.9506 83.0132 29.8554 83.5331 29.6649C84.0695 29.458 84.5369 29.1552 84.9353 28.7568C85.3241 28.3681 85.635 27.8662 85.8683 27.251C86.0937 26.6456 86.2064 25.9362 86.2064 25.1228V24.2409L82.8582 24.7074C79.9856 25.0961 78.5493 26.0135 78.5493 27.4595C78.5493 27.8919 78.6445 28.2641 78.835 28.5761C79.042 28.887 79.3014 29.1465 79.6134 29.3545C79.9244 29.5615 80.2791 29.7169 80.6775 29.8209C81.0662 29.9084 81.4646 29.9521 81.8728 29.9521L81.8713 29.9506ZM97.8416 31.4564C96.7512 31.4564 95.8601 31.2621 95.1682 30.8734C94.4763 30.4846 93.9136 30.0002 93.4802 29.4201V35.5714C93.4802 35.9524 93.2897 36.1428 92.9088 36.1428H92.4671C92.0862 36.1428 91.8957 35.9524 91.8957 35.5714V18.2616C91.8957 17.8806 92.0862 17.6902 92.4671 17.6902H92.9088C93.2897 17.6902 93.4802 17.8806 93.4802 18.2616V19.4817C93.9127 18.8937 94.4753 18.4093 95.1682 18.0284C95.8601 17.6396 96.7512 17.4453 97.8416 17.4453C98.8454 17.4453 99.6933 17.627 100.385 17.9905C101.095 18.3364 101.666 18.8038 102.099 19.3927C102.532 19.9641 102.843 20.622 103.032 21.3664C103.239 22.0933 103.361 22.8377 103.397 23.5996C103.414 23.859 103.423 24.1447 103.423 24.4567C103.423 24.7677 103.414 25.0534 103.397 25.3138C103.362 26.0776 103.24 26.8307 103.032 27.5732C102.842 28.3001 102.531 28.958 102.099 29.5469C101.667 30.1183 101.096 30.5857 100.385 30.9492C99.6933 31.2951 98.8454 31.4681 97.8416 31.4681V31.4564ZM93.4802 23.5121C93.4627 23.7716 93.454 24.1088 93.454 24.5237C93.454 24.9387 93.4627 25.2759 93.4802 25.5354C93.4977 26.0543 93.5842 26.5825 93.7397 27.1199C93.9127 27.6388 94.1721 28.1062 94.5181 28.5221C94.864 28.9371 95.3013 29.283 95.83 29.56C96.3489 29.8195 96.9718 29.9492 97.6987 29.9492C98.4625 29.9492 99.0942 29.8195 99.5937 29.56C100.113 29.3005 100.528 28.9546 100.84 28.5221C101.168 28.0722 101.402 27.562 101.54 26.9916C101.695 26.4037 101.79 25.7977 101.825 25.1739C101.843 24.688 101.843 24.2035 101.825 23.7206C101.79 23.0986 101.695 22.501 101.54 21.9276C101.402 21.3562 101.168 20.8543 100.84 20.4219C100.529 19.9719 100.114 19.6172 99.5937 19.3577C99.0913 19.0808 98.4596 18.9423 97.6987 18.9423C96.9543 18.9423 96.3227 19.0808 95.8037 19.3577C95.2848 19.6347 94.8475 19.9982 94.4918 20.4481C94.1634 20.8805 93.9122 21.365 93.7382 21.9014C93.5827 22.4378 93.4963 22.9742 93.4788 23.5107L93.4802 23.5121ZM108.542 19.4831C109.009 18.8777 109.571 18.3845 110.23 18.0036C110.885 17.6226 111.776 17.4322 112.904 17.4322C113.786 17.4322 114.556 17.5794 115.214 17.8738C115.869 18.1683 116.414 18.575 116.85 19.0939C117.3 19.6128 117.637 20.2275 117.861 20.9379C118.087 21.6473 118.199 22.4174 118.199 23.2483V30.6212C118.199 31.0021 118.009 31.1926 117.628 31.1926H117.191C116.81 31.1926 116.619 31.0021 116.619 30.6212V23.3765C116.619 21.9918 116.282 20.9102 115.608 20.1318C114.933 19.3349 113.947 18.9365 112.649 18.9365C111.403 18.9365 110.408 19.3252 109.663 20.1026C108.919 20.88 108.547 21.9718 108.547 23.378V30.6226C108.547 31.0036 108.356 31.194 107.975 31.194H107.534C107.153 31.194 106.962 31.0036 106.962 30.6226V13.3274C106.962 12.9464 107.153 12.756 107.534 12.756H107.975C108.356 12.756 108.547 12.9464 108.547 13.3274V19.4787L108.542 19.4831ZM128.789 12.7603C129.793 12.7603 130.711 12.9075 131.541 13.202C132.372 13.4964 133.082 13.9464 133.67 14.5518C134.275 15.1397 134.743 15.8841 135.072 16.785C135.418 17.6673 135.608 18.7144 135.643 19.9262C135.678 20.7037 135.696 21.4306 135.696 22.1069C135.696 22.7813 135.678 23.5082 135.643 24.2876C135.556 26.7627 134.924 28.58 133.748 29.7393L135.41 32.0759C135.428 32.1109 135.445 32.1449 135.463 32.178C135.48 32.213 135.489 32.2737 135.489 32.3602C135.489 32.4982 135.437 32.6196 135.333 32.7246C135.229 32.8286 135.107 32.8806 134.968 32.8806H134.397C134.207 32.8806 134.042 32.8028 133.904 32.6473C133.766 32.5094 133.654 32.3879 133.566 32.2829L132.42 30.6984C131.381 31.2008 130.169 31.452 128.785 31.452C126.622 31.452 124.952 30.8724 123.775 29.713C122.616 28.5537 122.001 26.7452 121.931 24.2876C121.896 23.5102 121.879 22.7833 121.879 22.1069C121.879 21.4325 121.896 20.7056 121.931 19.9262C121.966 18.7144 122.148 17.6673 122.476 16.785C122.822 15.8851 123.29 15.1407 123.879 14.5518C124.484 13.9464 125.193 13.4964 126.007 13.202C126.838 12.9075 127.764 12.7603 128.785 12.7603H128.789ZM128.789 14.32C128.063 14.32 127.387 14.4328 126.763 14.6582C126.141 14.8652 125.596 15.2024 125.128 15.6698C124.661 16.1363 124.289 16.7339 124.011 17.4628C123.752 18.1897 123.604 19.0546 123.569 20.0574C123.552 20.4461 123.535 20.8096 123.517 21.1478C123.517 21.4762 123.517 21.7969 123.517 22.1098C123.517 22.4208 123.517 22.7483 123.517 23.0923C123.535 23.4208 123.552 23.7755 123.569 24.1564C123.604 25.1768 123.752 26.0514 124.011 26.7802C124.288 27.4896 124.652 28.0775 125.102 28.544C125.568 29.0105 126.113 29.3564 126.737 29.5819C127.359 29.7888 128.041 29.8923 128.784 29.8923C129.528 29.8923 130.21 29.7888 130.83 29.5819C131.452 29.3564 131.989 29.0105 132.439 28.544C132.906 28.0775 133.269 27.4896 133.53 26.7802C133.807 26.0533 133.962 25.1787 133.996 24.1564C134.014 23.7755 134.022 23.4208 134.022 23.0923C134.022 22.7463 134.022 22.4189 134.022 22.1098C134.022 21.7989 134.022 21.4782 134.022 21.1478C134.022 20.8193 134.014 20.4559 133.996 20.0574C133.961 19.0536 133.806 18.1887 133.53 17.4628C133.27 16.7359 132.907 16.1382 132.439 15.6698C131.973 15.2034 131.428 14.8662 130.804 14.6582C130.182 14.4328 129.507 14.32 128.778 14.32H128.789ZM141.461 29.6343H150.417C150.806 29.6343 151 29.8287 151 30.2174V30.6066C151 30.9875 150.806 31.178 150.417 31.178H140.397C140.016 31.178 139.825 30.9875 139.825 30.6066V13.5897C139.825 13.2088 140.016 13.0183 140.397 13.0183H140.89C141.27 13.0183 141.461 13.2088 141.461 13.5897V29.6329V29.6343ZM4.29547 36.9416L2.54626 35.93L22.047 2.15576L23.7962 3.16739L4.29547 36.9416Z" fill="#9696B4"/>
<path d="M2.14832 33.2332H41.1498V35.2549H2.14832V33.2332Z" fill="#9696B4"/>
<path d="M22.4289 45.6329L2.91943 34.3694L3.93106 32.6202L23.4391 43.8807L22.4289 45.6329ZM39.3758 16.2753L19.8678 5.01337L20.8794 3.26416L40.3874 14.5276L39.3758 16.2753Z" fill="#9696B4"/>
<path d="M3.93551 16.2686L2.92389 14.5194L22.4479 3.26904L23.4596 5.01825L3.93551 16.2686Z" fill="#9696B4"/>
<path d="M39.0158 36.9416L19.5136 3.16739L21.2628 2.15576L40.7635 35.93L39.0158 36.9416ZM3.69495 13.1787H5.71382V35.7055H3.69495V13.1787ZM37.5946 13.1787H39.6164V35.7055H37.5931L37.5946 13.1787Z" fill="#9696B4"/>
<path d="M22.0835 44.777L21.2001 43.2465L38.1674 33.4509L39.0508 34.9815L22.0835 44.777Z" fill="#9696B4"/>
<path d="M42.2956 36.3631C41.7312 37.3393 40.8025 38.0517 39.7135 38.3438C38.6244 38.636 37.4639 38.484 36.4867 37.9214C35.5106 37.357 34.7982 36.4284 34.506 35.3393C34.2139 34.2502 34.3658 33.0897 34.9285 32.1126C35.4928 31.1364 36.4215 30.424 37.5106 30.1319C38.5996 29.8397 39.7601 29.9917 40.7373 30.5543C42.7839 31.7204 43.4777 34.3443 42.297 36.3631H42.2956ZM8.37261 16.772C7.80825 17.7482 6.8796 18.4606 5.79053 18.7527C4.70145 19.0449 3.54095 18.8929 2.56379 18.3303C1.58761 17.7659 0.875254 16.8373 0.583104 15.7482C0.290953 14.6591 0.442881 13.4986 1.00554 12.5214C1.5699 11.5453 2.49855 10.8329 3.58762 10.5408C4.6767 10.2486 5.8372 10.4005 6.81436 10.9632C8.84781 12.1293 9.54021 14.7531 8.37407 16.772H8.37261ZM1.01866 36.3631C-0.150396 34.3297 0.543455 31.7365 2.57837 30.5543C4.61182 29.3853 7.20502 30.0791 8.38719 32.114C9.55624 34.1475 8.86239 36.7407 6.82748 37.9228C4.78091 39.0919 2.18771 38.398 1.01866 36.3631ZM34.9431 16.772C33.774 14.7386 34.4679 12.1454 36.5028 10.9632C38.5362 9.79414 41.1294 10.488 42.3116 12.5229C43.4806 14.5564 42.7868 17.1496 40.7519 18.3317C39.7747 18.8944 38.6142 19.0463 37.5251 18.7542C36.4361 18.462 35.5074 17.7497 34.9431 16.7735V16.772ZM21.6535 48.2883C19.3037 48.2883 17.4043 46.389 17.4043 44.0392C17.4043 41.6895 19.3081 39.7901 21.6535 39.7901C23.9989 39.7901 25.9026 41.6895 25.9026 44.0392C25.9006 45.1656 25.4524 46.2452 24.6559 47.0417C23.8595 47.8381 22.7798 48.2864 21.6535 48.2883ZM21.6535 9.10321C19.3037 9.10321 17.4043 7.20386 17.4043 4.85409C17.4043 2.50433 19.3081 0.60498 21.6535 0.60498C23.9989 0.60498 25.9026 2.50433 25.9026 4.85409C25.9035 5.41237 25.7943 5.96533 25.5811 6.48129C25.3679 6.99725 25.0549 7.46605 24.6602 7.86081C24.2654 8.25557 23.7966 8.56852 23.2807 8.78172C22.7647 8.99492 22.2117 9.10417 21.6535 9.10321Z" fill="#9696B4"/>
</svg>
