<svg width="139" height="41" viewBox="0 0 139 41" fill="none" xmlns="http://www.w3.org/2000/svg">
<path d="M39.881 14.0565C41.0785 10.4126 40.3582 3.14312 38.0378 0.459347C37.7337 0.107302 37.1679 0.157594 36.9152 0.546213L34.0571 4.93079C33.3507 5.80858 32.0784 6.00978 31.1192 5.39712C28.0178 3.41287 24.3131 2.26072 20.3322 2.26072C16.3514 2.26072 12.6465 3.41287 9.54514 5.39712C8.59082 6.00978 7.31846 5.80404 6.60741 4.93079L3.74927 0.546213C3.49667 0.157594 2.93064 0.111874 2.62659 0.459347C0.306376 3.14768 -0.414012 10.4172 0.783515 14.0565C1.18113 15.2681 1.28872 16.5482 1.05483 17.7918C0.820938 19.0263 0.587047 20.5167 0.587047 21.5546C0.587047 32.212 9.42818 40.8484 20.3275 40.8484C31.2316 40.8484 40.0679 32.2075 40.0679 21.5546C40.0679 20.5167 39.8342 19.0263 39.6004 17.7918C39.3711 16.5482 39.4832 15.2681 39.881 14.0565ZM20.3275 36.5417C11.8981 36.5417 5.04505 29.8391 5.04505 21.6003C5.04505 21.3305 5.05437 21.0654 5.06841 20.8002C5.37251 15.1858 8.86214 10.3897 13.7973 8.10375C15.776 7.18018 17.9933 6.66812 20.3322 6.66812C22.6711 6.66812 24.8838 7.18018 26.8672 8.10829C31.8023 10.3943 35.2919 15.1949 35.596 20.8048C35.6101 21.07 35.6194 21.3397 35.6194 21.6049C35.6146 29.8391 28.757 36.5417 20.3275 36.5417Z" fill="#9696B4"/>
<path d="M26.9512 27.3518L23.0452 20.7314L19.6959 15.213C19.6164 15.0804 19.4714 15.0027 19.317 15.0027H16.1173C15.9583 15.0027 15.8133 15.085 15.7338 15.2222C15.6542 15.3547 15.6589 15.5193 15.7384 15.6519L18.9428 20.9143L14.6438 27.3244C14.5549 27.457 14.5503 27.626 14.6251 27.7632C14.6999 27.9003 14.8496 27.9873 15.0134 27.9873H18.2364C18.3861 27.9873 18.5264 27.9141 18.6059 27.7905L20.9309 24.2427L23.0171 27.777C23.0967 27.9096 23.2417 27.9918 23.3961 27.9918H26.5723C26.7313 27.9918 26.8763 27.9096 26.9512 27.777C27.0308 27.6489 27.0308 27.4844 26.9512 27.3518Z" fill="#9696B4"/>
<path d="M58.2747 10.509H62.3491V32.3448H58.2747V23.0409H53.6716V32.3496H49.5972V10.509H53.6716V19.9914H58.2747V10.509Z" fill="#9696B4"/>
<path d="M74.9186 32.3491L74.067 27.8138H69.1791L68.3978 32.3491H64.3234L68.8187 10.5132H74.3055L79.0164 32.3491H74.9186ZM69.7122 24.8007H73.5013L71.5553 14.3491L69.7122 24.8007Z" fill="#9696B4"/>
<path d="M88.0913 28.3667V23.6943C88.0913 23.3239 88.0216 23.077 87.8811 22.949C87.7407 22.821 87.4788 22.757 87.0998 22.757H84.2325C81.7997 22.757 80.5839 21.6049 80.5839 19.296V13.9376C80.5839 11.6516 81.8558 10.5132 84.4051 10.5132H88.302C90.8513 10.5132 92.1238 11.6562 92.1238 13.9376V16.9825H88.0167V14.4908C88.0167 14.1205 87.9465 13.8736 87.8065 13.7456C87.666 13.6176 87.4041 13.5536 87.0252 13.5536H85.6781C85.2757 13.5536 85.0041 13.6176 84.8641 13.7456C84.7236 13.8736 84.6534 14.1205 84.6534 14.4908V18.8845C84.6534 19.2549 84.7236 19.5017 84.8641 19.6297C85.0041 19.7578 85.2757 19.8218 85.6781 19.8218H88.4752C90.9542 19.8218 92.194 20.9511 92.194 23.2142V28.9248C92.194 31.2107 90.9079 32.3491 88.3347 32.3491H84.5085C81.9358 32.3491 80.6492 31.2061 80.6492 28.9248V25.9117H84.7187V28.3667C84.7187 28.737 84.789 28.9841 84.9294 29.1122C85.0699 29.24 85.3411 29.3042 85.7434 29.3042H87.0905C87.4695 29.3042 87.7265 29.24 87.8719 29.1122C88.0167 28.9841 88.0913 28.737 88.0913 28.3667Z" fill="#9696B4"/>
<path d="M103.065 10.509H107.134V28.9205C107.134 31.2064 105.848 32.3448 103.275 32.3448H98.9577C96.385 32.3448 95.0984 31.2019 95.0984 28.9205V10.509H99.1728V28.3673C99.1728 28.7376 99.243 28.9844 99.3835 29.1124C99.5235 29.2405 99.7859 29.3044 100.165 29.3044H102.04C102.442 29.3044 102.714 29.2405 102.854 29.1124C102.995 28.9844 103.065 28.7376 103.065 28.3673V10.509Z" fill="#9696B4"/>
<path d="M114.572 23.8364V32.3496H110.502V10.509H118.717C121.289 10.509 122.576 11.652 122.576 13.9335V20.4074C122.576 22.3002 121.715 23.4067 119.989 23.7312L123.708 32.3496H119.316L115.915 23.8364H114.572ZM114.572 13.554V20.892H117.51C117.889 20.892 118.146 20.828 118.291 20.7C118.431 20.572 118.501 20.3251 118.501 19.9548V14.4913C118.501 14.1209 118.431 13.874 118.291 13.746C118.15 13.618 117.889 13.554 117.51 13.554H114.572Z" fill="#9696B4"/>
<path d="M134.898 32.3491L134.046 27.8138H129.158L128.376 32.3491H124.307L128.802 10.5132H134.29L139 32.3491H134.898ZM129.696 24.8007H133.485L131.539 14.3491L129.696 24.8007Z" fill="#9696B4"/>
</svg>
