<svg width="155" height="41" viewBox="0 0 155 41" fill="none" xmlns="http://www.w3.org/2000/svg">
<path d="M18.104 29.84C18.104 30.288 17.912 30.704 17.528 31.088C18.104 31.5147 18.6907 31.728 19.288 31.728C20.4827 31.728 21.336 31.376 21.848 30.672C22.3813 29.968 22.648 28.8373 22.648 27.28L22.68 17.232C22.68 15.3547 22.6267 14.2027 22.52 13.776C22.4133 13.328 22.1253 13.104 21.656 13.104C21.4213 13.104 21.1227 13.1467 20.76 13.232C20.568 13.296 20.376 13.328 20.184 13.328C19.5013 13.328 19.16 12.9867 19.16 12.304C19.16 11.6 19.608 11.248 20.504 11.248C20.824 11.248 21.1013 11.2587 21.336 11.28C22.0187 11.344 22.4987 11.376 22.776 11.376C22.9467 11.376 23.2133 11.3547 23.576 11.312C23.9387 11.248 24.2053 11.216 24.376 11.216C24.9947 11.216 25.304 11.5573 25.304 12.24C25.304 12.3467 25.2933 12.56 25.272 12.88C25.2507 13.264 25.24 13.5733 25.24 13.808C25.2187 14.1493 25.1867 14.9173 25.144 16.112C25.1013 17.456 25.08 18.4907 25.08 19.216V26.448C25.08 27.728 25.0267 28.6773 24.92 29.296C24.728 30.2987 24.344 31.152 23.768 31.856C22.744 33.0933 21.3147 33.712 19.48 33.712C18.2 33.712 17.1333 33.392 16.28 32.752C15.4267 32.112 15 31.312 15 30.352C15 29.8187 15.16 29.3707 15.48 29.008C15.7787 28.6667 16.1627 28.496 16.632 28.496C17.0373 28.496 17.3893 28.624 17.688 28.88C17.9653 29.1573 18.104 29.4773 18.104 29.84ZM23.48 9.552C22.9893 9.552 22.5627 9.38133 22.2 9.04C21.8587 8.67733 21.688 8.25067 21.688 7.76C21.688 7.26933 21.8587 6.85333 22.2 6.512C22.5627 6.17067 22.9893 6 23.48 6C23.9707 6 24.3973 6.18133 24.76 6.544C25.1227 6.88533 25.304 7.29067 25.304 7.76C25.304 8.25067 25.1227 8.67733 24.76 9.04C24.3973 9.38133 23.9707 9.552 23.48 9.552Z" fill="#9696B4"/>
<path d="M36.2485 10.672C37.6778 10.672 38.8725 11.0453 39.8325 11.792V11.664C39.8325 10.8747 40.1738 10.48 40.8565 10.48C41.5605 10.48 41.9125 10.8213 41.9125 11.504C41.9125 11.632 41.8912 11.952 41.8485 12.464C41.7632 12.8907 41.7205 13.3173 41.7205 13.744C41.7205 14 41.7525 14.3733 41.8165 14.864C41.9018 15.3547 41.9445 15.728 41.9445 15.984C41.9445 16.7947 41.5925 17.2 40.8885 17.2C40.2058 17.2 39.8538 16.8587 39.8325 16.176L39.8005 15.12C39.7792 14.48 39.4058 13.936 38.6805 13.488C37.9765 13.0187 37.1445 12.784 36.1845 12.784C35.2032 12.784 34.3818 13.04 33.7205 13.552C33.0592 14.0427 32.7285 14.6613 32.7285 15.408C32.7285 16.7733 33.6672 17.584 35.5445 17.84L37.4005 18.096C41.0272 18.5867 42.8405 20.0907 42.8405 22.608C42.8405 24.144 42.2538 25.392 41.0805 26.352C39.9072 27.2907 38.3712 27.76 36.4725 27.76C34.7018 27.76 33.1658 27.2587 31.8645 26.256C31.8858 26.4693 31.8965 26.672 31.8965 26.864C31.8965 27.632 31.5338 28.016 30.8085 28.016C30.0192 28.016 29.6245 27.5787 29.6245 26.704C29.6245 26.8533 29.6885 26.2987 29.8165 25.04C29.8592 24.7413 29.8805 24.4427 29.8805 24.144C29.8805 23.632 29.8378 23.152 29.7525 22.704C29.6672 22.256 29.6245 21.904 29.6245 21.648C29.6245 20.9013 29.9658 20.528 30.6485 20.528C31.0965 20.528 31.3738 20.6347 31.4805 20.848C31.6085 21.0613 31.6832 21.6267 31.7045 22.544C31.7258 23.4613 32.2058 24.208 33.1445 24.784C34.0832 25.36 35.2778 25.648 36.7285 25.648C37.7738 25.648 38.6378 25.3813 39.3205 24.848C40.0032 24.3147 40.3445 23.6427 40.3445 22.832C40.3445 21.3813 39.1925 20.5387 36.8885 20.304C34.6912 20.0693 33.0165 19.6427 31.8645 19.024C30.7125 18.384 30.1365 17.2747 30.1365 15.696C30.1365 14.2027 30.7018 12.9973 31.8325 12.08C32.9632 11.1413 34.4352 10.672 36.2485 10.672Z" fill="#9696B4"/>
<path d="M52.9265 27.76C50.6865 27.76 48.8945 26.992 47.5505 25.456C46.2065 23.8987 45.5345 21.8187 45.5345 19.216C45.5345 16.6133 46.2065 14.544 47.5505 13.008C48.9158 11.4507 50.7398 10.672 53.0225 10.672C55.3478 10.672 57.1825 11.4293 58.5265 12.944C59.8705 14.4587 60.5425 16.5173 60.5425 19.12C60.5425 21.7227 59.8492 23.8133 58.4625 25.392C57.0758 26.9707 55.2305 27.76 52.9265 27.76ZM53.0865 12.784C51.5932 12.784 50.4198 13.3067 49.5665 14.352C48.7132 15.3973 48.2438 16.88 48.1585 18.8C48.1585 18.8 48.1585 18.9387 48.1585 19.216C48.1585 21.2213 48.5745 22.8 49.4065 23.952C50.2598 25.0827 51.4438 25.648 52.9585 25.648C54.5158 25.648 55.7318 25.0827 56.6065 23.952C57.5025 22.8 57.9505 21.2107 57.9505 19.184C57.9505 14.9173 56.3292 12.784 53.0865 12.784Z" fill="#9696B4"/>
<path d="M68.2513 12.208V13.104C69.5312 11.4827 71.2379 10.672 73.3713 10.672C74.5233 10.672 75.6113 10.9707 76.6353 11.568C77.6593 12.144 78.3526 12.8693 78.7153 13.744C79.0139 14.4693 79.1633 15.4187 79.1633 16.592V22.672C79.1633 23.5893 79.1739 24.1333 79.1953 24.304C79.3019 25.0293 79.5899 25.392 80.0593 25.392C80.2513 25.392 80.4966 25.3707 80.7953 25.328C81.1153 25.264 81.3393 25.232 81.4673 25.232C81.7446 25.232 81.9793 25.328 82.1713 25.52C82.3846 25.712 82.4913 25.9467 82.4913 26.224C82.4913 26.544 82.3633 26.8107 82.1073 27.024C81.8513 27.2373 81.5419 27.344 81.1793 27.344C80.8806 27.344 80.3899 27.3013 79.7073 27.216C79.0246 27.1307 78.3846 27.088 77.7873 27.088C77.2326 27.088 76.7739 27.1093 76.4113 27.152C75.3446 27.28 74.7793 27.344 74.7153 27.344C73.8619 27.344 73.4353 26.9707 73.4353 26.224C73.4353 25.5627 73.7979 25.232 74.5233 25.232C74.6939 25.232 74.8859 25.2533 75.0993 25.296C75.5046 25.3813 75.7606 25.424 75.8673 25.424C76.3793 25.424 76.6566 24.8373 76.6993 23.664L76.7633 22.032L76.7953 20.08V17.648C76.7953 16.5173 76.7419 15.7387 76.6353 15.312C76.4433 14.5013 76.0273 13.872 75.3873 13.424C74.6833 12.9333 73.8833 12.688 72.9873 12.688C71.2806 12.688 70.0539 13.296 69.3073 14.512C68.7952 15.344 68.5393 16.7627 68.5393 18.768V23.024C68.5393 23.9627 68.6033 24.6027 68.7313 24.944C68.8593 25.2853 69.0939 25.456 69.4353 25.456C69.6059 25.456 69.8406 25.4133 70.1393 25.328C70.4379 25.2427 70.6833 25.2 70.8753 25.2C71.5366 25.2 71.8673 25.5627 71.8673 26.288C71.8673 26.992 71.4406 27.344 70.5873 27.344C70.4166 27.344 69.8619 27.28 68.9233 27.152C68.4539 27.088 67.9313 27.056 67.3553 27.056C66.9073 27.056 66.3099 27.0987 65.5633 27.184C64.6246 27.2907 64.0913 27.344 63.9633 27.344C63.0673 27.344 62.6193 26.9813 62.6193 26.256C62.6193 25.5733 62.9606 25.232 63.6433 25.232C63.7499 25.232 63.9419 25.264 64.2193 25.328C64.5179 25.392 64.8059 25.424 65.0833 25.424C65.7233 25.424 66.0539 24.8053 66.0753 23.568L66.1393 20.016V16.144L66.0753 15.024C66.0326 14.2987 65.9366 13.808 65.7873 13.552C65.6593 13.2747 65.4246 13.136 65.0833 13.136C64.9339 13.136 64.7099 13.168 64.4113 13.232C64.1339 13.2747 63.9206 13.296 63.7713 13.296C63.0033 13.296 62.6193 12.9547 62.6193 12.272C62.6193 11.568 63.0993 11.216 64.0593 11.216C64.1873 11.216 64.2939 11.2267 64.3793 11.248L65.5633 11.376C65.9046 11.376 66.2033 11.3547 66.4593 11.312C67.0139 11.2693 67.3019 11.248 67.3233 11.248C67.9419 11.248 68.2513 11.568 68.2513 12.208Z" fill="#9696B4"/>
<path d="M106.88 27.632C105.131 27.632 104.054 26.8747 103.648 25.36C102.56 26.96 100.854 27.76 98.5283 27.76C96.8003 27.76 95.4136 27.3333 94.3683 26.48C93.3443 25.6267 92.8323 24.4853 92.8323 23.056C92.8323 21.2853 93.5896 19.984 95.1043 19.152C95.6803 18.832 96.1709 18.6293 96.5763 18.544C97.0029 18.4373 97.8456 18.3093 99.1043 18.16C100.896 17.968 102.059 17.7013 102.592 17.36C103.147 17.0187 103.424 16.3893 103.424 15.472C103.424 14.5973 103.115 13.9147 102.496 13.424C101.899 12.912 101.056 12.656 99.9683 12.656C99.0083 12.656 98.1123 12.9227 97.2803 13.456C96.9603 13.6693 96.8003 13.8933 96.8003 14.128C96.8003 14.2133 96.8963 14.32 97.0883 14.448C97.3869 14.6613 97.5363 15.024 97.5363 15.536C97.5363 15.9627 97.3763 16.3147 97.0563 16.592C96.7576 16.8693 96.3736 17.008 95.9043 17.008C95.3496 17.008 94.8803 16.816 94.4963 16.432C94.1336 16.048 93.9523 15.5787 93.9523 15.024C93.9523 13.8293 94.5389 12.8053 95.7123 11.952C96.9069 11.0987 98.3469 10.672 100.032 10.672C103.915 10.672 105.856 12.5387 105.856 16.272V22.736C105.856 23.76 105.878 24.368 105.92 24.56C106.048 25.3067 106.411 25.68 107.008 25.68C107.755 25.68 108.128 24.9973 108.128 23.632V22.064C108.128 21.3813 108.459 21.04 109.12 21.04C109.824 21.04 110.176 21.552 110.176 22.576V22.736L110.144 24.56C110.102 26.608 109.014 27.632 106.88 27.632ZM103.328 21.264L103.36 18.992C102.891 19.4187 102.39 19.7173 101.856 19.888C101.344 20.0587 100.416 20.208 99.0723 20.336C96.6403 20.5707 95.4243 21.4667 95.4243 23.024C95.4243 23.8347 95.7123 24.4747 96.2883 24.944C96.8856 25.4133 97.6856 25.648 98.6883 25.648C100.118 25.648 101.238 25.264 102.048 24.496C102.88 23.7067 103.307 22.6293 103.328 21.264Z" fill="#9696B4"/>
<path d="M116.367 12.144V13.168C117.561 11.504 119.193 10.672 121.263 10.672C123.396 10.672 125.092 11.408 126.351 12.88C127.609 14.352 128.239 16.3467 128.239 18.864C128.239 21.5733 127.567 23.7387 126.223 25.36C124.9 26.96 123.119 27.76 120.879 27.76C119.023 27.76 117.519 27.1093 116.367 25.808V28.464C116.367 29.2747 116.388 29.7973 116.431 30.032C116.559 30.6933 116.868 31.024 117.359 31.024C117.508 31.024 117.732 30.992 118.031 30.928C118.329 30.864 118.553 30.832 118.703 30.832C119.385 30.832 119.727 31.184 119.727 31.888C119.727 32.592 119.279 32.944 118.383 32.944C118.063 32.944 117.583 32.9013 116.943 32.816C116.473 32.752 115.769 32.72 114.831 32.72C114.319 32.72 113.892 32.7413 113.551 32.784C112.697 32.8907 112.132 32.944 111.855 32.944C111.492 32.944 111.183 32.8267 110.927 32.592C110.671 32.3787 110.543 32.1227 110.543 31.824C110.543 31.1413 110.905 30.8 111.631 30.8C111.759 30.8 111.961 30.832 112.239 30.896C112.601 30.9813 112.868 31.024 113.039 31.024C113.444 31.024 113.689 30.8107 113.775 30.384C113.881 29.9787 113.945 28.8267 113.967 26.928L113.999 14.576C113.977 13.5947 113.7 13.104 113.167 13.104C113.017 13.104 112.783 13.1467 112.463 13.232C112.164 13.296 111.929 13.328 111.759 13.328C110.969 13.328 110.575 12.976 110.575 12.272C110.575 11.5893 111.044 11.248 111.983 11.248C112.217 11.248 112.473 11.2587 112.751 11.28C113.284 11.3227 113.679 11.344 113.935 11.344C114.127 11.344 114.404 11.3333 114.767 11.312C115.129 11.2693 115.396 11.248 115.567 11.248C116.1 11.248 116.367 11.5467 116.367 12.144ZM116.847 16.048C116.655 16.88 116.548 17.8933 116.527 19.088C116.527 19.1733 116.516 19.3333 116.495 19.568C116.495 19.76 116.495 19.9093 116.495 20.016C116.495 21.4453 116.612 22.4907 116.847 23.152C117.081 23.792 117.54 24.368 118.223 24.88C118.927 25.392 119.791 25.648 120.815 25.648C122.351 25.648 123.535 25.0933 124.367 23.984C125.22 22.8533 125.647 21.2533 125.647 19.184C125.647 14.9173 124.132 12.784 121.103 12.784C120.079 12.784 119.161 13.0933 118.351 13.712C117.561 14.3307 117.06 15.1093 116.847 16.048Z" fill="#9696B4"/>
<path d="M136.194 17.936V22.096C136.194 23.1627 136.205 23.792 136.226 23.984C136.333 24.944 136.621 25.424 137.09 25.424C137.197 25.424 137.464 25.3707 137.89 25.264C137.997 25.2213 138.157 25.2 138.37 25.2C139.181 25.2 139.586 25.552 139.586 26.256C139.586 26.5547 139.448 26.8107 139.17 27.024C138.914 27.2373 138.584 27.344 138.178 27.344C137.837 27.344 137.314 27.3013 136.61 27.216C135.928 27.1093 135.416 27.056 135.074 27.056C134.52 27.056 133.901 27.0987 133.218 27.184C132.386 27.2907 131.832 27.344 131.554 27.344C130.701 27.344 130.274 26.9813 130.274 26.256C130.274 25.552 130.637 25.2 131.362 25.2C131.533 25.2 131.778 25.232 132.098 25.296C132.44 25.36 132.696 25.392 132.866 25.392C133.378 25.392 133.688 24.7093 133.794 23.344C133.794 23.2587 133.794 22.3307 133.794 20.56V17.936C133.794 16.1653 133.794 15.2373 133.794 15.152C133.688 13.808 133.368 13.136 132.834 13.136C132.664 13.136 132.418 13.1787 132.098 13.264C131.8 13.328 131.576 13.36 131.426 13.36C130.658 13.36 130.274 13.0187 130.274 12.336C130.274 11.6107 130.744 11.248 131.682 11.248C132.088 11.248 132.376 11.2587 132.546 11.28C133.229 11.3653 133.666 11.408 133.858 11.408C134.029 11.408 134.285 11.3867 134.626 11.344C134.989 11.28 135.256 11.248 135.426 11.248C136.045 11.248 136.354 11.664 136.354 12.496C136.354 12.5813 136.344 12.7093 136.322 12.88C136.301 13.0507 136.29 13.1787 136.29 13.264C136.269 13.4347 136.248 14.096 136.226 15.248C136.205 16.1227 136.194 17.0187 136.194 17.936ZM134.53 9.552C134.04 9.552 133.613 9.38133 133.25 9.04C132.909 8.67733 132.738 8.25067 132.738 7.76C132.738 7.26933 132.909 6.85333 133.25 6.512C133.613 6.17067 134.04 6 134.53 6C135.021 6 135.437 6.17067 135.778 6.512C136.141 6.85333 136.322 7.26933 136.322 7.76C136.322 8.25067 136.141 8.67733 135.778 9.04C135.437 9.38133 135.021 9.552 134.53 9.552Z" fill="#9696B4"/>
<path d="M18.104 29.84C18.104 30.288 17.912 30.704 17.528 31.088C18.104 31.5147 18.6907 31.728 19.288 31.728C20.4827 31.728 21.336 31.376 21.848 30.672C22.3813 29.968 22.648 28.8373 22.648 27.28L22.68 17.232C22.68 15.3547 22.6267 14.2027 22.52 13.776C22.4133 13.328 22.1253 13.104 21.656 13.104C21.4213 13.104 21.1227 13.1467 20.76 13.232C20.568 13.296 20.376 13.328 20.184 13.328C19.5013 13.328 19.16 12.9867 19.16 12.304C19.16 11.6 19.608 11.248 20.504 11.248C20.824 11.248 21.1013 11.2587 21.336 11.28C22.0187 11.344 22.4987 11.376 22.776 11.376C22.9467 11.376 23.2133 11.3547 23.576 11.312C23.9387 11.248 24.2053 11.216 24.376 11.216C24.9947 11.216 25.304 11.5573 25.304 12.24C25.304 12.3467 25.2933 12.56 25.272 12.88C25.2507 13.264 25.24 13.5733 25.24 13.808C25.2187 14.1493 25.1867 14.9173 25.144 16.112C25.1013 17.456 25.08 18.4907 25.08 19.216V26.448C25.08 27.728 25.0267 28.6773 24.92 29.296C24.728 30.2987 24.344 31.152 23.768 31.856C22.744 33.0933 21.3147 33.712 19.48 33.712C18.2 33.712 17.1333 33.392 16.28 32.752C15.4267 32.112 15 31.312 15 30.352C15 29.8187 15.16 29.3707 15.48 29.008C15.7787 28.6667 16.1627 28.496 16.632 28.496C17.0373 28.496 17.3893 28.624 17.688 28.88C17.9653 29.1573 18.104 29.4773 18.104 29.84ZM23.48 9.552C22.9893 9.552 22.5627 9.38133 22.2 9.04C21.8587 8.67733 21.688 8.25067 21.688 7.76C21.688 7.26933 21.8587 6.85333 22.2 6.512C22.5627 6.17067 22.9893 6 23.48 6C23.9707 6 24.3973 6.18133 24.76 6.544C25.1227 6.88533 25.304 7.29067 25.304 7.76C25.304 8.25067 25.1227 8.67733 24.76 9.04C24.3973 9.38133 23.9707 9.552 23.48 9.552Z" stroke="black"/>
<path d="M36.2485 10.672C37.6778 10.672 38.8725 11.0453 39.8325 11.792V11.664C39.8325 10.8747 40.1738 10.48 40.8565 10.48C41.5605 10.48 41.9125 10.8213 41.9125 11.504C41.9125 11.632 41.8912 11.952 41.8485 12.464C41.7632 12.8907 41.7205 13.3173 41.7205 13.744C41.7205 14 41.7525 14.3733 41.8165 14.864C41.9018 15.3547 41.9445 15.728 41.9445 15.984C41.9445 16.7947 41.5925 17.2 40.8885 17.2C40.2058 17.2 39.8538 16.8587 39.8325 16.176L39.8005 15.12C39.7792 14.48 39.4058 13.936 38.6805 13.488C37.9765 13.0187 37.1445 12.784 36.1845 12.784C35.2032 12.784 34.3818 13.04 33.7205 13.552C33.0592 14.0427 32.7285 14.6613 32.7285 15.408C32.7285 16.7733 33.6672 17.584 35.5445 17.84L37.4005 18.096C41.0272 18.5867 42.8405 20.0907 42.8405 22.608C42.8405 24.144 42.2538 25.392 41.0805 26.352C39.9072 27.2907 38.3712 27.76 36.4725 27.76C34.7018 27.76 33.1658 27.2587 31.8645 26.256C31.8858 26.4693 31.8965 26.672 31.8965 26.864C31.8965 27.632 31.5338 28.016 30.8085 28.016C30.0192 28.016 29.6245 27.5787 29.6245 26.704C29.6245 26.8533 29.6885 26.2987 29.8165 25.04C29.8592 24.7413 29.8805 24.4427 29.8805 24.144C29.8805 23.632 29.8378 23.152 29.7525 22.704C29.6672 22.256 29.6245 21.904 29.6245 21.648C29.6245 20.9013 29.9658 20.528 30.6485 20.528C31.0965 20.528 31.3738 20.6347 31.4805 20.848C31.6085 21.0613 31.6832 21.6267 31.7045 22.544C31.7258 23.4613 32.2058 24.208 33.1445 24.784C34.0832 25.36 35.2778 25.648 36.7285 25.648C37.7738 25.648 38.6378 25.3813 39.3205 24.848C40.0032 24.3147 40.3445 23.6427 40.3445 22.832C40.3445 21.3813 39.1925 20.5387 36.8885 20.304C34.6912 20.0693 33.0165 19.6427 31.8645 19.024C30.7125 18.384 30.1365 17.2747 30.1365 15.696C30.1365 14.2027 30.7018 12.9973 31.8325 12.08C32.9632 11.1413 34.4352 10.672 36.2485 10.672Z" stroke="black"/>
<path d="M52.9265 27.76C50.6865 27.76 48.8945 26.992 47.5505 25.456C46.2065 23.8987 45.5345 21.8187 45.5345 19.216C45.5345 16.6133 46.2065 14.544 47.5505 13.008C48.9158 11.4507 50.7398 10.672 53.0225 10.672C55.3478 10.672 57.1825 11.4293 58.5265 12.944C59.8705 14.4587 60.5425 16.5173 60.5425 19.12C60.5425 21.7227 59.8492 23.8133 58.4625 25.392C57.0758 26.9707 55.2305 27.76 52.9265 27.76ZM53.0865 12.784C51.5932 12.784 50.4198 13.3067 49.5665 14.352C48.7132 15.3973 48.2438 16.88 48.1585 18.8C48.1585 18.8 48.1585 18.9387 48.1585 19.216C48.1585 21.2213 48.5745 22.8 49.4065 23.952C50.2598 25.0827 51.4438 25.648 52.9585 25.648C54.5158 25.648 55.7318 25.0827 56.6065 23.952C57.5025 22.8 57.9505 21.2107 57.9505 19.184C57.9505 14.9173 56.3292 12.784 53.0865 12.784Z" stroke="black"/>
<path d="M68.2513 12.208V13.104C69.5312 11.4827 71.2379 10.672 73.3713 10.672C74.5233 10.672 75.6113 10.9707 76.6353 11.568C77.6593 12.144 78.3526 12.8693 78.7153 13.744C79.0139 14.4693 79.1633 15.4187 79.1633 16.592V22.672C79.1633 23.5893 79.1739 24.1333 79.1953 24.304C79.3019 25.0293 79.5899 25.392 80.0593 25.392C80.2513 25.392 80.4966 25.3707 80.7953 25.328C81.1153 25.264 81.3393 25.232 81.4673 25.232C81.7446 25.232 81.9793 25.328 82.1713 25.52C82.3846 25.712 82.4913 25.9467 82.4913 26.224C82.4913 26.544 82.3633 26.8107 82.1073 27.024C81.8513 27.2373 81.5419 27.344 81.1793 27.344C80.8806 27.344 80.3899 27.3013 79.7073 27.216C79.0246 27.1307 78.3846 27.088 77.7873 27.088C77.2326 27.088 76.7739 27.1093 76.4113 27.152C75.3446 27.28 74.7793 27.344 74.7153 27.344C73.8619 27.344 73.4353 26.9707 73.4353 26.224C73.4353 25.5627 73.7979 25.232 74.5233 25.232C74.6939 25.232 74.8859 25.2533 75.0993 25.296C75.5046 25.3813 75.7606 25.424 75.8673 25.424C76.3793 25.424 76.6566 24.8373 76.6993 23.664L76.7633 22.032L76.7953 20.08V17.648C76.7953 16.5173 76.7419 15.7387 76.6353 15.312C76.4433 14.5013 76.0273 13.872 75.3873 13.424C74.6833 12.9333 73.8833 12.688 72.9873 12.688C71.2806 12.688 70.0539 13.296 69.3073 14.512C68.7952 15.344 68.5393 16.7627 68.5393 18.768V23.024C68.5393 23.9627 68.6033 24.6027 68.7313 24.944C68.8593 25.2853 69.0939 25.456 69.4353 25.456C69.6059 25.456 69.8406 25.4133 70.1393 25.328C70.4379 25.2427 70.6833 25.2 70.8753 25.2C71.5366 25.2 71.8673 25.5627 71.8673 26.288C71.8673 26.992 71.4406 27.344 70.5873 27.344C70.4166 27.344 69.8619 27.28 68.9233 27.152C68.4539 27.088 67.9313 27.056 67.3553 27.056C66.9073 27.056 66.3099 27.0987 65.5633 27.184C64.6246 27.2907 64.0913 27.344 63.9633 27.344C63.0673 27.344 62.6193 26.9813 62.6193 26.256C62.6193 25.5733 62.9606 25.232 63.6433 25.232C63.7499 25.232 63.9419 25.264 64.2193 25.328C64.5179 25.392 64.8059 25.424 65.0833 25.424C65.7233 25.424 66.0539 24.8053 66.0753 23.568L66.1393 20.016V16.144L66.0753 15.024C66.0326 14.2987 65.9366 13.808 65.7873 13.552C65.6593 13.2747 65.4246 13.136 65.0833 13.136C64.9339 13.136 64.7099 13.168 64.4113 13.232C64.1339 13.2747 63.9206 13.296 63.7713 13.296C63.0033 13.296 62.6193 12.9547 62.6193 12.272C62.6193 11.568 63.0993 11.216 64.0593 11.216C64.1873 11.216 64.2939 11.2267 64.3793 11.248L65.5633 11.376C65.9046 11.376 66.2033 11.3547 66.4593 11.312C67.0139 11.2693 67.3019 11.248 67.3233 11.248C67.9419 11.248 68.2513 11.568 68.2513 12.208Z" stroke="black"/>
<path d="M106.88 27.632C105.131 27.632 104.054 26.8747 103.648 25.36C102.56 26.96 100.854 27.76 98.5283 27.76C96.8003 27.76 95.4136 27.3333 94.3683 26.48C93.3443 25.6267 92.8323 24.4853 92.8323 23.056C92.8323 21.2853 93.5896 19.984 95.1043 19.152C95.6803 18.832 96.1709 18.6293 96.5763 18.544C97.0029 18.4373 97.8456 18.3093 99.1043 18.16C100.896 17.968 102.059 17.7013 102.592 17.36C103.147 17.0187 103.424 16.3893 103.424 15.472C103.424 14.5973 103.115 13.9147 102.496 13.424C101.899 12.912 101.056 12.656 99.9683 12.656C99.0083 12.656 98.1123 12.9227 97.2803 13.456C96.9603 13.6693 96.8003 13.8933 96.8003 14.128C96.8003 14.2133 96.8963 14.32 97.0883 14.448C97.3869 14.6613 97.5363 15.024 97.5363 15.536C97.5363 15.9627 97.3763 16.3147 97.0563 16.592C96.7576 16.8693 96.3736 17.008 95.9043 17.008C95.3496 17.008 94.8803 16.816 94.4963 16.432C94.1336 16.048 93.9523 15.5787 93.9523 15.024C93.9523 13.8293 94.5389 12.8053 95.7123 11.952C96.9069 11.0987 98.3469 10.672 100.032 10.672C103.915 10.672 105.856 12.5387 105.856 16.272V22.736C105.856 23.76 105.878 24.368 105.92 24.56C106.048 25.3067 106.411 25.68 107.008 25.68C107.755 25.68 108.128 24.9973 108.128 23.632V22.064C108.128 21.3813 108.459 21.04 109.12 21.04C109.824 21.04 110.176 21.552 110.176 22.576V22.736L110.144 24.56C110.102 26.608 109.014 27.632 106.88 27.632ZM103.328 21.264L103.36 18.992C102.891 19.4187 102.39 19.7173 101.856 19.888C101.344 20.0587 100.416 20.208 99.0723 20.336C96.6403 20.5707 95.4243 21.4667 95.4243 23.024C95.4243 23.8347 95.7123 24.4747 96.2883 24.944C96.8856 25.4133 97.6856 25.648 98.6883 25.648C100.118 25.648 101.238 25.264 102.048 24.496C102.88 23.7067 103.307 22.6293 103.328 21.264Z" stroke="black"/>
<path d="M116.367 12.144V13.168C117.561 11.504 119.193 10.672 121.263 10.672C123.396 10.672 125.092 11.408 126.351 12.88C127.609 14.352 128.239 16.3467 128.239 18.864C128.239 21.5733 127.567 23.7387 126.223 25.36C124.9 26.96 123.119 27.76 120.879 27.76C119.023 27.76 117.519 27.1093 116.367 25.808V28.464C116.367 29.2747 116.388 29.7973 116.431 30.032C116.559 30.6933 116.868 31.024 117.359 31.024C117.508 31.024 117.732 30.992 118.031 30.928C118.329 30.864 118.553 30.832 118.703 30.832C119.385 30.832 119.727 31.184 119.727 31.888C119.727 32.592 119.279 32.944 118.383 32.944C118.063 32.944 117.583 32.9013 116.943 32.816C116.473 32.752 115.769 32.72 114.831 32.72C114.319 32.72 113.892 32.7413 113.551 32.784C112.697 32.8907 112.132 32.944 111.855 32.944C111.492 32.944 111.183 32.8267 110.927 32.592C110.671 32.3787 110.543 32.1227 110.543 31.824C110.543 31.1413 110.905 30.8 111.631 30.8C111.759 30.8 111.961 30.832 112.239 30.896C112.601 30.9813 112.868 31.024 113.039 31.024C113.444 31.024 113.689 30.8107 113.775 30.384C113.881 29.9787 113.945 28.8267 113.967 26.928L113.999 14.576C113.977 13.5947 113.7 13.104 113.167 13.104C113.017 13.104 112.783 13.1467 112.463 13.232C112.164 13.296 111.929 13.328 111.759 13.328C110.969 13.328 110.575 12.976 110.575 12.272C110.575 11.5893 111.044 11.248 111.983 11.248C112.217 11.248 112.473 11.2587 112.751 11.28C113.284 11.3227 113.679 11.344 113.935 11.344C114.127 11.344 114.404 11.3333 114.767 11.312C115.129 11.2693 115.396 11.248 115.567 11.248C116.1 11.248 116.367 11.5467 116.367 12.144ZM116.847 16.048C116.655 16.88 116.548 17.8933 116.527 19.088C116.527 19.1733 116.516 19.3333 116.495 19.568C116.495 19.76 116.495 19.9093 116.495 20.016C116.495 21.4453 116.612 22.4907 116.847 23.152C117.081 23.792 117.54 24.368 118.223 24.88C118.927 25.392 119.791 25.648 120.815 25.648C122.351 25.648 123.535 25.0933 124.367 23.984C125.22 22.8533 125.647 21.2533 125.647 19.184C125.647 14.9173 124.132 12.784 121.103 12.784C120.079 12.784 119.161 13.0933 118.351 13.712C117.561 14.3307 117.06 15.1093 116.847 16.048Z" stroke="black"/>
<path d="M136.194 17.936V22.096C136.194 23.1627 136.205 23.792 136.226 23.984C136.333 24.944 136.621 25.424 137.09 25.424C137.197 25.424 137.464 25.3707 137.89 25.264C137.997 25.2213 138.157 25.2 138.37 25.2C139.181 25.2 139.586 25.552 139.586 26.256C139.586 26.5547 139.448 26.8107 139.17 27.024C138.914 27.2373 138.584 27.344 138.178 27.344C137.837 27.344 137.314 27.3013 136.61 27.216C135.928 27.1093 135.416 27.056 135.074 27.056C134.52 27.056 133.901 27.0987 133.218 27.184C132.386 27.2907 131.832 27.344 131.554 27.344C130.701 27.344 130.274 26.9813 130.274 26.256C130.274 25.552 130.637 25.2 131.362 25.2C131.533 25.2 131.778 25.232 132.098 25.296C132.44 25.36 132.696 25.392 132.866 25.392C133.378 25.392 133.688 24.7093 133.794 23.344C133.794 23.2587 133.794 22.3307 133.794 20.56V17.936C133.794 16.1653 133.794 15.2373 133.794 15.152C133.688 13.808 133.368 13.136 132.834 13.136C132.664 13.136 132.418 13.1787 132.098 13.264C131.8 13.328 131.576 13.36 131.426 13.36C130.658 13.36 130.274 13.0187 130.274 12.336C130.274 11.6107 130.744 11.248 131.682 11.248C132.088 11.248 132.376 11.2587 132.546 11.28C133.229 11.3653 133.666 11.408 133.858 11.408C134.029 11.408 134.285 11.3867 134.626 11.344C134.989 11.28 135.256 11.248 135.426 11.248C136.045 11.248 136.354 11.664 136.354 12.496C136.354 12.5813 136.344 12.7093 136.322 12.88C136.301 13.0507 136.29 13.1787 136.29 13.264C136.269 13.4347 136.248 14.096 136.226 15.248C136.205 16.1227 136.194 17.0187 136.194 17.936ZM134.53 9.552C134.04 9.552 133.613 9.38133 133.25 9.04C132.909 8.67733 132.738 8.25067 132.738 7.76C132.738 7.26933 132.909 6.85333 133.25 6.512C133.613 6.17067 134.04 6 134.53 6C135.021 6 135.437 6.17067 135.778 6.512C136.141 6.85333 136.322 7.26933 136.322 7.76C136.322 8.25067 136.141 8.67733 135.778 9.04C135.437 9.38133 135.021 9.552 134.53 9.552Z" stroke="black"/>
<path opacity="0.5" fill-rule="evenodd" clip-rule="evenodd" d="M6.13308 15.0081C6.13308 16.5547 5.92864 17.7225 5.51977 18.5115C5.1109 19.2691 4.35606 19.9477 3.25525 20.5473C4.32461 21.1155 5.06372 21.8256 5.47259 22.6778C5.91292 23.4985 6.13308 24.6505 6.13308 26.1339V33.7564C6.13308 35.4923 6.43187 36.6286 7.02945 37.1651C7.62703 37.7333 8.83792 38.0173 10.6621 38.0173V41H9.29397C6.90364 41 5.20525 40.4634 4.1988 39.3903C3.19235 38.3487 2.68912 36.5654 2.68912 34.0404V26.2286C2.68912 24.8714 2.48468 23.8614 2.07581 23.1986C1.66694 22.5358 0.975002 22.0781 0 21.8256V19.0323C1.79275 18.5273 2.68912 17.1228 2.68912 14.8187V6.48614C2.68912 4.18206 3.20807 2.52502 4.24598 1.51501C5.31533 0.505004 7.01372 0 9.34115 0H10.6621V2.98268C8.83792 3.01424 7.62703 3.29831 7.02945 3.83487C6.43187 4.37144 6.13308 5.46035 6.13308 7.10162V15.0081ZM87.1543 27.7601C86.5996 27.7601 86.1303 27.5681 85.7463 27.1841C85.3623 26.7788 85.1703 26.2988 85.1703 25.7441C85.1703 25.1894 85.3623 24.7201 85.7463 24.3361C86.1303 23.9308 86.5996 23.7281 87.1543 23.7281C87.709 23.7281 88.1783 23.9308 88.5623 24.3361C88.9463 24.7201 89.1383 25.1894 89.1383 25.7441C89.1383 26.2988 88.9463 26.7788 88.5623 27.1841C88.1783 27.5681 87.709 27.7601 87.1543 27.7601ZM87.1543 16.9441C86.5996 16.9441 86.1303 16.7521 85.7463 16.3681C85.3623 15.9628 85.1703 15.4828 85.1703 14.9281C85.1703 14.3734 85.3623 13.9041 85.7463 13.5201C86.1303 13.1148 86.5996 12.9121 87.1543 12.9121C87.709 12.9121 88.1783 13.1148 88.5623 13.5201C88.9463 13.9041 89.1383 14.3734 89.1383 14.9281C89.1383 15.4828 88.9463 15.9628 88.5623 16.3681C88.1783 16.7521 87.709 16.9441 87.1543 16.9441ZM149.142 22.5358C148.733 23.3249 148.529 24.4769 148.529 25.9919V33.8984C148.529 35.5396 148.23 36.6286 147.633 37.1651C147.035 37.7017 145.824 37.9858 144 38.0173V41H145.321C147.68 41 149.378 40.495 150.416 39.485C151.454 38.475 151.973 36.8179 151.973 34.5139V26.1813C151.973 23.8772 152.869 22.4727 154.662 21.9677V19.1744C152.869 18.7325 151.973 17.2648 151.973 14.7714V6.95958C151.973 4.43457 151.454 2.65127 150.416 1.6097C149.41 0.536566 147.711 0 145.321 0H144V2.98268C145.824 2.98268 147.035 3.26674 147.633 3.83487C148.23 4.37144 148.529 5.5077 148.529 7.24365V14.866C148.529 16.3495 148.733 17.5173 149.142 18.3695C149.583 19.1901 150.338 19.8845 151.407 20.4527C150.306 21.0523 149.551 21.7467 149.142 22.5358Z" fill="#9696B4"/>
</svg>
