<svg width="171" height="47" viewBox="0 0 171 47" fill="none" xmlns="http://www.w3.org/2000/svg">
<path d="M20.1813 33.7741C20.1813 34.2669 19.9701 34.7245 19.5477 35.1469C20.1813 35.6162 20.8266 35.8509 21.4837 35.8509C22.7978 35.8509 23.7365 35.4636 24.2997 34.6893C24.8864 33.9149 25.1797 32.6711 25.1797 30.9581L25.2149 19.9053C25.2149 17.8402 25.1562 16.573 25.0389 16.1036C24.9216 15.6108 24.6048 15.3644 24.0885 15.3644C23.8304 15.3644 23.5018 15.4114 23.1029 15.5053C22.8917 15.5757 22.6805 15.6109 22.4693 15.6109C21.7184 15.6109 21.3429 15.2354 21.3429 14.4844C21.3429 13.71 21.8357 13.3228 22.8213 13.3228C23.1733 13.3228 23.4784 13.3346 23.7365 13.3581C24.4874 13.4285 25.0154 13.4636 25.3205 13.4636C25.5082 13.4636 25.8016 13.4402 26.2005 13.3933C26.5994 13.3229 26.8928 13.2877 27.0805 13.2877C27.761 13.2877 28.1013 13.6631 28.1013 14.414C28.1013 14.5314 28.0896 14.766 28.0661 15.118C28.0426 15.5404 28.0309 15.8807 28.0309 16.1389C28.0074 16.5143 27.9722 17.3591 27.9253 18.6733C27.8784 20.1517 27.8549 21.2898 27.8549 22.0877V30.0429C27.8549 31.4509 27.7962 32.4951 27.6789 33.1757C27.4677 34.2786 27.0453 35.2173 26.4117 35.9917C25.2853 37.3527 23.713 38.0333 21.6949 38.0333C20.2869 38.0333 19.1136 37.6813 18.1749 36.9773C17.2362 36.2733 16.7669 35.3933 16.7669 34.3373C16.7669 33.7506 16.9429 33.2578 17.2949 32.8589C17.6234 32.4834 18.0458 32.2957 18.5621 32.2957C19.008 32.2957 19.3952 32.4365 19.7237 32.7181C20.0288 33.0231 20.1813 33.3751 20.1813 33.7741ZM26.0949 11.4572C25.5552 11.4572 25.0858 11.2695 24.6869 10.894C24.3114 10.4951 24.1237 10.0258 24.1237 9.48605C24.1237 8.94632 24.3114 8.48872 24.6869 8.11325C25.0858 7.73778 25.5552 7.55005 26.0949 7.55005C26.6346 7.55005 27.104 7.74952 27.5029 8.14845C27.9018 8.52392 28.1013 8.96978 28.1013 9.48605C28.1013 10.0258 27.9018 10.4951 27.5029 10.894C27.104 11.2695 26.6346 11.4572 26.0949 11.4572Z" fill="#0B4E22"/>
<path d="M40.1403 12.6892C41.7125 12.6892 43.0267 13.0999 44.0827 13.9212V13.7804C44.0827 12.9122 44.4581 12.4781 45.2091 12.4781C45.9835 12.4781 46.3707 12.8535 46.3707 13.6044C46.3707 13.7452 46.3472 14.0972 46.3003 14.6604C46.2064 15.1298 46.1595 15.5991 46.1595 16.0684C46.1595 16.35 46.1947 16.7607 46.2651 17.3005C46.3589 17.8402 46.4059 18.2508 46.4059 18.5324C46.4059 19.4242 46.0187 19.87 45.2443 19.87C44.4933 19.87 44.1061 19.4946 44.0827 18.7437L44.0475 17.5821C44.024 16.8781 43.6133 16.2797 42.8155 15.7869C42.0411 15.2706 41.1259 15.0124 40.0699 15.0124C38.9904 15.0124 38.0869 15.294 37.3595 15.8573C36.632 16.397 36.2683 17.0775 36.2683 17.8988C36.2683 19.4007 37.3008 20.2925 39.3659 20.5741L41.4075 20.8556C45.3968 21.3954 47.3915 23.0498 47.3915 25.8189C47.3915 27.5085 46.7461 28.8813 45.4555 29.9373C44.1648 30.9698 42.4752 31.4861 40.3867 31.4861C38.4389 31.4861 36.7493 30.9346 35.3179 29.8317C35.3413 30.0663 35.3531 30.2893 35.3531 30.5005C35.3531 31.3453 34.9541 31.7677 34.1563 31.7677C33.288 31.7677 32.8539 31.2866 32.8539 30.3245C32.8539 30.4887 32.9243 29.8786 33.0651 28.4941C33.112 28.1655 33.1355 27.837 33.1355 27.5084C33.1355 26.9452 33.0885 26.4173 32.9947 25.9245C32.9008 25.4317 32.8539 25.0445 32.8539 24.7629C32.8539 23.9415 33.2293 23.5309 33.9803 23.5309C34.4731 23.5309 34.7781 23.6482 34.8955 23.8829C35.0363 24.1175 35.1184 24.7394 35.1419 25.7485C35.1653 26.7575 35.6933 27.5789 36.7259 28.2125C37.7584 28.8461 39.0725 29.1629 40.6683 29.1629C41.8181 29.1629 42.7685 28.8695 43.5195 28.2829C44.2704 27.6962 44.6459 26.957 44.6459 26.0653C44.6459 24.4695 43.3787 23.5426 40.8443 23.2844C38.4272 23.0263 36.5851 22.557 35.3179 21.8765C34.0507 21.1725 33.4171 19.9522 33.4171 18.2157C33.4171 16.573 34.0389 15.2471 35.2827 14.238C36.5264 13.2055 38.1456 12.6892 40.1403 12.6892Z" fill="#0B4E22"/>
<path d="M58.486 31.4861C56.0221 31.4861 54.0509 30.6413 52.5725 28.9517C51.0941 27.2386 50.3549 24.9506 50.3549 22.0877C50.3549 19.2247 51.0941 16.9485 52.5725 15.2588C54.0743 13.5458 56.0807 12.6892 58.5917 12.6892C61.1495 12.6892 63.1677 13.5223 64.6461 15.1885C66.1245 16.8546 66.8637 19.1191 66.8637 21.9821C66.8637 24.845 66.101 27.1447 64.5757 28.8813C63.0503 30.6178 61.0205 31.4861 58.486 31.4861ZM58.6621 15.0124C57.0194 15.0124 55.7287 15.5874 54.7901 16.7372C53.8514 17.8871 53.3351 19.5181 53.2413 21.6301C53.2413 21.6301 53.2413 21.7826 53.2413 22.0877C53.2413 24.2935 53.6989 26.0301 54.6141 27.2973C55.5527 28.541 56.8551 29.1629 58.5213 29.1629C60.2343 29.1629 61.5719 28.541 62.534 27.2973C63.5197 26.0301 64.0125 24.2818 64.0125 22.0525C64.0125 17.3591 62.229 15.0124 58.6621 15.0124Z" fill="#0B4E22"/>
<path d="M75.3433 14.3789V15.3644C76.7513 13.581 78.6286 12.6892 80.9753 12.6892C82.2425 12.6892 83.4393 13.0178 84.5657 13.6748C85.6921 14.3084 86.4548 15.1063 86.8537 16.0684C87.1822 16.8663 87.3465 17.9106 87.3465 19.2013V25.8892C87.3465 26.8983 87.3582 27.4967 87.3817 27.6845C87.499 28.4823 87.8158 28.8813 88.3321 28.8813C88.5433 28.8813 88.8131 28.8578 89.1417 28.8109C89.4937 28.7405 89.7401 28.7053 89.8809 28.7053C90.186 28.7053 90.4441 28.8109 90.6553 29.0221C90.8899 29.2333 91.0073 29.4914 91.0073 29.7965C91.0073 30.1485 90.8665 30.4418 90.5849 30.6765C90.3033 30.9111 89.963 31.0285 89.5641 31.0285C89.2355 31.0285 88.6958 30.9815 87.9449 30.8877C87.1939 30.7938 86.4899 30.7469 85.8329 30.7469C85.2227 30.7469 84.7182 30.7703 84.3193 30.8173C83.146 30.9581 82.5241 31.0285 82.4537 31.0285C81.515 31.0285 81.0457 30.6178 81.0457 29.7965C81.0457 29.069 81.4446 28.7053 82.2425 28.7053C82.4302 28.7053 82.6414 28.7287 82.8761 28.7757C83.3219 28.8695 83.6035 28.9165 83.7209 28.9165C84.2841 28.9165 84.5891 28.2711 84.6361 26.9805L84.7065 25.1853L84.7417 23.038V20.3629C84.7417 19.1191 84.683 18.2626 84.5657 17.7933C84.3545 16.9015 83.8969 16.2092 83.1929 15.7164C82.4185 15.1767 81.5385 14.9068 80.5529 14.9068C78.6755 14.9068 77.3262 15.5756 76.5049 16.9132C75.9417 17.8284 75.6601 19.389 75.6601 21.5948V26.2765C75.6601 27.309 75.7305 28.013 75.8713 28.3885C76.0121 28.7639 76.2702 28.9517 76.6457 28.9517C76.8334 28.9517 77.0915 28.9047 77.4201 28.8109C77.7486 28.717 78.0185 28.67 78.2297 28.67C78.9571 28.67 79.3209 29.069 79.3209 29.8669C79.3209 30.6413 78.8516 31.0285 77.9129 31.0285C77.7252 31.0285 77.115 30.9581 76.0825 30.8173C75.5662 30.7469 74.9913 30.7117 74.3577 30.7117C73.8649 30.7117 73.2078 30.7586 72.3865 30.8525C71.354 30.9698 70.7673 31.0285 70.6265 31.0285C69.6409 31.0285 69.1481 30.6295 69.1481 29.8317C69.1481 29.0807 69.5236 28.7053 70.2745 28.7053C70.3918 28.7053 70.603 28.7405 70.9081 28.8109C71.2366 28.8813 71.5534 28.9165 71.8585 28.9165C72.5625 28.9165 72.9262 28.2359 72.9497 26.8748L73.0201 22.9677V18.7084L72.9497 17.4764C72.9028 16.6786 72.7971 16.1389 72.6329 15.8573C72.4921 15.5522 72.2339 15.3996 71.8585 15.3996C71.6942 15.3996 71.4478 15.4348 71.1193 15.5053C70.8142 15.5522 70.5796 15.5756 70.4153 15.5756C69.5705 15.5756 69.1481 15.2002 69.1481 14.4493C69.1481 13.6749 69.6761 13.2877 70.7321 13.2877C70.8729 13.2877 70.9902 13.2994 71.0841 13.3228L72.3865 13.4636C72.7619 13.4636 73.0905 13.4402 73.3721 13.3933C73.9822 13.3463 74.299 13.3228 74.3225 13.3228C75.003 13.3228 75.3433 13.6748 75.3433 14.3789Z" fill="#0B4E22"/>
<path d="M117.835 31.3453C115.911 31.3453 114.726 30.5122 114.28 28.8461C113.083 30.6061 111.206 31.4861 108.648 31.4861C106.747 31.4861 105.222 31.0167 104.072 30.0781C102.946 29.1394 102.382 27.8839 102.382 26.3117C102.382 24.3639 103.215 22.9325 104.882 22.0173C105.515 21.6653 106.055 21.4423 106.501 21.3485C106.97 21.2311 107.897 21.0903 109.282 20.9261C111.253 20.7149 112.532 20.4215 113.118 20.046C113.729 19.6706 114.034 18.9783 114.034 17.9693C114.034 17.0071 113.693 16.2562 113.013 15.7164C112.356 15.1533 111.429 14.8717 110.232 14.8717C109.176 14.8717 108.19 15.165 107.275 15.7516C106.923 15.9863 106.747 16.2327 106.747 16.4909C106.747 16.5847 106.853 16.7021 107.064 16.8428C107.393 17.0775 107.557 17.4765 107.557 18.0397C107.557 18.509 107.381 18.8962 107.029 19.2013C106.7 19.5063 106.278 19.6589 105.762 19.6589C105.151 19.6589 104.635 19.4477 104.213 19.0253C103.814 18.6029 103.614 18.0866 103.614 17.4764C103.614 16.1623 104.26 15.0359 105.55 14.0972C106.865 13.1586 108.449 12.6892 110.302 12.6892C114.573 12.6892 116.709 14.7426 116.709 18.8493V25.9597C116.709 27.0861 116.732 27.7549 116.779 27.9661C116.92 28.7874 117.319 29.1981 117.976 29.1981C118.797 29.1981 119.208 28.4471 119.208 26.9453V25.2205C119.208 24.4695 119.572 24.094 120.299 24.094C121.074 24.094 121.461 24.6573 121.461 25.7837V25.9597L121.426 27.9661C121.379 30.2189 120.182 31.3453 117.835 31.3453ZM113.928 24.3405L113.963 21.8413C113.447 22.3106 112.895 22.6391 112.309 22.8268C111.746 23.0146 110.725 23.1789 109.246 23.3197C106.571 23.5778 105.234 24.5634 105.234 26.2765C105.234 27.1682 105.55 27.8722 106.184 28.3885C106.841 28.9047 107.721 29.1629 108.824 29.1629C110.396 29.1629 111.628 28.7405 112.52 27.8957C113.435 27.0274 113.905 25.8423 113.928 24.3405Z" fill="#0B4E22"/>
<path d="M128.27 14.3084V15.4349C129.584 13.6045 131.38 12.6892 133.656 12.6892C136.003 12.6892 137.868 13.4988 139.253 15.118C140.637 16.7372 141.33 18.9314 141.33 21.7005C141.33 24.6807 140.59 27.0626 139.112 28.8461C137.657 30.6061 135.698 31.4861 133.234 31.4861C131.192 31.4861 129.538 30.7703 128.27 29.3389V32.2605C128.27 33.1522 128.294 33.7271 128.341 33.9853C128.482 34.7127 128.822 35.0765 129.362 35.0765C129.526 35.0765 129.772 35.0413 130.101 34.9709C130.429 34.9005 130.676 34.8653 130.84 34.8653C131.591 34.8653 131.966 35.2525 131.966 36.0269C131.966 36.8013 131.474 37.1885 130.488 37.1885C130.136 37.1885 129.608 37.1415 128.904 37.0477C128.388 36.9773 127.613 36.9421 126.581 36.9421C126.018 36.9421 125.548 36.9655 125.173 37.0125C124.234 37.1298 123.612 37.1885 123.307 37.1885C122.908 37.1885 122.568 37.0594 122.286 36.8013C122.005 36.5666 121.864 36.285 121.864 35.9565C121.864 35.2055 122.263 34.8301 123.061 34.8301C123.202 34.8301 123.424 34.8653 123.73 34.9357C124.128 35.0295 124.422 35.0765 124.61 35.0765C125.055 35.0765 125.325 34.8418 125.419 34.3725C125.536 33.9266 125.607 32.6594 125.63 30.5709L125.666 16.9837C125.642 15.9042 125.337 15.3644 124.75 15.3644C124.586 15.3644 124.328 15.4114 123.976 15.5053C123.647 15.5757 123.389 15.6109 123.202 15.6109C122.333 15.6109 121.899 15.2237 121.899 14.4493C121.899 13.6983 122.415 13.3228 123.448 13.3228C123.706 13.3228 123.988 13.3346 124.293 13.3581C124.879 13.405 125.314 13.4284 125.595 13.4284C125.806 13.4284 126.111 13.4167 126.51 13.3933C126.909 13.3463 127.203 13.3228 127.39 13.3228C127.977 13.3228 128.27 13.6514 128.27 14.3084ZM128.798 18.6029C128.587 19.5181 128.47 20.6327 128.446 21.9468C128.446 22.0407 128.435 22.2167 128.411 22.4748C128.411 22.686 128.411 22.8503 128.411 22.9677C128.411 24.5399 128.54 25.6898 128.798 26.4173C129.056 27.1213 129.561 27.7549 130.312 28.3181C131.086 28.8813 132.037 29.1629 133.163 29.1629C134.853 29.1629 136.155 28.5527 137.07 27.3325C138.009 26.0887 138.478 24.3287 138.478 22.0525C138.478 17.3591 136.812 15.0124 133.48 15.0124C132.354 15.0124 131.344 15.3527 130.453 16.0332C129.584 16.7138 129.033 17.5703 128.798 18.6029Z" fill="#0B4E22"/>
<path d="M150.081 20.6796V25.2556C150.081 26.429 150.092 27.1213 150.116 27.3325C150.233 28.3885 150.55 28.9165 151.066 28.9165C151.183 28.9165 151.477 28.8578 151.946 28.7405C152.063 28.6935 152.239 28.67 152.474 28.67C153.366 28.67 153.812 29.0573 153.812 29.8317C153.812 30.1602 153.659 30.4418 153.354 30.6765C153.073 30.9111 152.709 31.0285 152.263 31.0285C151.887 31.0285 151.313 30.9815 150.538 30.8877C149.787 30.7703 149.224 30.7117 148.849 30.7117C148.238 30.7117 147.558 30.7586 146.807 30.8525C145.892 30.9698 145.282 31.0285 144.977 31.0285C144.038 31.0285 143.569 30.6295 143.569 29.8317C143.569 29.0573 143.967 28.67 144.765 28.67C144.953 28.67 145.223 28.7053 145.575 28.7757C145.95 28.8461 146.232 28.8813 146.42 28.8813C146.983 28.8813 147.323 28.1303 147.441 26.6285C147.441 26.5346 147.441 25.5138 147.441 23.566V20.6796C147.441 18.7319 147.441 17.7111 147.441 17.6173C147.323 16.1389 146.971 15.3996 146.385 15.3996C146.197 15.3996 145.927 15.4466 145.575 15.5405C145.246 15.6108 145 15.646 144.836 15.646C143.991 15.646 143.569 15.2706 143.569 14.5197C143.569 13.7218 144.085 13.3228 145.117 13.3228C145.563 13.3228 145.88 13.3346 146.068 13.3581C146.819 13.4519 147.3 13.4988 147.511 13.4988C147.699 13.4988 147.98 13.4754 148.356 13.4284C148.755 13.358 149.048 13.3228 149.236 13.3228C149.916 13.3228 150.257 13.7805 150.257 14.6957C150.257 14.7895 150.245 14.9303 150.221 15.118C150.198 15.3058 150.186 15.4466 150.186 15.5405C150.163 15.7282 150.139 16.4556 150.116 17.7228C150.092 18.685 150.081 19.6706 150.081 20.6796ZM148.25 11.4572C147.71 11.4572 147.241 11.2695 146.842 10.894C146.467 10.4951 146.279 10.0258 146.279 9.48605C146.279 8.94632 146.467 8.48872 146.842 8.11325C147.241 7.73778 147.71 7.55005 148.25 7.55005C148.79 7.55005 149.247 7.73778 149.623 8.11325C150.022 8.48872 150.221 8.94632 150.221 9.48605C150.221 10.0258 150.022 10.4951 149.623 10.894C149.247 11.2695 148.79 11.4572 148.25 11.4572Z" fill="#0B4E22"/>
<path d="M20.1813 33.7741C20.1813 34.2669 19.9701 34.7245 19.5477 35.1469C20.1813 35.6162 20.8266 35.8509 21.4837 35.8509C22.7978 35.8509 23.7365 35.4636 24.2997 34.6893C24.8864 33.9149 25.1797 32.6711 25.1797 30.9581L25.2149 19.9053C25.2149 17.8402 25.1562 16.573 25.0389 16.1036C24.9216 15.6108 24.6048 15.3644 24.0885 15.3644C23.8304 15.3644 23.5018 15.4114 23.1029 15.5053C22.8917 15.5757 22.6805 15.6109 22.4693 15.6109C21.7184 15.6109 21.3429 15.2354 21.3429 14.4844C21.3429 13.71 21.8357 13.3228 22.8213 13.3228C23.1733 13.3228 23.4784 13.3346 23.7365 13.3581C24.4874 13.4285 25.0154 13.4636 25.3205 13.4636C25.5082 13.4636 25.8016 13.4402 26.2005 13.3933C26.5994 13.3229 26.8928 13.2877 27.0805 13.2877C27.761 13.2877 28.1013 13.6631 28.1013 14.414C28.1013 14.5314 28.0896 14.766 28.0661 15.118C28.0426 15.5404 28.0309 15.8807 28.0309 16.1389C28.0074 16.5143 27.9722 17.3591 27.9253 18.6733C27.8784 20.1517 27.8549 21.2898 27.8549 22.0877V30.0429C27.8549 31.4509 27.7962 32.4951 27.6789 33.1757C27.4677 34.2786 27.0453 35.2173 26.4117 35.9917C25.2853 37.3527 23.713 38.0333 21.6949 38.0333C20.2869 38.0333 19.1136 37.6813 18.1749 36.9773C17.2362 36.2733 16.7669 35.3933 16.7669 34.3373C16.7669 33.7506 16.9429 33.2578 17.2949 32.8589C17.6234 32.4834 18.0458 32.2957 18.5621 32.2957C19.008 32.2957 19.3952 32.4365 19.7237 32.7181C20.0288 33.0231 20.1813 33.3751 20.1813 33.7741ZM26.0949 11.4572C25.5552 11.4572 25.0858 11.2695 24.6869 10.894C24.3114 10.4951 24.1237 10.0258 24.1237 9.48605C24.1237 8.94632 24.3114 8.48872 24.6869 8.11325C25.0858 7.73778 25.5552 7.55005 26.0949 7.55005C26.6346 7.55005 27.104 7.74952 27.5029 8.14845C27.9018 8.52392 28.1013 8.96978 28.1013 9.48605C28.1013 10.0258 27.9018 10.4951 27.5029 10.894C27.104 11.2695 26.6346 11.4572 26.0949 11.4572Z" stroke="black"/>
<path d="M40.1403 12.6892C41.7125 12.6892 43.0267 13.0999 44.0827 13.9212V13.7804C44.0827 12.9122 44.4581 12.4781 45.2091 12.4781C45.9835 12.4781 46.3707 12.8535 46.3707 13.6044C46.3707 13.7452 46.3472 14.0972 46.3003 14.6604C46.2064 15.1298 46.1595 15.5991 46.1595 16.0684C46.1595 16.35 46.1947 16.7607 46.2651 17.3005C46.3589 17.8402 46.4059 18.2508 46.4059 18.5324C46.4059 19.4242 46.0187 19.87 45.2443 19.87C44.4933 19.87 44.1061 19.4946 44.0827 18.7437L44.0475 17.5821C44.024 16.8781 43.6133 16.2797 42.8155 15.7869C42.0411 15.2706 41.1259 15.0124 40.0699 15.0124C38.9904 15.0124 38.0869 15.294 37.3595 15.8573C36.632 16.397 36.2683 17.0775 36.2683 17.8988C36.2683 19.4007 37.3008 20.2925 39.3659 20.5741L41.4075 20.8556C45.3968 21.3954 47.3915 23.0498 47.3915 25.8189C47.3915 27.5085 46.7461 28.8813 45.4555 29.9373C44.1648 30.9698 42.4752 31.4861 40.3867 31.4861C38.4389 31.4861 36.7493 30.9346 35.3179 29.8317C35.3413 30.0663 35.3531 30.2893 35.3531 30.5005C35.3531 31.3453 34.9541 31.7677 34.1563 31.7677C33.288 31.7677 32.8539 31.2866 32.8539 30.3245C32.8539 30.4887 32.9243 29.8786 33.0651 28.4941C33.112 28.1655 33.1355 27.837 33.1355 27.5084C33.1355 26.9452 33.0885 26.4173 32.9947 25.9245C32.9008 25.4317 32.8539 25.0445 32.8539 24.7629C32.8539 23.9415 33.2293 23.5309 33.9803 23.5309C34.4731 23.5309 34.7781 23.6482 34.8955 23.8829C35.0363 24.1175 35.1184 24.7394 35.1419 25.7485C35.1653 26.7575 35.6933 27.5789 36.7259 28.2125C37.7584 28.8461 39.0725 29.1629 40.6683 29.1629C41.8181 29.1629 42.7685 28.8695 43.5195 28.2829C44.2704 27.6962 44.6459 26.957 44.6459 26.0653C44.6459 24.4695 43.3787 23.5426 40.8443 23.2844C38.4272 23.0263 36.5851 22.557 35.3179 21.8765C34.0507 21.1725 33.4171 19.9522 33.4171 18.2157C33.4171 16.573 34.0389 15.2471 35.2827 14.238C36.5264 13.2055 38.1456 12.6892 40.1403 12.6892Z" stroke="black"/>
<path d="M58.486 31.4861C56.0221 31.4861 54.0509 30.6413 52.5725 28.9517C51.0941 27.2386 50.3549 24.9506 50.3549 22.0877C50.3549 19.2247 51.0941 16.9485 52.5725 15.2588C54.0743 13.5458 56.0807 12.6892 58.5917 12.6892C61.1495 12.6892 63.1677 13.5223 64.6461 15.1885C66.1245 16.8546 66.8637 19.1191 66.8637 21.9821C66.8637 24.845 66.101 27.1447 64.5757 28.8813C63.0503 30.6178 61.0205 31.4861 58.486 31.4861ZM58.6621 15.0124C57.0194 15.0124 55.7287 15.5874 54.7901 16.7372C53.8514 17.8871 53.3351 19.5181 53.2413 21.6301C53.2413 21.6301 53.2413 21.7826 53.2413 22.0877C53.2413 24.2935 53.6989 26.0301 54.6141 27.2973C55.5527 28.541 56.8551 29.1629 58.5213 29.1629C60.2343 29.1629 61.5719 28.541 62.534 27.2973C63.5197 26.0301 64.0125 24.2818 64.0125 22.0525C64.0125 17.3591 62.229 15.0124 58.6621 15.0124Z" stroke="black"/>
<path d="M75.3433 14.3789V15.3644C76.7513 13.581 78.6286 12.6892 80.9753 12.6892C82.2425 12.6892 83.4393 13.0178 84.5657 13.6748C85.6921 14.3084 86.4548 15.1063 86.8537 16.0684C87.1822 16.8663 87.3465 17.9106 87.3465 19.2013V25.8892C87.3465 26.8983 87.3582 27.4967 87.3817 27.6845C87.499 28.4823 87.8158 28.8813 88.3321 28.8813C88.5433 28.8813 88.8131 28.8578 89.1417 28.8109C89.4937 28.7405 89.7401 28.7053 89.8809 28.7053C90.186 28.7053 90.4441 28.8109 90.6553 29.0221C90.8899 29.2333 91.0073 29.4914 91.0073 29.7965C91.0073 30.1485 90.8665 30.4418 90.5849 30.6765C90.3033 30.9111 89.963 31.0285 89.5641 31.0285C89.2355 31.0285 88.6958 30.9815 87.9449 30.8877C87.1939 30.7938 86.4899 30.7469 85.8329 30.7469C85.2227 30.7469 84.7182 30.7703 84.3193 30.8173C83.146 30.9581 82.5241 31.0285 82.4537 31.0285C81.515 31.0285 81.0457 30.6178 81.0457 29.7965C81.0457 29.069 81.4446 28.7053 82.2425 28.7053C82.4302 28.7053 82.6414 28.7287 82.8761 28.7757C83.3219 28.8695 83.6035 28.9165 83.7209 28.9165C84.2841 28.9165 84.5891 28.2711 84.6361 26.9805L84.7065 25.1853L84.7417 23.038V20.3629C84.7417 19.1191 84.683 18.2626 84.5657 17.7933C84.3545 16.9015 83.8969 16.2092 83.1929 15.7164C82.4185 15.1767 81.5385 14.9068 80.5529 14.9068C78.6755 14.9068 77.3262 15.5756 76.5049 16.9132C75.9417 17.8284 75.6601 19.389 75.6601 21.5948V26.2765C75.6601 27.309 75.7305 28.013 75.8713 28.3885C76.0121 28.7639 76.2702 28.9517 76.6457 28.9517C76.8334 28.9517 77.0915 28.9047 77.4201 28.8109C77.7486 28.717 78.0185 28.67 78.2297 28.67C78.9571 28.67 79.3209 29.069 79.3209 29.8669C79.3209 30.6413 78.8516 31.0285 77.9129 31.0285C77.7252 31.0285 77.115 30.9581 76.0825 30.8173C75.5662 30.7469 74.9913 30.7117 74.3577 30.7117C73.8649 30.7117 73.2078 30.7586 72.3865 30.8525C71.354 30.9698 70.7673 31.0285 70.6265 31.0285C69.6409 31.0285 69.1481 30.6295 69.1481 29.8317C69.1481 29.0807 69.5236 28.7053 70.2745 28.7053C70.3918 28.7053 70.603 28.7405 70.9081 28.8109C71.2366 28.8813 71.5534 28.9165 71.8585 28.9165C72.5625 28.9165 72.9262 28.2359 72.9497 26.8748L73.0201 22.9677V18.7084L72.9497 17.4764C72.9028 16.6786 72.7971 16.1389 72.6329 15.8573C72.4921 15.5522 72.2339 15.3996 71.8585 15.3996C71.6942 15.3996 71.4478 15.4348 71.1193 15.5053C70.8142 15.5522 70.5796 15.5756 70.4153 15.5756C69.5705 15.5756 69.1481 15.2002 69.1481 14.4493C69.1481 13.6749 69.6761 13.2877 70.7321 13.2877C70.8729 13.2877 70.9902 13.2994 71.0841 13.3228L72.3865 13.4636C72.7619 13.4636 73.0905 13.4402 73.3721 13.3933C73.9822 13.3463 74.299 13.3228 74.3225 13.3228C75.003 13.3228 75.3433 13.6748 75.3433 14.3789Z" stroke="black"/>
<path d="M117.835 31.3453C115.911 31.3453 114.726 30.5122 114.28 28.8461C113.083 30.6061 111.206 31.4861 108.648 31.4861C106.747 31.4861 105.222 31.0167 104.072 30.0781C102.946 29.1394 102.382 27.8839 102.382 26.3117C102.382 24.3639 103.215 22.9325 104.882 22.0173C105.515 21.6653 106.055 21.4423 106.501 21.3485C106.97 21.2311 107.897 21.0903 109.282 20.9261C111.253 20.7149 112.532 20.4215 113.118 20.046C113.729 19.6706 114.034 18.9783 114.034 17.9693C114.034 17.0071 113.693 16.2562 113.013 15.7164C112.356 15.1533 111.429 14.8717 110.232 14.8717C109.176 14.8717 108.19 15.165 107.275 15.7516C106.923 15.9863 106.747 16.2327 106.747 16.4909C106.747 16.5847 106.853 16.7021 107.064 16.8428C107.393 17.0775 107.557 17.4765 107.557 18.0397C107.557 18.509 107.381 18.8962 107.029 19.2013C106.7 19.5063 106.278 19.6589 105.762 19.6589C105.151 19.6589 104.635 19.4477 104.213 19.0253C103.814 18.6029 103.614 18.0866 103.614 17.4764C103.614 16.1623 104.26 15.0359 105.55 14.0972C106.865 13.1586 108.449 12.6892 110.302 12.6892C114.573 12.6892 116.709 14.7426 116.709 18.8493V25.9597C116.709 27.0861 116.732 27.7549 116.779 27.9661C116.92 28.7874 117.319 29.1981 117.976 29.1981C118.797 29.1981 119.208 28.4471 119.208 26.9453V25.2205C119.208 24.4695 119.572 24.094 120.299 24.094C121.074 24.094 121.461 24.6573 121.461 25.7837V25.9597L121.426 27.9661C121.379 30.2189 120.182 31.3453 117.835 31.3453ZM113.928 24.3405L113.963 21.8413C113.447 22.3106 112.895 22.6391 112.309 22.8268C111.746 23.0146 110.725 23.1789 109.246 23.3197C106.571 23.5778 105.234 24.5634 105.234 26.2765C105.234 27.1682 105.55 27.8722 106.184 28.3885C106.841 28.9047 107.721 29.1629 108.824 29.1629C110.396 29.1629 111.628 28.7405 112.52 27.8957C113.435 27.0274 113.905 25.8423 113.928 24.3405Z" stroke="black"/>
<path d="M128.27 14.3084V15.4349C129.584 13.6045 131.38 12.6892 133.656 12.6892C136.003 12.6892 137.868 13.4988 139.253 15.118C140.637 16.7372 141.33 18.9314 141.33 21.7005C141.33 24.6807 140.59 27.0626 139.112 28.8461C137.657 30.6061 135.698 31.4861 133.234 31.4861C131.192 31.4861 129.538 30.7703 128.27 29.3389V32.2605C128.27 33.1522 128.294 33.7271 128.341 33.9853C128.482 34.7127 128.822 35.0765 129.362 35.0765C129.526 35.0765 129.772 35.0413 130.101 34.9709C130.429 34.9005 130.676 34.8653 130.84 34.8653C131.591 34.8653 131.966 35.2525 131.966 36.0269C131.966 36.8013 131.474 37.1885 130.488 37.1885C130.136 37.1885 129.608 37.1415 128.904 37.0477C128.388 36.9773 127.613 36.9421 126.581 36.9421C126.018 36.9421 125.548 36.9655 125.173 37.0125C124.234 37.1298 123.612 37.1885 123.307 37.1885C122.908 37.1885 122.568 37.0594 122.286 36.8013C122.005 36.5666 121.864 36.285 121.864 35.9565C121.864 35.2055 122.263 34.8301 123.061 34.8301C123.202 34.8301 123.424 34.8653 123.73 34.9357C124.128 35.0295 124.422 35.0765 124.61 35.0765C125.055 35.0765 125.325 34.8418 125.419 34.3725C125.536 33.9266 125.607 32.6594 125.63 30.5709L125.666 16.9837C125.642 15.9042 125.337 15.3644 124.75 15.3644C124.586 15.3644 124.328 15.4114 123.976 15.5053C123.647 15.5757 123.389 15.6109 123.202 15.6109C122.333 15.6109 121.899 15.2237 121.899 14.4493C121.899 13.6983 122.415 13.3228 123.448 13.3228C123.706 13.3228 123.988 13.3346 124.293 13.3581C124.879 13.405 125.314 13.4284 125.595 13.4284C125.806 13.4284 126.111 13.4167 126.51 13.3933C126.909 13.3463 127.203 13.3228 127.39 13.3228C127.977 13.3228 128.27 13.6514 128.27 14.3084ZM128.798 18.6029C128.587 19.5181 128.47 20.6327 128.446 21.9468C128.446 22.0407 128.435 22.2167 128.411 22.4748C128.411 22.686 128.411 22.8503 128.411 22.9677C128.411 24.5399 128.54 25.6898 128.798 26.4173C129.056 27.1213 129.561 27.7549 130.312 28.3181C131.086 28.8813 132.037 29.1629 133.163 29.1629C134.853 29.1629 136.155 28.5527 137.07 27.3325C138.009 26.0887 138.478 24.3287 138.478 22.0525C138.478 17.3591 136.812 15.0124 133.48 15.0124C132.354 15.0124 131.344 15.3527 130.453 16.0332C129.584 16.7138 129.033 17.5703 128.798 18.6029Z" stroke="black"/>
<path d="M150.081 20.6796V25.2556C150.081 26.429 150.092 27.1213 150.116 27.3325C150.233 28.3885 150.55 28.9165 151.066 28.9165C151.183 28.9165 151.477 28.8578 151.946 28.7405C152.063 28.6935 152.239 28.67 152.474 28.67C153.366 28.67 153.812 29.0573 153.812 29.8317C153.812 30.1602 153.659 30.4418 153.354 30.6765C153.073 30.9111 152.709 31.0285 152.263 31.0285C151.887 31.0285 151.313 30.9815 150.538 30.8877C149.787 30.7703 149.224 30.7117 148.849 30.7117C148.238 30.7117 147.558 30.7586 146.807 30.8525C145.892 30.9698 145.282 31.0285 144.977 31.0285C144.038 31.0285 143.569 30.6295 143.569 29.8317C143.569 29.0573 143.967 28.67 144.765 28.67C144.953 28.67 145.223 28.7053 145.575 28.7757C145.95 28.8461 146.232 28.8813 146.42 28.8813C146.983 28.8813 147.323 28.1303 147.441 26.6285C147.441 26.5346 147.441 25.5138 147.441 23.566V20.6796C147.441 18.7319 147.441 17.7111 147.441 17.6173C147.323 16.1389 146.971 15.3996 146.385 15.3996C146.197 15.3996 145.927 15.4466 145.575 15.5405C145.246 15.6108 145 15.646 144.836 15.646C143.991 15.646 143.569 15.2706 143.569 14.5197C143.569 13.7218 144.085 13.3228 145.117 13.3228C145.563 13.3228 145.88 13.3346 146.068 13.3581C146.819 13.4519 147.3 13.4988 147.511 13.4988C147.699 13.4988 147.98 13.4754 148.356 13.4284C148.755 13.358 149.048 13.3228 149.236 13.3228C149.916 13.3228 150.257 13.7805 150.257 14.6957C150.257 14.7895 150.245 14.9303 150.221 15.118C150.198 15.3058 150.186 15.4466 150.186 15.5405C150.163 15.7282 150.139 16.4556 150.116 17.7228C150.092 18.685 150.081 19.6706 150.081 20.6796ZM148.25 11.4572C147.71 11.4572 147.241 11.2695 146.842 10.894C146.467 10.4951 146.279 10.0258 146.279 9.48605C146.279 8.94632 146.467 8.48872 146.842 8.11325C147.241 7.73778 147.71 7.55005 148.25 7.55005C148.79 7.55005 149.247 7.73778 149.623 8.11325C150.022 8.48872 150.221 8.94632 150.221 9.48605C150.221 10.0258 150.022 10.4951 149.623 10.894C149.247 11.2695 148.79 11.4572 148.25 11.4572Z" stroke="black"/>
<path opacity="0.6" fill-rule="evenodd" clip-rule="evenodd" d="M7.01329 17.4588C7.01329 19.1601 6.78841 20.4447 6.33865 21.3127C5.8889 22.1459 5.05857 22.8924 3.84768 23.552C5.02397 24.177 5.837 24.9581 6.28676 25.8956C6.77111 26.7983 7.01329 28.0655 7.01329 29.6973V38.0819C7.01329 39.9915 7.34196 41.2414 7.9993 41.8316C8.65664 42.4565 9.98862 42.769 11.9952 42.769V46.0499H10.4903C7.86091 46.0499 5.99268 45.4597 4.88559 44.2793C3.77849 43.1336 3.22494 41.1719 3.22494 38.3944V29.8015C3.22494 28.3085 3.00006 27.1975 2.5503 26.4684C2.10054 25.7393 1.33941 25.2359 0.266907 24.9581V21.8855C2.23893 21.33 3.22494 19.785 3.22494 17.2505V8.08471C3.22494 5.55022 3.79579 3.72747 4.93748 2.61646C6.11378 1.50546 7.982 0.949951 10.5422 0.949951H11.9952V4.2309C9.98862 4.26562 8.65664 4.57809 7.9993 5.16831C7.34196 5.75853 7.01329 6.95634 7.01329 8.76173V17.4588ZM96.1366 31.4861C95.5265 31.4861 95.0102 31.2749 94.5878 30.8525C94.1654 30.4066 93.9542 29.8786 93.9542 29.2685C93.9542 28.6583 94.1654 28.1421 94.5878 27.7197C95.0102 27.2738 95.5265 27.0509 96.1366 27.0509C96.7468 27.0509 97.263 27.2738 97.6854 27.7197C98.1078 28.1421 98.319 28.6583 98.319 29.2685C98.319 29.8786 98.1078 30.4066 97.6854 30.8525C97.263 31.2749 96.7468 31.4861 96.1366 31.4861ZM96.1366 19.5885C95.5265 19.5885 95.0102 19.3773 94.5878 18.9549C94.1654 18.509 93.9542 17.981 93.9542 17.3709C93.9542 16.7607 94.1654 16.2445 94.5878 15.8221C95.0102 15.3762 95.5265 15.1533 96.1366 15.1533C96.7468 15.1533 97.263 15.3762 97.6854 15.8221C98.1078 16.2445 98.319 16.7607 98.319 17.3709C98.319 17.981 98.1078 18.509 97.6854 18.9549C97.263 19.3773 96.7468 19.5885 96.1366 19.5885ZM164.323 25.7393C163.874 26.6073 163.649 27.8745 163.649 29.5411V38.2382C163.649 40.0436 163.32 41.2414 162.663 41.8316C162.006 42.4218 160.674 42.7343 158.667 42.769V46.0499H160.12C162.715 46.0499 164.583 45.4944 165.725 44.3834C166.866 43.2724 167.437 41.4497 167.437 38.9152V29.7494C167.437 27.2149 168.423 25.6699 170.395 25.1144V22.0418C168.423 21.5557 167.437 19.9413 167.437 17.1984V8.60549C167.437 5.82797 166.866 3.86635 165.725 2.72062C164.618 1.54017 162.749 0.949951 160.12 0.949951H158.667V4.2309C160.674 4.2309 162.006 4.54337 162.663 5.16831C163.32 5.75853 163.649 7.00842 163.649 8.91796V17.3026C163.649 18.9344 163.874 20.219 164.323 21.1564C164.808 22.0591 165.638 22.8229 166.814 23.4479C165.604 24.1075 164.773 24.8713 164.323 25.7393Z" fill="#0B4E22"/>
</svg>
