<svg width="183" height="44" viewBox="0 0 183 44" fill="none" xmlns="http://www.w3.org/2000/svg">
<path d="M73.6346 31.3242H69.5155V20.6907C69.5155 19.5052 69.2239 18.5737 68.6407 17.8962C68.0576 17.1946 67.2554 16.8438 66.2351 16.8438C65.0683 16.8438 64.1571 17.2309 63.5009 18.0051C62.8692 18.7793 62.5536 19.8439 62.5536 21.1988V31.3242H58.398V13.5412H62.4806V15.1018C63.5984 13.7711 65.1413 13.1057 67.1098 13.1057C69.3209 13.1057 70.9859 13.8799 72.1037 15.4284C73.4886 13.8799 75.3476 13.1057 77.6807 13.1057C80.0133 13.1057 81.7753 13.7833 82.9661 15.1381C84.1809 16.4687 84.7886 18.4164 84.7886 20.981V31.3242H80.633V20.6907C80.633 19.5052 80.3414 18.5737 79.7582 17.8962C79.1751 17.1946 78.3729 16.8438 77.3526 16.8438C76.1858 16.8438 75.2745 17.243 74.6189 18.0415C73.9627 18.8157 73.6346 19.868 73.6346 21.1988V31.3242Z" fill="#111111"/>
<path d="M105.004 22.215L104.967 23.6666H92.7564C92.8534 24.9973 93.327 26.0497 94.1778 26.8239C95.0285 27.5981 96.1218 27.9853 97.4581 27.9853C99.3782 27.9853 100.909 27.1506 102.051 25.4812L104.858 28.0942C102.963 30.5136 100.496 31.7233 97.4581 31.7233C94.7609 31.7233 92.5983 30.8765 90.9704 29.1829C89.3175 27.4651 88.4912 25.2513 88.4912 22.5416C88.4912 19.9044 89.2449 17.6664 90.7513 15.8276C92.2823 14.0131 94.3113 13.1057 96.8385 13.1057C99.5362 13.1057 101.565 14.001 102.926 15.7913C104.311 17.5817 105.004 19.7229 105.004 22.215ZM96.875 16.8801C95.8302 16.8801 94.9675 17.2067 94.2873 17.86C93.6311 18.5132 93.1935 19.3479 92.9749 20.3641H100.593C100.569 19.3721 100.241 18.5495 99.6092 17.8962C98.9771 17.2188 98.0658 16.8801 96.875 16.8801Z" fill="#111111"/>
<path d="M117.244 13.1031C119.236 13.1031 120.901 13.6838 122.237 14.8451V5.8811H126.393V31.3215H122.31V29.7247C121.047 31.0553 119.358 31.7207 117.244 31.7207C114.717 31.7207 112.627 30.8497 110.974 29.1077C109.346 27.3415 108.532 25.1157 108.532 22.4301C108.532 19.7445 109.346 17.5186 110.974 15.7525C112.602 13.9862 114.692 13.1031 117.244 13.1031ZM121.034 18.3654C120.185 17.3009 119.018 16.7686 117.535 16.7686C116.053 16.7686 114.887 17.3009 114.035 18.3654C113.186 19.4299 112.761 20.7849 112.761 22.4301C112.761 24.0752 113.186 25.4302 114.035 26.4947C114.887 27.5592 116.053 28.0915 117.535 28.0915C119.018 28.0915 120.185 27.5592 121.034 26.4947C121.885 25.4302 122.31 24.0752 122.31 22.4301C122.31 20.7849 121.885 19.4299 121.034 18.3654Z" fill="#111111"/>
<path d="M130.968 13.5417H135.123V24.1752C135.123 25.3608 135.415 26.3044 135.998 27.006C136.582 27.6834 137.407 28.0221 138.477 28.0221C139.619 28.0221 140.518 27.6229 141.174 26.8245C141.855 26.0019 142.195 24.9132 142.195 23.5583V13.5417H146.35V31.3247H142.268V29.873C141.125 31.1069 139.583 31.7238 137.638 31.7238C135.597 31.7238 133.969 31.0343 132.754 29.6552C131.563 28.2519 130.968 26.3285 130.968 23.8849V13.5417Z" fill="#111111"/>
<path d="M158.665 24.6102L156.295 24.0296C152.674 23.1827 150.865 21.3077 150.865 18.4043C150.865 16.8075 151.471 15.5252 152.686 14.5575C153.902 13.5897 155.47 13.1057 157.389 13.1057C159.965 13.1057 162.212 14.0977 164.132 16.0817L161.472 18.9124C160.378 17.4124 158.981 16.6623 157.28 16.6623C156.551 16.6623 155.955 16.8317 155.494 17.1705C155.056 17.485 154.837 17.872 154.837 18.3317C154.837 19.1544 155.421 19.7108 156.587 20.0012L159.394 20.6544C163.039 21.477 164.862 23.3279 164.862 26.207C164.862 27.8523 164.23 29.1829 162.966 30.199C161.727 31.2153 160.001 31.7233 157.79 31.7233C154.679 31.7233 152.213 30.5741 150.39 28.2757L153.014 25.59C154.327 27.3079 156.028 28.1668 158.118 28.1668C159.941 28.1668 160.852 27.5619 160.852 26.3522C160.852 25.5779 160.122 24.9973 158.665 24.6102Z" fill="#111111"/>
<path d="M173.815 31.7233C172.09 31.7233 170.656 31.2395 169.515 30.2716C168.372 29.2797 167.801 27.9611 167.801 26.3159C167.801 24.4287 168.481 22.965 169.843 21.9246C171.203 20.8843 173.002 20.3641 175.237 20.3641C176.355 20.3641 177.558 20.5697 178.846 20.981V19.7834C178.846 18.9124 178.518 18.2108 177.862 17.6785C177.205 17.122 176.367 16.8438 175.346 16.8438C173.475 16.8438 172.066 17.7028 171.118 19.4204L168.312 16.8075C168.968 15.6219 169.928 14.7147 171.191 14.0856C172.479 13.4324 173.877 13.1057 175.382 13.1057C177.74 13.1057 179.599 13.6865 180.959 14.8477C182.321 16.0091 183.001 17.6664 183.001 19.8197V31.3242H178.919V29.945C177.582 31.1306 175.881 31.7233 173.815 31.7233ZM171.956 26.0255C171.956 26.6305 172.187 27.1264 172.649 27.5136C173.135 27.9006 173.803 28.0942 174.654 28.0942C176.404 28.0942 177.802 27.5861 178.846 26.5699V24.5376C177.533 24.0537 176.295 23.8118 175.128 23.8118C174.156 23.8118 173.378 24.0053 172.795 24.3924C172.237 24.7796 171.956 25.324 171.956 26.0255Z" fill="#111111"/>
<path d="M36.1204 7.08946L26.245 1.41595C23.0138 -0.444965 19.0545 -0.444965 15.8233 1.41595L5.90229 7.08946C2.71665 8.95037 0.714241 12.3999 0.714241 16.0764V27.4687C0.714241 31.1906 2.71665 34.5946 5.90229 36.4555L15.7778 42.1745C19.009 44.0354 22.9682 44.0354 26.1994 42.1745L36.0749 36.4555C39.3061 34.5946 41.263 31.1906 41.263 27.4687V16.0764C41.354 12.3999 39.3516 8.95037 36.1204 7.08946ZM21.0113 31.9167C15.4137 31.9167 10.8628 27.378 10.8628 21.7952C10.8628 16.2124 15.4137 11.6737 21.0113 11.6737C26.609 11.6737 31.2054 16.2124 31.2054 21.7952C31.2054 27.378 26.6545 31.9167 21.0113 31.9167Z" fill="url(#paint0_linear_129_662)"/>
<defs>
<linearGradient id="paint0_linear_129_662" x1="-34.0694" y1="35.6746" x2="48.6093" y2="14.8385" gradientUnits="userSpaceOnUse">
<stop offset="0.265625" stop-color="#592EE1"/>
<stop offset="1" stop-color="#B836D9"/>
</linearGradient>
</defs>
</svg>
