<svg width="116" height="46" viewBox="0 0 116 46" fill="none" xmlns="http://www.w3.org/2000/svg">
<path fill-rule="evenodd" clip-rule="evenodd" d="M26.952 0.879883C26.6318 0.879883 26.3283 0.95056 26.0581 1.04618C26.6401 1.43699 26.9644 1.95251 27.1266 2.54287C27.139 2.62602 27.1598 2.68007 27.1681 2.75906C27.1765 2.83806 27.1931 2.89626 27.1931 2.96694C27.2347 3.97721 26.9312 4.10193 26.7108 4.70061C26.5546 5.06226 26.4877 5.45623 26.5159 5.84918C26.5442 6.24213 26.6666 6.62251 26.873 6.95812C26.9097 7.04724 26.9556 7.13224 27.0102 7.21172C26.5736 4.3098 28.9933 3.87327 29.4423 2.97109C29.4755 2.1396 28.8187 1.65317 28.3073 1.28316C27.9016 1.02734 27.4316 0.891833 26.952 0.892354V0.879883ZM30.5981 1.53261C30.5565 1.79453 30.5856 1.72801 30.5731 1.86521L30.5482 2.16454L30.465 2.43894C30.4397 2.53204 30.4092 2.62365 30.3736 2.71333L30.2488 2.97525C30.2156 3.01683 30.1906 3.06672 30.1574 3.11245L30.0867 3.21639L29.9204 3.44505C29.8497 3.51572 29.7957 3.59472 29.7125 3.65292C29.6294 3.71113 29.5753 3.79012 29.4963 3.84832C29.2552 4.03125 28.9808 4.16845 28.7272 4.34722C28.644 4.40543 28.5609 4.45116 28.4985 4.51352C28.4362 4.57588 28.3489 4.62993 28.2823 4.69645C28.2158 4.76297 28.1451 4.83365 28.0745 4.91264C28.0038 4.99163 27.9497 5.06231 27.9082 5.1413L27.7419 5.38243L27.6171 5.64435L27.5257 5.90628L27.4425 6.1973C27.4301 6.23887 27.4301 6.30124 27.4176 6.34697C27.4051 6.3927 27.4051 6.43843 27.3926 6.48417L27.3802 6.77519C27.3785 6.84471 27.3827 6.91424 27.3926 6.98306C27.3926 7.07453 27.4051 7.16599 27.4259 7.27409C27.4467 7.38218 27.4592 7.45702 27.4841 7.54848L27.5756 7.82288C27.6005 7.88108 27.6338 7.93928 27.6587 7.98917L25.0229 6.96643L23.6925 6.62136L22.9691 6.45506C22.2789 6.31808 21.5824 6.2154 20.882 6.14741C20.1807 6.07009 19.4756 6.03123 18.77 6.031L17.2733 6.0892C16.5698 6.13977 15.8691 6.2244 15.1738 6.34281L14.6583 6.43428L13.6272 6.66294L13.1117 6.80013L12.6128 7.01632L12.2386 7.18262L11.8645 7.36555C11.8312 7.37802 11.8062 7.3905 11.7813 7.39881L11.4238 7.58174C11.3406 7.615 11.2575 7.66489 11.1951 7.69815C11.1618 7.72309 11.112 7.73972 11.0912 7.75635L10.7918 7.92265C10.6879 7.98086 10.5964 8.03906 10.5174 8.08895L10.2888 8.25525L10.0393 8.43818L9.84392 8.60448C9.71919 8.69594 9.66099 8.75415 9.60279 8.79988L9.35334 9.04102L9.12467 9.25721L8.92927 9.46508C8.90433 9.49002 8.87107 9.50665 8.84612 9.53576C8.78792 9.60643 8.7214 9.67295 8.65072 9.74363L8.34307 10.0762L7.71945 10.6707C7.51671 10.8516 7.30287 11.0196 7.0792 11.1738L6.38905 11.6103C6.15472 11.7391 5.91319 11.8543 5.66565 11.9554C5.42452 12.0593 5.16675 12.1508 4.91731 12.2298C4.43504 12.3337 3.94445 12.5291 3.51623 12.5624C3.42477 12.5624 3.32083 12.5873 3.22521 12.5957L2.93419 12.6663L2.65979 12.7703C2.56833 12.8035 2.47686 12.8534 2.3854 12.895C2.29393 12.9366 2.2191 12.9989 2.13595 13.0613C2.05461 13.1202 1.97814 13.1855 1.90729 13.2567C1.82414 13.3149 1.74099 13.3939 1.67863 13.4646L1.48323 13.6932C1.42502 13.7847 1.3585 13.8595 1.31693 13.9552C1.27535 14.0508 1.20052 14.1215 1.15063 14.2171L1.0259 14.5164L0.921966 14.8158L0.863761 15.0901C0.830501 15.2273 0.830501 15.3645 0.822186 15.4352C0.813871 15.5059 0.797241 15.5849 0.797241 15.6639C0.797241 15.7055 0.797241 15.7678 0.809714 15.8136C0.822186 15.8967 0.834659 15.9632 0.851289 16.0297L0.934438 16.2376C0.967698 16.3208 1.01759 16.3873 1.05916 16.4538L1.20883 16.6617L1.40423 16.8446C1.47491 16.9153 1.54143 16.9693 1.62042 17.0275C1.89482 17.2687 1.96549 17.3477 2.31888 17.5264C2.37708 17.5597 2.43529 17.5846 2.50181 17.6179C2.56001 17.7842 2.58496 17.8673 2.60575 17.963C2.62653 18.0586 2.66395 18.1584 2.69721 18.2374L2.78867 18.4452L2.95497 18.7529L3.12127 18.994L3.31667 19.2102C3.38735 19.2809 3.45387 19.3349 3.53286 19.4056L3.76153 19.5719C3.8419 19.6285 3.92671 19.6786 4.01513 19.7216C4.09828 19.7632 4.18143 19.813 4.27705 19.8463C4.34773 19.8796 4.42672 19.9045 4.50571 19.9295C4.58471 19.9544 4.65538 19.971 4.70112 19.9877C4.66786 20.6113 4.65954 21.2349 4.74269 21.4012C4.84663 21.6299 5.34968 20.9314 5.8569 20.129C5.78622 20.9605 5.74049 21.8502 5.8569 22.1246C5.9733 22.399 6.67176 21.5176 7.27044 20.5281C15.4025 18.649 22.8194 24.2699 23.6093 32.2023C23.4597 30.9634 21.9339 30.2774 21.2396 30.4479C20.8945 31.296 20.3125 32.3853 19.3687 33.0671C19.4503 32.3007 19.411 31.5263 19.2523 30.7722C19.0028 31.8282 18.504 32.8093 17.8304 33.6616C17.3052 33.6973 16.7792 33.603 16.2991 33.3869C15.8191 33.1708 15.3997 32.8396 15.0782 32.4227C15.0366 32.3894 15.02 32.3187 14.9867 32.273L14.8662 31.9903C14.8329 31.9072 14.808 31.824 14.7955 31.7492C14.783 31.6743 14.783 31.5829 14.783 31.4997V31.3334C14.7955 31.2503 14.8163 31.1671 14.8412 31.0923L14.9244 30.8512C14.9659 30.768 15.0075 30.6849 15.0616 30.61C15.257 30.0612 15.257 29.6122 14.8953 29.3503C14.8246 29.3087 14.7581 29.2672 14.6791 29.2339C14.6375 29.2214 14.5751 29.2006 14.5294 29.1923L14.4379 29.1591L14.1968 29.1009C14.1184 29.0786 14.0372 29.0674 13.9557 29.0676C13.8718 29.0535 13.7871 29.0452 13.7021 29.0427C13.6439 29.0427 13.5857 29.0551 13.5358 29.0551C13.4443 29.0551 13.3695 29.0676 13.2863 29.0884L13.0452 29.13L12.804 29.2131L12.5754 29.317L12.3592 29.4335C9.68593 31.1796 11.2783 35.2539 13.1075 36.443C12.4174 36.5677 11.7189 36.7174 11.5277 36.867C11.9975 37.1872 12.513 37.4408 13.0535 37.6985L14.9119 38.2473C15.8607 38.4508 16.8328 38.5235 17.8013 38.4635C22.8818 38.106 27.0476 34.2437 27.8042 29.1507L27.8749 29.4501L27.9789 30.0903C28.0038 30.2067 28.0121 30.3065 28.0204 30.398L28.0454 30.7431L28.0703 31.1172V31.3002C28.0703 31.3584 28.0828 31.4249 28.0828 31.4831C28.0828 31.5413 28.0703 31.6203 28.0703 31.691V31.8573C28.0703 31.9404 28.0578 32.0069 28.0578 32.0859C28.0578 32.1275 28.0578 32.1774 28.0454 32.2356L28.0329 32.485C28.0204 32.5183 28.0204 32.5557 28.0204 32.589L27.9872 32.8509C27.9872 32.8842 27.9872 32.9216 27.9747 32.9548L27.9331 33.2874V33.3082L27.8624 33.6284L27.7918 33.9734L27.6088 34.6802L27.4924 35.0461L27.243 35.7113L27.1058 36.0438L26.9395 36.364C26.927 36.3972 26.9145 36.4222 26.9062 36.4471C26.1418 37.9783 25.0298 39.3095 23.6592 40.3344C23.5678 40.3926 23.4763 40.4591 23.3848 40.5298C23.3599 40.5547 23.3266 40.563 23.3017 40.588L23.0522 40.7543L23.0855 40.825H23.098L23.5802 40.7543H23.5927L24.4866 40.588C24.5697 40.5755 24.6529 40.5547 24.736 40.5298L24.9023 40.4965L25.1434 40.4549L25.3513 40.3967C26.4878 40.1196 27.6001 39.7511 28.6773 39.295C26.8346 41.806 24.384 43.8074 21.5555 45.1113C22.8798 45.0236 24.1911 44.7964 25.4677 44.4336C30.0909 43.07 33.9781 39.9602 36.3063 35.7736C35.8365 38.4219 34.7805 40.9455 33.2214 43.149C34.3356 42.4131 35.3542 41.5691 36.2855 40.6046C38.8548 37.9189 40.5428 34.5139 41.1082 30.8553C41.499 32.668 41.6071 34.5388 41.4408 36.3848C49.7225 24.8353 42.1309 12.8617 38.9463 9.70621C38.9047 9.78936 38.8881 9.9224 38.8798 10.0638L38.7634 10.8329L38.568 11.5896L38.2936 12.3254L37.9485 13.0239L37.5327 13.6766L37.0629 14.3002C36.8966 14.5081 36.7054 14.691 36.5225 14.874L36.1899 15.165L35.928 15.3936C35.7239 15.5562 35.5101 15.7062 35.2877 15.8427L34.61 16.2335L33.8866 16.5536C33.6426 16.646 33.3943 16.7264 33.1424 16.7947L32.3733 16.961C32.1114 17.0026 31.8453 17.0317 31.5917 17.0525L31.0429 17.0774C30.781 17.0774 30.5149 17.0525 30.2613 17.0359C29.9985 17.0164 29.7374 16.9789 29.4797 16.9236C29.2178 16.882 28.9642 16.8072 28.7106 16.7282H28.6981L29.4548 16.6367L30.2239 16.4704L30.9722 16.2293C31.2217 16.1378 31.4711 16.0214 31.6956 15.9092C31.9317 15.7944 32.1621 15.6682 32.3858 15.5308L33.026 15.1151C33.2319 14.9556 33.4277 14.7834 33.6122 14.5996C33.8039 14.4239 33.9844 14.2365 34.1527 14.0383L34.635 13.4147C34.6599 13.3814 34.6766 13.3315 34.7057 13.2983L35.0383 12.7495L35.3833 12.051L35.6577 11.3152C35.7409 11.074 35.7949 10.8163 35.8531 10.5668L35.9695 9.79768L36.0111 9.01607L35.9903 8.46728L35.8988 7.69815L35.7326 6.92902L35.4831 6.19314C35.3916 5.95201 35.2752 5.71087 35.163 5.48637L34.7722 4.8087L34.3564 4.17676L33.8284 3.59472L33.5291 3.30369L31.9368 2.18117C31.8536 2.1396 31.7871 2.09802 31.7081 2.06476C31.3339 1.82363 30.9722 1.69891 30.6188 1.5825L30.5981 1.53261Z" fill="#9696B4"/>
<path d="M53.5557 30.7681C53.8218 30.6416 54.1025 30.548 54.3913 30.4896C55.0357 30.3856 55.4016 30.2983 55.5055 30.2277C55.6801 30.1237 55.7965 29.9782 55.8548 29.8452C55.9254 29.5957 55.9587 29.0968 55.9587 28.2944V26.7769L55.9753 25.538L55.9213 23.6879V22.5945C55.9213 21.8628 55.8672 21.2517 55.7467 20.7985C55.7134 20.6239 55.5554 20.4493 55.3101 20.2747C54.9775 20.0252 54.4786 19.8049 53.6554 19.5762L53.6388 18.7447L54.0379 18.6615C54.1627 18.6449 54.6325 18.5202 55.4515 18.3123L56.6904 17.8259L56.9814 17.6679C57.1302 17.5413 57.2871 17.4247 57.4512 17.3187C57.921 16.9485 58.3428 16.5211 58.7068 16.0465L59.6297 15.9758L59.5965 17.9465C59.5799 18.1377 59.5799 18.2957 59.5799 18.4163L59.5965 19.2186C60.5735 18.3872 61.4466 17.8051 62.249 17.4725C63.1796 17.0614 64.1835 16.8423 65.2008 16.8281C66.2253 16.8075 67.2327 17.0926 68.0944 17.6471C68.9092 18.1876 69.4663 18.8112 69.7574 19.518C70.0484 20.2248 70.1399 21.6799 70.1399 23.8251L70.0692 29.5458C70.0653 29.7741 70.1136 30.0002 70.2105 30.2069C70.5193 30.3482 70.8495 30.4368 71.1875 30.4688L72.044 30.6268C72.153 30.7917 72.2082 30.9863 72.202 31.1839L72.1853 31.7576L68.7513 31.5082L67.741 31.5414H66.9386L64.6187 31.716H64.0242C64.0076 31.5581 64.0076 31.4541 64.0076 31.3668L64.0408 30.685C64.1988 30.6517 64.6146 30.6018 65.2631 30.5104C65.4377 30.4937 65.629 30.4397 65.8576 30.3856C66.0863 30.3025 66.2235 30.1944 66.2568 30.1071C66.3399 29.8992 66.3981 29.5334 66.3981 28.9721L66.3649 26.7063L66.3815 24.6816C66.3815 22.2037 66.2401 20.6696 65.9657 20.0792C65.55 19.1895 64.8515 18.7489 63.9618 18.7489C63.2576 18.7654 62.566 18.9386 61.9371 19.2561C61.1375 19.6473 60.4028 20.1591 59.7586 20.7735L59.7254 21.0646L59.7586 22.1621L59.742 23.3262L59.8127 26.1325L59.7794 26.5691C59.7794 28.469 59.8501 29.55 60.0081 29.7953C60.1661 30.0406 60.7398 30.3025 61.7542 30.5977L61.8083 31.0342C61.8083 31.1756 61.7542 31.3834 61.6835 31.6786L60.7606 31.6953C60.375 31.6835 59.9904 31.6488 59.609 31.5913L57.6882 31.5747L53.643 31.6994C53.5946 31.5836 53.5705 31.4591 53.5723 31.3335L53.5889 30.7764L53.5557 30.7681ZM74.1518 22.4282C74.4636 21.4304 74.7256 20.7735 74.9709 20.4576C75.6153 19.5014 76.3137 18.7946 77.0496 18.2125C77.7855 17.6305 78.4631 17.3228 79.0535 17.1482C79.663 16.9515 80.2968 16.8396 80.9368 16.8156C81.8285 16.7914 82.7196 16.8794 83.5893 17.0775C84.1988 17.2062 84.7786 17.4488 85.298 17.7926C85.8719 18.1892 86.3979 18.651 86.8654 19.1688C87.2759 19.6627 87.6005 20.222 87.8258 20.8234C88.1041 21.5527 88.2519 22.3254 88.2623 23.1059L86.3083 23.0726C85.128 23.0455 83.9483 22.9929 82.7703 22.9146L81.3734 22.844L79.49 22.8606H77.9726L77.9393 23.2764C77.9393 23.9 78.0224 24.5485 78.1679 25.247C78.3135 25.9455 78.5504 26.5192 78.8498 27.043C79.1458 27.5494 79.5302 27.9986 79.9848 28.3693C80.4005 28.7518 80.9077 29.0137 81.3817 29.1883L82.392 29.5209L84.2046 29.4377C84.7043 29.3357 85.1941 29.1896 85.668 29.0012C86.2147 28.7399 86.7341 28.4252 87.2188 28.0616L88.2831 28.8931C87.2562 30.0073 86.1711 30.8471 85.0735 31.3876C83.9759 31.9281 82.737 32.1359 81.3318 32.1359C80.4088 32.1359 79.6563 32.0653 79.066 31.8865C78.3128 31.6899 77.5986 31.3665 76.954 30.9303C76.3228 30.4812 75.7623 29.9403 75.291 29.3255C74.7921 28.7019 74.4886 28.0159 74.2641 27.3382C73.9855 26.4485 73.8275 25.7334 73.8275 25.2096C73.8184 24.2847 73.902 23.3613 74.077 22.4532L74.1518 22.4282ZM84.3376 21.6799C84.321 21.0147 84.1963 20.4077 83.9552 19.7965C83.714 19.1854 83.3315 18.7489 82.8035 18.4246C82.3477 18.1068 81.8083 17.9304 81.2528 17.9174C80.4213 17.9174 79.7686 18.2666 79.1242 18.9443C78.4798 19.6219 78.1472 20.6072 78.0599 21.7506L82.051 21.7672L83.132 21.7131L83.8637 21.6591L84.3335 21.6757L84.3376 21.6799ZM90.9896 26.7603C91.2424 26.7029 91.4998 26.6681 91.7588 26.6564L92.1246 26.673L92.2826 26.8476L93.5382 28.8723C93.9373 29.3421 94.3405 29.7288 94.7854 30.0239C95.0473 30.1986 95.4672 30.4064 96.041 30.5977C96.4386 30.7387 96.8579 30.8091 97.2799 30.8055C97.9741 30.8234 98.6485 30.5732 99.1632 30.1071C99.6871 29.6207 99.9947 29.1093 99.9947 28.5564C99.9947 28.1905 99.8908 27.8745 99.7037 27.6168C99.5166 27.359 99.1092 27.0929 98.5188 26.7853C98.2278 26.6605 97.4919 26.4527 96.3029 26.1616L94.274 25.5879C93.7375 25.3877 93.2416 25.0919 92.8106 24.7148C92.4013 24.3621 92.0688 23.9291 91.8336 23.4426C91.5426 22.7775 91.4178 22.2037 91.4178 21.7797C91.4178 20.89 91.5592 20.1749 91.8003 19.6011C92.0654 19.0344 92.4382 18.5246 92.8979 18.1003C93.2305 17.7677 93.7294 17.4767 94.4154 17.2106C95.1162 16.9431 95.8604 16.8077 96.6105 16.8115C97.5925 16.7983 98.5736 16.8749 99.5416 17.0401C100.28 17.1648 100.997 17.3944 101.67 17.722C101.753 17.9839 101.845 18.6117 101.982 19.572L102.173 21.2974C102.173 21.3805 102.157 21.472 102.119 21.5593C101.87 21.6399 101.612 21.6874 101.35 21.7007C101.246 21.7007 101.072 21.684 100.843 21.6674C100.694 21.4296 100.555 21.1855 100.427 20.9357C99.87 19.888 99.2921 19.1563 98.7018 18.7405C98.1114 18.3248 97.4462 18.0961 96.623 18.0961C95.7998 18.0961 95.1388 18.3456 94.5983 18.7946C94.4005 18.9677 94.2442 19.1832 94.1413 19.4251C94.0384 19.6669 93.9914 19.9289 94.0038 20.1915C94.0038 20.574 94.2117 20.9606 94.6274 21.3556C95.0432 21.7506 95.7416 22.0707 96.7561 22.2786C98.2943 22.6112 99.4251 22.9604 100.14 23.2888C101.188 23.7752 101.936 24.3698 102.356 25.035C102.776 25.7002 103.001 26.4651 103.001 27.3382C103.001 28.6977 102.477 29.8327 101.45 30.739C100.423 31.6454 98.9554 32.0819 96.9847 32.0819C96.3147 32.0502 95.6462 31.9919 94.9808 31.9073C94.4944 31.8532 93.9165 31.7327 93.2554 31.5581C92.8187 31.4078 92.3887 31.2386 91.9666 31.0508C91.8576 30.9878 91.7628 30.9028 91.6881 30.8014C91.6548 30.6975 91.5634 30.2069 91.4594 29.338L91.1684 26.7728L90.9896 26.7603ZM105.358 18.3872C106.73 17.8134 107.728 17.2355 108.339 16.7242C108.95 16.2128 109.611 15.2399 110.309 13.9802H111.307C111.412 14.2896 111.465 14.614 111.465 14.9406L111.449 16.3708L111.395 17.3977L111.411 17.7968L111.81 17.8134L113.448 17.7427L114.758 17.7095C114.827 17.983 114.868 18.2631 114.879 18.5451C114.879 18.8237 114.824 19.1397 114.737 19.4847C114.448 19.5278 114.156 19.5514 113.864 19.5554C113.781 19.5554 113.586 19.5554 113.307 19.5221H112.401L112.085 19.5055L111.253 19.5388L111.22 26.1907L111.291 28.6146C111.365 28.9481 111.508 29.2625 111.711 29.5375C111.989 29.6662 112.293 29.7315 112.6 29.7288C112.912 29.7288 113.141 29.6955 113.299 29.6456C113.457 29.5957 113.714 29.4169 114.068 29.1384C114.138 29.0677 114.259 28.997 114.4 28.889C114.661 29.0776 114.896 29.2999 115.099 29.55L115.17 29.7579C114.74 30.4152 114.137 30.9405 113.428 31.2753C112.696 31.6412 111.91 31.8158 111.074 31.8158C109.977 31.8158 109.104 31.4666 108.422 30.7889C107.74 30.1112 107.412 29.0261 107.412 27.5793L107.482 24.5111V19.518L106.942 19.5014L105.67 19.518L105.441 19.4639C105.376 19.3804 105.34 19.2785 105.337 19.1729L105.37 18.3414L105.358 18.3872Z" fill="#9696B4"/>
</svg>
