<svg width="126" height="50" viewBox="0 0 126 50" fill="none" xmlns="http://www.w3.org/2000/svg">
<path fill-rule="evenodd" clip-rule="evenodd" d="M28.8488 0.668213C28.4967 0.668213 28.1628 0.745958 27.8656 0.851142C28.5058 1.28103 28.8625 1.84811 29.0409 2.4975C29.0546 2.58897 29.0775 2.64842 29.0866 2.73531C29.0957 2.8222 29.114 2.88623 29.114 2.96397C29.1598 4.07527 28.8259 4.21246 28.5835 4.87101C28.4117 5.26883 28.3381 5.7022 28.3692 6.13444C28.4002 6.56669 28.5349 6.9851 28.7619 7.35427C28.8023 7.4523 28.8529 7.54581 28.9128 7.63324C28.4326 4.44113 31.0942 3.96094 31.5882 2.96855C31.6247 2.0539 30.9022 1.51883 30.3397 1.11182C29.8934 0.83042 29.3764 0.681358 28.8488 0.681932V0.668213ZM32.8595 1.38621C32.8138 1.67432 32.8458 1.60115 32.8321 1.75207L32.8046 2.08134L32.7132 2.38317C32.6853 2.48559 32.6517 2.58636 32.6126 2.68501L32.4754 2.97312C32.4388 3.01885 32.4113 3.07373 32.3748 3.12404L32.297 3.23837L32.1141 3.48989C32.0363 3.56764 31.9769 3.65453 31.8854 3.71856C31.794 3.78258 31.7345 3.86947 31.6476 3.9335C31.3824 4.13472 31.0805 4.28564 30.8016 4.48229C30.7101 4.54631 30.6186 4.59662 30.55 4.66521C30.4814 4.73381 30.3854 4.79327 30.3122 4.86644C30.2391 4.93961 30.1613 5.01735 30.0836 5.10424C30.0058 5.19114 29.9464 5.26888 29.9006 5.35577L29.7177 5.62102L29.5805 5.90913L29.4799 6.19725L29.3884 6.51737C29.3747 6.5631 29.3747 6.6317 29.361 6.68201C29.3473 6.73231 29.3473 6.78262 29.3336 6.83292L29.3198 7.15305C29.318 7.22952 29.3226 7.30601 29.3336 7.38171C29.3336 7.48232 29.3473 7.58294 29.3701 7.70184C29.393 7.82074 29.4067 7.90306 29.4342 8.00367L29.5348 8.30551C29.5622 8.36953 29.5988 8.43356 29.6262 8.48843L26.7268 7.36342L25.2634 6.98384L24.4676 6.80091C23.7085 6.65023 22.9423 6.53729 22.1719 6.46249C21.4004 6.37745 20.6248 6.3347 19.8487 6.33444L18.2023 6.39847C17.4284 6.45409 16.6577 6.54718 15.8928 6.67743L15.3258 6.77805L14.1916 7.02957L13.6245 7.18049L13.0757 7.4183L12.6641 7.60123L12.2525 7.80245C12.216 7.81617 12.1885 7.82989 12.1611 7.83904L11.7678 8.04026C11.6763 8.07684 11.5849 8.13172 11.5163 8.16831C11.4797 8.19575 11.4248 8.21404 11.4019 8.23233L11.0727 8.41526C10.9583 8.47929 10.8577 8.54331 10.7708 8.59819L10.5193 8.78112L10.2449 8.98234L10.03 9.16527C9.89276 9.26588 9.82874 9.32991 9.76471 9.38021L9.49032 9.64546L9.23879 9.88327L9.02385 10.1119C8.99641 10.1394 8.95982 10.1577 8.93238 10.1897C8.86836 10.2674 8.79519 10.3406 8.71744 10.4183L8.37902 10.7842L7.69304 11.4382C7.47003 11.6371 7.23481 11.8219 6.98876 11.9915L6.22961 12.4717C5.97184 12.6134 5.70616 12.7401 5.43386 12.8513C5.16862 12.9656 4.88508 13.0662 4.61068 13.1531C4.08019 13.2675 3.54055 13.4824 3.06951 13.519C2.96889 13.519 2.85456 13.5464 2.74938 13.5556L2.42925 13.6333L2.12742 13.7476C2.02681 13.7842 1.9262 13.8391 1.82559 13.8848C1.72498 13.9306 1.64266 13.9992 1.55119 14.0678C1.46172 14.1326 1.3776 14.2044 1.29967 14.2827C1.2082 14.3467 1.11674 14.4336 1.04814 14.5114L0.833196 14.7629C0.769171 14.8635 0.695999 14.9458 0.650267 15.051C0.604535 15.1562 0.522217 15.2339 0.467338 15.3391L0.330141 15.6684L0.21581 15.9977L0.151785 16.2995C0.115199 16.4504 0.115199 16.6013 0.106053 16.6791C0.0969064 16.7568 0.0786133 16.8437 0.0786133 16.9306C0.0786133 16.9763 0.0786134 17.0449 0.0923331 17.0953C0.106053 17.1867 0.119772 17.2599 0.138065 17.3331L0.22953 17.5617C0.266116 17.6532 0.320994 17.7264 0.366727 17.7995L0.531363 18.0282L0.746305 18.2294C0.82405 18.3072 0.897221 18.3666 0.984112 18.4306C1.28595 18.6959 1.36369 18.7828 1.75242 18.9794C1.81644 19.016 1.88047 19.0434 1.95364 19.08C2.01766 19.263 2.0451 19.3544 2.06797 19.4596C2.09083 19.5648 2.13199 19.6746 2.16858 19.7614L2.26919 19.9901L2.45212 20.3285L2.63505 20.5938L2.84999 20.8316C2.92773 20.9093 3.00091 20.9688 3.0878 21.0465L3.33933 21.2294C3.42774 21.2917 3.52103 21.3468 3.61829 21.3941C3.70976 21.4398 3.80122 21.4947 3.90641 21.5313C3.98415 21.5679 4.07104 21.5953 4.15793 21.6227C4.24482 21.6502 4.32257 21.6685 4.37288 21.6868C4.33629 22.3728 4.32714 23.0587 4.41861 23.2417C4.53294 23.4932 5.0863 22.7249 5.64423 21.8423C5.56649 22.7569 5.51618 23.7356 5.64423 24.0374C5.77228 24.3392 6.54059 23.3697 7.19913 22.2813C16.1444 20.2142 24.303 26.3972 25.1719 35.1229C25.0073 33.7601 23.3289 33.0055 22.5652 33.193C22.1856 34.126 21.5453 35.3241 20.5072 36.0742C20.597 35.2312 20.5538 34.3793 20.3792 33.5497C20.1048 34.7113 19.556 35.7906 18.8151 36.7281C18.2373 36.7674 17.6588 36.6636 17.1307 36.4259C16.6026 36.1882 16.1413 35.8239 15.7877 35.3653C15.7419 35.3287 15.7236 35.251 15.687 35.2007L15.5544 34.8897C15.5178 34.7982 15.4904 34.7068 15.4767 34.6244C15.463 34.5421 15.463 34.4415 15.463 34.35V34.1671C15.4767 34.0756 15.4995 33.9842 15.527 33.9019L15.6184 33.6366C15.6642 33.5452 15.7099 33.4537 15.7694 33.3714C15.9843 32.7677 15.9843 32.2738 15.5864 31.9857C15.5087 31.94 15.4355 31.8942 15.3486 31.8576C15.3029 31.8439 15.2343 31.821 15.184 31.8119L15.0834 31.7753L14.8181 31.7113C14.7319 31.6868 14.6426 31.6745 14.5529 31.6747C14.4606 31.6592 14.3674 31.6501 14.2739 31.6473C14.2099 31.6473 14.1459 31.661 14.091 31.661C13.9904 31.661 13.9081 31.6747 13.8166 31.6976L13.5513 31.7433L13.2861 31.8348L13.0346 31.9491L12.7968 32.0771C9.85618 33.9979 11.6077 38.4797 13.6199 39.7876C12.8608 39.9248 12.0925 40.0894 11.8821 40.2541C12.3989 40.6062 12.966 40.8852 13.5605 41.1687L15.6047 41.7724C16.6484 41.9962 17.7178 42.0762 18.7831 42.0102C24.3716 41.6169 28.954 37.3684 29.7863 31.7662L29.864 32.0954L29.9784 32.7997C30.0058 32.9278 30.015 33.0375 30.0241 33.1381L30.0516 33.5177L30.079 33.9293V34.1305C30.079 34.1946 30.0927 34.2677 30.0927 34.3317C30.0927 34.3958 30.079 34.4827 30.079 34.5604V34.7433C30.079 34.8348 30.0653 34.908 30.0653 34.9949C30.0653 35.0406 30.0653 35.0955 30.0516 35.1595L30.0378 35.4339C30.0241 35.4705 30.0241 35.5116 30.0241 35.5482L29.9875 35.8363C29.9875 35.8729 29.9875 35.9141 29.9738 35.9507L29.9281 36.3165V36.3394L29.8503 36.6915L29.7726 37.0711L29.5714 37.8486L29.4433 38.251L29.1689 38.9827L29.018 39.3486L28.8351 39.7007C28.8214 39.7373 28.8076 39.7647 28.7985 39.7922C27.9576 41.4765 26.7344 42.9408 25.2268 44.0682C25.1262 44.1322 25.0256 44.2054 24.925 44.2831C24.8975 44.3105 24.8609 44.3197 24.8335 44.3471L24.5591 44.53L24.5957 44.6078H24.6094L25.1399 44.53H25.1536L26.1369 44.3471C26.2283 44.3334 26.3198 44.3105 26.4113 44.2831L26.5942 44.2465L26.8594 44.2008L27.0881 44.1367C28.3382 43.8319 29.5617 43.4266 30.7467 42.9248C28.7198 45.6869 26.0241 47.8885 22.9127 49.3228C24.3694 49.2263 25.8119 48.9764 27.2162 48.5774C32.3016 47.0773 36.5775 43.6566 39.1386 39.0513C38.6218 41.9645 37.4602 44.7404 35.7452 47.1642C36.9708 46.3548 38.0913 45.4264 39.1157 44.3654C41.942 41.4111 43.7987 37.6656 44.4206 33.6412C44.8505 35.6351 44.9694 37.6931 44.7865 39.7236C53.8964 27.0192 45.5457 13.8483 42.0426 10.3772C41.9968 10.4686 41.9785 10.615 41.9694 10.7705L41.8413 11.6165L41.6264 12.4488L41.3246 13.2583L40.945 14.0266L40.4877 14.7446L39.9709 15.4306C39.788 15.6593 39.5776 15.8605 39.3764 16.0617L39.0105 16.3818L38.7224 16.6334C38.4979 16.8122 38.2627 16.9771 38.0181 17.1273L37.2727 17.5571L36.4769 17.9093C36.2085 18.0109 35.9353 18.0994 35.6583 18.1745L34.8123 18.3575C34.5242 18.4032 34.2315 18.4352 33.9525 18.4581L33.3489 18.4855C33.0607 18.4855 32.7681 18.4581 32.4891 18.4398C32.2 18.4184 31.9127 18.3772 31.6293 18.3163C31.3412 18.2706 31.0622 18.1883 30.7833 18.1014H30.7696L31.6019 18.0007L32.4479 17.8178L33.2711 17.5526C33.5455 17.452 33.8199 17.3239 34.0669 17.2004C34.3266 17.0742 34.5799 16.9353 34.826 16.7843L35.5303 16.3269C35.7568 16.1515 35.9721 15.9621 36.1751 15.7599C36.386 15.5667 36.5845 15.3605 36.7696 15.1425L37.3001 14.4565C37.3276 14.4199 37.3459 14.365 37.3779 14.3284L37.7437 13.7248L38.1233 12.9565L38.4251 12.147C38.5166 11.8818 38.5761 11.5982 38.6401 11.3238L38.7681 10.4778L38.8139 9.61802L38.791 9.01435L38.6904 8.16831L38.5075 7.32226L38.2331 6.5128C38.1324 6.24755 38.0044 5.9823 37.8809 5.73535L37.451 4.98991L36.9937 4.29478L36.4129 3.65453L36.0836 3.3344L34.3321 2.09963C34.2406 2.0539 34.1675 2.00817 34.0806 1.97158C33.669 1.70634 33.2711 1.56914 32.8824 1.44109L32.8595 1.38621Z" fill="#EA2845"/>
<path d="M58.1129 33.5453C58.4057 33.4061 58.7144 33.3032 59.0321 33.2389C59.741 33.1246 60.1434 33.0285 60.2577 32.9508C60.4498 32.8365 60.5779 32.6764 60.6419 32.5301C60.7196 32.2557 60.7562 31.7069 60.7562 30.8242V29.155L60.7745 27.7922L60.7151 25.7571V24.5543C60.7151 23.7495 60.6556 23.0772 60.523 22.5787C60.4864 22.3866 60.3126 22.1946 60.0428 22.0025C59.6769 21.7281 59.1281 21.4857 58.2226 21.2342L58.2044 20.3195L58.6434 20.2281C58.7806 20.2098 59.2974 20.0726 60.1983 19.8439L61.5611 19.3088L61.8812 19.1351C62.0449 18.9958 62.2175 18.8675 62.398 18.7509C62.9148 18.3437 63.3787 17.8736 63.7791 17.3515L64.7944 17.2738L64.7578 19.4415C64.7395 19.6518 64.7395 19.8256 64.7395 19.9582L64.7578 20.8409C65.8325 19.9262 66.7929 19.286 67.6755 18.9201C68.6992 18.468 69.8035 18.2269 70.9225 18.2113C72.0494 18.1886 73.1576 18.5022 74.1055 19.1122C75.0018 19.7067 75.6146 20.3927 75.9348 21.1702C76.2549 21.9476 76.3555 23.5482 76.3555 25.908L76.2777 32.2008C76.2734 32.4518 76.3266 32.7006 76.4332 32.9279C76.7728 33.0834 77.1361 33.1808 77.508 33.216L78.45 33.3898C78.5699 33.5712 78.6306 33.7853 78.6238 34.0026L78.6055 34.6337L74.828 34.3593L73.7167 34.3959H72.8341L70.2822 34.588H69.6283C69.61 34.4142 69.61 34.2999 69.61 34.2039L69.6466 33.4538C69.8203 33.4173 70.2777 33.3624 70.9911 33.2618C71.1832 33.2435 71.3935 33.184 71.6451 33.1246C71.8966 33.0331 72.0475 32.9142 72.0841 32.8182C72.1756 32.5895 72.2396 32.1871 72.2396 31.5697L72.203 29.0773L72.2213 26.8501C72.2213 24.1245 72.0658 22.4369 71.764 21.7875C71.3067 20.8089 70.5383 20.3241 69.5597 20.3241C68.7851 20.3423 68.0242 20.5329 67.3325 20.882C66.4529 21.3124 65.6447 21.8754 64.9361 22.5513L64.8996 22.8714L64.9361 24.0787L64.9179 25.3592L64.9956 28.4462L64.959 28.9263C64.959 31.0163 65.0368 32.2054 65.2105 32.4752C65.3843 32.745 66.0154 33.0331 67.1313 33.3578L67.1907 33.838C67.1907 33.9935 67.1313 34.2221 67.0535 34.5468L66.0383 34.5651C65.6141 34.5522 65.1911 34.514 64.7715 34.4508L62.6587 34.4325L58.2089 34.5697C58.1557 34.4423 58.1292 34.3053 58.1312 34.1673L58.1495 33.5545L58.1129 33.5453ZM80.7687 24.3714C81.1117 23.2738 81.3998 22.5513 81.6696 22.2037C82.3784 21.1519 83.1467 20.3744 83.9562 19.7342C84.7657 19.0939 85.5111 18.7555 86.1605 18.5634C86.831 18.347 87.5281 18.2239 88.2322 18.1976C89.213 18.1709 90.1932 18.2677 91.1499 18.4857C91.8204 18.6272 92.4581 18.8941 93.0295 19.2723C93.6608 19.7085 94.2393 20.2165 94.7536 20.786C95.2051 21.3293 95.5622 21.9446 95.81 22.6061C96.1161 23.4084 96.2787 24.2583 96.2902 25.1168L94.1408 25.0803C92.8424 25.0505 91.5448 24.9925 90.249 24.9065L88.7124 24.8287L86.6407 24.847H84.9715L84.9349 25.3044C84.9349 25.9903 85.0263 26.7038 85.1864 27.4721C85.3465 28.2404 85.6071 28.8715 85.9364 29.4477C86.262 30.0047 86.6849 30.4988 87.1849 30.9066C87.6422 31.3273 88.2002 31.6154 88.7215 31.8075L89.8328 32.1733L91.8267 32.0819C92.3764 31.9696 92.9151 31.8089 93.4365 31.6017C94.0378 31.3143 94.6092 30.9681 95.1423 30.5681L96.3131 31.4828C95.1835 32.7084 93.9899 33.6322 92.7825 34.2267C91.5752 34.8212 90.2124 35.0499 88.6666 35.0499C87.6514 35.0499 86.8236 34.9722 86.1742 34.7755C85.3457 34.5592 84.5601 34.2036 83.851 33.7237C83.1567 33.2297 82.5401 32.6347 82.0217 31.9584C81.4729 31.2724 81.1391 30.5178 80.8921 29.7724C80.5857 28.7937 80.4119 28.0071 80.4119 27.4309C80.4019 26.4136 80.4938 25.3978 80.6863 24.3989L80.7687 24.3714ZM91.9731 23.5482C91.9548 22.8165 91.8176 22.1488 91.5523 21.4766C91.2871 20.8043 90.8663 20.3241 90.2855 19.9674C89.7841 19.6178 89.1908 19.4238 88.5797 19.4095C87.6651 19.4095 86.9471 19.7936 86.2382 20.539C85.5294 21.2845 85.1635 22.3683 85.0675 23.626L89.4578 23.6443L90.6468 23.5848L91.4517 23.5254L91.9685 23.5437L91.9731 23.5482ZM99.2902 29.1367C99.5683 29.0736 99.8514 29.0353 100.136 29.0224L100.539 29.0407L100.713 29.2328L102.094 31.4599C102.533 31.9767 102.976 32.402 103.466 32.7267C103.754 32.9188 104.216 33.1474 104.847 33.3578C105.284 33.5129 105.745 33.5903 106.21 33.5865C106.973 33.6061 107.715 33.3309 108.281 32.8182C108.857 32.2831 109.196 31.7206 109.196 31.1124C109.196 30.7099 109.082 30.3623 108.876 30.0788C108.67 29.7953 108.222 29.5026 107.572 29.1642C107.252 29.027 106.443 28.7983 105.135 28.4782L102.903 27.8471C102.313 27.6268 101.767 27.3014 101.293 26.8867C100.843 26.4986 100.477 26.0224 100.219 25.4873C99.8985 24.7556 99.7613 24.1245 99.7613 23.658C99.7613 22.6793 99.9168 21.8927 100.182 21.2616C100.474 20.6382 100.884 20.0775 101.389 19.6107C101.755 19.2448 102.304 18.9247 103.059 18.632C103.829 18.3377 104.648 18.1889 105.473 18.193C106.553 18.1785 107.633 18.2627 108.697 18.4445C109.51 18.5817 110.298 18.8342 111.039 19.1945C111.13 19.4826 111.231 20.1732 111.382 21.2296L111.592 23.1275C111.592 23.219 111.574 23.3196 111.533 23.4156C111.259 23.5042 110.974 23.5565 110.687 23.5711C110.572 23.5711 110.38 23.5528 110.129 23.5345C109.965 23.273 109.812 23.0044 109.671 22.7296C109.059 21.5772 108.423 20.7723 107.774 20.315C107.124 19.8576 106.392 19.6061 105.487 19.6061C104.581 19.6061 103.854 19.8805 103.26 20.3744C103.042 20.5648 102.87 20.8019 102.757 21.0679C102.644 21.334 102.592 21.6222 102.606 21.911C102.606 22.3318 102.834 22.7571 103.292 23.1915C103.749 23.626 104.517 23.9781 105.633 24.2068C107.325 24.5726 108.569 24.9568 109.356 25.3181C110.508 25.8531 111.332 26.5071 111.793 27.2388C112.255 27.9705 112.502 28.812 112.502 29.7724C112.502 31.2678 111.926 32.5163 110.796 33.5133C109.667 34.5103 108.053 34.9904 105.885 34.9904C105.148 34.9556 104.412 34.8915 103.681 34.7984C103.145 34.7389 102.51 34.6063 101.783 34.4142C101.302 34.249 100.829 34.0628 100.365 33.8563C100.245 33.7869 100.141 33.6935 100.059 33.5819C100.022 33.4676 99.9213 32.9279 99.807 31.9721L99.4869 29.1504L99.2902 29.1367ZM115.095 19.9262C116.604 19.2951 117.702 18.6595 118.374 18.0969C119.047 17.5344 119.774 16.4643 120.542 15.0786H121.64C121.755 15.4189 121.813 15.7758 121.813 16.135L121.795 17.7082L121.736 18.8378L121.754 19.2768L122.193 19.2951L123.995 19.2174L125.435 19.1808C125.512 19.4817 125.556 19.7898 125.568 20.1C125.568 20.4064 125.509 20.754 125.413 21.1336C125.094 21.181 124.774 21.2069 124.452 21.2113C124.361 21.2113 124.146 21.2113 123.839 21.1747H122.842L122.495 21.1564L121.58 21.193L121.544 28.5102L121.621 31.1764C121.703 31.5433 121.86 31.8891 122.083 32.1916C122.39 32.3332 122.724 32.405 123.062 32.402C123.405 32.402 123.656 32.3654 123.83 32.3105C124.004 32.2557 124.287 32.059 124.676 31.7526C124.754 31.6749 124.887 31.5971 125.042 31.4782C125.329 31.6857 125.587 31.9302 125.81 32.2054L125.888 32.434C125.416 33.157 124.753 33.7349 123.972 34.1032C123.167 34.5057 122.303 34.6978 121.384 34.6978C120.176 34.6978 119.216 34.3136 118.466 33.5682C117.716 32.8227 117.354 31.6291 117.354 30.0376L117.432 26.6626V21.1702L116.838 21.1519L115.438 21.1702L115.187 21.1107C115.116 21.0188 115.076 20.9067 115.072 20.7906L115.109 19.8759L115.095 19.9262Z" fill="#EA2845"/>
</svg>
