<svg width="144" height="50" viewBox="0 0 144 50" fill="none" xmlns="http://www.w3.org/2000/svg">
<path fill-rule="evenodd" clip-rule="evenodd" d="M77.3166 23.8221H84.5853V18.073H88.4305V32.8229H84.5853V27.0724H77.3166V32.8229H73.6049V18.073H77.3151V23.8221H77.3166ZM103.097 18.073H97.1615C95.5172 18.073 94.5161 18.3816 93.7592 19.1363C93.0053 19.8865 92.7156 20.8394 92.7156 22.5213V28.3807C92.7156 30.0626 93.0038 31.0125 93.7592 31.7657C94.5131 32.5189 95.5142 32.829 97.1615 32.829H103.097C104.741 32.829 105.742 32.5189 106.499 31.7657C107.258 31.0155 107.543 30.0626 107.543 28.3807V22.5213C107.543 20.8394 107.255 19.8896 106.499 19.1348C105.741 18.3816 104.741 18.073 103.097 18.073ZM103.83 28.4669C103.83 29.3291 103.541 29.5711 102.496 29.5711H97.7622C96.7186 29.5711 96.4273 29.3291 96.4273 28.4669V22.429C96.4273 21.5654 96.7186 21.3234 97.7622 21.3234H102.496C103.566 21.3234 103.831 21.5427 103.831 22.4275V28.4669H103.83ZM116.741 23.9748H122.051C123.696 23.9748 124.718 24.2849 125.454 25.0381C126.12 25.7036 126.497 26.785 126.497 27.9572V28.8436C126.497 30.0173 126.118 31.076 125.454 31.7627C124.718 32.5159 123.717 32.826 122.051 32.826H111.917V29.5741H121.429C122.473 29.5741 122.764 29.3321 122.764 28.47V28.0283C122.764 27.1647 122.473 26.9227 121.429 26.9227H116.12C114.472 26.9227 113.451 26.6096 112.718 25.8594C112.052 25.1939 111.673 24.114 111.673 22.9403V22.0555C111.673 20.8818 112.049 19.8215 112.718 19.1363C113.454 18.3816 114.45 18.073 116.119 18.073H125.725V21.3234H116.741C115.697 21.3234 115.408 21.5654 115.408 22.4275V22.8692C115.408 23.7343 115.697 23.9763 116.742 23.9763L116.741 23.9748ZM128.85 21.3234V18.0715H143.962V21.3234H138.274V32.8229H134.561V21.3234H128.848H128.85Z" fill="#21324B"/>
<path d="M64.7238 17.9566H58.7884C57.1442 17.9566 56.1431 18.2651 55.3861 19.0199C54.6323 19.7701 54.3426 20.723 54.3426 22.4018V32.8199H58.0543V22.3126C58.0543 21.4505 58.344 21.2085 59.3891 21.2085H64.1232C65.191 21.2085 65.4565 21.4293 65.4565 22.3126V32.8214H69.1697V22.4033C69.1697 20.7214 68.88 19.7716 68.1246 19.0214C67.3707 18.2651 66.3711 17.9551 64.7238 17.9551V17.9566Z" fill="#0052CD"/>
<path d="M41.7482 11.1775L24.8309 1.45514C24.0813 1.02747 23.2326 0.80249 22.369 0.80249C21.5054 0.80249 20.6568 1.02747 19.9072 1.45514C19.161 1.88527 18.5411 2.50325 18.1096 3.24726C17.6781 3.99127 17.4501 4.83522 17.4484 5.69468V6.96367L16.3457 6.32842C15.5961 5.90075 14.7474 5.67577 13.8838 5.67577C13.0202 5.67577 12.1716 5.90075 11.422 6.32842C10.6747 6.75931 10.0542 7.3785 9.6227 8.12393C9.19114 8.86935 8.9637 9.7148 8.96318 10.5755V11.843L7.86044 11.2093C7.11103 10.7819 6.26268 10.557 5.39936 10.557C4.53604 10.557 3.68769 10.7819 2.93828 11.2093C2.19166 11.6394 1.57143 12.2576 1.13965 13.0019C0.707877 13.7462 0.479705 14.5905 0.477966 15.4503L0.477966 45.906C0.479095 46.3387 0.602201 46.7624 0.833234 47.1287C1.06427 47.4951 1.39392 47.7892 1.78458 47.9777C2.17523 48.1661 2.61115 48.2413 3.04259 48.1946C3.47402 48.1479 3.8836 47.9811 4.22457 47.7134L12.6127 41.128L25.5514 48.5604C25.9043 48.7598 26.3031 48.8646 26.7087 48.8646C27.1144 48.8646 27.5131 48.7598 27.8661 48.5604C28.579 48.149 29.0234 47.3867 29.0234 46.5655V28.2415C29.0207 26.7588 28.6274 25.3028 27.8828 24.0194C27.1382 22.7359 26.0685 21.6701 24.7808 20.9286L20.5382 18.4904V5.69922C20.539 5.37834 20.6243 5.06329 20.7857 4.78569C20.9471 4.50808 21.1789 4.27767 21.4578 4.11756C21.7367 3.95745 22.0529 3.87327 22.3747 3.87346C22.6965 3.87366 23.0126 3.95821 23.2913 4.11866L40.2086 13.8365C41.0277 14.3084 41.7082 14.9865 42.1821 15.8029C42.6559 16.6194 42.9064 17.5456 42.9086 18.4889V41.311C42.9086 41.9614 42.5567 42.5664 41.9909 42.8916L37.5086 45.4674V23.3622C37.5057 21.8797 37.1122 20.424 36.3676 19.1409C35.6231 17.8577 34.5535 16.7921 33.266 16.0508L22.8514 10.0688V13.6126L31.7234 18.7097C32.5428 19.1813 33.2236 19.8593 33.6974 20.6759C34.1713 21.4924 34.4217 22.4188 34.4234 23.3622V46.7938C34.4234 47.6106 34.8663 48.3774 35.5807 48.7888C35.9337 48.9881 36.3325 49.0928 36.7381 49.0928C37.1437 49.0928 37.5424 48.9881 37.8954 48.7888L43.5366 45.5475C45.0534 44.6748 45.9969 43.0519 45.9969 41.305V18.4829C45.9901 17.0013 45.5943 15.5473 44.8489 14.2656C44.1035 12.9839 43.0345 11.9192 41.7482 11.1775ZM23.2306 23.586C24.0503 24.0577 24.7312 24.736 25.205 25.5528C25.6789 26.3697 25.9291 27.2964 25.9306 28.24V45.2405L15.2186 39.0861L18.6573 36.3909C19.243 35.9349 19.7164 35.3514 20.0414 34.685C20.3663 34.0187 20.5342 33.2871 20.5321 32.5461V22.0403L23.2321 23.5876L23.2306 23.586ZM17.4469 20.2631V32.54C17.4469 33.1042 17.1905 33.629 16.7476 33.9739L3.56171 44.3194V15.4458C3.56217 15.1249 3.64728 14.8099 3.80849 14.5322C3.96971 14.2545 4.20135 14.024 4.48016 13.8639C4.75896 13.7037 5.07512 13.6196 5.39688 13.6198C5.71864 13.62 6.03468 13.7047 6.31326 13.8652L8.96318 15.3853V37.1501L12.0469 34.7301V10.5725C12.0472 10.2514 12.1323 9.93611 12.2936 9.65823C12.4549 9.38036 12.6867 9.14973 12.9658 8.98953C13.2448 8.82933 13.5612 8.74521 13.8832 8.74563C14.2052 8.74605 14.5214 8.831 14.8 8.99193L17.4469 10.5105V16.7148L14.3647 14.9421V18.4889L17.4499 20.2631H17.4469Z" fill="#0052CD"/>
</svg>
