<svg width="131" height="45" viewBox="0 0 131 45" fill="none" xmlns="http://www.w3.org/2000/svg">
<path fill-rule="evenodd" clip-rule="evenodd" d="M69.8534 21.9245H76.4613V16.6982H79.9569V30.1072H76.4613V24.8794H69.8534V30.1072H66.4791V16.6982H69.852V21.9245H69.8534ZM93.2899 16.6982H87.8941C86.3993 16.6982 85.4892 16.9787 84.8011 17.6648C84.1158 18.3468 83.8524 19.213 83.8524 20.742V26.0688C83.8524 27.5978 84.1144 28.4613 84.8011 29.146C85.4865 29.8308 86.3966 30.1127 87.8941 30.1127H93.2899C94.7847 30.1127 95.6948 29.8308 96.3829 29.146C97.0724 28.464 97.3316 27.5978 97.3316 26.0688V20.742C97.3316 19.213 97.0696 18.3495 96.3829 17.6634C95.6935 16.9787 94.7847 16.6982 93.2899 16.6982ZM93.956 26.1472C93.956 26.9309 93.694 27.1509 92.7439 27.1509H88.4402C87.4915 27.1509 87.2267 26.9309 87.2267 26.1472V20.6582C87.2267 19.873 87.4915 19.653 88.4402 19.653H92.7439C93.716 19.653 93.9574 19.8524 93.9574 20.6568V26.1472H93.956ZM105.694 22.0634H110.521C112.016 22.0634 112.945 22.3453 113.614 23.03C114.22 23.635 114.563 24.6182 114.563 25.6838V26.4895C114.563 27.5565 114.218 28.519 113.614 29.1433C112.945 29.828 112.035 30.1099 110.521 30.1099H101.309V27.1537H109.956C110.905 27.1537 111.169 26.9337 111.169 26.1499V25.7484C111.169 24.9633 110.905 24.7433 109.956 24.7433H105.13C103.631 24.7433 102.703 24.4587 102.037 23.7767C101.431 23.1717 101.087 22.1899 101.087 21.1229V20.3185C101.087 19.2515 101.428 18.2877 102.037 17.6648C102.705 16.9787 103.611 16.6982 105.128 16.6982H113.861V19.653H105.694C104.745 19.653 104.481 19.873 104.481 20.6568V21.0583C104.481 21.8448 104.745 22.0648 105.695 22.0648L105.694 22.0634ZM116.702 19.653V16.6968H130.44V19.653H125.269V30.1072H121.893V19.653H116.7H116.702Z" fill="#9696B4"/>
<path d="M58.4053 16.5922H53.0095C51.5147 16.5922 50.6046 16.8727 49.9165 17.5588C49.2312 18.2408 48.9678 19.1071 48.9678 20.6333V30.1043H52.3421V20.5522C52.3421 19.7684 52.6055 19.5484 53.5556 19.5484H57.8593C58.83 19.5484 59.0714 19.7492 59.0714 20.5522V30.1057H62.447V20.6347C62.447 19.1057 62.1836 18.2422 61.4969 17.5602C60.8116 16.8727 59.9029 16.5908 58.4053 16.5908V16.5922Z" fill="#9696B4"/>
<path d="M37.5184 10.4294L22.139 1.59088C21.4576 1.20209 20.6861 0.997559 19.901 0.997559C19.1159 0.997559 18.3444 1.20209 17.6629 1.59088C16.9846 1.98191 16.421 2.54371 16.0288 3.22008C15.6365 3.89645 15.4292 4.66368 15.4277 5.44501V6.59863L14.4252 6.02113C13.7437 5.63234 12.9722 5.42781 12.1871 5.42781C11.402 5.42781 10.6305 5.63234 9.94911 6.02113C9.2698 6.41285 8.70571 6.97575 8.31339 7.65341C7.92107 8.33107 7.71431 9.09966 7.71383 9.88213V11.0344L6.71134 10.4583C6.03006 10.0697 5.25883 9.86533 4.47399 9.86533C3.68916 9.86533 2.91793 10.0697 2.23665 10.4583C1.5579 10.8493 0.994053 11.4113 0.601532 12.0879C0.20901 12.7645 0.00158055 13.5321 0 14.3138L0 42.0008C0.0010265 42.3941 0.112941 42.7793 0.322971 43.1123C0.533001 43.4453 0.832687 43.7128 1.18783 43.8841C1.54297 44.0554 1.93926 44.1238 2.33147 44.0813C2.72369 44.0388 3.09603 43.8872 3.406 43.6439L11.0316 37.6571L22.794 44.4139C23.1149 44.5951 23.4774 44.6904 23.8461 44.6904C24.2149 44.6904 24.5774 44.5951 24.8983 44.4139C25.5464 44.0399 25.9504 43.3469 25.9504 42.6003V25.9421C25.948 24.5942 25.5904 23.2706 24.9135 22.1038C24.2366 20.937 23.2641 19.9681 22.0935 19.294L18.2366 17.0775V5.44913C18.2373 5.15742 18.3149 4.87102 18.4616 4.61865C18.6083 4.36628 18.819 4.15681 19.0726 4.01126C19.3261 3.8657 19.6136 3.78918 19.9061 3.78935C20.1987 3.78953 20.486 3.8664 20.7394 4.01226L36.1188 12.8466C36.8634 13.2756 37.4821 13.8921 37.9128 14.6343C38.3436 15.3766 38.5713 16.2186 38.5733 17.0761V37.8235C38.5733 38.4148 38.2534 38.9648 37.739 39.2604L33.6642 41.602V21.5064C33.6616 20.1587 33.3039 18.8353 32.627 17.6688C31.9501 16.5023 30.9777 15.5336 29.8073 14.8596L20.3395 9.4215V12.6431L28.4049 17.2769C29.1499 17.7056 29.7687 18.322 30.1995 19.0643C30.6303 19.8066 30.8579 20.6487 30.8595 21.5064V42.8079C30.8595 43.5504 31.2621 44.2475 31.9116 44.6215C32.2325 44.8026 32.595 44.8978 32.9637 44.8978C33.3325 44.8978 33.695 44.8026 34.0159 44.6215L39.1442 41.6749C40.5231 40.8815 41.3808 39.4061 41.3808 37.818V17.0706C41.3747 15.7237 41.0149 14.4019 40.3372 13.2367C39.6596 12.0716 38.6877 11.1037 37.5184 10.4294ZM20.6842 21.7099C21.4294 22.1387 22.0483 22.7553 22.4792 23.4979C22.91 24.2404 23.1374 25.0829 23.1387 25.9408V41.3958L13.4006 35.8009L16.5267 33.3506C17.0591 32.9361 17.4895 32.4056 17.7849 31.7999C18.0803 31.1941 18.2329 30.529 18.2311 29.8554V20.3046L20.6856 21.7113L20.6842 21.7099ZM15.4263 18.689V29.8499C15.4263 30.3628 15.1932 30.8399 14.7906 31.1534L2.8034 40.5584V14.3096C2.80382 14.018 2.88119 13.7315 3.02775 13.4791C3.17431 13.2267 3.38489 13.0172 3.63835 12.8716C3.89182 12.726 4.17923 12.6494 4.47174 12.6496C4.76425 12.6499 5.05156 12.7268 5.30481 12.8728L7.71383 14.2546V34.0409L10.5172 31.8409V9.87938C10.5175 9.58751 10.5949 9.30085 10.7415 9.04823C10.8881 8.79562 11.0989 8.58595 11.3525 8.44032C11.6062 8.29468 11.8939 8.21821 12.1866 8.2186C12.4793 8.21898 12.7667 8.29621 13.02 8.4425L15.4263 9.823V15.4633L12.6243 13.8518V17.0761L15.429 18.689H15.4263Z" fill="#9696B4"/>
</svg>
