<svg width="112" height="71" viewBox="0 0 112 71" fill="none" xmlns="http://www.w3.org/2000/svg">
<path d="M55.3588 70.1496C54.9897 70.1496 54.623 70.0524 54.2994 69.8631L50.9265 67.845C50.4233 67.5611 50.6685 67.4588 50.8354 67.4C51.508 67.1646 51.642 67.1109 52.3601 66.6991C52.4359 66.6556 52.5345 66.6735 52.6104 66.7196L55.2021 68.2747C55.2956 68.3285 55.4296 68.3285 55.5156 68.2747L65.6167 62.3764C65.7103 62.3227 65.7709 62.2127 65.7709 62.1002V50.3086C65.7709 50.1935 65.7103 50.0861 65.6142 50.0273L55.5181 44.1341C55.4246 44.0778 55.3007 44.0778 55.2071 44.1341L45.1136 50.0298C45.015 50.0861 44.9543 50.1987 44.9543 50.3086V62.1002C44.9543 62.2127 45.0175 62.3201 45.1136 62.3739L47.8797 63.9904C49.3816 64.7501 50.2994 63.8548 50.2994 62.957V51.3139C50.2994 51.1502 50.4309 51.0197 50.5927 51.0197H51.8746C52.0339 51.0197 52.1679 51.1502 52.1679 51.3139V62.957C52.1679 64.9828 51.0756 66.1466 49.1768 66.1466C48.5927 66.1466 48.1325 66.1466 46.8506 65.5072L44.2008 63.9648C43.5459 63.5811 43.1414 62.8675 43.1414 62.1002V50.3086C43.1414 49.5413 43.5459 48.8277 44.2008 48.4466L54.3019 42.5431C54.9416 42.1774 55.7912 42.1774 56.4258 42.5431L66.527 48.4466C67.1818 48.8302 67.5889 49.5439 67.5889 50.3086V62.1002C67.5889 62.8675 67.1818 63.5786 66.527 63.9648L56.4258 69.8631C56.1022 70.0524 55.7356 70.1496 55.3613 70.1496H55.3588Z" fill="#679E63"/>
<path d="M58.4789 62.0238C54.0592 62.0238 53.1338 59.9724 53.1338 58.2484C53.1338 58.0847 53.2627 57.9543 53.4246 57.9543H54.7292C54.8759 57.9543 54.9973 58.0591 55.02 58.2049C55.2172 59.5504 55.8038 60.2282 58.4789 60.2282C60.6079 60.2282 61.5131 59.7422 61.5131 58.5989C61.5131 57.9415 61.2551 57.4529 57.9479 57.123C55.1844 56.8467 53.4751 56.2278 53.4751 53.9922C53.4751 51.9306 55.1919 50.7003 58.0744 50.7003C61.3108 50.7003 62.9113 51.836 63.1136 54.2736C63.1211 54.358 63.0908 54.4373 63.0352 54.5012C62.9795 54.5601 62.9037 54.5959 62.8203 54.5959H61.5105C61.374 54.5959 61.2552 54.4987 61.2273 54.3657C60.9138 52.9512 60.1477 52.4985 58.0718 52.4985C55.7482 52.4985 55.4777 53.317 55.4777 53.9308C55.4777 54.6752 55.7962 54.89 58.934 55.3095C62.039 55.7239 63.513 56.3122 63.513 58.5196C63.513 60.727 61.6774 62.0212 58.4764 62.0212L58.4789 62.0238Z" fill="#679E63"/>
<path d="M73.0428 49.6564C73.0428 50.7409 72.1679 51.6259 71.0959 51.6259C70.0238 51.6259 69.149 50.7512 69.149 49.6564C69.149 48.5617 70.0567 47.6869 71.0959 47.6869C72.1351 47.6869 73.0428 48.5412 73.0428 49.6564ZM69.465 49.6513C69.465 50.5695 70.1957 51.3088 71.0933 51.3088C71.9909 51.3088 72.7318 50.5542 72.7318 49.6513C72.7318 48.7484 71.9909 48.0041 71.0933 48.0041C70.1957 48.0041 69.465 48.7228 69.465 49.6513ZM70.3652 48.5514H71.1186C71.3765 48.5514 71.8822 48.5514 71.8822 49.1346C71.8822 49.5413 71.6243 49.6232 71.4701 49.6769C71.7684 49.6973 71.7887 49.8968 71.8316 50.1782C71.8519 50.3547 71.8847 50.6565 71.9454 50.7614H71.4827C71.4726 50.6565 71.3993 50.0938 71.3993 50.0631C71.3689 49.9378 71.326 49.8764 71.1717 49.8764H70.7899V50.7614H70.3677V48.5514H70.3652ZM70.7773 49.5208H71.1161C71.3942 49.5208 71.4448 49.3239 71.4448 49.2088C71.4448 48.907 71.2375 48.907 71.1262 48.907H70.7773V49.5208Z" fill="#679E63"/>
<path fill-rule="evenodd" clip-rule="evenodd" d="M24.0794 24.0119C24.0794 23.5412 23.8342 23.109 23.4322 22.8736L12.7242 16.6377C12.5421 16.5303 12.3399 16.474 12.1351 16.4663H12.0238C11.819 16.474 11.6167 16.5303 11.4322 16.6377L0.721668 22.8736C0.322174 23.1064 0.0743866 23.5387 0.0743866 24.0119L0.0971426 40.8014C0.0971426 41.0341 0.215979 41.2515 0.420783 41.3666C0.620531 41.4868 0.86579 41.4868 1.06301 41.3666L7.4271 37.6808C7.82913 37.4378 8.07439 37.0132 8.07439 36.5451V28.7029C8.07439 28.2348 8.31964 27.8025 8.71914 27.5698L11.4296 25.9916C11.6319 25.8739 11.8519 25.8151 12.0769 25.8151C12.3019 25.8151 12.5244 25.8739 12.7191 25.9916L15.4271 27.5698C15.8291 27.8025 16.0744 28.2348 16.0744 28.7029V36.5451C16.0744 37.0107 16.3222 37.4404 16.7217 37.6808L23.0832 41.3666C23.283 41.4868 23.5308 41.4868 23.7305 41.3666C23.9277 41.2515 24.0516 41.0341 24.0516 40.8014L24.0719 24.0119H24.0794Z" fill="#333333"/>
<path fill-rule="evenodd" clip-rule="evenodd" d="M75.6066 0.93263C75.4068 0.820086 75.1616 0.822644 74.9644 0.940303C74.7671 1.05796 74.6458 1.27282 74.6458 1.50558V18.1314C74.6458 18.2951 74.5598 18.446 74.4208 18.5278C74.2817 18.6097 74.1072 18.6097 73.9682 18.5278L71.2855 16.965C70.886 16.7322 70.3929 16.7322 69.9934 16.965L59.2804 23.2189C58.8809 23.4516 58.6331 23.8839 58.6331 24.352V36.8648C58.6331 37.3329 58.8809 37.7652 59.2804 37.9979L69.9934 44.2569C70.3929 44.4896 70.886 44.4896 71.288 44.2569L82.0036 37.9979C82.4031 37.7626 82.6508 37.3329 82.6508 36.8648V5.67482C82.6508 5.20162 82.398 4.76424 81.9884 4.53147L75.6066 0.93263ZM74.6129 32.7518C74.6129 32.8695 74.5522 32.9769 74.4511 33.0358L70.7722 35.1818C70.6736 35.2406 70.5497 35.2406 70.4486 35.1818L66.7697 33.0358C66.6685 32.9769 66.6079 32.8695 66.6079 32.7518V28.4547C66.6079 28.3371 66.6685 28.2296 66.7697 28.1708L70.4486 26.0222C70.5497 25.9634 70.6711 25.9634 70.7722 26.0222L74.4511 28.1708C74.5497 28.2296 74.6129 28.3371 74.6129 28.4547V32.7518Z" fill="#333333"/>
<path fill-rule="evenodd" clip-rule="evenodd" d="M111.283 28.345C111.682 28.1097 111.928 27.68 111.928 27.2145V24.1835C111.928 23.7179 111.682 23.2857 111.283 23.0503L100.638 16.799C100.239 16.5637 99.7431 16.5637 99.3411 16.799L88.6306 23.0529C88.2311 23.2857 87.9833 23.7179 87.9833 24.186V36.6937C87.9833 37.1644 88.2337 37.5992 88.6357 37.832L99.2779 43.9682C99.6698 44.1958 100.15 44.1984 100.547 43.9758L106.985 40.3565C107.189 40.2414 107.316 40.024 107.318 39.7887C107.318 39.5534 107.197 39.3334 106.995 39.2157L96.216 32.9593C96.0137 32.8417 95.8898 32.6268 95.8898 32.3915V28.4704C95.8898 28.2376 96.0137 28.0202 96.2134 27.9025L99.5687 25.9458C99.7684 25.8281 100.014 25.8281 100.213 25.9458L103.569 27.9025C103.768 28.0202 103.892 28.235 103.892 28.4704V31.5551C103.892 31.7904 104.016 32.0053 104.216 32.1229C104.416 32.2406 104.663 32.238 104.863 32.1229L111.278 28.3501L111.283 28.345Z" fill="#333333"/>
<path fill-rule="evenodd" clip-rule="evenodd" d="M99.8316 27.7594C99.9075 27.7133 100.004 27.7133 100.079 27.7594L102.135 28.959C102.211 29.005 102.259 29.0869 102.259 29.1764V31.5782C102.259 31.6677 102.211 31.7496 102.135 31.7956L100.079 32.9952C100.004 33.0413 99.9075 33.0413 99.8316 32.9952L97.7785 31.7956C97.7027 31.7496 97.6546 31.6677 97.6546 31.5782V29.1764C97.6546 29.0869 97.7027 29.005 97.7785 28.959L99.8316 27.7594Z" fill="#679E63"/>
<path fill-rule="evenodd" clip-rule="evenodd" d="M41.9985 16.8601C41.6016 16.6274 41.111 16.6274 40.7115 16.8601L30.0592 23.0782C29.6597 23.3109 29.4145 23.7406 29.4145 24.2062V36.655C29.4145 37.1206 29.6597 37.5503 30.0567 37.783L40.709 44.0062C41.1085 44.239 41.599 44.239 41.996 44.0062L52.6458 37.783C53.0428 37.5503 53.288 37.1206 53.288 36.655V24.2062C53.288 23.7406 53.0428 23.3109 52.6433 23.0782L41.9935 16.8601H41.9985Z" fill="url(#paint0_linear_129_714)"/>
<path d="M52.6711 23.0782L41.9884 16.8602C41.8822 16.7988 41.771 16.7553 41.6547 16.7246L29.6597 37.4813C29.7634 37.5989 29.8847 37.7012 30.0188 37.7805L40.7191 44.0037C41.0225 44.1802 41.3816 44.2211 41.7128 44.129L52.9568 23.2982C52.8708 23.2112 52.7748 23.137 52.6711 23.0757V23.0782Z" fill="url(#paint1_linear_129_714)"/>
<path d="M40.3576 14.5732L40.2109 14.6576H40.4056L40.3576 14.5732Z" fill="url(#paint2_linear_129_714)"/>
<path d="M52.6787 37.7826C52.9897 37.601 53.2198 37.2992 53.3083 36.9539L41.5965 16.7139C41.2906 16.6525 40.9669 16.6985 40.6913 16.8597L30.0794 23.0419L41.5434 44.1669C41.7078 44.1439 41.867 44.0902 42.0137 44.0058L52.6787 37.7826Z" fill="url(#paint3_linear_129_714)"/>
<path d="M53.6698 37.5805L53.599 37.4603V37.6215L53.6698 37.5805Z" fill="url(#paint4_linear_129_714)"/>
<path d="M52.6787 37.7829L42.0137 44.0061C41.867 44.0905 41.7077 44.1442 41.5434 44.1673L41.7558 44.5586L53.6015 37.6218V37.4581L53.3082 36.9517C53.2198 37.297 52.9897 37.5988 52.6787 37.7804V37.7829Z" fill="url(#paint5_linear_129_714)"/>
<path d="M52.6787 37.7829L42.0137 44.0061C41.867 44.0905 41.7077 44.1442 41.5434 44.1673L41.7558 44.5586L53.6015 37.6218V37.4581L53.3082 36.9517C53.2198 37.297 52.9897 37.5988 52.6787 37.7804V37.7829Z" fill="url(#paint6_linear_129_714)"/>
<defs>
<linearGradient id="paint0_linear_129_714" x1="45.6875" y1="21.4923" x2="35.8812" y2="41.2642" gradientUnits="userSpaceOnUse">
<stop stop-color="#3F873F"/>
<stop offset="0.33" stop-color="#3E8A3D"/>
<stop offset="0.64" stop-color="#3E9537"/>
<stop offset="0.93" stop-color="#3DA82D"/>
<stop offset="1" stop-color="#3DAE2B"/>
</linearGradient>
<linearGradient id="paint1_linear_129_714" x1="39.733" y1="31.8873" x2="66.9589" y2="12.0016" gradientUnits="userSpaceOnUse">
<stop offset="0.14" stop-color="#3F873F"/>
<stop offset="0.4" stop-color="#519F44"/>
<stop offset="0.71" stop-color="#63B649"/>
<stop offset="0.91" stop-color="#6ABF4B"/>
</linearGradient>
<linearGradient id="paint2_linear_129_714" x1="29.0404" y1="14.6167" x2="53.6696" y2="14.6167" gradientUnits="userSpaceOnUse">
<stop offset="0.09" stop-color="#6ABF4B"/>
<stop offset="0.29" stop-color="#63B649"/>
<stop offset="0.6" stop-color="#519F44"/>
<stop offset="0.86" stop-color="#3F873F"/>
</linearGradient>
<linearGradient id="paint3_linear_129_714" x1="29.0402" y1="30.4263" x2="53.6698" y2="30.4263" gradientUnits="userSpaceOnUse">
<stop offset="0.09" stop-color="#6ABF4B"/>
<stop offset="0.29" stop-color="#63B649"/>
<stop offset="0.6" stop-color="#519F44"/>
<stop offset="0.86" stop-color="#3F873F"/>
</linearGradient>
<linearGradient id="paint4_linear_129_714" x1="29.0404" y1="37.5422" x2="53.6698" y2="37.5422" gradientUnits="userSpaceOnUse">
<stop offset="0.09" stop-color="#6ABF4B"/>
<stop offset="0.29" stop-color="#63B649"/>
<stop offset="0.6" stop-color="#519F44"/>
<stop offset="0.86" stop-color="#3F873F"/>
</linearGradient>
<linearGradient id="paint5_linear_129_714" x1="29.0402" y1="40.7551" x2="53.6698" y2="40.7551" gradientUnits="userSpaceOnUse">
<stop offset="0.09" stop-color="#6ABF4B"/>
<stop offset="0.29" stop-color="#63B649"/>
<stop offset="0.6" stop-color="#519F44"/>
<stop offset="0.86" stop-color="#3F873F"/>
</linearGradient>
<linearGradient id="paint6_linear_129_714" x1="57.2602" y1="20.9039" x2="41.7844" y2="52.1112" gradientUnits="userSpaceOnUse">
<stop stop-color="#3F873F"/>
<stop offset="0.33" stop-color="#3E8A3D"/>
<stop offset="0.64" stop-color="#3E9537"/>
<stop offset="0.93" stop-color="#3DA82D"/>
<stop offset="1" stop-color="#3DAE2B"/>
</linearGradient>
</defs>
</svg>
