<svg width="102" height="63" viewBox="0 0 102 63" fill="none" xmlns="http://www.w3.org/2000/svg">
<path d="M50.4172 62.9995C50.0816 62.9995 49.7483 62.9112 49.4541 62.7391L46.3878 60.9044C45.9304 60.6463 46.1533 60.5533 46.305 60.4998C46.9165 60.2859 47.0383 60.2371 47.6911 59.8627C47.76 59.8232 47.8497 59.8395 47.9186 59.8813L50.2747 61.2951C50.3597 61.3439 50.4816 61.3439 50.5597 61.2951L59.7426 55.933C59.8276 55.8841 59.8828 55.7842 59.8828 55.6818V44.9623C59.8828 44.8576 59.8276 44.76 59.7403 44.7065L50.562 39.349C50.477 39.2979 50.3643 39.2979 50.2793 39.349L41.1033 44.7088C41.0137 44.76 40.9585 44.8623 40.9585 44.9623V55.6818C40.9585 55.7842 41.016 55.8818 41.1033 55.9306L43.618 57.4002C44.9834 58.0908 45.8177 57.277 45.8177 56.4608V45.8761C45.8177 45.7273 45.9373 45.6087 46.0844 45.6087H47.2498C47.3946 45.6087 47.5164 45.7273 47.5164 45.8761V56.4608C47.5164 58.3024 46.5234 59.3604 44.7972 59.3604C44.2662 59.3604 43.8478 59.3604 42.6825 58.7791L40.2735 57.377C39.6782 57.0282 39.3104 56.3794 39.3104 55.6818V44.9623C39.3104 44.2647 39.6782 43.6159 40.2735 43.2695L49.4564 37.9027C50.0379 37.5702 50.8103 37.5702 51.3872 37.9027L60.5701 43.2695C61.1654 43.6183 61.5355 44.267 61.5355 44.9623V55.6818C61.5355 56.3794 61.1654 57.0259 60.5701 57.377L51.3872 62.7391C51.093 62.9112 50.7597 62.9995 50.4195 62.9995H50.4172Z" fill="#9696B4"/>
<path d="M53.2537 55.6124C49.2357 55.6124 48.3945 53.7475 48.3945 52.1803C48.3945 52.0315 48.5117 51.9129 48.6588 51.9129H49.8449C49.9782 51.9129 50.0885 52.0082 50.1092 52.1407C50.2885 53.3638 50.8218 53.98 53.2537 53.98C55.1891 53.98 56.012 53.5382 56.012 52.4988C56.012 51.9012 55.7775 51.4571 52.771 51.1572C50.2586 50.906 48.7048 50.3433 48.7048 48.311C48.7048 46.4368 50.2655 45.3184 52.8859 45.3184C55.8281 45.3184 57.2831 46.3508 57.467 48.5668C57.4739 48.6435 57.4463 48.7156 57.3957 48.7737C57.3451 48.8272 57.2762 48.8598 57.2003 48.8598H56.0097C55.8855 48.8598 55.7775 48.7714 55.7522 48.6505C55.4672 47.3646 54.7707 46.953 52.8836 46.953C50.7712 46.953 50.5252 47.6971 50.5252 48.2552C50.5252 48.9319 50.8149 49.1272 53.6674 49.5085C56.4901 49.8852 57.8301 50.42 57.8301 52.4268C57.8301 54.4335 56.1614 55.6101 53.2514 55.6101L53.2537 55.6124Z" fill="#9696B4"/>
<path d="M66.4935 44.3693C66.4935 45.3552 65.6982 46.1598 64.7236 46.1598C63.749 46.1598 62.9537 45.3645 62.9537 44.3693C62.9537 43.3741 63.7789 42.5789 64.7236 42.5789C65.6683 42.5789 66.4935 43.3555 66.4935 44.3693ZM63.241 44.3647C63.241 45.1995 63.9053 45.8715 64.7213 45.8715C65.5373 45.8715 66.2108 45.1855 66.2108 44.3647C66.2108 43.5438 65.5373 42.8672 64.7213 42.8672C63.9053 42.8672 63.241 43.5206 63.241 44.3647ZM64.0593 43.3648H64.7443C64.9788 43.3648 65.4385 43.3648 65.4385 43.895C65.4385 44.2647 65.204 44.3391 65.0638 44.3879C65.335 44.4065 65.3534 44.5879 65.3925 44.8437C65.4109 45.0041 65.4408 45.2785 65.4959 45.3739H65.0753C65.0661 45.2785 64.9994 44.7669 64.9994 44.739C64.9719 44.6251 64.9328 44.5693 64.7926 44.5693H64.4455V45.3739H64.0616V43.3648H64.0593ZM64.434 44.2461H64.742C64.9948 44.2461 65.0408 44.067 65.0408 43.9624C65.0408 43.688 64.8523 43.688 64.7512 43.688H64.434V44.2461Z" fill="#9696B4"/>
<path fill-rule="evenodd" clip-rule="evenodd" d="M21.9814 21.0561C21.9814 20.6283 21.7584 20.2353 21.393 20.0214L11.6585 14.3523C11.493 14.2547 11.3091 14.2035 11.1229 14.1965H11.0217C10.8356 14.2035 10.6517 14.2547 10.4839 14.3523L0.747068 20.0214C0.383892 20.233 0.15863 20.6259 0.15863 21.0561L0.179318 36.3193C0.179318 36.5309 0.287351 36.7285 0.473537 36.8332C0.655125 36.9425 0.878088 36.9425 1.05738 36.8332L6.84292 33.4825C7.20839 33.2616 7.43136 32.8756 7.43136 32.45V25.3207C7.43136 24.8952 7.65432 24.5022 8.0175 24.2906L10.4816 22.8559C10.6655 22.7489 10.8654 22.6955 11.07 22.6955C11.2746 22.6955 11.4769 22.7489 11.6539 22.8559L14.1156 24.2906C14.4811 24.5022 14.7041 24.8952 14.7041 25.3207V32.45C14.7041 32.8732 14.9293 33.2639 15.2925 33.4825L21.0758 36.8332C21.2574 36.9425 21.4826 36.9425 21.6642 36.8332C21.8435 36.7285 21.9561 36.5309 21.9561 36.3193L21.9745 21.0561H21.9814Z" fill="#9696B4"/>
<path fill-rule="evenodd" clip-rule="evenodd" d="M68.8243 0.0750292C68.6427 -0.0272834 68.4197 -0.0249581 68.2404 0.0820051C68.0612 0.188968 67.9508 0.384292 67.9508 0.595893V15.7103C67.9508 15.8591 67.8727 15.9963 67.7462 16.0707C67.6198 16.1451 67.4612 16.1451 67.3348 16.0707L64.896 14.6499C64.5328 14.4383 64.0846 14.4383 63.7214 14.6499L53.9823 20.3352C53.6191 20.5468 53.3939 20.9398 53.3939 21.3653V32.7406C53.3939 33.1662 53.6191 33.5591 53.9823 33.7707L63.7214 39.4607C64.0846 39.6723 64.5328 39.6723 64.8983 39.4607L74.6397 33.7707C75.0029 33.5568 75.2281 33.1662 75.2281 32.7406V4.38611C75.2281 3.95593 74.9983 3.55831 74.6259 3.34671L68.8243 0.0750292ZM67.9209 29.0016C67.9209 29.1085 67.8658 29.2062 67.7738 29.2597L64.4294 31.2106C64.3397 31.2641 64.2271 31.2641 64.1352 31.2106L60.7907 29.2597C60.6988 29.2062 60.6436 29.1085 60.6436 29.0016V25.0951C60.6436 24.9881 60.6988 24.8905 60.7907 24.837L64.1352 22.8838C64.2271 22.8303 64.3374 22.8303 64.4294 22.8838L67.7738 24.837C67.8635 24.8905 67.9209 24.9881 67.9209 25.0951V29.0016Z" fill="#9696B4"/>
<path fill-rule="evenodd" clip-rule="evenodd" d="M101.257 24.9954C101.621 24.7815 101.843 24.3908 101.843 23.9676V21.2122C101.843 20.789 101.621 20.396 101.257 20.1821L91.5803 14.4991C91.2171 14.2851 90.7666 14.2851 90.4011 14.4991L80.6643 20.1844C80.3011 20.396 80.0759 20.789 80.0759 21.2145V32.5851C80.0759 33.013 80.3034 33.4083 80.6689 33.6199L90.3437 39.1983C90.6999 39.4052 91.1367 39.4075 91.4975 39.2052L97.3497 35.9149C97.5359 35.8103 97.6509 35.6127 97.6532 35.3987C97.6532 35.1848 97.5428 34.9848 97.3589 34.8779L87.5601 29.1902C87.3762 29.0833 87.2635 28.8879 87.2635 28.674V25.1093C87.2635 24.8977 87.3762 24.7001 87.5578 24.5931L90.608 22.8143C90.7896 22.7073 91.0125 22.7073 91.1941 22.8143L94.2444 24.5931C94.4259 24.7001 94.5386 24.8954 94.5386 25.1093V27.9136C94.5386 28.1276 94.6512 28.3229 94.8328 28.4299C95.0144 28.5368 95.2396 28.5345 95.4212 28.4299L101.253 25.0001L101.257 24.9954Z" fill="#9696B4"/>
<path fill-rule="evenodd" clip-rule="evenodd" d="M90.847 24.463C90.916 24.4212 91.0033 24.4212 91.0723 24.463L92.941 25.5536C93.01 25.5954 93.0537 25.6699 93.0537 25.7512V27.9347C93.0537 28.0161 93.01 28.0905 92.941 28.1323L91.0723 29.2229C91.0033 29.2647 90.916 29.2647 90.847 29.2229L88.9806 28.1323C88.9116 28.0905 88.8679 28.0161 88.8679 27.9347V25.7512C88.8679 25.6699 88.9116 25.5954 88.9806 25.5536L90.847 24.463Z" fill="#9696B4"/>
<path fill-rule="evenodd" clip-rule="evenodd" d="M38.2715 14.5545C37.9106 14.3429 37.4647 14.3429 37.1015 14.5545L27.4176 20.2072C27.0544 20.4188 26.8314 20.8095 26.8314 21.2327V32.5498C26.8314 32.973 27.0544 33.3637 27.4153 33.5753L37.0992 39.2327C37.4624 39.4443 37.9083 39.4443 38.2692 39.2327L47.9508 33.5753C48.3117 33.3637 48.5347 32.973 48.5347 32.5498V21.2327C48.5347 20.8095 48.3117 20.4188 47.9485 20.2072L38.2669 14.5545H38.2715Z" fill="#9696B4"/>
<path d="M37.0831 14.5546L27.3785 20.2074C27.0153 20.419 26.7533 20.8096 26.7533 21.2328V32.55C26.7533 32.829 26.8705 33.0941 27.0544 33.3034L37.9589 14.4337C37.667 14.3616 37.3497 14.4011 37.0831 14.5569V14.5546Z" fill="#9696B4"/>
<path d="M38.0117 39.3467C38.106 39.3211 38.1979 39.2816 38.2853 39.2327L47.9807 33.5753C48.3416 33.3637 48.5898 32.9731 48.5898 32.5499V21.2327C48.5898 20.9211 48.4519 20.6281 48.2358 20.4119L38.014 39.349L38.0117 39.3467Z" fill="#9696B4"/>
<path d="M47.9738 20.2074L38.2623 14.5546C38.1657 14.4988 38.0646 14.4593 37.9589 14.4314L27.0544 33.3011C27.1486 33.4081 27.259 33.5011 27.3808 33.5732L37.1084 39.2306C37.3842 39.391 37.7106 39.4282 38.0117 39.3445L48.2335 20.4074C48.1554 20.3283 48.0681 20.2609 47.9738 20.2051V20.2074Z" fill="#9696B4"/>
<path d="M48.5875 32.5496V21.2324C48.5875 20.8092 48.3347 20.4185 47.9738 20.2069L38.2623 14.5542C38.1497 14.4891 38.0301 14.4472 37.906 14.4216L48.5531 32.8216C48.576 32.7333 48.5898 32.6426 48.5898 32.5496H48.5875Z" fill="#9696B4"/>
<path d="M27.3785 20.2071C27.0153 20.4187 26.7533 20.8094 26.7533 21.2326V32.5497C26.7533 32.9729 27.0199 33.3636 27.3808 33.5752L37.1084 39.2326C37.3383 39.3651 37.6026 39.414 37.8577 39.3791L27.4359 20.1746L27.3785 20.2094V20.2071Z" fill="#9696B4"/>
<path d="M36.7797 12.4756L36.6464 12.5523H36.8234L36.7797 12.4756Z" fill="#9696B4"/>
<path d="M48.2363 20.5546L38.3777 15.1185C38.2797 15.0648 38.177 15.0268 38.0697 15L27 33.1465C27.0957 33.2494 27.2077 33.3388 27.3313 33.4081L37.2063 38.8487C37.4863 39.003 37.8177 39.0388 38.1233 38.9583L48.5 20.7469C48.4207 20.6709 48.332 20.6061 48.2363 20.5524V20.5546Z" fill="#9696B4"/>
<path d="M48.2363 20.5546L38.3777 15.1185C38.2797 15.0648 38.177 15.0268 38.0697 15L27 33.1465C27.0957 33.2494 27.2077 33.3388 27.3313 33.4081L37.2063 38.8487C37.4863 39.003 37.8177 39.0388 38.1233 38.9583L48.5 20.7469C48.4207 20.6709 48.332 20.6061 48.2363 20.5524V20.5546Z" fill="url(#paint0_linear_129_334)" fill-opacity="0.2"/>
<path d="M47.9807 33.5751C48.2634 33.41 48.4726 33.1356 48.5531 32.8217L37.906 14.4217C37.6279 14.3659 37.3337 14.4078 37.0831 14.5542L27.4359 20.1745L37.8577 39.379C38.0071 39.3581 38.152 39.3092 38.2853 39.2325L47.9807 33.5751Z" fill="#9696B4"/>
<path d="M47.9807 33.5751C48.2634 33.41 48.4726 33.1356 48.5531 32.8217L37.906 14.4217C37.6279 14.3659 37.3337 14.4078 37.0831 14.5542L27.4359 20.1745L37.8577 39.379C38.0071 39.3581 38.152 39.3092 38.2853 39.2325L47.9807 33.5751Z" fill="url(#paint1_linear_129_334)" fill-opacity="0.2"/>
<path d="M47.9807 33.5751C48.2634 33.41 48.4726 33.1356 48.5531 32.8217L37.906 14.4217C37.6279 14.3659 37.3337 14.4078 37.0831 14.5542L27.4359 20.1745L37.8577 39.379C38.0071 39.3581 38.152 39.3092 38.2853 39.2325L47.9807 33.5751Z" fill="white" fill-opacity="0.25"/>
<path d="M48.8818 33.3913L48.8174 33.282V33.4285L48.8818 33.3913Z" fill="#9696B4"/>
<path d="M47.9807 33.5753L38.2853 39.2327C38.1519 39.3095 38.0071 39.3583 37.8577 39.3792L38.0508 39.735L48.8197 33.4288V33.28L48.553 32.8196C48.4726 33.1335 48.2634 33.4079 47.9807 33.573V33.5753Z" fill="#9696B4"/>
<path d="M47.9807 33.5753L38.2853 39.2327C38.1519 39.3095 38.0071 39.3583 37.8577 39.3792L38.0508 39.735L48.8197 33.4288V33.28L48.553 32.8196C48.4726 33.1335 48.2634 33.4079 47.9807 33.573V33.5753Z" fill="#9696B4"/>
<defs>
<linearGradient id="paint0_linear_129_334" x1="28" y1="33" x2="48" y2="19.5" gradientUnits="userSpaceOnUse">
<stop/>
<stop offset="1" stop-opacity="0"/>
</linearGradient>
<linearGradient id="paint1_linear_129_334" x1="47.5" y1="33.5" x2="28" y2="21" gradientUnits="userSpaceOnUse">
<stop/>
<stop offset="1" stop-opacity="0"/>
</linearGradient>
</defs>
</svg>
