<svg width="174" height="50" viewBox="0 0 174 50" fill="none" xmlns="http://www.w3.org/2000/svg">
<path d="M65.3721 21.213C65.3721 15.9476 63.8569 13.2445 60.8265 13.0964C59.6208 13.0401 58.4435 13.2304 57.2982 13.6709C56.3841 13.9952 55.7688 14.3159 55.4451 14.6401V27.2079C57.3836 28.4132 59.1051 28.9736 60.606 28.8855C63.7822 28.6775 65.3721 26.1224 65.3721 21.213ZM69.1103 21.4315C69.1103 24.1065 68.4772 26.3268 67.2039 28.0925C65.7847 30.0908 63.8178 31.1199 61.3032 31.1763C59.4074 31.2362 57.4547 30.6476 55.4451 29.4141V40.8365L52.1942 39.6875V14.3335C52.7277 13.685 53.4142 13.1282 54.2465 12.6559C56.1814 11.5387 58.5324 10.9642 61.2996 10.936L61.3458 10.9819C63.8747 10.9501 65.8238 11.9792 67.1932 14.0656C68.4701 15.9794 69.1103 18.4323 69.1103 21.4315Z" fill="#9696B4"/>
<path d="M88.9785 28.9277C88.9785 32.5155 88.6157 35.0002 87.8901 36.3817C87.161 37.7632 85.7739 38.8664 83.7251 39.6875C82.0641 40.336 80.2679 40.6884 78.3402 40.7483L77.8031 38.7183C79.7629 38.454 81.1429 38.1897 81.9432 37.9254C83.5188 37.3967 84.6001 36.5861 85.1941 35.5006C85.6707 34.616 85.9055 32.9279 85.9055 30.4291V29.5903C83.6825 30.5912 81.3528 31.0882 78.9164 31.0882C77.3158 31.0882 75.9038 30.5912 74.6873 29.5903C73.3215 28.5013 72.6386 27.1198 72.6386 25.4457V12.0392L75.8895 10.936V24.4307C75.8895 25.8721 76.359 26.9823 77.298 27.7612C78.237 28.5401 79.4534 28.9136 80.9437 28.8854C82.434 28.8537 84.031 28.2828 85.7276 27.1656V11.4224H88.9785V28.9277Z" fill="#9696B4"/>
<path d="M101.669 31.0002C101.281 31.0319 100.926 31.046 100.599 31.046C98.7597 31.046 97.3263 30.6125 96.3019 29.742C95.2811 28.8715 94.769 27.6697 94.769 26.1367V13.4491H92.5424V11.4226H94.769V6.04092L98.0163 4.89551V11.4226H101.669V13.4491H98.0163V26.0485C98.0163 27.2574 98.3435 28.1138 98.998 28.6143C99.56 29.0266 100.453 29.2627 101.669 29.3226V31.0002Z" fill="#9696B4"/>
<path d="M121.352 30.7357H118.102V18.3018C118.102 17.0366 117.803 15.9476 117.209 15.0383C116.522 14.0092 115.569 13.4947 114.346 13.4947C112.855 13.4947 110.991 14.2735 108.754 15.8313V30.7357H105.503V1.01501L108.754 0V13.537C110.831 12.0391 113.101 11.2884 115.566 11.2884C117.287 11.2884 118.681 11.8629 119.748 13.0083C120.819 14.1537 121.352 15.5811 121.352 17.2868V30.7357Z" fill="#9696B4"/>
<path d="M138.631 20.7055C138.631 18.6825 138.244 17.012 137.472 15.6904C136.554 14.0797 135.128 13.2304 133.2 13.1423C129.636 13.3467 127.858 15.8771 127.858 20.7266C127.858 22.9505 128.228 24.8078 128.975 26.2986C129.928 28.1982 131.358 29.1357 133.264 29.104C136.842 29.0758 138.631 26.2774 138.631 20.7055ZM142.192 20.7266C142.192 23.606 141.448 26.0025 139.965 27.9163C138.333 30.0591 136.078 31.134 133.2 31.134C130.348 31.134 128.125 30.0591 126.52 27.9163C125.066 26.0025 124.34 23.606 124.34 20.7266C124.34 18.0199 125.126 15.7432 126.698 13.8894C128.359 11.9228 130.543 10.936 133.243 10.936C135.942 10.936 138.14 11.9228 139.833 13.8894C141.406 15.7432 142.192 18.0199 142.192 20.7266Z" fill="#9696B4"/>
<path d="M160.829 30.7357H157.578V17.597C157.578 16.1556 157.141 15.0313 156.266 14.2207C155.391 13.4136 154.224 13.0224 152.77 13.0542C151.226 13.0824 149.757 13.5828 148.363 14.552V30.7357H145.112V14.1537C146.983 12.8039 148.704 11.9228 150.276 11.5105C151.759 11.1263 153.068 10.936 154.196 10.936C154.968 10.936 155.693 11.01 156.376 11.1581C157.653 11.4506 158.692 11.9933 159.492 12.7898C160.385 13.6709 160.829 14.7282 160.829 15.9653V30.7357Z" fill="#9696B4"/>
<path d="M20.0859 1.13388C18.4132 1.14158 16.8159 1.28293 15.4105 1.52935C11.2702 2.25414 10.5184 3.77117 10.5184 6.56884V10.2637H20.3025V11.4953H10.5184H6.84655C4.00302 11.4953 1.51314 13.1889 0.734339 16.4105C-0.163998 20.1033 -0.203844 22.4077 0.734339 26.2635C1.42983 29.1337 3.09075 31.1787 5.93428 31.1787H9.29827V26.7494C9.29827 23.5495 12.0924 20.7269 15.4105 20.7269H25.1832C27.9035 20.7269 30.0752 18.5074 30.0752 15.8004V6.56884C30.0752 3.9415 27.8383 1.96785 25.1832 1.52935C23.5024 1.25212 21.7585 1.12618 20.0859 1.13388ZM14.7947 4.10559C15.8053 4.10559 16.6306 4.93673 16.6306 5.95868C16.6306 6.977 15.8053 7.80047 14.7947 7.80047C13.7804 7.80047 12.9588 6.977 12.9588 5.95868C12.9587 4.93673 13.7804 4.10559 14.7947 4.10559Z" fill="#9696B4"/>
<path d="M31.2954 11.4956V15.8006C31.2954 19.1383 28.4396 21.9475 25.1832 21.9475H15.4105C12.7336 21.9475 10.5184 24.2176 10.5184 26.874V36.1055C10.5184 38.7328 12.8241 40.2782 15.4105 41.032C18.5076 41.9343 21.4775 42.0974 25.1832 41.032C27.6463 40.3253 30.0752 38.9032 30.0752 36.1055V32.4106H20.3025V31.179H30.0752H34.9673C37.8108 31.179 38.8704 29.2137 39.8593 26.2638C40.8808 23.2269 40.8373 20.3065 39.8593 16.4108C39.1566 13.6059 37.8144 11.4956 34.9673 11.4956H31.2954ZM25.7989 34.8739C26.8132 34.8739 27.6349 35.6973 27.6349 36.7156C27.6349 37.7376 26.8132 38.5687 25.7989 38.5687C24.7883 38.5687 23.963 37.7376 23.963 36.7156C23.963 35.6973 24.7883 34.8739 25.7989 34.8739Z" fill="#9696B4"/>
<path d="M167.16 8.55073H167.73V5.00863H169.08V4.58643H165.81V5.00863H167.16V8.55073ZM169.585 8.55073H170.072V5.31568L171.129 8.55032H171.671L172.773 5.32665V8.55073H173.304V4.58643H172.601L171.398 7.98267L170.371 4.58643H169.585V8.55073Z" fill="#9696B4"/>
<path opacity="0.44382" d="M33.525 47.3076C33.525 47.6384 33.1859 47.966 32.527 48.2716C31.8681 48.5773 30.9023 48.855 29.6848 49.0889C28.4672 49.3228 27.0218 49.5084 25.4311 49.635C23.8403 49.7616 22.1354 49.8268 20.4135 49.8268C18.6917 49.8268 16.9867 49.7616 15.396 49.635C13.8052 49.5084 12.3598 49.3228 11.1423 49.0889C9.92479 48.855 8.95901 48.5773 8.30009 48.2716C7.64118 47.966 7.30204 47.6384 7.30204 47.3076C7.30204 46.9767 7.64118 46.6491 8.30009 46.3435C8.95901 46.0378 9.92479 45.7601 11.1423 45.5262C12.3598 45.2923 13.8052 45.1067 15.396 44.9801C16.9867 44.8535 18.6917 44.7883 20.4135 44.7883C22.1354 44.7883 23.8403 44.8535 25.4311 44.9801C27.0218 45.1067 28.4672 45.2923 29.6848 45.5262C30.9023 45.7601 31.8681 46.0378 32.527 46.3435C33.1859 46.6491 33.525 46.9767 33.525 47.3076Z" fill="url(#paint0_radial_129_393)"/>
<defs>
<radialGradient id="paint0_radial_129_393" cx="0" cy="0" r="1" gradientUnits="userSpaceOnUse" gradientTransform="translate(20.4135 47.3076) rotate(-90) scale(2.51923 11.175)">
<stop stop-color="#B8B8B8" stop-opacity="0.498039"/>
<stop offset="1" stop-color="#7F7F7F" stop-opacity="0"/>
</radialGradient>
</defs>
</svg>
