<svg width="147" height="39" viewBox="0 0 147 39" fill="none" xmlns="http://www.w3.org/2000/svg">
<g clip-path="url(#clip0_129_375)">
<g opacity="0.974563">
<path fill-rule="evenodd" clip-rule="evenodd" d="M21.9901 28.2892V17.6303C21.9901 17.2507 21.6822 16.9429 21.3025 16.9429H10.6947V5.94043H32.2556C32.6353 5.94043 32.9431 6.24818 32.9431 6.62781V28.2892H21.9901Z" fill="#9696B4"/>
<path opacity="0.404989" fill-rule="evenodd" clip-rule="evenodd" d="M10.6947 5.94043V16.9429H0.568827C0.378961 16.9429 0.225044 16.789 0.225044 16.5992C0.225044 16.5084 0.261039 16.4212 0.325157 16.3568L10.6947 5.94043Z" fill="#9696B4"/>
<path opacity="0.404989" fill-rule="evenodd" clip-rule="evenodd" d="M21.9901 38.459V28.2891H32.9431L22.5775 38.7015C22.4436 38.836 22.2259 38.8365 22.0913 38.7026C22.0265 38.6381 21.9901 38.5505 21.9901 38.459Z" fill="#9696B4"/>
<path opacity="0.404989" fill-rule="evenodd" clip-rule="evenodd" d="M10.6947 16.9429H21.6463C21.8362 16.9429 21.9901 17.0967 21.9901 17.2866V28.2892H11.3823C11.0026 28.2892 10.6947 27.9814 10.6947 27.6018V16.9429Z" fill="#9696B4"/>
</g>
<path d="M75.1381 13.5342H70.806V21.7416C70.806 22.4255 70.9766 22.9253 71.3177 23.241C71.6589 23.5567 72.1575 23.7342 72.8137 23.7737C73.4139 23.8098 74.1459 23.8073 75.0097 23.7664C75.041 23.7649 75.0818 23.7629 75.1321 23.7603C75.1963 23.757 75.2509 23.8063 75.2542 23.8704C75.2543 23.8724 75.2544 23.8744 75.2544 23.8764V28.2665C75.2543 28.3258 75.2097 28.3756 75.1508 28.3821C75.1186 28.3856 75.0919 28.3885 75.0708 28.3908C71.6775 28.7533 69.2783 28.4178 67.8732 27.3841C66.4429 26.3319 65.7277 24.4511 65.7277 21.7416V13.5342H62.4191C62.3549 13.5342 62.3029 13.4822 62.3029 13.418V8.75761C62.3029 8.69342 62.3549 8.64139 62.4191 8.64139H65.7277V5.38163C65.7277 5.28955 65.7821 5.20614 65.8664 5.16897L70.6428 3.06183C70.7015 3.03591 70.7701 3.06251 70.7961 3.12124C70.8026 3.13602 70.806 3.152 70.806 3.16816V8.64139H75.1381C75.2023 8.64139 75.2544 8.69342 75.2544 8.75761V13.418C75.2544 13.4822 75.2023 13.5342 75.1381 13.5342ZM84.4622 12.0348C84.9346 10.7721 85.7154 9.82514 86.8045 9.1938C87.8012 8.61603 88.9023 8.30264 90.1079 8.25362C90.1615 8.25144 90.2348 8.24965 90.3278 8.24826C90.3921 8.24727 90.4449 8.29853 90.4459 8.36273C90.4459 8.36331 90.4459 8.36389 90.4459 8.36447V13.7164C90.4459 13.822 90.3602 13.9077 90.2545 13.9077C90.2487 13.9077 90.2429 13.9074 90.2372 13.9069C88.7728 13.7742 87.458 14.0971 86.2927 14.8758C85.0724 15.6913 84.4622 17.046 84.4622 18.94V28.2543C84.4622 28.3185 84.4102 28.3706 84.3459 28.3706H79.5002C79.436 28.3706 79.384 28.3185 79.384 28.2543V8.75761C79.384 8.69342 79.436 8.64139 79.5002 8.64139H84.3459C84.4102 8.64139 84.4622 8.69342 84.4622 8.75761V12.0348ZM108.474 8.64139H113.319C113.384 8.64139 113.436 8.69342 113.436 8.75761V28.2543C113.436 28.3185 113.384 28.3706 113.319 28.3706H108.474C108.41 28.3706 108.357 28.3185 108.357 28.2543V26.0425C106.835 27.9628 104.696 28.923 101.941 28.923C99.3164 28.923 97.066 27.9168 95.1895 25.9044C93.313 23.892 92.3748 21.4259 92.3748 18.506C92.3748 15.586 93.313 13.1199 95.1895 11.1075C97.066 9.09515 99.3164 8.08897 101.941 8.08897C104.696 8.08897 106.835 9.04911 108.357 10.9694V8.75761C108.357 8.69342 108.41 8.64139 108.474 8.64139ZM98.9883 22.5307C100.012 23.5567 101.311 24.0696 102.886 24.0696C104.46 24.0696 105.766 23.5501 106.803 22.511C107.839 21.4719 108.357 20.1369 108.357 18.506C108.357 16.875 107.839 15.54 106.803 14.501C105.766 13.4619 104.46 12.9423 102.886 12.9423C101.311 12.9423 100.012 13.4619 98.9883 14.501C97.9648 15.54 97.4531 16.875 97.4531 18.506C97.4531 20.1369 97.9648 21.4785 98.9883 22.5307ZM128.701 8.08897C131.352 8.08897 133.616 9.09515 135.492 11.1075C137.369 13.1199 138.307 15.586 138.307 18.506C138.307 21.4259 137.369 23.892 135.492 25.9044C133.616 27.9168 131.352 28.923 128.701 28.923C125.946 28.923 123.82 27.9628 122.324 26.0425V36.146C122.324 36.2102 122.272 36.2622 122.208 36.2622H117.362C117.298 36.2622 117.246 36.2102 117.246 36.146V8.75761C117.246 8.69342 117.298 8.64139 117.362 8.64139H122.208C122.272 8.64139 122.324 8.69342 122.324 8.75761V10.9694C123.82 9.04911 125.946 8.08897 128.701 8.08897ZM123.859 22.5307C124.883 23.5567 126.182 24.0696 127.757 24.0696C129.331 24.0696 130.637 23.5501 131.674 22.511C132.71 21.4719 133.229 20.1369 133.229 18.506C133.229 16.875 132.71 15.54 131.674 14.501C130.637 13.4619 129.331 12.9423 127.757 12.9423C126.182 12.9423 124.883 13.4619 123.859 14.501C122.836 15.54 122.324 16.875 122.324 18.506C122.324 20.1369 122.836 21.4785 123.859 22.5307ZM143.851 6.27388C143.011 6.27388 142.283 5.96479 141.666 5.34661C141.049 4.72843 140.741 3.99845 140.741 3.15667C140.741 2.31489 141.049 1.57834 141.666 0.947001C142.283 0.315664 143.011 0 143.851 0C144.717 0 145.458 0.315664 146.075 0.947001C146.692 1.57834 147 2.31489 147 3.15667C147 3.99845 146.692 4.72843 146.075 5.34661C145.458 5.96479 144.717 6.27388 143.851 6.27388ZM141.331 28.2543V8.75761C141.331 8.69342 141.383 8.64139 141.448 8.64139H146.293C146.357 8.64139 146.41 8.69342 146.41 8.75761V28.2543C146.41 28.3185 146.357 28.3706 146.293 28.3706H141.448C141.383 28.3706 141.331 28.3185 141.331 28.2543ZM50.3749 14.2445C50.3749 14.7706 50.7226 15.1981 51.4181 15.5269C52.1136 15.8557 52.9599 16.1451 53.9572 16.395C54.9545 16.6449 55.9518 16.9605 56.9491 17.342C57.9463 17.7234 58.7927 18.3613 59.4882 19.2557C60.1837 20.1501 60.5314 21.2681 60.5314 22.6096C60.5314 24.6352 59.7769 26.1938 58.2678 27.2855C56.7588 28.3772 54.8758 28.923 52.6188 28.923C48.6678 28.923 45.9458 27.4272 44.4527 24.4357C44.4398 24.4099 44.4235 24.3765 44.4037 24.3356C44.3758 24.2778 44.4001 24.2083 44.4579 24.1804C44.459 24.1799 44.4601 24.1794 44.4612 24.1789L48.7327 22.2819C48.8451 22.232 48.9769 22.2782 49.0335 22.3874C49.0341 22.3885 49.0347 22.3897 49.0353 22.3908C49.7006 23.6679 50.8951 24.3064 52.6188 24.3064C54.4296 24.3064 55.335 23.7408 55.335 22.6096C55.335 22.0835 54.9873 21.6561 54.2918 21.3273C53.5964 20.9984 52.75 20.7025 51.7527 20.4394C50.7554 20.1764 49.7582 19.8476 48.7609 19.453C47.7636 19.0584 46.9172 18.4336 46.2218 17.5787C45.5263 16.7238 45.1786 15.6518 45.1786 14.3629C45.1786 12.4162 45.8937 10.8839 47.324 9.76595C48.7543 8.64796 50.5324 8.08897 52.6581 8.08897C54.259 8.08897 55.7156 8.45067 57.0278 9.17407C58.2191 9.83083 59.1691 10.6929 59.9035 11.85C59.941 11.909 59.9913 11.992 60.0544 12.099C60.0871 12.1542 60.0687 12.2255 60.0134 12.2581C60.0095 12.2604 60.0055 12.2625 60.0014 12.2643L55.719 14.1633C55.6434 14.1969 55.5546 14.1706 55.5093 14.1014C54.8667 13.1183 53.9163 12.6267 52.6581 12.6267C52.002 12.6267 51.4575 12.7714 51.0244 13.0607C50.5914 13.3501 50.3749 13.7447 50.3749 14.2445Z" fill="#9696B4"/>
</g>
<defs>
<clipPath id="clip0_129_375">
<rect width="147" height="39" fill="white"/>
</clipPath>
</defs>
</svg>
