<svg width="286" height="113" fill="none" xmlns="http://www.w3.org/2000/svg">
  <g clip-path="url(#clip0)" filter="url(#filter0_d)">
    <g filter="url(#filter1_b)">
      <path fill-rule="evenodd" clip-rule="evenodd" d="M125.817 43.414h-5.867a.919.919 0 01-.899-.895v-1.08c-.002-4.507 2.056-6.76 6.174-6.76a9.738 9.738 0 013.967.796 1.59 1.59 0 002.139-.892l2.475-6.803a1.585 1.585 0 00-.81-1.976 16.032 16.032 0 00-3.305-1.145 25.132 25.132 0 00-5.788-.659c-5.742-.002-10.194 1.558-13.354 4.68-3.16 3.12-4.74 7.339-4.74 12.653V82.24c0 1.793.715 3.512 1.988 4.78a6.8 6.8 0 007.395 1.466 6.783 6.783 0 003.673-3.659c.341-.82.516-1.7.516-2.587V54.725a.915.915 0 01.916-.912h5.52a5.231 5.231 0 003.691-1.523 5.192 5.192 0 001.528-3.676c0-1.38-.55-2.702-1.528-3.677a5.231 5.231 0 00-3.691-1.523zm82.067 20.45c0-6.988-2.088-12.476-6.264-16.465-4.176-3.986-9.976-5.978-17.4-5.976-7.424.002-13.224 1.995-17.399 5.98-4.176 3.984-6.264 9.472-6.264 16.463V82.24c0 1.793.715 3.512 1.987 4.78a6.8 6.8 0 009.597 0 6.746 6.746 0 001.988-4.78V64.301c-.002-3.86.838-6.776 2.522-8.752 1.683-1.976 4.148-2.964 7.394-2.964 3.308.014 5.817 1.001 7.527 2.964 1.71 1.962 2.565 4.88 2.565 8.752v17.936c0 1.793.715 3.512 1.987 4.78a6.8 6.8 0 004.799 1.98h.175c1.8 0 3.526-.713 4.798-1.98a6.746 6.746 0 001.988-4.78V63.863zm50.341 4.68H227.26a.723.723 0 00-.708.59.718.718 0 00.017.329 10.87 10.87 0 004.297 5.927c2.369 1.675 5.323 2.512 8.862 2.512 2.209.038 4.406-.329 6.482-1.083a14.097 14.097 0 001.841-.863c2.092-1.165 5.1-.747 6.727 1.008l.072.079a5.405 5.405 0 01.488 6.727 5.435 5.435 0 01-1.77 1.636c-3.83 2.22-8.559 3.33-14.187 3.33-5.289 0-9.958-1.026-14.008-3.076a22.606 22.606 0 01-9.394-8.538c-2.204-3.637-3.306-7.769-3.306-12.394a23.74 23.74 0 013.263-12.348 22.824 22.824 0 018.964-8.58c3.799-2.049 8.045-3.073 12.739-3.073 4.581 0 8.729.981 12.442 2.944a21.586 21.586 0 018.743 8.452c2.117 3.669 3.176 7.93 3.176 12.783v.046a3.743 3.743 0 01-1.161 2.554 3.771 3.771 0 01-2.614 1.038zm-28.241-14.992a10.75 10.75 0 00-3.613 6 .912.912 0 00.176.765.906.906 0 00.71.341h20.86a.912.912 0 00.884-.707.898.898 0 00-.001-.403 10.922 10.922 0 00-3.606-5.953c-2.089-1.756-4.641-2.634-7.656-2.634-3.083-.007-5.667.857-7.754 2.591zm-80.557-7.255a6.8 6.8 0 00-7.395-1.465 6.783 6.783 0 00-3.673 3.658c-.341.82-.516 1.7-.516 2.587V79.1c0 1.792.715 3.512 1.987 4.78a6.8 6.8 0 009.597 0 6.746 6.746 0 001.988-4.78V51.077a6.746 6.746 0 00-1.988-4.78zm-11.644-2.04a9.719 9.719 0 016.846-2.83 9.715 9.715 0 016.845 2.83 9.643 9.643 0 012.84 6.82V79.1a9.63 9.63 0 01-2.837 6.822 9.704 9.704 0 01-6.848 2.825 9.706 9.706 0 01-6.849-2.825 9.63 9.63 0 01-2.836-6.822V51.077a9.638 9.638 0 012.839-6.82z" fill="#fff"/>
    </g>
    <path fill-rule="evenodd" clip-rule="evenodd" d="M48.14 48.712a30.06 30.06 0 015.724-6.997l.146-.431a34.106 34.106 0 00-6.346-.557c-7.425 0-13.224 1.993-17.4 5.98C26.088 50.693 24 56.18 24 63.17v19.066c0 1.792.715 3.512 1.988 4.78a6.8 6.8 0 004.798 1.98 6.8 6.8 0 004.798-1.98 6.747 6.747 0 001.988-4.78v-18.63c0-3.873.84-6.79 2.522-8.753 1.507-1.756 3.64-2.725 6.4-2.907a30.35 30.35 0 011.645-3.234zm48.546 19.832H65.72a.726.726 0 00-.71.59.72.72 0 00.016.33 10.894 10.894 0 004.297 5.926c2.371 1.675 5.326 2.512 8.865 2.512 2.21.039 4.407-.329 6.482-1.083a14.11 14.11 0 001.841-.863c2.093-1.165 5.1-.747 6.727 1.008l.07.079a5.415 5.415 0 011.376 4.488 5.408 5.408 0 01-2.656 3.876c-3.834 2.219-8.563 3.329-14.187 3.329-5.288 0-9.958-1.026-14.008-3.076a22.638 22.638 0 01-9.397-8.538c-2.204-3.637-3.306-7.769-3.306-12.394a23.749 23.749 0 013.263-12.348 22.835 22.835 0 018.95-8.577c3.8-2.053 8.048-3.078 12.746-3.076 4.582 0 8.729.981 12.442 2.944a21.603 21.603 0 018.743 8.452c2.115 3.669 3.174 7.93 3.176 12.783a3.744 3.744 0 01-1.157 2.596 3.772 3.772 0 01-2.607 1.042zM68.444 53.553a10.75 10.75 0 00-3.613 5.999.903.903 0 00.49 1.015c.122.06.257.09.393.091h20.854a.913.913 0 00.883-.706.901.901 0 000-.403 10.935 10.935 0 00-3.614-5.954c-2.089-1.756-4.642-2.634-7.658-2.634-3.07-.006-5.648.857-7.735 2.592zm81.347-2.634c0 2.84-2.311 5.143-5.163 5.143-2.851 0-5.163-2.303-5.163-5.143 0-2.841 2.312-5.144 5.163-5.144 2.852 0 5.163 2.303 5.163 5.144z" fill="#fff"/>
  </g>
  <defs>
    <filter id="filter0_d" x="0" y="0" width="286" height="113" filterUnits="userSpaceOnUse" color-interpolation-filters="sRGB">
      <feFlood flood-opacity="0" result="BackgroundImageFix"/>
      <feColorMatrix in="SourceAlpha" values="0 0 0 0 0 0 0 0 0 0 0 0 0 0 0 0 0 0 127 0" result="hardAlpha"/>
      <feOffset/>
      <feGaussianBlur stdDeviation="12"/>
      <feColorMatrix values="0 0 0 0 0 0 0 0 0 0 0 0 0 0 0 0 0 0 0.24 0"/>
      <feBlend in2="BackgroundImageFix" result="effect1_dropShadow"/>
      <feBlend in="SourceGraphic" in2="effect1_dropShadow" result="shape"/>
    </filter>
    <filter id="filter1_b" x="97.809" y="16" width="172.191" height="81" filterUnits="userSpaceOnUse" color-interpolation-filters="sRGB">
      <feFlood flood-opacity="0" result="BackgroundImageFix"/>
      <feGaussianBlur in="BackgroundImage" stdDeviation="4"/>
      <feComposite in2="SourceAlpha" operator="in" result="effect1_backgroundBlur"/>
      <feBlend in="SourceGraphic" in2="effect1_backgroundBlur" result="shape"/>
    </filter>
    <clipPath id="clip0">
      <path fill="#fff" transform="translate(24 24)" d="M0 0h238v65H0z"/>
    </clipPath>
  </defs>
</svg>