<svg width="89" height="41" viewBox="0 0 89 41" fill="none" xmlns="http://www.w3.org/2000/svg">
<path d="M51.9722 8.11474L45.0301 15.8377C46.8524 16.5839 48.2698 17.7965 49.2822 19.4754C50.2946 21.1543 50.8008 23.1317 50.8008 25.4075C50.8008 28.1684 50.121 30.6681 48.7615 32.9066C47.4309 35.1452 45.5942 36.8987 43.2512 38.1672C40.9082 39.4357 38.2905 40.07 35.3979 40.07C33.1707 40.07 31.0446 39.7342 29.0199 39.0627C27.024 38.3911 25.2451 37.3651 23.6831 35.9846L28.3256 26.8066C29.4827 27.7393 30.7409 28.4482 32.1004 28.9332C33.4599 29.4182 34.7905 29.6608 36.0921 29.6608C37.5095 29.6608 38.5942 29.3809 39.3463 28.8213C40.0983 28.2244 40.4744 27.3849 40.4744 26.3029C40.4744 24.7359 39.462 23.9525 37.4372 23.9525H33.2285L34.4868 15.8377L39.7801 9.96154H29.0199L30.5818 0H53.2305L51.9722 8.11474Z" fill="#1890FF"/>
<path d="M74.5555 19.6992L82.7125 39.1746H71.6485L67.8737 29.1011L61.2787 39.1746H49.0432L63.3613 18.9157L55.6816 0H66.6154L70.3468 9.79364L76.855 0H88.3963L74.5555 19.6992Z" fill="#1890FF"/>
<path fill-rule="evenodd" clip-rule="evenodd" d="M24.7175 7.89358C24.7175 8.2258 24.5087 8.49512 24.2512 8.49512L6.99551 8.49512C6.73794 8.49512 6.52914 8.2258 6.52914 7.89358C6.52914 7.56135 6.73794 7.29204 6.99551 7.29204L24.2512 7.29204C24.5087 7.29204 24.7175 7.56136 24.7175 7.89358Z" fill="#0CCEE9"/>
<path fill-rule="evenodd" clip-rule="evenodd" d="M18.1885 33.1597C18.1885 33.4919 17.9797 33.7612 17.7221 33.7612L0.466454 33.7612C0.208886 33.7612 8.54615e-05 33.4919 8.5484e-05 33.1597C8.55065e-05 32.8275 0.208886 32.5581 0.466455 32.5581L17.7221 32.5582C17.9797 32.5582 18.1885 32.8275 18.1885 33.1597Z" fill="#0CCEE9"/>
<path fill-rule="evenodd" clip-rule="evenodd" d="M23.3184 13.3098C23.3184 13.6421 23.1096 13.9114 22.852 13.9114L12.5919 13.9114C12.3343 13.9114 12.1255 13.6421 12.1255 13.3098C12.1255 12.9776 12.3343 12.7083 12.5919 12.7083L22.852 12.7083C23.1096 12.7083 23.3184 12.9776 23.3184 13.3098Z" fill="#0CCEE9"/>
<path fill-rule="evenodd" clip-rule="evenodd" d="M20.5203 27.7471C20.5203 28.0793 20.3115 28.3486 20.0539 28.3486L9.79378 28.3486C9.53621 28.3486 9.32741 28.0793 9.32741 27.7471C9.32741 27.4149 9.53621 27.1456 9.79378 27.1456L20.0539 27.1456C20.3115 27.1456 20.5203 27.4149 20.5203 27.7471Z" fill="#0CCEE9"/>
<path fill-rule="evenodd" clip-rule="evenodd" d="M17.7219 18.1226C17.7219 18.4548 17.5131 18.7241 17.2556 18.7241L11.6591 18.7241C11.4016 18.7241 11.1928 18.4548 11.1928 18.1226C11.1928 17.7904 11.4016 17.521 11.6591 17.521L17.2556 17.521C17.5131 17.521 17.7219 17.7904 17.7219 18.1226Z" fill="#0CCEE9"/>
<path fill-rule="evenodd" clip-rule="evenodd" d="M24.7175 1.88113C24.7175 2.21335 24.5087 2.48267 24.2512 2.48267L18.6547 2.48267C18.3972 2.48267 18.1884 2.21335 18.1884 1.88113C18.1884 1.5489 18.3972 1.27959 18.6547 1.27959L24.2512 1.27959C24.5087 1.27959 24.7175 1.54891 24.7175 1.88113Z" fill="#0CCEE9"/>
<path fill-rule="evenodd" clip-rule="evenodd" d="M21.4529 22.9351C21.4529 23.2673 21.2441 23.5366 20.9865 23.5366L15.3901 23.5366C15.1325 23.5366 14.9237 23.2673 14.9237 22.9351C14.9237 22.6029 15.1325 22.3335 15.3901 22.3335L20.9865 22.3335C21.2441 22.3335 21.4529 22.6029 21.4529 22.9351Z" fill="#0CCEE9"/>
</svg>
