<svg width="60" height="60" viewBox="0 0 60 60" fill="none" xmlns="http://www.w3.org/2000/svg">
<path fill-rule="evenodd" clip-rule="evenodd" d="M47.6624 27.2077C45.6849 29.2662 42.9665 30.4488 40.1122 30.4911L40.1122 30.4911C40.0585 30.4911 40.0054 30.4906 39.9522 30.4897C38.0909 30.4417 36.276 29.9003 34.6927 28.9209V28.9205L33.0135 30.5998L28.7997 26.3864L30.479 24.7071C29.4997 23.1242 28.9583 21.3089 28.9103 19.4476C28.9065 16.5372 30.0924 13.7519 32.1927 11.7373L40.0477 3.88211C42.0609 1.78035 44.8471 0.594473 47.7579 0.600118C50.6475 0.703199 53.3827 1.92898 55.382 4.01759C57.4705 6.0172 58.6964 8.7526 58.7994 11.6423C58.8031 14.5521 57.6177 17.3379 55.5174 19.3525L47.6624 27.2077ZM40.8107 18.5891V18.5895L40.8108 18.5893C41.3696 19.1482 41.6834 19.906 41.6834 20.6962C41.6834 21.4864 41.3696 22.2443 40.8108 22.8031V22.8036L39.1913 24.4231C39.4726 24.4895 39.7604 24.5257 40.0493 24.5318C41.3461 24.5092 42.5757 23.9527 43.4487 22.994L51.3038 15.1389C52.2625 14.2654 52.8185 13.0358 52.8415 11.7393C52.7653 10.3959 52.1646 9.13611 51.1688 8.23106C50.2637 7.23565 49.004 6.63495 47.6606 6.55827C47.6394 6.5578 47.6178 6.5578 47.5966 6.5578C46.3233 6.60103 45.1209 7.15516 44.2611 8.09596H44.2615L36.4065 15.9511C35.4478 16.8245 34.8918 18.0542 34.8687 19.3506C34.8744 19.6398 34.911 19.9271 34.9773 20.2087L36.5969 18.5891C37.1558 18.0307 37.9136 17.7165 38.7038 17.7165C39.494 17.7165 40.2519 18.0307 40.8107 18.5891ZM24.1067 31.0787L25.786 29.3995L29.9997 33.6131L28.3204 35.2923C29.2997 36.8756 29.8411 38.6903 29.8891 40.5515C29.8928 43.4617 28.7074 46.2468 26.6072 48.2613L18.7521 56.1159C16.7746 58.1743 14.0557 59.3568 11.2014 59.3992C11.1484 59.3992 11.095 59.3987 11.042 59.3978C8.15235 59.2947 5.417 58.069 3.41742 55.9805C1.32933 53.981 0.103025 51.2458 8.78667e-06 48.3568C-0.00372425 45.4467 1.18218 42.6611 3.28243 40.6466L11.1371 32.7923C13.1512 30.6911 15.9369 29.5053 18.8477 29.5101C20.7086 29.558 22.5238 30.0994 24.1067 31.0787ZM14.5385 51.9026L22.3934 44.0479C23.3517 43.1746 23.9082 41.945 23.9312 40.6486C23.9251 40.3598 23.8889 40.072 23.8226 39.7902L22.2025 41.4101C21.4494 42.1609 20.3534 42.4534 19.3261 42.1778C18.2992 41.9022 17.4968 41.0998 17.2211 40.0729C16.9455 39.0456 17.238 37.9497 17.9888 37.1966L19.6088 35.5771C19.327 35.5108 19.0392 35.4741 18.7499 35.4685L18.7503 35.468C18.7287 35.4676 18.7075 35.4676 18.6864 35.4676C17.413 35.5108 16.2103 36.0653 15.3508 37.0056L7.49582 44.8602C6.53757 45.7336 5.98157 46.9632 5.95805 48.2595C6.03476 49.6029 6.63548 50.8626 7.63129 51.7676C8.53637 52.7629 9.79609 53.3636 11.139 53.4403C12.4353 53.4176 13.6654 52.8612 14.5385 51.9026Z" fill="#1890FF"/>
<path fill-rule="evenodd" clip-rule="evenodd" d="M26.7271 12.2092C26.4569 12.6646 26.0128 12.9968 25.4918 13.1323L25.4918 13.1324C24.9709 13.2684 24.4164 13.1969 23.9494 12.9339C23.4825 12.6709 23.1423 12.2377 23.0028 11.7302L20.4692 2.49544C20.2811 1.81121 20.4823 1.08088 20.9959 0.580453C21.5096 0.0795429 22.2584 -0.115699 22.9601 0.0676955C23.6613 0.25149 24.2095 0.78606 24.397 1.47036L26.9307 10.7051C27.0702 11.2131 26.9968 11.7542 26.7271 12.2092ZM17.9997 16.1135C17.9997 16.6136 17.8014 17.0934 17.448 17.4474L17.448 17.4473C17.0946 17.8013 16.615 18.0002 16.1151 18.0002C15.6147 18.0006 15.1351 17.8022 14.7813 17.4482L8.35332 11.0218C7.99904 10.6682 7.79981 10.1884 7.79981 9.68789C7.79934 9.18741 7.99768 8.70759 8.35151 8.35316C8.70493 7.99916 9.18497 7.80029 9.68529 7.80029C10.1857 7.80029 10.6652 7.99916 11.0191 8.35361L17.4471 14.78C17.8005 15.1336 17.9992 15.6134 17.9997 16.1135ZM50.8007 52.1349C50.1499 52.3094 49.4556 52.1241 48.9789 51.6484L42.5511 45.2187C42.0747 44.7422 41.8889 44.0479 42.0635 43.3968C42.2381 42.7462 42.7469 42.2381 43.3982 42.0636C44.049 41.8896 44.7442 42.0758 45.2205 42.5523V42.5528L51.6487 48.9821C52.1241 49.4586 52.3091 50.1529 52.1341 50.8031C51.9595 51.4532 51.4511 51.9609 50.8007 52.1349ZM59.9321 38.0925C60.0681 37.5715 59.997 37.0165 59.734 36.5495C59.4709 36.0825 59.0377 35.7418 58.5295 35.6023L49.2932 33.0684C48.6088 32.8818 47.8798 33.083 47.3797 33.5967C46.8796 34.1104 46.6843 34.8584 46.8673 35.5595C47.0507 36.2603 47.5844 36.808 48.2679 36.9966L57.5042 39.531C58.0123 39.67 58.5537 39.5971 59.0086 39.3274C59.4642 39.0572 59.7964 38.613 59.932 38.0925L59.9321 38.0925ZM0.265923 23.451C0.00275957 22.9839 -0.0683683 22.4287 0.0672465 21.9076V21.9075C0.203335 21.3869 0.535733 20.9425 0.990938 20.6727C1.44657 20.4029 1.98807 20.3295 2.49591 20.4691L11.7366 23.0037C12.4184 23.1939 12.9505 23.7417 13.1325 24.4417C13.3151 25.1417 13.1202 25.8884 12.6214 26.4018C12.1221 26.9151 11.3948 27.1173 10.7115 26.9326L1.4708 24.398C0.962484 24.2585 0.529093 23.9177 0.265923 23.451ZM34.508 46.867C33.9871 47.003 33.5429 47.3347 33.2727 47.7901C33.003 48.2455 32.9297 48.7866 33.0691 49.2946L35.6029 58.5295V58.5291C35.7423 59.037 36.083 59.4702 36.5495 59.7337C37.0165 59.9967 37.5715 60.0677 38.0924 59.9322C38.6133 59.7962 39.0575 59.464 39.3272 59.0086C39.5969 58.5532 39.6703 58.0121 39.5308 57.5041L36.9971 48.2697C36.8576 47.7617 36.5174 47.3285 36.0504 47.0655C35.5839 46.8025 35.0289 46.731 34.508 46.867Z" fill="#0CCEE9"/>
</svg>
