<svg width="78" height="35" viewBox="0 0 78 35" fill="none" xmlns="http://www.w3.org/2000/svg">
<path d="M51.7124 31.8695C51.4811 31.8695 51.2453 31.8369 51.0118 31.7673C49.7043 31.3825 48.9545 30.006 49.3426 28.6986L57.2905 1.77229C57.6769 0.464843 59.0479 -0.287116 60.3586 0.103139C61.6672 0.489634 62.4159 1.86444 62.0288 3.17189L54.0809 30.0982C53.7635 31.1743 52.7803 31.8695 51.7124 31.8695Z" fill="#1890FF"/>
<path d="M32.8317 34.7401C32.3431 34.7401 31.855 34.596 31.4337 34.3089C29.5056 32.9854 19.7634 26.0192 17.1988 18.7171C15.8848 14.9708 16.2205 11.4074 18.1408 8.68041C19.9224 6.17817 22.8941 4.68966 26.0958 4.68966C28.5787 4.68966 30.9149 5.54546 32.8479 7.13225C34.7842 5.54438 37.1557 4.6604 39.5933 4.6604C42.7875 4.6604 45.7584 6.15386 47.5412 8.6551C49.4708 11.3859 49.8071 14.9566 48.4903 18.7188C45.85 26.2581 35.401 33.512 34.2187 34.3148C33.8007 34.6003 33.3165 34.7401 32.8317 34.7401ZM26.0969 9.63149C24.4908 9.63149 23.0232 10.3448 22.174 11.5385C21.2045 12.9133 21.0918 14.8861 21.8621 17.0808C23.3722 21.3852 28.9493 26.3549 32.8368 29.2388C36.5869 26.4654 42.3092 21.4239 43.8287 17.0869C44.6022 14.8767 44.489 12.8978 43.5134 11.5159C42.6615 10.32 41.1945 9.6028 39.5943 9.6028C37.928 9.6028 36.2871 10.4155 35.0922 11.8351L34.7339 12.2619C34.2623 12.8168 33.5727 13.1375 32.8462 13.1375H32.8368C32.1052 13.1353 31.4135 12.8085 30.9457 12.2469L30.5968 11.8257C29.3871 10.3957 27.8261 9.63149 26.0969 9.63149Z" fill="#0CCEE9"/>
<path d="M11.7896 31.7253C11.1574 31.7253 10.5247 31.4823 10.0427 31.0003L0.72384 21.6793C-0.24128 20.7142 -0.24128 19.1505 0.72384 18.1865L10.0443 8.86708C11.0094 7.9014 12.5731 7.9014 13.5371 8.86708C14.5028 9.83109 14.5028 11.3959 13.5371 12.3599L5.96464 19.934L13.5365 27.5076C14.5016 28.471 14.5016 30.0364 13.5365 30.9998C13.0539 31.4823 12.4218 31.7253 11.7896 31.7253Z" fill="#1890FF"/>
<path d="M65.7764 31.7252C65.1442 31.7252 64.5115 31.4823 64.0295 31.0003C63.0644 30.0351 63.0644 28.4715 64.0295 27.508L71.6031 19.9345L64.0295 12.3603C63.066 11.3963 63.066 9.83153 64.0295 8.86643C64.9957 7.90241 66.5583 7.9013 67.5234 8.86698L76.8423 18.1864C77.8085 19.1505 77.8085 20.7147 76.8423 21.6792L67.5234 31.0002C67.0403 31.4823 66.4063 31.7252 65.7764 31.7252Z" fill="#1890FF"/>
</svg>
