<svg width="73" height="39" viewBox="0 0 73 39" fill="none" xmlns="http://www.w3.org/2000/svg">
<path fill-rule="evenodd" clip-rule="evenodd" d="M12.1885 20.3751H16.0067C20.6326 20.3751 24.4503 16.6305 24.4503 11.9315C24.4503 8.4805 27.2406 5.6901 30.6917 5.6901H35.2439L33.6286 7.30544C33.1881 7.74591 33.1881 8.40661 33.6286 8.84763C33.8488 9.06786 34.1428 9.1411 34.4363 9.1411C34.7297 9.1411 35.0237 9.06786 35.244 8.84763L39.5026 4.58899L35.244 0.330353C34.8035 -0.110118 34.1428 -0.110118 33.7018 0.330353C33.2613 0.770823 33.2613 1.43151 33.7018 1.87253L35.3171 3.48788H30.7649C26.139 3.48788 22.3213 7.23241 22.3213 11.9315C22.3213 15.3824 19.5311 18.1728 16.08 18.1728H12.2617C11.6743 18.1728 11.1606 18.6871 11.1606 19.274C11.1606 19.8609 11.601 20.3752 12.1885 20.3752L12.1885 20.3751ZM66.4492 15.015C66.8902 14.5745 67.5509 14.5745 67.9914 15.015L72.3235 19.2738L68.0649 23.5324C67.8446 23.7527 67.5506 23.8259 67.2572 23.8259C66.9637 23.8259 66.6697 23.7527 66.4495 23.5324C66.009 23.0914 66.009 22.4307 66.4495 21.9903L68.0648 20.3749H54.9218C51.4707 20.3749 48.6804 23.1653 48.6804 26.6163C48.6804 31.3153 44.8627 35.0599 40.2368 35.0599H37.9608C37.3738 35.0599 36.8596 34.5462 36.8596 33.9587C36.8596 33.3718 37.3733 32.8576 37.9608 32.8576H40.2368C43.6879 32.8576 46.4782 30.0671 46.4782 26.6162C46.4782 21.9171 50.2959 18.1726 54.9218 18.1726H56.5371C54.848 16.6304 53.7468 14.4275 53.7468 11.9312C53.7468 8.48013 50.9564 5.68986 47.5055 5.68986H45.4496C44.8626 5.68986 44.3484 5.17616 44.3484 4.5887C44.3484 4.00176 44.8621 3.48754 45.4496 3.48754H47.5055C52.2045 3.48754 55.9491 7.30523 55.9491 11.9311C55.9491 15.3822 58.7395 18.1725 62.1904 18.1725H68.0646L66.4492 16.5571C66.0087 16.1161 66.0087 15.4554 66.4492 15.015ZM40.604 18.1722L38.9886 16.5569L38.9886 16.557C38.5481 16.1897 38.6214 15.4558 39.0618 15.0148C39.5029 14.5744 40.1636 14.5744 40.604 15.0148L44.8627 19.2735L40.604 23.5321C40.3838 23.7523 40.0898 23.8256 39.7963 23.8256C39.5029 23.8256 39.2089 23.7523 38.9886 23.5321C38.5482 23.0911 38.5482 22.4304 38.9886 21.9899L40.604 20.3746H27.3141C26.7271 20.3746 26.2129 19.8609 26.2129 19.2734C26.2129 18.6865 26.7266 18.1722 27.3141 18.1722H40.604ZM26.5064 31.2419C26.0659 30.8009 26.0659 30.1402 26.5064 29.6997L26.5063 29.6998C26.9468 29.2594 27.6075 29.2594 28.0479 29.6998L32.3799 33.9585L28.1212 38.2171C27.901 38.4373 27.607 38.5106 27.3135 38.5106C27.0201 38.5106 26.7261 38.4373 26.5058 38.2171C26.0654 37.7761 26.0654 37.1154 26.5058 36.6749L28.1212 35.0596H16.0064C11.3073 35.0596 7.56277 31.2419 7.56277 26.616C7.56277 23.1649 4.77236 20.3746 1.3214 20.3746H1.10116C0.514223 20.3746 0 19.8609 0 19.2735C0 18.6865 0.513699 18.1723 1.10116 18.1723H1.3214C6.02045 18.1723 9.76498 21.99 9.76498 26.6159C9.76498 30.067 12.5554 32.8573 16.0064 32.8573H28.1217L26.5064 31.2419Z" fill="#1890FF"/>
</svg>
