<svg width="60" height="60" viewBox="0 0 60 60" fill="none" xmlns="http://www.w3.org/2000/svg">
<path fill-rule="evenodd" clip-rule="evenodd" d="M38.6606 7.03125L30.0004 0L21.3401 7.03125H26.2502V12.2499C19.113 13.6986 13.4479 19.2013 11.7632 26.2498H7.03125V21.3394L0 29.9997L7.03125 38.6599L7.03125 33.7498L11.5092 33.7498C12.7913 41.3919 18.6962 47.4665 26.2501 48.9998V52.9688H21.3397L29.9999 60L38.6602 52.9688H33.7501V48.9998C41.3039 47.4664 47.2087 41.3918 48.4908 33.7497H52.9688V38.6599L60 29.9997L52.9688 21.3394V26.2497H48.2368C46.5521 19.2014 40.8872 13.6988 33.7502 12.25V7.03125H38.6606ZM26.2502 14.1679C20.1511 15.5518 15.3066 20.2394 13.6977 26.2498H16.3033C17.7799 21.6234 21.5356 18.0148 26.2502 16.7442V14.1679ZM13.4138 33.7498C14.6504 40.3542 19.7342 45.6032 26.2501 47.0817V44.5061C21.1185 43.123 17.123 38.9702 15.9659 33.7498H13.4138ZM33.7501 47.0817C40.2659 45.6031 45.3496 40.3541 46.5862 33.7497H44.0348C42.8777 38.9703 38.8819 43.1233 33.7501 44.5062V47.0817ZM46.3023 26.2497H43.6973C42.2207 21.6233 38.4649 18.0147 33.7502 16.7442V14.168C39.8492 15.5521 44.6934 20.2395 46.3023 26.2497Z" fill="#1890FF"/>
</svg>
