<svg width="72" height="56" viewBox="0 0 72 56" fill="none" xmlns="http://www.w3.org/2000/svg">
<path fill-rule="evenodd" clip-rule="evenodd" d="M55.9612 38.4973L63.2414 44.5596L56.0823 36.2499C56.0282 36.1967 55.9886 36.1558 55.9624 36.1295L52.0422 31.6728L42.4829 35.7279L50.9628 16.4178L31.5197 26.9374L31.4399 26.817L37.7994 13.5701L24.2808 20.8354L18.2807 15.938L18.24 15.8988L10.1991 9.4758L22.5603 22.8829L31.0403 20.9962L25.5604 33.0782L45.0807 23.3633L34.9198 44.7193L51.68 35.0044L55.8391 38.4576L55.9612 38.4973ZM72 52.8301V52.9102L55.6812 40.0642C52.6666 46.4603 46.9466 51.691 38.5209 55.7586C38.4947 55.813 38.4411 55.8527 38.3619 55.879L38.0421 55.9994L38.0003 55.9591C37.974 55.9854 37.9473 56 37.9205 56L37.9612 55.9591L37.6811 55.879C37.5728 55.8527 37.4941 55.799 37.44 55.7194C24.9337 49.6716 18.4254 41.0673 17.9197 29.9076L17.9203 19.9122L0 0L17.9203 13.9698V5.41927H58.1209V29.9063C57.988 31.8333 57.6945 33.7341 57.2408 35.6069L72 52.8301Z" fill="#1890FF"/>
</svg>
