<svg width="47" height="48" viewBox="0 0 47 48" fill="none" xmlns="http://www.w3.org/2000/svg">
<path d="M43.2747 11.8317C41.5224 9.089 39.3891 6.87958 36.9511 5.12728C34.5132 3.37498 31.6181 2.15599 28.4944 1.39412C23.3137 0.17513 18.2092 0.708439 13.3332 2.91786C10.6666 4.13685 8.22866 5.73678 6.17162 7.87001C3.58126 10.4604 1.75277 13.4317 0.609965 16.7077V16.7839C0.533778 16.9363 0.533785 17.0124 0.533785 17.1648C-0.60902 20.9742 0.457591 23.1074 2.1337 21.3551C2.20989 21.2789 2.28608 21.2027 2.36227 21.1265L2.43846 21.0504C4.41932 18.6124 7.61916 16.4791 7.61916 16.4791C8.45722 15.9458 9.29528 15.4125 10.1333 14.9554C11.1238 14.3459 12.1904 13.8126 13.1808 13.5078C13.1808 13.5078 14.0951 13.1269 14.3236 11.8317V11.7556C14.476 10.6889 15.6188 7.87002 18.8187 7.71764C19.8091 7.56527 20.7995 7.79382 21.6376 8.17476C23.1613 8.86044 24.3041 10.308 24.6089 12.0603C24.7612 13.4317 24.4565 14.7268 23.7708 15.7935C23.7708 15.8696 23.6946 15.9458 23.6184 15.9458L23.5422 16.022C22.9328 16.7839 22.0947 17.3934 21.1804 17.6981C20.571 17.9267 20.0376 18.0029 19.4281 18.0029C19.0472 18.0791 18.6663 18.0029 18.2853 17.9267C17.8282 17.8505 17.4473 17.6981 17.0664 17.4696C16.4569 17.1648 15.9236 16.8601 15.7712 16.7077C15.6188 16.5553 15.4664 16.4791 15.3141 16.4791C15.0093 16.403 14.7046 16.4791 14.476 16.5553C14.3998 16.6315 14.2474 16.6315 14.2474 16.7077C13.4856 17.3172 12.7999 18.0029 12.1142 18.6886C10.2857 20.517 8.83816 22.6503 8.07629 23.7169C7.69536 24.3264 7.31443 24.9359 7.00968 25.5454C6.70493 26.1549 6.40018 26.6882 6.17162 27.2977C5.71449 28.2119 5.33356 29.2024 5.02881 30.3452C5.02881 30.4214 5.02881 30.4214 4.95262 30.4976C4.95262 30.5737 4.87644 30.6499 4.87644 30.7261C4.87644 30.8023 4.80025 30.8785 4.80025 30.9547C2.59083 38.3448 6.55255 42.6113 9.82859 38.1163C9.98097 37.8115 10.2095 37.5829 10.3619 37.2782C13.7903 31.4118 20.8757 27.1453 20.8757 27.1453C21.3328 26.8406 21.7138 26.612 22.1709 26.3835C22.1709 26.3835 22.1709 26.3834 22.2471 26.3073C23.4661 25.6216 24.6851 25.0121 25.9802 24.4788C27.123 23.9455 28.342 23.4883 29.3325 23.2598C29.3325 23.2598 30.4753 22.955 30.8562 21.5075C31.0848 20.517 31.8466 18.9933 33.5227 18.1553C33.9037 17.9267 34.3608 17.7743 34.7417 17.6981C35.1989 17.6219 35.656 17.5458 36.1131 17.5458C36.4178 17.5458 36.6464 17.5458 36.875 17.6219C39.0082 18.0029 40.8367 19.7552 41.0652 22.117C41.37 24.9359 39.3891 27.4501 36.5702 27.831C35.1988 27.9834 33.9037 27.6786 32.8371 26.9168C31.6181 26.3834 30.7038 26.7644 30.3229 26.9168C29.2563 27.5263 28.2658 28.1357 27.2754 28.8214C25.4469 30.1166 23.9994 31.5642 23.4661 32.0975C22.2471 33.3926 21.1043 34.764 20.1138 36.2116C20.0376 36.2878 20.0376 36.3639 19.9615 36.4401L19.8853 36.5163C18.8948 38.0401 17.8282 40.0971 16.9902 42.4589C16.914 42.6113 16.8378 42.8398 16.7616 42.9922C15.8474 46.1159 17.8282 47.3349 20.19 47.792C20.5709 47.8682 20.9519 47.8682 21.3328 47.8682C21.409 47.8682 21.4852 47.8682 21.6376 47.9444H24.6851C24.8374 47.9444 24.9898 47.9444 25.066 47.9444C25.7517 47.8682 26.3612 47.792 27.0468 47.7158C31.5419 46.9539 35.5798 45.1254 39.0082 42.078C43.3509 38.2686 45.9412 33.4688 46.7031 27.831C47.465 22.0408 46.3222 16.7077 43.2747 11.8317Z" fill="#FFC40C"/>
</svg>
