<svg width="168" height="46" viewBox="0 0 168 46" fill="none" xmlns="http://www.w3.org/2000/svg">
<path d="M75.3547 24.6395L72.6751 17.4123C72.5673 17.1166 72.1469 17.1166 72.0376 17.4123L69.358 24.6395C69.3388 24.6909 69.3323 24.7461 69.3392 24.8005C69.3461 24.8549 69.366 24.9068 69.3974 24.9518C69.4287 24.9968 69.4705 25.0335 69.5192 25.0588C69.5679 25.084 69.6219 25.0971 69.6768 25.0969H75.0359C75.0908 25.0971 75.1448 25.084 75.1935 25.0588C75.2422 25.0335 75.284 24.9968 75.3153 24.9518C75.3467 24.9068 75.3666 24.8549 75.3735 24.8005C75.3804 24.7461 75.3739 24.6909 75.3547 24.6395ZM76.5929 28.7005H68.1352C68.0658 28.7003 67.9979 28.7215 67.9409 28.7612C67.8839 28.8008 67.8404 28.8571 67.8164 28.9223L66.1486 33.4191C66.1246 33.4842 66.0812 33.5405 66.0241 33.5801C65.9671 33.6198 65.8993 33.641 65.8298 33.6408H62.1569C62.1012 33.6411 62.0463 33.6277 61.997 33.6017C61.9477 33.5758 61.9056 33.538 61.8744 33.4919C61.8432 33.4457 61.8238 33.3926 61.818 33.3372C61.8122 33.2818 61.8202 33.2258 61.8412 33.1742L70.3112 12.107C70.3365 12.044 70.3801 11.9901 70.4364 11.9522C70.4927 11.9143 70.5591 11.8942 70.6269 11.8945H74.1443C74.2121 11.8942 74.2785 11.9143 74.3348 11.9522C74.3911 11.9901 74.4347 12.044 74.46 12.107L82.93 33.1742C82.951 33.2258 82.959 33.2818 82.9532 33.3372C82.9474 33.3926 82.9281 33.4457 82.8968 33.4919C82.8656 33.538 82.8235 33.5758 82.7742 33.6017C82.7249 33.6277 82.67 33.6411 82.6143 33.6408H78.9152C78.8458 33.641 78.7779 33.6198 78.7209 33.5801C78.6639 33.5405 78.6204 33.4842 78.5964 33.4191L76.9286 28.9223C76.9046 28.8571 76.8612 28.8008 76.8041 28.7612C76.7471 28.7215 76.6793 28.7003 76.6098 28.7005H76.5929ZM84.624 19.288H87.7656C87.8103 19.2878 87.8547 19.2965 87.8961 19.3135C87.9375 19.3305 87.9751 19.3556 88.0067 19.3872C88.0383 19.4189 88.0634 19.4565 88.0804 19.4979C88.0975 19.5393 88.1061 19.5836 88.1059 19.6284V33.3036C88.1061 33.3483 88.0975 33.3927 88.0804 33.434C88.0634 33.4754 88.0383 33.513 88.0067 33.5447C87.9751 33.5763 87.9375 33.6014 87.8961 33.6184C87.8547 33.6354 87.8103 33.6441 87.7656 33.6439H84.624C84.5792 33.6441 84.5349 33.6354 84.4935 33.6184C84.4521 33.6014 84.4145 33.5763 84.3829 33.5447C84.3512 33.513 84.3262 33.4754 84.3091 33.434C84.2921 33.3927 84.2834 33.3483 84.2837 33.3036V19.5976C84.2834 19.5528 84.2921 19.5085 84.3091 19.4671C84.3262 19.4257 84.3512 19.3881 84.3829 19.3564C84.4145 19.3248 84.4521 19.2997 84.4935 19.2827C84.5349 19.2657 84.5792 19.257 84.624 19.2572V19.288ZM99.562 22.5836C99.5622 22.6284 99.5535 22.6727 99.5365 22.7141C99.5195 22.7555 99.4944 22.7931 99.4628 22.8247C99.4311 22.8564 99.3935 22.8814 99.3521 22.8985C99.3107 22.9155 99.2664 22.9242 99.2217 22.924H99.1262C97.5862 22.924 96.4312 23.2966 95.7074 24.042C94.9836 24.7874 94.6201 26.0194 94.6201 27.738V33.2697C94.6203 33.3144 94.6117 33.3588 94.5946 33.4002C94.5776 33.4415 94.5525 33.4791 94.5209 33.5108C94.4893 33.5424 94.4517 33.5675 94.4103 33.5845C94.3689 33.6016 94.3245 33.6102 94.2798 33.61H91.169C91.1242 33.6102 91.0799 33.6016 91.0385 33.5845C90.9971 33.5675 90.9595 33.5424 90.9279 33.5108C90.8962 33.4791 90.8712 33.4415 90.8541 33.4002C90.8371 33.3588 90.8284 33.3144 90.8286 33.2697V19.613C90.8284 19.5682 90.8371 19.5239 90.8541 19.4825C90.8712 19.4411 90.8962 19.4035 90.9279 19.3718C90.9595 19.3402 90.9971 19.3151 91.0385 19.2981C91.0799 19.2811 91.1242 19.2724 91.169 19.2726H94.249C94.2937 19.2724 94.3381 19.2811 94.3795 19.2981C94.4209 19.3151 94.4585 19.3402 94.4901 19.3718C94.5218 19.4035 94.5468 19.4411 94.5638 19.4825C94.5809 19.5239 94.5895 19.5682 94.5893 19.613V22.3172H94.6509C95.0236 21.1992 95.6134 20.3398 96.4219 19.7392C97.2304 19.1386 98.2237 18.8383 99.4034 18.8383H99.5574L99.562 22.5836ZM108.152 22.4573C108.107 22.4571 108.063 22.4658 108.022 22.4828C107.98 22.4999 107.943 22.5249 107.911 22.5566C107.879 22.5882 107.854 22.6258 107.837 22.6672C107.82 22.7086 107.812 22.7529 107.812 22.7977V28.4849C107.812 29.0655 107.926 29.4782 108.154 29.7277C108.382 29.9772 108.774 30.1004 109.333 30.1004H109.646C109.691 30.1002 109.735 30.1088 109.776 30.1259C109.818 30.1429 109.855 30.1679 109.887 30.1996C109.919 30.2312 109.944 30.2688 109.961 30.3102C109.978 30.3516 109.986 30.396 109.986 30.4407V33.319C109.986 33.3637 109.978 33.4081 109.961 33.4494C109.944 33.4908 109.919 33.5284 109.887 33.5601C109.855 33.5917 109.818 33.6168 109.776 33.6338C109.735 33.6508 109.691 33.6595 109.646 33.6593H108.306C106.92 33.6593 105.851 33.302 105.106 32.5875C104.361 31.8729 103.988 30.8118 103.988 29.4027V22.8146C103.988 22.7699 103.979 22.7255 103.962 22.6841C103.945 22.6428 103.92 22.6052 103.889 22.5735C103.857 22.5419 103.819 22.5168 103.778 22.4998C103.737 22.4827 103.692 22.4741 103.648 22.4743H101.687C101.642 22.4745 101.598 22.4658 101.557 22.4488C101.515 22.4318 101.478 22.4067 101.446 22.375C101.414 22.3434 101.389 22.3058 101.372 22.2644C101.355 22.223 101.347 22.1787 101.347 22.1339V19.613C101.347 19.5682 101.355 19.5239 101.372 19.4825C101.389 19.4411 101.414 19.4035 101.446 19.3718C101.478 19.3402 101.515 19.3151 101.557 19.2981C101.598 19.2811 101.642 19.2724 101.687 19.2726H103.648C103.692 19.2728 103.737 19.2642 103.778 19.2471C103.819 19.2301 103.857 19.205 103.889 19.1734C103.92 19.1417 103.945 19.1041 103.962 19.0628C103.979 19.0214 103.988 18.977 103.988 18.9323V13.8503C103.988 13.8055 103.996 13.7612 104.013 13.7198C104.03 13.6784 104.056 13.6408 104.087 13.6092C104.119 13.5775 104.156 13.5525 104.198 13.5354C104.239 13.5184 104.284 13.5097 104.328 13.5099H107.47C107.515 13.5097 107.559 13.5184 107.6 13.5354C107.642 13.5525 107.679 13.5775 107.711 13.6092C107.743 13.6408 107.768 13.6784 107.785 13.7198C107.802 13.7612 107.81 13.8055 107.81 13.8503V18.9323C107.81 18.977 107.819 19.0214 107.836 19.0628C107.853 19.1041 107.878 19.1417 107.909 19.1734C107.941 19.205 107.979 19.2301 108.02 19.2471C108.061 19.2642 108.106 19.2728 108.151 19.2726H110.422C110.467 19.2724 110.511 19.2811 110.553 19.2981C110.594 19.3151 110.632 19.3402 110.663 19.3718C110.695 19.4035 110.72 19.4411 110.737 19.4825C110.754 19.5239 110.763 19.5682 110.762 19.613V22.1339C110.763 22.1787 110.754 22.223 110.737 22.2644C110.72 22.3058 110.695 22.3434 110.663 22.375C110.632 22.4067 110.594 22.4318 110.553 22.4488C110.511 22.4658 110.467 22.4745 110.422 22.4743L108.152 22.4573ZM122.536 29.3535C123.25 28.6081 123.608 27.6348 123.608 26.4336C123.608 25.2324 123.25 24.2591 122.536 23.5138C121.821 22.7684 120.883 22.3957 119.724 22.3957C118.564 22.3957 117.629 22.7684 116.912 23.5138C116.194 24.2591 115.84 25.2324 115.84 26.4336C115.84 27.6348 116.197 28.6081 116.912 29.3535C117.626 30.0988 118.563 30.4715 119.724 30.4715C120.885 30.4715 121.821 30.0988 122.536 29.3535ZM115.298 33.1727C114.227 32.5579 113.359 31.6458 112.797 30.547C112.185 29.3981 111.88 28.026 111.88 26.4305C111.88 24.8351 112.185 23.4645 112.797 22.3141C113.408 21.1637 114.241 20.2906 115.298 19.6884C116.358 19.0868 117.558 18.776 118.777 18.7875C119.895 18.7875 120.852 19.0031 121.65 19.4405C122.448 19.8778 123.082 20.4877 123.56 21.2885H123.621V19.613C123.621 19.5682 123.63 19.5239 123.647 19.4825C123.664 19.4411 123.689 19.4035 123.721 19.3718C123.752 19.3402 123.79 19.3151 123.831 19.2981C123.873 19.2811 123.917 19.2724 123.962 19.2726H127.073C127.117 19.2724 127.162 19.2811 127.203 19.2981C127.244 19.3151 127.282 19.3402 127.314 19.3718C127.345 19.4035 127.37 19.4411 127.387 19.4825C127.404 19.5239 127.413 19.5682 127.413 19.613V33.2882C127.413 33.3329 127.404 33.3773 127.387 33.4186C127.37 33.46 127.345 33.4976 127.314 33.5293C127.282 33.5609 127.244 33.586 127.203 33.603C127.162 33.62 127.117 33.6287 127.073 33.6285H123.962C123.917 33.6287 123.873 33.62 123.831 33.603C123.79 33.586 123.752 33.5609 123.721 33.5293C123.689 33.4976 123.664 33.46 123.647 33.4186C123.63 33.3773 123.621 33.3329 123.621 33.2882V31.5942H123.56C123.098 32.3642 122.446 32.9925 121.65 33.4422C120.854 33.8918 119.895 34.0951 118.777 34.0951C117.514 34.0951 116.354 33.7948 115.296 33.1942L115.298 33.1727ZM140.349 29.375C141.063 28.6297 141.421 27.6564 141.421 26.4552C141.421 25.254 141.063 24.2807 140.349 23.5353C139.634 22.79 138.696 22.4173 137.537 22.4173C136.377 22.4173 135.439 22.79 134.725 23.5353C134.01 24.2807 133.653 25.254 133.653 26.4552C133.653 27.6564 134.01 28.6297 134.725 29.375C135.439 30.1204 136.376 30.4931 137.537 30.4931C138.698 30.4931 139.634 30.1204 140.349 29.375ZM135.627 33.4452C134.837 33.0176 134.177 32.3845 133.716 31.6126H133.655V33.3066C133.655 33.3514 133.646 33.3957 133.629 33.4371C133.612 33.4785 133.587 33.5161 133.555 33.5477C133.524 33.5794 133.486 33.6045 133.445 33.6215C133.403 33.6385 133.359 33.6472 133.314 33.647H130.173C130.128 33.6472 130.083 33.6385 130.042 33.6215C130.001 33.6045 129.963 33.5794 129.931 33.5477C129.9 33.5161 129.875 33.4785 129.858 33.4371C129.841 33.3957 129.832 33.3514 129.832 33.3066V12.221C129.832 12.1762 129.841 12.1319 129.858 12.0905C129.875 12.0491 129.9 12.0115 129.931 11.9798C129.963 11.9482 130.001 11.9231 130.042 11.9061C130.083 11.8891 130.128 11.8804 130.173 11.8806H133.314C133.359 11.8804 133.403 11.8891 133.445 11.9061C133.486 11.9231 133.524 11.9482 133.555 11.9798C133.587 12.0115 133.612 12.0491 133.629 12.0905C133.646 12.1319 133.655 12.1762 133.655 12.221V21.307H133.716C134.177 20.5351 134.837 19.902 135.627 19.4744C136.425 19.0385 137.383 18.8214 138.501 18.8214C139.72 18.8098 140.92 19.1206 141.98 19.7223C143.036 20.3383 143.869 21.1976 144.481 22.348C145.092 23.4984 145.397 24.8705 145.397 26.4644C145.397 28.0583 145.089 29.432 144.481 30.5808C143.872 31.7297 143.036 32.6059 141.98 33.2065C140.923 33.8071 139.762 34.1074 138.499 34.1074C137.381 34.1074 136.423 33.8918 135.626 33.4545L135.627 33.4452ZM150.687 33.6393H147.545C147.501 33.6395 147.456 33.6308 147.415 33.6138C147.373 33.5968 147.336 33.5717 147.304 33.5401C147.273 33.5084 147.248 33.4708 147.23 33.4294C147.213 33.388 147.205 33.3437 147.205 33.2989V12.221C147.205 12.1762 147.213 12.1319 147.23 12.0905C147.248 12.0491 147.273 12.0115 147.304 11.9798C147.336 11.9482 147.373 11.9231 147.415 11.9061C147.456 11.8891 147.501 11.8804 147.545 11.8806H150.687C150.732 11.8804 150.776 11.8891 150.817 11.9061C150.859 11.9231 150.896 11.9482 150.928 11.9798C150.96 12.0115 150.985 12.0491 151.002 12.0905C151.019 12.1319 151.027 12.1762 151.027 12.221V33.319C151.027 33.3637 151.019 33.4081 151.002 33.4494C150.985 33.4908 150.96 33.5284 150.928 33.5601C150.896 33.5917 150.859 33.6168 150.817 33.6338C150.776 33.6508 150.732 33.6595 150.687 33.6593V33.6393ZM158.097 22.6329C157.577 23.0395 157.224 23.6262 157.042 24.3931C156.993 24.6041 157.158 24.8089 157.375 24.8089H163.353C163.561 24.8089 163.723 24.6241 163.692 24.4178C163.572 23.694 163.261 23.1134 162.759 22.6806C162.169 22.1724 161.398 21.9199 160.444 21.9199C159.491 21.9199 158.71 22.1586 158.099 22.6344L158.097 22.6329ZM165.757 20.848C166.979 22.1848 167.605 24.0743 167.605 26.5152V26.9218C167.606 26.9666 167.597 27.0109 167.58 27.0523C167.563 27.0937 167.538 27.1313 167.506 27.1629C167.474 27.1946 167.437 27.2196 167.396 27.2366C167.354 27.2537 167.31 27.2623 167.265 27.2621H157.277C157.066 27.2621 156.904 27.4546 156.941 27.6625C157.101 28.5865 157.501 29.2919 158.145 29.8262C158.88 30.4376 159.808 30.7425 160.925 30.7425C162.369 30.7425 163.705 30.1789 164.933 29.0516C164.969 29.0194 165.011 28.9952 165.057 28.9806C165.103 28.9659 165.151 28.9612 165.199 28.9668C165.247 28.9723 165.293 28.988 165.334 29.0127C165.376 29.0374 165.411 29.0706 165.439 29.1101L166.966 31.3031C167.015 31.3713 167.036 31.455 167.026 31.538C167.017 31.621 166.977 31.6975 166.914 31.7528C166.164 32.4097 165.33 32.9638 164.435 33.4006C163.441 33.8872 162.271 34.1305 160.923 34.1305C159.383 34.1305 157.997 33.8148 156.853 33.1834C155.713 32.5724 154.774 31.6444 154.15 30.5115C153.508 29.3627 153.188 28.0475 153.188 26.5199C153.188 24.9922 153.499 23.6709 154.12 22.5128C154.74 21.3547 155.61 20.4523 156.73 19.8101C157.849 19.1679 159.152 18.8476 160.645 18.8476C162.839 18.8476 164.548 19.5159 165.77 20.8496L165.757 20.848ZM88.5387 14.2584C88.5375 14.8735 88.2925 15.4631 87.8576 15.8981C87.4226 16.333 86.833 16.5779 86.2179 16.5792C85.6028 16.5779 85.0132 16.333 84.5782 15.8981C84.1432 15.4631 83.8983 14.8735 83.8971 14.2584C83.8983 13.6432 84.1432 13.0537 84.5782 12.6187C85.0132 12.1837 85.6028 11.9388 86.2179 11.9376C86.833 11.9388 87.4226 12.1837 87.8576 12.6187C88.2925 13.0537 88.5375 13.6432 88.5387 14.2584Z" fill="#333333"/>
<path d="M24.1836 1.31148L4.35149 9.51968C3.24885 9.97552 3.27349 11.5432 4.36997 11.9837L24.2852 19.8808C26.0352 20.5746 27.9838 20.5746 29.7338 19.8808L49.649 11.9837C50.7578 11.5432 50.7702 9.97706 49.6675 9.51968L29.8354 1.31148C28.0259 0.562839 25.9932 0.562839 24.1836 1.31148Z" fill="#FFCC00"/>
<path d="M28.779 24.1915V43.9035C28.779 44.8275 29.7245 45.485 30.5962 45.1385L52.7722 36.5253C53.0201 36.4277 53.2328 36.2577 53.3825 36.0373C53.5322 35.817 53.612 35.5566 53.6115 35.2902V15.5782C53.6115 14.6542 52.6659 13.9967 51.7943 14.3432L29.6183 22.9564C29.3704 23.0539 29.1577 23.224 29.008 23.4443C28.8582 23.6647 28.7784 23.9251 28.779 24.1915Z" fill="#31C2F2"/>
<path d="M23.5984 25.2091L16.3604 28.7126L2.45729 35.3746C1.57641 35.7996 0.450668 35.159 0.450668 34.178V15.6611C0.450668 15.3069 0.632388 14.9989 0.875708 14.7709C0.975293 14.6715 1.08829 14.5865 1.21143 14.5184C1.39342 14.4142 1.59627 14.3518 1.80532 14.3356C2.01438 14.3193 2.22443 14.3497 2.42033 14.4244L23.5183 22.7774C24.5902 23.2024 24.6733 24.7024 23.6292 25.2106" fill="#ED3049"/>
<path d="M23.5984 25.2091L17.0103 28.3907L0.840286 14.7709C0.939871 14.6715 1.05287 14.5865 1.17601 14.5184C1.358 14.4142 1.56084 14.3518 1.7699 14.3356C1.97895 14.3193 2.18901 14.3497 2.38491 14.4244L23.4829 22.7774C24.5547 23.2024 24.6379 24.7024 23.5938 25.2106" fill="#C62842"/>
</svg>
