<svg width="153" height="42" viewBox="0 0 153 42" fill="none" xmlns="http://www.w3.org/2000/svg">
<path d="M68.1432 22.4896L65.7072 15.9194C65.6092 15.6506 65.227 15.6506 65.1276 15.9194L62.6916 22.4896C62.6742 22.5363 62.6683 22.5865 62.6746 22.636C62.6808 22.6855 62.6989 22.7327 62.7274 22.7735C62.7559 22.8144 62.7939 22.8478 62.8382 22.8708C62.8824 22.8937 62.9316 22.9056 62.9814 22.9054H67.8534C67.9033 22.9056 67.9524 22.8937 67.9966 22.8708C68.0409 22.8478 68.0789 22.8144 68.1074 22.7735C68.1359 22.7327 68.154 22.6855 68.1603 22.636C68.1665 22.5865 68.1607 22.5363 68.1432 22.4896ZM69.2688 26.1814H61.58C61.5169 26.1813 61.4552 26.2005 61.4034 26.2366C61.3515 26.2726 61.312 26.3238 61.2902 26.383L59.774 30.471C59.7522 30.5303 59.7127 30.5814 59.6609 30.6175C59.609 30.6535 59.5474 30.6728 59.4842 30.6726H56.1452C56.0946 30.6729 56.0446 30.6607 55.9998 30.6371C55.955 30.6135 55.9167 30.5792 55.8883 30.5372C55.86 30.4953 55.8424 30.447 55.8371 30.3966C55.8319 30.3462 55.8391 30.2953 55.8582 30.2484L63.5582 11.0964C63.5812 11.0392 63.6209 10.9902 63.672 10.9557C63.7232 10.9213 63.7835 10.903 63.8452 10.9032H67.0428C67.1045 10.903 67.1648 10.9213 67.216 10.9557C67.2672 10.9902 67.3068 11.0392 67.3298 11.0964L75.0298 30.2484C75.0489 30.2953 75.0562 30.3462 75.0509 30.3966C75.0457 30.447 75.0281 30.4953 74.9997 30.5372C74.9713 30.5792 74.933 30.6135 74.8882 30.6371C74.8434 30.6607 74.7935 30.6729 74.7428 30.6726H71.38C71.3169 30.6728 71.2552 30.6535 71.2034 30.6175C71.1515 30.5814 71.112 30.5303 71.0902 30.471L69.574 26.383C69.5522 26.3238 69.5127 26.2726 69.4609 26.2366C69.409 26.2005 69.3474 26.1813 69.2842 26.1814H69.2688ZM76.5698 17.6246H79.4258C79.4665 17.6244 79.5068 17.6323 79.5444 17.6478C79.5821 17.6633 79.6162 17.6861 79.645 17.7148C79.6738 17.7436 79.6966 17.7778 79.712 17.8154C79.7275 17.853 79.7354 17.8933 79.7352 17.934V30.366C79.7354 30.4067 79.7275 30.447 79.712 30.4847C79.6966 30.5223 79.6738 30.5565 79.645 30.5852C79.6162 30.614 79.5821 30.6368 79.5444 30.6523C79.5068 30.6677 79.4665 30.6756 79.4258 30.6754H76.5698C76.5291 30.6756 76.4888 30.6677 76.4512 30.6523C76.4136 30.6368 76.3794 30.614 76.3506 30.5852C76.3219 30.5565 76.2991 30.5223 76.2836 30.4847C76.2681 30.447 76.2602 30.4067 76.2604 30.366V17.906C76.2602 17.8653 76.2681 17.825 76.2836 17.7874C76.2991 17.7498 76.3219 17.7156 76.3506 17.6868C76.3794 17.6581 76.4136 17.6353 76.4512 17.6198C76.4888 17.6043 76.5291 17.5964 76.5698 17.5966V17.6246ZM90.1498 20.6206C90.15 20.6613 90.1421 20.7016 90.1266 20.7393C90.1112 20.7769 90.0884 20.8111 90.0596 20.8398C90.0308 20.8686 89.9967 20.8914 89.959 20.9069C89.9214 20.9223 89.8811 20.9302 89.8404 20.93H89.7536C88.3536 20.93 87.3036 21.2688 86.6456 21.9464C85.9876 22.624 85.6572 23.744 85.6572 25.3064V30.3352C85.6574 30.3759 85.6495 30.4162 85.634 30.4539C85.6186 30.4915 85.5958 30.5257 85.567 30.5544C85.5382 30.5832 85.5041 30.606 85.4664 30.6215C85.4288 30.6369 85.3885 30.6448 85.3478 30.6446H82.5198C82.4791 30.6448 82.4388 30.6369 82.4012 30.6215C82.3636 30.606 82.3294 30.5832 82.3006 30.5544C82.2719 30.5257 82.2491 30.4915 82.2336 30.4539C82.2181 30.4162 82.2102 30.3759 82.2104 30.3352V17.92C82.2102 17.8793 82.2181 17.839 82.2336 17.8014C82.2491 17.7638 82.2719 17.7296 82.3006 17.7008C82.3294 17.6721 82.3636 17.6493 82.4012 17.6338C82.4388 17.6183 82.4791 17.6104 82.5198 17.6106H85.3198C85.3605 17.6104 85.4008 17.6183 85.4384 17.6338C85.4761 17.6493 85.5102 17.6721 85.539 17.7008C85.5678 17.7296 85.5906 17.7638 85.606 17.8014C85.6215 17.839 85.6294 17.8793 85.6292 17.92V20.3784H85.6852C86.024 19.362 86.5602 18.5808 87.2952 18.0348C88.0302 17.4888 88.9332 17.2158 90.0056 17.2158H90.1456L90.1498 20.6206ZM97.959 20.5058C97.9183 20.5056 97.878 20.5135 97.8404 20.529C97.8028 20.5445 97.7686 20.5673 97.7398 20.596C97.7111 20.6248 97.6883 20.659 97.6728 20.6966C97.6573 20.7342 97.6494 20.7745 97.6496 20.8152V25.9854C97.6496 26.5132 97.7532 26.8884 97.9604 27.1152C98.1676 27.342 98.5246 27.454 99.0328 27.454H99.317C99.3577 27.4538 99.398 27.4617 99.4356 27.4772C99.4733 27.4927 99.5074 27.5155 99.5362 27.5442C99.565 27.573 99.5877 27.6072 99.6032 27.6448C99.6187 27.6824 99.6266 27.7227 99.6264 27.7634V30.38C99.6266 30.4207 99.6187 30.461 99.6032 30.4986C99.5877 30.5363 99.565 30.5705 99.5362 30.5992C99.5074 30.628 99.4733 30.6508 99.4356 30.6663C99.398 30.6817 99.3577 30.6896 99.317 30.6894H98.099C96.839 30.6894 95.8674 30.3646 95.1898 29.715C94.5122 29.0654 94.1734 28.1008 94.1734 26.8198V20.8306C94.1736 20.7899 94.1657 20.7496 94.1502 20.712C94.1348 20.6744 94.112 20.6402 94.0832 20.6114C94.0544 20.5827 94.0203 20.5599 93.9826 20.5444C93.945 20.5289 93.9047 20.521 93.864 20.5212H92.0818C92.0411 20.5214 92.0008 20.5135 91.9632 20.4981C91.9256 20.4826 91.8914 20.4598 91.8626 20.431C91.8339 20.4023 91.8111 20.3681 91.7956 20.3304C91.7801 20.2928 91.7722 20.2525 91.7724 20.2118V17.92C91.7722 17.8793 91.7801 17.839 91.7956 17.8014C91.8111 17.7638 91.8339 17.7296 91.8626 17.7008C91.8914 17.6721 91.9256 17.6493 91.9632 17.6338C92.0008 17.6183 92.0411 17.6104 92.0818 17.6106H93.864C93.9047 17.6108 93.945 17.6029 93.9826 17.5875C94.0203 17.572 94.0544 17.5492 94.0832 17.5204C94.112 17.4917 94.1348 17.4575 94.1502 17.4199C94.1657 17.3822 94.1736 17.3419 94.1734 17.3012V12.6812C94.1732 12.6405 94.1811 12.6002 94.1966 12.5626C94.2121 12.525 94.2349 12.4908 94.2636 12.462C94.2924 12.4333 94.3266 12.4105 94.3642 12.395C94.4018 12.3795 94.4421 12.3716 94.4828 12.3718H97.3388C97.3795 12.3716 97.4198 12.3795 97.4574 12.395C97.4951 12.4105 97.5292 12.4333 97.558 12.462C97.5868 12.4908 97.6096 12.525 97.625 12.5626C97.6405 12.6002 97.6484 12.6405 97.6482 12.6812V17.3012C97.648 17.3419 97.6559 17.3822 97.6714 17.4199C97.6869 17.4575 97.7097 17.4917 97.7384 17.5204C97.7672 17.5492 97.8014 17.572 97.839 17.5875C97.8766 17.6029 97.9169 17.6108 97.9576 17.6106H100.023C100.063 17.6104 100.104 17.6183 100.141 17.6338C100.179 17.6493 100.213 17.6721 100.242 17.7008C100.271 17.7296 100.293 17.7638 100.309 17.8014C100.324 17.839 100.332 17.8793 100.332 17.92V20.2118C100.332 20.2525 100.324 20.2928 100.309 20.3304C100.293 20.3681 100.271 20.4023 100.242 20.431C100.213 20.4598 100.179 20.4826 100.141 20.4981C100.104 20.5135 100.063 20.5214 100.023 20.5212L97.959 20.5058ZM111.035 26.775C111.685 26.0974 112.009 25.2126 112.009 24.1206C112.009 23.0286 111.685 22.1438 111.035 21.4662C110.385 20.7886 109.533 20.4498 108.479 20.4498C107.424 20.4498 106.575 20.7886 105.922 21.4662C105.27 22.1438 104.948 23.0286 104.948 24.1206C104.948 25.2126 105.273 26.0974 105.922 26.775C106.572 27.4526 107.423 27.7914 108.479 27.7914C109.534 27.7914 110.385 27.4526 111.035 26.775ZM104.455 30.247C103.482 29.6882 102.692 28.859 102.181 27.86C101.626 26.8156 101.348 25.5682 101.348 24.1178C101.348 22.6674 101.626 21.4214 102.181 20.3756C102.737 19.3298 103.495 18.536 104.455 17.9886C105.419 17.4417 106.51 17.1591 107.618 17.1696C108.634 17.1696 109.505 17.3656 110.23 17.7632C110.955 18.1608 111.532 18.7152 111.966 19.4432H112.022V17.92C112.022 17.8793 112.03 17.839 112.045 17.8014C112.061 17.7638 112.083 17.7296 112.112 17.7008C112.141 17.6721 112.175 17.6493 112.213 17.6338C112.25 17.6183 112.291 17.6104 112.331 17.6106H115.159C115.2 17.6104 115.24 17.6183 115.278 17.6338C115.316 17.6493 115.35 17.6721 115.379 17.7008C115.407 17.7296 115.43 17.7638 115.446 17.8014C115.461 17.839 115.469 17.8793 115.469 17.92V30.352C115.469 30.3927 115.461 30.433 115.446 30.4706C115.43 30.5083 115.407 30.5425 115.379 30.5712C115.35 30.6 115.316 30.6228 115.278 30.6383C115.24 30.6537 115.2 30.6616 115.159 30.6614H112.331C112.291 30.6616 112.25 30.6537 112.213 30.6383C112.175 30.6228 112.141 30.6 112.112 30.5712C112.083 30.5425 112.061 30.5083 112.045 30.4706C112.03 30.433 112.022 30.3927 112.022 30.352V28.812H111.966C111.546 29.512 110.954 30.0832 110.23 30.492C109.506 30.9008 108.634 31.0856 107.618 31.0856C106.47 31.0856 105.415 30.8126 104.454 30.2666L104.455 30.247ZM127.229 26.7946C127.878 26.117 128.203 25.2322 128.203 24.1402C128.203 23.0482 127.878 22.1634 127.229 21.4858C126.579 20.8082 125.727 20.4694 124.672 20.4694C123.618 20.4694 122.766 20.8082 122.116 21.4858C121.466 22.1634 121.142 23.0482 121.142 24.1402C121.142 25.2322 121.466 26.117 122.116 26.7946C122.766 27.4722 123.617 27.811 124.672 27.811C125.728 27.811 126.579 27.4722 127.229 26.7946ZM122.936 30.4948C122.218 30.1061 121.618 29.5305 121.199 28.8288H121.143V30.3688C121.143 30.4095 121.135 30.4498 121.12 30.4874C121.104 30.5251 121.082 30.5592 121.053 30.588C121.024 30.6168 120.99 30.6396 120.952 30.6551C120.915 30.6705 120.874 30.6784 120.834 30.6782H117.978C117.937 30.6784 117.897 30.6705 117.859 30.6551C117.821 30.6396 117.787 30.6168 117.758 30.588C117.73 30.5592 117.707 30.5251 117.691 30.4874C117.676 30.4498 117.668 30.4095 117.668 30.3688V11.2C117.668 11.1593 117.676 11.119 117.691 11.0814C117.707 11.0438 117.73 11.0096 117.758 10.9808C117.787 10.9521 117.821 10.9293 117.859 10.9138C117.897 10.8983 117.937 10.8904 117.978 10.8906H120.834C120.874 10.8904 120.915 10.8983 120.952 10.9138C120.99 10.9293 121.024 10.9521 121.053 10.9808C121.082 11.0096 121.104 11.0438 121.12 11.0814C121.135 11.119 121.143 11.1593 121.143 11.2V19.46H121.199C121.618 18.7584 122.218 18.1828 122.936 17.794C123.662 17.3978 124.532 17.2004 125.549 17.2004C126.657 17.1899 127.748 17.4725 128.711 18.0194C129.672 18.5794 130.429 19.3606 130.985 20.4064C131.541 21.4522 131.818 22.6996 131.818 24.1486C131.818 25.5976 131.538 26.8464 130.985 27.8908C130.432 28.9352 129.672 29.7318 128.711 30.2778C127.751 30.8238 126.695 31.0968 125.547 31.0968C124.531 31.0968 123.66 30.9008 122.935 30.5032L122.936 30.4948ZM136.627 30.6712H133.771C133.73 30.6714 133.69 30.6635 133.652 30.6481C133.615 30.6326 133.581 30.6098 133.552 30.581C133.523 30.5523 133.5 30.5181 133.485 30.4804C133.469 30.4428 133.461 30.4025 133.462 30.3618V11.2C133.461 11.1593 133.469 11.119 133.485 11.0814C133.5 11.0438 133.523 11.0096 133.552 10.9808C133.581 10.9521 133.615 10.9293 133.652 10.9138C133.69 10.8983 133.73 10.8904 133.771 10.8906H136.627C136.668 10.8904 136.708 10.8983 136.746 10.9138C136.783 10.9293 136.817 10.9521 136.846 10.9808C136.875 11.0096 136.898 11.0438 136.913 11.0814C136.929 11.119 136.937 11.1593 136.936 11.2V30.38C136.937 30.4207 136.929 30.461 136.913 30.4986C136.898 30.5363 136.875 30.5705 136.846 30.5992C136.817 30.628 136.783 30.6508 136.746 30.6663C136.708 30.6817 136.668 30.6896 136.627 30.6894V30.6712ZM143.364 20.6654C142.891 21.035 142.57 21.5684 142.405 22.2656C142.36 22.4574 142.51 22.6436 142.707 22.6436H148.142C148.331 22.6436 148.478 22.4756 148.45 22.288C148.341 21.63 148.058 21.1022 147.602 20.7088C147.065 20.2468 146.364 20.0172 145.497 20.0172C144.631 20.0172 143.921 20.2342 143.365 20.6668L143.364 20.6654ZM150.327 19.0428C151.438 20.258 152.007 21.9758 152.007 24.1948V24.5644C152.008 24.6051 152 24.6454 151.984 24.6831C151.969 24.7207 151.946 24.7549 151.917 24.7836C151.888 24.8124 151.854 24.8352 151.817 24.8507C151.779 24.8661 151.739 24.874 151.698 24.8738H142.618C142.426 24.8738 142.279 25.0488 142.312 25.2378C142.458 26.0778 142.822 26.719 143.407 27.2048C144.075 27.7606 144.919 28.0378 145.934 28.0378C147.247 28.0378 148.461 27.5254 149.578 26.5006C149.611 26.4714 149.649 26.4493 149.691 26.436C149.733 26.4227 149.777 26.4185 149.82 26.4235C149.863 26.4285 149.905 26.4427 149.943 26.4652C149.98 26.4877 150.013 26.5179 150.038 26.5538L151.426 28.5474C151.47 28.6094 151.49 28.6855 151.481 28.7609C151.472 28.8364 151.436 28.906 151.379 28.9562C150.697 29.5534 149.939 30.0572 149.125 30.4542C148.222 30.8966 147.158 31.1178 145.933 31.1178C144.533 31.1178 143.273 30.8308 142.233 30.2568C141.196 29.7013 140.343 28.8577 139.776 27.8278C139.192 26.7834 138.901 25.5878 138.901 24.199C138.901 22.8102 139.183 21.609 139.748 20.5562C140.312 19.5034 141.103 18.683 142.121 18.0992C143.138 17.5154 144.323 17.2242 145.679 17.2242C147.674 17.2242 149.228 17.8318 150.339 19.0442L150.327 19.0428ZM80.1286 13.0522C80.1275 13.6114 79.9049 14.1474 79.5094 14.5429C79.114 14.9383 78.578 15.1609 78.0188 15.162C77.4596 15.1609 76.9236 14.9383 76.5282 14.5429C76.1328 14.1474 75.9101 13.6114 75.909 13.0522C75.9101 12.493 76.1328 11.957 76.5282 11.5616C76.9236 11.1662 77.4596 10.9435 78.0188 10.9424C78.578 10.9435 79.114 11.1662 79.5094 11.5616C79.9049 11.957 80.1275 12.493 80.1286 13.0522Z" fill="#9696B4"/>
<path d="M21.624 1.28241L3.59481 8.74441C2.59241 9.15881 2.61481 10.584 3.61161 10.9844L21.7164 18.1636C23.3073 18.7943 25.0788 18.7943 26.6696 18.1636L44.7744 10.9844C45.7824 10.584 45.7936 9.16021 44.7912 8.74441L26.762 1.28241C25.117 0.601826 23.2691 0.601826 21.624 1.28241Z" fill="#9696B4"/>
<path d="M25.8016 22.0823V40.0023C25.8016 40.8423 26.6612 41.4401 27.4536 41.1251L47.6136 33.2949C47.839 33.2062 48.0323 33.0516 48.1684 32.8513C48.3046 32.651 48.3771 32.4143 48.3766 32.1721V14.2521C48.3766 13.4121 47.517 12.8143 46.7246 13.1293L26.5646 20.9595C26.3393 21.0482 26.1459 21.2028 26.0098 21.4031C25.8737 21.6034 25.8011 21.8401 25.8016 22.0823Z" fill="#9696B4"/>
<path d="M21.092 23.0075L14.512 26.1925L1.87281 32.2489C1.07201 32.6353 0.0486145 32.0529 0.0486145 31.1611V14.3275C0.0486145 14.0055 0.213815 13.7255 0.435015 13.5183C0.525546 13.4279 0.628274 13.3507 0.740214 13.2887C0.905665 13.1941 1.09007 13.1373 1.28012 13.1225C1.47017 13.1078 1.66112 13.1354 1.83921 13.2033L21.0192 20.7969C21.9936 21.1833 22.0692 22.5469 21.12 23.0089" fill="#9696B4"/>
<path d="M21.092 23.0075L15.1028 25.8999L0.402817 13.5183C0.493348 13.4279 0.596077 13.3507 0.708017 13.2887C0.873467 13.1941 1.05787 13.1373 1.24792 13.1225C1.43797 13.1078 1.62893 13.1354 1.80702 13.2033L20.987 20.7969C21.9614 21.1833 22.037 22.5469 21.0878 23.0089" fill="#333333" fill-opacity="0.2"/>
</svg>
