<svg width="186" height="34" viewBox="0 0 186 34" fill="none" xmlns="http://www.w3.org/2000/svg">
<path d="M38.4006 17.2793C38.4006 24.2369 32.7604 29.8773 25.8026 29.8773C22.5709 29.8773 19.6235 28.6601 17.3933 26.6599C20.966 25.0514 23.4531 21.4604 23.4531 17.2884C23.4531 13.111 20.9598 9.51623 17.3797 7.91081C19.6118 5.90326 22.5643 4.6814 25.8026 4.6814C32.7604 4.6814 38.4006 10.3217 38.4006 17.2793Z" fill="#F02E65"/>
<path d="M20.7669 7.22354C13.0299 1.37658 1.86446 6.09744 0.669416 15.7214C0.114081 20.1942 1.99033 24.6229 5.58963 27.3353C13.3309 33.177 24.493 28.448 25.6815 18.8231C26.2329 14.356 24.3595 9.93444 20.7669 7.22341V7.22354ZM19.3656 9.07993C25.6778 13.843 24.4665 23.6527 17.1853 26.7376C13.8064 28.1693 9.92011 27.6895 6.99075 25.4788C0.678904 20.7155 1.89002 10.9058 9.1711 7.82113C12.55 6.38965 16.4364 6.86934 19.3656 9.07993Z" fill="#F02E65"/>
<path d="M52.8967 8.03411C54.6256 8.03411 56.0992 8.48154 57.3178 9.37691C58.5362 10.2724 59.374 11.4592 59.8314 12.9374V8.2508H61.9885V25.3103H59.8314V20.624C59.374 22.1036 58.5362 23.2909 57.3178 24.1863C56.0992 25.0818 54.6256 25.5294 52.8967 25.5294C51.3554 25.5294 49.9755 25.1752 48.7569 24.4672C47.5384 23.7593 46.5908 22.7438 45.9138 21.4206C45.2369 20.0975 44.8981 18.5508 44.8981 16.7806C44.8981 14.9898 45.2369 13.433 45.9138 12.1098C46.5908 10.788 47.5332 9.77841 48.7414 9.08039C49.9495 8.38261 51.3346 8.03411 52.8967 8.03411ZM53.4589 9.97006C51.5427 9.97006 50.0064 10.5792 48.8499 11.7979C47.6948 13.0164 47.1172 14.6774 47.1172 16.7806C47.1172 18.8841 47.6948 20.5452 48.8499 21.7638C50.0064 22.9821 51.5427 23.5912 53.4589 23.5912C54.6668 23.5912 55.7551 23.3104 56.7228 22.7481C57.6917 22.1863 58.4521 21.3895 59.004 20.3584C59.5557 19.3273 59.8314 18.1349 59.8314 16.7806C59.8314 15.4265 59.5557 14.2348 59.004 13.2047C58.4521 12.1739 57.6917 11.3764 56.7228 10.8134C55.7551 10.2511 54.6668 9.97006 53.4589 9.97006ZM75.8594 8.03411C77.4215 8.03411 78.8015 8.38261 79.9991 9.08039C81.1969 9.77841 82.1344 10.788 82.8114 12.1098C83.4883 13.433 83.8269 14.9898 83.8269 16.7806C83.8269 18.5508 83.4883 20.0975 82.8114 21.4206C82.1344 22.7438 81.1913 23.7593 79.9838 24.4672C78.7757 25.1752 77.4008 25.5294 75.8594 25.5294C74.1096 25.5294 72.631 25.0818 71.4229 24.1863C70.2148 23.2909 69.3819 22.1036 68.9244 20.624V33.3712H66.7363V8.2508H68.9244V12.9374C69.3819 11.4592 70.2148 10.2724 71.4229 9.37691C72.631 8.48154 74.1096 8.03411 75.8594 8.03411ZM75.2661 9.97006C74.058 9.97006 72.9695 10.2511 72.0004 10.8134C71.0326 11.3764 70.2779 12.1739 69.7366 13.2047C69.1954 14.2348 68.9244 15.4265 68.9244 16.7806C68.9244 18.1349 69.1954 19.3273 69.7366 20.3584C70.2779 21.3895 71.0326 22.1863 72.0004 22.7481C72.9695 23.3104 74.058 23.5912 75.2661 23.5912C77.2029 23.5912 78.7445 22.9821 79.8905 21.7638C81.0355 20.5452 81.6078 18.8841 81.6078 16.7806C81.6078 14.6774 81.0355 13.0164 79.8905 11.7979C78.7445 10.5792 77.2029 9.97006 75.2661 9.97006ZM96.8852 8.03411C98.4476 8.03411 99.8276 8.38261 101.025 9.08039C102.223 9.77841 103.161 10.788 103.838 12.1098C104.514 13.433 104.853 14.9898 104.853 16.7806C104.853 18.5508 104.514 20.0975 103.838 21.4206C103.161 22.7438 102.218 23.7593 101.01 24.4672C99.8018 25.1752 98.427 25.5294 96.8852 25.5294C95.1357 25.5294 93.6572 25.0818 92.4492 24.1863C91.2409 23.2909 90.4083 22.1036 89.9508 20.624V33.3712H87.7626V8.2508H89.9508V12.9374C90.4083 11.4592 91.2409 10.2724 92.4492 9.37691C93.6572 8.48154 95.1357 8.03411 96.8852 8.03411ZM96.2924 9.97006C95.0845 9.97006 93.9956 10.2511 93.0266 10.8134C92.059 11.3764 91.3044 12.1739 90.7628 13.2047C90.2216 14.2348 89.9508 15.4265 89.9508 16.7806C89.9508 18.1349 90.2216 19.3273 90.7628 20.3584C91.3044 21.3895 92.059 22.1863 93.0266 22.7481C93.9956 23.3104 95.0845 23.5912 96.2924 23.5912C98.2293 23.5912 99.7707 22.9821 100.917 21.7638C102.062 20.5452 102.634 18.8841 102.634 16.7806C102.634 14.6774 102.062 13.0164 100.917 11.7979C99.7707 10.5792 98.2293 9.97006 96.2924 9.97006ZM129.066 8.00299H133.19L128.534 25.3103H123.66L119.943 12.7203L116.131 25.3103H111.258L106.634 8.00299H111.039L113.851 21.3742L117.693 8.00299H122.348L126.222 21.3742L129.066 8.00299ZM139.782 11.3132C140.427 10.2099 141.281 9.34047 142.343 8.70456C143.406 8.07016 144.593 7.75315 145.905 7.75315V12.4702H144.624C141.396 12.4702 139.782 13.9697 139.782 16.9684V25.3103H135.377V8.00299H139.782V11.3132ZM147.843 3.03344C147.843 2.32554 148.093 1.74794 148.593 1.30077C149.093 0.852703 149.749 0.628418 150.56 0.628418C151.373 0.628418 152.029 0.852703 152.529 1.30077C153.029 1.74794 153.279 2.32554 153.279 3.03344C153.279 3.72096 153.029 4.28882 152.529 4.73726C152.029 5.18545 151.373 5.40974 150.56 5.40974C149.749 5.40974 149.093 5.18545 148.593 4.73726C148.093 4.28882 147.843 3.72096 147.843 3.03344ZM148.343 8.00299H152.748V25.3103H148.343V8.00299ZM164.277 21.5293H165.994V25.3103H163.682C161.745 25.3103 160.261 24.8422 159.23 23.9053C158.199 22.9672 157.683 21.4053 157.683 19.2189V11.7202H155.278V8.00299H157.683V3.7216H162.088V8.00299H165.963V11.7202H162.088V19.2808C162.088 20.1142 162.255 20.6978 162.588 21.031C162.922 21.3632 163.485 21.5293 164.277 21.5293ZM185.427 15.9997C185.427 16.4375 185.375 16.9377 185.271 17.4996H172.587C172.649 19.041 173.065 20.1763 173.837 20.9051C174.607 21.6339 175.565 21.9983 176.711 21.9983C177.732 21.9983 178.58 21.7484 179.256 21.2482C179.933 20.7494 180.365 20.0731 180.552 19.2189H185.208C184.979 20.4269 184.49 21.5096 183.741 22.4674C182.99 23.4261 182.027 24.1761 180.851 24.7174C179.674 25.2587 178.367 25.5294 176.93 25.5294C175.243 25.5294 173.742 25.1703 172.43 24.4519C171.118 23.7334 170.098 22.7075 169.369 21.3742C168.639 20.0409 168.274 18.4681 168.274 16.6566C168.274 14.844 168.639 13.2663 169.369 11.9239C170.098 10.5799 171.118 9.55375 172.43 8.84611C173.742 8.13809 175.243 7.78402 176.93 7.78402C178.637 7.78402 180.131 8.13809 181.413 8.84611C182.693 9.55375 183.682 10.5277 184.38 11.7669C185.078 13.0058 185.427 14.4168 185.427 15.9997ZM180.99 15.5638C181.054 14.1462 180.684 13.0729 179.882 12.3445C179.079 11.6154 178.096 11.2513 176.93 11.2513C175.742 11.2513 174.742 11.6154 173.93 12.3445C173.117 13.0729 172.669 14.1462 172.587 15.5638H180.99Z" fill="#F02E65"/>
<path d="M13.5157 12.9208C13.5008 12.9578 13.3079 13.7143 13.1008 14.6118C12.8854 15.5091 12.5442 16.9256 12.3517 17.7634C11.9807 19.2986 11.7581 20.3072 11.7581 20.4405C11.7581 20.4775 11.9882 20.5075 12.2697 20.5075H12.7818L13.0114 19.4838C13.1451 18.9279 13.442 17.6521 13.679 16.651C13.9165 15.6499 14.2054 14.4336 14.3169 13.9439C14.4281 13.4545 14.5394 13.0099 14.5616 12.9578C14.5839 12.8912 14.4577 12.8691 14.072 12.8691C13.7827 12.8691 13.5304 12.8912 13.5157 12.9208ZM9.53314 16.1317L8.85092 16.8735L9.05142 17.1108C9.16237 17.2441 9.46685 17.578 9.72618 17.8526L10.2009 18.3565H11.5508L10.9127 17.6669C10.564 17.2965 10.2748 16.9402 10.2748 16.8959C10.2748 16.8439 10.5418 16.5104 10.8685 16.1542C11.1946 15.7912 11.4616 15.4792 11.4616 15.4423C11.4616 15.4124 11.1799 15.3903 10.8389 15.3903H10.2232L9.53314 16.1317ZM14.7244 15.4348C14.7244 15.4572 14.8507 15.5977 15.0063 15.7536C15.5852 16.3321 15.9929 16.8218 15.9705 16.9178C15.9559 16.9701 15.6738 17.3184 15.3328 17.6817L14.7174 18.3565H15.4069L16.0966 18.3492L16.7267 17.6594C17.0757 17.2741 17.3574 16.9326 17.3574 16.8883C17.3574 16.8514 17.0608 16.5027 16.6897 16.1098L16.0228 15.3903H15.3772C15.0137 15.3903 14.7244 15.4124 14.7244 15.4348Z" fill="#F02E65"/>
</svg>
