<svg width="177" height="44" viewBox="0 0 177 44" fill="none" xmlns="http://www.w3.org/2000/svg">
<path d="M7.74377 34.2628L12.6244 2.86329C12.6614 2.63119 12.7878 2.42315 12.9762 2.28438C13.1646 2.14562 13.3998 2.08732 13.6306 2.12217C13.7669 2.14735 13.8961 2.2024 14.009 2.28342C14.1219 2.36444 14.2157 2.46946 14.2838 2.59104L19.3222 12.0669L21.3195 8.20998C21.3742 8.10415 21.449 8.0102 21.5397 7.93353C21.6305 7.85685 21.7353 7.79894 21.8483 7.76312C21.9613 7.7273 22.0802 7.71426 22.1982 7.72476C22.3161 7.73526 22.4309 7.76908 22.5359 7.82429C22.695 7.91668 22.8271 8.04972 22.9188 8.20998L36.5096 34.2628H7.74377Z" fill="#FFA000"/>
<path d="M7.74377 34.2623L12.6244 2.8628C12.6614 2.6307 12.7878 2.42266 12.9762 2.2839C13.1646 2.14513 13.3998 2.08683 13.6306 2.12168C13.7669 2.14686 13.8961 2.20191 14.009 2.28293C14.1219 2.36396 14.2157 2.46897 14.2838 2.59055L19.3222 12.0664L21.3195 8.20949C21.3742 8.10366 21.449 8.00971 21.5397 7.93304C21.6305 7.85636 21.7353 7.79846 21.8483 7.76263C21.9613 7.72681 22.0802 7.71378 22.1982 7.72427C22.3161 7.73477 22.4309 7.76859 22.5359 7.8238C22.695 7.91619 22.8271 8.04923 22.9188 8.20949L36.5096 34.2623H7.74377Z" fill="#FFA000"/>
<path opacity="0.12" d="M19.1037 11.9132L0.542938 0.284424V43.7839L7.74378 34.2627L19.1037 11.9132Z" fill="url(#paint0_linear_129_675)"/>
<path d="M24.5933 22.0343L19.3372 12.0442L7.74377 34.2628L24.5933 22.0343Z" fill="#F57C00"/>
<path d="M36.5396 34.2628L32.7853 11.0005C32.7465 10.7623 32.6159 10.5491 32.4218 10.4075C32.2277 10.2658 31.9859 10.2072 31.7491 10.2443C31.5635 10.2709 31.3919 10.3586 31.261 10.4938L7.74377 34.2628L20.7714 41.6589C21.173 41.8806 21.6236 41.9969 22.0816 41.9969C22.5396 41.9969 22.9903 41.8806 23.3919 41.6589L36.5396 34.2628Z" fill="#FFCA28"/>
<path d="M32.8228 11.0231C32.7841 10.7849 32.6534 10.5718 32.4593 10.4301C32.2653 10.2885 32.0235 10.2298 31.7866 10.2669C31.6005 10.2918 31.4283 10.3798 31.2986 10.5164L26.6131 15.2279L22.9489 8.17964C22.8942 8.0738 22.8194 7.97986 22.7287 7.90318C22.6379 7.82651 22.5331 7.7686 22.4201 7.73278C22.3071 7.69696 22.1882 7.68392 22.0702 7.69442C21.9522 7.70491 21.8375 7.73874 21.7325 7.79395C21.5734 7.88634 21.4413 8.01938 21.3495 8.17964L19.3522 12.0365L14.3139 2.56826C14.2574 2.46428 14.1811 2.37257 14.0893 2.29838C13.9975 2.2242 13.892 2.16901 13.779 2.13598C13.666 2.10295 13.5476 2.09274 13.4306 2.10593C13.3137 2.11912 13.2005 2.15544 13.0975 2.21283C12.9752 2.27855 12.8692 2.37113 12.7874 2.48371C12.7055 2.5963 12.6498 2.726 12.6244 2.8632L7.74377 34.2627L7.87893 34.3308L26.6507 15.4245L31.3361 10.7131C31.4188 10.6266 31.5179 10.5578 31.6276 10.5109C31.7372 10.4639 31.8552 10.4397 31.9743 10.4397C32.0935 10.4397 32.2115 10.4639 32.3211 10.5109C32.4308 10.5578 32.5299 10.6266 32.6126 10.7131C32.7513 10.8446 32.8391 11.0215 32.8604 11.2122L36.5546 34.2476H36.5997L32.8228 11.0231ZM7.78883 34.2173L12.6244 3.09007C12.64 2.97336 12.6786 2.86095 12.7379 2.75944C12.7972 2.65794 12.876 2.56937 12.9697 2.49893C13.0634 2.4285 13.1701 2.37761 13.2836 2.34926C13.3971 2.32091 13.5151 2.31566 13.6306 2.33382C13.7675 2.35748 13.8973 2.41192 14.0104 2.4931C14.1235 2.57428 14.217 2.68011 14.2838 2.8027L19.3222 12.2785L21.3195 8.42164C21.3734 8.31509 21.4478 8.22042 21.5385 8.14318C21.6291 8.06593 21.7341 8.00765 21.8474 7.97174C21.9606 7.93583 22.0798 7.92302 22.198 7.93404C22.3163 7.94507 22.4311 7.97971 22.5359 8.03595C22.695 8.12834 22.8271 8.26138 22.9188 8.42164L26.5155 15.3111L7.78883 34.2173Z" fill="white" fill-opacity="0.2"/>
<path opacity="0.2" d="M23.3919 41.4018C22.9893 41.6249 22.5373 41.7419 22.0779 41.7419C21.6184 41.7419 21.1664 41.6249 20.7638 41.4018L7.7663 34.0964V34.3006L20.7714 41.6589C21.173 41.8807 21.6236 41.9969 22.0816 41.9969C22.5396 41.9969 22.9903 41.8807 23.3919 41.6589L36.5321 34.2931V34.0889L23.3919 41.4018Z" fill="#A52714"/>
<path d="M32.8228 11.0231C32.7841 10.7849 32.6534 10.5718 32.4593 10.4301C32.2653 10.2885 32.0235 10.2298 31.7866 10.2669C31.6005 10.2918 31.4283 10.3798 31.2986 10.5164L26.6131 15.2279L22.9489 8.17964C22.8942 8.0738 22.8194 7.97986 22.7287 7.90319C22.6379 7.82651 22.5331 7.7686 22.4201 7.73278C22.3071 7.69696 22.1882 7.68392 22.0702 7.69442C21.9522 7.70492 21.8375 7.73874 21.7325 7.79395C21.5734 7.88634 21.4413 8.01938 21.3495 8.17964L19.3522 12.0365L14.3139 2.56826C14.2574 2.46428 14.1811 2.37257 14.0893 2.29838C13.9975 2.2242 13.892 2.16901 13.779 2.13598C13.666 2.10295 13.5476 2.09274 13.4306 2.10593C13.3137 2.11912 13.2005 2.15544 13.0975 2.21283C12.9752 2.27855 12.8692 2.37113 12.7874 2.48371C12.7055 2.5963 12.6498 2.726 12.6244 2.8632L7.74377 34.2627L20.7714 41.6588C21.173 41.8806 21.6236 41.9968 22.0816 41.9968C22.5396 41.9968 22.9903 41.8806 23.3919 41.6588L36.5321 34.2929L32.8228 11.0231Z" fill="url(#paint1_linear_129_675)"/>
<path d="M64.2542 34.0963H61.1456V9.82823H75.2395V12.8532H64.2542V20.809H74.1807V23.7281H64.2768V34.0963H64.2542ZM80.5856 13.2994C80.2233 13.6816 79.7398 13.9245 79.2186 13.986C78.6974 14.0475 78.1713 13.9238 77.731 13.6363C77.2907 13.3488 76.9639 12.9154 76.807 12.4111C76.65 11.9068 76.6728 11.3632 76.8714 10.874C77.07 10.3848 77.4319 9.98081 77.8947 9.7317C78.3575 9.4826 78.8921 9.40403 79.4063 9.50956C79.9204 9.61509 80.3819 9.89809 80.711 10.3097C81.0401 10.7214 81.2162 11.2358 81.2089 11.7642C81.2123 12.0536 81.159 12.3408 81.0521 12.6095C80.9451 12.8781 80.7866 13.1228 80.5856 13.3297V13.2994ZM80.5856 34.0963H77.4545V17.4588H80.5631L80.5856 34.0963ZM87.0657 34.0963H83.9571V17.4588H86.9605V20.1662H87.0957C87.451 19.2073 88.1465 18.4152 89.0479 17.9428C89.8959 17.393 90.878 17.0894 91.8862 17.0655C92.6778 17.0413 93.4663 17.175 94.2064 17.4588L93.02 20.3779C92.4858 20.1983 91.9233 20.1189 91.3606 20.1435C90.7932 20.1409 90.2317 20.2603 89.7138 20.4937C89.1958 20.7272 88.7333 21.0693 88.3571 21.4972C87.9171 21.9665 87.5758 22.5207 87.3538 23.1263C87.1319 23.7319 87.0339 24.3765 87.0657 25.0213V34.0963ZM101.663 34.6559C100.528 34.6974 99.3977 34.4942 98.3474 34.0599C97.2972 33.6255 96.3513 32.9701 95.573 32.1376C94.0011 30.4225 93.1576 28.1561 93.2228 25.8229C93.1806 23.5272 93.9829 21.2969 95.4754 19.5612C96.1889 18.7135 97.0821 18.0377 98.0892 17.5836C99.0962 17.1295 100.192 16.9085 101.295 16.937C102.388 16.8869 103.48 17.0767 104.494 17.4933C105.508 17.9098 106.419 18.5431 107.166 19.3494C108.717 21.1253 109.525 23.4375 109.419 25.8002V26.3825H96.3389C96.3549 27.8759 96.9506 29.3036 97.9983 30.3604C98.4692 30.8315 99.0283 31.2037 99.6431 31.4555C100.258 31.7074 100.916 31.8338 101.58 31.8275C103.833 31.8275 105.334 30.8747 106.085 28.9614L108.848 30.126C108.301 31.4316 107.388 32.5485 106.22 33.34C104.878 34.2577 103.284 34.7285 101.663 34.6862V34.6559ZM106.115 23.7735C106.005 22.7508 105.549 21.7975 104.824 21.0737C104.354 20.6178 103.795 20.2665 103.181 20.0424C102.568 19.8183 101.915 19.7265 101.265 19.7729C100.164 19.7474 99.0931 20.1356 98.2611 20.8619C97.388 21.6214 96.7779 22.6412 96.5191 23.7735H106.115ZM120.314 34.6559C119.129 34.6814 117.957 34.3974 116.913 33.8316C115.989 33.3737 115.209 32.6669 114.66 31.7897H114.525V34.0585H111.521V9.82823H114.63V17.4588L114.495 19.7729H114.63C115.186 18.9012 115.964 18.196 116.883 17.731C117.931 17.1756 119.1 16.8922 120.284 16.9067C121.333 16.9041 122.371 17.1306 123.325 17.5706C124.279 18.0105 125.127 18.6535 125.811 19.4553C127.386 21.1714 128.23 23.4415 128.161 25.7775C128.233 28.1063 127.4 30.3715 125.841 32.0922C125.164 32.905 124.318 33.5585 123.363 34.0067C122.408 34.4548 121.368 34.6868 120.314 34.6862V34.6559ZM119.781 31.8275C120.481 31.8322 121.174 31.6878 121.815 31.4037C122.455 31.1195 123.029 30.7021 123.498 30.1789C124.567 28.9937 125.126 27.43 125.052 25.8305C125.126 24.231 124.567 22.6673 123.498 21.482C123.029 20.9588 122.455 20.5414 121.815 20.2573C121.174 19.9732 120.481 19.8287 119.781 19.8334C119.084 19.8202 118.392 19.9578 117.752 20.237C117.112 20.5162 116.539 20.9304 116.072 21.4518C115.027 22.6604 114.489 24.2301 114.57 25.8305C114.522 26.6239 114.631 27.419 114.888 28.1703C115.146 28.9216 115.548 29.6145 116.072 30.2092C116.54 30.729 117.113 31.1422 117.753 31.4213C118.393 31.7003 119.084 31.8388 119.781 31.8275ZM135.88 34.6937C134.277 34.7588 132.708 34.2194 131.48 33.1812C130.9 32.6894 130.439 32.0704 130.133 31.3718C129.828 30.6732 129.685 29.9133 129.715 29.1504C129.684 28.3205 129.858 27.4958 130.221 26.7501C130.584 26.0044 131.124 25.361 131.795 24.8776C133.307 23.8194 135.121 23.2882 136.961 23.3651C138.524 23.3008 140.077 23.6475 141.466 24.3709V23.8945C141.485 23.3428 141.384 22.7935 141.17 22.2853C140.956 21.7771 140.634 21.3222 140.227 20.9527C139.387 20.2016 138.294 19.8013 137.171 19.8334C136.314 19.8236 135.469 20.0428 134.723 20.4687C134.021 20.853 133.486 21.4864 133.222 22.2459L130.376 21.0283C130.854 19.9131 131.635 18.9564 132.628 18.268C133.936 17.3672 135.499 16.9211 137.081 16.9975C139.002 16.926 140.88 17.5877 142.337 18.8503C143.052 19.5221 143.611 20.3454 143.972 21.2609C144.333 22.1763 144.487 23.1611 144.425 24.144V34.0963H141.421V31.8275H141.278C140.708 32.7406 139.909 33.4858 138.961 33.9877C138.013 34.4897 136.95 34.7306 135.88 34.6862V34.6937ZM136.383 31.8275C137.682 31.824 138.929 31.3114 139.859 30.3982C140.354 29.9774 140.751 29.4527 141.024 28.861C141.296 28.2692 141.437 27.6247 141.436 26.9724C140.294 26.1702 138.914 25.7835 137.524 25.8759C136.31 25.7827 135.103 26.1316 134.123 26.859C133.778 27.1295 133.495 27.4728 133.295 27.8646C133.096 28.2565 132.983 28.6876 132.966 29.1277C132.957 29.5151 133.049 29.8981 133.234 30.238C133.418 30.578 133.689 30.8628 134.018 31.0637C134.712 31.5511 135.536 31.8172 136.383 31.8275ZM153.03 34.6937C151.404 34.7609 149.801 34.2849 148.472 33.34C147.298 32.4757 146.386 31.3002 145.836 29.9445L148.599 28.8025C148.913 29.7446 149.522 30.5587 150.334 31.122C151.147 31.6853 152.119 31.9675 153.105 31.9259C153.942 31.9642 154.77 31.7424 155.477 31.2906C155.761 31.1026 155.991 30.8448 156.148 30.5417C156.304 30.2386 156.381 29.9002 156.371 29.5588C156.371 28.4698 155.62 27.7287 154.118 27.3581L150.762 26.5338C149.667 26.2464 148.644 25.7312 147.758 25.0213C147.297 24.6583 146.927 24.1899 146.68 23.6548C146.433 23.1196 146.317 22.533 146.339 21.9434C146.338 21.2305 146.516 20.5288 146.856 19.9035C147.196 19.2782 147.687 18.7495 148.284 18.3663C149.536 17.5308 150.99 17.0547 152.49 16.9894C153.991 16.9242 155.48 17.2721 156.799 17.9957C157.929 18.625 158.798 19.642 159.247 20.8619L156.559 21.9736C155.95 20.514 154.689 19.7729 152.804 19.7729C151.994 19.74 151.191 19.9421 150.492 20.3552C150.208 20.5002 149.969 20.7206 149.801 20.9926C149.633 21.2645 149.542 21.5777 149.538 21.898C149.538 22.8509 150.289 23.4861 151.723 23.834L154.989 24.5902C156.304 24.8308 157.511 25.4785 158.443 26.443C159.166 27.2814 159.559 28.3577 159.547 29.468C159.553 30.1901 159.392 30.9036 159.076 31.552C158.761 32.2004 158.3 32.766 157.73 33.2039C156.391 34.2511 154.722 34.7773 153.03 34.6862V34.6937ZM169.233 34.6937C168.099 34.7352 166.968 34.532 165.918 34.0977C164.868 33.6634 163.922 33.008 163.144 32.1754C161.565 30.4497 160.724 28.168 160.801 25.8229C160.759 23.5272 161.561 21.2969 163.054 19.5612C163.767 18.7135 164.66 18.0377 165.667 17.5836C166.674 17.1295 167.77 16.9085 168.873 16.937C169.967 16.8869 171.058 17.0767 172.072 17.4933C173.086 17.9098 173.998 18.5431 174.745 19.3494C176.282 21.123 177.081 23.4256 176.975 25.7775V26.3599H163.91C163.926 27.8532 164.521 29.281 165.569 30.3377C166.038 30.8129 166.596 31.1893 167.211 31.4451C167.826 31.7008 168.485 31.8309 169.151 31.8275C171.366 31.8275 172.905 30.8747 173.656 28.9614L176.427 30.126C175.877 31.4345 174.958 32.552 173.784 33.34C172.445 34.2585 170.853 34.7295 169.233 34.6862V34.6937ZM173.678 23.8113C173.575 22.7884 173.121 21.8338 172.394 21.1115C171.925 20.6557 171.365 20.3043 170.752 20.0802C170.139 19.8562 169.486 19.7643 168.835 19.8107C167.736 19.7924 166.668 20.1797 165.832 20.8997C164.964 21.662 164.357 22.681 164.097 23.8113H173.678Z" fill="#5F6368"/>
<defs>
<linearGradient id="paint0_linear_129_675" x1="13.3528" y1="23.5164" x2="11.5527" y2="22.5817" gradientUnits="userSpaceOnUse">
<stop stop-color="#A52714"/>
<stop offset="0.4" stop-color="#A52714" stop-opacity="0.5"/>
<stop offset="0.8" stop-color="#A52714" stop-opacity="0"/>
</linearGradient>
<linearGradient id="paint1_linear_129_675" x1="6.97654" y1="9.11429" x2="37.2435" y2="39.186" gradientUnits="userSpaceOnUse">
<stop stop-color="white" stop-opacity="0.1"/>
<stop offset="1" stop-color="white" stop-opacity="0"/>
</linearGradient>
</defs>
</svg>
