<svg width="167" height="53" viewBox="0 0 167 53" fill="none" xmlns="http://www.w3.org/2000/svg">
<path d="M64.7642 15.3056C63.909 15.3056 63.1287 15.4195 62.4232 15.6471C61.739 15.8567 61.1393 16.2094 60.6241 16.7054C60.1292 17.1811 59.7294 17.8 59.4247 18.5622C59.1393 19.3233 58.9774 20.2319 58.9389 21.288C58.879 23.0016 58.879 24.7151 58.9389 26.4287C58.9774 27.4944 59.1393 28.403 59.4247 29.1545C59.7294 29.9156 60.1292 30.5442 60.6241 31.0402C61.1372 31.5158 61.7369 31.8686 62.4232 32.0984C63.1287 32.3079 63.909 32.4127 64.7642 32.4127C65.6044 32.4127 66.3847 32.2989 67.1052 32.0712C67.8257 31.8232 68.4446 31.4629 68.962 30.9905C69.4965 30.4955 69.9166 29.867 70.2223 29.1048C70.5269 28.3437 70.6793 27.449 70.6793 26.4207V24.9647H65.7038C65.2848 24.9647 65.0753 24.7509 65.0753 24.3234V23.9225C65.0753 23.4949 65.2848 23.2811 65.7038 23.2811H71.8129C72.2405 23.2811 72.4543 23.4949 72.4543 23.9225V26.4351C72.4543 27.5789 72.2832 28.6264 71.9412 29.5778C71.5991 30.511 71.0946 31.3213 70.4275 32.0086C69.7808 32.6928 68.9705 33.2256 67.9967 33.6073C67.0347 33.9686 65.9497 34.1492 64.7417 34.1492C63.5039 34.1492 62.4189 33.9686 61.4868 33.6073C60.5536 33.2267 59.7636 32.7029 59.1169 32.0359C58.4883 31.3699 58.003 30.58 57.6609 29.666C57.3371 28.7328 57.1564 27.7045 57.119 26.581C57.0805 25.7258 57.0613 24.8215 57.0613 23.868C57.0613 22.9059 57.0805 22.0016 57.119 21.155C57.1575 20.0325 57.3477 19.0138 57.6898 18.0988C58.0319 17.1656 58.5172 16.366 59.1457 15.7001C59.7924 15.0341 60.5824 14.5199 61.5156 14.1575C62.4488 13.777 63.5242 13.5867 64.7417 13.5867C66.0566 13.5867 67.18 13.7866 68.1122 14.1864C69.0454 14.5862 69.807 15.0672 70.3971 15.6295C70.9871 16.1822 71.4254 16.7631 71.7119 17.3724C71.9973 17.9818 72.1496 18.4863 72.1689 18.8861C72.1881 19.0571 72.14 19.1998 72.0246 19.3142C71.9102 19.4104 71.7579 19.4585 71.5676 19.4585H70.939C70.768 19.4585 70.644 19.4211 70.567 19.3463C70.4922 19.2501 70.4163 19.0977 70.3393 18.8893C70.1876 18.4617 69.9738 18.0341 69.698 17.6065C69.4307 17.179 69.0705 16.7984 68.6172 16.4649C68.1608 16.1228 67.6183 15.8465 66.9898 15.6359C66.3612 15.4264 65.6183 15.3216 64.761 15.3216L64.7642 15.3056ZM78.2459 20.9866C78.93 19.6718 80.2245 19.0144 82.1294 19.0144H83.1877C83.6067 19.0144 83.8162 19.2239 83.8162 19.6429V20.0438C83.8162 20.4628 83.6067 20.6723 83.1877 20.6723H81.9595C80.8157 20.6723 79.9113 21.0053 79.2464 21.6713C78.5805 22.3372 78.2475 23.2416 78.2475 24.3843V33.2353C78.2475 33.4255 78.1807 33.5779 78.0471 33.6922C77.9327 33.8066 77.7804 33.8638 77.5901 33.8638H77.1331C76.7141 33.8638 76.5046 33.6543 76.5046 33.2353V19.6702C76.5046 19.4799 76.5618 19.3276 76.6761 19.2132C76.7905 19.0796 76.9428 19.0128 77.1331 19.0128H77.5901C77.7804 19.0128 77.9327 19.0796 78.0471 19.2132C78.1807 19.3276 78.2475 19.4799 78.2475 19.6702V20.985L78.2459 20.9866ZM95.8837 33.8718C95.4647 33.8718 95.2552 33.6623 95.2552 33.2433V31.9012C95.0841 32.1684 94.8559 32.4357 94.5705 32.7029C94.3033 32.9702 93.9703 33.208 93.5716 33.4165C93.1718 33.626 92.6908 33.797 92.1285 33.9296C91.5758 34.0813 90.9291 34.1572 90.1883 34.1572C89.5042 34.1572 88.8468 34.0525 88.2161 33.843C87.6068 33.6153 87.0643 33.3106 86.5886 32.929C86.1321 32.5485 85.7612 32.1011 85.4758 31.5869C85.2086 31.0738 85.0749 30.5126 85.0749 29.9033C85.0749 29.2566 85.2086 28.6756 85.4758 28.1604C85.7612 27.6473 86.1514 27.1999 86.6463 26.8183C87.1412 26.4185 87.7313 26.0951 88.4165 25.8482C89.122 25.581 89.8933 25.3907 90.7303 25.2774L95.2424 24.6488V23.6499C95.2424 22.6216 94.9281 21.822 94.2995 21.2512C93.6902 20.6803 92.71 20.3949 91.3588 20.3949C90.2931 20.3949 89.4646 20.6044 88.8735 21.0235C88.3027 21.4233 87.9424 21.8615 87.7928 22.3383C87.7179 22.566 87.6228 22.7279 87.5074 22.8241C87.4112 22.899 87.2775 22.9364 87.1065 22.9364H86.7057C86.5346 22.9364 86.3823 22.8792 86.2487 22.7648C86.1343 22.6312 86.0771 22.4789 86.0771 22.3078C86.0771 22.0406 86.1722 21.7076 86.3625 21.3089C86.5528 20.9091 86.8574 20.5189 87.2765 20.1384C87.7041 19.7578 88.2562 19.4345 88.9328 19.1683C89.5988 18.8829 90.4091 18.7402 91.3636 18.7402C92.486 18.7402 93.4096 18.8925 94.1344 19.1972C94.8762 19.5018 95.4572 19.9016 95.8773 20.3965C96.2963 20.8722 96.5818 21.4051 96.7336 21.9952C96.9046 22.5852 96.9901 23.1662 96.9901 23.7381V33.2465C96.9901 33.6655 96.7806 33.875 96.3615 33.875H95.8757L95.8837 33.8718ZM90.4866 32.5009C91.1333 32.5009 91.7426 32.3961 92.3145 32.1866C92.9045 31.9589 93.4187 31.6259 93.857 31.1877C94.2846 30.7601 94.6266 30.208 94.8832 29.5313C95.1312 28.8654 95.2552 28.085 95.2552 27.1903V26.2202L91.5721 26.7333C88.4122 27.1609 86.8323 28.17 86.8323 29.7606C86.8323 30.2363 86.9371 30.6457 87.1466 30.9888C87.3743 31.3309 87.6597 31.6163 88.0028 31.8451C88.3449 32.0728 88.7351 32.2438 89.1733 32.3582C89.6009 32.4544 90.0392 32.5025 90.4882 32.5025L90.4866 32.5009ZM108.054 34.1572C106.854 34.1572 105.874 33.9435 105.113 33.5159C104.352 33.0883 103.733 32.5554 103.256 31.9172V38.6838C103.256 39.1028 103.047 39.3123 102.628 39.3123H102.142C101.723 39.3123 101.513 39.1028 101.513 38.6838V19.6429C101.513 19.2239 101.723 19.0144 102.142 19.0144H102.628C103.047 19.0144 103.256 19.2239 103.256 19.6429V20.985C103.732 20.3383 104.351 19.8054 105.113 19.3864C105.874 18.9588 106.854 18.745 108.054 18.745C109.158 18.745 110.091 18.9449 110.852 19.3447C111.632 19.7252 112.261 20.2394 112.737 20.8872C113.213 21.5157 113.555 22.2394 113.764 23.0582C113.991 23.8578 114.125 24.6766 114.165 25.5147C114.184 25.8001 114.193 26.1144 114.193 26.4575C114.193 26.7996 114.184 27.1139 114.165 27.4004C114.126 28.2406 113.992 29.069 113.764 29.8857C113.554 30.6853 113.212 31.409 112.737 32.0567C112.262 32.6853 111.633 33.1995 110.852 33.5992C110.091 33.9798 109.158 34.1701 108.054 34.1701V34.1572ZM103.256 25.4185C103.237 25.7039 103.227 26.0748 103.227 26.5313C103.227 26.9877 103.237 27.3587 103.256 27.6441C103.276 28.2149 103.371 28.7959 103.542 29.387C103.732 29.9578 104.017 30.472 104.398 30.9295C104.779 31.386 105.26 31.7665 105.841 32.0712C106.412 32.3566 107.097 32.4993 107.897 32.4993C108.737 32.4993 109.432 32.3566 109.981 32.0712C110.552 31.7858 111.009 31.4052 111.352 30.9295C111.713 30.4346 111.97 29.8734 112.122 29.2459C112.293 28.5992 112.398 27.9327 112.436 27.2464C112.455 26.7119 112.455 26.1791 112.436 25.6478C112.398 24.9637 112.293 24.3062 112.122 23.6756C111.97 23.047 111.713 22.4949 111.352 22.0192C111.01 21.5243 110.553 21.1341 109.981 20.8487C109.429 20.544 108.734 20.3917 107.897 20.3917C107.078 20.3917 106.383 20.544 105.812 20.8487C105.241 21.1534 104.76 21.5531 104.369 22.0481C104.008 22.5238 103.731 23.0566 103.54 23.6467C103.369 24.2368 103.274 24.8268 103.255 25.4169L103.256 25.4185ZM119.825 20.9866C120.338 20.3206 120.957 19.7781 121.681 19.3591C122.402 18.9401 123.382 18.7306 124.622 18.7306C125.593 18.7306 126.44 18.8925 127.164 19.2164C127.884 19.5403 128.484 19.9877 128.963 20.5585C129.458 21.1293 129.829 21.8054 130.075 22.5868C130.323 23.3672 130.447 24.2143 130.447 25.1283V33.2385C130.447 33.6575 130.238 33.867 129.819 33.867H129.338C128.919 33.867 128.709 33.6575 128.709 33.2385V25.2694C128.709 23.7461 128.338 22.5564 127.597 21.7001C126.855 20.8236 125.77 20.3853 124.342 20.3853C122.971 20.3853 121.877 20.8129 121.058 21.6681C120.239 22.5232 119.829 23.7242 119.829 25.271V33.2401C119.829 33.6591 119.62 33.8686 119.201 33.8686H118.715C118.296 33.8686 118.087 33.6591 118.087 33.2401V14.2153C118.087 13.7962 118.296 13.5867 118.715 13.5867H119.201C119.62 13.5867 119.829 13.7962 119.829 14.2153V20.9818L119.825 20.9866ZM142.096 13.5915C143.201 13.5915 144.21 13.7535 145.124 14.0774C146.038 14.4013 146.818 14.8962 147.465 15.5622C148.131 16.2089 148.645 17.0277 149.007 18.0186C149.388 18.9892 149.597 20.141 149.636 21.474C149.674 22.3292 149.694 23.1288 149.694 23.8728C149.694 24.6146 149.674 25.4142 149.636 26.2715C149.54 28.9942 148.845 30.9931 147.551 32.2684L149.379 34.8387C149.399 34.8772 149.418 34.9146 149.437 34.9509C149.456 34.9894 149.466 35.0562 149.466 35.1514C149.466 35.3032 149.409 35.4368 149.294 35.5522C149.18 35.6666 149.046 35.7238 148.893 35.7238H148.265C148.055 35.7238 147.875 35.6383 147.723 35.4673C147.571 35.3155 147.447 35.1818 147.351 35.0664L146.091 33.3235C144.947 33.8761 143.614 34.1524 142.092 34.1524C139.712 34.1524 137.875 33.5148 136.581 32.2395C135.305 30.9643 134.629 28.9749 134.552 26.2715C134.514 25.4164 134.495 24.6168 134.495 23.8728C134.495 23.1309 134.514 22.3313 134.552 21.474C134.591 20.141 134.791 18.9892 135.152 18.0186C135.533 17.0288 136.047 16.2099 136.694 15.5622C137.36 14.8962 138.141 14.4013 139.035 14.0774C139.949 13.7535 140.968 13.5915 142.092 13.5915H142.096ZM142.096 15.3072C141.297 15.3072 140.554 15.4312 139.868 15.6792C139.184 15.9069 138.584 16.2778 138.069 16.792C137.556 17.3051 137.146 17.9625 136.84 18.7642C136.555 19.5638 136.393 20.5152 136.355 21.6184C136.335 22.0459 136.316 22.4457 136.297 22.8177C136.297 23.179 136.297 23.5318 136.297 23.876C136.297 24.2181 136.297 24.5783 136.297 24.9567C136.316 25.318 136.335 25.7082 136.355 26.1272C136.393 27.2496 136.555 28.2117 136.84 29.0134C137.145 29.7938 137.545 30.4405 138.04 30.9536C138.553 31.4667 139.153 31.8472 139.839 32.0952C140.523 32.3229 141.273 32.4368 142.09 32.4368C142.909 32.4368 143.659 32.3229 144.341 32.0952C145.025 31.8472 145.615 31.4667 146.111 30.9536C146.625 30.4405 147.024 29.7938 147.311 29.0134C147.615 28.2138 147.787 27.2518 147.824 26.1272C147.843 25.7082 147.853 25.318 147.853 24.9567C147.853 24.5762 147.853 24.2159 147.853 23.876C147.853 23.5339 147.853 23.1812 147.853 22.8177C147.853 22.4564 147.843 22.0566 147.824 21.6184C147.785 20.5141 147.614 19.5627 147.311 18.7642C147.025 17.9646 146.626 17.3072 146.111 16.792C145.598 16.2789 144.999 15.908 144.312 15.6792C143.628 15.4312 142.885 15.3072 142.084 15.3072H142.096ZM156.035 32.1529H165.887C166.314 32.1529 166.528 32.3667 166.528 32.7943V33.2224C166.528 33.6415 166.314 33.851 165.887 33.851H154.865C154.446 33.851 154.236 33.6415 154.236 33.2224V14.5039C154.236 14.0849 154.446 13.8753 154.865 13.8753H155.407C155.826 13.8753 156.035 14.0849 156.035 14.5039V32.1513V32.1529ZM5.15313 40.191L3.229 39.0782L24.6798 1.92651L26.6039 3.0393L5.15313 40.191Z" fill="#E10098"/>
<path d="M2.79126 36.1117H45.6929V38.3357H2.79126V36.1117Z" fill="#E10098"/>
<path d="M25.0999 49.7513L3.63947 37.3615L4.75225 35.4374L26.2111 47.824L25.0999 49.7513ZM43.7415 17.458L22.2827 5.06988L23.3954 3.14575L44.8543 15.5355L43.7415 17.458Z" fill="#E10098"/>
<path d="M4.75713 17.4506L3.64435 15.5265L25.1208 3.15112L26.2336 5.07525L4.75713 17.4506Z" fill="#E10098"/>
<path d="M43.3455 40.191L21.8931 3.0393L23.8172 1.92651L45.268 39.0782L43.3455 40.191ZM4.49255 14.0517H6.71332V38.8313H4.49255V14.0517ZM41.7821 14.0517H44.0061V38.8313H41.7805L41.7821 14.0517Z" fill="#E10098"/>
<path d="M24.7199 48.8099L23.7482 47.1263L42.4123 36.3512L43.3839 38.0348L24.7199 48.8099Z" fill="#E10098"/>
<path d="M46.9532 39.5547C46.3324 40.6285 45.3109 41.4121 44.1129 41.7334C42.9149 42.0548 41.6384 41.8877 40.5635 41.2687C39.4897 40.6479 38.7061 39.6264 38.3847 38.4285C38.0634 37.2305 38.2305 35.9539 38.8494 34.879C39.4702 33.8052 40.4917 33.0217 41.6897 32.7003C42.8877 32.3789 44.1642 32.546 45.2391 33.165C47.4904 34.4477 48.2536 37.3339 46.9548 39.5547H46.9532ZM9.63796 18.0044C9.01716 19.0782 7.99565 19.8618 6.79767 20.1832C5.59969 20.5046 4.32314 20.3374 3.24826 19.7185C2.17446 19.0977 1.39087 18.0762 1.0695 16.8782C0.748137 15.6802 0.915258 14.4037 1.53418 13.3288C2.15498 12.255 3.17649 11.4714 4.37447 11.1501C5.57246 10.8287 6.849 10.9958 7.92389 11.6147C10.1607 12.8975 10.9223 15.7837 9.63957 18.0044H9.63796ZM1.54861 39.5547C0.262653 37.3179 1.02589 34.4654 3.26429 33.165C5.50109 31.879 8.35361 32.6422 9.654 34.8806C10.94 37.1174 10.1767 39.97 7.93832 41.2704C5.68709 42.5563 2.83457 41.7931 1.54861 39.5547ZM38.8655 18.0044C37.5795 15.7677 38.3427 12.9151 40.5811 11.6147C42.8179 10.3288 45.6704 11.092 46.9708 13.3304C48.2568 15.5672 47.4936 18.4197 45.2552 19.7201C44.1803 20.339 42.9037 20.5062 41.7057 20.1848C40.5078 19.8634 39.4863 19.0798 38.8655 18.0061V18.0044ZM24.2469 52.6724C21.6622 52.6724 19.5729 50.5831 19.5729 47.9984C19.5729 45.4136 21.667 43.3244 24.2469 43.3244C26.8268 43.3244 28.9209 45.4136 28.9209 47.9984C28.9188 49.2374 28.4257 50.425 27.5496 51.3011C26.6735 52.1772 25.4859 52.6703 24.2469 52.6724ZM24.2469 9.56875C21.6622 9.56875 19.5729 7.47947 19.5729 4.89473C19.5729 2.30998 21.667 0.220703 24.2469 0.220703C26.8268 0.220703 28.9209 2.30998 28.9209 4.89473C28.922 5.50883 28.8018 6.11709 28.5673 6.68465C28.3328 7.2522 27.9885 7.76788 27.5543 8.20212C27.1201 8.63635 26.6044 8.9806 26.0368 9.21512C25.4693 9.44963 24.861 9.56981 24.2469 9.56875Z" fill="#E10098"/>
</svg>
