<svg width="153" height="45" viewBox="0 0 153 45" fill="none" xmlns="http://www.w3.org/2000/svg">
<path d="M43.9085 15.4086C45.2257 11.4003 44.4333 3.40392 41.8809 0.451766C41.5464 0.0645169 40.924 0.119838 40.646 0.547319L37.5022 5.37036C36.7251 6.33593 35.3255 6.55724 34.2705 5.88331C30.8589 3.70065 26.7837 2.43327 22.4048 2.43327C18.0258 2.43327 13.9505 3.70065 10.539 5.88331C9.48924 6.55724 8.08964 6.33093 7.30749 5.37036L4.16354 0.547319C3.88568 0.119838 3.26304 0.069546 2.92859 0.451766C0.376356 3.40893 -0.416069 11.4054 0.90121 15.4086C1.33859 16.7414 1.45694 18.1495 1.19966 19.5175C0.942375 20.8754 0.685095 22.5149 0.685095 23.6565C0.685095 35.3797 10.4103 44.8797 22.3996 44.8797C34.3941 44.8797 44.1141 35.3747 44.1141 23.6565C44.1141 22.5149 43.8569 20.8754 43.5997 19.5175C43.3475 18.1495 43.4709 16.7414 43.9085 15.4086ZM22.3996 40.1424C13.1272 40.1424 5.5889 32.7695 5.5889 23.7068C5.5889 23.4101 5.59915 23.1184 5.6146 22.8267C5.9491 16.6508 9.78769 11.3752 15.2163 8.86061C17.3929 7.84468 19.832 7.28141 22.4048 7.28141C24.9776 7.28141 27.4115 7.84468 29.5933 8.86561C35.0218 11.3803 38.8604 16.6609 39.1949 22.8317C39.2104 23.1234 39.2207 23.4201 39.2207 23.7118C39.2154 32.7695 31.6721 40.1424 22.3996 40.1424Z" fill="#1EB4D4"/>
<path d="M29.6856 30.0335L25.3891 22.7511L21.7049 16.6808C21.6174 16.535 21.4579 16.4495 21.2881 16.4495H17.7684C17.5935 16.4495 17.434 16.54 17.3465 16.6909C17.259 16.8367 17.2642 17.0178 17.3517 17.1636L20.8764 22.9522L16.1476 30.0033C16.0498 30.1492 16.0447 30.3351 16.127 30.486C16.2093 30.6368 16.374 30.7325 16.5541 30.7325H20.0994C20.2641 30.7325 20.4185 30.652 20.5059 30.5161L23.0633 26.6135L25.3582 30.5012C25.4457 30.6471 25.6052 30.7375 25.7751 30.7375H29.2689C29.4437 30.7375 29.6034 30.6471 29.6856 30.5012C29.7733 30.3603 29.7733 30.1794 29.6856 30.0335Z" fill="#1EB4D4"/>
<path d="M64.1414 11.5063H68.6233V35.5257H64.1414V25.2914H59.078V35.531H54.5962V11.5063H59.078V21.9369H64.1414V11.5063Z" fill="#1B2738"/>
<path d="M82.4497 35.5304L81.513 30.5416H76.1363L75.2768 35.5304H70.795L75.7398 11.511H81.7753L86.9573 35.5304H82.4497ZM76.7227 27.2273H80.8907L78.7501 15.7305L76.7227 27.2273Z" fill="#1B2738"/>
<path d="M96.9399 31.1499V26.0102C96.9399 25.6028 96.8631 25.3312 96.7086 25.1904C96.5541 25.0496 96.266 24.9792 95.8492 24.9792H92.6951C90.0191 24.9792 88.6816 23.7118 88.6816 21.1721V15.2779C88.6816 12.7633 90.0808 11.511 92.8851 11.511H97.1716C99.9759 11.511 101.376 12.7683 101.376 15.2779V18.6273H96.8578V15.8864C96.8578 15.479 96.7805 15.2075 96.6265 15.0666C96.472 14.9258 96.1839 14.8554 95.7671 14.8554H94.2853C93.8427 14.8554 93.5439 14.9258 93.3899 15.0666C93.2354 15.2075 93.1581 15.479 93.1581 15.8864V20.7194C93.1581 21.1268 93.2354 21.3984 93.3899 21.5392C93.5439 21.68 93.8427 21.7505 94.2853 21.7505H97.3621C100.089 21.7505 101.453 22.9926 101.453 25.4821V31.7637C101.453 34.2782 100.038 35.5304 97.2076 35.5304H92.9988C90.1688 35.5304 88.7535 34.2732 88.7535 31.7637V28.4494H93.23V31.1499C93.23 31.5572 93.3073 31.829 93.4618 31.9699C93.6163 32.1105 93.9146 32.1811 94.3572 32.1811H95.839C96.2558 32.1811 96.5386 32.1105 96.6984 31.9699C96.8578 31.829 96.9399 31.5572 96.9399 31.1499Z" fill="#1B2738"/>
<path d="M113.411 11.5063H117.887V31.759C117.887 34.2734 116.472 35.5257 113.642 35.5257H108.893C106.063 35.5257 104.648 34.2685 104.648 31.759V11.5063H109.129V31.1504C109.129 31.5578 109.207 31.8293 109.361 31.9701C109.515 32.111 109.804 32.1813 110.221 32.1813H112.283C112.726 32.1813 113.025 32.111 113.179 31.9701C113.333 31.8293 113.411 31.5578 113.411 31.1504V11.5063Z" fill="#1B2738"/>
<path d="M126.069 26.1665V35.531H121.592V11.5063H130.628C133.458 11.5063 134.872 12.7636 134.872 15.2732V22.3946C134.872 24.4767 133.926 25.6937 132.027 26.0508L136.118 35.531H131.287L127.546 26.1665H126.069ZM126.069 14.8558V22.9277H129.3C129.717 22.9277 130 22.8573 130.159 22.7164C130.314 22.5756 130.391 22.304 130.391 21.8967V15.8868C130.391 15.4794 130.314 15.2078 130.159 15.067C130.005 14.9262 129.717 14.8558 129.3 14.8558H126.069Z" fill="#1B2738"/>
<path d="M148.427 35.5304L147.49 30.5416H142.113L141.253 35.5304H136.777L141.722 11.511H147.758L152.939 35.5304H148.427ZM142.705 27.2273H146.873L144.732 15.7305L142.705 27.2273Z" fill="#1B2738"/>
</svg>
