<svg width="166" height="40" viewBox="0 0 166 40" fill="none" xmlns="http://www.w3.org/2000/svg">
<path d="M66.2912 28.4575H62.5466V18.7907C62.5466 17.713 62.2815 16.8662 61.7514 16.2503C61.2212 15.6124 60.492 15.2935 59.5644 15.2935C58.5037 15.2935 57.6753 15.6454 57.0788 16.3492C56.5045 17.053 56.2176 18.0209 56.2176 19.2526V28.4575H52.4398V12.2912H56.1512V13.7099C57.1674 12.5001 58.5701 11.8953 60.3596 11.8953C62.3697 11.8953 63.8833 12.5991 64.8995 14.0068C66.1585 12.5991 67.8485 11.8953 69.9695 11.8953C72.0901 11.8953 73.6919 12.5112 74.7744 13.7429C75.8788 14.9526 76.4312 16.7232 76.4312 19.0547V28.4575H72.6534V18.7907C72.6534 17.713 72.3883 16.8662 71.8582 16.2503C71.328 15.6124 70.5988 15.2935 69.6712 15.2935C68.6105 15.2935 67.7821 15.6564 67.186 16.3823C66.5895 17.0861 66.2912 18.0428 66.2912 19.2526V28.4575Z" fill="#9696B4"/>
<path d="M94.8086 20.1764L94.7754 21.496H83.6747C83.7629 22.7058 84.1935 23.6625 84.9668 24.3664C85.7402 25.0702 86.7341 25.4222 87.949 25.4222C89.6945 25.4222 91.0862 24.6633 92.1247 23.1457L94.6763 25.5211C92.9531 27.7206 90.7106 28.8204 87.949 28.8204C85.497 28.8204 83.531 28.0506 82.051 26.5109C80.5484 24.9493 79.7973 22.9367 79.7973 20.4733C79.7973 18.0759 80.4824 16.0413 81.8519 14.3697C83.2436 12.7201 85.0882 11.8953 87.3857 11.8953C89.8381 11.8953 91.6827 12.7092 92.9199 14.3367C94.1789 15.9643 94.8086 17.9109 94.8086 20.1764ZM87.4189 15.3265C86.4691 15.3265 85.6848 15.6234 85.0664 16.2173C84.4699 16.8112 84.0721 17.57 83.8734 18.4938H90.7989C90.777 17.592 90.4788 16.8441 89.9045 16.2503C89.3298 15.6344 88.5014 15.3265 87.4189 15.3265Z" fill="#9696B4"/>
<path d="M105.936 11.8933C107.747 11.8933 109.26 12.4213 110.475 13.477V5.32788H114.253V28.4555H110.542V27.0038C109.394 28.2135 107.858 28.8184 105.936 28.8184C103.639 28.8184 101.739 28.0266 100.236 26.4429C98.7563 24.8373 98.0161 22.8138 98.0161 20.3724C98.0161 17.9309 98.7563 15.9074 100.236 14.3018C101.716 12.6961 103.616 11.8933 105.936 11.8933ZM109.382 16.6773C108.609 15.7095 107.549 15.2256 106.201 15.2256C104.854 15.2256 103.793 15.7095 103.019 16.6773C102.247 17.645 101.86 18.8768 101.86 20.3724C101.86 21.868 102.247 23.0998 103.019 24.0675C103.793 25.0353 104.854 25.5192 106.201 25.5192C107.549 25.5192 108.609 25.0353 109.382 24.0675C110.155 23.0998 110.542 21.868 110.542 20.3724C110.542 18.8768 110.155 17.645 109.382 16.6773Z" fill="#9696B4"/>
<path d="M118.412 12.2915H122.19V21.9583C122.19 23.0361 122.455 23.8939 122.985 24.5317C123.516 25.1475 124.267 25.4555 125.239 25.4555C126.277 25.4555 127.095 25.0926 127.691 24.3667C128.309 23.6189 128.619 22.6292 128.619 21.3974V12.2915H132.396V28.4578H128.685V27.1381C127.647 28.2599 126.244 28.8207 124.476 28.8207C122.621 28.8207 121.141 28.1939 120.036 26.9401C118.954 25.6644 118.412 23.9159 118.412 21.6943V12.2915Z" fill="#9696B4"/>
<path d="M143.591 22.3539L141.437 21.826C138.145 21.0562 136.5 19.3516 136.5 16.7122C136.5 15.2605 137.052 14.0948 138.156 13.215C139.261 12.3352 140.687 11.8953 142.431 11.8953C144.774 11.8953 146.816 12.797 148.562 14.6007L146.144 17.1741C145.149 15.8104 143.879 15.1286 142.332 15.1286C141.67 15.1286 141.128 15.2826 140.708 15.5905C140.311 15.8764 140.112 16.2283 140.112 16.6462C140.112 17.394 140.642 17.8999 141.703 18.1639L144.254 18.7577C147.568 19.5055 149.225 21.1881 149.225 23.8056C149.225 25.3012 148.651 26.5109 147.501 27.4347C146.375 28.3585 144.806 28.8204 142.796 28.8204C139.968 28.8204 137.726 27.7756 136.069 25.6861L138.455 23.2447C139.648 24.8063 141.194 25.5871 143.095 25.5871C144.752 25.5871 145.58 25.0372 145.58 23.9375C145.58 23.2337 144.916 22.7058 143.591 22.3539Z" fill="#9696B4"/>
<path d="M157.365 28.8204C155.796 28.8204 154.493 28.3805 153.455 27.5007C152.416 26.5989 151.897 25.4002 151.897 23.9045C151.897 22.1889 152.515 20.8582 153.753 19.9124C154.99 18.9667 156.625 18.4938 158.657 18.4938C159.673 18.4938 160.767 18.6807 161.938 19.0547V17.9659C161.938 17.1741 161.64 16.5362 161.043 16.0523C160.446 15.5464 159.684 15.2935 158.756 15.2935C157.056 15.2935 155.774 16.0744 154.912 17.6359L152.362 15.2605C152.958 14.1827 153.831 13.358 154.979 12.786C156.15 12.1922 157.421 11.8953 158.789 11.8953C160.933 11.8953 162.623 12.4232 163.859 13.4789C165.097 14.5347 165.715 16.0413 165.715 17.9989V28.4575H162.004V27.2037C160.789 28.2815 159.243 28.8204 157.365 28.8204ZM155.675 23.6406C155.675 24.1905 155.884 24.6413 156.304 24.9933C156.746 25.3451 157.354 25.5211 158.127 25.5211C159.718 25.5211 160.988 25.0592 161.938 24.1354V22.2879C160.745 21.848 159.619 21.6281 158.558 21.6281C157.674 21.6281 156.967 21.804 156.437 22.1559C155.929 22.5079 155.675 23.0028 155.675 23.6406Z" fill="#9696B4"/>
<path d="M32.1874 6.4263L23.2098 1.26856C20.2724 -0.423179 16.673 -0.423179 13.7355 1.26856L4.71641 6.4263C1.82037 8.11804 0 11.2539 0 14.5962V24.9529C0 28.3364 1.82037 31.431 4.71641 33.1227L13.6942 38.3218C16.6316 40.0135 20.2309 40.0135 23.1683 38.3218L32.1461 33.1227C35.0835 31.431 36.8625 28.3364 36.8625 24.9529V14.5962C36.9452 11.2539 35.1249 8.11804 32.1874 6.4263ZM18.4519 28.9966C13.3631 28.9966 9.22596 24.8704 9.22596 19.7952C9.22596 14.7199 13.3631 10.5938 18.4519 10.5938C23.5407 10.5938 27.7193 14.7199 27.7193 19.7952C27.7193 24.8704 23.582 28.9966 18.4519 28.9966Z" fill="#9696B4"/>
<path d="M32.1874 6.4263L23.2098 1.26856C20.2724 -0.423179 16.673 -0.423179 13.7355 1.26856L4.71641 6.4263C1.82037 8.11804 0 11.2539 0 14.5962V24.9529C0 28.3364 1.82037 31.431 4.71641 33.1227L13.6942 38.3218C16.6316 40.0135 20.2309 40.0135 23.1683 38.3218L32.1461 33.1227C35.0835 31.431 36.8625 28.3364 36.8625 24.9529V14.5962C36.9452 11.2539 35.1249 8.11804 32.1874 6.4263ZM18.4519 28.9966C13.3631 28.9966 9.22596 24.8704 9.22596 19.7952C9.22596 14.7199 13.3631 10.5938 18.4519 10.5938C23.5407 10.5938 27.7193 14.7199 27.7193 19.7952C27.7193 24.8704 23.582 28.9966 18.4519 28.9966Z" fill="url(#paint0_linear_129_323)" fill-opacity="0.2" style="mix-blend-mode:multiply"/>
<defs>
<linearGradient id="paint0_linear_129_323" x1="5" y1="32" x2="40.4523" y2="8.92664" gradientUnits="userSpaceOnUse">
<stop/>
<stop offset="0.850873" stop-color="white" stop-opacity="0.2"/>
</linearGradient>
</defs>
</svg>
