<svg width="191" height="56" viewBox="0 0 191 56" fill="none" xmlns="http://www.w3.org/2000/svg">
<path d="M72.2418 23.843C72.2418 18.0511 70.5751 15.0776 67.2417 14.9148C65.9154 14.8528 64.6204 15.0621 63.3605 15.5467C62.355 15.9034 61.6782 16.2561 61.3222 16.6128V30.4373C63.4544 31.7632 65.3481 32.3796 66.9991 32.2827C70.493 32.054 72.2418 29.2433 72.2418 23.843ZM76.3539 24.0833C76.3539 27.0258 75.6574 29.4682 74.2568 31.4104C72.6957 33.6085 70.5321 34.7406 67.766 34.8026C65.6806 34.8685 63.5327 34.2211 61.3222 32.8642V45.4288L57.7462 44.165V16.2755C58.333 15.5622 59.0881 14.9497 60.0036 14.4302C62.132 13.2013 64.7182 12.5693 67.7621 12.5383L67.8129 12.5887C70.5947 12.5538 72.7387 13.6859 74.245 15.9809C75.6496 18.086 76.3539 20.7842 76.3539 24.0833Z" fill="#646464"/>
<path d="M98.2089 32.3292C98.2089 36.2757 97.8098 39.0089 97.0117 40.5286C96.2096 42.0483 94.6838 43.2617 92.4302 44.165C90.6031 44.8783 88.6273 45.266 86.5067 45.3319L85.9159 43.0989C88.0717 42.8081 89.5897 42.5173 90.47 42.2266C92.2033 41.6451 93.3927 40.7534 94.046 39.5594C94.5703 38.5863 94.8285 36.7293 94.8285 33.9807V33.058C92.3832 34.159 89.8206 34.7057 87.1405 34.7057C85.3799 34.7057 83.8267 34.159 82.4886 33.058C80.9862 31.8601 80.235 30.3404 80.235 28.499V13.7518L83.811 12.5383V27.3825C83.811 28.9681 84.3275 30.1892 85.3604 31.046C86.3932 31.9028 87.7313 32.3137 89.3706 32.2827C91.01 32.2478 92.7667 31.6198 94.6329 30.3908V13.0733H98.2089V32.3292Z" fill="#646464"/>
<path d="M112.169 34.609C111.742 34.6439 111.351 34.6594 110.991 34.6594C108.968 34.6594 107.391 34.1825 106.265 33.225C105.142 32.2674 104.578 30.9454 104.578 29.2591V15.3027H102.129V13.0736H104.578V7.15375L108.15 5.8938V13.0736H112.169V15.3027H108.15V29.1621C108.15 30.4919 108.51 31.4339 109.23 31.9844C109.848 32.438 110.831 32.6977 112.169 32.7637V34.609Z" fill="#646464"/>
<path d="M133.82 34.318H130.244V20.6408C130.244 19.2491 129.916 18.0511 129.262 17.0509C128.507 15.9189 127.458 15.3529 126.113 15.3529C124.473 15.3529 122.423 16.2097 119.962 17.9232V34.318H116.386V1.6253L119.962 0.508789V15.3994C122.247 13.7518 124.743 12.9261 127.455 12.9261C129.348 12.9261 130.882 13.558 132.056 14.8179C133.233 16.0779 133.82 17.648 133.82 19.5243V34.318Z" fill="#646464"/>
<path d="M152.827 23.2847C152.827 21.0595 152.401 19.2219 151.551 17.7681C150.542 15.9964 148.973 15.0621 146.853 14.9652C142.932 15.19 140.976 17.9736 140.976 23.308C140.976 25.7542 141.383 27.7973 142.205 29.4371C143.253 31.5267 144.826 32.5579 146.923 32.523C150.859 32.492 152.827 29.4139 152.827 23.2847ZM156.743 23.308C156.743 26.4753 155.926 29.1115 154.294 31.2166C152.498 33.5736 150.018 34.7561 146.853 34.7561C143.715 34.7561 141.27 33.5736 139.505 31.2166C137.905 29.1115 137.107 26.4753 137.107 23.308C137.107 20.3306 137.971 17.8262 139.701 15.7871C141.528 13.6238 143.93 12.5383 146.9 12.5383C149.869 12.5383 152.287 13.6238 154.149 15.7871C155.879 17.8262 156.743 20.3306 156.743 23.308Z" fill="#646464"/>
<path d="M177.245 34.318H173.669V19.8654C173.669 18.2798 173.187 17.0431 172.225 16.1515C171.263 15.2637 169.979 14.8334 168.379 14.8683C166.681 14.8993 165.065 15.4498 163.531 16.5159V34.318H159.955V16.0778C162.013 14.593 163.907 13.6238 165.636 13.1702C167.268 12.7477 168.708 12.5383 169.948 12.5383C170.797 12.5383 171.595 12.6197 172.346 12.7826C173.751 13.1043 174.893 13.7014 175.774 14.5775C176.756 15.5467 177.245 16.7097 177.245 18.0705V34.318Z" fill="#646464"/>
<path d="M22.427 1.75598C20.5871 1.76445 18.8301 1.91993 17.284 2.191C12.7297 2.98827 11.9028 4.657 11.9028 7.73444V11.7988H22.6653V13.1536H11.9028H7.86372C4.73584 13.1536 1.99698 15.0165 1.14029 18.5603C0.152124 22.6224 0.108293 25.1572 1.14029 29.3986C1.90533 32.5558 3.73234 34.8053 6.86023 34.8053H10.5606V29.9331C10.5606 26.4131 13.6342 23.3083 17.284 23.3083H28.034C31.0264 23.3083 33.4152 20.8669 33.4152 17.8891V7.73444C33.4152 4.84436 30.9547 2.67335 28.034 2.191C26.1852 1.88605 24.2668 1.74751 22.427 1.75598ZM16.6067 5.02487C17.7184 5.02487 18.6262 5.93912 18.6262 7.06326C18.6262 8.18342 17.7184 9.08923 16.6067 9.08923C15.491 9.08923 14.5871 8.18342 14.5871 7.06326C14.5871 5.93912 15.491 5.02487 16.6067 5.02487Z" fill="url(#paint0_linear_129_741)"/>
<path d="M34.7574 13.1541V17.8896C34.7574 21.561 31.6161 24.6511 28.034 24.6511H17.284C14.3394 24.6511 11.9028 27.1483 11.9028 30.0702V40.2249C11.9028 43.115 14.4391 44.8149 17.284 45.6441C20.6908 46.6367 23.9578 46.816 28.034 45.6441C30.7435 44.8667 33.4152 43.3024 33.4152 40.2249V36.1606H22.6653V34.8058H33.4152H38.7965C41.9244 34.8058 43.09 32.6439 44.1777 29.3991C45.3014 26.0585 45.2536 22.8461 44.1777 18.5608C43.4047 15.4754 41.9284 13.1541 38.7965 13.1541H34.7574ZM28.7114 38.8701C29.827 38.8701 30.7309 39.7759 30.7309 40.8961C30.7309 42.0202 29.827 42.9345 28.7114 42.9345C27.5997 42.9345 26.6918 42.0202 26.6918 40.8961C26.6918 39.7759 27.5997 38.8701 28.7114 38.8701Z" fill="url(#paint1_linear_129_741)"/>
<path d="M184.208 9.91469H184.835V6.01838H186.321V5.55396H182.723V6.01838H184.208V9.91469ZM186.876 9.91469H187.412V6.35614L188.575 9.91424H189.171L190.383 6.3682V9.91469H190.967V5.55396H190.194L188.87 9.28983L187.741 5.55396H186.876V9.91469Z" fill="#646464"/>
<path opacity="0.44382" d="M37.2101 52.5471C37.2101 52.9111 36.837 53.2714 36.1122 53.6076C35.3874 53.9438 34.325 54.2493 32.9858 54.5066C31.6465 54.764 30.0566 54.9681 28.3067 55.1074C26.5569 55.2466 24.6814 55.3183 22.7874 55.3183C20.8934 55.3183 19.0179 55.2466 17.2681 55.1074C15.5183 54.9681 13.9283 54.764 12.5891 54.5066C11.2498 54.2493 10.1874 53.9438 9.46263 53.6076C8.73782 53.2714 8.36477 52.9111 8.36477 52.5471C8.36477 52.1832 8.73782 51.8229 9.46263 51.4867C10.1874 51.1505 11.2498 50.845 12.5891 50.5877C13.9283 50.3303 15.5183 50.1262 17.2681 49.9869C19.0179 49.8477 20.8934 49.776 22.7874 49.776C24.6814 49.776 26.5569 49.8477 28.3067 49.9869C30.0566 50.1262 31.6465 50.3303 32.9858 50.5877C34.325 50.845 35.3874 51.1505 36.1122 51.4867C36.837 51.8229 37.2101 52.1832 37.2101 52.5471Z" fill="url(#paint2_radial_129_741)"/>
<defs>
<linearGradient id="paint0_linear_129_741" x1="0.382641" y1="1.75562" x2="25.0081" y2="22.9332" gradientUnits="userSpaceOnUse">
<stop stop-color="#5A9FD4"/>
<stop offset="1" stop-color="#306998"/>
</linearGradient>
<linearGradient id="paint1_linear_129_741" x1="28.4527" y1="40.5544" x2="19.6571" y2="28.1156" gradientUnits="userSpaceOnUse">
<stop stop-color="#FFD43B"/>
<stop offset="1" stop-color="#FFE873"/>
</linearGradient>
<radialGradient id="paint2_radial_129_741" cx="0" cy="0" r="1" gradientUnits="userSpaceOnUse" gradientTransform="translate(22.7874 52.5472) rotate(-90) scale(2.77115 12.2926)">
<stop stop-color="#B8B8B8" stop-opacity="0.498039"/>
<stop offset="1" stop-color="#7F7F7F" stop-opacity="0"/>
</radialGradient>
</defs>
</svg>
