<svg width="163" height="43" viewBox="0 0 163 43" fill="none" xmlns="http://www.w3.org/2000/svg">
<g clip-path="url(#clip0_129_533)">
<g opacity="0.974563">
<path fill-rule="evenodd" clip-rule="evenodd" d="M24.8391 31.1681V19.4433C24.8391 19.0257 24.5005 18.6872 24.0828 18.6872H12.4142V6.58447H36.1311C36.5488 6.58447 36.8875 6.923 36.8875 7.34059V31.1681H24.8391Z" fill="#8E75FF"/>
<path opacity="0.404989" fill-rule="evenodd" clip-rule="evenodd" d="M12.4142 6.58447V18.6872H1.27571C1.06686 18.6872 0.897552 18.5179 0.897552 18.3091C0.897552 18.2092 0.937147 18.1133 1.00768 18.0425L12.4142 6.58447Z" fill="#8E75FF"/>
<path opacity="0.404989" fill-rule="evenodd" clip-rule="evenodd" d="M24.8391 42.3551V31.1682H36.8875L25.4853 42.6218C25.338 42.7698 25.0985 42.7703 24.9505 42.6231C24.8792 42.5521 24.8391 42.4557 24.8391 42.3551Z" fill="#8E75FF"/>
<path opacity="0.404989" fill-rule="evenodd" clip-rule="evenodd" d="M12.4142 18.6873H24.4609C24.6698 18.6873 24.8391 18.8565 24.8391 19.0653V31.1682H13.1705C12.7528 31.1682 12.4142 30.8297 12.4142 30.4121V18.6873Z" fill="#8E75FF"/>
</g>
<path d="M83.3019 14.9377H78.5366V23.9658C78.5366 24.7181 78.7242 25.2679 79.0995 25.6151C79.4748 25.9624 80.0233 26.1577 80.745 26.2011C81.4053 26.2408 82.2105 26.2381 83.1607 26.1931C83.1951 26.1914 83.24 26.1892 83.2953 26.1864C83.3659 26.1827 83.426 26.237 83.4296 26.3075C83.4297 26.3097 83.4298 26.3119 83.4298 26.3141V31.1432C83.4298 31.2084 83.3807 31.2632 83.3159 31.2703C83.2804 31.2742 83.2511 31.2774 83.2279 31.2799C79.4952 31.6787 76.8561 31.3096 75.3105 30.1726C73.7372 29.0151 72.9505 26.9462 72.9505 23.9658V14.9377H69.311C69.2404 14.9377 69.1832 14.8805 69.1832 14.8098V9.68342C69.1832 9.61281 69.2404 9.55557 69.311 9.55557H72.9505V5.96985C72.9505 5.86855 73.0103 5.77681 73.103 5.73591L78.3571 3.41806C78.4217 3.38955 78.4972 3.41881 78.5257 3.48341C78.5329 3.49967 78.5366 3.51725 78.5366 3.53502V9.55557H83.3019C83.3725 9.55557 83.4298 9.61281 83.4298 9.68342V14.8098C83.4298 14.8805 83.3725 14.9377 83.3019 14.9377ZM93.5584 13.2883C94.0781 11.8994 94.9369 10.8577 96.1349 10.1632C97.2313 9.52768 98.4426 9.18295 99.7687 9.12903C99.8276 9.12663 99.9083 9.12467 100.011 9.12313C100.081 9.12204 100.139 9.17843 100.14 9.24905C100.14 9.24969 100.14 9.25033 100.14 9.25097V15.1381C100.14 15.2543 100.046 15.3485 99.9299 15.3485C99.9236 15.3485 99.9172 15.3482 99.9109 15.3477C98.3001 15.2016 96.8538 15.5569 95.572 16.4134C94.2296 17.3105 93.5584 18.8007 93.5584 20.8841V31.1298C93.5584 31.2004 93.5012 31.2577 93.4305 31.2577H88.1002C88.0296 31.2577 87.9724 31.2004 87.9724 31.1298V9.68342C87.9724 9.61281 88.0296 9.55557 88.1002 9.55557H93.4305C93.5012 9.55557 93.5584 9.61281 93.5584 9.68342V13.2883ZM119.971 9.55557H125.301C125.372 9.55557 125.429 9.61281 125.429 9.68342V31.1298C125.429 31.2004 125.372 31.2577 125.301 31.2577H119.971C119.901 31.2577 119.843 31.2004 119.843 31.1298V28.6968C118.169 30.8092 115.816 31.8653 112.785 31.8653C109.898 31.8653 107.423 30.7585 105.358 28.5449C103.294 26.3313 102.262 23.6186 102.262 20.4066C102.262 17.1947 103.294 14.482 105.358 12.2683C107.423 10.0547 109.898 8.94791 112.785 8.94791C115.816 8.94791 118.169 10.0041 119.843 12.1164V9.68342C119.843 9.61281 119.901 9.55557 119.971 9.55557ZM109.537 24.8339C110.663 25.9624 112.092 26.5266 113.824 26.5266C115.556 26.5266 116.992 25.9551 118.133 24.8122C119.273 23.6692 119.843 22.2007 119.843 20.4066C119.843 18.6126 119.273 17.1441 118.133 16.0011C116.992 14.8581 115.556 14.2866 113.824 14.2866C112.092 14.2866 110.663 14.8581 109.537 16.0011C108.411 17.1441 107.848 18.6126 107.848 20.4066C107.848 22.2007 108.411 23.6764 109.537 24.8339ZM142.222 8.94791C145.137 8.94791 147.627 10.0547 149.691 12.2683C151.756 14.482 152.788 17.1947 152.788 20.4066C152.788 23.6186 151.756 26.3313 149.691 28.5449C147.627 30.7585 145.137 31.8653 142.222 31.8653C139.19 31.8653 136.852 30.8092 135.207 28.6968V39.8107C135.207 39.8813 135.149 39.9385 135.079 39.9385H129.748C129.678 39.9385 129.621 39.8813 129.621 39.8107V9.68342C129.621 9.61281 129.678 9.55557 129.748 9.55557H135.079C135.149 9.55557 135.207 9.61281 135.207 9.68342V12.1164C136.852 10.0041 139.19 8.94791 142.222 8.94791ZM136.895 24.8339C138.021 25.9624 139.45 26.5266 141.182 26.5266C142.915 26.5266 144.351 25.9551 145.491 24.8122C146.631 23.6692 147.201 22.2007 147.201 20.4066C147.201 18.6126 146.631 17.1441 145.491 16.0011C144.351 14.8581 142.915 14.2866 141.182 14.2866C139.45 14.2866 138.021 14.8581 136.895 16.0011C135.77 17.1441 135.207 18.6126 135.207 20.4066C135.207 22.2007 135.77 23.6764 136.895 24.8339ZM158.886 6.95132C157.962 6.95132 157.161 6.61132 156.482 5.93132C155.804 5.25132 155.465 4.44835 155.465 3.52239C155.465 2.59642 155.804 1.78622 156.482 1.09175C157.161 0.397279 157.962 0.0500488 158.886 0.0500488C159.838 0.0500488 160.654 0.397279 161.332 1.09175C162.011 1.78622 162.35 2.59642 162.35 3.52239C162.35 4.44835 162.011 5.25132 161.332 5.93132C160.654 6.61132 159.838 6.95132 158.886 6.95132ZM156.114 31.1298V9.68342C156.114 9.61281 156.172 9.55557 156.242 9.55557H161.573C161.643 9.55557 161.7 9.61281 161.7 9.68342V31.1298C161.7 31.2004 161.643 31.2577 161.573 31.2577H156.242C156.172 31.2577 156.114 31.2004 156.114 31.1298ZM56.0624 15.719C56.0624 16.2977 56.4449 16.7679 57.2099 17.1296C57.9749 17.4913 58.9059 17.8096 60.003 18.0845C61.1 18.3594 62.197 18.7066 63.294 19.1262C64.391 19.5458 65.322 20.2475 66.087 21.2313C66.852 22.2151 67.2345 23.4449 67.2345 24.9207C67.2345 27.1488 66.4046 28.8632 64.7446 30.0641C63.0847 31.2649 61.0134 31.8653 58.5307 31.8653C54.1846 31.8653 51.1904 30.22 49.548 26.9293C49.5338 26.9009 49.5158 26.8642 49.4941 26.8192C49.4634 26.7557 49.4901 26.6792 49.5537 26.6485C49.5549 26.6479 49.5561 26.6474 49.5574 26.6468L54.2559 24.5601C54.3796 24.5052 54.5246 24.5561 54.5868 24.6762C54.5875 24.6774 54.5882 24.6787 54.5888 24.6799C55.3206 26.0847 56.6346 26.787 58.5307 26.787C60.5226 26.787 61.5186 26.1649 61.5186 24.9207C61.5186 24.3419 61.1361 23.8717 60.371 23.51C59.606 23.1483 58.675 22.8228 57.578 22.5334C56.481 22.2441 55.384 21.8824 54.287 21.4483C53.19 21.0143 52.259 20.3271 51.4939 19.3866C50.7289 18.4462 50.3464 17.2671 50.3464 15.8492C50.3464 13.7079 51.1331 12.0224 52.7064 10.7926C54.2798 9.5628 56.2356 8.94791 58.574 8.94791C60.335 8.94791 61.9371 9.34578 63.3806 10.1415C64.691 10.864 65.736 11.8122 66.5439 13.0851C66.5851 13.15 66.6404 13.2413 66.7099 13.3589C66.7458 13.4197 66.7256 13.4981 66.6648 13.534C66.6605 13.5365 66.6561 13.5388 66.6516 13.5408L61.9409 15.6297C61.8577 15.6666 61.7601 15.6378 61.7103 15.5616C61.0033 14.4801 59.9579 13.9394 58.574 13.9394C57.8522 13.9394 57.2532 14.0985 56.7769 14.4168C56.3006 14.7351 56.0624 15.1692 56.0624 15.719Z" fill="#2F2E8B"/>
</g>
<defs>
<clipPath id="clip0_129_533">
<rect width="161.7" height="42.9" fill="white" transform="translate(0.650002 0.0500488)"/>
</clipPath>
</defs>
</svg>
