<svg width="175" height="36" viewBox="0 0 175 36" fill="none" xmlns="http://www.w3.org/2000/svg">
<path d="M40.6494 21.315C40.8369 23.0689 42.4323 26.0757 47.0623 26.0757C51.0976 26.0757 53.0375 23.5074 53.0375 21.0018C53.0375 18.7467 51.5044 16.8989 48.4701 16.2724L46.2801 15.8026C45.4356 15.6461 44.8726 15.1763 44.8726 14.4245C44.8726 13.5476 45.7484 12.8899 46.8434 12.8899C48.5951 12.8899 49.252 14.0487 49.3773 14.957L52.8496 14.174C52.662 12.514 51.1916 9.72656 46.8121 9.72656C43.496 9.72656 41.0561 12.0129 41.0561 14.7691C41.0561 16.9301 42.401 18.7155 45.3729 19.3731L47.4064 19.843C48.5951 20.0935 49.0645 20.6573 49.0645 21.3463C49.0645 22.1607 48.4075 22.881 47.031 22.881C45.2167 22.881 44.3092 21.7535 44.2156 20.532L40.6494 21.315Z" fill="#9696B4"/>
<path d="M66.3337 25.6049H70.3067C70.2441 25.0724 70.1501 24.0075 70.1501 22.8173V10.1953H65.9892V19.1529C65.9892 20.9382 64.9258 22.1909 63.0802 22.1909C61.1407 22.1909 60.2645 20.8128 60.2645 19.0902V10.1953H56.1039V19.9359C56.1039 23.2872 58.2311 26.012 61.9539 26.012C63.5803 26.012 65.3642 25.3856 66.2087 23.9449C66.2087 24.5713 66.271 25.2916 66.3337 25.6049Z" fill="#9696B4"/>
<path d="M78.7509 31.5567V24.1025C79.5015 25.136 81.0659 25.9817 83.1934 25.9817C87.5415 25.9817 90.4505 22.5364 90.4505 17.8697C90.4505 13.297 87.8543 9.85181 83.3496 9.85181C81.0349 9.85181 79.3143 10.8853 78.626 12.0755V10.1963H74.5907V31.5567H78.7509ZM86.3525 17.9011C86.3525 20.6573 84.6635 22.2546 82.5361 22.2546C80.4093 22.2546 78.6886 20.626 78.6886 17.9011C78.6886 15.1762 80.4093 13.5789 82.5361 13.5789C84.6635 13.5789 86.3525 15.1762 86.3525 17.9011Z" fill="#9696B4"/>
<path d="M92.8068 21.409C92.8068 23.8206 94.8087 26.0444 98.0938 26.0444C100.377 26.0444 101.847 24.9795 102.629 23.758C102.629 24.3531 102.692 25.1987 102.786 25.6059H106.602C106.508 25.0734 106.415 23.9772 106.415 23.1629V15.5834C106.415 12.4827 104.6 9.72656 99.7205 9.72656C95.5909 9.72656 93.3695 12.3887 93.1196 14.8004L96.8108 15.5834C96.9361 14.2366 97.9372 13.0778 99.7512 13.0778C101.503 13.0778 102.348 13.9861 102.348 15.0823C102.348 15.6147 102.067 16.0532 101.191 16.1785L97.4055 16.7423C94.8403 17.1181 92.8068 18.6528 92.8068 21.409H92.8068ZM98.9693 22.9437C97.6244 22.9437 96.9671 22.0667 96.9671 21.1584C96.9671 19.9682 97.8116 19.3731 98.8756 19.2166L102.348 18.6841V19.3731C102.348 22.098 100.721 22.9437 98.9693 22.9437Z" fill="#9696B4"/>
<path d="M114.644 25.606V23.7268C115.457 25.0423 117.084 25.9819 119.211 25.9819C123.591 25.9819 126.469 22.5053 126.469 17.8386C126.469 13.2658 123.873 9.78932 119.368 9.78932C117.084 9.78932 115.395 10.7916 114.707 11.8877V2.93018H110.609V25.606H114.644ZM122.308 17.8699C122.308 20.6887 120.619 22.2547 118.492 22.2547C116.396 22.2547 114.644 20.6574 114.644 17.8699C114.644 15.0511 116.396 13.5164 118.492 13.5164C120.619 13.5164 122.308 15.0511 122.308 17.8699Z" fill="#9696B4"/>
<path d="M128.825 21.409C128.825 23.8206 130.827 26.0444 134.112 26.0444C136.395 26.0444 137.866 24.9795 138.648 23.758C138.648 24.3531 138.71 25.1987 138.804 25.6059H142.621C142.527 25.0734 142.433 23.9772 142.433 23.1629V15.5834C142.433 12.4827 140.619 9.72656 135.738 9.72656C131.609 9.72656 129.388 12.3887 129.138 14.8004L132.829 15.5834C132.954 14.2366 133.956 13.0778 135.77 13.0778C137.522 13.0778 138.366 13.9861 138.366 15.0823C138.366 15.6147 138.085 16.0532 137.209 16.1785L133.424 16.7423C130.859 17.1181 128.825 18.6528 128.825 21.409H128.825ZM134.988 22.9437C133.643 22.9437 132.985 22.0667 132.985 21.1584C132.985 19.9682 133.83 19.3731 134.894 19.2166L138.366 18.6841V19.3731C138.366 22.098 136.74 22.9437 134.988 22.9437Z" fill="#9696B4"/>
<path d="M145.313 21.315C145.5 23.0689 147.096 26.0757 151.726 26.0757C155.761 26.0757 157.701 23.5074 157.701 21.0018C157.701 18.7467 156.168 16.8989 153.134 16.2724L150.944 15.8026C150.099 15.6461 149.536 15.1763 149.536 14.4245C149.536 13.5476 150.412 12.8899 151.507 12.8899C153.259 12.8899 153.916 14.0487 154.041 14.957L157.513 14.174C157.325 12.514 155.855 9.72656 151.476 9.72656C148.159 9.72656 145.72 12.0129 145.72 14.7691C145.72 16.9301 147.064 18.7155 150.037 19.3731L152.07 19.843C153.259 20.0935 153.728 20.6573 153.728 21.3463C153.728 22.1607 153.071 22.881 151.695 22.881C149.88 22.881 148.973 21.7535 148.879 20.532L145.313 21.315Z" fill="#9696B4"/>
<path d="M164.02 16.1472C164.114 14.7378 165.303 13.1091 167.461 13.1091C169.838 13.1091 170.84 14.6125 170.902 16.1472H164.02ZM171.309 20.1562C170.808 21.5342 169.745 22.5052 167.805 22.5052C165.74 22.5052 164.02 21.0331 163.926 18.9973H174.938C174.938 18.9346 175 18.3083 175 17.7132C175 12.7646 172.154 9.72656 167.398 9.72656C163.457 9.72656 159.828 12.9212 159.828 17.8385C159.828 23.0376 163.55 26.0757 167.774 26.0757C171.559 26.0757 173.999 23.8519 174.781 21.1897L171.309 20.1562Z" fill="#9696B4"/>
<path d="M20.4609 34.9434C19.5655 36.071 17.75 35.4532 17.7284 34.0134L17.413 12.9548H31.5727C34.1374 12.9548 35.5678 15.9171 33.973 17.9257L20.4609 34.9434Z" fill="#9999B6"/>
<path d="M20.4609 34.9434C19.5655 36.071 17.75 35.4532 17.7284 34.0134L17.413 12.9548H31.5727C34.1374 12.9548 35.5678 15.9171 33.973 17.9257L20.4609 34.9434Z" fill="url(#paint0_linear_129_407)" fill-opacity="0.2" style="mix-blend-mode:multiply"/>
<path d="M14.7023 1.05796C15.5977 -0.0697498 17.4132 0.548156 17.4348 1.98796L17.573 23.0465H3.5905C1.02571 23.0465 -0.404719 20.0842 1.19014 18.0756L14.7023 1.05796Z" fill="#9696B4"/>
<defs>
<linearGradient id="paint0_linear_129_407" x1="11.8336" y1="9.98487" x2="17.5729" y2="20.7887" gradientUnits="userSpaceOnUse">
<stop/>
<stop offset="1" stop-opacity="0"/>
</linearGradient>
</defs>
</svg>
