<svg width="193" height="40" viewBox="0 0 193 40" fill="none" xmlns="http://www.w3.org/2000/svg">
<path d="M44.9383 23.6464C45.1446 25.5758 46.8996 28.8832 51.9926 28.8832C56.4314 28.8832 58.5653 26.0581 58.5653 23.302C58.5653 20.8214 56.8789 18.7887 53.5412 18.0996L51.1321 17.5829C50.2032 17.4106 49.5839 16.8938 49.5839 16.067C49.5839 15.1023 50.5473 14.3788 51.7518 14.3788C53.6786 14.3788 54.4013 15.6535 54.5391 16.6527L58.3586 15.7914C58.1523 13.9654 56.5348 10.8992 51.7174 10.8992C48.0697 10.8992 45.3858 13.4142 45.3858 16.4459C45.3858 18.8231 46.8651 20.787 50.1343 21.5104L52.3711 22.0272C53.6786 22.3028 54.195 22.923 54.195 23.6809C54.195 24.5767 53.4723 25.3691 51.9581 25.3691C49.9624 25.3691 48.9642 24.1288 48.8612 22.7851L44.9383 23.6464Z" fill="#1F1F1F"/>
<path d="M73.191 28.3653H77.5614C77.4925 27.7796 77.3892 26.6082 77.3892 25.299V11.4148H72.8122V21.2681C72.8122 23.2319 71.6424 24.61 69.6123 24.61C67.4788 24.61 66.515 23.0941 66.515 21.1992V11.4148H61.9384V22.1295C61.9384 25.8158 64.2782 28.8132 68.3733 28.8132C70.1623 28.8132 72.1246 28.1242 73.0536 26.5393C73.0536 27.2284 73.1222 28.0208 73.191 28.3653Z" fill="#1F1F1F"/>
<path d="M86.85 34.9125V26.7129C87.6757 27.8498 89.3965 28.78 91.7367 28.78C96.5197 28.78 99.7196 24.9902 99.7196 19.8568C99.7196 14.8269 96.8638 11.0371 91.9086 11.0371C89.3624 11.0371 87.4697 12.174 86.7126 13.4832V11.4161H82.2737V34.9125H86.85ZM95.2118 19.8913C95.2118 22.9232 93.3539 24.6802 91.0137 24.6802C88.6742 24.6802 86.7815 22.8887 86.7815 19.8913C86.7815 16.894 88.6742 15.1369 91.0137 15.1369C93.3539 15.1369 95.2118 16.894 95.2118 19.8913Z" fill="#1F1F1F"/>
<path d="M102.312 23.7498C102.312 26.4027 104.514 28.8488 108.127 28.8488C110.638 28.8488 112.256 27.6773 113.116 26.3337C113.116 26.9883 113.185 27.9185 113.288 28.3664H117.486C117.383 27.7807 117.28 26.5749 117.28 25.6792V17.3417C117.28 13.9309 115.284 10.8992 109.917 10.8992C105.374 10.8992 102.93 13.8275 102.656 16.4804L106.716 17.3417C106.854 15.8603 107.955 14.5855 109.95 14.5855C111.878 14.5855 112.807 15.5846 112.807 16.7905C112.807 17.3762 112.497 17.8585 111.534 17.9963L107.37 18.6164C104.548 19.0299 102.312 20.718 102.312 23.7498H102.312ZM109.09 25.438C107.611 25.438 106.888 24.4733 106.888 23.4742C106.888 22.165 107.817 21.5104 108.987 21.3382L112.807 20.7525V21.5104C112.807 24.5078 111.017 25.438 109.09 25.438Z" fill="#1F1F1F"/>
<path d="M126.333 28.3665V26.2994C127.227 27.7464 129.016 28.78 131.357 28.78C136.175 28.78 139.34 24.9557 139.34 19.8224C139.34 14.7923 136.484 10.9682 131.529 10.9682C129.016 10.9682 127.158 12.0706 126.401 13.2764V3.4231H121.894V28.3665H126.333ZM134.763 19.8568C134.763 22.9575 132.905 24.6801 130.565 24.6801C128.26 24.6801 126.333 22.9231 126.333 19.8568C126.333 16.7561 128.26 15.0679 130.565 15.0679C132.905 15.0679 134.763 16.7561 134.763 19.8568Z" fill="#1F1F1F"/>
<path d="M141.932 23.7498C141.932 26.4027 144.134 28.8488 147.747 28.8488C150.259 28.8488 151.877 27.6773 152.736 26.3337C152.736 26.9883 152.806 27.9185 152.908 28.3664H157.107C157.004 27.7807 156.901 26.5749 156.901 25.6792V17.3417C156.901 13.9309 154.905 10.8992 149.536 10.8992C144.994 10.8992 142.551 13.8275 142.276 16.4804L146.336 17.3417C146.474 15.8603 147.575 14.5855 149.57 14.5855C151.498 14.5855 152.427 15.5846 152.427 16.7905C152.427 17.3762 152.117 17.8585 151.154 17.9963L146.99 18.6164C144.169 19.0299 141.932 20.718 141.932 23.7498H141.932ZM148.711 25.438C147.231 25.438 146.508 24.4733 146.508 23.4742C146.508 22.165 147.437 21.5104 148.607 21.3382L152.427 20.7525V21.5104C152.427 24.5078 150.638 25.438 148.711 25.438Z" fill="#1F1F1F"/>
<path d="M160.068 23.6464C160.274 25.5758 162.03 28.8832 167.122 28.8832C171.562 28.8832 173.695 26.0581 173.695 23.302C173.695 20.8214 172.009 18.7887 168.671 18.0996L166.262 17.5829C165.333 17.4106 164.714 16.8938 164.714 16.067C164.714 15.1023 165.677 14.3788 166.882 14.3788C168.809 14.3788 169.531 15.6535 169.67 16.6527L173.489 15.7914C173.282 13.9654 171.665 10.8992 166.848 10.8992C163.199 10.8992 160.516 13.4142 160.516 16.4459C160.516 18.8231 161.995 20.787 165.264 21.5104L167.501 22.0272C168.809 22.3028 169.325 22.923 169.325 23.6809C169.325 24.5767 168.602 25.3691 167.088 25.3691C165.092 25.3691 164.095 24.1288 163.991 22.7851L160.068 23.6464Z" fill="#1F1F1F"/>
<path d="M180.646 17.9618C180.749 16.4115 182.057 14.6199 184.431 14.6199C187.046 14.6199 188.148 16.2737 188.217 17.9618H180.646ZM188.664 22.3717C188.113 23.8876 186.943 24.9556 184.81 24.9556C182.538 24.9556 180.646 23.3364 180.543 21.097H192.655C192.655 21.028 192.724 20.339 192.724 19.6844C192.724 14.241 189.593 10.8992 184.362 10.8992C180.027 10.8992 176.035 14.4132 176.035 19.8223C176.035 25.5413 180.129 28.8832 184.775 28.8832C188.939 28.8832 191.623 26.4371 192.484 23.5086L188.664 22.3717Z" fill="#1F1F1F"/>
<path d="M22.7311 38.6376C21.7461 39.8779 19.7491 39.1984 19.7253 37.6146L19.3783 14.4502H34.954C37.7752 14.4502 39.3486 17.7087 37.5944 19.9182L22.7311 38.6376Z" fill="url(#paint0_linear_129_575)"/>
<path d="M22.7311 38.6376C21.7461 39.8779 19.7491 39.1984 19.7253 37.6146L19.3783 14.4502H34.954C37.7752 14.4502 39.3486 17.7087 37.5944 19.9182L22.7311 38.6376Z" fill="url(#paint1_linear_129_575)" fill-opacity="0.2"/>
<path d="M16.3965 1.36376C17.3815 0.123275 19.3786 0.802972 19.4023 2.38675L19.5543 25.5511H4.17357C1.3523 25.5511 -0.221167 22.2926 1.53318 20.0832L16.3965 1.36376Z" fill="#3ECF8E"/>
<defs>
<linearGradient id="paint0_linear_129_575" x1="19.3783" y1="19.5863" x2="33.2215" y2="25.3921" gradientUnits="userSpaceOnUse">
<stop stop-color="#249361"/>
<stop offset="1" stop-color="#3ECF8E"/>
</linearGradient>
<linearGradient id="paint1_linear_129_575" x1="13.241" y1="11.1832" x2="19.5542" y2="23.0675" gradientUnits="userSpaceOnUse">
<stop/>
<stop offset="1" stop-opacity="0"/>
</linearGradient>
</defs>
</svg>
