<svg width="48" height="41" viewBox="0 0 48 41" fill="none" xmlns="http://www.w3.org/2000/svg">
<path d="M21.4232 0.506441L3.53603 7.90793C2.54132 8.31959 2.55163 9.73247 3.55258 10.1292L21.5146 17.2522C23.0929 17.8781 24.8505 17.8781 26.4285 17.2522L44.3908 10.1292C45.3915 9.73247 45.4021 8.31959 44.4071 7.90793L26.5202 0.506441C24.8882 -0.168814 23.0549 -0.168814 21.4232 0.506441Z" fill="#FFBF00"/>
<path d="M25.5654 21.1423V38.9365C25.5654 39.7829 26.4189 40.3624 27.2056 40.0505L47.2207 32.2816C47.6777 32.1004 47.9774 31.6589 47.9774 31.1676V13.3734C47.9774 12.527 47.1239 11.9475 46.3372 12.2594L26.322 20.0283C25.8654 20.2095 25.5654 20.6509 25.5654 21.1423Z" fill="#26B5F8"/>
<path d="M20.8917 22.0602L14.9516 24.9283L14.3485 25.2198L1.80936 31.2279C1.01451 31.6114 0 31.0322 0 30.1492V13.4479C0 13.1284 0.163797 12.8526 0.383458 12.6449C0.475119 12.553 0.578983 12.4773 0.686915 12.4174C0.986576 12.2376 1.41397 12.1896 1.77736 12.3333L20.7919 19.8671C21.7584 20.2506 21.8343 21.6049 20.8917 22.0602Z" fill="#ED3049"/>
<path d="M20.8915 22.0602L14.9514 24.9283L0.383301 12.6449C0.474962 12.553 0.578826 12.4773 0.686758 12.4174C0.986419 12.2376 1.41381 12.1896 1.7772 12.3333L20.7917 19.8671C21.7582 20.2506 21.8341 21.6049 20.8915 22.0602Z" fill="black" fill-opacity="0.25"/>
</svg>
