<svg width="35" height="48" viewBox="0 0 35 48" fill="none" xmlns="http://www.w3.org/2000/svg">
<path d="M24.9854 30.4772L21.0009 23.5758L20.7897 23.2101L20.2326 22.2446L19.6751 23.2101L19.4639 23.5758L12.3446 35.9068L12.2739 36.0288L12.0884 36.3504L12.2744 36.6724L12.3446 36.794L16.3292 43.6953L16.5399 44.0614L17.0974 45.0265L17.6549 44.0614L17.8661 43.6953L24.9854 31.3643L25.0557 31.2423L25.2417 30.9207L25.0557 30.5987L24.9854 30.4772Z" fill="#84D5F7"/>
<path d="M18.759 22.7712L19.3165 21.8062H18.202H17.7796H3.49548H3.07307H1.9585L2.51601 22.7712L2.72721 23.1373L9.86903 35.5075L10.0802 35.8732L10.6373 36.8387L11.1948 35.8732L11.406 35.5075L18.5478 23.1373L18.759 22.7712Z" fill="#438CCB"/>
<path d="M3.59652 20.7935H10.7383H11.1607H12.2753L11.7178 19.828L11.5066 19.4623L7.93592 13.277L7.72471 12.9113L7.1672 11.9458L6.61014 12.9113L6.39893 13.277L2.8278 19.4623L2.61659 19.828L2.05908 20.7935H3.1741H3.59652Z" fill="#84D5F7"/>
<path d="M10.0287 14.877L13.1882 20.3495L13.2589 20.4715L13.4445 20.7935H13.816H13.9569H17.2534H17.3939H17.7654L17.9514 20.4715L18.0216 20.3499L21.9652 13.5193L22.0359 13.3972L22.2214 13.0757L22.0359 12.7537L21.9652 12.6317L17.1575 4.30457L16.9463 3.93845L16.3887 2.97339L15.8317 3.93845L15.6205 4.30457L10.0287 13.9894L9.958 14.1115L9.77246 14.4334L9.958 14.755L10.0287 14.877Z" fill="#55A6D7"/>
<path d="M31.5574 21.8062H31.135H22.6854H22.263H21.1479L21.7055 22.7712L21.9167 23.1373L26.1417 30.4548L26.3529 30.8205L26.9099 31.786L27.4675 30.8205L27.6787 30.4548L31.9032 23.1373L32.1144 22.7712L32.6719 21.8062H31.5574Z" fill="#55A6D7"/>
<path d="M19.4926 19.8279L18.9355 20.7934H20.0501H20.4725H31.0342H31.4566H32.5716L32.0141 19.8279L31.8029 19.4623L26.5218 10.3151L26.3106 9.94944L25.7536 8.98438L25.1961 9.94944L24.9849 10.3151L19.7038 19.4623L19.4926 19.8279Z" fill="#62BFEC"/>
<path d="M25.7531 6.01103L22.8066 11.1151L16.3889 0L9.54614 11.8523L9.18587 12.4728L7.16478 8.97287L0 21.3881L10.6373 39.8112L11.5033 38.3111L17.0973 48L25.8265 32.8815L26.9105 34.7589L34.6305 21.3881L25.7531 6.01103ZM31.4931 22.8985L26.91 30.8383L21.9686 22.282H31.8515L31.4913 22.9025L31.4931 22.8985ZM2.87942 20.3194L3.23969 19.6989L7.16884 12.893L11.4564 20.3194H2.87942ZM17.4922 20.3194H13.718L10.3198 14.4331L16.3889 3.92059L21.6749 13.0754L17.4922 20.3194ZM18.496 22.2797L10.6373 35.891L2.779 22.2797H18.496ZM20.2325 23.1926L24.6944 30.9212L17.0973 44.0794L12.6354 36.3513L20.2325 23.1926ZM25.3951 10.5517L25.7554 9.93118L31.7511 20.3194H19.7556L25.3951 10.5517Z" fill="#002C3B"/>
</svg>
