<svg width="24" height="24" viewBox="0 0 24 24" fill="none" xmlns="http://www.w3.org/2000/svg">
<path d="M4.00003 3.04012V0.800149C4.00003 0.346836 3.65331 9.52774e-05 3.19998 9.52774e-05C2.74665 9.52774e-05 2.39992 0.346822 2.39992 0.800149V3.04012C1.0132 3.38685 0 4.64023 0 6.13352C0 7.62682 1.01339 8.88021 2.39992 9.22693V23.2004C2.39992 23.6537 2.74665 24.0004 3.19998 24.0004C3.65331 24.0004 4.00003 23.6537 4.00003 23.2004V9.22693C5.38676 8.8802 6.39996 7.62682 6.39996 6.13352C6.39996 4.64023 5.38676 3.38684 4.00003 3.04012ZM3.19998 7.73344C2.31997 7.73344 1.59987 7.01339 1.59987 6.13333C1.59987 5.25328 2.31992 4.53323 3.19998 4.53323C4.08003 4.53323 4.80009 5.25328 4.80009 6.13333C4.80009 7.01353 4.08003 7.73344 3.19998 7.73344ZM12.8001 8.90683V0.800102C12.8001 0.346788 12.4533 4.76841e-05 12 4.76841e-05C11.5467 4.76841e-05 11.1999 0.346774 11.1999 0.800102V8.90683C9.81322 9.25356 8.80002 10.5069 8.80002 12.0002C8.80002 13.4935 9.81341 14.7469 11.1999 15.0936V23.2004C11.1999 23.6537 11.5467 24.0004 12 24.0004C12.4533 24.0004 12.8001 23.6537 12.8001 23.2004V15.0936C14.1868 14.7469 15.2 13.4935 15.2 12.0002C15.2 10.5069 14.1868 9.25355 12.8001 8.90683ZM12 13.6003C11.12 13.6003 10.3999 12.8802 10.3999 12.0002C10.3999 11.1201 11.1199 10.4001 12 10.4001C12.8801 10.4001 13.6001 11.1201 13.6001 12.0002C13.6001 12.8802 12.8801 13.6003 12 13.6003ZM21.6001 14.7735V0.800054C21.6001 0.346741 21.2534 0 20.8 0C20.3467 0 20 0.346727 20 0.800054V14.7735C18.6132 15.1202 17.6 16.3736 17.6 17.8669C17.6 19.3602 18.6134 20.6136 20 20.9603V23.2001C20 23.6534 20.3467 24.0001 20.8 24.0001C21.2534 24.0001 21.6001 23.6534 21.6001 23.2001V20.9601C22.9868 20.6134 24 19.36 24 17.8667C24 16.3734 22.9866 15.12 21.6001 14.7733V14.7735ZM20.8 19.467C19.92 19.467 19.1999 18.7469 19.1999 17.8669C19.1999 16.9868 19.92 16.2667 20.8 16.2667C21.6801 16.2667 22.4001 16.9868 22.4001 17.8669C22.3999 18.7469 21.6801 19.467 20.8 19.467Z" fill="url(#paint0_linear_0_1830)"/>
<defs>
<linearGradient id="paint0_linear_0_1830" x1="12.0538" y1="2.06783" x2="12.0538" y2="24.0004" gradientUnits="userSpaceOnUse">
<stop stop-color="#67BFFF"/>
<stop offset="1" stop-color="#3F54E6"/>
</linearGradient>
</defs>
</svg>
