<svg width="43" height="48" viewBox="0 0 43 48" fill="none" xmlns="http://www.w3.org/2000/svg">
<path d="M2.1266 35.5637L3.88867 36.5811L23.5189 2.58149L21.7568 1.56412L2.1266 35.5637Z" fill="#E535AB"/>
<path d="M40.9841 32.8505H1.72363V34.8852H40.9841V32.8505Z" fill="#E535AB"/>
<path d="M2.50059 33.993L22.1382 45.3311L23.1555 43.569L3.51796 32.2309L2.50059 33.993Z" fill="#E535AB"/>
<path d="M19.5597 4.44303L39.1973 15.7811L40.2146 14.0191L20.577 2.68095L19.5597 4.44303Z" fill="#E535AB"/>
<path d="M2.50558 14.0114L3.52295 15.7734L23.1605 4.43534L22.1432 2.67326L2.50558 14.0114Z" fill="#E535AB"/>
<path d="M19.2052 2.58344L38.8354 36.583L40.5975 35.5656L20.9673 1.56608L19.2052 2.58344Z" fill="#E535AB"/>
<path d="M5.315 12.6621H3.28027V35.3383H5.315V12.6621Z" fill="#E535AB"/>
<path d="M39.4395 12.6621H37.4048V35.3383H39.4395V12.6621Z" fill="#E535AB"/>
<path d="M20.9028 42.9304L21.7915 44.4696L38.8709 34.6085L37.9822 33.0694L20.9028 42.9304Z" fill="#E535AB"/>
<path d="M42.1363 36C40.9596 38.047 38.3366 38.7457 36.2896 37.569C34.2426 36.3923 33.5439 33.7692 34.7206 31.7222C35.8973 29.6752 38.5204 28.9765 40.5674 30.1532C42.6266 31.3422 43.3253 33.953 42.1363 36Z" fill="#E535AB"/>
<path d="M7.98693 16.2775C6.81022 18.3245 4.18714 19.0231 2.14015 17.8464C0.0931645 16.6697 -0.605508 14.0466 0.571203 11.9996C1.74791 9.95266 4.371 9.25399 6.41799 10.4307C8.46497 11.6197 9.16365 14.2305 7.98693 16.2775Z" fill="#E535AB"/>
<path d="M0.58341 36C-0.593301 33.953 0.105371 31.3422 2.15236 30.1532C4.19935 28.9765 6.81017 29.6752 7.99914 31.7222C9.17585 33.7692 8.47718 36.38 6.43019 37.569C4.37095 38.7457 1.76012 38.047 0.58341 36Z" fill="#E535AB"/>
<path d="M34.7328 16.2775C33.5561 14.2305 34.2548 11.6197 36.3018 10.4307C38.3488 9.25399 40.9596 9.95266 42.1486 11.9996C43.3253 14.0466 42.6266 16.6575 40.5796 17.8464C38.5326 19.0231 35.9095 18.3245 34.7328 16.2775Z" fill="#E535AB"/>
<path d="M21.3594 48C18.9937 48 17.0815 46.0878 17.0815 43.7222C17.0815 41.3565 18.9937 39.4443 21.3594 39.4443C23.7251 39.4443 25.6372 41.3565 25.6372 43.7222C25.6372 46.0756 23.7251 48 21.3594 48Z" fill="#E535AB"/>
<path d="M21.3594 8.55567C18.9937 8.55567 17.0815 6.64351 17.0815 4.27783C17.0815 1.91216 18.9937 0 21.3594 0C23.7251 0 25.6372 1.91216 25.6372 4.27783C25.6372 6.64351 23.7251 8.55567 21.3594 8.55567Z" fill="#E535AB"/>
</svg>
