<svg width="48" height="48" viewBox="0 0 48 48" fill="none" xmlns="http://www.w3.org/2000/svg">
<path fill-rule="evenodd" clip-rule="evenodd" d="M44.7256 0.279654C47.4692 3.45059 48.3209 12.0396 46.905 16.345C46.4346 17.7764 46.3021 19.289 46.5732 20.7583C46.8496 22.2168 47.126 23.9778 47.126 25.2041C47.126 37.7906 36.6777 48 23.7844 48C10.8967 48 0.442702 37.796 0.442702 25.2041C0.442702 23.9778 0.719261 22.2168 0.995826 20.7583C1.27238 19.289 1.14517 17.7764 0.675011 16.345C-0.740979 12.045 0.110828 3.45597 2.85431 0.279654C3.21383 -0.130891 3.88313 -0.0768721 4.1818 0.382288L7.56135 5.56275C8.40211 6.59451 9.90659 6.83759 11.035 6.11372C14.7022 3.7693 19.0829 2.408 23.79 2.408C28.4971 2.408 32.8776 3.7693 36.5448 6.11372C37.6789 6.83759 39.1834 6.59987 40.0187 5.56275L43.3981 0.382288C43.6969 -0.0768721 44.366 -0.136293 44.7256 0.279654ZM5.71397 25.2581C5.71397 34.9923 13.8172 42.9117 23.7844 42.9117C33.7517 42.9117 41.8603 34.9923 41.866 25.2635C41.866 24.9501 41.8549 24.6315 41.8383 24.3181C41.4787 17.69 37.3525 12.018 31.5171 9.31702C29.1718 8.22044 26.5556 7.61543 23.79 7.61543C21.0244 7.61543 18.4026 8.22044 16.0629 9.31166C10.2274 12.0126 6.10117 17.6792 5.7416 24.3127C5.72499 24.626 5.71397 24.9394 5.71397 25.2581ZM26.9981 24.2315L31.6166 32.0536C31.7107 32.2103 31.7107 32.4047 31.6166 32.5559C31.5281 32.7126 31.3565 32.8098 31.1686 32.8098H27.4129C27.2304 32.8098 27.0589 32.7126 26.9648 32.5559L24.498 28.3802L21.7489 32.572C21.6549 32.7179 21.489 32.8044 21.312 32.8044H17.501C17.3074 32.8044 17.1304 32.7016 17.0419 32.5396C16.9534 32.3776 16.9589 32.1779 17.064 32.0212L22.1472 24.4476L18.3583 18.2299C18.2643 18.0733 18.2587 17.8789 18.3528 17.7222C18.4468 17.5601 18.6182 17.4629 18.8063 17.4629H22.5897C22.7722 17.4629 22.9437 17.5548 23.0377 17.7114L26.9981 24.2315Z" fill="#1EB4D4"/>
</svg>
