<svg width="49" height="48" viewBox="0 0 49 48" fill="none" xmlns="http://www.w3.org/2000/svg">
<rect x="1.13621" y="15.5303" width="34.2281" height="34.2281" rx="5.98992" transform="rotate(-24.8683 1.13621 15.5303)" fill="white" stroke="#2A2A42" stroke-width="1.71141"/>
<rect x="4.40177" y="13.7447" width="34.2281" height="34.2281" rx="5.98992" transform="rotate(-17.3237 4.40177 13.7447)" fill="white" stroke="#2A2A42" stroke-width="1.71141"/>
<rect x="8.07712" y="11.9852" width="34.2281" height="34.2281" rx="5.98992" transform="rotate(-9.47061 8.07712 11.9852)" fill="white" stroke="#2A2A42" stroke-width="1.71141"/>
<rect x="12.9265" y="11.2153" width="34.2281" height="34.2281" rx="5.98992" fill="white" stroke="#2A2A42" stroke-width="1.71141"/>
<path d="M37.2753 25.8397C38.307 25.8397 39.2963 25.43 40.0258 24.7006C40.7554 23.9711 41.165 22.9818 41.165 21.9504C41.165 20.9187 40.7553 19.9295 40.0258 19.2C39.2963 18.4704 38.307 18.0608 37.2753 18.0608C36.244 18.0608 35.2548 18.4705 34.5252 19.2C33.7956 19.9294 33.386 20.9187 33.386 21.9504V23.895H27.5514V21.9504C27.5514 20.9187 27.1417 19.9295 26.4122 19.2C25.6828 18.4704 24.6935 18.0608 23.6621 18.0608C22.6304 18.0608 21.6412 18.4705 20.9116 19.2C20.1821 19.9294 19.7725 20.9187 19.7725 21.9504C19.7725 22.9818 20.1822 23.971 20.9116 24.7006C21.6411 25.4301 22.6304 25.8397 23.6621 25.8397H25.6067V31.6743H23.6621C22.6304 31.6743 21.6412 32.084 20.9116 32.8135C20.1821 33.543 19.7725 34.5323 19.7725 35.5636C19.7725 36.5953 20.1822 37.5846 20.9116 38.3141C21.6411 39.0437 22.6304 39.4533 23.6621 39.4533C24.6935 39.4533 25.6827 39.0436 26.4122 38.3141C27.1418 37.5846 27.5514 36.5953 27.5514 35.5636V33.619H33.386V36.0938C33.387 36.9844 33.7415 37.8383 34.3713 38.4681C35.0011 39.0979 35.855 39.452 36.7456 39.4534H37.2754C38.6652 39.4534 39.9492 38.712 40.6441 37.5088C41.3387 36.3052 41.3387 34.8224 40.6441 33.6191C39.9492 32.4159 38.6652 31.6745 37.2754 31.6745H35.3308V25.8399L37.2753 25.8397ZM35.3307 21.9501V21.9504C35.3307 21.4346 35.5356 20.9398 35.9005 20.5752C36.2651 20.2103 36.7599 20.0054 37.2754 20.0054C37.7912 20.0054 38.2861 20.2103 38.6506 20.5752C39.0155 20.9398 39.2204 21.4346 39.2204 21.9504C39.2204 22.4659 39.0155 22.9608 38.6506 23.3253C38.286 23.6902 37.7912 23.8951 37.2754 23.8951H35.3308L35.3307 21.9501ZM23.662 23.895C23.1462 23.895 22.6513 23.6902 22.2868 23.3253C21.9219 22.9607 21.717 22.4659 21.717 21.9504C21.717 21.4346 21.9219 20.9397 22.2868 20.5752C22.6514 20.2102 23.1462 20.0054 23.662 20.0054C24.1775 20.0054 24.6724 20.2102 25.0369 20.5752C25.4018 20.9397 25.6067 21.4345 25.6067 21.9504V23.895L23.662 23.895ZM25.6066 35.5637C25.6066 36.0796 25.4018 36.5744 25.0369 36.939C24.6723 37.3039 24.1775 37.5087 23.662 37.5087C23.1461 37.5087 22.6513 37.3039 22.2867 36.939C21.9218 36.5744 21.717 36.0796 21.717 35.5637C21.717 35.0482 21.9218 34.5534 22.2867 34.1888C22.6513 33.8239 23.1461 33.6191 23.662 33.6191H25.6066L25.6066 35.5637ZM37.2753 33.6191C37.9702 33.6191 38.6122 33.9898 38.9598 34.5914C39.3071 35.1931 39.3071 35.9344 38.9598 36.5364C38.6122 37.138 37.9702 37.5087 37.2753 37.5087H36.7456C36.3702 37.5087 36.0103 37.3594 35.7452 37.0942C35.4799 36.829 35.3307 36.4689 35.3307 36.0938V33.6191L37.2753 33.6191ZM33.3857 31.6745H27.5514V25.8399H33.386L33.3857 31.6745Z" fill="#2A2A42"/>
</svg>
