<svg width="45" height="48" viewBox="0 0 45 48" fill="none" xmlns="http://www.w3.org/2000/svg">
<path d="M39.0241 7.79156L28.1396 1.5383C24.5783 -0.512768 20.2144 -0.512768 16.653 1.5383L5.71819 7.79156C2.20702 9.84263 0 13.6446 0 17.6968V30.2532C0 34.3554 2.20702 38.1073 5.71819 40.1583L16.6028 46.4617C20.1642 48.5128 24.528 48.5128 28.0894 46.4617L38.974 40.1583C42.5354 38.1073 44.6922 34.3554 44.6922 30.2532V17.6968C44.7925 13.6446 42.5855 9.84263 39.0241 7.79156ZM22.3712 35.1558C16.2015 35.1558 11.1856 30.1532 11.1856 24C11.1856 17.8468 16.2015 12.8442 22.3712 12.8442C28.5408 12.8442 33.6069 17.8468 33.6069 24C33.6069 30.1532 28.591 35.1558 22.3712 35.1558Z" fill="url(#paint0_linear_733_1890)"/>
<defs>
<linearGradient id="paint0_linear_733_1890" x1="-38.338" y1="39.2977" x2="52.7892" y2="16.3324" gradientUnits="userSpaceOnUse">
<stop offset="0.265625" stop-color="#592EE1"/>
<stop offset="1" stop-color="#B836D9"/>
</linearGradient>
</defs>
</svg>
