<svg width="64" height="56" viewBox="0 0 64 56" fill="none" xmlns="http://www.w3.org/2000/svg">
<path fill-rule="evenodd" clip-rule="evenodd" d="M55.111 11.5063C55.111 12.1915 55.4122 12.7044 56.0133 13.0437C56.6145 13.3803 57.2103 13.3723 57.8034 13.0198L63.1363 9.84041C63.7121 9.4945 64 8.99221 64 8.32293V1.83953C63.9987 1.15037 63.6988 0.641449 63.0976 0.30217C62.4978 -0.0371086 61.9007 -0.0265062 61.3089 0.326026L55.9747 3.50544C55.4002 3.85134 55.1123 4.35363 55.111 5.02159V11.5063ZM53.9434 37.5698C54.5365 37.2305 54.8337 36.7216 54.8364 36.0431L54.8684 25.8117C54.8697 25.1305 55.1669 24.6202 55.7601 24.281L61.3382 21.0949C61.6128 20.9385 61.9087 20.8603 62.2259 20.8603C62.5432 20.8603 62.8391 20.9412 63.1136 21.0976C63.3882 21.2566 63.6041 21.4713 63.7627 21.7456C63.9214 22.0173 64 22.3115 64 22.6283V41.2303C64 41.9128 63.7028 42.4244 63.1083 42.7637L42.0606 54.7855C41.4728 55.1222 40.8837 55.1222 40.2946 54.7855L23.7761 45.3931C23.1789 45.0538 22.8804 44.5409 22.8804 43.8557V34.4765C22.8804 34.4659 22.8924 34.4593 22.903 34.4659C22.9124 34.4699 22.9244 34.4659 22.9244 34.4527V34.4421C22.9244 34.4355 22.9284 34.4288 22.935 34.4249L36.5385 26.6506C36.5505 26.644 36.5452 26.6241 36.5318 26.6241C36.5225 26.6241 36.5172 26.6201 36.5172 26.6108L36.5438 17.4145C36.5465 16.732 36.2519 16.2204 35.6574 15.8772C35.0656 15.5379 34.4712 15.5339 33.878 15.8772L23.7667 21.6701C23.1763 22.0094 22.5845 22.0094 21.9927 21.6701L11.8507 15.8639C11.5761 15.7049 11.2802 15.6267 10.963 15.6267C10.6458 15.6267 10.3486 15.7075 10.074 15.8639C9.7994 16.023 9.58347 16.2377 9.42486 16.512C9.26624 16.7837 9.18627 17.0779 9.18627 17.3947V34.0153C9.18627 34.3308 9.10763 34.6223 8.94902 34.898C8.79174 35.1723 8.57581 35.387 8.30123 35.5461C8.02666 35.7024 7.73209 35.7833 7.41486 35.7833C7.09763 35.7833 6.80173 35.7091 6.52716 35.5527L0.895701 32.3547C0.298567 32.0115 0 31.4999 0 30.8147L0.0506498 1.76531C0.0506498 1.44989 0.130623 1.15832 0.289237 0.882655C0.447851 0.610967 0.665112 0.397592 0.938354 0.23723C1.21293 0.0808437 1.50883 0 1.82606 0C2.14329 0 2.43785 0.0781931 2.71243 0.234579L21.994 11.2492C22.5831 11.5845 23.1736 11.5845 23.7641 11.2492L43.0403 0.234579C43.3162 0.0781931 43.6121 0 43.9294 0C44.2466 0 44.5425 0.0808437 44.8171 0.241206C45.0916 0.397592 45.3076 0.614942 45.4662 0.885305C45.6248 1.15964 45.7034 1.45519 45.7034 1.77061V30.828C45.7034 31.5105 45.4062 32.0194 44.8131 32.3614L34.7178 38.1437C34.1233 38.4829 33.8274 38.9958 33.8287 39.677C33.8301 40.3596 34.1286 40.8711 34.7258 41.2078L40.2946 44.3607C40.8837 44.6973 41.4715 44.6933 42.0593 44.3607L53.9434 37.5711V37.5698Z" fill="#007FFF"/>
</svg>
