<svg width="46" height="48" viewBox="0 0 46 48" fill="none" xmlns="http://www.w3.org/2000/svg">
<path d="M40.9047 10.3126L24.1372 0.64873C23.3943 0.223628 22.5532 0 21.6972 0C20.8412 0 20.0001 0.223628 19.2572 0.64873C18.5175 1.07627 17.9032 1.69054 17.4755 2.43007C17.0478 3.16961 16.8218 4.00849 16.8201 4.86278V6.12414L15.7272 5.49271C14.9842 5.06761 14.1431 4.84398 13.2871 4.84398C12.4312 4.84398 11.59 5.06761 10.8471 5.49271C10.1065 5.92101 9.49147 6.53648 9.06374 7.27743C8.63601 8.01837 8.41058 8.85874 8.41006 9.71428V10.9741L7.31709 10.3442C6.57432 9.91938 5.73348 9.69591 4.87781 9.69591C4.02213 9.69591 3.18129 9.91938 2.43853 10.3442C1.69851 10.7718 1.08377 11.3863 0.655825 12.1261C0.227875 12.8659 0.00172321 13.7051 0 14.5598L0 44.8324C0.00111915 45.2625 0.123134 45.6837 0.352121 46.0478C0.581108 46.4119 0.907843 46.7043 1.29504 46.8916C1.68223 47.0789 2.11429 47.1537 2.54191 47.1072C2.96952 47.0608 3.37547 46.895 3.71342 46.629L12.0273 40.0831L24.8513 47.4709C25.2012 47.669 25.5964 47.7732 25.9984 47.7732C26.4005 47.7732 26.7957 47.669 27.1455 47.4709C27.8521 47.0619 28.2926 46.3042 28.2926 45.4879V27.2741C28.29 25.8003 27.9001 24.353 27.1621 23.0773C26.4241 21.8016 25.3639 20.7421 24.0876 20.0051L19.8826 17.5816V4.86729C19.8833 4.54834 19.9679 4.23519 20.1279 3.95925C20.2879 3.68332 20.5176 3.45429 20.794 3.29514C21.0704 3.136 21.3838 3.05232 21.7028 3.05251C22.0217 3.0527 22.335 3.13675 22.6113 3.29623L39.3788 12.9556C40.1906 13.4247 40.8651 14.0987 41.3347 14.9103C41.8044 15.7218 42.0527 16.6425 42.0548 17.5801V40.265C42.0548 40.9115 41.706 41.5129 41.1453 41.8361L36.7027 44.3964V22.4241C36.6998 20.9505 36.3098 19.5036 35.5718 18.2282C34.8338 16.9527 33.7737 15.8935 32.4977 15.1566L22.1753 9.21064V12.7331L30.9687 17.7996C31.7809 18.2683 32.4556 18.9423 32.9253 19.7539C33.3949 20.5656 33.6431 21.4864 33.6448 22.4241V45.7149C33.6448 46.5267 34.0838 47.289 34.7919 47.6979C35.1417 47.8959 35.5369 48 35.939 48C36.341 48 36.7362 47.8959 37.0861 47.6979L42.6772 44.4761C44.1806 43.6086 45.1158 41.9955 45.1158 40.259V17.5741C45.1091 16.1014 44.7168 14.6561 43.978 13.3822C43.2392 12.1082 42.1796 11.0499 40.9047 10.3126ZM22.5511 22.6466C23.3635 23.1155 24.0384 23.7896 24.5081 24.6016C24.9777 25.4135 25.2257 26.3346 25.2272 27.2726V44.1709L14.6101 38.0535L18.0183 35.3745C18.5989 34.9212 19.0681 34.3412 19.3901 33.6789C19.7122 33.0165 19.8786 32.2893 19.8766 31.5528V21.1101L22.5526 22.6481L22.5511 22.6466ZM16.8186 19.3436V31.5468C16.8186 32.1075 16.5645 32.6292 16.1256 32.972L3.05643 43.2553V14.5553C3.05689 14.2363 3.14124 13.9232 3.30103 13.6472C3.46082 13.3712 3.69041 13.1421 3.96674 12.9829C4.24308 12.8237 4.55644 12.74 4.87535 12.7402C5.19426 12.7405 5.5075 12.8246 5.78361 12.9842L8.41006 14.4951V36.1292L11.4665 33.7237V9.71127C11.4668 9.39214 11.5511 9.07871 11.711 8.80251C11.8708 8.5263 12.1006 8.29706 12.3772 8.13782C12.6538 7.97859 12.9674 7.89497 13.2865 7.89539C13.6056 7.89581 13.919 7.98025 14.1952 8.14021L16.8186 9.64963V15.8166L13.7637 14.0546V17.5801L16.8216 19.3436H16.8186Z" fill="#0052CD"/>
</svg>
