<svg width="54" height="48" viewBox="0 0 54 48" fill="none" xmlns="http://www.w3.org/2000/svg">
<g clip-path="url(#clip0_722_1666)">
<path d="M26.9756 28.8085C29.6313 28.8085 31.7841 26.6557 31.7841 24C31.7841 21.3443 29.6313 19.1914 26.9756 19.1914C24.3199 19.1914 22.167 21.3443 22.167 24C22.167 26.6557 24.3199 28.8085 26.9756 28.8085Z" fill="#61DAFB"/>
<path d="M26.9749 33.8516C41.225 33.8516 52.777 29.4408 52.777 23.9999C52.777 18.5589 41.225 14.1482 26.9749 14.1482C12.7248 14.1482 1.17285 18.5589 1.17285 23.9999C1.17285 29.4408 12.7248 33.8516 26.9749 33.8516Z" stroke="#61DAFB" stroke-width="2.34564"/>
<path d="M18.4438 28.9257C25.5689 41.2666 35.1647 49.0656 39.8767 46.3451C44.5887 43.6246 42.6325 31.4149 35.5075 19.074C28.3824 6.73307 18.7866 -1.06586 14.0746 1.65461C9.36263 4.37508 11.3188 16.5848 18.4438 28.9257Z" stroke="#61DAFB" stroke-width="2.34564"/>
<path d="M18.444 19.0741C11.319 31.415 9.36281 43.6247 14.0748 46.3452C18.7868 49.0657 28.3826 41.2667 35.5077 28.9258C42.6327 16.5849 44.5889 4.37519 39.8769 1.65472C35.1649 -1.06575 25.5691 6.73318 18.444 19.0741Z" stroke="#61DAFB" stroke-width="2.34564"/>
</g>
<defs>
<clipPath id="clip0_722_1666">
<rect width="53.9498" height="48" fill="white"/>
</clipPath>
</defs>
</svg>
