<svg width="45" height="52" viewBox="0 0 45 52" fill="none" xmlns="http://www.w3.org/2000/svg">
<path d="M43.4892 52C43.4892 48.9257 43.4892 46.1094 43.0233 40.1013C42.4466 34.0655 39.317 31.0062 33.9635 29.9312C40.3055 29.1043 45 24.1435 45 16.5367C45 6.36662 38.3287 0 24.9037 0H0V10.5989H22.4331C28.3631 10.5989 31.3279 13.1545 31.3279 17.3712C31.3279 22.1668 28.3631 23.9782 22.4331 23.9782H0V34.8096H21.7742C26.4688 34.8096 29.0219 36.1326 29.4336 42.0856C29.7451 46.15 29.7061 48.1634 29.6687 50.0935V50.0965L29.6683 50.1202C29.6565 50.7333 29.6449 51.3387 29.6449 52H43.4892Z" fill="#2A2A42"/>
<path d="M0 43.9253V52H17.6143V46.8321C17.6143 45.7464 17.0835 43.9253 14.6384 43.9253H0Z" fill="#2A2A42"/>
</svg>
