<svg width="48" height="40" viewBox="0 0 48 40" fill="none" xmlns="http://www.w3.org/2000/svg">
<path fill-rule="evenodd" clip-rule="evenodd" d="M40.1549 2.77683L41.1667 4.10894C41.4324 4.46052 41.366 4.96446 41.0144 5.2301L39.9401 6.04655C40.1354 6.56612 40.2604 7.12084 40.3112 7.68727L41.5339 7.85525C41.9715 7.91385 42.2762 8.32012 42.2176 8.75765L41.991 10.4179C41.9324 10.8554 41.5261 11.164 41.0886 11.1015L39.7526 10.9179C39.5143 11.4375 39.2096 11.9141 38.8502 12.3399L39.6002 13.3243C39.8659 13.6759 39.7956 14.1798 39.444 14.4455L38.1119 15.4573C37.7603 15.7229 37.2563 15.6526 36.9907 15.3049L36.1742 14.2306C35.6508 14.426 35.1 14.551 34.5296 14.6017L34.3616 15.8245C34.303 16.262 33.8968 16.5667 33.4592 16.5081L31.799 16.2815C31.3615 16.2229 31.0568 15.8167 31.1154 15.3791L31.299 14.0431C30.7833 13.8048 30.3028 13.5001 29.877 13.1446L28.8926 13.8908C28.541 14.1564 28.0371 14.09 27.7714 13.7384L26.7596 12.4063C26.494 12.0547 26.5604 11.5508 26.912 11.2851L27.9863 10.4687C27.7909 9.94522 27.6659 9.39441 27.6152 8.82797L26.3924 8.65999C25.9549 8.60139 25.6463 8.19512 25.7088 7.75759L25.9354 6.09734C25.9979 5.65981 26.4002 5.35511 26.8378 5.4137L28.1738 5.59731C28.4121 5.08165 28.7168 4.60116 29.0723 4.17535L28.3261 3.19092C28.0605 2.84324 28.1269 2.33931 28.4785 2.07367L29.8106 1.06189C30.1622 0.796248 30.6661 0.862658 30.9318 1.21424L31.7482 2.28852C32.2678 2.0932 32.8225 1.96819 33.3889 1.91741L33.5569 0.694679C33.6155 0.257154 34.0218 -0.0514582 34.4593 0.00713896L36.1196 0.233715C36.5571 0.292312 36.8657 0.698586 36.8032 1.13611L36.6196 2.47213C37.1391 2.71042 37.6157 3.01513 38.0455 3.37452L39.0299 2.62839C39.3815 2.35884 39.8854 2.42525 40.1549 2.77683ZM11.5908 26.2196V19.7739H14.9113C15.5285 19.7739 15.9973 19.8247 16.3215 19.9341C16.6458 20.0396 16.9114 20.2349 17.1067 20.5201C17.306 20.8091 17.4075 21.1568 17.4075 21.567C17.4075 21.9225 17.3294 22.235 17.177 22.4928C17.0247 22.7546 16.8137 22.9655 16.5481 23.1257C16.3801 23.2272 16.1457 23.3132 15.8488 23.3796C16.0871 23.4616 16.259 23.5359 16.3645 23.6179C16.4387 23.6726 16.5442 23.7859 16.6809 23.9578C16.8176 24.1296 16.9114 24.2664 16.9583 24.3601L17.9271 26.2235H15.677L14.6144 24.2586C14.4777 24.0046 14.3605 23.8367 14.255 23.7624C14.1105 23.6648 13.9464 23.614 13.7667 23.614H13.5909V26.2235H11.5908V26.2196ZM18.6146 37.4429H14.8957L14.3605 39.193H11.0087L15.005 28.5713H18.599L22.5797 39.193H19.142L18.6146 37.4429ZM17.9193 35.142L16.7591 31.3215L15.5949 35.142H17.9193ZM23.3532 28.5713H28.8144C30.0059 28.5713 30.8966 28.8526 31.4865 29.419C32.0764 29.9855 32.3732 30.7941 32.3732 31.8371C32.3732 32.9114 32.049 33.7513 31.4044 34.3568C30.7599 34.9623 29.7715 35.2631 28.4472 35.2631H26.6463V39.193H23.3532V28.5713ZM26.6463 33.1106H27.455C28.0917 33.1106 28.541 33.0013 28.7988 32.7786C29.0566 32.5598 29.1856 32.2747 29.1856 31.9348C29.1856 31.6027 29.0723 31.3176 28.8496 31.0871C28.6269 30.8566 28.205 30.7394 27.5878 30.7394H26.6463V33.1106ZM33.7014 28.5713H36.9946V39.193H33.7014V28.5713ZM13.5909 22.3913H14.4308C14.5206 22.3913 14.6964 22.36 14.9582 22.3014C15.091 22.2741 15.2004 22.2077 15.2824 22.0983C15.3683 21.9889 15.4074 21.8639 15.4074 21.7233C15.4074 21.5162 15.341 21.3521 15.2082 21.2428C15.0754 21.1295 14.8293 21.0748 14.4659 21.0748H13.5909V22.3913ZM18.3099 19.7739H23.6423V21.149H20.31V22.1764H23.4001V23.489H20.31V24.7586H23.7399V26.2157H18.3099V19.7739ZM24.2126 24.0867L26.1033 23.9695C26.1424 24.2781 26.2284 24.5086 26.3534 24.6687C26.5604 24.9266 26.8534 25.0594 27.2323 25.0594C27.5136 25.0594 27.7363 24.993 27.8886 24.8602C28.041 24.7273 28.1191 24.5711 28.1191 24.3953C28.1191 24.2273 28.0449 24.0789 27.9003 23.946C27.7558 23.8132 27.4159 23.6921 26.8807 23.571C26.0096 23.3757 25.3885 23.114 25.0134 22.7897C24.6384 22.4655 24.4509 22.0514 24.4509 21.5475C24.4509 21.2154 24.5486 20.9029 24.74 20.6099C24.9314 20.3169 25.2205 20.0825 25.6072 19.9146C25.994 19.7466 26.5213 19.6645 27.1933 19.6645C28.0175 19.6645 28.6426 19.8169 29.0762 20.1255C29.5059 20.4341 29.7637 20.9185 29.8458 21.5904L27.9746 21.7037C27.9238 21.4107 27.8183 21.1959 27.662 21.067C27.5019 20.9341 27.2792 20.8677 27.0018 20.8677C26.7714 20.8677 26.5956 20.9185 26.4784 21.0162C26.3612 21.1138 26.3026 21.2349 26.3026 21.3756C26.3026 21.4771 26.3534 21.567 26.4471 21.6529C26.5409 21.735 26.7596 21.817 27.1112 21.8912C27.9824 22.0787 28.6074 22.2702 28.9824 22.4616C29.3574 22.653 29.6348 22.8913 29.8028 23.1765C29.9747 23.4577 30.0606 23.7781 30.0606 24.1296C30.0606 24.5437 29.9473 24.9227 29.7168 25.2703C29.4903 25.618 29.1699 25.8837 28.7598 26.0634C28.3496 26.243 27.8339 26.3329 27.2089 26.3329C26.1151 26.3329 25.3533 26.1219 24.9314 25.7C24.5095 25.2703 24.2712 24.7351 24.2126 24.0867ZM30.3497 19.7739H36.4086V21.3678H34.3773V26.2196H32.385V21.3678H30.3497V19.7739ZM23.6462 4.47615C22.9313 4.42146 22.2086 4.42927 21.4937 4.49959C19.2944 4.71054 17.1575 5.51137 15.3918 6.88254C13.3487 8.46466 11.7978 10.832 11.2001 13.9689L11.0126 14.9494L10.036 15.1213C9.07892 15.2893 8.2234 15.5198 7.47335 15.8128C6.74675 16.094 6.09827 16.4417 5.53183 16.8519C5.07868 17.18 4.68803 17.5472 4.35598 17.9457C3.32858 19.1762 2.85199 20.7193 2.86371 22.2819C2.87543 23.8679 3.39108 25.4696 4.34426 26.786C4.69975 27.2744 5.10993 27.7236 5.57871 28.1143C6.0553 28.5088 6.59049 28.8369 7.19209 29.0831C7.53195 29.2237 7.89525 29.3409 8.27418 29.4346V32.3606C7.49289 32.22 6.77409 32.009 6.10218 31.7317C5.21541 31.3644 4.43021 30.8918 3.73876 30.3136C3.08247 29.7667 2.50822 29.1456 2.01991 28.4697C0.719052 26.6728 0.0158862 24.4773 0.000260303 22.2897C-0.0153656 20.0786 0.672175 17.8793 2.15664 16.0979C2.63713 15.5198 3.20357 14.9885 3.85205 14.5197C4.606 13.9728 5.46933 13.5118 6.44595 13.1329C7.11786 12.8712 7.83666 12.6524 8.59451 12.4766C9.45394 9.06236 11.2861 6.4333 13.6417 4.60897C15.8449 2.90184 18.4974 1.90569 21.2281 1.64395C22.6617 1.50723 24.115 1.56973 25.5369 1.83537C25.5057 1.96428 25.4783 2.0932 25.4627 2.22602L25.4588 2.24946C25.4314 2.47213 25.4197 2.6948 25.4314 2.92137C25.1306 3.03857 24.8494 3.19873 24.5954 3.39406L24.5837 3.40187C24.2048 3.68704 23.8845 4.05425 23.6462 4.47615ZM44.3153 11.9766C44.5341 12.1758 44.7451 12.3829 44.9521 12.6055C45.3701 13.0548 45.7647 13.5626 46.1358 14.1291C47.3858 16.051 48.0265 18.6176 47.9992 21.1295C47.9718 23.5945 47.3077 26.0477 45.9483 27.8525C45.0615 29.0284 43.9247 29.9894 42.5613 30.7511C41.6277 31.2746 40.5769 31.7082 39.4323 32.0598V29.0323C40.0495 28.8018 40.6237 28.544 41.1511 28.251C42.1785 27.6767 43.0184 26.9775 43.6473 26.1376C44.624 24.8367 45.1045 22.9968 45.124 21.1099C45.1474 19.1294 44.663 17.141 43.7216 15.6956C43.452 15.2776 43.1551 14.9025 42.8426 14.5666C42.7215 14.4377 42.6004 14.3166 42.4754 14.1994C42.4949 14.0041 42.5027 13.8048 42.491 13.6056C42.7918 13.4884 43.0731 13.3282 43.327 13.1329L43.3387 13.1251C43.7411 12.8165 44.0771 12.4258 44.3153 11.9766ZM34.4085 4.99962C36.2094 5.24573 37.4673 6.90598 37.2212 8.70687C36.9751 10.5078 35.3148 11.7695 33.5139 11.5234C31.7131 11.2773 30.4513 9.61707 30.7013 7.81619C30.9513 6.0153 32.6076 4.75351 34.4085 4.99962Z" fill="black"/>
</svg>
