<svg width="48" height="48" viewBox="0 0 48 48" fill="none" xmlns="http://www.w3.org/2000/svg">
<path fill-rule="evenodd" clip-rule="evenodd" d="M31.7326 32.4733V16.9856C31.7326 16.434 31.2855 15.9868 30.7339 15.9868H15.2642V0H46.7033C47.2549 0 47.7021 0.447167 47.7021 0.998776V32.4733H31.7326Z" fill="#8E75FF"/>
<path opacity="0.404989" fill-rule="evenodd" clip-rule="evenodd" d="M15.2641 0V15.9868H0.499388C0.223584 15.9868 0 15.7633 0 15.4875C0 15.3551 0.0525393 15.2282 0.146075 15.1345L15.2641 0Z" fill="#8E75FF"/>
<path opacity="0.404989" fill-rule="evenodd" clip-rule="evenodd" d="M31.7327 47.2535V32.4733H47.7021L32.5854 47.6065C32.3905 47.8016 32.0743 47.8018 31.8792 47.6069C31.7854 47.5132 31.7327 47.3861 31.7327 47.2535Z" fill="#8E75FF"/>
<path opacity="0.404989" fill-rule="evenodd" clip-rule="evenodd" d="M15.2642 15.9873H31.2332C31.5091 15.9873 31.7326 16.2109 31.7326 16.4867V32.4737H16.2629C15.7113 32.4737 15.2642 32.0266 15.2642 31.475V15.9873Z" fill="#8E75FF"/>
</svg>
