<svg width="35" height="48" viewBox="0 0 35 48" fill="none" xmlns="http://www.w3.org/2000/svg">
<path d="M25.7531 6.01103L22.8066 11.1151L16.3889 0L9.54614 11.8523L9.18587 12.4728L7.16478 8.97287L0 21.3881L10.6373 39.8112L11.5033 38.3111L17.0973 48L25.8265 32.8815L26.9105 34.7589L34.6305 21.3881L25.7531 6.01103ZM31.4931 22.8985L26.91 30.8383L21.9686 22.282H31.8515L31.4913 22.9025L31.4931 22.8985ZM2.87942 20.3194L3.23969 19.6989L7.16884 12.893L11.4564 20.3194H2.87942ZM17.4922 20.3194H13.718L10.3198 14.4331L16.3889 3.92059L21.6749 13.0754L17.4922 20.3194ZM18.496 22.2797L10.6373 35.891L2.779 22.2797H18.496ZM20.2325 23.1926L24.6944 30.9212L17.0973 44.0794L12.6354 36.3513L20.2325 23.1926ZM25.3951 10.5517L25.7554 9.93118L31.7511 20.3194H19.7556L25.3951 10.5517Z" fill="#002C3B"/>
</svg>
