<svg width="64" height="64" viewBox="0 0 64 64" fill="none" xmlns="http://www.w3.org/2000/svg">
<path d="M29.2125 1.13637L1.13223 29.1936C-0.377411 30.702 -0.377411 33.1383 1.13223 34.6467L29.2125 62.7039C30.7222 64.2123 33.1605 64.2123 34.6701 62.7039L46.4438 50.9399C47.7958 49.589 47.7958 47.3988 46.4438 46.0479C45.0918 44.6971 42.8998 44.6971 41.5478 46.0479L32.6223 54.9661C32.2465 55.3416 31.6762 55.3416 31.3005 54.9661L8.87638 32.5604C8.50064 32.185 8.50064 31.6152 8.87638 31.2398L31.3005 8.83408C31.6762 8.45864 32.2465 8.45864 32.6223 8.83408L41.5478 17.7523C42.8998 19.1031 45.0918 19.1031 46.4438 17.7523C47.7958 16.4014 47.7958 14.2112 46.4438 12.8603L34.6714 1.09757C33.1556 -0.378189 30.7164 -0.366242 29.2125 1.13637Z" fill="url(#paint0_linear_0_1753)"/>
<path d="M29.2125 1.13637L1.13223 29.1936C-0.377411 30.702 -0.377411 33.1383 1.13223 34.6467L29.2125 62.7039C30.7222 64.2123 33.1605 64.2123 34.6701 62.7039L46.4438 50.9399C47.7958 49.589 47.7958 47.3988 46.4438 46.0479C45.0918 44.6971 42.8998 44.6971 41.5478 46.0479L32.6223 54.9661C32.2465 55.3416 31.6762 55.3416 31.3005 54.9661L8.87638 32.5604C8.50064 32.185 8.50064 31.6152 8.87638 31.2398L31.3005 8.83408C32.2361 8.0275 33.7626 6.3938 36.0043 6.01171C37.6704 5.72775 39.4917 6.35275 41.4685 7.88671C40.1469 6.56619 37.8812 4.30314 34.6714 1.09757C33.1556 -0.378189 30.7164 -0.366242 29.2125 1.13637Z" fill="url(#paint1_linear_0_1753)"/>
<path d="M49.1616 43.4386C50.5136 44.7895 52.7056 44.7895 54.0576 43.4386L62.7424 34.7609C64.2521 33.2525 64.2521 30.8162 62.7426 29.3079L53.9821 20.5856C52.6269 19.2364 50.4342 19.2383 49.0814 20.59C47.7294 21.9409 47.7294 24.1311 49.0814 25.482L54.9983 31.394C55.374 31.7695 55.374 32.3393 54.9983 32.7147L49.1616 38.5466C47.8096 39.8975 47.8096 42.0877 49.1616 43.4386Z" fill="url(#paint2_linear_0_1753)"/>
<path d="M32.0817 39.6362C36.2689 39.6362 39.6634 36.2446 39.6634 32.0608C39.6634 27.877 36.2689 24.4854 32.0817 24.4854C27.8944 24.4854 24.5 27.877 24.5 32.0608C24.5 36.2446 27.8944 39.6362 32.0817 39.6362Z" fill="url(#paint3_linear_0_1753)"/>
<defs>
<linearGradient id="paint0_linear_0_1753" x1="29.4724" y1="1.31799e-06" x2="56.1568" y2="16.2958" gradientUnits="userSpaceOnUse">
<stop stop-color="#4285EB"/>
<stop offset="1" stop-color="#2EC7FF"/>
</linearGradient>
<linearGradient id="paint1_linear_0_1753" x1="33.0516" y1="-7.50818e-07" x2="19.8719" y2="68.116" gradientUnits="userSpaceOnUse">
<stop stop-color="#29CDFF"/>
<stop offset="0.378601" stop-color="#148EFF"/>
<stop offset="1" stop-color="#0A60FF"/>
</linearGradient>
<linearGradient id="paint2_linear_0_1753" x1="59.0836" y1="16.3473" x2="41.9349" y2="43.1666" gradientUnits="userSpaceOnUse">
<stop stop-color="#FA816E"/>
<stop offset="0.414726" stop-color="#F74A5C"/>
<stop offset="1" stop-color="#F51D2C"/>
</linearGradient>
<linearGradient id="paint3_linear_0_1753" x1="34.8305" y1="19.0779" x2="29.1246" y2="41.9024" gradientUnits="userSpaceOnUse">
<stop stop-color="#FA8E7D"/>
<stop offset="0.512635" stop-color="#F74A5C"/>
<stop offset="1" stop-color="#F51D2C"/>
</linearGradient>
</defs>
</svg>
