<svg width="48" height="32" viewBox="0 0 48 32" fill="none" xmlns="http://www.w3.org/2000/svg">
<path d="M15.8961 12.6078C16.1593 11.4691 16.4037 10.5091 16.4229 10.4619C16.4413 10.4245 16.7616 10.3965 17.1288 10.3965C17.6179 10.3965 17.7783 10.4245 17.7499 10.5091C17.7214 10.5751 17.5803 11.1393 17.4394 11.7604C17.3145 12.3093 17.0136 13.5777 16.7375 14.742C16.7011 14.8956 16.6651 15.0474 16.63 15.1954C16.4937 15.7705 16.342 16.417 16.2009 17.0179C16.0304 17.7442 15.8756 18.4039 15.7827 18.79L15.4914 20.089H14.8417C14.4844 20.089 14.1925 20.0509 14.1925 20.0043C14.1925 19.8348 14.4748 18.555 14.9458 16.6071C15.1617 15.6669 15.5252 14.1529 15.7953 13.0278C15.8307 12.8804 15.8644 12.7397 15.8961 12.6078Z" fill="#F02E65"/>
<path d="M10.5034 15.4779L11.3692 14.5366L12.2448 13.5957H13.0258C13.4586 13.5957 13.8162 13.6239 13.8162 13.6615C13.8162 13.7085 13.4773 14.1043 13.0635 14.5651C12.6493 15.0169 12.3103 15.4402 12.3103 15.5061C12.3103 15.5625 12.6774 16.0144 13.12 16.4844L13.9291 17.3596H12.2164L11.6142 16.72C11.2848 16.3717 10.8985 15.948 10.7578 15.7788L10.5034 15.4779Z" fill="#F02E65"/>
<path d="M18.3139 14.0568C18.1167 13.8591 17.9566 13.6806 17.9566 13.6519C17.9566 13.6239 18.3235 13.5957 18.7846 13.5957H19.6038L20.4504 14.5089C20.9211 15.0073 21.2974 15.4498 21.2974 15.4965C21.2974 15.5529 20.94 15.9864 20.4973 16.4754L19.6978 17.3503L18.8226 17.3596H17.9478L18.7285 16.5034C19.1611 16.0422 19.519 15.6003 19.5376 15.5341C19.566 15.4122 19.0485 14.7907 18.3139 14.0568Z" fill="#F02E65"/>
<path fill-rule="evenodd" clip-rule="evenodd" d="M24.002 29.8284C26.3576 31.1955 29.0944 31.9782 32.0142 31.9782C40.8431 31.9782 48 24.8212 48 15.9924C48 7.16361 40.8431 0.00664331 32.0142 0.00664331C29.0949 0.00664331 26.3585 0.789163 24.003 2.15577C22.7541 1.43175 21.4101 0.878713 20.0072 0.514048C17.9743 -0.014267 15.8575 -0.136862 13.7775 0.153268C11.6973 0.443413 9.6948 1.1406 7.88425 2.20498C6.07372 3.26938 4.49067 4.68012 3.22557 6.35658C1.96047 8.03302 1.03812 9.9423 0.511229 11.9754C-0.0156608 14.0085 -0.136771 16.1254 0.154829 18.2053C0.446444 20.2852 1.14504 22.2873 2.2107 24.097C3.27637 25.9068 4.68822 27.4888 6.36557 28.7529C9.74982 31.3066 14.01 32.4115 18.2088 31.8243C20.2705 31.536 22.2345 30.8514 24.002 29.8284ZM21.3311 4.10022L21.3263 4.10442C23.9186 5.26692 26.0619 7.25155 27.4244 9.72645C28.1766 11.0985 28.6827 12.6076 28.9037 14.1871C29.3825 17.6109 28.4816 21.0844 26.3993 23.844C24.3169 26.6034 21.2236 28.4226 17.7999 28.9014C14.3763 29.3802 10.9026 28.4793 8.14319 26.397C5.38373 24.3147 3.56449 21.2214 3.08571 17.7978C2.60692 14.374 3.50778 10.9005 5.59013 8.14098C7.67247 5.38152 10.7658 3.56229 14.1894 3.0835C16.6376 2.74114 19.1112 3.1042 21.3311 4.10022Z" fill="#F02E65"/>
</svg>
