<svg width="48" height="32" viewBox="0 0 48 32" fill="none" xmlns="http://www.w3.org/2000/svg">
<path fill-rule="evenodd" clip-rule="evenodd" d="M32.0142 31.9782C29.0944 31.9782 26.3576 31.1955 24.002 29.8284C22.2345 30.8514 20.2705 31.536 18.2088 31.8243C14.01 32.4115 9.74982 31.3066 6.36557 28.7529C4.68822 27.4888 3.27637 25.9068 2.2107 24.097C1.14504 22.2873 0.446444 20.2852 0.154829 18.2053C-0.136771 16.1254 -0.0156608 14.0085 0.511229 11.9754C1.03812 9.9423 1.96047 8.03302 3.22557 6.35658C4.49067 4.68012 6.07372 3.26938 7.88425 2.20498C9.6948 1.1406 11.6973 0.443413 13.7775 0.153268C15.8575 -0.136862 17.9743 -0.014267 20.0072 0.514048C21.4101 0.878713 22.7541 1.43175 24.003 2.15577C26.3585 0.789163 29.0949 0.00664331 32.0142 0.00664331C40.8431 0.00664331 48 7.16361 48 15.9924C48 24.8212 40.8431 31.9782 32.0142 31.9782ZM21.3263 4.10442L21.3311 4.10022C19.1112 3.1042 16.6376 2.74114 14.1894 3.0835C10.7658 3.56229 7.67247 5.38152 5.59013 8.14098C3.50778 10.9005 2.60692 14.374 3.08571 17.7978C3.56449 21.2214 5.38373 24.3147 8.14319 26.397C10.9026 28.4793 14.3763 29.3802 17.7999 28.9014C21.2236 28.4226 24.3169 26.6034 26.3993 23.844C28.4816 21.0844 29.3825 17.6109 28.9037 14.1871C28.6827 12.6076 28.1766 11.0985 27.4244 9.72645C26.0619 7.25155 23.9186 5.26692 21.3263 4.10442Z" fill="#F02E65"/>
</svg>
