<svg width="48" height="30" viewBox="0 0 48 30" fill="none" xmlns="http://www.w3.org/2000/svg">
<path fill-rule="evenodd" clip-rule="evenodd" d="M38.3868 18.4981C38.1595 18.4468 37.9763 18.3881 37.8003 18.3148C37.683 18.2562 37.5804 18.1975 37.4924 18.1169C37.4632 18.0919 37.4405 18.0601 37.4265 18.0243C37.4124 17.9885 37.4073 17.9498 37.4118 17.9116C37.4997 16.9806 37.4044 16.1522 37.4851 15.2358C37.859 11.4822 40.2196 12.6699 42.3383 12.0614C43.5479 11.7168 44.7649 11.0424 45.2121 9.71542C45.2854 9.49549 45.2194 9.26089 45.0655 9.09227C43.6995 7.53376 42.1597 6.13665 40.4762 4.92819C34.7907 0.970838 27.821 -0.69437 20.9607 0.265593C20.9028 0.272529 20.8476 0.294058 20.8002 0.328162C20.7529 0.362267 20.715 0.40783 20.6901 0.460581C20.6652 0.513332 20.6541 0.571545 20.6578 0.629762C20.6615 0.68798 20.68 0.744296 20.7114 0.793434C21.5387 2.08154 22.6433 3.16858 23.9445 3.97514C24.1791 4.12177 24.0838 4.43701 23.8125 4.37103C23.0291 4.19883 22.287 3.87507 21.6278 3.41798C21.5913 3.39398 21.5495 3.3794 21.506 3.37556C21.4625 3.37173 21.4187 3.37874 21.3786 3.39598L20.1396 3.8945C20.0857 3.9165 20.0383 3.95211 20.0022 3.99785C19.9661 4.04359 19.9425 4.0979 19.9336 4.15549C19.9248 4.21309 19.931 4.27199 19.9517 4.32647C19.9723 4.38094 20.0068 4.42913 20.0516 4.46633C21.6932 5.88895 23.7438 6.75408 25.9082 6.9372C28.0727 7.12031 30.2395 6.61198 32.0967 5.48536C32.3313 5.33873 32.7052 5.63198 32.6319 5.8959C32.5072 6.31378 32.3679 6.89293 32.2213 7.67736C31.2683 12.4646 28.5411 12.098 25.1614 10.8884C18.4168 8.4398 14.5826 10.5292 11.181 6.39442C10.939 6.10117 10.5212 6.00587 10.2426 6.24779C9.86405 6.5699 9.56585 6.97585 9.37168 7.43339C9.1775 7.89093 9.0927 8.38744 9.12402 8.88349C9.15533 9.37954 9.3019 9.86145 9.55207 10.2909C9.80224 10.7204 10.1491 11.0856 10.5652 11.3576C10.6751 11.4309 10.8144 11.4016 10.8951 11.3063C11.1077 11.035 11.2763 10.8664 11.4962 10.7491C11.7235 10.6318 11.8408 10.969 11.6428 11.1377C10.9171 11.7755 10.7118 12.5379 10.2426 14.0481C9.49481 16.4014 9.81005 18.8134 6.34243 19.4438C4.50964 19.5391 4.53897 20.7854 3.87184 22.6402C3.09474 24.8835 2.08304 25.8659 0.20627 27.8306C-0.0576502 28.0946 -0.0796436 28.5271 0.20627 28.769C0.954046 29.4068 1.73115 29.4435 2.51558 29.1209C4.46566 28.2998 5.96854 25.7779 7.38345 24.1431C8.95964 22.325 12.7425 23.1021 15.6016 21.3206C17.1412 20.3749 18.0722 19.1652 17.779 17.3618C17.7277 17.0685 18.0649 16.8926 18.1822 17.1638C18.4095 17.677 18.5634 18.2195 18.6221 18.7767C18.6441 18.9307 18.7687 19.0406 18.9226 19.0333C22.0164 18.8573 26.0118 22.2663 29.7507 23.19C29.978 23.2487 30.1393 22.9848 30.0146 22.7868C29.5554 22.0942 29.2251 21.3243 29.0396 20.5142C28.9663 20.2283 29.3915 20.1476 29.5381 20.4115C30.0938 21.4174 30.8917 22.2687 31.8595 22.8883C32.8273 23.5079 33.9344 23.8762 35.0805 23.9598C35.9895 24.0331 36.9865 23.9231 38.0276 23.6079C39.2739 23.234 40.4249 22.7502 41.7958 23.0141C42.3068 23.0929 42.797 23.2728 43.2376 23.5435C43.6782 23.8142 44.0604 24.17 44.3617 24.5903C45.1901 25.8073 46.9496 26.1298 47.8879 24.8542C47.9492 24.7678 47.9868 24.6669 47.9971 24.5614C48.0074 24.456 47.99 24.3497 47.9466 24.2531C45.8792 19.4145 40.6375 19.0846 38.3795 18.4981H38.3868Z" fill="#6644FF"/>
</svg>
