<svg width="64" height="64" viewBox="0 0 64 64" fill="none" xmlns="http://www.w3.org/2000/svg">
<path d="M32 0C14.4 0 0 14.4 0 32C0 49.6 14.4 64 32 64C49.6 64 64 49.6 64 32C64 14.4 49.6 0 32 0ZM14.1714 49.8286C9.37143 45.0286 6.85714 38.6286 6.85714 32.4571L31.7714 57.1429C25.3714 56.9143 18.9714 54.6286 14.1714 49.8286ZM37.4857 56.4571L7.54286 26.5143C10.0571 15.3143 20.1143 6.85714 32 6.85714C40.4571 6.85714 47.7714 10.9714 52.3429 17.1429L48.9143 20.1143C45.0286 14.8571 38.8571 11.4286 32 11.4286C23.0857 11.4286 15.5429 17.1429 12.5714 25.1429L38.8571 51.4286C45.4857 49.1429 50.5143 43.4286 52.1143 36.5714H41.1429V32H57.1429C57.1429 43.8857 48.6857 53.9429 37.4857 56.4571Z" fill="#663399"/>
</svg>
