<svg width="48" height="48" viewBox="0 0 48 48" fill="none" xmlns="http://www.w3.org/2000/svg">
<path d="M46.905 16.345C48.3209 12.0396 47.4692 3.45059 44.7256 0.279654C44.366 -0.136293 43.6969 -0.0768721 43.3981 0.382288L40.0187 5.56275C39.1834 6.59987 37.6789 6.83759 36.5448 6.11372C32.8776 3.7693 28.4971 2.408 23.79 2.408C19.0829 2.408 14.7022 3.7693 11.035 6.11372C9.90659 6.83759 8.40211 6.59451 7.56135 5.56275L4.1818 0.382288C3.88313 -0.0768721 3.21383 -0.130891 2.85431 0.279654C0.110828 3.45597 -0.740979 12.045 0.675011 16.345C1.14517 17.7764 1.27238 19.289 0.995826 20.7583C0.719261 22.2168 0.442702 23.9778 0.442702 25.2041C0.442702 37.796 10.8967 48 23.7844 48C36.6777 48 47.126 37.7906 47.126 25.2041C47.126 23.9778 46.8496 22.2168 46.5732 20.7583C46.3021 19.289 46.4346 17.7764 46.905 16.345ZM23.7844 42.9117C13.8172 42.9117 5.71397 34.9923 5.71397 25.2581C5.71397 24.9394 5.72499 24.626 5.7416 24.3127C6.10117 17.6792 10.2274 12.0126 16.0629 9.31166C18.4026 8.22044 21.0244 7.61543 23.79 7.61543C26.5556 7.61543 29.1718 8.22044 31.5171 9.31702C37.3525 12.018 41.4787 17.69 41.8383 24.3181C41.8549 24.6315 41.866 24.9501 41.866 25.2635C41.8603 34.9923 33.7517 42.9117 23.7844 42.9117Z" fill="#1EB4D4"/>
</svg>
