<svg width="48" height="48" viewBox="0 0 48 48" fill="none" xmlns="http://www.w3.org/2000/svg">
<rect width="48" height="48" rx="8" fill="#EC5990"/>
<path d="M31.7456 22.6657C31.6804 22.5997 31.5921 22.5626 31.5 22.5626H25.3889C25.2968 22.5626 25.2085 22.5997 25.1434 22.6657C25.0783 22.7317 25.0417 22.8212 25.0417 22.9145C25.0417 23.0079 25.0783 23.0974 25.1434 23.1634C25.2085 23.2294 25.2968 23.2664 25.3889 23.2664H31.5C31.5921 23.2664 31.6804 23.2294 31.7456 23.1634C31.8107 23.0974 31.8472 23.0079 31.8472 22.9145C31.8472 22.8212 31.8107 22.7317 31.7456 22.6657Z" fill="white"/>
<path d="M22.6631 22.5626H16.552C16.46 22.5626 16.3716 22.5997 16.3065 22.6657C16.2414 22.7317 16.2048 22.8212 16.2048 22.9145C16.2048 23.0079 16.2414 23.0974 16.3065 23.1634C16.3716 23.2294 16.46 23.2664 16.552 23.2664H22.6631C22.7552 23.2664 22.8436 23.2294 22.9087 23.1634C22.9738 23.0974 23.0104 23.0079 23.0104 22.9145C23.0104 22.8212 22.9738 22.7317 22.9087 22.6657C22.8436 22.5997 22.7552 22.5626 22.6631 22.5626Z" fill="white"/>
<path d="M31.3265 30.857C31.4186 30.857 31.5069 30.894 31.572 30.96C31.6371 31.026 31.6737 31.1155 31.6737 31.2089C31.6737 31.3022 31.6371 31.3917 31.572 31.4577C31.5069 31.5237 31.4186 31.5608 31.3265 31.5608H25.198C25.1059 31.5608 25.0176 31.5237 24.9525 31.4577C24.8874 31.3917 24.8508 31.3022 24.8508 31.2089C24.8508 31.1155 24.8874 31.026 24.9525 30.96C25.0176 30.894 25.1059 30.857 25.198 30.857H31.3265Z" fill="white"/>
<path d="M16.3611 30.857H22.4896C22.5817 30.857 22.67 30.894 22.7351 30.96C22.8002 31.026 22.8368 31.1155 22.8368 31.2089C22.8368 31.3022 22.8002 31.3917 22.7351 31.4577C22.67 31.5237 22.5817 31.5608 22.4896 31.5608H16.3611C16.269 31.5608 16.1807 31.5237 16.1156 31.4577C16.0505 31.3917 16.0139 31.3022 16.0139 31.2089C16.0139 31.1155 16.0505 31.026 16.1156 30.96C16.1807 30.894 16.269 30.857 16.3611 30.857Z" fill="white"/>
<path fill-rule="evenodd" clip-rule="evenodd" d="M32.1806 11.0907H26.8264C26.6351 10.4838 26.2583 9.95415 25.7506 9.57833C25.2429 9.20254 24.6305 9 24.0017 9C23.373 9 22.7606 9.20254 22.2528 9.57833C21.7451 9.95415 21.3684 10.4838 21.1771 11.0907H15.8194C14.8065 11.0907 13.835 11.4986 13.1187 12.2245C12.4024 12.9504 12 13.935 12 14.9617V35.1291C12 36.1558 12.4024 37.1403 13.1187 37.8662C13.835 38.5922 14.8065 39 15.8194 39H32.1806C33.1935 39 34.165 38.5922 34.8813 37.8662C35.5976 37.1403 36 36.1558 36 35.1291V14.9617C36 13.935 35.5976 12.9504 34.8813 12.2245C34.165 11.4986 33.1935 11.0907 32.1806 11.0907ZM21.4444 11.7945C21.5252 11.7964 21.604 11.7696 21.6674 11.7189C21.7308 11.6681 21.7747 11.5966 21.7917 11.5165C21.902 11.0033 22.1823 10.5439 22.5859 10.2143C22.9895 9.88486 23.4922 9.70518 24.0104 9.70518C24.5287 9.70518 25.0313 9.88486 25.435 10.2143C25.8386 10.5439 26.1188 11.0033 26.2292 11.5165C26.2461 11.5966 26.29 11.6681 26.3534 11.7189C26.4168 11.7696 26.4956 11.7964 26.5764 11.7945H28.4444V14.0995C28.4444 14.3795 28.3347 14.648 28.1393 14.846C27.944 15.044 27.679 15.1552 27.4028 15.1552H20.6146C20.3383 15.1552 20.0734 15.044 19.878 14.846C19.6827 14.648 19.5729 14.3795 19.5729 14.0995V11.7945H21.4444ZM35.3056 35.1291C35.3056 35.9691 34.9763 36.7746 34.3903 37.3686C33.8042 37.9626 33.0094 38.2962 32.1806 38.2962H15.8194C14.9906 38.2962 14.1958 37.9626 13.6097 37.3686C13.0237 36.7746 12.6944 35.9691 12.6944 35.1291V14.9617C12.6944 14.1217 13.0237 13.3161 13.6097 12.7222C14.1958 12.1282 14.9906 11.7945 15.8194 11.7945H18.8785V14.0995C18.8785 14.5662 19.0614 15.0137 19.387 15.3437C19.7126 15.6736 20.1541 15.859 20.6146 15.859H27.3854C27.8459 15.859 28.2874 15.6736 28.613 15.3437C28.9386 15.0137 29.1215 14.5662 29.1215 14.0995V11.7945H32.1806C33.0094 11.7945 33.8042 12.1282 34.3903 12.7222C34.9763 13.3161 35.3056 14.1217 35.3056 14.9617V35.1291Z" fill="white"/>
<path d="M31.7456 22.6657C31.6804 22.5997 31.5921 22.5626 31.5 22.5626H25.3889C25.2968 22.5626 25.2085 22.5997 25.1434 22.6657C25.0783 22.7317 25.0417 22.8212 25.0417 22.9145C25.0417 23.0079 25.0783 23.0974 25.1434 23.1634C25.2085 23.2294 25.2968 23.2664 25.3889 23.2664H31.5C31.5921 23.2664 31.6804 23.2294 31.7456 23.1634C31.8107 23.0974 31.8472 23.0079 31.8472 22.9145C31.8472 22.8212 31.8107 22.7317 31.7456 22.6657Z" stroke="white" stroke-width="0.5"/>
<path d="M22.6631 22.5626H16.552C16.46 22.5626 16.3716 22.5997 16.3065 22.6657C16.2414 22.7317 16.2048 22.8212 16.2048 22.9145C16.2048 23.0079 16.2414 23.0974 16.3065 23.1634C16.3716 23.2294 16.46 23.2664 16.552 23.2664H22.6631C22.7552 23.2664 22.8436 23.2294 22.9087 23.1634C22.9738 23.0974 23.0104 23.0079 23.0104 22.9145C23.0104 22.8212 22.9738 22.7317 22.9087 22.6657C22.8436 22.5997 22.7552 22.5626 22.6631 22.5626Z" stroke="white" stroke-width="0.5"/>
<path d="M31.3265 30.857C31.4186 30.857 31.5069 30.894 31.572 30.96C31.6371 31.026 31.6737 31.1155 31.6737 31.2089C31.6737 31.3022 31.6371 31.3917 31.572 31.4577C31.5069 31.5237 31.4186 31.5608 31.3265 31.5608H25.198C25.1059 31.5608 25.0176 31.5237 24.9525 31.4577C24.8874 31.3917 24.8508 31.3022 24.8508 31.2089C24.8508 31.1155 24.8874 31.026 24.9525 30.96C25.0176 30.894 25.1059 30.857 25.198 30.857H31.3265Z" stroke="white" stroke-width="0.5"/>
<path d="M16.3611 30.857H22.4896C22.5817 30.857 22.67 30.894 22.7351 30.96C22.8002 31.026 22.8368 31.1155 22.8368 31.2089C22.8368 31.3022 22.8002 31.3917 22.7351 31.4577C22.67 31.5237 22.5817 31.5608 22.4896 31.5608H16.3611C16.269 31.5608 16.1807 31.5237 16.1156 31.4577C16.0505 31.3917 16.0139 31.3022 16.0139 31.2089C16.0139 31.1155 16.0505 31.026 16.1156 30.96C16.1807 30.894 16.269 30.857 16.3611 30.857Z" stroke="white" stroke-width="0.5"/>
<path fill-rule="evenodd" clip-rule="evenodd" d="M32.1806 11.0907H26.8264C26.6351 10.4838 26.2583 9.95415 25.7506 9.57833C25.2429 9.20254 24.6305 9 24.0017 9C23.373 9 22.7606 9.20254 22.2528 9.57833C21.7451 9.95415 21.3684 10.4838 21.1771 11.0907H15.8194C14.8065 11.0907 13.835 11.4986 13.1187 12.2245C12.4024 12.9504 12 13.935 12 14.9617V35.1291C12 36.1558 12.4024 37.1403 13.1187 37.8662C13.835 38.5922 14.8065 39 15.8194 39H32.1806C33.1935 39 34.165 38.5922 34.8813 37.8662C35.5976 37.1403 36 36.1558 36 35.1291V14.9617C36 13.935 35.5976 12.9504 34.8813 12.2245C34.165 11.4986 33.1935 11.0907 32.1806 11.0907ZM21.4444 11.7945C21.5252 11.7964 21.604 11.7696 21.6674 11.7189C21.7308 11.6681 21.7747 11.5966 21.7917 11.5165C21.902 11.0033 22.1823 10.5439 22.5859 10.2143C22.9895 9.88486 23.4922 9.70518 24.0104 9.70518C24.5287 9.70518 25.0313 9.88486 25.435 10.2143C25.8386 10.5439 26.1188 11.0033 26.2292 11.5165C26.2461 11.5966 26.29 11.6681 26.3534 11.7189C26.4168 11.7696 26.4956 11.7964 26.5764 11.7945H28.4444V14.0995C28.4444 14.3795 28.3347 14.648 28.1393 14.846C27.944 15.044 27.679 15.1552 27.4028 15.1552H20.6146C20.3383 15.1552 20.0734 15.044 19.878 14.846C19.6827 14.648 19.5729 14.3795 19.5729 14.0995V11.7945H21.4444ZM35.3056 35.1291C35.3056 35.9691 34.9763 36.7746 34.3903 37.3686C33.8042 37.9626 33.0094 38.2962 32.1806 38.2962H15.8194C14.9906 38.2962 14.1958 37.9626 13.6097 37.3686C13.0237 36.7746 12.6944 35.9691 12.6944 35.1291V14.9617C12.6944 14.1217 13.0237 13.3161 13.6097 12.7222C14.1958 12.1282 14.9906 11.7945 15.8194 11.7945H18.8785V14.0995C18.8785 14.5662 19.0614 15.0137 19.387 15.3437C19.7126 15.6736 20.1541 15.859 20.6146 15.859H27.3854C27.8459 15.859 28.2874 15.6736 28.613 15.3437C28.9386 15.0137 29.1215 14.5662 29.1215 14.0995V11.7945H32.1806C33.0094 11.7945 33.8042 12.1282 34.3903 12.7222C34.9763 13.3161 35.3056 14.1217 35.3056 14.9617V35.1291Z" stroke="white" stroke-width="0.5"/>
</svg>
