<svg width="64" height="64" viewBox="0 0 64 64" fill="none" xmlns="http://www.w3.org/2000/svg">
<path d="M64 32C64 14.327 49.6732 0 32.0004 0C14.3268 0 0 14.327 0 32C0 49.6726 14.3268 64 32 64C49.6732 64 64 49.6726 64 32Z" fill="#339AF0"/>
<path d="M26.041 16.9032C25.7542 17.2908 25.5886 17.754 25.5651 18.2348C25.5415 18.7155 25.6609 19.1925 25.9084 19.6061C26.0726 19.8795 26.2896 20.1179 26.5469 20.3074C30.2742 23.07 32.414 27.294 32.414 31.898C32.414 36.5021 30.2742 40.7261 26.5469 43.4887C26.2899 43.6783 26.0731 43.9166 25.9091 44.19C25.5764 44.7439 25.4779 45.4065 25.6352 46.0326C25.713 46.3428 25.8507 46.6345 26.041 46.8909C26.2308 47.1474 26.4698 47.364 26.7441 47.5282C27.0184 47.6925 27.3227 47.8012 27.6393 47.848C27.956 47.8949 28.2789 47.879 28.5894 47.8013C28.8999 47.7235 29.1919 47.5855 29.4485 47.3951C30.5965 46.5437 31.6481 45.5708 32.5849 44.4935H39.4888C40.8331 44.4935 41.9255 43.4051 41.9255 42.0615C41.9255 40.7179 40.8355 39.6295 39.4888 39.6295H35.6783C36.7435 37.1901 37.2905 34.558 37.285 31.8984C37.2907 29.2386 36.7439 26.6063 35.6787 24.1666H39.4912C40.8355 24.1666 41.9275 23.0786 41.9275 21.7346C41.9275 20.391 40.8374 19.303 39.4912 19.303H32.5889C31.6516 18.2246 30.5993 17.2508 29.4505 16.3986C29.1942 16.2085 28.9026 16.0706 28.5925 15.9929C28.2824 15.9152 27.96 15.8993 27.6437 15.9459C27.0039 16.0416 26.4283 16.3858 26.0433 16.9032H26.041Z" fill="white"/>
<path fill-rule="evenodd" clip-rule="evenodd" d="M22.1944 31.1726C22.1828 30.6887 22.2675 30.2072 22.4438 29.756C22.6194 29.306 22.8833 28.8953 23.2202 28.5478C23.5556 28.2019 23.9574 27.9264 24.4018 27.7378C24.845 27.55 25.3217 27.4531 25.8034 27.4531C26.2852 27.4531 26.7619 27.55 27.2051 27.7378C27.6497 27.9264 28.0516 28.2018 28.3871 28.5478C28.7239 28.8953 28.9878 29.306 29.1634 29.756C29.3395 30.2072 29.424 30.6887 29.4121 31.1726C29.3902 32.1181 29.0004 33.0183 28.3248 33.6835C27.6536 34.3443 26.7478 34.7153 25.8036 34.7162C24.8592 34.7155 23.953 34.3445 23.2817 33.6835C22.6061 33.0183 22.2163 32.1181 22.1944 31.1726Z" fill="white"/>
</svg>
