<svg width="48" height="48" viewBox="0 0 48 48" fill="none" xmlns="http://www.w3.org/2000/svg">
<path d="M28.263 0C27.9159 0 27.5936 0.073466 27.2961 0.171415C27.9283 0.587709 28.2753 1.13869 28.4489 1.76313C28.4613 1.84884 28.4861 1.91006 28.4985 1.99576C28.5109 2.06923 28.5233 2.14269 28.5233 2.21616C28.5729 3.29363 28.2382 3.42831 28.0026 4.065C27.6431 4.88534 27.7423 5.76691 28.1762 6.47706C28.2134 6.56277 28.263 6.66072 28.3249 6.74643C27.8539 3.6487 30.4695 3.18343 30.9529 2.21616C30.9901 1.37132 30.2835 0.808101 29.7257 0.416294C29.1927 0.097952 28.7092 0 28.263 0ZM32.2049 0.697906C32.1553 0.979517 32.1925 0.906053 32.1801 1.05298C32.1677 1.15093 32.1677 1.27337 32.1554 1.37132C32.1306 1.46928 32.1058 1.56723 32.0686 1.66518C32.0438 1.76313 32.0066 1.86108 31.9694 1.95903C31.9198 2.05699 31.8826 2.14269 31.8331 2.24065C31.7959 2.28964 31.7711 2.3386 31.7339 2.38757C31.7091 2.42431 31.6843 2.46104 31.6595 2.49777C31.5975 2.58348 31.5356 2.66918 31.4736 2.74265C31.3992 2.81611 31.3372 2.90182 31.2504 2.96304C31.2504 2.9753 31.2504 2.9753 31.2504 2.9753C31.1761 3.03652 31.1017 3.10999 31.0149 3.1712C30.7546 3.36711 30.4571 3.51403 30.1844 3.69769C30.0976 3.75891 30.0108 3.80789 29.9365 3.88136C29.8497 3.94257 29.7753 4.00379 29.7009 4.07726C29.6142 4.15072 29.5522 4.22419 29.4778 4.30989C29.4158 4.38336 29.3414 4.46906 29.2919 4.55478C29.2299 4.64048 29.1679 4.72619 29.1183 4.81189C29.0687 4.90984 29.0315 4.99556 28.982 5.0935C28.9448 5.19145 28.9076 5.27717 28.8828 5.37511C28.8456 5.48531 28.8208 5.58326 28.796 5.68122C28.7836 5.73021 28.7836 5.79141 28.7712 5.84039C28.7588 5.88938 28.7588 5.93834 28.7465 5.98732C28.7465 6.08527 28.7341 6.19546 28.7341 6.29341C28.7341 6.36688 28.7341 6.44034 28.7465 6.51381C28.7465 6.61176 28.7589 6.70971 28.7837 6.81991C28.7961 6.91785 28.8208 7.01581 28.8456 7.11376C28.8828 7.21171 28.9076 7.30966 28.9448 7.40761C28.9696 7.46884 29.0068 7.53006 29.0316 7.57903L26.1805 6.48932C25.697 6.35463 25.226 6.2322 24.7425 6.122C24.4822 6.06078 24.2219 5.99956 23.9616 5.93834C23.2178 5.79141 22.4617 5.68122 21.7055 5.60776C21.6807 5.60776 21.6683 5.5955 21.6435 5.5955C20.8998 5.52203 20.1684 5.4853 19.4246 5.4853C18.8792 5.4853 18.3338 5.50977 17.8007 5.54652C17.0446 5.59551 16.2884 5.69345 15.5323 5.81588C15.3463 5.84035 15.1604 5.87711 14.9744 5.91384C14.5902 5.9873 14.2183 6.07301 13.8588 6.15872C13.6728 6.20771 13.4869 6.25667 13.301 6.30564C13.115 6.37911 12.9415 6.46482 12.7679 6.53828C12.6316 6.5995 12.4952 6.66072 12.3589 6.72194C12.3341 6.7342 12.3093 6.7342 12.2969 6.74641C12.1729 6.80763 12.0614 6.8566 11.9498 6.91783C11.9126 6.93009 11.8878 6.94229 11.863 6.95456C11.7267 7.01578 11.5903 7.08924 11.4787 7.15046C11.392 7.18719 11.3052 7.23617 11.2308 7.2729C11.1936 7.29737 11.144 7.3219 11.1193 7.33412C11.0077 7.39534 10.8961 7.45656 10.797 7.51778C10.6854 7.579 10.5862 7.64022 10.4995 7.70143C10.4127 7.76266 10.3259 7.81163 10.2515 7.87285C10.2391 7.88511 10.2268 7.88511 10.2143 7.89732C10.14 7.94632 10.0532 8.00751 9.97882 8.06874C9.97882 8.06874 9.9664 8.081 9.95405 8.09321C9.89207 8.1422 9.83008 8.19116 9.7681 8.24013C9.74333 8.25239 9.7185 8.27686 9.69373 8.28913C9.63175 8.33812 9.56977 8.39932 9.50779 8.4483C9.49537 8.47277 9.4706 8.48503 9.45819 8.4973C9.38381 8.57076 9.30943 8.63198 9.23506 8.70544C9.22264 8.70544 9.22264 8.7177 9.21028 8.72991C9.13591 8.79113 9.06153 8.8646 8.98715 8.93806C8.97473 8.95032 8.97474 8.96253 8.96238 8.96253C8.9004 9.02375 8.83842 9.08497 8.77644 9.15843C8.75166 9.1829 8.71446 9.20743 8.68967 9.23189C8.62769 9.30536 8.55331 9.37882 8.47894 9.45229C8.46652 9.47676 8.44175 9.48902 8.42933 9.51351C8.33016 9.61146 8.24339 9.70941 8.14422 9.80736C8.1318 9.81962 8.11945 9.83183 8.10703 9.8441C7.90869 10.0522 7.69796 10.2604 7.47483 10.444C7.2517 10.6399 7.01618 10.8236 6.78065 10.9828C6.53273 11.1542 6.29721 11.3011 6.03689 11.4481C5.78896 11.5827 5.52865 11.7052 5.25593 11.8154C4.99562 11.9256 4.7229 12.0235 4.45019 12.1092C3.92955 12.2194 3.39652 12.4276 2.93787 12.4643C2.8387 12.4643 2.72713 12.4888 2.62797 12.501C2.5164 12.5255 2.41723 12.55 2.31807 12.5745C2.2189 12.6112 2.11973 12.648 2.02056 12.6847C1.92139 12.7214 1.82222 12.7704 1.72306 12.8194C1.63628 12.8806 1.53711 12.9296 1.45034 12.9908C1.36357 13.052 1.27679 13.1255 1.20242 13.1989C1.11565 13.2602 1.02887 13.3459 0.954496 13.4193C0.880119 13.505 0.805742 13.5785 0.743763 13.6642C0.681785 13.7622 0.607408 13.8479 0.557821 13.9458C0.495842 14.0315 0.433863 14.1295 0.384276 14.2274C0.334672 14.3376 0.285109 14.4356 0.247921 14.5458C0.210732 14.6437 0.173544 14.7539 0.136355 14.8641C0.111582 14.9621 0.0867511 15.06 0.0743764 15.158C0.0743764 15.1702 0.0619612 15.1824 0.0619612 15.1947C0.0371883 15.3049 0.0371883 15.4518 0.0247726 15.5253C0.0123575 15.611 0 15.6845 0 15.7702C0 15.8192 0 15.8804 0.0124151 15.9293C0.0248303 16.0151 0.0371877 16.0885 0.0620192 16.162C0.086792 16.2354 0.111623 16.3089 0.148788 16.3824C0.148788 16.3946 0.148788 16.3946 0.148788 16.3946C0.185977 16.4681 0.235564 16.5416 0.285144 16.615C0.334748 16.6885 0.384318 16.762 0.446296 16.8354C0.508275 16.8966 0.582652 16.9701 0.657029 17.0313C0.731406 17.1048 0.805783 17.166 0.892552 17.2272C1.19006 17.4843 1.26444 17.5701 1.64872 17.766C1.71069 17.8027 1.77268 17.8272 1.84706 17.8639C1.85947 17.8639 1.87183 17.8762 1.88424 17.8762C1.88424 17.9006 1.88424 17.9129 1.89666 17.9374C1.90908 18.0353 1.93385 18.1333 1.95864 18.2313C1.98341 18.3414 2.02062 18.4394 2.05781 18.5251C2.095 18.5986 2.11979 18.672 2.15698 18.7455C2.1694 18.77 2.18175 18.7945 2.19417 18.8067C2.24377 18.9047 2.29334 18.9904 2.34292 19.0761C2.4049 19.1618 2.46688 19.2475 2.52886 19.3332C2.59084 19.4067 2.66522 19.4924 2.73959 19.5658C2.81397 19.6393 2.88835 19.7005 2.97512 19.774C2.97512 19.774 2.98754 19.7863 2.99989 19.7863C3.07427 19.8475 3.14865 19.9087 3.22303 19.9577C3.30979 20.0189 3.39657 20.0679 3.49574 20.1169C3.58251 20.1658 3.68168 20.2148 3.78085 20.2515C3.85522 20.2883 3.94199 20.3128 4.02877 20.3372C4.04119 20.3495 4.05354 20.3495 4.07837 20.3617C4.12798 20.374 4.18993 20.3862 4.23952 20.3984C4.20233 21.0596 4.18991 21.6841 4.28912 21.9045C4.40068 22.1493 4.94611 21.4025 5.49154 20.5454C5.41716 21.3902 5.36758 22.382 5.49154 22.6758C5.6279 22.9819 6.37166 22.0269 7.01626 20.9739C15.8051 18.9659 23.8253 24.9654 24.6683 33.4383C24.5071 32.1159 22.8584 31.3813 22.1023 31.5649C21.7304 32.471 21.0982 33.6342 20.0817 34.3566C20.1685 33.5485 20.1313 32.7159 19.9578 31.9078C19.685 33.0342 19.152 34.0872 18.4206 34.9933C17.243 35.079 16.0654 34.5157 15.4456 33.6709C15.396 33.6342 15.3836 33.5607 15.3464 33.5117C15.3092 33.426 15.272 33.3403 15.2472 33.2546C15.2101 33.1689 15.1853 33.0832 15.1729 32.9975C15.1605 32.9118 15.1605 32.8261 15.1605 32.7281C15.1605 32.6669 15.1605 32.6057 15.1605 32.5445C15.1729 32.4587 15.1976 32.373 15.2224 32.2873C15.2472 32.2016 15.272 32.1159 15.3092 32.0302C15.3588 31.9445 15.396 31.8588 15.458 31.7731C15.6687 31.1854 15.6687 30.7079 15.2844 30.4263C15.21 30.3773 15.1357 30.3405 15.0489 30.3038C14.9993 30.2915 14.9373 30.2671 14.8877 30.2548C14.8506 30.2426 14.8258 30.2303 14.7886 30.2181C14.7018 30.1936 14.615 30.1691 14.5283 30.1569C14.4415 30.1324 14.3547 30.1201 14.2679 30.1201C14.1812 30.1079 14.082 30.0957 13.9952 30.0957C13.9332 30.0957 13.8713 30.1079 13.8093 30.1079C13.7101 30.1079 13.6233 30.1202 13.5366 30.1447C13.4498 30.1569 13.363 30.1691 13.2762 30.1936C13.1895 30.2181 13.1027 30.2426 13.0159 30.2794C12.9292 30.3161 12.8548 30.3528 12.768 30.3896C12.6936 30.4263 12.6193 30.4753 12.5325 30.512C9.6442 32.3731 11.3673 36.7319 13.3382 37.9931C12.5945 38.1277 11.8383 38.2869 11.6276 38.4461C11.6152 38.4583 11.6028 38.4706 11.6028 38.4706C12.1358 38.7889 12.6937 39.0583 13.2763 39.2909C14.0696 39.548 14.9125 39.7807 15.2844 39.8786V39.8909C16.3133 40.099 17.3546 40.1725 18.4082 40.1113C23.8997 39.7317 28.3995 35.6055 29.2176 30.1692C29.2424 30.2794 29.2672 30.3773 29.292 30.4875C29.3292 30.7079 29.3788 30.9405 29.4036 31.1732C29.4036 31.1732 29.4036 31.1732 29.4036 31.1854C29.4283 31.2956 29.4408 31.4058 29.4532 31.5038C29.4532 31.5282 29.4532 31.5405 29.4532 31.5528C29.4656 31.663 29.4779 31.7732 29.4779 31.8711C29.4904 32.0058 29.5027 32.1405 29.5027 32.2752C29.5027 32.3364 29.5027 32.3976 29.5027 32.4711C29.5027 32.5323 29.5151 32.6058 29.5151 32.667C29.5151 32.7404 29.5027 32.8139 29.5027 32.8874C29.5027 32.9486 29.5027 33.0098 29.5027 33.0588C29.5027 33.1445 29.4903 33.218 29.4903 33.3037C29.4903 33.3527 29.4903 33.4016 29.4779 33.4628C29.4779 33.5485 29.4655 33.6343 29.4655 33.7322C29.453 33.7689 29.453 33.8057 29.453 33.8424C29.4406 33.9404 29.4283 34.0261 29.4158 34.124C29.4158 34.1607 29.4158 34.1975 29.4034 34.2342C29.391 34.3566 29.3662 34.4668 29.3538 34.5893V34.6016V34.6138C29.3291 34.724 29.3042 34.8465 29.2794 34.9566C29.2794 34.9689 29.2794 34.9811 29.2794 34.9934C29.2547 35.1036 29.2298 35.2138 29.2051 35.324C29.2051 35.3362 29.1927 35.3607 29.1927 35.373C29.1679 35.4832 29.1431 35.5933 29.1059 35.7036C29.1059 35.7158 29.1059 35.728 29.1059 35.7403C29.0687 35.8627 29.0315 35.9729 29.0067 36.0831C28.9943 36.0954 28.9943 36.1076 28.9943 36.1076C28.9571 36.23 28.9199 36.3525 28.8827 36.4749C28.8331 36.5973 28.796 36.7075 28.7464 36.83C28.6968 36.9524 28.6596 37.0749 28.61 37.185C28.5604 37.3075 28.5109 37.4177 28.4613 37.5401H28.4489C28.3992 37.6503 28.3497 37.7728 28.2877 37.883C28.2753 37.9197 28.2629 37.9442 28.2505 37.9687C28.2381 37.9809 28.2381 37.9931 28.2257 38.0054C27.42 39.6094 26.23 41.0174 24.7424 42.1194C24.6433 42.1806 24.5441 42.2541 24.4449 42.3275C24.4202 42.352 24.383 42.3642 24.3582 42.3887C24.2714 42.45 24.1846 42.5112 24.0855 42.5724L24.1226 42.6459H24.1351C24.3086 42.6214 24.4821 42.5969 24.6557 42.5724H24.6681C24.9904 42.5234 25.3127 42.4622 25.635 42.401C25.7218 42.3887 25.8209 42.3642 25.9077 42.3398C25.9697 42.3275 26.0193 42.3153 26.0812 42.303C26.168 42.2907 26.2548 42.2663 26.3416 42.254C26.4159 42.2296 26.4903 42.2173 26.5647 42.1928C27.8043 41.8989 29.0067 41.4949 30.1596 41.0174C28.1886 43.6743 25.5482 45.817 22.4616 47.2251C23.8871 47.1271 25.3127 46.8945 26.6887 46.5027C31.6843 45.0456 35.8865 41.7275 38.4029 37.2585C37.8947 40.0868 36.7543 42.7805 35.0684 45.1314C36.2708 44.3477 37.3741 43.4417 38.3782 42.4132C41.1549 39.5481 42.9771 35.9117 43.5969 32.0058C44.0184 33.9404 44.1423 35.9361 43.9564 37.9074C52.9064 25.5777 44.7002 12.795 41.2664 9.42796C41.254 9.40349 41.2417 9.39123 41.2417 9.36674C41.2292 9.379 41.2292 9.379 41.2292 9.39121C41.2292 9.37895 41.2292 9.37895 41.2168 9.36674C41.2168 9.51367 41.2044 9.66059 41.1921 9.80752C41.1549 10.0891 41.1177 10.3585 41.0681 10.6279C41.0061 10.8972 40.9317 11.1666 40.8574 11.436C40.7706 11.6931 40.6714 11.9625 40.5599 12.2196C40.4483 12.4645 40.3243 12.7216 40.188 12.9665C40.0516 13.1991 39.9029 13.444 39.7417 13.6644C39.5806 13.897 39.407 14.1174 39.2335 14.3255C39.0475 14.5459 38.8492 14.7418 38.6509 14.9377C38.5269 15.0479 38.4153 15.1459 38.2914 15.2438C38.1922 15.3295 38.1054 15.403 38.0063 15.4887C37.7831 15.6601 37.56 15.8193 37.3121 15.9662C37.0766 16.1132 36.8286 16.2601 36.5807 16.3825C36.3204 16.505 36.0601 16.6152 35.7998 16.7254C35.5394 16.8233 35.2667 16.909 34.994 16.9825C34.7213 17.0559 34.4362 17.1172 34.1635 17.1661C33.8784 17.2151 33.5933 17.2396 33.3205 17.2641C33.1222 17.2764 32.9239 17.2886 32.7255 17.2886C32.4404 17.2886 32.1553 17.2641 31.8826 17.2396C31.5975 17.2151 31.3124 17.1783 31.0397 17.1171C30.7546 17.0681 30.4818 16.9947 30.2091 16.909H30.1967C30.4694 16.8845 30.7421 16.86 31.0149 16.811C31.3 16.762 31.5727 16.7008 31.8454 16.6274C32.1181 16.5539 32.3908 16.4682 32.6511 16.3702C32.9239 16.2723 33.1842 16.1499 33.4321 16.0274C33.6924 15.905 33.9279 15.7703 34.1759 15.6234C34.4114 15.4642 34.6469 15.305 34.87 15.1336C35.0932 14.9622 35.3039 14.7785 35.5022 14.5826C35.713 14.399 35.8989 14.1908 36.0849 13.9827C36.2708 13.7623 36.4443 13.5419 36.6055 13.3215C36.6303 13.2848 36.6551 13.2358 36.6799 13.1991C36.8038 13.0032 36.9278 12.8073 37.0393 12.6113C37.1757 12.3665 37.2997 12.1216 37.4112 11.8645C37.5228 11.6073 37.622 11.3502 37.7087 11.0809C37.7955 10.8237 37.8575 10.5544 37.9195 10.285C37.9691 10.0034 38.0186 9.73402 38.0434 9.46465C38.0682 9.18304 38.093 8.90143 38.093 8.63206C38.093 8.43616 38.0806 8.24026 38.0683 8.04435C38.0435 7.76274 38.0063 7.49337 37.9691 7.22401C37.9195 6.94239 37.8575 6.67303 37.7832 6.40366C37.6964 6.14654 37.6096 5.87717 37.5104 5.62005C37.4113 5.36292 37.2873 5.1058 37.1633 4.86092C37.027 4.61604 36.8906 4.37116 36.7419 4.13853C36.5807 3.9059 36.4196 3.6855 36.246 3.46511C36.0601 3.25696 35.8742 3.04882 35.6758 2.84067C35.5767 2.74272 35.4651 2.63252 35.3535 2.53457C34.7957 2.10603 34.2131 1.70198 33.6305 1.33466C33.5437 1.28567 33.4693 1.24895 33.3825 1.21222C32.9735 0.955098 32.5892 0.82041 32.2049 0.697974L32.2049 0.697906Z" fill="#E0234E"/>
</svg>
