<svg width="66" height="42" viewBox="0 0 66 42" fill="none" xmlns="http://www.w3.org/2000/svg">
<path d="M55.6388 1.28529C55.7929 1.06345 55.743 0.759318 55.526 0.598413C55.3091 0.437509 55.0035 0.478016 54.836 0.689898L46.5428 11.1779L46.5328 11.191L40.8422 18.8971L35.2778 11.1952C35.1838 11.0651 35.0331 10.988 34.8726 10.988H33.5264C33.3386 10.988 33.1666 11.0933 33.0812 11.2605C32.9957 11.4278 33.0112 11.6288 33.1213 11.781L39.5066 20.6106L32.648 29.9674C32.5367 30.1193 32.5202 30.321 32.6053 30.489C32.6905 30.6571 32.8629 30.763 33.0513 30.763H34.4238C34.5835 30.763 34.7335 30.6868 34.8276 30.5579L40.8369 22.3292L46.821 30.5571C46.9151 30.6864 47.0654 30.763 47.2253 30.763H48.6243C48.8123 30.763 48.9845 30.6574 49.0698 30.4898C49.1552 30.3222 49.1392 30.1209 49.0286 29.9688L42.2167 20.6059L55.6388 1.28529Z" fill="#2A2A42"/>
<path d="M1 10.987C0.723858 10.987 0.5 11.2109 0.5 11.487V30.262C0.5 30.5381 0.723858 30.762 1 30.762H2.16137C2.43692 30.762 2.66053 30.539 2.66137 30.2635L2.70931 14.504L13.786 30.5461C13.79 30.5519 13.7942 30.5577 13.7985 30.5634L22.0711 41.513C22.2344 41.7291 22.54 41.7759 22.7605 41.6185C22.9809 41.4612 23.036 41.1569 22.8847 40.9323L2.86644 11.2077C2.77352 11.0697 2.61806 10.987 2.45172 10.987H1Z" fill="#2A2A42"/>
<path d="M18.2858 10.988C18.0097 10.988 17.7858 11.2119 17.7858 11.488V30.263C17.7858 30.5391 18.0097 30.763 18.2858 30.763H31.0873C31.3634 30.763 31.5873 30.5391 31.5873 30.263V29.2638C31.5873 28.9876 31.3634 28.7638 31.0873 28.7638H19.9472V21.507H30.2691C30.5452 21.507 30.7691 21.2831 30.7691 21.007V20.0078C30.7691 19.7316 30.5452 19.5078 30.2691 19.5078H19.9472V12.9873H30.9553C31.2315 12.9873 31.4553 12.7634 31.4553 12.4873V11.488C31.4553 11.2119 31.2315 10.988 30.9553 10.988H18.2858Z" fill="#2A2A42"/>
<path d="M50.5619 10.988C50.2857 10.988 50.0619 11.2119 50.0619 11.488V12.4873C50.0619 12.7634 50.2857 12.9873 50.5619 12.9873H56.687V30.263C56.687 30.5391 56.9108 30.763 57.187 30.763H58.3483C58.6245 30.763 58.8483 30.5391 58.8483 30.263V12.9873H64.9998C65.276 12.9873 65.4998 12.7634 65.4998 12.4873V11.488C65.4998 11.2119 65.276 10.988 64.9998 10.988H50.5619Z" fill="#2A2A42"/>
</svg>
