<svg width="92" height="68" viewBox="0 0 92 68" fill="none" xmlns="http://www.w3.org/2000/svg">
<g filter="url(#filter0_d_722_1586)">
<path fill-rule="evenodd" clip-rule="evenodd" d="M43.9553 24.488H31.2858V43.263H44.0873V42.2637H32.4472V34.007H43.2691V33.0077H32.4472V25.4872H43.9553V24.488ZM47.8726 24.488H46.5264L53.1251 33.6125L46.0513 43.263H47.4238L53.8378 34.4803L60.2253 43.263H61.6243L54.6032 33.6125L68.2282 14L59.935 24.488L53.8378 32.7448L47.8726 24.488ZM63.5619 24.488V25.4872H70.187V43.263H71.3483V25.4872H77.9998V24.488H63.5619ZM15.4517 24.487H14V43.2619H15.1614L15.2142 25.9069L27.1974 43.2619L35.47 54.2115L15.4517 24.487Z" fill="#2A2A42"/>
<path d="M31.2858 24.488V23.988C31.0097 23.988 30.7858 24.2119 30.7858 24.488H31.2858ZM43.9553 24.488H44.4553C44.4553 24.2119 44.2315 23.988 43.9553 23.988V24.488ZM31.2858 43.263H30.7858C30.7858 43.5391 31.0097 43.763 31.2858 43.763V43.263ZM44.0873 43.263V43.763C44.3634 43.763 44.5873 43.5391 44.5873 43.263H44.0873ZM44.0873 42.2637H44.5873C44.5873 41.9876 44.3634 41.7637 44.0873 41.7637V42.2637ZM32.4472 42.2637H31.9472C31.9472 42.5399 32.171 42.7637 32.4472 42.7637V42.2637ZM32.4472 34.007V33.507C32.171 33.507 31.9472 33.7308 31.9472 34.007H32.4472ZM43.2691 34.007V34.507C43.5452 34.507 43.7691 34.2831 43.7691 34.007H43.2691ZM43.2691 33.0077H43.7691C43.7691 32.7316 43.5452 32.5077 43.2691 32.5077V33.0077ZM32.4472 33.0077H31.9472C31.9472 33.2839 32.171 33.5077 32.4472 33.5077V33.0077ZM32.4472 25.4872V24.9872C32.171 24.9872 31.9472 25.2111 31.9472 25.4872H32.4472ZM43.9553 25.4872V25.9872C44.2315 25.9872 44.4553 25.7634 44.4553 25.4872H43.9553ZM46.5264 24.488V23.988C46.3386 23.988 46.1666 24.0933 46.0812 24.2605C45.9957 24.4278 46.0112 24.6288 46.1213 24.781L46.5264 24.488ZM47.8726 24.488L48.2778 24.1952C48.1838 24.0651 48.0331 23.988 47.8726 23.988V24.488ZM53.1251 33.6125L53.5284 33.9081C53.6567 33.7331 53.6574 33.4954 53.5303 33.3195L53.1251 33.6125ZM46.0513 43.263L45.648 42.9674C45.5367 43.1193 45.5202 43.321 45.6053 43.489C45.6905 43.6571 45.8629 43.763 46.0513 43.763V43.263ZM47.4238 43.263V43.763C47.5835 43.763 47.7335 43.6867 47.8276 43.5578L47.4238 43.263ZM53.8378 34.4803L54.2421 34.1862C54.1482 34.057 53.9981 33.9804 53.8383 33.9803C53.6785 33.9801 53.5282 34.0563 53.434 34.1854L53.8378 34.4803ZM60.2253 43.263L59.821 43.5571C59.9151 43.6864 60.0654 43.763 60.2253 43.763V43.263ZM61.6243 43.263V43.763C61.8123 43.763 61.9845 43.6574 62.0698 43.4898C62.1552 43.3222 62.1392 43.1209 62.0286 42.9688L61.6243 43.263ZM54.6032 33.6125L54.1926 33.3273C54.0712 33.5021 54.0737 33.7346 54.1989 33.9067L54.6032 33.6125ZM68.2282 14L68.6388 14.2853C68.7929 14.0634 68.743 13.7593 68.526 13.5984C68.3091 13.4375 68.0035 13.478 67.836 13.6899L68.2282 14ZM59.935 24.488L59.5428 24.1779C59.5394 24.1822 59.536 24.1866 59.5328 24.191L59.935 24.488ZM53.8378 32.7448L53.4325 33.0376C53.526 33.167 53.6756 33.2439 53.8352 33.2448C53.9948 33.2456 54.1452 33.1702 54.24 33.0418L53.8378 32.7448ZM63.5619 25.4872H63.0619C63.0619 25.7634 63.2857 25.9872 63.5619 25.9872V25.4872ZM63.5619 24.488V23.988C63.2857 23.988 63.0619 24.2119 63.0619 24.488H63.5619ZM70.187 25.4872H70.687C70.687 25.2111 70.4631 24.9872 70.187 24.9872V25.4872ZM70.187 43.263H69.687C69.687 43.5391 69.9108 43.763 70.187 43.763V43.263ZM71.3483 43.263V43.763C71.6245 43.763 71.8483 43.5391 71.8483 43.263H71.3483ZM71.3483 25.4872V24.9872C71.0722 24.9872 70.8483 25.2111 70.8483 25.4872H71.3483ZM77.9998 25.4872V25.9872C78.276 25.9872 78.4998 25.7634 78.4998 25.4872H77.9998ZM77.9998 24.488H78.4998C78.4998 24.2119 78.276 23.988 77.9998 23.988V24.488ZM14 24.487V23.987C13.7239 23.987 13.5 24.2108 13.5 24.487H14ZM15.4517 24.487L15.8664 24.2077C15.7735 24.0697 15.6181 23.987 15.4517 23.987V24.487ZM14 43.2619H13.5C13.5 43.5381 13.7239 43.7619 14 43.7619V43.2619ZM15.1614 43.2619V43.7619C15.4369 43.7619 15.6605 43.539 15.6614 43.2635L15.1614 43.2619ZM15.2142 25.9069L15.6256 25.6228C15.5014 25.443 15.2748 25.3646 15.0661 25.4294C14.8574 25.4941 14.7148 25.6869 14.7142 25.9054L15.2142 25.9069ZM27.1974 43.2619L26.786 43.546C26.79 43.5519 26.7942 43.5577 26.7985 43.5633L27.1974 43.2619ZM35.47 54.2115L35.0711 54.5129C35.2344 54.729 35.54 54.7759 35.7605 54.6185C35.9809 54.4612 36.036 54.1569 35.8847 53.9322L35.47 54.2115ZM31.2858 24.988H43.9553V23.988H31.2858V24.988ZM31.7858 43.263V24.488H30.7858V43.263H31.7858ZM44.0873 42.763H31.2858V43.763H44.0873V42.763ZM43.5873 42.2637V43.263H44.5873V42.2637H43.5873ZM32.4472 42.7637H44.0873V41.7637H32.4472V42.7637ZM31.9472 34.007V42.2637H32.9472V34.007H31.9472ZM43.2691 33.507H32.4472V34.507H43.2691V33.507ZM42.7691 33.0077V34.007H43.7691V33.0077H42.7691ZM32.4472 33.5077H43.2691V32.5077H32.4472V33.5077ZM31.9472 25.4872V33.0077H32.9472V25.4872H31.9472ZM43.9553 24.9872H32.4472V25.9872H43.9553V24.9872ZM43.4553 24.488V25.4872H44.4553V24.488H43.4553ZM46.5264 24.988H47.8726V23.988H46.5264V24.988ZM53.5303 33.3195L46.9316 24.195L46.1213 24.781L52.72 33.9055L53.5303 33.3195ZM46.4546 43.5586L53.5284 33.9081L52.7219 33.3169L45.648 42.9674L46.4546 43.5586ZM47.4238 42.763H46.0513V43.763H47.4238V42.763ZM53.434 34.1854L47.0201 42.9681L47.8276 43.5578L54.2416 34.7752L53.434 34.1854ZM60.6297 42.9689L54.2421 34.1862L53.4334 34.7744L59.821 43.5571L60.6297 42.9689ZM61.6243 42.763H60.2253V43.763H61.6243V42.763ZM54.1989 33.9067L61.2199 43.5571L62.0286 42.9688L55.0075 33.3184L54.1989 33.9067ZM67.8175 13.7147L54.1926 33.3273L55.0139 33.8978L68.6388 14.2853L67.8175 13.7147ZM60.3272 24.7981L68.6204 14.3101L67.836 13.6899L59.5428 24.1779L60.3272 24.7981ZM54.24 33.0418L60.3372 24.785L59.5328 24.191L53.4356 32.4478L54.24 33.0418ZM47.4673 24.7808L53.4325 33.0376L54.2431 32.452L48.2778 24.1952L47.4673 24.7808ZM64.0619 25.4872V24.488H63.0619V25.4872H64.0619ZM70.187 24.9872H63.5619V25.9872H70.187V24.9872ZM70.687 43.263V25.4872H69.687V43.263H70.687ZM71.3483 42.763H70.187V43.763H71.3483V42.763ZM70.8483 25.4872V43.263H71.8483V25.4872H70.8483ZM77.9998 24.9872H71.3483V25.9872H77.9998V24.9872ZM77.4998 24.488V25.4872H78.4998V24.488H77.4998ZM63.5619 24.988H77.9998V23.988H63.5619V24.988ZM14 24.987H15.4517V23.987H14V24.987ZM14.5 43.2619V24.487H13.5V43.2619H14.5ZM15.1614 42.7619H14V43.7619H15.1614V42.7619ZM14.7142 25.9054L14.6614 43.2604L15.6614 43.2635L15.7142 25.9085L14.7142 25.9054ZM27.6089 42.9778L15.6256 25.6228L14.8027 26.191L26.786 43.546L27.6089 42.9778ZM35.869 53.9101L27.5964 42.9605L26.7985 43.5633L35.0711 54.5129L35.869 53.9101ZM15.037 24.7663L35.0553 54.4908L35.8847 53.9322L15.8664 24.2077L15.037 24.7663Z" fill="#2A2A42"/>
</g>
<defs>
<filter id="filter0_d_722_1586" x="0.7" y="0.7" width="90.6" height="66.8117" filterUnits="userSpaceOnUse" color-interpolation-filters="sRGB">
<feFlood flood-opacity="0" result="BackgroundImageFix"/>
<feColorMatrix in="SourceAlpha" type="matrix" values="0 0 0 0 0 0 0 0 0 0 0 0 0 0 0 0 0 0 127 0" result="hardAlpha"/>
<feOffset/>
<feGaussianBlur stdDeviation="6.4"/>
<feComposite in2="hardAlpha" operator="out"/>
<feColorMatrix type="matrix" values="0 0 0 0 1 0 0 0 0 1 0 0 0 0 1 0 0 0 0.65 0"/>
<feBlend mode="normal" in2="BackgroundImageFix" result="effect1_dropShadow_722_1586"/>
<feBlend mode="normal" in="SourceGraphic" in2="effect1_dropShadow_722_1586" result="shape"/>
</filter>
</defs>
</svg>
