<svg width="238" height="65" fill="none" xmlns="http://www.w3.org/2000/svg">
  <g clip-path="url(#clip0)">
    <path fill-rule="evenodd" clip-rule="evenodd" d="M95.95 19.414h5.867a5.23 5.23 0 013.691 1.523 5.189 5.189 0 011.529 3.676c0 1.38-.55 2.702-1.529 3.677a5.23 5.23 0 01-3.691 1.523h-5.52a.917.917 0 00-.915.912v27.514a6.739 6.739 0 01-1.988 4.78A6.79 6.79 0 0188.596 65a6.8 6.8 0 01-4.799-1.98 6.747 6.747 0 01-1.987-4.78V17.333c0-5.314 1.58-9.532 4.74-12.654C89.71 1.558 94.16-.002 99.902 0c1.949-.005 3.891.216 5.788.659 1.141.26 2.249.644 3.306 1.146a1.583 1.583 0 01.809 1.976l-2.475 6.802a1.58 1.58 0 01-1.509 1.033 1.59 1.59 0 01-.63-.14 9.737 9.737 0 00-3.966-.798c-4.119 0-6.177 2.254-6.175 6.76v1.08a.914.914 0 00.9.896zm81.67 3.985c4.176 3.989 6.264 9.477 6.264 16.464v18.374a6.746 6.746 0 01-1.988 4.78 6.797 6.797 0 01-4.798 1.98h-.175a6.8 6.8 0 01-4.799-1.98 6.749 6.749 0 01-1.987-4.78V40.3c0-3.872-.855-6.79-2.565-8.752-1.71-1.963-4.219-2.95-7.527-2.964-3.246 0-5.71.988-7.394 2.964-1.684 1.976-2.524 4.893-2.522 8.752V58.24a6.746 6.746 0 01-1.988 4.78 6.797 6.797 0 01-4.798 1.98c-1.8 0-3.526-.712-4.798-1.98a6.746 6.746 0 01-1.988-4.78V39.866c0-6.991 2.088-12.48 6.264-16.463 4.176-3.985 9.975-5.978 17.399-5.98 7.424-.002 13.224 1.99 17.4 5.976zm25.64 21.145h30.965a3.77 3.77 0 002.614-1.038A3.743 3.743 0 00238 40.952v-.046c0-4.854-1.059-9.114-3.176-12.783a21.586 21.586 0 00-8.743-8.452c-3.713-1.963-7.86-2.944-12.442-2.944-4.693 0-8.94 1.024-12.739 3.072a22.824 22.824 0 00-8.964 8.581 23.76 23.76 0 00-3.263 12.348c0 4.625 1.102 8.757 3.306 12.394a22.606 22.606 0 009.394 8.538c4.05 2.05 8.719 3.076 14.008 3.076 5.628 0 10.357-1.11 14.187-3.33a5.425 5.425 0 002.655-3.875 5.416 5.416 0 00-1.372-4.488l-.073-.08c-1.626-1.754-4.634-2.172-6.727-1.007-.592.332-1.207.62-1.841.863a18.065 18.065 0 01-6.482 1.083c-3.539 0-6.493-.837-8.862-2.512a10.87 10.87 0 01-4.297-5.927.718.718 0 01.691-.919zm-.889-8.992a10.75 10.75 0 013.613-6c2.087-1.734 4.672-2.598 7.754-2.591 3.015 0 5.567.878 7.656 2.634A10.916 10.916 0 01225 35.548a.898.898 0 01-.173.767.91.91 0 01-.71.343h-20.86a.91.91 0 01-.886-.703.912.912 0 010-.403zm-81.742-15.235c1.8 0 3.526.712 4.798 1.98a6.746 6.746 0 011.988 4.78V55.1a6.746 6.746 0 01-1.988 4.78 6.8 6.8 0 01-9.597 0 6.749 6.749 0 01-1.987-4.78V27.077a6.737 6.737 0 011.987-4.78 6.793 6.793 0 014.799-1.98zm0-2.89a9.719 9.719 0 00-6.846 2.83 9.646 9.646 0 00-2.839 6.82V55.1a9.626 9.626 0 002.837 6.822 9.702 9.702 0 006.848 2.825 9.704 9.704 0 006.848-2.825 9.63 9.63 0 002.837-6.822V27.077a9.643 9.643 0 00-2.84-6.82 9.715 9.715 0 00-6.845-2.83zm-90.764.288a30.06 30.06 0 00-5.725 6.997 30.341 30.341 0 00-1.647 3.233c-2.758.183-4.892 1.152-6.399 2.908-1.681 1.962-2.522 4.88-2.522 8.752v18.63a6.747 6.747 0 01-1.987 4.78 6.8 6.8 0 01-4.799 1.98 6.8 6.8 0 01-4.798-1.98A6.747 6.747 0 010 58.236V39.17c0-6.989 2.088-12.477 6.264-16.463 4.176-3.987 9.975-5.98 17.4-5.98a34.097 34.097 0 016.346.556l-.146.432zm11.855 26.83h30.966c.971 0 1.905-.373 2.607-1.043a3.744 3.744 0 001.157-2.596c-.002-4.854-1.06-9.114-3.176-12.783a21.603 21.603 0 00-8.743-8.452c-3.713-1.963-7.86-2.944-12.442-2.944-4.698-.002-8.946 1.023-12.745 3.076a22.835 22.835 0 00-8.951 8.577 23.75 23.75 0 00-3.263 12.348c0 4.625 1.102 8.757 3.306 12.394a22.637 22.637 0 009.397 8.538c4.05 2.05 8.72 3.076 14.008 3.076 5.624 0 10.353-1.11 14.187-3.33a5.409 5.409 0 002.48-6.276 5.415 5.415 0 00-1.2-2.087l-.07-.079c-1.626-1.755-4.634-2.173-6.727-1.008-.592.332-1.207.62-1.84.863a18.068 18.068 0 01-6.483 1.083c-3.539 0-6.494-.837-8.865-2.512a10.895 10.895 0 01-4.297-5.927.72.72 0 01.694-.919zm-.889-8.993a10.75 10.75 0 013.613-6c2.087-1.734 4.665-2.598 7.735-2.591 3.016 0 5.57.878 7.658 2.634a10.935 10.935 0 013.613 5.954.901.901 0 01-.488 1.018.912.912 0 01-.394.091H41.714a.911.911 0 01-.883-.704.903.903 0 010-.402zm79.797-3.49c2.852 0 5.163-2.303 5.163-5.143 0-2.841-2.311-5.144-5.163-5.144-2.851 0-5.163 2.303-5.163 5.144 0 2.84 2.312 5.143 5.163 5.143z" fill="#fff"/>
  </g>
  <defs>
    <clipPath id="clip0">
      <path fill="#fff" d="M0 0h238v65H0z"/>
    </clipPath>
  </defs>
</svg>