<svg width="34" height="45" viewBox="0 0 34 45" fill="none" xmlns="http://www.w3.org/2000/svg">
<g filter="url(#filter0_b)">
<path fill-rule="evenodd" clip-rule="evenodd" d="M13.7986 13.4408H9.75226C9.58891 13.4373 9.43321 13.3708 9.31767 13.2553C9.20214 13.1398 9.13569 12.9841 9.1322 12.8207V12.073C9.13068 8.95295 10.5501 7.39292 13.3906 7.39292C14.331 7.38256 15.2632 7.57053 16.1261 7.94459C16.2628 8.00644 16.4108 8.03946 16.5608 8.04158C16.7109 8.0437 16.8597 8.01488 16.9981 7.95691C17.1365 7.89894 17.2615 7.81308 17.3652 7.70466C17.4689 7.59625 17.5492 7.46762 17.601 7.32681L19.3085 2.61709C19.402 2.36047 19.3967 2.0782 19.2934 1.82532C19.1902 1.57244 18.9964 1.36709 18.75 1.24931C18.0214 0.902386 17.2569 0.636358 16.4703 0.455996C15.1621 0.149271 13.8225 -0.00373952 12.4787 6.93902e-05C8.51822 -0.00145036 5.44832 1.07834 3.26899 3.23943C1.08966 5.40052 0 8.32073 0 12.0001V40.3199C0 41.5611 0.493078 42.7515 1.37076 43.6292C2.24845 44.5069 3.43885 45 4.68008 45C5.29468 45 5.90326 44.8789 6.47107 44.6438C7.03888 44.4086 7.55482 44.0638 7.9894 43.6292C8.42399 43.1946 8.76872 42.6787 9.00392 42.1109C9.23911 41.5431 9.36017 40.9345 9.36017 40.3199V21.2713C9.36017 21.1038 9.42669 20.9432 9.54512 20.8248C9.66354 20.7064 9.82415 20.6399 9.99162 20.6399H13.7986C14.7533 20.6399 15.6688 20.2606 16.3439 19.5856C17.0189 18.9105 17.3981 17.995 17.3981 17.0403C17.3981 16.0857 17.0189 15.1701 16.3439 14.4951C15.6688 13.82 14.7533 13.4408 13.7986 13.4408ZM30.0814 15.4367C29.2037 14.559 28.0133 14.066 26.772 14.066C26.1574 14.066 25.5489 14.187 24.9811 14.4222C24.4132 14.6574 23.8973 15.0021 23.4627 15.4367C23.0282 15.8713 22.6834 16.3873 22.4482 16.9551C22.213 17.5229 22.092 18.1315 22.092 18.7461V38.1457C22.092 39.387 22.5851 40.5774 23.4627 41.455C24.3404 42.3327 25.5308 42.8258 26.772 42.8258C28.0133 42.8258 29.2037 42.3327 30.0814 41.455C30.959 40.5774 31.4521 39.387 31.4521 38.1457V18.7461C31.4521 17.5048 30.959 16.3144 30.0814 15.4367ZM22.0509 14.0242C23.3031 12.7717 25.0009 12.0669 26.772 12.0645C28.5432 12.0669 30.241 12.7717 31.4932 14.0242C32.7453 15.2768 33.4496 16.9749 33.4514 18.7461V38.1457C33.4514 39.9172 32.7477 41.6161 31.495 42.8687C30.2424 44.1213 28.5435 44.825 26.772 44.825C25.0006 44.825 23.3017 44.1213 22.0491 42.8687C20.7964 41.6161 20.0927 39.9172 20.0927 38.1457V18.7461C20.0945 16.9749 20.7988 15.2768 22.0509 14.0242Z" fill="#1890FF"/>
</g>
<path d="M26.772 22.1969C28.7385 22.1969 30.3328 20.6027 30.3328 18.6361C30.3328 16.6695 28.7385 15.0753 26.772 15.0753C24.8054 15.0753 23.2112 16.6695 23.2112 18.6361C23.2112 20.6027 24.8054 22.1969 26.772 22.1969Z" fill="#36CFC9"/>
<defs>
<filter id="filter0_b" x="-8" y="-8" width="49.4514" height="61" filterUnits="userSpaceOnUse" color-interpolation-filters="sRGB">
<feFlood flood-opacity="0" result="BackgroundImageFix"/>
<feGaussianBlur in="BackgroundImage" stdDeviation="4"/>
<feComposite in2="SourceAlpha" operator="in" result="effect1_backgroundBlur"/>
<feBlend mode="normal" in="SourceGraphic" in2="effect1_backgroundBlur" result="shape"/>
</filter>
</defs>
</svg>
