<svg width="64" height="64" fill="none" xmlns="http://www.w3.org/2000/svg"><path d="M29.27 1.139 1.133 29.25a3.857 3.857 0 0 0 0 5.464L29.27 62.826a3.864 3.864 0 0 0 5.468 0l11.797-11.787a3.464 3.464 0 0 0 0-4.902 3.47 3.47 0 0 0-4.905 0l-8.943 8.936a.918.918 0 0 1-1.325 0L8.894 32.623a.916.916 0 0 1 0-1.322L31.36 8.85a.918.918 0 0 1 1.325 0l8.943 8.936a3.47 3.47 0 0 0 4.905 0 3.464 3.464 0 0 0 0-4.902L34.739 1.1a3.901 3.901 0 0 0-5.47.039Z" fill="url(#a)"/><path d="M29.27 1.139 1.133 29.25a3.857 3.857 0 0 0 0 5.464L29.27 62.826a3.864 3.864 0 0 0 5.468 0l11.797-11.787a3.464 3.464 0 0 0 0-4.902 3.47 3.47 0 0 0-4.905 0l-8.943 8.936a.918.918 0 0 1-1.325 0L8.894 32.623a.916.916 0 0 1 0-1.322L31.36 8.85c.938-.808 2.467-2.445 4.713-2.828 1.67-.284 3.495.342 5.475 1.879L34.74 1.1a3.901 3.901 0 0 0-5.47.039Z" fill="url(#b)"/><path d="M49.258 43.523a3.47 3.47 0 0 0 4.906 0l8.702-8.695a3.857 3.857 0 0 0 0-5.463l-8.778-8.74a3.477 3.477 0 0 0-4.91.005 3.464 3.464 0 0 0 0 4.902l5.928 5.923a.916.916 0 0 1 0 1.323l-5.848 5.843a3.464 3.464 0 0 0 0 4.902Z" fill="url(#c)"/><path d="M32.145 39.713a7.593 7.593 0 0 0 7.597-7.59 7.593 7.593 0 0 0-7.597-7.59 7.593 7.593 0 0 0-7.596 7.59 7.593 7.593 0 0 0 7.596 7.59Z" fill="url(#d)"/><defs><linearGradient id="a" x1="29.53" y1="0" x2="56.266" y2="16.327" gradientUnits="userSpaceOnUse"><stop stop-color="#4285EB"/><stop offset="1" stop-color="#2EC7FF"/></linearGradient><linearGradient id="b" x1="33.116" y1="0" x2="19.91" y2="68.248" gradientUnits="userSpaceOnUse"><stop stop-color="#29CDFF"/><stop offset=".379" stop-color="#148EFF"/><stop offset="1" stop-color="#0A60FF"/></linearGradient><linearGradient id="c" x1="59.2" y1="16.379" x2="42.018" y2="43.251" gradientUnits="userSpaceOnUse"><stop stop-color="#FA816E"/><stop offset=".415" stop-color="#F74A5C"/><stop offset="1" stop-color="#F51D2C"/></linearGradient><linearGradient id="d" x1="34.899" y1="19.115" x2="29.182" y2="41.983" gradientUnits="userSpaceOnUse"><stop stop-color="#FA8E7D"/><stop offset=".513" stop-color="#F74A5C"/><stop offset="1" stop-color="#F51D2C"/></linearGradient></defs></svg>