<svg width="32" height="32" xmlns="http://www.w3.org/2000/svg" fill="none" viewbox="10 10 29 29">

    <g>
        <title>Layer 1</title>
        <g stroke="null" id="svg_1" opacity="0.75">
            <path stroke="null" id="svg_2" fill="#1890FF"
                d="m19.1093,7.52314c0,1.69956 -1.39221,3.07729 -3.10954,3.07729c-1.71749,0 -3.10969,-1.37773 -3.10969,-3.07729c0,-1.69964 1.3922,-3.07742 3.10969,-3.07742c1.71733,0 3.10954,1.37778 3.10954,3.07742z" />
            <path stroke="null" id="svg_3" fill="#1890FF"
                d="m11.8771,3.5373c1.0935,-1.08253 2.57615,-1.69163 4.12282,-1.69372c1.54667,0.00209 3.02948,0.61119 4.12298,1.69372c1.0935,1.08253 1.70852,2.55009 1.7101,4.08068l0,16.76592c0,1.53094 -0.61455,2.99927 -1.70853,4.08177c-1.09382,1.08249 -2.57757,1.69075 -4.12455,1.69075c-1.54698,0 -3.03057,-0.60825 -4.12455,-1.69075c-1.09382,-1.0825 -1.70836,-2.55083 -1.70836,-4.08177l0,-16.76592c0.00157,-1.53059 0.61659,-2.99816 1.7101,-4.08068zm7.01278,1.22072c-0.76634,-0.75853 -1.80589,-1.18467 -2.88996,-1.18467c-0.53669,0 -1.06818,0.10463 -1.56397,0.30789c-0.49595,0.20327 -0.94643,0.5012 -1.32598,0.87679c-0.37955,0.37559 -0.68061,0.82147 -0.88588,1.31219c-0.20543,0.49072 -0.31113,1.01674 -0.31113,1.54777l0,16.76592c0,1.07274 0.43051,2.10144 1.19701,2.86007c0.76649,0.75847 1.80604,1.18458 2.88995,1.18458c1.08406,0 2.12362,-0.42611 2.88996,-1.18458c0.76649,-0.75863 1.19716,-1.78732 1.19716,-2.86007l0,-16.76592c0,-1.07265 -0.43067,-2.10144 -1.19716,-2.85996z"
                clip-rule="evenodd" fill-rule="evenodd" />
        </g>
    </g>
</svg>