<svg width="64" height="64" fill="none" xmlns="http://www.w3.org/2000/svg"><path d="M64 32C64 14.327 49.673 0 32 0 14.327 0 0 14.327 0 32c0 17.673 14.327 32 32 32 17.673 0 32-14.327 32-32Z" fill="#339AF0"/><path d="M26.041 16.903a2.44 2.44 0 0 0-.132 2.703c.164.273.381.512.638.701 3.728 2.763 5.867 6.987 5.867 11.591 0 4.604-2.14 8.828-5.867 11.59a2.428 2.428 0 0 0-.506 3.402 2.422 2.422 0 0 0 1.599.958 2.441 2.441 0 0 0 1.809-.453 19.736 19.736 0 0 0 3.136-2.902h6.904a2.435 2.435 0 0 0 2.437-2.431 2.434 2.434 0 0 0-2.437-2.432h-3.81a19.218 19.218 0 0 0 1.606-7.732 19.218 19.218 0 0 0-1.606-7.731h3.813a2.434 2.434 0 0 0 2.436-2.432 2.433 2.433 0 0 0-2.436-2.432h-6.903a19.74 19.74 0 0 0-3.138-2.904 2.434 2.434 0 0 0-1.807-.453c-.64.096-1.215.44-1.6.957h-.003Z" fill="#fff"/><path fill-rule="evenodd" clip-rule="evenodd" d="M22.196 31.173a3.65 3.65 0 0 1 1.026-2.625 3.61 3.61 0 0 1 2.583-1.095 3.593 3.593 0 0 1 2.584 1.095 3.635 3.635 0 0 1 1.025 2.625 3.641 3.641 0 0 1-1.087 2.51 3.598 3.598 0 0 1-5.043 0 3.642 3.642 0 0 1-1.088-2.51Z" fill="#fff"/></svg>