<svg width="64" height="64" fill="none" xmlns="http://www.w3.org/2000/svg"><g clip-path="url(#a)" fill="#07B6D5"><path d="M31.304 13.013c-11.26.357-14.605 8.4-15.372 12.757.999-1.615 4.148-5.158 8.784-5.158 5.403 0 9.516 6.03 12.026 7.912 3.049 2.287 9.176 5.307 17.22 2.859C60.374 29.43 63.35 22.622 64 19.392c-3.102 4.217-7.808 6.75-13.629 3.764-4.009-2.056-7.006-10.527-19.067-10.143ZM15.372 32.15C4.113 32.506.767 40.55 0 44.906c1-1.615 4.148-5.158 8.784-5.158 5.403 0 9.516 6.03 12.026 7.912 3.05 2.287 9.176 5.307 17.22 2.858 6.413-1.951 9.388-8.76 10.039-11.99-3.103 4.217-7.808 6.75-13.63 3.764-4.008-2.057-7.006-10.527-19.067-10.144Z"/></g><defs><clipPath id="a"><path fill="#fff" d="M0 0h64.001v64H0z"/></clipPath></defs></svg>