<svg width="178" height="48" viewBox="0 0 178 48" fill="none" xmlns="http://www.w3.org/2000/svg">
<path d="M75.8907 14.3366H71.5248C71.3485 14.3329 71.1805 14.262 71.0559 14.1388C70.9312 14.0156 70.8595 13.8495 70.8557 13.6753V12.8777C70.8541 9.54968 72.3856 7.88568 75.4504 7.88568C76.4652 7.87462 77.4709 8.07512 78.402 8.47411C78.5495 8.54009 78.7092 8.57531 78.8711 8.57757C79.0329 8.57983 79.1935 8.54909 79.3429 8.48726C79.4922 8.42542 79.627 8.33384 79.739 8.2182C79.8509 8.10256 79.9375 7.96536 79.9934 7.81516L81.8357 2.79152C81.9367 2.5178 81.9309 2.21671 81.8195 1.94698C81.708 1.67725 81.499 1.45821 81.2331 1.33258C80.4469 0.962532 79.6221 0.678773 78.7734 0.486389C77.3618 0.15922 75.9164 -0.00398877 74.4665 7.40153e-05C70.1933 -0.00154703 66.8809 1.15021 64.5295 3.45535C62.178 5.76048 61.0023 8.87533 61.0023 12.7999V43.0073C61.0023 44.3313 61.5343 45.601 62.4813 46.5372C63.4283 47.4734 64.7127 47.9994 66.052 47.9994C66.7151 47.9994 67.3718 47.8702 67.9844 47.6194C68.5971 47.3685 69.1538 47.0008 69.6227 46.5372C70.0916 46.0737 70.4636 45.5234 70.7173 44.9177C70.9711 44.312 71.1017 43.6629 71.1017 43.0073V22.6891C71.1017 22.5105 71.1735 22.3391 71.3013 22.2128C71.429 22.0865 71.6023 22.0156 71.783 22.0156H75.8907C76.9207 22.0156 77.9086 21.611 78.637 20.891C79.3653 20.171 79.7745 19.1944 79.7745 18.1761C79.7745 17.1578 79.3653 16.1812 78.637 15.4612C77.9086 14.7412 76.9207 14.3366 75.8907 14.3366Z" fill="white"/>
<path d="M136.959 29.4374C136.959 24.2775 135.405 20.2249 132.298 17.2795C129.191 14.3356 124.875 12.8645 119.35 12.8662C113.826 12.8678 109.51 14.3397 106.403 17.2819C103.295 20.2241 101.742 24.2767 101.742 29.4398V43.008C101.742 44.3319 102.274 45.6017 103.221 46.5379C104.168 47.4741 105.452 48 106.791 48C108.131 48 109.415 47.4741 110.362 46.5379C111.309 45.6017 111.841 44.3319 111.841 43.008V29.7608C111.839 26.9109 112.465 24.7566 113.718 23.2976C114.971 21.8387 116.805 21.1092 119.22 21.1092C121.681 21.1189 123.548 21.8484 124.821 23.2976C126.093 24.7468 126.729 26.9012 126.729 29.7608V43.0055C126.729 44.3295 127.261 45.5992 128.208 46.5354C129.155 47.4716 130.44 47.9976 131.779 47.9976H131.909C133.249 47.9976 134.533 47.4716 135.48 46.5354C136.427 45.5992 136.959 44.3295 136.959 43.0055V29.4374Z" fill="white"/>
<path fill-rule="evenodd" clip-rule="evenodd" d="M174.42 32.8943H151.378C151.294 32.8944 151.212 32.9136 151.138 32.9505C151.064 32.9873 150.999 33.0407 150.949 33.1065C150.899 33.1724 150.866 33.2487 150.851 33.3296C150.836 33.4105 150.84 33.4937 150.864 33.5727C151.386 35.3529 152.516 36.8995 154.061 37.9495C155.824 39.1864 158.022 39.8048 160.656 39.8048C162.299 39.833 163.934 39.5618 165.479 39.0048C165.951 38.8254 166.408 38.6124 166.849 38.3677C168.406 37.507 170.644 37.8158 171.854 39.1118L171.909 39.1702C172.319 39.6118 172.624 40.1388 172.801 40.7125C172.978 41.2862 173.022 41.8918 172.93 42.4846C172.839 43.0774 172.613 43.6424 172.271 44.1377C171.929 44.633 171.479 45.046 170.954 45.3464C168.104 46.9852 164.585 47.8047 160.397 47.8047C156.462 47.8047 152.987 47.0477 149.973 45.5336C147.082 44.1353 144.656 41.9473 142.983 39.2285C141.343 36.5424 140.523 33.4916 140.523 30.0761C140.478 26.8748 141.317 23.7221 142.951 20.9577C144.54 18.2768 146.848 16.0835 149.621 14.621C152.448 13.1085 155.608 12.3523 159.101 12.3523C162.51 12.3523 165.596 13.0769 168.359 14.5261C171.088 15.9471 173.347 18.1138 174.865 20.768C176.441 23.4768 177.229 26.6232 177.229 30.2074V30.2414C177.198 30.9568 176.889 31.6327 176.365 32.1273C175.841 32.6219 175.144 32.8968 174.42 32.8943ZM153.404 21.8233C152.034 22.9627 151.088 24.522 150.716 26.2536C150.693 26.3515 150.694 26.4532 150.716 26.551C150.739 26.6489 150.783 26.7404 150.847 26.8189C150.91 26.8974 150.99 26.9608 151.082 27.0044C151.173 27.0479 151.274 27.0706 151.375 27.0706H166.898C167 27.0703 167.1 27.0473 167.191 27.0035C167.283 26.9596 167.363 26.8959 167.426 26.8172C167.489 26.7385 167.534 26.6467 167.556 26.5487C167.578 26.4508 167.578 26.3491 167.555 26.2512C167.169 24.536 166.226 22.9923 164.871 21.8549C163.317 20.5581 161.418 19.9097 159.175 19.9097C156.881 19.9048 154.957 20.5427 153.404 21.8233Z" fill="white"/>
<path fill-rule="evenodd" clip-rule="evenodd" d="M84.7949 14.9589C86.146 13.6229 87.9779 12.8711 89.8889 12.8685C91.7999 12.8711 93.6319 13.6229 94.9829 14.9589C96.334 16.295 97.0938 18.1063 97.0958 19.9955V40.6882C97.0958 42.5777 96.3365 44.3899 94.9849 45.726C93.6334 47.0621 91.8003 47.8127 89.8889 47.8127C87.9775 47.8127 86.1445 47.0621 84.7929 45.726C83.4414 44.3899 82.6821 42.5777 82.6821 40.6882V19.9955C82.684 18.1063 83.4439 16.295 84.7949 14.9589ZM93.4596 16.4656C92.5126 15.5294 91.2282 15.0034 89.8889 15.0034C89.2258 15.0034 88.5691 15.1326 87.9565 15.3834C87.3438 15.6343 86.7872 16.002 86.3183 16.4656C85.8493 16.9291 85.4774 17.4794 85.2236 18.0851C84.9698 18.6908 84.8392 19.3399 84.8392 19.9955V40.6882C84.8392 42.0121 85.3713 43.2819 86.3183 44.2181C87.2653 45.1543 88.5497 45.6802 89.8889 45.6802C91.2282 45.6802 92.5126 45.1543 93.4596 44.2181C94.4066 43.2819 94.9386 42.0121 94.9386 40.6882V19.9955C94.9386 18.6715 94.4066 17.4018 93.4596 16.4656Z" fill="white"/>
<path d="M17.963 18.2489C19.1116 16.3242 20.5479 14.5822 22.2231 13.0818L22.3313 12.7633C20.7736 12.4803 19.1925 12.3428 17.6088 12.3523C12.0844 12.3523 7.76845 13.8242 4.66107 16.7681C1.55369 19.7119 0 23.7645 0 28.9259V43.0047C0 44.3287 0.532019 45.5985 1.47902 46.5346C2.42602 47.4708 3.71044 47.9968 5.0497 47.9968C6.38896 47.9968 7.67338 47.4708 8.62038 46.5346C9.56738 45.5985 10.0994 44.3287 10.0994 43.0047V29.2469C10.0994 26.3874 10.725 24.233 11.9761 22.7838C13.0977 21.4869 14.685 20.7712 16.7381 20.6367C17.0979 19.8174 17.507 19.02 17.963 18.2489Z" fill="white"/>
<path fill-rule="evenodd" clip-rule="evenodd" d="M54.0876 32.8943H31.0455C30.9622 32.8945 30.8802 32.9138 30.8058 32.9507C30.7314 32.9875 30.6666 33.0409 30.6166 33.1066C30.5666 33.1723 30.5326 33.2486 30.5174 33.3295C30.5022 33.4103 30.5061 33.4936 30.5289 33.5727C31.0529 35.3523 32.1824 36.8984 33.7265 37.9496C35.4909 39.1864 37.6898 39.8048 40.3233 39.8048C41.9672 39.833 43.6022 39.5618 45.1467 39.0049C45.6183 38.8254 46.0762 38.6125 46.5168 38.3678C48.0737 37.507 50.312 37.8158 51.5222 39.1119L51.5738 39.1702C51.9849 39.6114 52.2903 40.1383 52.4676 40.712C52.6448 41.2856 52.6894 41.8913 52.598 42.4843C52.5067 43.0772 52.2816 43.6423 51.9396 44.1377C51.5975 44.6331 51.1472 45.0462 50.622 45.3464C47.7687 46.9853 44.2498 47.8047 40.0651 47.8047C36.1296 47.8047 32.6549 47.0477 29.641 45.5336C26.7492 44.1347 24.3227 41.9469 22.6481 39.2286C21.0084 36.5425 20.1885 33.4917 20.1885 30.0761C20.1432 26.8749 20.9826 23.7221 22.6162 20.9577C24.203 18.2794 26.5082 16.0871 29.2769 14.6235C32.1039 13.1078 35.2654 12.3507 38.7614 12.3524C42.1705 12.3524 45.2566 13.077 48.0196 14.5262C50.7482 15.948 53.0063 18.1144 54.5255 20.7681C56.0996 23.4768 56.8876 26.6233 56.8892 30.2074C56.8897 30.2131 56.8899 30.2188 56.8899 30.2244C56.8899 30.2279 56.8898 30.2314 56.8897 30.2349C56.8895 30.2371 56.8894 30.2393 56.8892 30.2415C56.8587 30.9556 56.5502 31.6304 56.028 32.1248C55.5059 32.6192 54.8106 32.8949 54.0876 32.8943ZM33.0722 21.8233C31.7018 22.9628 30.7556 24.522 30.3838 26.2537C30.3613 26.3514 30.3613 26.4528 30.3838 26.5505C30.4063 26.6482 30.4507 26.7396 30.5138 26.818C30.5768 26.8965 30.6569 26.9599 30.7481 27.0036C30.8392 27.0473 30.9392 27.0703 31.0405 27.0707H46.5586C46.6602 27.0704 46.7604 27.0474 46.8518 27.0035C46.9432 26.9596 47.0234 26.896 47.0865 26.8173C47.1496 26.7385 47.1939 26.6468 47.2162 26.5488C47.2385 26.4508 47.2382 26.3491 47.2153 26.2513C46.8268 24.5357 45.883 22.9922 44.5269 21.855C42.9724 20.5581 41.0727 19.9097 38.8278 19.9097C36.5436 19.9048 34.6251 20.5427 33.0722 21.8233Z" fill="white"/>
<path d="M93.6054 19.8783C93.6054 21.976 91.8853 23.6765 89.7634 23.6765C87.6415 23.6765 85.9214 21.976 85.9214 19.8783C85.9214 17.7807 87.6415 16.0802 89.7634 16.0802C91.8853 16.0802 93.6054 17.7807 93.6054 19.8783Z" fill="white"/>
</svg>
