<svg width="408" height="67" fill="none" xmlns="http://www.w3.org/2000/svg">
<g clip-path="url(#clip0)">
<path fill-rule="evenodd" clip-rule="evenodd" d="M19.9905 19.5687H14.1261C14.0045 19.5687 13.884 19.5444 13.7718 19.4972C13.6595 19.4501 13.5577 19.3809 13.4723 19.2939C13.3869 19.2069 13.3196 19.1037 13.2742 18.9903C13.2289 18.8769 13.2064 18.7555 13.2082 18.6333V17.5454C13.2082 13.0059 15.2697 10.7362 19.3929 10.7362C20.7552 10.7211 22.1053 10.9946 23.3553 11.5388C23.5533 11.6293 23.7677 11.6778 23.9852 11.6811C24.2026 11.6844 24.4184 11.6426 24.619 11.5582C24.8196 11.4738 25.0007 11.3487 25.1509 11.1906C25.3011 11.0326 25.4171 10.8452 25.4917 10.64L27.9683 3.80748C28.1038 3.43411 28.096 3.02342 27.9465 2.6555C27.7969 2.28757 27.5163 1.9888 27.1593 1.81743C26.1041 1.31216 24.9967 0.925084 23.8572 0.663206C21.9633 0.216925 20.024 -0.00569841 18.0787 -0.000142679C12.3397 -0.00235384 7.89188 1.56868 4.73513 4.71295C1.57837 7.85723 0 12.106 0 17.4592V58.6631C0 60.4691 0.714223 62.201 1.98555 63.478C3.25687 64.755 4.98116 65.4724 6.77909 65.4724C8.57701 65.4724 10.3013 64.755 11.5726 63.478C12.844 62.201 13.5582 60.4691 13.5582 58.6631V30.9484C13.5582 30.7047 13.6545 30.4711 13.8261 30.2988C13.9976 30.1265 14.2303 30.0297 14.4728 30.0297H19.9905C20.6753 30.0297 21.3532 29.8942 21.9858 29.631C22.6184 29.3678 23.1932 28.9821 23.6773 28.4957C24.1615 28.0094 24.5456 27.4321 24.8076 26.7967C25.0696 26.1613 25.2045 25.4803 25.2045 24.7925C25.201 23.4059 24.6501 22.0772 23.6727 21.0979C22.6953 20.1186 21.3711 19.5687 19.9905 19.5687ZM101.97 40.1525C101.968 33.1122 99.8824 27.5843 95.713 23.5688C91.5414 19.5533 85.7475 17.5456 78.3311 17.5456C70.9367 17.5478 65.1482 19.5566 60.9656 23.5721C56.7831 27.5876 54.6918 33.1155 54.6918 40.1558V58.6633C54.6918 60.4692 55.406 62.2012 56.6773 63.4782C57.9486 64.7551 59.6729 65.4725 61.4709 65.4725C63.2688 65.4725 64.9931 64.7551 66.2644 63.4782C67.5357 62.2012 68.2499 60.4692 68.2499 58.6633V40.5936C68.2477 36.7064 69.0876 33.7678 70.7694 31.7777C72.4512 29.7877 74.9135 28.7927 78.1561 28.7927C81.4581 28.8059 83.9643 29.801 85.6748 31.7777C87.3853 33.7545 88.2405 36.6932 88.2405 40.5936V58.66C88.2405 60.4653 88.9543 62.1968 90.2249 63.4737C91.4955 64.7506 93.2189 65.4684 95.0163 65.4692H95.1913C96.0815 65.4692 96.9631 65.2931 97.7855 64.9509C98.608 64.6087 99.3553 64.1071 99.9848 63.4748C100.614 62.8425 101.114 62.0919 101.454 61.2658C101.795 60.4396 101.97 59.5542 101.97 58.66V40.1525ZM152.26 44.869H121.327C121.215 44.8691 121.105 44.8954 121.005 44.9456C120.905 44.9959 120.819 45.0688 120.752 45.1585C120.685 45.2483 120.639 45.3525 120.619 45.4628C120.599 45.5732 120.605 45.6867 120.637 45.7943C121.338 48.2227 122.855 50.3322 124.929 51.7645C127.307 53.4516 130.262 54.2952 133.795 54.2952C136.002 54.3339 138.197 53.964 140.271 53.204C140.904 52.9598 141.519 52.6694 142.11 52.335C144.2 51.1608 147.205 51.5821 148.829 53.3499L148.902 53.4295C149.453 54.0329 149.863 54.7532 150.099 55.5371C150.336 56.3209 150.394 57.1482 150.269 57.9576C150.144 58.767 149.839 59.5378 149.377 60.2129C148.916 60.8879 148.309 61.45 147.601 61.8573C143.771 64.0928 139.045 65.2106 133.425 65.2106C128.142 65.2106 123.477 64.178 119.431 62.1127C115.549 60.2054 112.293 57.2209 110.047 53.5124C107.846 49.8463 106.745 45.6849 106.745 41.0282C106.684 36.6616 107.811 32.3611 110.004 28.5904C112.137 24.9336 115.237 21.9418 118.959 19.947C122.754 17.8795 126.997 16.8469 131.689 16.8491C136.265 16.8491 140.408 17.8375 144.117 19.8143C147.782 21.7516 150.814 24.7073 152.851 28.3284C154.967 32.0232 156.025 36.3151 156.025 41.204V41.2504C155.984 42.2251 155.569 43.146 154.867 43.8205C154.166 44.495 153.231 44.8707 152.26 44.869ZM124.048 29.7678C122.206 31.3246 120.936 33.4553 120.438 35.8209C120.408 35.9544 120.408 36.0931 120.439 36.2265C120.469 36.36 120.529 36.4849 120.614 36.592C120.699 36.699 120.807 36.7855 120.93 36.8449C121.053 36.9043 121.187 36.9352 121.323 36.9353H142.153C142.289 36.9355 142.424 36.9046 142.547 36.8449C142.67 36.7853 142.778 36.6984 142.863 36.5909C142.948 36.4833 143.007 36.3579 143.037 36.224C143.067 36.09 143.066 35.9511 143.034 35.8176C142.516 33.478 141.251 31.3724 139.432 29.8209C137.345 28.052 134.796 27.1675 131.784 27.1675C128.711 27.1542 126.132 28.021 124.048 29.7678ZM41.3764 20.9732C40.5528 20.6315 39.6702 20.4564 38.7791 20.4577H38.789C36.9911 20.4577 35.2668 21.1751 33.9955 22.4521C32.7242 23.7291 32.01 25.461 32.01 27.267V55.4925C32.01 57.2984 32.7242 59.0304 33.9955 60.3074C35.2668 61.5844 36.9911 62.3018 38.789 62.3018C40.587 62.3018 42.3113 61.5844 43.5826 60.3074C44.8539 59.0304 45.5681 57.2984 45.5681 55.4925V27.267C45.5681 26.3719 45.3925 25.4857 45.0512 24.6589C44.7099 23.8321 44.2096 23.081 43.5791 22.4486C42.9485 21.8161 42.2 21.3148 41.3764 20.9732ZM31.9505 20.397C33.7642 18.5745 36.2236 17.5491 38.789 17.5456C41.3545 17.5491 43.8138 18.5745 45.6276 20.397C47.4413 22.2194 48.4614 24.6901 48.464 27.267V55.4925C48.464 58.0699 47.4447 60.5417 45.6303 62.3642C43.8159 64.1867 41.355 65.2105 38.789 65.2105C36.2231 65.2105 33.7622 64.1867 31.9478 62.3642C30.1334 60.5417 29.1141 58.0699 29.1141 55.4925V27.267C29.1167 24.6901 30.1367 22.2194 31.9505 20.397Z" fill="white"/>
<path fill-rule="evenodd" clip-rule="evenodd" d="M371.532 64.1857C372.499 64.4975 373.532 64.7827 374.633 65.0414C378.373 65.9341 382.204 66.386 386.048 66.388C390.761 66.3836 394.767 65.6727 398.067 64.2554C401.367 62.838 403.847 60.922 405.507 58.5074C407.155 56.1392 408.026 53.3137 408 50.4245C408.002 47.0039 407.093 44.2985 405.272 42.3085C403.516 40.3591 401.306 38.8776 398.84 37.9967C395.873 36.9917 392.834 36.2155 389.749 35.675C386.966 35.1476 384.968 34.6236 383.756 34.1526C382.544 33.6816 381.94 32.9685 381.94 32.0232C381.938 30.0332 383.98 29.0382 388.065 29.0382C390.783 29.0624 393.479 29.5203 396.053 30.3947C397.491 30.8759 399.058 30.7933 400.438 30.1635C401.818 29.5336 402.91 28.4031 403.496 26.9984L403.687 26.534C404.011 25.7475 404.165 24.901 404.14 24.0503C404.115 23.1996 403.91 22.3639 403.54 21.5982C403.17 20.8325 402.643 20.1542 401.994 19.6077C401.344 19.0613 400.587 18.6592 399.771 18.4279C399.111 18.2377 398.431 18.0653 397.73 17.9105C394.6 17.2053 391.402 16.8493 388.194 16.8491C383.483 16.8469 379.477 17.5456 376.175 18.9453C372.873 20.345 370.392 22.2609 368.732 24.6932C367.088 27.0768 366.218 29.9129 366.242 32.8126C366.242 36.2399 367.14 38.9563 368.937 40.9619C370.652 42.9152 372.829 44.4037 375.267 45.2902C378.237 46.3206 381.275 47.1462 384.357 47.7612C387.182 48.3472 389.211 48.8878 390.446 49.3831C391.681 49.8784 392.299 50.6224 392.299 51.6152C392.299 52.4743 391.826 53.1144 390.885 53.5423C389.943 53.9712 388.371 54.1857 386.17 54.1857C383.458 54.1636 380.763 53.7651 378.159 53.0017C377.324 52.7662 376.512 52.5041 375.726 52.2222C374.296 51.695 372.721 51.7325 371.318 52.3273C369.915 52.922 368.789 54.0296 368.167 55.4262L367.9 56.0298C367.559 56.7999 367.384 57.6334 367.385 58.4761C367.386 59.3187 367.564 60.1517 367.906 60.9209C368.249 61.6901 368.749 62.3783 369.373 62.9408C369.998 63.5033 370.734 63.9274 371.532 64.1857ZM214.302 63.1807C210.386 61.1767 207.1 58.1216 204.809 54.3549C202.517 50.5959 201.373 46.346 201.375 41.6053C201.377 36.8646 202.517 32.6147 204.796 28.8557C207.09 25.086 210.381 22.0295 214.302 20.0266C218.344 17.9061 222.901 16.8469 227.973 16.8491C233.045 16.8513 237.601 17.9105 241.643 20.0266C245.555 22.0339 248.837 25.0898 251.127 28.8557C253.416 32.6147 254.561 36.8646 254.561 41.6053C254.561 46.346 253.416 50.5959 251.127 54.3549C248.834 58.1221 245.547 61.1772 241.63 63.1807C237.588 65.299 233.031 66.3593 227.959 66.3615C222.888 66.3637 218.335 65.3035 214.302 63.1807ZM233.325 51.9867C234.942 50.9863 236.255 49.5591 237.119 47.8607C238.097 45.9247 238.583 43.7756 238.533 41.6053C238.582 39.4339 238.097 37.2839 237.119 35.3466C236.25 33.6472 234.933 32.22 233.312 31.2206C231.687 30.2693 229.84 29.7681 227.959 29.7681C226.079 29.7681 224.232 30.2693 222.607 31.2206C220.986 32.2193 219.67 33.6467 218.803 35.3466C217.823 37.2831 217.336 39.4335 217.386 41.6053C217.336 43.7761 217.822 45.9256 218.803 47.8607C219.669 49.5613 220.985 50.989 222.607 51.9867C224.231 52.9403 226.078 53.4429 227.959 53.4429C229.841 53.4429 231.688 52.9403 233.312 51.9867H233.325ZM178.02 36.6833V31.3765C178.02 31.0035 178.167 30.6458 178.43 30.3821C178.692 30.1184 179.048 29.9702 179.42 29.9702H194.441C195.228 29.9706 196.007 29.8152 196.735 29.5129C197.462 29.2105 198.123 28.7671 198.679 28.208C199.236 27.6489 199.677 26.9851 199.978 26.2545C200.28 25.524 200.434 24.741 200.434 23.9503C200.434 22.356 199.804 20.8269 198.683 19.6983C197.562 18.5697 196.041 17.9339 194.454 17.9304H168.123C166.534 17.9313 165.01 18.5658 163.886 19.6946C162.763 20.8233 162.131 22.354 162.13 23.9503V59.2604C162.131 60.8561 162.762 62.3863 163.885 63.515C165.008 64.6436 166.531 65.2785 168.12 65.2803H172.036C173.623 65.2776 175.144 64.6432 176.265 63.5159C177.387 62.3887 178.018 60.8607 178.02 59.267V51.539C178.02 51.166 178.167 50.8083 178.43 50.5446C178.692 50.2809 179.048 50.1327 179.42 50.1327H191.69C192.477 50.1331 193.257 49.9777 193.984 49.6754C194.711 49.373 195.372 48.9296 195.929 48.3705C196.485 47.8114 196.927 47.1476 197.228 46.417C197.529 45.6865 197.684 44.9035 197.683 44.1128C197.684 43.3217 197.53 42.5382 197.229 41.8071C196.928 41.0759 196.487 40.4115 195.93 39.8518C195.374 39.2921 194.713 38.8481 193.985 38.5452C193.257 38.2422 192.478 38.0863 191.69 38.0863H179.42C179.236 38.0867 179.054 38.0508 178.884 37.9804C178.714 37.9101 178.56 37.8069 178.43 37.6765C178.3 37.5462 178.197 37.3914 178.126 37.221C178.056 37.0505 178.02 36.8678 178.02 36.6833ZM43.937 27.1144C43.937 29.9757 41.6277 32.2952 38.7792 32.2952C35.9306 32.2952 33.6214 29.9757 33.6214 27.1144C33.6214 24.2532 35.9306 21.9337 38.7792 21.9337C41.6277 21.9337 43.937 24.2532 43.937 27.1144ZM260.168 54.3549C262.46 58.1221 265.747 61.1772 269.664 63.1808C273.706 65.3035 278.263 66.3638 283.335 66.3616C288.407 66.3594 292.964 65.2991 297.005 63.1808C300.921 61.1767 304.207 58.1217 306.499 54.3549C308.79 50.596 309.935 46.3461 309.933 41.6054C309.93 36.8646 308.786 32.6148 306.499 28.8558C304.208 25.0878 300.921 22.0316 297.005 20.0266C292.968 17.9083 288.411 16.8492 283.335 16.8492C278.258 16.8492 273.702 17.9083 269.664 20.0266C265.748 22.032 262.46 25.0881 260.168 28.8558C257.876 32.6148 256.731 36.8646 256.734 41.6054C256.736 46.3461 257.88 50.596 260.168 54.3549ZM292.491 47.8608C291.624 49.5606 290.308 50.9881 288.687 51.9868H288.674C287.049 52.9404 285.202 53.4429 283.32 53.4429C281.438 53.4429 279.59 52.9404 277.966 51.9868C276.346 50.9872 275.03 49.56 274.162 47.8608C273.184 45.9248 272.698 43.7757 272.748 41.6054C272.703 39.4329 273.193 37.2828 274.175 35.3467C275.044 33.6482 276.36 32.2212 277.979 31.2206C279.604 30.2691 281.452 29.7677 283.333 29.7677C285.214 29.7677 287.062 30.2691 288.687 31.2206C290.307 32.2203 291.623 33.6475 292.491 35.3467C293.47 37.2834 293.956 39.4339 293.905 41.6054C293.956 43.7759 293.471 45.9253 292.491 47.8608ZM314.437 23.9503C314.438 22.354 315.069 20.8233 316.193 19.6946C317.317 18.5658 318.841 17.9313 320.43 17.9304H337.67C342.922 17.9304 347.557 18.889 351.575 20.806C355.424 22.5745 358.676 25.4304 360.936 29.0249C363.159 32.5871 364.271 36.7806 364.271 41.6054C364.271 46.4301 363.159 50.6236 360.936 54.1858C358.676 57.7803 355.424 60.6362 351.575 62.4047C347.555 64.3217 342.92 65.2803 337.67 65.2803H320.43C318.841 65.2794 317.317 64.6449 316.193 63.5161C315.069 62.3874 314.438 60.8567 314.437 59.2604V23.9503ZM336.996 52.8325C340.408 52.8325 343.136 51.8519 345.179 49.8906C347.222 47.9293 348.243 45.1653 348.243 41.5987C348.243 38.0365 347.222 35.2726 345.179 33.3069C343.136 31.3411 340.408 30.3605 336.996 30.3649H331.713C331.529 30.3645 331.347 30.4004 331.177 30.4707C331.008 30.5411 330.853 30.6443 330.723 30.7747C330.593 30.905 330.49 31.0598 330.42 31.2302C330.349 31.4007 330.313 31.5834 330.313 31.7679V51.4163C330.313 51.6008 330.349 51.7835 330.42 51.954C330.49 52.1244 330.593 52.2792 330.723 52.4095C330.853 52.5398 331.008 52.6431 331.177 52.7134C331.347 52.7837 331.529 52.8197 331.713 52.8193L336.996 52.8325Z" fill="white"/>
</g>
<defs>
<clipPath id="clip0">
<rect width="408" height="66.3614" fill="white"/>
</clipPath>
</defs>
</svg>
