<svg width="56" height="51" viewBox="0 0 56 51" fill="none" xmlns="http://www.w3.org/2000/svg">
<path d="M38.0797 37.1966C43.5953 37.1966 47.9258 35.5555 51.0711 32.2735C54.2164 28.9914 55.7891 24.433 55.7891 18.5983C55.7891 12.7635 54.2164 8.20512 51.0711 4.92307C47.9258 1.64103 43.5953 0 38.0797 0H15.7207V10.6667H37.7378C40.418 10.6667 40.9919 11.1757 42.1396 12.1937C42.2998 12.3358 42.4711 12.4877 42.6609 12.6496C44.2107 13.9715 44.9856 15.8632 44.9856 18.4615C44.9856 21.0598 44.2107 23.0313 42.6609 24.3761C42.4711 24.5407 42.2998 24.6953 42.1396 24.8398C40.9919 25.8753 40.418 26.3931 37.7378 26.3931H15.7207V50.5983H26.3874V37.1966H38.0797Z" fill="black"/>
<path d="M0 10.6667H15.7265V26.3932H0V10.6667Z" fill="#3ECF8E"/>
</svg>
