<svg width="207" height="64" viewBox="0 0 207 64" fill="none" xmlns="http://www.w3.org/2000/svg">
<path d="M50.1729 3.32874H60.8395V13.9954H50.1729V3.32874Z" fill="#3ECF8E"/>
<path fill-rule="evenodd" clip-rule="evenodd" d="M168.526 0H157.86V50.735H168.526V0ZM152.614 35.3504H124.785C125.287 37.6296 126.472 39.4301 128.341 40.7521C130.21 42.074 132.535 42.735 135.315 42.735C137.23 42.735 138.928 42.4501 140.409 41.8803C141.891 41.3105 143.27 40.4102 144.546 39.1794L150.221 45.3333C146.757 49.2991 141.697 51.282 135.042 51.282C130.894 51.282 127.224 50.4729 124.033 48.8546C120.842 47.2364 118.381 44.9914 116.649 42.1196C114.916 39.2478 114.05 35.9885 114.05 32.3418C114.05 28.6951 114.905 25.4928 116.614 22.5982C118.324 19.7037 120.671 17.4472 123.657 15.829C126.643 14.2108 129.982 13.4017 133.674 13.4017C137.366 13.4017 140.535 14.1766 143.452 15.7264C146.369 17.2763 148.66 19.4985 150.324 22.3931C151.988 25.2877 152.819 28.6495 152.819 32.4786C152.819 32.6153 152.751 33.5726 152.614 35.3504ZM127.657 23.5213C126.016 24.8888 125.013 26.7578 124.649 29.1281H142.768C142.403 26.8034 141.401 24.9458 139.76 23.5555C138.119 22.1652 136.113 21.47 133.743 21.47C131.372 21.47 129.298 22.1538 127.657 23.5213ZM71.4907 13.9487H60.824V50.735H71.4907V13.9487ZM94.6507 39.453L102.719 50.735H114.822L100.599 31.9316L114.275 13.9487H102.924L94.9242 24.6838L87.1293 13.9487H75.1635L88.8387 32.2051L74.6849 50.735H86.3088L94.6507 39.453ZM179.789 50.1538C176.872 49.4016 174.547 48.4558 172.815 47.3162L176.37 39.6581C178.011 40.7065 179.994 41.5612 182.319 42.2222C184.644 42.8831 186.923 43.2136 189.157 43.2136C193.669 43.2136 195.926 42.0968 195.926 39.8632C195.926 38.8148 195.31 38.0626 194.08 37.6068C192.849 37.1509 190.957 36.7635 188.404 36.4444C185.396 35.9885 182.912 35.4643 180.951 34.8717C178.991 34.2791 177.293 33.2307 175.857 31.7264C174.421 30.2222 173.704 28.0797 173.704 25.2991C173.704 22.9743 174.376 20.9116 175.721 19.1111C177.065 17.3105 179.025 15.9088 181.601 14.9059C184.176 13.9031 187.219 13.4017 190.729 13.4017C193.327 13.4017 195.914 13.6866 198.49 14.2564C201.065 14.8262 203.196 15.6125 204.883 16.6153L201.327 24.2051C198.091 22.3817 194.558 21.47 190.729 21.47C188.45 21.47 186.741 21.7891 185.601 22.4273C184.461 23.0655 183.892 23.886 183.892 24.8888C183.892 26.0284 184.507 26.8262 185.738 27.282C186.969 27.7378 188.929 28.1709 191.618 28.5811C194.627 29.0826 197.088 29.6182 199.003 30.188C200.917 30.7578 202.581 31.7948 203.994 33.2991C205.407 34.8034 206.114 36.9002 206.114 39.5897C206.114 41.8689 205.43 43.8974 204.062 45.6751C202.695 47.4529 200.701 48.8318 198.08 49.8119C195.459 50.792 192.347 51.282 188.746 51.282C185.692 51.282 182.706 50.9059 179.789 50.1538ZM51.0712 45.6751C47.9259 48.9572 43.5954 50.5982 38.0797 50.5982H26.3875V64H15.7208V50.5982H15.7208V39.7948H37.7378C40.418 39.7948 40.9919 39.277 42.1397 38.2414L42.1399 38.2412C42.3 38.0968 42.4712 37.9423 42.6609 37.7777C44.2108 36.433 44.9857 34.4615 44.9857 31.8632C44.9857 29.2649 44.2108 27.3732 42.6609 26.0512C42.4712 25.8894 42.2998 25.7374 42.1397 25.5954C40.9919 24.5773 40.418 24.0683 37.7378 24.0683H15.7208V13.4017H38.0797C43.5954 13.4017 47.9259 15.0427 51.0712 18.3247C54.2165 21.6068 55.7891 26.1652 55.7891 31.9999C55.7891 37.8347 54.2165 42.3931 51.0712 45.6751Z" fill="black"/>
<path d="M0 24.0684H15.7265V39.7948H0V24.0684Z" fill="#3ECF8E"/>
</svg>
