<svg width="18" height="18" viewBox="0 0 24 19" fill="none" xmlns="http://www.w3.org/2000/svg">
<path d="M17.7123 19C17.7123 19 16.9726 18.0274 16.3562 17.1679C19.0479 16.331 20.0753 14.4762 20.0753 14.4762C19.2329 15.0869 18.4315 15.5167 17.7123 15.8107C16.6849 16.2857 15.6986 16.6024 14.7329 16.7834C12.7603 17.1905 10.9521 17.0774 9.41096 16.7607C8.23973 16.5119 7.23288 16.15 6.39041 15.7881C5.91781 15.5846 5.40411 15.3357 4.89041 15.0191C4.82877 14.9738 4.76712 14.9512 4.70548 14.906C4.66438 14.8834 4.64384 14.8608 4.62329 14.8381C4.25342 14.6119 4.04795 14.4536 4.04795 14.4536C4.04795 14.4536 5.03425 16.2631 7.64383 17.1226C7.0274 17.9822 6.26712 19 6.26712 19C1.72603 18.8417 0 15.5619 0 15.5619C0 8.27868 2.9589 2.37516 2.9589 2.37516C5.91781 -0.0676683 8.73288 0.000187967 8.73288 0.000187967L8.93836 0.271613C5.23973 1.44779 3.53425 3.23468 3.53425 3.23468C3.53425 3.23468 3.9863 2.96325 4.74657 2.57873C6.9452 1.51565 8.69178 1.2216 9.41096 1.15375C9.53425 1.13113 9.63699 1.10851 9.76027 1.10851C11.0137 0.927559 12.4315 0.882322 13.911 1.06327C15.863 1.31208 17.9589 1.94541 20.0959 3.23468C20.0959 3.23468 18.4726 1.53827 14.9795 0.362089L15.2671 0.000187967C15.2671 0.000187967 18.0822 -0.0676683 21.0411 2.37516C21.0411 2.37516 24 8.27868 24 15.5619C24 15.5619 22.2534 18.8417 17.7123 19ZM8.15753 8.43701C6.9863 8.43701 6.06164 9.56795 6.06164 10.9477C6.06164 12.3274 7.00685 13.4584 8.15753 13.4584C9.32877 13.4584 10.2534 12.3274 10.2534 10.9477C10.274 9.56795 9.32877 8.43701 8.15753 8.43701ZM15.6575 8.43701C14.4863 8.43701 13.5616 9.56795 13.5616 10.9477C13.5616 12.3274 14.5068 13.4584 15.6575 13.4584C16.8288 13.4584 17.7534 12.3274 17.7534 10.9477C17.7534 9.56795 16.8288 8.43701 15.6575 8.43701Z" fill="#5865F2"/>
</svg>
