<svg width="202" height="55" viewBox="0 0 202 55" fill="none" xmlns="http://www.w3.org/2000/svg">
<g clip-path="url(#clip0)">
<path fill-rule="evenodd" clip-rule="evenodd" d="M81.1886 16.4274H86.1531C87.3243 16.4274 88.4477 16.8909 89.2759 17.716C90.1041 18.541 90.5694 19.66 90.5694 20.8268C90.5694 21.9936 90.1041 23.1126 89.2759 23.9376C88.4477 24.7627 87.3243 25.2262 86.1531 25.2262H81.4823C81.2768 25.2262 81.0797 25.3075 80.9344 25.4522C80.7891 25.5969 80.7075 25.7932 80.7075 25.9979V49.2792C80.7075 50.0304 80.559 50.7742 80.2704 51.4682C79.9819 52.1622 79.5589 52.7928 79.0257 53.3239C78.4925 53.8551 77.8595 54.2764 77.1629 54.5639C76.4662 54.8513 75.7196 54.9993 74.9655 54.9993C73.4426 54.9993 71.9821 54.3966 70.9053 53.3239C69.8284 52.2512 69.2235 50.7963 69.2235 49.2792V14.6665C69.2235 10.1696 70.5604 6.60055 73.2342 3.95925C75.9081 1.31795 79.6745 -0.00177264 84.5337 8.48092e-05C86.1823 -0.00457046 87.8259 0.18244 89.431 0.557321C90.3961 0.777761 91.334 1.1029 92.2279 1.52691C92.5303 1.67087 92.768 1.92185 92.8947 2.23092C93.0214 2.53998 93.028 2.88498 92.9132 3.19862L90.8183 8.95487C90.7547 9.12698 90.6562 9.28419 90.529 9.41669C90.4017 9.54919 90.2484 9.65413 90.0786 9.72498C89.9088 9.79583 89.7261 9.83106 89.5421 9.82847C89.358 9.82588 89.1764 9.78552 89.0087 9.70992C87.9499 9.25275 86.8063 9.02301 85.6524 9.03567C82.1675 9.03567 80.426 10.9423 80.4278 14.7557V15.6696C80.4321 15.8692 80.5136 16.0595 80.6554 16.2007C80.7971 16.3419 80.9882 16.4231 81.1886 16.4274ZM150.294 19.7994C153.827 23.1744 155.594 27.818 155.594 33.7303V49.2772C155.594 50.7942 154.989 52.2491 153.912 53.3219C152.835 54.3946 151.375 54.9972 149.852 54.9972H149.704C148.181 54.9972 146.72 54.3946 145.644 53.3219C144.567 52.2491 143.962 50.7942 143.962 49.2772V34.1009C143.962 30.8243 143.238 28.3558 141.791 26.6952C140.344 25.0346 138.222 24.1988 135.423 24.1876C132.676 24.1876 130.591 25.0235 129.166 26.6952C127.742 28.3669 127.03 30.8355 127.032 34.1009V49.28C127.032 50.797 126.427 52.2519 125.35 53.3246C124.274 54.3974 122.813 55 121.29 55C119.767 55 118.307 54.3974 117.23 53.3246C116.153 52.2519 115.548 50.797 115.548 49.28V33.7331C115.548 27.8171 117.315 23.1735 120.848 19.8022C124.382 16.4309 129.289 14.7443 135.571 14.7425C141.853 14.7406 146.761 16.4263 150.294 19.7994ZM171.989 37.6914H198.191C199.014 37.6943 199.807 37.3793 200.403 36.8125C200.998 36.2458 201.35 35.4713 201.385 34.6516V34.6126C201.385 30.5058 200.489 26.9005 198.697 23.7967C196.97 20.7554 194.402 18.2728 191.299 16.6446C188.157 14.984 184.648 14.1537 180.772 14.1537C176.8 14.1537 173.207 15.0202 169.992 16.7532C166.839 18.429 164.214 20.9422 162.407 24.014C160.55 27.1816 159.595 30.7941 159.647 34.4622C159.647 38.3758 160.579 41.8716 162.444 44.9494C164.346 48.0646 167.104 50.5717 170.392 52.1739C173.82 53.9088 177.771 54.7762 182.246 54.7762C187.008 54.7762 191.009 53.8373 194.25 51.9594C194.847 51.6153 195.359 51.142 195.748 50.5744C196.137 50.0069 196.393 49.3596 196.497 48.6803C196.601 48.001 196.551 47.3071 196.35 46.6498C196.149 45.9924 195.802 45.3885 195.335 44.8825L195.274 44.8156C193.897 43.3306 191.352 42.9767 189.582 43.9631C189.081 44.2434 188.56 44.4874 188.024 44.693C186.268 45.3312 184.409 45.6419 182.539 45.6097C179.545 45.6097 177.045 44.9011 175.041 43.4838C173.284 42.2807 171.999 40.5086 171.405 38.4687C171.378 38.3782 171.373 38.2829 171.39 38.1902C171.407 38.0975 171.446 38.01 171.502 37.9346C171.559 37.8592 171.632 37.798 171.717 37.7557C171.802 37.7135 171.895 37.6915 171.989 37.6914ZM171.237 30.0823C171.66 28.0981 172.736 26.3114 174.294 25.0059C176.06 23.5385 178.247 22.8076 180.856 22.8132C183.406 22.8132 185.566 23.5561 187.333 25.0421C188.874 26.3454 189.945 28.1142 190.385 30.0795C190.411 30.1916 190.411 30.3082 190.386 30.4204C190.36 30.5327 190.31 30.6379 190.238 30.7281C190.166 30.8183 190.075 30.8912 189.971 30.9415C189.867 30.9918 189.753 31.0181 189.638 31.0185H171.987C171.871 31.0184 171.757 30.9924 171.653 30.9425C171.549 30.8926 171.458 30.82 171.386 30.73C171.314 30.6401 171.263 30.5352 171.237 30.4231C171.212 30.3109 171.211 30.1945 171.237 30.0823ZM102.071 17.1914C103.593 17.1914 105.054 17.7941 106.131 18.8668C107.208 19.9395 107.813 21.3944 107.813 22.9115V46.6219C107.813 48.1389 107.208 49.5938 106.131 50.6665C105.054 51.7393 103.593 52.3419 102.071 52.3419C100.548 52.3419 99.0871 51.7393 98.0103 50.6665C96.9335 49.5938 96.3285 48.1389 96.3285 46.6219V22.9115C96.3285 22.1603 96.477 21.4165 96.7656 20.7225C97.0541 20.0285 97.4771 19.398 98.0103 18.8668C98.5435 18.3356 99.1765 17.9143 99.8731 17.6269C100.57 17.3394 101.316 17.1914 102.071 17.1914ZM102.071 14.7452C99.8975 14.7481 97.8144 15.6095 96.2781 17.1405C94.7419 18.6714 93.8778 20.7468 93.8756 22.9115V46.6219C93.8756 48.787 94.739 50.8634 96.2758 52.3943C97.8127 53.9253 99.8971 54.7854 102.071 54.7854C104.244 54.7854 106.328 53.9253 107.865 52.3943C109.402 50.8634 110.265 48.787 110.265 46.6219V22.9115C110.263 20.7468 109.399 18.6714 107.863 17.1405C106.327 15.6095 104.243 14.7481 102.071 14.7452ZM25.2699 14.9895C23.365 16.7087 21.7318 18.7048 20.4257 20.9102C19.9072 21.7937 19.4421 22.7074 19.0329 23.6462C16.6984 23.8004 14.8935 24.6204 13.6181 26.1064C12.1954 27.767 11.484 30.2355 11.484 33.5121V49.2763C11.484 50.7933 10.8791 52.2482 9.80225 53.3209C8.72541 54.3936 7.2649 54.9963 5.74202 54.9963C4.21914 54.9963 2.75864 54.3936 1.6818 53.3209C0.60496 52.2482 0 50.7933 0 49.2763V33.1443C0 27.2302 1.7667 22.5865 5.30011 19.2134C8.83352 15.8402 13.7411 14.1537 20.023 14.1537C21.8238 14.1427 23.6217 14.3004 25.393 14.6245L25.2699 14.9895ZM35.3018 37.6914H61.5031C62.3253 37.6921 63.1158 37.3762 63.7096 36.8097C64.3033 36.2432 64.6541 35.4699 64.6888 34.6517C64.6893 34.6453 64.6896 34.639 64.6896 34.6326C64.6896 34.626 64.6894 34.6193 64.6888 34.6127C64.6869 30.5058 63.791 26.9005 62.001 23.7967C60.2735 20.7561 57.7058 18.2737 54.6032 16.6446C51.4613 14.984 47.9522 14.1537 44.0757 14.1537C40.1004 14.1519 36.5054 15.0193 33.2909 16.756C30.1425 18.4332 27.5212 20.9451 25.7169 24.014C23.8593 27.1816 22.9049 30.7941 22.9563 34.4622C22.9563 38.3759 23.8886 41.8716 25.7532 44.9494C27.6573 48.0641 30.4165 50.571 33.7048 52.174C37.1319 53.9088 41.083 54.7763 45.558 54.7763C50.3165 54.7763 54.3179 53.8373 57.5623 51.9594C58.1596 51.6154 58.6716 51.1421 59.0606 50.5745C59.4495 50.0068 59.7054 49.3593 59.8093 48.6799C59.9132 48.0004 59.8625 47.3064 59.6609 46.6491C59.4594 45.9918 59.1121 45.3881 58.6447 44.8825L58.586 44.8157C57.2099 43.3306 54.6647 42.9768 52.8943 43.9631C52.3933 44.2435 51.8727 44.4874 51.3364 44.6931C49.5801 45.3313 47.7209 45.642 45.8517 45.6097C42.8572 45.6097 40.3567 44.9011 38.3504 43.4839C36.5946 42.2794 35.3103 40.5078 34.7145 38.4687C34.6885 38.3781 34.6841 38.2827 34.7014 38.19C34.7187 38.0973 34.7573 38.0099 34.8142 37.9346C34.8711 37.8593 34.9447 37.7982 35.0293 37.756C35.1139 37.7138 35.2072 37.6917 35.3018 37.6914ZM34.5495 30.0823C34.9722 28.0982 36.0481 26.3115 37.6065 25.0059C39.3722 23.5385 41.5538 22.8076 44.1512 22.8132C46.7038 22.8132 48.864 23.5562 50.6316 25.0421C52.1736 26.3453 53.2468 28.1138 53.6886 30.0796C53.7146 30.1917 53.715 30.3082 53.6897 30.4205C53.6643 30.5328 53.6139 30.6379 53.5421 30.7281C53.4704 30.8183 53.3792 30.8913 53.2752 30.9415C53.1713 30.9918 53.0574 31.0181 52.9418 31.0185H35.2962C35.181 31.018 35.0673 30.9917 34.9637 30.9416C34.86 30.8915 34.769 30.8188 34.6973 30.729C34.6256 30.6391 34.5751 30.5343 34.5495 30.4224C34.5239 30.3105 34.5239 30.1943 34.5495 30.0823ZM102.07 27.1293C104.483 27.1293 106.439 25.1808 106.439 22.7772C106.439 20.3737 104.483 18.4252 102.07 18.4252C99.6573 18.4252 97.7013 20.3737 97.7013 22.7772C97.7013 25.1808 99.6573 27.1293 102.07 27.1293Z" fill="white"/>
</g>
<defs>
<clipPath id="clip0">
<rect width="201.385" height="55" fill="white"/>
</clipPath>
</defs>
</svg>