<svg class="MuiSvgIcon-root MuiSvgIcon-fontSizeMedium css-10ysmqg" focusable="false" aria-hidden="true" viewBox="0 0 68 68" width="68" height="68" fill="none" xmlns="http://www.w3.org/2000/svg">
  <path d="M16.9708 16.9706C26.3434 7.59798 41.5394 7.59798 50.912 16.9706C60.2846 26.3431 60.2846 41.5391 50.912 50.9117L33.9414 67.8822L16.9708 50.9117C7.59826 41.5391 7.59826 26.3431 16.9708 16.9706Z" fill="#FA8C16"/>
  <path d="M25.1453 31.626H25.7371C25.4817 32.0318 25.343 32.5047 25.343 32.992V33.4576C24.1135 34.0728 23.4526 35.1833 23.0985 36.239H22.5991C22.4402 36.239 22.2878 36.3021 22.1755 36.4145C22.0631 36.5268 22 36.6792 22 36.8381C22 36.997 22.0631 37.1494 22.1755 37.2617C22.2878 37.3741 22.4402 37.4372 22.5991 37.4372H22.8053C22.7103 38.0171 22.695 38.4895 22.695 38.7192V39.6657C22.695 39.8246 22.7581 39.977 22.8705 40.0894C22.9828 40.2017 23.1352 40.2648 23.2941 40.2648H24.0002C24.1236 40.9628 24.4586 41.6115 24.967 42.119C25.6184 42.7693 26.5013 43.1346 27.4219 43.1346C27.8774 43.1346 28.3284 43.0448 28.7493 42.8705C29.1701 42.6962 29.5525 42.4407 29.8746 42.1186C30.1967 41.7965 30.4522 41.4141 30.6266 40.9932C30.7239 40.7584 30.7948 40.5141 30.8385 40.2648H37.924C38.1282 40.2567 38.3304 40.2341 38.5292 40.1976C38.6425 40.9211 38.9825 41.5952 39.5072 42.119C40.1586 42.7693 41.0416 43.1346 41.9621 43.1346L41.9681 43.1585C42.6639 43.1616 43.3445 42.9552 43.9216 42.5664C44.4986 42.1775 44.9454 41.6241 45.2038 40.9781C45.4622 40.332 45.5204 39.6232 45.3707 38.9436C45.2694 38.4839 45.0762 38.052 44.8051 37.6727L45.862 36.4007C45.9616 36.2806 46.0104 36.1264 45.9981 35.9709C45.9858 35.8154 45.9133 35.6709 45.7961 35.5679C45.5404 35.3367 45.259 35.1357 44.9574 34.9689C44.9008 34.9365 44.8394 34.9136 44.7756 34.9009C43.978 34.4916 43.08 34.3237 42.1912 34.4151C42.093 33.3507 41.7889 32.3196 41.3 31.3777C41.5185 31.4156 41.7395 31.4405 41.962 31.4522C42.1209 31.4522 42.2733 31.3891 42.3856 31.2767C42.498 31.1644 42.5611 31.012 42.5611 30.8531V27.9595C42.5611 27.8006 42.498 27.6482 42.3856 27.5359C42.2733 27.4235 42.1209 27.3604 41.962 27.3604C41.2743 27.3964 40.6005 27.5595 39.9743 27.8399L38.8226 26.2401C38.7669 26.1637 38.6938 26.1017 38.6095 26.059C38.5251 26.0163 38.4319 25.9942 38.3374 25.9944H37.0014C36.8425 25.9944 36.6901 26.0576 36.5778 26.1699C36.4654 26.2823 36.4023 26.4347 36.4023 26.5935C36.4023 26.7524 36.4654 26.9048 36.5778 27.0172C36.6901 27.1295 36.8425 27.1926 37.0014 27.1926H38.0318L39.2661 28.913V29.6311C39.2279 29.6318 39.1901 29.6362 39.1533 29.6441C39.1266 29.6479 39.1001 29.6535 39.0739 29.661C38.5047 29.8647 37.1867 30.5836 37.1867 33.2556C37.1867 34.6056 37.2655 35.7947 37.304 36.3227C36.9998 36.5374 36.6473 36.6756 36.2765 36.7242H35.0064C34.7857 36.6379 34.5863 36.5049 34.4218 36.3343C34.2574 36.1637 34.1319 35.9595 34.0538 35.7357C33.9734 35.1167 34.1243 34.4903 34.4767 33.9763C34.5669 33.8688 34.617 33.7325 34.617 33.591V32.992C34.617 32.3119 34.3468 31.6597 33.866 31.1788C33.3851 30.698 32.7329 30.4278 32.0529 30.4278H30.5731V30.4278V26.1982C30.5731 25.8804 30.4469 25.5756 30.2222 25.3509C29.9975 25.1262 29.6927 25 29.3749 25H27.2602H25.1453C24.8275 25 24.5228 25.1262 24.2981 25.3509C24.0734 25.5756 23.9471 25.8804 23.9471 26.1982V30.4278C23.9471 30.7456 24.0734 31.0503 24.2981 31.275C24.5228 31.4997 24.8275 31.626 25.1453 31.626ZM27.8593 26.1982H29.3749V30.4278H25.1453V26.1982H26.6611V27.0489C26.6611 27.2078 26.7243 27.3602 26.8366 27.4725C26.949 27.5849 27.1013 27.648 27.2602 27.648C27.4191 27.648 27.5715 27.5849 27.6839 27.4725C27.7962 27.3602 27.8593 27.2078 27.8593 27.0489V26.1982ZM39.0122 38.7987C38.905 38.8116 38.8025 38.8533 38.7162 38.9204C38.4623 39.0101 38.1963 39.0678 37.924 39.0906H30.4591C30.4051 39.0749 30.3487 39.0667 30.2915 39.0667C30.2343 39.0667 30.1779 39.0749 30.124 39.0906H24.7138C24.6598 39.0749 24.6034 39.0667 24.5462 39.0667C24.489 39.0667 24.4326 39.0749 24.3787 39.0906H23.8932V38.7491C23.895 38.4617 23.9165 37.981 24.0194 37.4372H30.2915C30.4504 37.4372 30.6027 37.3741 30.7151 37.2617C30.8274 37.1494 30.8906 36.997 30.8906 36.8381C30.8906 36.6792 30.8274 36.5268 30.7151 36.4145C30.6027 36.3021 30.4504 36.239 30.2915 36.239H24.38C24.8004 35.277 25.5788 34.3961 27.0145 34.226H33.0414C32.8034 34.8113 32.7532 35.4561 32.8976 36.0712C33.0282 36.4839 33.2525 36.8608 33.5528 37.1726C33.8531 37.4844 34.2214 37.7225 34.629 37.8685C34.7055 37.9053 34.7896 37.9238 34.8746 37.9224H36.2765C36.6953 37.8985 37.1049 37.7901 37.4807 37.6037C37.8565 37.4174 38.1907 37.1569 38.4632 36.838C38.5049 36.7695 38.5325 36.6933 38.5443 36.614C38.556 36.5346 38.5517 36.4537 38.5316 36.376C38.524 36.3467 38.5142 36.318 38.5023 36.2903C38.4681 35.8333 38.3849 34.6024 38.3849 33.2316C38.3849 31.9561 38.7376 31.0884 39.3636 30.8292H39.5414C40.3811 31.9487 40.8863 33.2799 41.0034 34.6686C40.5284 34.8338 40.0979 35.1126 39.7513 35.4841C39.6584 35.6116 39.6196 35.7705 39.6432 35.9263C39.6667 36.0822 39.7508 36.2225 39.8771 36.3169C39.9779 36.3958 40.1025 36.4381 40.2305 36.4367C40.3231 36.4397 40.415 36.4213 40.4992 36.3829C40.5834 36.3444 40.6575 36.287 40.7158 36.215C40.9985 35.9586 41.3508 35.7919 41.7283 35.7358C41.7866 35.7255 41.8431 35.7069 41.8959 35.6804L42.0515 35.6459C42.8285 35.5018 43.6314 35.6331 44.322 36.0173C44.3597 36.0368 44.399 36.0524 44.4394 36.0641L44.514 36.1071L43.7472 37.0237C43.0692 36.9024 42.3723 36.94 41.7112 37.1333C41.0501 37.3266 40.4428 37.6705 39.9369 38.1381C39.6688 38.4143 39.355 38.6372 39.0122 38.7987ZM39.6913 39.8076C39.7518 40.3371 39.9965 40.8304 40.3851 41.1996C40.8082 41.6015 41.3695 41.8256 41.9531 41.8256C42.5367 41.8256 43.0979 41.6015 43.521 41.1996C43.9441 40.7977 44.1967 40.2486 44.2267 39.6658C44.2281 39.3603 44.1672 39.0576 44.0478 38.7764C43.9593 38.5682 43.8401 38.375 43.6945 38.2031C42.4572 38.0485 41.5642 38.2871 40.8236 38.9828C40.4907 39.3205 40.1076 39.598 39.6913 39.8076ZM25.2578 40.2648H29.58C29.4631 40.6176 29.2607 40.9394 28.9868 41.1996C28.5637 41.6015 28.0024 41.8256 27.4189 41.8256C26.8353 41.8256 26.274 41.6015 25.8509 41.1996C25.577 40.9394 25.3746 40.6176 25.2578 40.2648ZM26.9186 33.0098C26.7889 33.024 26.6631 33.0423 26.5412 33.0646V32.992C26.5412 32.6317 26.6834 32.2861 26.937 32.0303C27.1906 31.7745 27.535 31.6292 27.8951 31.626H32.0529C32.2322 31.626 32.4098 31.6613 32.5756 31.73C32.7413 31.7986 32.8919 31.8993 33.0187 32.0261C33.1456 32.1529 33.2462 32.3035 33.3148 32.4692C33.3835 32.635 33.4188 32.8126 33.4188 32.992V33.0098H26.9186ZM40.4763 29.8766C40.7624 30.004 41.0591 30.1062 41.3629 30.1821V28.6305C41.0582 28.7035 40.7613 28.8058 40.4763 28.936V29.8766Z" fill="white"/>
</svg>
