<svg width="48" height="48" viewBox="0 0 48 48" fill="none" xmlns="http://www.w3.org/2000/svg">
<circle cx="24" cy="24" r="24" fill="#FA541C"/>
<path d="M32.0602 18.9916C31.6371 18.0159 31.0271 17.1325 30.2645 16.3913C29.4995 15.6433 28.5976 15.0497 27.608 14.6428C26.5787 14.2158 25.4865 14 24.3605 14C23.2345 14 22.1423 14.2158 21.1129 14.6405C20.1173 15.0518 19.2251 15.6406 18.4565 16.389C17.6944 17.1307 17.0844 18.014 16.6607 18.9893C16.2225 20.0007 16 21.075 16 22.1807C16 23.7674 16.3798 25.3473 17.126 26.8711C17.726 28.096 18.5643 29.2894 19.6206 30.4243C21.4253 32.3616 23.3177 33.546 23.8548 33.8629C24.0073 33.9529 24.1812 34.0003 24.3582 34C24.5335 34 24.7066 33.955 24.8617 33.8629C25.3988 33.546 27.2912 32.3616 29.0959 30.4243C30.1522 29.2916 30.9904 28.096 31.5905 26.8711C32.3412 25.3496 32.721 23.7719 32.721 22.1829C32.721 21.0772 32.4985 20.0029 32.0602 18.9916ZM24.3605 32.2762C22.8794 31.3345 17.6182 27.606 17.6182 22.1829C17.6182 20.4322 18.3171 18.7871 19.5869 17.5465C20.8612 16.3036 22.5558 15.6182 24.3605 15.6182C26.1652 15.6182 27.8598 16.3036 29.1341 17.5487C30.4039 18.7871 31.1028 20.4322 31.1028 22.1829C31.1028 27.606 25.8416 31.3345 24.3605 32.2762ZM24.3605 18.405C22.176 18.405 20.405 20.176 20.405 22.3605C20.405 24.545 22.176 26.316 24.3605 26.316C26.545 26.316 28.316 24.545 28.316 22.3605C28.316 20.176 26.545 18.405 24.3605 18.405ZM26.1405 24.1405C25.907 24.3746 25.6296 24.5603 25.3241 24.6868C25.0186 24.8133 24.6911 24.8781 24.3605 24.8776C23.6885 24.8776 23.057 24.6147 22.5805 24.1405C22.3464 23.907 22.1607 23.6296 22.0342 23.3241C21.9077 23.0186 21.8428 22.6911 21.8434 22.3605C21.8434 21.6885 22.1063 21.057 22.5805 20.5805C23.057 20.1041 23.6885 19.8434 24.3605 19.8434C25.0325 19.8434 25.664 20.1041 26.1405 20.5805C26.6169 21.057 26.8776 21.6885 26.8776 22.3605C26.8776 23.0325 26.6169 23.664 26.1405 24.1405Z" fill="white"/>
</svg>
