<svg width="129" height="35" viewBox="0 0 129 35" fill="none" xmlns="http://www.w3.org/2000/svg">
<g filter="url(#filter0_b_112_431)">
<path fill-rule="evenodd" clip-rule="evenodd" d="M110.17 23.9854H126.954C127.482 23.9872 127.989 23.7868 128.371 23.4262C128.752 23.0655 128.978 22.5727 129 22.051V22.0262C129 19.4128 128.426 17.1185 127.278 15.1433C126.172 13.208 124.527 11.6281 122.54 10.592C120.527 9.53526 118.279 9.0069 115.796 9.0069C113.252 9.0069 110.95 9.55831 108.891 10.6611C106.871 11.7275 105.19 13.3268 104.032 15.2816C102.843 17.2974 102.231 19.5962 102.264 21.9305C102.264 24.421 102.861 26.6455 104.056 28.6041C105.274 30.5866 107.041 32.182 109.147 33.2016C111.343 34.3056 113.874 34.8576 116.74 34.8576C119.791 34.8576 122.354 34.2601 124.43 33.0651C124.812 32.8461 125.14 32.5449 125.389 32.1837C125.638 31.8226 125.802 31.4106 125.869 30.9784C125.936 30.5461 125.903 30.1045 125.775 29.6862C125.646 29.2679 125.424 28.8836 125.125 28.5616L125.085 28.519C124.204 27.574 122.574 27.3488 121.44 27.9765C121.119 28.1549 120.785 28.3102 120.442 28.441C119.317 28.8471 118.126 29.0449 116.928 29.0243C115.01 29.0243 113.409 28.5734 112.125 27.6715C110.999 26.9059 110.177 25.7782 109.796 24.4801C109.779 24.4225 109.776 24.3618 109.787 24.3028C109.797 24.2439 109.822 24.1882 109.858 24.1402C109.895 24.0922 109.942 24.0532 109.996 24.0264C110.05 23.9995 110.11 23.9855 110.17 23.9854ZM109.688 19.1433C109.959 17.8806 110.648 16.7436 111.647 15.9128C112.778 14.979 114.179 14.5139 115.85 14.5175C117.484 14.5175 118.867 14.9903 119.999 15.9359C120.986 16.7652 121.672 17.8908 121.954 19.1415C121.97 19.2129 121.971 19.287 121.954 19.3585C121.938 19.4299 121.906 19.4968 121.86 19.5542C121.814 19.6116 121.756 19.658 121.689 19.69C121.622 19.722 121.549 19.7388 121.475 19.739H110.169C110.095 19.739 110.022 19.7225 109.955 19.6907C109.888 19.6589 109.83 19.6127 109.784 19.5555C109.738 19.4982 109.705 19.4315 109.689 19.3601C109.672 19.2888 109.672 19.2147 109.688 19.1433ZM99.6682 21.4647C99.6682 17.7024 98.5365 14.7473 96.2731 12.5996C94.0097 10.4531 90.8661 9.3804 86.8421 9.38158C82.8182 9.38276 79.6746 10.456 77.4112 12.6014C75.1478 14.7468 74.0161 17.7018 74.0161 21.4665V31.36C74.0161 32.3254 74.4036 33.2512 75.0934 33.9339C75.7832 34.6165 76.7188 35 77.6943 35C78.6698 35 79.6053 34.6165 80.2951 33.9339C80.9849 33.2512 81.3724 32.3254 81.3724 31.36V21.7006C81.3712 19.6226 81.8269 18.0517 82.7394 16.9879C83.6519 15.924 84.9878 15.3921 86.7472 15.3921C88.54 15.3992 89.8998 15.9311 90.8266 16.9879C91.7535 18.0446 92.2169 19.6155 92.2169 21.7006V31.3582C92.2169 32.3236 92.6044 33.2495 93.2942 33.9321C93.984 34.6147 94.9195 34.9982 95.8951 34.9982H95.99C96.9655 34.9982 97.9011 34.6147 98.5908 33.9321C99.2806 33.2495 99.6682 32.3236 99.6682 31.3582V21.4647Z" fill="#1890FF"/>
</g>
<path fill-rule="evenodd" clip-rule="evenodd" d="M16.187 9.5388C14.9668 10.6328 13.9207 11.9031 13.084 13.3065C12.7519 13.8688 12.4539 14.4502 12.1918 15.0476C10.6964 15.1457 9.54023 15.6676 8.72327 16.6132C7.81194 17.6699 7.35628 19.2408 7.35628 21.3259V31.3576C7.35628 32.323 6.96876 33.2489 6.27898 33.9315C5.58919 34.6141 4.65364 34.9977 3.67814 34.9977C2.70264 34.9977 1.76709 34.6141 1.0773 33.9315C0.387516 33.2489 0 32.323 0 31.3576V21.0918C0 17.3283 1.13169 14.3732 3.39507 12.2267C5.65845 10.0802 8.8021 9.0069 12.826 9.0069C13.9796 8.99992 15.1313 9.10025 16.2659 9.30654L16.187 9.5388ZM22.6131 23.9854H39.3968C39.9234 23.9859 40.4298 23.7849 40.8101 23.4243C41.1904 23.0638 41.4152 22.5718 41.4374 22.0511C41.4378 22.0469 41.4379 22.0428 41.4379 22.0387C41.4379 22.0345 41.4378 22.0304 41.4374 22.0263C41.4362 19.4128 40.8623 17.1185 39.7157 15.1434C38.6091 13.2085 36.9643 11.6287 34.9769 10.592C32.9644 9.5353 30.7165 9.00694 28.2334 9.00694C25.6869 9.00576 23.3841 9.55776 21.325 10.6629C19.3083 11.7302 17.6291 13.3287 16.4733 15.2817C15.2835 17.2974 14.6721 19.5963 14.705 21.9305C14.705 24.421 15.3022 26.6456 16.4966 28.6042C17.7163 30.5863 19.4838 32.1816 21.5901 33.2016C23.7854 34.3056 26.3163 34.8576 29.1829 34.8576C32.231 34.8576 34.7942 34.2601 36.8724 33.0651C37.255 32.8462 37.583 32.545 37.8322 32.1837C38.0813 31.8225 38.2452 31.4105 38.3118 30.9781C38.3783 30.5457 38.3459 30.1041 38.2167 29.6858C38.0876 29.2675 37.8651 28.8833 37.5658 28.5616L37.5281 28.5191C36.6467 27.574 35.0163 27.3489 33.8822 27.9765C33.5613 28.1549 33.2278 28.3102 32.8843 28.441C31.7593 28.8472 30.5684 29.0449 29.371 29.0244C27.4528 29.0244 25.8511 28.5734 24.566 27.6716C23.4413 26.9051 22.6185 25.7777 22.2369 24.4801C22.2203 24.4224 22.2174 24.3617 22.2285 24.3027C22.2396 24.2438 22.2643 24.1881 22.3008 24.1402C22.3372 24.0923 22.3844 24.0534 22.4386 24.0265C22.4928 23.9997 22.5525 23.9856 22.6131 23.9854ZM22.1312 19.1433C22.402 17.8807 23.0912 16.7437 24.0894 15.9129C25.2205 14.9791 26.6179 14.5139 28.2817 14.5175C29.9169 14.5175 31.3006 14.9903 32.4328 15.9359C33.4206 16.7652 34.1081 17.8906 34.3911 19.1415C34.4077 19.2129 34.408 19.287 34.3917 19.3585C34.3755 19.4299 34.3432 19.4969 34.2972 19.5543C34.2513 19.6117 34.1928 19.6581 34.1263 19.6901C34.0597 19.7221 33.9867 19.7388 33.9127 19.739H22.6095C22.5357 19.7387 22.4629 19.722 22.3965 19.6901C22.3301 19.6582 22.2718 19.612 22.2259 19.5548C22.1799 19.4976 22.1476 19.431 22.1312 19.3597C22.1148 19.2885 22.1148 19.2145 22.1312 19.1433Z" fill="#3FDCF7"/>
<path d="M65.3827 10.94C66.3582 10.94 67.2937 11.3235 67.9835 12.0061C68.6733 12.6888 69.0608 13.6146 69.0608 14.58V29.6685C69.0608 30.6339 68.6733 31.5597 67.9835 32.2423C67.2937 32.925 66.3582 33.3085 65.3827 33.3085C64.4072 33.3085 63.4716 32.925 62.7818 32.2423C62.0921 31.5597 61.7045 30.6339 61.7045 29.6685V14.58C61.7045 14.102 61.7997 13.6287 61.9845 13.1871C62.1694 12.7454 62.4403 12.3442 62.7818 12.0061C63.1234 11.6681 63.5289 11.4 63.9751 11.2171C64.4214 11.0342 64.8996 10.94 65.3827 10.94V10.94ZM65.3827 9.3833C63.9907 9.38517 62.6564 9.93334 61.6723 10.9076C60.6882 11.8818 60.1347 13.2025 60.1333 14.58V29.6685C60.1333 31.0462 60.6864 32.3676 61.6708 33.3418C62.6553 34.3161 63.9904 34.8634 65.3827 34.8634C66.7749 34.8634 68.1101 34.3161 69.0945 33.3418C70.079 32.3676 70.632 31.0462 70.632 29.6685V14.58C70.6306 13.2025 70.0772 11.8818 69.0931 10.9076C68.109 9.93334 66.7746 9.38517 65.3827 9.3833V9.3833Z" fill="#1890FF"/>
<path d="M65.3825 17.2641C66.928 17.2641 68.1809 16.0242 68.1809 14.4946C68.1809 12.9651 66.928 11.7252 65.3825 11.7252C63.8369 11.7252 62.584 12.9651 62.584 14.4946C62.584 16.0242 63.8369 17.2641 65.3825 17.2641Z" fill="#3FDCF7"/>
<path d="M52.0065 10.4538H55.1866C55.9368 10.4538 56.6564 10.7488 57.1869 11.2738C57.7174 11.7988 58.0155 12.5109 58.0155 13.2534V13.2534C58.0155 13.9959 57.7174 14.708 57.1869 15.233C56.6564 15.7581 55.9368 16.053 55.1866 16.053H52.1946C52.063 16.053 51.9367 16.1048 51.8437 16.1969C51.7506 16.289 51.6983 16.4139 51.6983 16.5441V31.3595C51.6983 31.8375 51.6032 32.3109 51.4183 32.7525C51.2335 33.1941 50.9626 33.5954 50.621 33.9334C50.2795 34.2714 49.874 34.5395 49.4277 34.7225C48.9815 34.9054 48.5032 34.9995 48.0202 34.9995V34.9995C47.0447 34.9995 46.1091 34.616 45.4193 33.9334C44.7296 33.2508 44.342 32.3249 44.342 31.3595V9.33325C44.342 6.47159 45.1984 4.20035 46.9112 2.51952C48.6239 0.838698 51.0366 -0.00112805 54.1492 5.39695e-05C55.2053 -0.00290848 56.2581 0.116098 57.2863 0.354659C57.9045 0.494939 58.5053 0.701846 59.0779 0.971673C59.2716 1.06328 59.4238 1.22299 59.505 1.41967C59.5862 1.61635 59.5904 1.8359 59.5168 2.03549L58.1749 5.69855C58.1342 5.80808 58.0711 5.90812 57.9896 5.99244C57.9081 6.07676 57.8099 6.14354 57.7011 6.18862C57.5923 6.23371 57.4753 6.25613 57.3574 6.25448C57.2395 6.25283 57.1232 6.22715 57.0158 6.17904C56.3376 5.88811 55.605 5.74191 54.8659 5.74997C52.6335 5.74997 51.518 6.96331 51.5192 9.38999V9.97154C51.5219 10.0986 51.5741 10.2197 51.6649 10.3095C51.7557 10.3994 51.8781 10.4511 52.0065 10.4538V10.4538Z" fill="#1890FF"/>
<defs>
<filter id="filter0_b_112_431" x="66.0161" y="1.0069" width="70.9839" height="41.9931" filterUnits="userSpaceOnUse" color-interpolation-filters="sRGB">
<feFlood flood-opacity="0" result="BackgroundImageFix"/>
<feGaussianBlur in="BackgroundImage" stdDeviation="4"/>
<feComposite in2="SourceAlpha" operator="in" result="effect1_backgroundBlur_112_431"/>
<feBlend mode="normal" in="SourceGraphic" in2="effect1_backgroundBlur_112_431" result="shape"/>
</filter>
</defs>
</svg>