<svg
    viewBox="0 0 100 73"
    fill="none"
    xmlns="http://www.w3.org/2000/svg"
>
    <path
        d="M15.228 6.7h2.754c.672 0 1.27.132 1.791.396a2.86 2.86 0 011.215 1.107c.288.474.432 1.023.432 1.647 0 .624-.144 1.176-.432 1.656a2.937 2.937 0 01-1.215 1.107c-.522.258-1.119.387-1.79.387h-2.755V6.7zm2.7 5.31c.462 0 .867-.087 1.215-.261.354-.18.624-.432.81-.756.192-.33.288-.711.288-1.143 0-.432-.096-.81-.288-1.134a1.832 1.832 0 00-.81-.756c-.348-.18-.753-.27-1.215-.27h-1.53v4.32h1.53zm9.46.009V13h-4.724V6.7h4.599v.981h-3.43v1.638h3.043v.963h-3.042v1.737h3.555zM34.366 6.7L31.62 13h-1.152l-2.754-6.3h1.27l2.096 4.86 2.115-4.86h1.17zm5.39 5.319V13H35.03V6.7h4.6v.981H36.2v1.638h3.042v.963H36.2v1.737h3.555zM41.06 6.7h1.17v5.31h3.294V13H41.06V6.7zm8.217 6.39a3.624 3.624 0 01-1.737-.414 3.142 3.142 0 01-1.215-1.161 3.214 3.214 0 01-.441-1.665c0-.612.147-1.164.44-1.656a3.058 3.058 0 011.216-1.161 3.562 3.562 0 011.737-.423c.642 0 1.22.141 1.737.423.516.276.92.66 1.215 1.152.294.492.44 1.047.44 1.665 0 .618-.146 1.173-.44 1.665a3.142 3.142 0 01-1.215 1.161 3.624 3.624 0 01-1.737.414zm0-1.026c.42 0 .798-.093 1.134-.279.336-.192.6-.456.792-.792.192-.342.288-.723.288-1.143 0-.42-.096-.798-.288-1.134a2.011 2.011 0 00-.792-.792 2.245 2.245 0 00-1.134-.288c-.42 0-.798.096-1.134.288-.336.186-.6.45-.792.792a2.245 2.245 0 00-.288 1.134c0 .42.096.801.288 1.143.192.336.456.6.792.792.336.186.714.279 1.134.279zM56.5 6.7c.546 0 1.02.09 1.422.27.408.18.72.438.936.774.216.336.324.735.324 1.197 0 .456-.108.855-.324 1.197a2.07 2.07 0 01-.936.774c-.402.18-.876.27-1.422.27h-1.422V13h-1.17V6.7H56.5zm-.054 3.492c.51 0 .897-.108 1.161-.324.264-.216.396-.525.396-.927s-.132-.711-.396-.927c-.264-.216-.651-.324-1.161-.324h-1.368v2.502h1.368zm8.63 1.827V13H60.35V6.7h4.6v.981h-3.43v1.638h3.042v.963H61.52v1.737h3.555zM66.38 6.7h2.754c.672 0 1.269.132 1.79.396a2.86 2.86 0 011.216 1.107c.288.474.432 1.023.432 1.647 0 .624-.144 1.176-.432 1.656a2.937 2.937 0 01-1.215 1.107c-.522.258-1.12.387-1.791.387H66.38V6.7zm2.7 5.31c.462 0 .867-.087 1.215-.261.354-.18.624-.432.81-.756.192-.33.288-.711.288-1.143 0-.432-.096-.81-.288-1.134a1.832 1.832 0 00-.81-.756c-.348-.18-.753-.27-1.215-.27h-1.53v4.32h1.53zm7.222-5.31h1.17V13h-1.17V6.7zm8.472 0V13h-.963l-3.474-4.266V13h-1.16V6.7h.963l3.474 4.266V6.7h1.16z"
        fill="#fff"
    />
    <g filter="url(#refine-love-icon_svg__a)">
        <path
            fillRule="evenodd"
            clipRule="evenodd"
            d="M42.78 31.189h-2.465a.386.386 0 01-.378-.378v-.456c0-1.9.864-2.851 2.595-2.851a4.077 4.077 0 011.666.336.665.665 0 00.899-.376l1.04-2.87a.67.67 0 00-.34-.833 6.733 6.733 0 00-1.39-.483 10.523 10.523 0 00-2.43-.278c-2.413 0-4.283.657-5.61 1.974-1.329 1.316-1.992 3.095-1.992 5.337v17.253a2.851 2.851 0 105.702 0V35.96a.385.385 0 01.385-.385h2.32a2.193 2.193 0 100-4.385zm34.482 8.625c0-2.947-.877-5.262-2.632-6.944-1.754-1.682-4.191-2.522-7.31-2.521-3.12 0-5.557.841-7.311 2.522-1.755 1.68-2.632 3.995-2.632 6.944v7.75a2.852 2.852 0 005.702 0v-7.567c0-1.627.352-2.858 1.06-3.691.707-.834 1.743-1.25 3.107-1.25 1.39.005 2.444.422 3.162 1.25.719.828 1.078 2.058 1.078 3.691v7.565a2.852 2.852 0 002.851 2.852h.074a2.851 2.851 0 002.851-2.852v-7.75zm21.152 1.974h-13.01a.303.303 0 00-.291.388 4.584 4.584 0 001.805 2.5c.996.706 2.237 1.06 3.724 1.06a7.565 7.565 0 002.724-.458c.266-.102.524-.224.773-.364.88-.491 2.143-.315 2.826.425l.03.034a2.287 2.287 0 01-.538 3.527c-1.61.936-3.596 1.404-5.96 1.404-2.223 0-4.185-.432-5.887-1.297a9.512 9.512 0 01-3.947-3.601c-.926-1.534-1.389-3.277-1.389-5.228a10.047 10.047 0 011.371-5.208 9.605 9.605 0 013.767-3.619c1.596-.864 3.38-1.296 5.352-1.296 1.925 0 3.668.414 5.228 1.242a9.084 9.084 0 013.673 3.565c.89 1.547 1.335 3.344 1.335 5.391v.02a1.582 1.582 0 01-1.586 1.515zm-11.866-6.323a4.537 4.537 0 00-1.518 2.53.382.382 0 00.372.467h8.765a.383.383 0 00.37-.468 4.607 4.607 0 00-1.515-2.511c-.877-.74-1.95-1.111-3.216-1.111-1.295-.003-2.382.361-3.258 1.093zM52.7 32.405a2.851 2.851 0 00-4.867 2.016V46.24a2.852 2.852 0 005.702 0V34.42c0-.756-.3-1.48-.835-2.015zm-4.892-.861a4.074 4.074 0 012.876-1.194 4.074 4.074 0 014.07 4.07v11.82a4.07 4.07 0 11-8.14 0V34.42a4.075 4.075 0 011.194-2.876z"
            fill="#fff"
        />
    </g>
    <path
        fillRule="evenodd"
        clipRule="evenodd"
        d="M10.143 33.423a12.66 12.66 0 012.405-2.951l.061-.182a14.27 14.27 0 00-2.666-.235c-3.12 0-5.557.84-7.311 2.522C.877 34.258 0 36.573 0 39.521v8.042a2.851 2.851 0 105.703 0v-7.858c0-1.634.353-2.864 1.06-3.692.633-.74 1.529-1.15 2.688-1.226.203-.468.434-.924.692-1.364zm20.397 8.365H17.53a.304.304 0 00-.292.387 4.594 4.594 0 001.805 2.5c.997.707 2.238 1.06 3.725 1.06a7.566 7.566 0 002.724-.457 5.92 5.92 0 00.773-.364c.88-.492 2.143-.315 2.827.425l.029.033a2.286 2.286 0 01-.538 3.528c-1.61.936-3.598 1.404-5.96 1.404-2.223 0-4.185-.432-5.886-1.297a9.524 9.524 0 01-3.949-3.601c-.926-1.534-1.389-3.277-1.389-5.228a10.047 10.047 0 011.371-5.208 9.611 9.611 0 013.761-3.618c1.596-.866 3.381-1.298 5.355-1.297 1.925 0 3.668.414 5.228 1.242a9.093 9.093 0 013.673 3.565c.89 1.547 1.334 3.344 1.335 5.391v.02a1.582 1.582 0 01-1.582 1.515zm-11.866-6.323a4.537 4.537 0 00-1.518 2.53.382.382 0 00.37.467h8.763a.381.381 0 00.37-.468 4.615 4.615 0 00-1.517-2.511c-.878-.741-1.95-1.111-3.218-1.111-1.29-.003-2.373.361-3.25 1.093zm34.18-1.111a2.17 2.17 0 11-4.34 0 2.17 2.17 0 014.34 0z"
        fill="#fff"
    />
    <path
        d="M38.186 59.7L36.098 66h-1.242l-1.557-4.662L31.715 66h-1.251l-2.088-6.3h1.215l1.566 4.788 1.629-4.788h1.08l1.593 4.815 1.61-4.815h1.117zm.953 0h1.17V66h-1.17v-6.3zm4.152.99h-2.088v-.99h5.346v.99h-2.088V66h-1.17v-5.31zm9.734-.99V66h-1.17v-2.7h-3.258V66h-1.17v-6.3h1.17v2.601h3.258V59.7h1.17zm18.636-.24a4.03 4.03 0 00-.922-1.285 4.304 4.304 0 00-1.361-.86 4.468 4.468 0 00-1.66-.315c-.799 0-1.578.21-2.255.605a4.233 4.233 0 00-.462.311 4.223 4.223 0 00-.462-.311A4.475 4.475 0 0062.283 57a4.46 4.46 0 00-1.66.315 4.295 4.295 0 00-1.36.86 4.005 4.005 0 00-.923 1.284 3.83 3.83 0 00-.34 1.58c0 .517.11 1.054.329 1.602.183.457.446.932.781 1.41.532.76 1.263 1.55 2.17 2.352a24.171 24.171 0 003.056 2.283l.384.236a.54.54 0 00.56 0l.384-.236c.063-.038 1.55-.955 3.056-2.284.907-.801 1.638-1.592 2.17-2.35.335-.48.6-.954.781-1.411A4.317 4.317 0 0072 61.039a3.803 3.803 0 00-.339-1.58z"
        fill="#fff"
    />
    <defs>
        <filter
            id="refine-love-icon_svg__a"
            x="26.373"
            y="15"
            width="81.626"
            height="43.416"
            filterUnits="userSpaceOnUse"
            colorInterpolationFilters="sRGB"
        >
            <feFlood floodOpacity="{0}" result="BackgroundImageFix" />
            <feGaussianBlur in="BackgroundImage" stdDeviation="4" />
            <feComposite
                in2="SourceAlpha"
                operator="in"
                result="effect1_backgroundBlur"
            />
            <feBlend
                in="SourceGraphic"
                in2="effect1_backgroundBlur"
                result="shape"
            />
        </filter>
    </defs>
</svg>
