<svg width="360" height="158" viewBox="0 0 360 158" fill="none" xmlns="http://www.w3.org/2000/svg">
<path d="M180 9.66667V157M180 9.66667C166.034 9.66667 152.253 9.64752 138.701 9.61026M180 9.66667C193.966 9.66667 207.747 9.64752 221.299 9.61026M48 157L138.701 9.61026M-84 157L97.6139 9.43867M312 157L221.299 9.61026M444 157L262.386 9.43867M540 1C540 2.00396 532.909 2.96806 519.867 3.86483C511.942 4.40977 501.819 4.92985 489.755 5.41892M-180 1C-180 2.00396 -172.909 2.96806 -159.867 3.86484C-151.942 4.40977 -141.819 4.92985 -129.755 5.41892C-119.775 5.82348 -108.466 6.20682 -95.9742 6.56545M-95.9742 6.56545C-84.8429 6.88501 -72.7715 7.18496 -59.8627 7.46282M-95.9742 6.56545L-180 26.0714M-59.8627 7.46282C-47.9522 7.71919 -35.3287 7.95676 -22.0726 8.1736M-59.8627 7.46282L-180 40M-22.0726 8.1736C-9.59501 8.3777 3.44302 8.56343 16.9744 8.72917M-22.0726 8.1736L-180 59.5M16.9744 8.72917C29.8736 8.88717 43.2211 9.027 56.9588 9.14727M16.9744 8.72917L-180 88.75M56.9588 9.14727C70.1671 9.2629 83.736 9.36045 97.6139 9.43867M56.9588 9.14727L-180 137.5M97.6139 9.43867C111.036 9.51432 124.748 9.57189 138.701 9.61026M221.299 9.61026C235.252 9.57189 248.964 9.51432 262.386 9.43867M262.386 9.43867C276.264 9.36045 289.833 9.2629 303.041 9.14727M303.041 9.14727C316.779 9.027 330.126 8.88716 343.026 8.72917M303.041 9.14727L540 137.5M343.026 8.72917C356.557 8.56343 369.595 8.3777 382.073 8.1736M343.026 8.72917L540 88.75M382.073 8.1736C395.329 7.95676 407.952 7.71919 419.863 7.46282M382.073 8.1736L540 59.5M419.863 7.46282C447.259 6.87313 470.882 6.18397 489.755 5.41892M419.863 7.46282L540 40M489.755 5.41892L540 15.625M455.985 6.56546L540 26.069M-180 5.38377C-178.13 5.71818 -176.05 6.04867 -173.769 6.3749C-125.222 13.3167 14.8159 18.3333 180 18.3333C352.947 18.3333 498.329 12.8342 540 5.38378M-180 15.4622C-117.388 27.3868 20.2607 35.6667 180 35.6667C339.739 35.6667 477.388 27.3868 540 15.4622M-180 34.5466C-102.606 50.8932 29.7381 61.6667 180 61.6667C330.262 61.6667 462.606 50.8932 540 34.5466M-180 64.0588C-92.0467 83.8505 36.6369 96.3333 180 96.3333C323.363 96.3333 452.047 83.8505 540 64.0588M-180 104.358C-84.4638 126.315 41.6962 139.667 180 139.667C318.304 139.667 444.464 126.315 540 104.358" stroke="url(#paint0_radial_691_10146)"/>
<defs>
<radialGradient id="paint0_radial_691_10146" cx="0" cy="0" r="1" gradientUnits="userSpaceOnUse" gradientTransform="translate(180.259 1) rotate(90) scale(156 430.113)">
<stop stop-color="#4545A1"/>
<stop offset="0.776101" stop-color="#4545A1" stop-opacity="0"/>
</radialGradient>
</defs>
</svg>
