<svg width="290" height="178" viewBox="0 0 290 178" fill="none" xmlns="http://www.w3.org/2000/svg">
<path d="M273 1H5C2.79086 1 1 2.79086 1 5V17M273 1H285C287.209 1 289 2.79086 289 5V17M273 1V177M273 177H285C287.209 177 289 175.209 289 173V17M273 177H5C2.79086 177 1 175.209 1 173V17M257 1V177M241 1V177M225 1V177M209 1V177M193 1V177M177 1V177M161 1V177M145 1V177M129 1V177M113 1V177M97 1V177M81 1V177M65 1V177M49 1V177M33 1V177M17 1V177M289 17H1M289 33H1M289 49H1M289 65H1M289 81H1M289 97H1M289 113H1M289 129H1M289 145H1M289 161H1" stroke="url(#paint0_radial_724_13633)"/>
<path d="M273 1H5C2.79086 1 1 2.79086 1 5V17M273 1H285C287.209 1 289 2.79086 289 5V17M273 1V177M273 177H285C287.209 177 289 175.209 289 173V17M273 177H5C2.79086 177 1 175.209 1 173V17M257 1V177M241 1V177M225 1V177M209 1V177M193 1V177M177 1V177M161 1V177M145 1V177M129 1V177M113 1V177M97 1V177M81 1V177M65 1V177M49 1V177M33 1V177M17 1V177M289 17H1M289 33H1M289 49H1M289 65H1M289 81H1M289 97H1M289 113H1M289 129H1M289 145H1M289 161H1" stroke="url(#paint1_radial_724_13633)"/>
<defs>
<radialGradient id="paint0_radial_724_13633" cx="0" cy="0" r="1" gradientUnits="userSpaceOnUse" gradientTransform="translate(1 1) scale(148 148)">
<stop stop-color="#4D4DB3" stop-opacity="0.5"/>
<stop offset="1" stop-color="#4D4DB3" stop-opacity="0"/>
</radialGradient>
<radialGradient id="paint1_radial_724_13633" cx="0" cy="0" r="1" gradientUnits="userSpaceOnUse" gradientTransform="translate(289 0.999998) rotate(148.57) scale(168.76 168.76)">
<stop stop-color="#4D4DB3" stop-opacity="0.2"/>
<stop offset="1" stop-color="#4D4DB3" stop-opacity="0"/>
</radialGradient>
</defs>
</svg>
