<svg width="1440" height="314" viewBox="0 0 1440 314" fill="none" xmlns="http://www.w3.org/2000/svg">
<path opacity="0.5" d="M720 295.667V1M720 295.667C692.068 295.667 664.507 295.705 637.403 295.779M720 295.667C747.933 295.667 775.493 295.705 802.597 295.779M456 1L637.403 295.779M192 1L555.228 296.123M984 1L802.597 295.779M1248 1L884.772 296.123M1440 313C1440 310.992 1425.82 309.064 1399.73 307.27C1383.88 306.18 1363.64 305.14 1339.51 304.162M0 313C0 310.992 14.1822 309.064 40.2665 307.27C56.1168 306.18 76.3622 305.14 100.491 304.162C120.45 303.353 143.067 302.586 168.052 301.869M168.052 301.869C190.314 301.23 214.457 300.63 240.275 300.074M168.052 301.869L0 262.857M240.275 300.074C264.096 299.562 289.343 299.086 315.855 298.653M240.275 300.074L0 235M315.855 298.653C340.81 298.245 366.886 297.873 393.949 297.542M315.855 298.653L0 196M393.949 297.542C419.747 297.226 446.442 296.946 473.918 296.705M393.949 297.542L0 137.5M473.918 296.705C500.334 296.474 527.472 296.279 555.228 296.123M473.918 296.705L0 40M555.228 296.123C582.072 295.971 609.495 295.856 637.403 295.779M802.597 295.779C830.505 295.856 857.928 295.971 884.772 296.123M884.772 296.123C912.528 296.279 939.666 296.474 966.082 296.705M966.082 296.705C993.558 296.946 1020.25 297.226 1046.05 297.542M966.082 296.705L1440 40.0001M1046.05 297.542C1073.11 297.873 1099.19 298.245 1124.15 298.653M1046.05 297.542L1440 137.5M1124.15 298.653C1150.66 299.086 1175.9 299.562 1199.73 300.074M1124.15 298.653L1440 196M1199.73 300.074C1254.52 301.254 1301.76 302.632 1339.51 304.162M1199.73 300.074L1440 235M1339.51 304.162L1440 283.75M1271.97 301.869L1440 262.862M0 304.232C3.74091 303.564 7.89972 302.903 12.4627 302.25C109.556 288.367 389.632 278.333 720 278.333C1065.89 278.333 1356.66 289.332 1440 304.232M0 284.076C125.224 260.226 400.521 243.667 720 243.667C1039.48 243.667 1314.78 260.226 1440 284.076M0 245.907C154.789 213.214 419.476 191.667 720 191.667C1020.52 191.667 1285.21 213.214 1440 245.907M0 186.882C175.907 147.299 433.274 122.333 720 122.333C1006.73 122.333 1264.09 147.299 1440 186.882M0 106.284C191.072 62.3696 443.392 35.6667 720 35.6667C996.608 35.6667 1248.93 62.3696 1440 106.284" stroke="url(#paint0_radial_724_13575)"/>
<defs>
<radialGradient id="paint0_radial_724_13575" cx="0" cy="0" r="1" gradientUnits="userSpaceOnUse" gradientTransform="translate(720.518 313) rotate(-90) scale(312 860.227)">
<stop stop-color="#4545A1"/>
<stop offset="0.776101" stop-color="#4545A1" stop-opacity="0"/>
</radialGradient>
</defs>
</svg>
