<svg width="41" height="31" viewBox="0 0 41 31" fill="none" xmlns="http://www.w3.org/2000/svg">
<path fill-rule="evenodd" clip-rule="evenodd" d="M5.25 11.06H6.23795C5.81153 11.7374 5.58008 12.5268 5.58008 13.3401V14.1173C3.52791 15.1442 2.42465 16.9978 1.83359 18.76H1C0.734784 18.76 0.48043 18.8654 0.292893 19.0529C0.105357 19.2404 0 19.4948 0 19.76C0 20.0252 0.105357 20.2796 0.292893 20.4671C0.48043 20.6547 0.734784 20.76 1 20.76H1.34417C1.18566 21.7279 1.16016 22.5166 1.16016 22.8999V24.4799C1.16016 24.7451 1.26551 24.9994 1.45305 25.187C1.64059 25.3745 1.89494 25.4799 2.16016 25.4799H3.33856C3.54455 26.6448 4.10376 27.7276 4.95231 28.5747C6.03974 29.6603 7.51348 30.27 9.05 30.27C9.81035 30.27 10.5633 30.1202 11.2657 29.8292C11.9682 29.5383 12.6065 29.1118 13.1441 28.5741C13.6818 28.0365 14.1083 27.3982 14.3993 26.6957C14.5617 26.3037 14.6801 25.8959 14.753 25.4799H26.5802C26.921 25.4662 27.2584 25.4285 27.5902 25.3677C27.7794 26.5752 28.3469 27.7005 29.2227 28.5748C30.3101 29.6603 31.7838 30.27 33.3204 30.27L33.3304 30.31C34.4918 30.315 35.6279 29.9707 36.5911 29.3216C37.5543 28.6725 38.3 27.7488 38.7314 26.6704C39.1627 25.592 39.2598 24.4088 39.01 23.2745C38.8409 22.5072 38.5184 21.7862 38.0659 21.1532L39.8302 19.0299C39.9964 18.8295 40.0779 18.5721 40.0574 18.3125C40.0368 18.053 39.9158 17.8116 39.7202 17.6399C39.2934 17.2539 38.8236 16.9184 38.3202 16.6399C38.2257 16.5859 38.1232 16.5476 38.0168 16.5265C36.6855 15.8433 35.1864 15.563 33.7029 15.7155C33.539 13.9389 33.0313 12.2177 32.2153 10.6455C32.58 10.7088 32.9489 10.7505 33.3203 10.7699C33.5855 10.7699 33.8399 10.6646 34.0274 10.4771C34.215 10.2895 34.3203 10.0352 34.3203 9.76994V4.93994C34.3203 4.67473 34.215 4.42037 34.0274 4.23283C33.8399 4.0453 33.5855 3.93994 33.3203 3.93994C32.1723 4.00011 31.0476 4.27223 30.0024 4.74031L28.08 2.0699C27.9869 1.94251 27.865 1.83895 27.7242 1.76769C27.5835 1.69643 27.4278 1.65951 27.27 1.65992H25.04C24.7748 1.65992 24.5205 1.76527 24.3329 1.95281C24.1454 2.14034 24.04 2.3947 24.04 2.65992C24.04 2.92513 24.1454 3.17949 24.3329 3.36702C24.5205 3.55456 24.7748 3.65992 25.04 3.65992H26.76L28.8203 6.53154V7.73017C28.7565 7.73142 28.6933 7.73876 28.6317 7.75188C28.5873 7.75826 28.5432 7.76766 28.4996 7.78009C27.5496 8.12009 25.3496 9.32009 25.3496 13.7801C25.3496 16.0336 25.4811 18.0183 25.5453 18.8996C25.0376 19.258 24.4492 19.4887 23.8302 19.5699H21.7102C21.3417 19.4259 21.0089 19.2039 20.7344 18.9191C20.4599 18.6342 20.2504 18.2934 20.1202 17.9199C19.9859 16.8864 20.2379 15.8408 20.8262 14.9828C20.9767 14.8034 21.0601 14.576 21.0601 14.3401V13.3401C21.0601 12.2049 20.6092 11.1163 19.8065 10.3136C19.0038 9.51099 17.9152 9.06006 16.7801 9.06006H14.31V9.06V2C14.31 1.46957 14.0993 0.960858 13.7242 0.585785C13.3491 0.210712 12.8404 0 12.31 0H8.78027H5.25C4.71957 0 4.21086 0.210712 3.83579 0.585785C3.46071 0.960858 3.25 1.46957 3.25 2V9.06C3.25 9.59043 3.46071 10.0991 3.83579 10.4742C4.21086 10.8493 4.71957 11.06 5.25 11.06ZM9.78027 2H12.31V9.06H5.25V2H7.78027V3.42C7.78027 3.68521 7.88563 3.93957 8.07317 4.12711C8.2607 4.31464 8.51506 4.42 8.78027 4.42C9.04549 4.42 9.29984 4.31464 9.48738 4.12711C9.67492 3.93957 9.78027 3.68521 9.78027 3.42V2ZM28.3966 23.0326C28.2176 23.0541 28.0465 23.1238 27.9023 23.2359C27.4786 23.3855 27.0346 23.4818 26.5802 23.5199H14.1197C14.0296 23.4936 13.9355 23.48 13.84 23.48C13.7445 23.48 13.6504 23.4936 13.5603 23.5199H4.52967C4.4396 23.4936 4.3455 23.48 4.25 23.48C4.1545 23.48 4.0604 23.4936 3.97033 23.5199H3.16016V22.9499C3.1631 22.47 3.19898 21.6678 3.37086 20.76H13.84C14.1052 20.76 14.3596 20.6547 14.5471 20.4671C14.7346 20.2796 14.84 20.0252 14.84 19.76C14.84 19.4948 14.7346 19.2404 14.5471 19.0529C14.3596 18.8654 14.1052 18.76 13.84 18.76H3.97272C4.67451 17.1543 5.97379 15.6838 8.37016 15.3999H18.4302C18.033 16.3769 17.9491 17.4531 18.1902 18.4799C18.4082 19.1688 18.7825 19.7979 19.2838 20.3183C19.7851 20.8387 20.3999 21.2362 21.0802 21.4799C21.2079 21.5414 21.3483 21.5722 21.4902 21.5699H23.8302C24.5292 21.53 25.2129 21.3491 25.8402 21.038C26.4675 20.7269 27.0253 20.2922 27.4802 19.7599C27.5499 19.6455 27.5959 19.5183 27.6155 19.3859C27.6351 19.2534 27.6279 19.1183 27.5943 18.9887C27.5817 18.9398 27.5654 18.892 27.5456 18.8458C27.4885 18.0831 27.3496 16.0284 27.3496 13.7401C27.3496 11.6111 27.9382 10.1627 28.9831 9.72998H29.2798C30.6815 11.5987 31.5247 13.8207 31.7201 16.1387C30.9273 16.4144 30.2088 16.8799 29.6302 17.5C29.4752 17.7127 29.4104 17.9779 29.4497 18.2381C29.489 18.4983 29.6293 18.7325 29.8402 18.89C30.0084 19.0218 30.2165 19.0923 30.4302 19.09C30.5846 19.0951 30.7381 19.0643 30.8786 19.0001C31.0192 18.9359 31.1429 18.84 31.2402 18.72C31.712 18.292 32.3001 18.0136 32.9302 17.92C33.0276 17.9029 33.1218 17.8718 33.2099 17.8277L33.4697 17.7699C34.7667 17.5294 36.1069 17.7487 37.2597 18.3899C37.3225 18.4225 37.3882 18.4486 37.4557 18.4681L37.5802 18.5399L36.3002 20.0699C35.1684 19.8674 34.0051 19.93 32.9016 20.2527C31.7982 20.5755 30.7845 21.1495 29.9402 21.9299C29.4925 22.391 28.9687 22.763 28.3966 23.0326ZM29.5299 24.7166C29.6309 25.6006 30.0395 26.424 30.6882 27.0402C31.3944 27.7111 32.3313 28.0851 33.3054 28.0851C34.2795 28.0851 35.2163 27.7111 35.9226 27.0402C36.6288 26.3693 37.0504 25.4528 37.1004 24.48C37.1028 23.97 37.0012 23.4648 36.8018 22.9954C36.6541 22.6479 36.4551 22.3254 36.212 22.0384C34.1468 21.7804 32.6563 22.1786 31.4202 23.3399C30.8644 23.9037 30.2249 24.3668 29.5299 24.7166ZM5.4377 25.4799H12.6523C12.4573 26.0686 12.1194 26.6059 11.6622 27.0401C10.956 27.711 10.0191 28.0851 9.045 28.0851C8.07091 28.0851 7.13402 27.711 6.4278 27.0401C5.97063 26.6059 5.63273 26.0686 5.4377 25.4799ZM8.21016 13.3699C7.99356 13.3935 7.78361 13.4242 7.58008 13.4613V13.3401C7.58006 12.7388 7.81752 12.1619 8.24079 11.7349C8.66405 11.3079 9.23886 11.0653 9.84008 11.0601H16.7801C17.0795 11.0601 17.376 11.119 17.6526 11.2336C17.9292 11.3482 18.1806 11.5161 18.3923 11.7279C18.604 11.9396 18.7719 12.1909 18.8865 12.4675C19.0011 12.7442 19.0601 13.0406 19.0601 13.3401V13.3699H8.21016ZM30.8403 8.13994C31.3179 8.3526 31.8131 8.52324 32.3203 8.64993V6.05994C31.8117 6.18182 31.3161 6.35261 30.8403 6.56993V8.13994Z" fill="#595959"/>
</svg>
