<svg width="32" height="25" viewBox="0 0 32 25" fill="none" xmlns="http://www.w3.org/2000/svg">
<path fill-rule="evenodd" clip-rule="evenodd" d="M4.19394 8.8654H4.98253C4.64191 9.40654 4.45703 10.0371 4.45703 10.6867V11.3079C2.8182 12.1282 1.9371 13.6087 1.46502 15.0161H0.798792C0.586939 15.0161 0.383763 15.1003 0.233961 15.2501C0.0841582 15.3999 0 15.6031 0 15.8149C0 16.0268 0.0841582 16.2299 0.233961 16.3797C0.383763 16.5295 0.586939 16.6137 0.798792 16.6137H1.07407C0.947456 17.3869 0.927083 18.0168 0.927083 18.323V19.5851C0.927083 19.797 1.01124 20.0001 1.16104 20.1499C1.31085 20.2997 1.51402 20.3839 1.72588 20.3839H2.6671C2.83165 21.3144 3.27834 22.1794 3.95615 22.856C4.82477 23.7232 6.00198 24.2102 7.22935 24.2102C7.83671 24.2102 8.43813 24.0905 8.99926 23.8581C9.56039 23.6257 10.0702 23.285 10.4997 22.8555C10.9292 22.4261 11.2699 21.9162 11.5023 21.3551C11.632 21.0419 11.7266 20.7162 11.7849 20.3839H21.2324C21.5044 20.373 21.7737 20.3429 22.0385 20.2944C22.1897 21.2589 22.643 22.1577 23.3425 22.856C24.2111 23.7232 25.3883 24.2102 26.6157 24.2102L26.6237 24.2421C27.5514 24.2462 28.459 23.9711 29.2283 23.4526C29.9977 22.9341 30.5934 22.1963 30.938 21.3349C31.2825 20.4734 31.3601 19.5283 31.1605 18.6223C31.0255 18.0095 30.768 17.4338 30.4068 16.9282L31.8164 15.2317C31.9492 15.0716 32.0143 14.866 31.9979 14.6587C31.9815 14.4514 31.8848 14.2586 31.7285 14.1214C31.3876 13.8131 31.0124 13.5451 30.6102 13.3226C30.5343 13.2792 30.452 13.2486 30.3665 13.2317C29.3034 12.6863 28.1063 12.4624 26.9217 12.5842C26.7907 11.1651 26.3852 9.79023 25.7334 8.53443C26.0245 8.58492 26.319 8.61815 26.6154 8.63369C26.8273 8.63369 27.0304 8.54953 27.1802 8.39973C27.33 8.24993 27.4142 8.04675 27.4142 7.8349V3.97673C27.4142 3.76488 27.33 3.5617 27.1802 3.4119C27.0304 3.2621 26.8273 3.17794 26.6154 3.17794C25.6986 3.22599 24.8004 3.44327 23.9656 3.81702L22.4302 1.68419C22.3559 1.58242 22.2585 1.4997 22.146 1.44278C22.0336 1.38586 21.9093 1.35637 21.7832 1.35669H20.0019C19.7901 1.35669 19.5869 1.44085 19.4371 1.59065C19.2873 1.74045 19.2031 1.94363 19.2031 2.15548C19.2031 2.36734 19.2873 2.57051 19.4371 2.72032C19.5869 2.87012 19.7901 2.95428 20.0019 2.95428H21.3758L23.0208 5.24708V6.20557C22.9704 6.20659 22.9204 6.21239 22.8717 6.22271C22.8358 6.22781 22.8001 6.23538 22.7649 6.24543C22.006 6.51702 20.2487 7.47557 20.2487 11.0382C20.2487 12.8387 20.3538 14.4244 20.405 15.1281C19.9997 15.4141 19.5299 15.5982 19.0357 15.663H17.3423C17.048 15.548 16.7821 15.3707 16.5628 15.1432C16.3436 14.9157 16.1762 14.6434 16.0722 14.345C15.9647 13.5177 16.1671 12.6805 16.6393 11.9943C16.7571 11.8518 16.8223 11.672 16.8223 11.4855V10.6867C16.8223 9.77996 16.4621 8.91037 15.821 8.26922C15.1798 7.62806 14.3102 7.26786 13.4035 7.26786H11.431V7.26782V1.62835C11.431 1.20464 11.2627 0.798287 10.9631 0.498682C10.6635 0.199077 10.2571 0.0307617 9.83341 0.0307617H7.01364H4.19394C3.77023 0.0307617 3.36388 0.199077 3.06428 0.498682C2.76467 0.798287 2.59635 1.20464 2.59635 1.62835V7.26782C2.59635 7.69152 2.76467 8.09787 3.06428 8.39748C3.36388 8.69708 3.77023 8.8654 4.19394 8.8654ZM7.81243 1.62835H9.83341V7.26782H4.19394V1.62835H6.21484V2.76263C6.21484 2.97448 6.299 3.17766 6.4488 3.32746C6.59861 3.47726 6.80178 3.56142 7.01364 3.56142C7.22549 3.56142 7.42866 3.47726 7.57847 3.32746C7.72827 3.17766 7.81243 2.97448 7.81243 2.76263V1.62835ZM22.6837 18.4289C22.54 18.446 22.4027 18.5019 22.2871 18.5919C21.9491 18.7112 21.5949 18.7879 21.2324 18.8183H11.2791C11.2071 18.7973 11.1319 18.7864 11.0556 18.7864C10.9792 18.7864 10.904 18.7973 10.8321 18.8183H3.61864C3.54666 18.7973 3.47147 18.7864 3.39515 18.7864C3.31883 18.7864 3.24363 18.7973 3.17165 18.8183H2.52467V18.363C2.52702 17.9797 2.55568 17.3388 2.69298 16.6137H11.0553C11.2671 16.6137 11.4703 16.5295 11.6201 16.3797C11.7699 16.2299 11.8541 16.0268 11.8541 15.8149C11.8541 15.6031 11.7699 15.3999 11.6201 15.2501C11.4703 15.1003 11.2671 15.0161 11.0553 15.0161H3.17374C3.73433 13.7335 4.77218 12.5589 6.68637 12.3321H14.7222C14.405 13.1125 14.338 13.9722 14.5305 14.7924C14.7047 15.3426 15.0037 15.8452 15.4041 16.2609C15.8046 16.6766 16.2956 16.9941 16.839 17.1887C16.9411 17.2379 17.0532 17.2625 17.1665 17.2606H19.0357C19.5941 17.2288 20.1402 17.0842 20.6413 16.8358C21.1424 16.5873 21.588 16.24 21.9513 15.8148C22.007 15.7235 22.0437 15.6219 22.0594 15.5161C22.0751 15.4102 22.0693 15.3024 22.0425 15.1988C22.0322 15.159 22.0189 15.1202 22.0027 15.0826C21.957 14.4718 21.8463 12.8321 21.8463 11.0062C21.8463 9.30562 22.3165 8.14862 23.1511 7.80299H23.3885C24.5082 9.29574 25.1817 11.0707 25.3378 12.9224C24.7047 13.1426 24.1309 13.5144 23.6687 14.0096C23.545 14.1795 23.4932 14.3914 23.5246 14.5992C23.556 14.8071 23.6681 14.9942 23.8365 15.1199C23.9709 15.2252 24.1371 15.2816 24.3078 15.2797C24.4311 15.2838 24.5537 15.2592 24.666 15.2079C24.7783 15.1566 24.8771 15.0801 24.9548 14.9842C25.3317 14.6423 25.8015 14.4199 26.3048 14.3451C26.3828 14.3315 26.4583 14.3064 26.5289 14.271L26.7348 14.2252C27.7708 14.0331 28.8414 14.2083 29.7622 14.7205C29.8129 14.7468 29.866 14.7678 29.9205 14.7834L30.0191 14.8403L28.9966 16.0624C28.0926 15.9007 27.1634 15.9507 26.2819 16.2085C25.4005 16.4663 24.5908 16.9248 23.9163 17.5482C23.5589 17.9165 23.1406 18.2135 22.6837 18.4289ZM23.588 19.7746C23.6687 20.4805 23.995 21.1381 24.5131 21.6302C25.0772 22.1661 25.8256 22.4649 26.6037 22.4649C27.3818 22.4649 28.1302 22.1661 28.6943 21.6302C29.2584 21.0943 29.5952 20.3622 29.6351 19.5852C29.6371 19.1778 29.5559 18.7743 29.3966 18.3993C29.2786 18.1217 29.1196 17.864 28.9255 17.6348C27.2762 17.4289 26.0858 17.747 25.0985 18.6745C24.6545 19.125 24.1433 19.4951 23.588 19.7746ZM4.34388 20.3839H10.1068C9.95104 20.8542 9.68113 21.2833 9.31595 21.6302C8.75183 22.1661 8.00345 22.4649 7.22535 22.4649C6.44726 22.4649 5.69888 22.1661 5.13475 21.6302C4.76958 21.2833 4.49967 20.8542 4.34388 20.3839ZM6.55857 10.7105C6.38532 10.7295 6.21739 10.754 6.05462 10.7837V10.6867C6.0546 10.2064 6.24428 9.74558 6.58239 9.40449C6.92049 9.06339 7.37963 8.86966 7.85989 8.86545H13.4035C13.6427 8.86545 13.8795 8.91255 14.1005 9.00408C14.3214 9.09561 14.5222 9.22976 14.6913 9.39888C14.8604 9.568 14.9946 9.76877 15.0861 9.98974C15.1776 10.2107 15.2247 10.4475 15.2247 10.6867V10.7105H6.55857ZM24.6344 6.53286C25.0159 6.70273 25.4115 6.83904 25.8166 6.94024V4.87137C25.4103 4.96873 25.0144 5.10515 24.6344 5.27875V6.53286Z" fill="white"/>
</svg>
