<svg width="472" height="131" fill="none" xmlns="http://www.w3.org/2000/svg">
  <g clip-path="url(#clip0)" filter="url(#filter0_d)" fill-rule="evenodd" clip-rule="evenodd" fill="#fff">
    <path d="M51.99 51.569h-5.864a.916.916 0 01-.852-.579.925.925 0 01-.066-.357v-1.088c0-4.54 2.062-6.809 6.185-6.809a9.656 9.656 0 013.962.803 1.572 1.572 0 002.137-.9l2.476-6.832a1.606 1.606 0 00-.809-1.99 15.883 15.883 0 00-3.302-1.154A24.885 24.885 0 0050.08 32c-5.74-.002-10.187 1.569-13.344 4.713S32 44.106 32 49.459v41.204c0 1.806.714 3.538 1.986 4.815a6.765 6.765 0 004.793 1.994 6.764 6.764 0 004.794-1.994 6.825 6.825 0 001.985-4.815V62.948a.92.92 0 01.915-.918h5.517a5.195 5.195 0 003.687-1.534 5.238 5.238 0 00-.004-7.398 5.202 5.202 0 00-3.683-1.53zm81.98 20.584c-.002-7.04-2.088-12.569-6.257-16.584-4.172-4.016-9.966-6.024-17.382-6.024-7.394.003-13.183 2.012-17.365 6.027-4.183 4.015-6.274 9.543-6.274 16.584v18.507c0 1.806.714 3.538 1.985 4.815a6.764 6.764 0 004.794 1.995 6.764 6.764 0 004.793-1.995 6.825 6.825 0 001.986-4.815v-18.07c-.002-3.887.838-6.825 2.519-8.815 1.682-1.99 4.144-2.985 7.387-2.985 3.302.013 5.808 1.008 7.519 2.985 1.71 1.976 2.566 4.915 2.566 8.816V90.66c0 1.805.713 3.537 1.984 4.814a6.763 6.763 0 004.791 1.995h.175a6.756 6.756 0 004.794-1.994 6.83 6.83 0 001.985-4.815V72.153zm50.29 4.716h-30.933a.719.719 0 00-.708.594.715.715 0 00.018.331 10.942 10.942 0 004.292 5.97c2.378 1.688 5.333 2.531 8.866 2.531a17.907 17.907 0 006.476-1.091 13.866 13.866 0 001.839-.87c2.09-1.173 5.095-.752 6.719 1.016l.073.08a5.476 5.476 0 01.475 6.783 5.43 5.43 0 01-1.776 1.644c-3.83 2.236-8.556 3.353-14.176 3.353-5.283 0-9.948-1.032-13.994-3.097a22.652 22.652 0 01-9.384-8.6c-2.201-3.667-3.302-7.828-3.302-12.485a24.074 24.074 0 013.259-12.438 22.888 22.888 0 018.955-8.643c3.795-2.068 8.038-3.1 12.73-3.098 4.576 0 8.719.988 12.428 2.965a21.613 21.613 0 018.734 8.514c2.116 3.695 3.174 7.987 3.174 12.876v.046a3.785 3.785 0 01-1.158 2.57 3.751 3.751 0 01-2.607 1.049zm-28.212-15.101a10.85 10.85 0 00-3.61 6.053.91.91 0 00.176.77.907.907 0 00.709.344h20.83a.903.903 0 00.884-.711.9.9 0 00-.003-.407 11.009 11.009 0 00-3.602-5.996c-2.087-1.77-4.636-2.654-7.648-2.654-3.073-.013-5.652.854-7.736 2.6zm-82.672-8.795a6.753 6.753 0 00-2.597-.515h.01a6.764 6.764 0 00-4.793 1.994 6.825 6.825 0 00-1.986 4.815v28.225c0 1.806.714 3.538 1.986 4.815a6.764 6.764 0 004.793 1.995 6.764 6.764 0 004.794-1.995 6.825 6.825 0 001.985-4.815V59.267a6.836 6.836 0 00-1.989-4.819 6.778 6.778 0 00-2.203-1.475zm-9.426-.576a9.667 9.667 0 016.839-2.852 9.667 9.667 0 016.839 2.852 9.754 9.754 0 012.836 6.87v28.225a9.74 9.74 0 01-2.834 6.872 9.653 9.653 0 01-6.841 2.846 9.653 9.653 0 01-6.841-2.846 9.74 9.74 0 01-2.834-6.872V59.267a9.753 9.753 0 012.837-6.87z"/>
    <path d="M246.302 95.18a23.81 23.81 0 01-9.493-8.825c-2.292-3.76-3.436-8.009-3.434-12.75.002-4.74 1.142-8.99 3.421-12.75a23.81 23.81 0 019.506-8.828c4.042-2.121 8.599-3.18 13.671-3.178 5.072.002 9.628 1.061 13.67 3.178a23.842 23.842 0 019.484 8.829c2.289 3.759 3.434 8.009 3.434 12.75 0 4.74-1.145 8.99-3.434 12.749a23.82 23.82 0 01-9.497 8.826c-4.042 2.118-8.599 3.178-13.671 3.18-5.071.003-9.624-1.058-13.657-3.18zm19.023-11.193c1.617-1 2.93-2.428 3.794-4.126a13.2 13.2 0 001.414-6.256 13.226 13.226 0 00-1.414-6.258 10.418 10.418 0 00-3.807-4.126 10.594 10.594 0 00-10.705 0 10.39 10.39 0 00-3.804 4.126 13.19 13.19 0 00-1.417 6.258c-.05 2.171.436 4.32 1.417 6.256a10.364 10.364 0 003.804 4.126 10.568 10.568 0 0010.705 0h.013zM210.02 68.683v-5.307c0-.372.147-.73.41-.994.262-.264.618-.412.99-.412h15.021a5.968 5.968 0 004.238-1.762 6.03 6.03 0 001.755-4.258c0-1.594-.63-3.123-1.751-4.252a5.98 5.98 0 00-4.229-1.768h-26.331a5.984 5.984 0 00-4.237 1.764 6.04 6.04 0 00-1.756 4.256v35.31a6.037 6.037 0 001.755 4.255 5.983 5.983 0 004.235 1.765h3.916a5.978 5.978 0 004.229-1.764 6.034 6.034 0 001.755-4.249v-7.728c0-.373.147-.73.41-.995.262-.263.618-.411.99-.411h12.27a5.964 5.964 0 004.239-1.763 6.028 6.028 0 001.754-4.257 6.036 6.036 0 00-1.753-4.261 5.98 5.98 0 00-4.24-1.766h-12.27a1.392 1.392 0 01-1.294-.865 1.415 1.415 0 01-.106-.538zM75.937 59.114c0 2.862-2.31 5.181-5.158 5.181-2.848 0-5.158-2.32-5.158-5.18 0-2.862 2.31-5.181 5.158-5.181 2.849 0 5.158 2.32 5.158 5.18zm216.231 27.24a23.81 23.81 0 009.496 8.827c4.042 2.123 8.599 3.183 13.671 3.18 5.072-.002 9.628-1.062 13.67-3.18a23.819 23.819 0 009.494-8.826c2.291-3.76 3.436-8.009 3.434-12.75-.003-4.74-1.147-8.99-3.434-12.75a23.819 23.819 0 00-9.494-8.828c-4.037-2.119-8.594-3.178-13.67-3.178-5.077 0-9.633 1.06-13.671 3.178a23.834 23.834 0 00-9.496 8.829c-2.292 3.759-3.437 8.009-3.434 12.75.002 4.74 1.146 8.99 3.434 12.749zm32.323-6.493a10.389 10.389 0 01-3.804 4.126h-.013a10.576 10.576 0 01-10.708 0c-1.62-1-2.936-2.427-3.804-4.126a13.2 13.2 0 01-1.414-6.256 13.232 13.232 0 011.427-6.258 10.439 10.439 0 013.804-4.126 10.595 10.595 0 0110.708 0c1.62 1 2.936 2.426 3.804 4.126a13.189 13.189 0 011.414 6.258c.051 2.17-.434 4.32-1.414 6.256zm21.946-23.91a6.036 6.036 0 011.756-4.257 5.984 5.984 0 014.237-1.764h17.24c5.252 0 9.887.959 13.905 2.876a21.823 21.823 0 019.361 8.219c2.223 3.562 3.335 7.756 3.335 12.58 0 4.825-1.112 9.019-3.335 12.58a21.823 21.823 0 01-9.361 8.22c-4.02 1.917-8.655 2.875-13.905 2.875h-17.24a5.984 5.984 0 01-4.237-1.764 6.036 6.036 0 01-1.756-4.256V55.95zm22.559 28.881c3.412 0 6.14-.98 8.183-2.941 2.043-1.962 3.064-4.726 3.064-8.292 0-3.563-1.021-6.327-3.064-8.292-2.043-1.966-4.771-2.947-8.183-2.942h-5.283a1.394 1.394 0 00-1.293.865c-.071.17-.107.353-.107.538v19.648a1.398 1.398 0 00.41.993 1.404 1.404 0 00.99.41l5.283.013zm34.536 11.354c.967.311 2 .597 3.101.855a49.277 49.277 0 0011.415 1.347c4.713-.005 8.719-.715 12.019-2.133 3.3-1.417 5.78-3.333 7.44-5.748A13.932 13.932 0 00440 82.424c.002-3.42-.907-6.126-2.728-8.116a15.82 15.82 0 00-6.432-4.311 61.334 61.334 0 00-9.091-2.322c-2.783-.528-4.781-1.051-5.993-1.522-1.212-.472-1.816-1.185-1.816-2.13-.002-1.99 2.04-2.985 6.125-2.985 2.718.024 5.414.482 7.988 1.357a5.985 5.985 0 004.385-.232 6.027 6.027 0 003.058-3.165l.191-.464a6.055 6.055 0 00-.147-4.936 5.996 5.996 0 00-3.769-3.17c-.66-.19-1.34-.363-2.041-.518a43.397 43.397 0 00-9.536-1.06c-4.711-.003-8.717.696-12.019 2.095-3.302 1.4-5.783 3.316-7.443 5.748a14.097 14.097 0 00-2.49 8.12c0 3.427.898 6.143 2.695 8.149a15.452 15.452 0 006.33 4.328 68.829 68.829 0 009.09 2.471c2.825.586 4.854 1.127 6.089 1.622 1.235.495 1.853 1.24 1.853 2.232 0 .86-.473 1.5-1.414 1.927-.942.43-2.514.644-4.715.644a29.32 29.32 0 01-8.011-1.184 36.798 36.798 0 01-2.433-.78 5.984 5.984 0 00-4.408.105 6.026 6.026 0 00-3.151 3.1l-.267.603a6.024 6.024 0 001.473 6.91 5.983 5.983 0 002.159 1.246z"/>
  </g>
  <defs>
    <clipPath id="clip0">
      <path fill="#fff" transform="translate(32 32)" d="M0 0h408v66.361H0z"/>
    </clipPath>
    <filter id="filter0_d" x="0" y="0" width="472" height="130.361" filterUnits="userSpaceOnUse" color-interpolation-filters="sRGB">
      <feFlood flood-opacity="0" result="BackgroundImageFix"/>
      <feColorMatrix in="SourceAlpha" values="0 0 0 0 0 0 0 0 0 0 0 0 0 0 0 0 0 0 127 0" result="hardAlpha"/>
      <feOffset/>
      <feGaussianBlur stdDeviation="16"/>
      <feColorMatrix values="0 0 0 0 0 0 0 0 0 0 0 0 0 0 0 0 0 0 0.6 0"/>
      <feBlend in2="BackgroundImageFix" result="effect1_dropShadow"/>
      <feBlend in="SourceGraphic" in2="effect1_dropShadow" result="shape"/>
    </filter>
  </defs>
</svg>