<svg width="34" height="27" fill="none" xmlns="http://www.w3.org/2000/svg">
  <path fill-rule="evenodd" clip-rule="evenodd" d="M4.36 10.17h.821a3.555 3.555 0 00-.546 1.894v.645c-1.705.853-2.621 2.393-3.112 3.857H.83a.83.83 0 000 1.66h.285a11.348 11.348 0 00-.152 1.778v1.312a.83.83 0 00.83.83h.98a4.817 4.817 0 006.583 3.613 4.81 4.81 0 002.897-3.612h9.822c.284-.011.564-.043.84-.093a4.817 4.817 0 004.759 4.071l.008.034a4.808 4.808 0 003.933-7.606l1.465-1.763a.83.83 0 00-.091-1.155c-.354-.32-.745-.599-1.163-.83a.837.837 0 00-.252-.095 6.412 6.412 0 00-3.583-.673 11.42 11.42 0 00-1.235-4.211c.303.053.61.087.918.103a.83.83 0 00.83-.83V5.087a.83.83 0 00-.83-.83 7.733 7.733 0 00-2.756.664l-1.596-2.218a.832.832 0 00-.673-.34h-1.852a.83.83 0 000 1.66h1.428l1.711 2.386v.996a.832.832 0 00-.156.018.832.832 0 00-.11.023c-.79.282-2.617 1.28-2.617 4.983 0 1.872.11 3.52.163 4.253-.422.297-.91.489-1.425.556h-1.76a2.277 2.277 0 01-1.321-1.37 3.513 3.513 0 01.585-2.438.83.83 0 00.196-.535v-.831a3.555 3.555 0 00-3.555-3.555h-2.051V2.645a1.66 1.66 0 00-1.662-1.66H4.361A1.661 1.661 0 002.7 2.644V8.51a1.661 1.661 0 001.66 1.661zm3.763-7.525h2.101V8.51H4.361V2.645h2.101v1.18a.83.83 0 001.661 0v-1.18zm15.462 17.47a.83.83 0 00-.41.168c-.352.124-.721.204-1.099.236H11.727a.83.83 0 00-.464 0h-7.5a.83.83 0 00-.465 0h-.673v-.473c.002-.4.032-1.065.175-1.82h8.695a.83.83 0 100-1.66H3.3c.582-1.334 1.662-2.555 3.652-2.791h8.355c-.33.811-.4 1.705-.199 2.558a3.895 3.895 0 002.4 2.492.756.756 0 00.34.074h1.944a4.31 4.31 0 003.032-1.503.83.83 0 00.054-.76 59.447 59.447 0 01-.163-4.24c0-1.768.49-2.971 1.357-3.33h.247a10.316 10.316 0 012.027 5.322 4.31 4.31 0 00-1.736 1.131.83.83 0 00.174 1.155c.14.109.313.168.49.166a.831.831 0 00.673-.308c.392-.355.88-.586 1.404-.664.08-.014.16-.04.232-.077l.216-.048a4.709 4.709 0 013.148.515.892.892 0 00.162.065l.104.06-1.064 1.27a6.18 6.18 0 00-5.282 1.545 4.4 4.4 0 01-1.282.916zm.942 1.398a3.156 3.156 0 006.287-.197 3.116 3.116 0 00-.738-2.027c-1.715-.215-2.953.116-3.98 1.08a5.978 5.978 0 01-1.57 1.144zm-20.01.634h5.992a3.155 3.155 0 01-5.992 0zm2.302-10.058a7.37 7.37 0 00-.523.076v-.101a1.894 1.894 0 011.877-1.894h5.764a1.893 1.893 0 011.894 1.894v.025H6.819zm18.796-4.344c.397.177.808.318 1.229.424V6.017a6.736 6.736 0 00-1.23.424v1.304z" fill="#fff"/>
</svg>