<svg width="19" height="26" viewBox="0 0 19 26" fill="none" xmlns="http://www.w3.org/2000/svg">
<path fill-rule="evenodd" clip-rule="evenodd" d="M5.47041 7.53067H7.74144C8.27606 7.53066 8.78885 7.74231 9.16736 8.11918C9.54587 8.49605 9.7592 9.00739 9.76055 9.54104C9.76055 9.80572 9.70833 10.0678 9.60686 10.3123C9.50539 10.5569 9.35666 10.779 9.16917 10.9662C8.98168 11.1534 8.75909 11.3018 8.51412 11.4031C8.26915 11.5044 8.00659 11.5565 7.74144 11.5565H5.60468C5.51074 11.5565 5.42064 11.5938 5.35421 11.6601C5.28779 11.7264 5.25047 11.8163 5.25047 11.9101V22.5759C5.25047 23.2709 4.97388 23.9375 4.48156 24.4289C3.98923 24.9204 3.32149 25.1964 2.62523 25.1964C1.92898 25.1964 1.26124 24.9204 0.768913 24.4289C0.276586 23.9375 0 23.2709 0 22.5759V6.71886C0 4.6587 0.611233 3.02359 1.8337 1.81354C3.05617 0.603485 4.77862 -0.00111708 7.00105 -0.000266129C7.75439 -0.00240422 8.5054 0.0832712 9.23883 0.25502C9.68011 0.355801 10.1089 0.504764 10.5176 0.699217C10.6558 0.765166 10.7645 0.880148 10.8224 1.02174C10.8803 1.16333 10.8833 1.32139 10.8309 1.46507L9.8718 4.09452C9.8429 4.17348 9.79796 4.24563 9.7398 4.30644C9.68164 4.36725 9.61152 4.4154 9.53384 4.44788C9.45615 4.48036 9.37258 4.49647 9.28837 4.49518C9.20416 4.4939 9.12112 4.47526 9.04446 4.44043C8.5604 4.23099 8.03754 4.12573 7.50999 4.13153C5.91328 4.13153 5.11492 5.00504 5.11492 6.75204V7.17071C5.11425 7.21774 5.12294 7.26443 5.1405 7.30808C5.15806 7.35172 5.18414 7.39144 5.21722 7.42493C5.2503 7.45843 5.28971 7.48502 5.33318 7.50317C5.37665 7.52133 5.42329 7.53067 5.47041 7.53067ZM15.0212 7.873C15.365 7.873 15.7055 7.9404 16.0232 8.07138C16.3422 8.20284 16.632 8.39579 16.8762 8.63918C17.1204 8.88256 17.3141 9.17162 17.4463 9.4898C17.5784 9.80798 17.6465 10.1491 17.6465 10.4935V21.3559C17.6465 22.0509 17.3699 22.7175 16.8776 23.2089C16.3852 23.7003 15.7175 23.9764 15.0212 23.9764C14.325 23.9764 13.6572 23.7003 13.1649 23.2089C12.6726 22.7175 12.396 22.0509 12.396 21.3559V10.4935C12.396 9.79851 12.6726 9.13197 13.1649 8.64053C13.6572 8.14909 14.325 7.873 15.0212 7.873ZM15.0174 7.873H15.0212ZM15.0212 6.7523C14.0278 6.75365 13.0754 7.14829 12.373 7.84964C11.6706 8.551 11.2756 9.50181 11.2746 10.4935V21.3559C11.2746 22.3478 11.6693 23.2991 12.3719 24.0005C13.0746 24.7018 14.0276 25.0959 15.0212 25.0959C16.0149 25.0959 16.9679 24.7018 17.6705 24.0005C18.3732 23.2991 18.7679 22.3478 18.7679 21.3559V10.4935C18.7669 9.50181 18.3719 8.551 17.6695 7.84964C16.9671 7.14829 16.0147 6.75365 15.0212 6.7523ZM17.0148 10.4348C17.0148 11.536 16.1205 12.4286 15.0174 12.4286C13.9143 12.4286 13.02 11.536 13.02 10.4348C13.02 9.33369 13.9143 8.44104 15.0174 8.44104C16.1205 8.44104 17.0148 9.33369 17.0148 10.4348Z" fill="#FA8C16"/>
</svg>
