<svg width="158" height="34" viewBox="0 0 158 34" fill="none" xmlns="http://www.w3.org/2000/svg">
<path d="M119.2 7.94413H106.978C106.852 7.94459 106.728 7.91607 106.614 7.86077C106.501 7.80547 106.402 7.72487 106.325 7.62521C106.248 7.52554 106.195 7.40948 106.17 7.28598C106.144 7.16249 106.148 7.03487 106.18 6.91299L107.343 2.43754C107.389 2.26073 107.492 2.10413 107.637 1.99233C107.781 1.88052 107.959 1.81985 108.141 1.81982H120.364C120.49 1.81985 120.614 1.84876 120.728 1.90432C120.841 1.95989 120.94 2.04064 121.017 2.1404C121.094 2.24016 121.148 2.35627 121.173 2.47985C121.199 2.60343 121.196 2.73119 121.164 2.85336L119.998 7.32881C119.952 7.50538 119.849 7.66168 119.705 7.77308C119.56 7.88448 119.383 7.94465 119.2 7.94413Z" fill="url(#paint0_linear)"/>
<path fill-rule="evenodd" clip-rule="evenodd" d="M7.80922 21.8872V19.2433H14.258C14.6013 19.2436 14.9413 19.1762 15.2586 19.0451C15.5758 18.9139 15.8641 18.7215 16.107 18.4789C16.3499 18.2362 16.5425 17.9481 16.674 17.631C16.8054 17.3138 16.8731 16.9739 16.8731 16.6306V16.2556C16.8724 15.5625 16.5967 14.8979 16.1063 14.408C15.6159 13.9181 14.9511 13.6429 14.258 13.6429H2.6151C1.92195 13.6429 1.25716 13.9181 0.7668 14.408C0.276445 14.8979 0.000647027 15.5625 9.94215e-06 16.2556V30.7876C-0.000938658 31.1316 0.0660025 31.4725 0.196998 31.7906C0.327994 32.1087 0.520469 32.3978 0.763397 32.6414C1.00632 32.885 1.29493 33.0783 1.61268 33.2102C1.93043 33.342 2.27107 33.4099 2.6151 33.4099H5.19413C5.53795 33.4109 5.87859 33.344 6.19654 33.2132C6.51449 33.0823 6.80352 32.8901 7.04709 32.6474C7.29065 32.4047 7.48397 32.1164 7.61599 31.7989C7.748 31.4815 7.81611 31.1411 7.81643 30.7972V27.5043H13.1043C13.7978 27.5043 14.463 27.2288 14.9534 26.7384C15.4439 26.248 15.7194 25.5828 15.7194 24.8893V24.5167C15.7213 24.1715 15.6548 23.8293 15.5238 23.5099C15.3928 23.1904 15.1998 22.9001 14.956 22.6557C14.7122 22.4112 14.4224 22.2174 14.1034 22.0855C13.7843 21.9537 13.4423 21.8862 13.0971 21.8872H7.80922ZM24.0765 13.6429H21.4975C20.8043 13.6429 20.1396 13.9181 19.6492 14.408C19.1588 14.8979 18.883 15.5625 18.8824 16.2556V30.7972C18.883 31.4904 19.1588 32.1549 19.6492 32.6448C20.1396 33.1347 20.8043 33.4099 21.4975 33.4099H24.0765C24.4206 33.4099 24.7612 33.342 25.0789 33.2102C25.3967 33.0783 25.6853 32.885 25.9282 32.6414C26.1712 32.3978 26.3636 32.1087 26.4946 31.7906C26.6256 31.4725 26.6926 31.1316 26.6916 30.7876V16.2556C26.691 15.5625 26.4152 14.8979 25.9248 14.408C25.4345 13.9181 24.7697 13.6429 24.0765 13.6429ZM50.2755 16.2556V30.7876C50.2764 31.1316 50.2095 31.4725 50.0785 31.7906C49.9475 32.1087 49.755 32.3978 49.5121 32.6414C49.2692 32.885 48.9806 33.0783 48.6628 33.2102C48.3451 33.342 48.0044 33.4099 47.6604 33.4099H45.0549C44.6796 33.4102 44.3087 33.3296 43.9674 33.1737C43.626 33.0177 43.3223 32.79 43.0768 32.5062L37.3731 25.9084V30.7972C37.3731 31.4902 37.0978 32.1547 36.6079 32.6447C36.1179 33.1347 35.4534 33.4099 34.7604 33.4099H32.3833C32.0402 33.4099 31.7005 33.3423 31.3835 33.211C31.0665 33.0797 30.7785 32.8873 30.5359 32.6447C30.2932 32.4021 30.1008 32.1141 29.9695 31.7971C29.8382 31.4801 29.7706 31.1403 29.7706 30.7972V16.2556C29.7706 15.9125 29.8382 15.5728 29.9695 15.2558C30.1008 14.9388 30.2932 14.6508 30.5359 14.4082C30.7785 14.1656 31.0665 13.9731 31.3835 13.8418C31.7005 13.7105 32.0402 13.6429 32.3833 13.6429H34.984C35.3611 13.6433 35.7338 13.7251 36.0764 13.8827C36.4191 14.0404 36.7236 14.2701 36.9693 14.5563L42.6706 21.2142V16.2556C42.6706 15.5627 42.9459 14.8982 43.4358 14.4082C43.9258 13.9182 44.5903 13.6429 45.2833 13.6429H47.6604C48.3535 13.6429 49.0183 13.9181 49.5087 14.408C49.9991 14.8979 50.2749 15.5625 50.2755 16.2556ZM70.5929 30.7876V30.4127C70.5922 29.7195 70.3165 29.055 69.8261 28.5651C69.3357 28.0752 68.6709 27.8 67.9778 27.8H61.0195V25.9997H66.4515C67.1445 25.9997 67.809 25.7244 68.299 25.2345C68.7889 24.7445 69.0642 24.08 69.0642 23.387C69.0642 22.696 68.7907 22.033 68.3034 21.543C67.8161 21.0529 67.1546 20.7757 66.4635 20.7719H61.0315V19.2433H67.6173C67.9606 19.2436 68.3006 19.1762 68.6178 19.0451C68.9351 18.9139 69.2234 18.7215 69.4663 18.4789C69.7091 18.2362 69.9018 17.9481 70.0332 17.631C70.1647 17.3138 70.2324 16.9739 70.2324 16.6306V16.2556C70.2317 15.5625 69.9559 14.8979 69.4656 14.408C68.9752 13.9181 68.3104 13.6429 67.6173 13.6429H55.972C55.279 13.6429 54.6145 13.9182 54.1245 14.4082C53.6345 14.8982 53.3593 15.5627 53.3593 16.2556V30.7876C53.3567 31.4801 53.6292 32.1453 54.1169 32.637C54.6045 33.1288 55.2674 33.4067 55.9599 33.4099H67.9778C68.3218 33.4099 68.6625 33.342 68.9802 33.2102C69.298 33.0783 69.5866 32.885 69.8295 32.6414C70.0724 32.3978 70.2649 32.1087 70.3959 31.7906C70.5269 31.4725 70.5938 31.1316 70.5929 30.7876Z" fill="url(#paint1_linear)"/>
<path fill-rule="evenodd" clip-rule="evenodd" d="M88.6268 8.63624L89.307 5.70628C89.932 3.00787 91.5039 1.65947 94.0229 1.66107C94.8207 1.62812 95.6102 1.83489 96.2894 2.25475C96.4647 2.3752 96.6796 2.42389 96.8897 2.39081C97.0998 2.35773 97.2893 2.24538 97.4191 2.07689L97.5345 1.92306C97.6037 1.83448 97.6539 1.73257 97.6819 1.62371C97.7099 1.51484 97.7152 1.40137 97.6974 1.29038C97.6796 1.17939 97.639 1.07327 97.5783 0.978654C97.5176 0.884039 97.4381 0.802966 97.3446 0.740502C97.0665 0.566192 96.7678 0.427311 96.4553 0.327088C95.7559 0.104939 95.0258 -0.00538171 94.2921 0.000201789C92.5182 0.000201789 91.0368 0.501747 89.8479 1.50484C88.6256 2.55139 87.7873 3.97578 87.4659 5.55245L85.7951 13.3988C85.3481 13.3423 84.8967 13.3137 84.4435 13.3137C82.6452 13.3137 80.8757 13.764 79.2962 14.6236C77.7814 15.4824 76.5336 16.7435 75.6908 18.2674C74.8026 19.8744 74.3494 21.6856 74.3761 23.5216C74.3468 25.3599 74.7993 27.1738 75.6884 28.783C76.5305 30.3074 77.7784 31.5686 79.2938 32.4268L79.2962 32.434C80.8757 33.2936 82.6452 33.7439 84.4435 33.7439C86.2417 33.7439 88.0112 33.2936 89.5907 32.434C91.1061 31.5759 92.354 30.3146 93.1961 28.7902C94.0852 27.181 94.5377 25.3671 94.5084 23.5288C94.5371 21.6906 94.0847 19.8768 93.1961 18.2674C92.3533 16.7435 91.1055 15.4824 89.5907 14.6236C88.9428 14.271 88.263 13.9873 87.5623 13.7752L88.2831 10.2827H90.9006C91.0868 10.2831 91.2676 10.2203 91.4134 10.1046C91.5593 9.98891 91.6615 9.82712 91.7034 9.64574C91.7317 9.52491 91.7323 9.39925 91.7051 9.27817C91.6779 9.15709 91.6237 9.04374 91.5464 8.94661C91.4692 8.84949 91.371 8.77111 91.2591 8.71735C91.1473 8.6636 91.0247 8.63587 90.9006 8.63624H88.6268ZM85.4336 15.0967L83.6442 23.4999C83.6191 23.6188 83.6205 23.7418 83.6484 23.8602C83.6762 23.9785 83.7298 24.0892 83.8053 24.1844C83.8808 24.2797 83.9764 24.3571 84.0852 24.4112C84.1941 24.4653 84.3135 24.4947 84.435 24.4974H84.6754C84.8655 24.4975 85.0499 24.4321 85.1974 24.3121C85.345 24.1922 85.4467 24.025 85.4854 23.8388L87.2063 15.5002C87.6845 15.6646 88.1488 15.872 88.5932 16.121C89.8104 16.842 90.8077 17.8817 91.4775 19.1279C92.2004 20.4778 92.5653 21.9905 92.5375 23.5216C92.5627 25.054 92.1954 26.5674 91.4703 27.9177C90.7992 29.1629 89.8022 30.2023 88.586 30.9246H88.5692C87.3023 31.6323 85.8754 32.0039 84.4242 32.0039C82.9731 32.0039 81.5461 31.6323 80.2793 30.9246C79.062 30.2036 78.0647 29.1639 77.395 27.9177C76.6808 26.5645 76.3242 25.0513 76.359 23.5216C76.3312 21.9905 76.6962 20.4778 77.419 19.1279C78.0873 17.8806 79.0849 16.8406 80.3033 16.121C81.5696 15.4117 82.9968 15.0393 84.4483 15.0393C84.7785 15.0393 85.1075 15.0585 85.4336 15.0967ZM138.926 5.80478V32.7584C138.927 32.8668 138.906 32.9741 138.864 33.0743C138.823 33.1745 138.762 33.2655 138.686 33.3421C138.609 33.4187 138.518 33.4794 138.418 33.5207C138.318 33.5621 138.21 33.5832 138.102 33.5829H137.862C137.753 33.5832 137.646 33.5621 137.546 33.5207C137.446 33.4794 137.355 33.4187 137.278 33.3421C137.201 33.2655 137.141 33.1745 137.099 33.0743C137.058 32.9741 137.037 32.8668 137.037 32.7584V28.843C136.292 30.352 135.122 31.6108 133.672 32.4652C132.186 33.3256 130.493 33.7651 128.776 33.7367C126.994 33.7618 125.237 33.3095 123.688 32.4267C122.188 31.5703 120.953 30.3159 120.121 28.8022C119.24 27.1812 118.795 25.359 118.83 23.5143C118.8 21.6702 119.245 19.8493 120.121 18.2264C120.946 16.7073 122.182 15.4512 123.688 14.6018C125.241 13.7317 126.996 13.2865 128.776 13.3111C130.475 13.2838 132.149 13.7236 133.615 14.5826C135.041 15.4339 136.205 16.6613 136.98 18.1303V5.80478C136.98 5.58549 137.067 5.37518 137.222 5.22012C137.377 5.06506 137.587 4.97795 137.806 4.97795H138.083C138.193 4.97538 138.302 4.99488 138.405 5.03532C138.507 5.07575 138.6 5.13628 138.679 5.21335C138.758 5.29042 138.82 5.38246 138.863 5.48403C138.905 5.58561 138.927 5.69467 138.926 5.80478ZM133.045 30.9245C134.262 30.2036 135.259 29.1639 135.929 27.9176C136.657 26.568 137.027 25.0546 137.004 23.5215C137.031 21.9904 136.666 20.4778 135.944 19.1278C135.275 17.8805 134.278 16.8405 133.059 16.1209C131.793 15.4116 130.367 15.0392 128.916 15.0392C127.464 15.0392 126.038 15.4116 124.772 16.1209C123.553 16.8405 122.556 17.8805 121.887 19.1278C121.165 20.4778 120.8 21.9904 120.828 23.5215C120.792 25.051 121.148 26.5642 121.861 27.9176C122.531 29.1639 123.528 30.2036 124.745 30.9245C126.012 31.6322 127.438 32.0038 128.889 32.0038C130.34 32.0038 131.766 31.6322 133.033 30.9245H133.045ZM97.8686 28.783C98.7102 30.3077 99.9583 31.5691 101.474 32.4268C103.053 33.2864 104.822 33.7367 106.62 33.7367C108.418 33.7367 110.187 33.2864 111.766 32.4268C113.281 31.5678 114.528 30.3067 115.371 28.783C116.257 27.1753 116.709 25.3643 116.681 23.5288C116.709 21.691 116.258 19.8776 115.371 18.2674C114.528 16.7442 113.28 15.4833 111.766 14.6236C110.187 13.764 108.418 13.3137 106.62 13.3137C104.822 13.3137 103.053 13.764 101.474 14.6236C99.9588 15.482 98.7109 16.7432 97.8686 18.2674C96.982 19.8749 96.5305 21.686 96.5586 23.5216C96.5285 25.3597 96.9802 27.1736 97.8686 28.783ZM113.648 27.9177C112.978 29.164 111.981 30.2037 110.764 30.9246C109.497 31.6323 108.071 32.0039 106.62 32.0039C105.169 32.0039 103.743 31.6323 102.476 30.9246C101.259 30.2037 100.262 29.164 99.592 27.9177C98.8683 26.5672 98.5033 25.0535 98.532 23.5216C98.503 21.9904 98.868 20.4774 99.592 19.1279C100.26 17.8806 101.258 16.8406 102.476 16.121C103.742 15.4117 105.169 15.0392 106.62 15.0392C108.071 15.0392 109.498 15.4117 110.764 16.121C111.982 16.8406 112.98 17.8806 113.648 19.1279C114.371 20.4778 114.736 21.9905 114.708 23.5216C114.735 25.0534 114.371 26.5668 113.648 27.9177ZM142.616 31.6577C143.48 32.2392 144.423 32.6933 145.416 33.0061C146.913 33.4993 148.481 33.7461 150.057 33.7368C152.578 33.7368 154.531 33.236 155.917 32.2345C156.573 31.7946 157.107 31.1968 157.471 30.4962C157.835 29.7955 158.016 29.0146 157.999 28.2254C157.999 26.9643 157.665 25.9748 156.997 25.257C156.327 24.5367 155.485 23.999 154.55 23.6946C153.303 23.3105 152.032 23.0117 150.745 22.8005C149.332 22.5185 148.233 22.2557 147.45 22.0121C146.711 21.7938 146.031 21.4108 145.462 20.8921C144.923 20.3937 144.654 19.6935 144.654 18.7914C144.644 18.2527 144.77 17.7201 145.019 17.2423C145.268 16.7645 145.632 16.3567 146.08 16.0561C147.031 15.3607 148.445 15.0129 150.319 15.0129C151.416 15.0125 152.507 15.1687 153.559 15.4768C154.282 15.6847 154.978 15.9776 155.631 16.3493C155.835 16.4633 156.075 16.4923 156.3 16.4303C156.525 16.3682 156.717 16.2199 156.833 16.0176C156.892 15.9161 156.93 15.8039 156.945 15.6876C156.961 15.5713 156.953 15.453 156.922 15.3398C156.892 15.2265 156.839 15.1204 156.767 15.0276C156.695 14.9348 156.606 14.8571 156.504 14.799C155.765 14.3957 154.982 14.0795 154.17 13.8568C152.929 13.5008 151.644 13.3196 150.353 13.3184C147.913 13.3184 146.031 13.8384 144.707 14.8783C143.384 15.9183 142.722 17.2354 142.722 18.8298C142.722 20.1406 143.069 21.1685 143.762 21.9136C144.448 22.655 145.31 23.212 146.267 23.5336C147.524 23.9372 148.81 24.2465 150.113 24.459C151.476 24.717 152.544 24.9613 153.314 25.1921C154.037 25.3971 154.702 25.7664 155.259 26.2713C155.527 26.5291 155.736 26.8416 155.872 27.1875C156.009 27.5333 156.069 27.9045 156.05 28.2759C156.068 28.8235 155.944 29.3665 155.692 29.8527C155.439 30.3389 155.066 30.7519 154.607 31.052C153.643 31.7202 152.145 32.0543 150.115 32.0543C148.73 32.0594 147.354 31.8244 146.048 31.3596C145.204 31.0679 144.397 30.6774 143.645 30.1963C143.543 30.1286 143.429 30.0825 143.309 30.0607C143.188 30.0389 143.065 30.042 142.946 30.0697C142.827 30.0974 142.715 30.1491 142.617 30.2218C142.519 30.2944 142.437 30.3863 142.376 30.4919C142.263 30.6813 142.226 30.9057 142.27 31.1213C142.315 31.3369 142.438 31.5281 142.616 31.6577ZM118.64 10.285H94.3281C94.204 10.2854 94.0815 10.2576 93.9696 10.2039C93.8578 10.1501 93.7596 10.0717 93.6823 9.97462C93.6051 9.87749 93.5508 9.76414 93.5236 9.64306C93.4965 9.52198 93.497 9.39631 93.5253 9.27549C93.5672 9.09387 93.6693 8.93178 93.8151 8.81567C93.9609 8.69956 94.1418 8.63627 94.3281 8.63614H118.64C118.764 8.63587 118.887 8.66364 118.999 8.71737C119.111 8.77111 119.209 8.84943 119.287 8.94649C119.364 9.04354 119.419 9.15683 119.446 9.27789C119.474 9.39895 119.473 9.52466 119.445 9.64564C119.404 9.82767 119.301 9.99006 119.155 10.1062C119.008 10.2224 118.827 10.2854 118.64 10.285Z" fill="url(#paint2_linear)"/>
<defs>
<linearGradient id="paint0_linear" x1="113.672" y1="1.81982" x2="113.672" y2="7.94413" gradientUnits="userSpaceOnUse">
<stop stop-color="#FFA940"/>
<stop offset="1" stop-color="#D4380D"/>
</linearGradient>
<linearGradient id="paint1_linear" x1="35.2965" y1="13.6429" x2="35.2965" y2="33.4099" gradientUnits="userSpaceOnUse">
<stop stop-color="#FFA940"/>
<stop offset="1" stop-color="#D4380D"/>
</linearGradient>
<linearGradient id="paint2_linear" x1="116.187" y1="0" x2="116.187" y2="33.7439" gradientUnits="userSpaceOnUse">
<stop stop-color="#FFA940"/>
<stop offset="1" stop-color="#D4380D"/>
</linearGradient>
</defs>
</svg>
