<svg width="158" height="26" viewBox="0 0 158 26" fill="none" xmlns="http://www.w3.org/2000/svg">
<path fill-rule="evenodd" clip-rule="evenodd" d="M7.74144 7.53097H5.47041C5.42329 7.53098 5.37665 7.52163 5.33318 7.50348C5.28971 7.48533 5.2503 7.45873 5.21722 7.42524C5.18414 7.39175 5.15806 7.35202 5.1405 7.30838C5.12294 7.26474 5.11425 7.21805 5.11492 7.17102V6.75235C5.11492 5.00534 5.91328 4.13184 7.50999 4.13184C8.03754 4.12604 8.5604 4.23129 9.04446 4.44074C9.12112 4.47557 9.20416 4.49421 9.28837 4.49549C9.37258 4.49677 9.45615 4.48067 9.53384 4.44819C9.61152 4.41571 9.68164 4.36755 9.7398 4.30675C9.79796 4.24594 9.8429 4.17379 9.8718 4.09482L10.8309 1.46538C10.8833 1.32169 10.8803 1.16364 10.8224 1.02205C10.7645 0.880453 10.6558 0.765471 10.5176 0.699522C10.1089 0.50507 9.68011 0.356107 9.23883 0.255325C8.5054 0.0835764 7.75439 -0.00209904 7.00105 3.90469e-05C4.77862 -0.000811906 3.05617 0.60379 1.8337 1.81384C0.611233 3.0239 0 4.65901 0 6.71916V22.5762C0 23.2712 0.276586 23.9378 0.768913 24.4292C1.26124 24.9207 1.92898 25.1967 2.62523 25.1967C3.32149 25.1967 3.98923 24.9207 4.48156 24.4292C4.97388 23.9378 5.25047 23.2712 5.25047 22.5762V11.9104C5.25047 11.8166 5.28779 11.7267 5.35421 11.6604C5.42064 11.5941 5.51074 11.5568 5.60468 11.5568H7.74144C8.00659 11.5568 8.26915 11.5047 8.51412 11.4034C8.75909 11.3021 8.98168 11.1537 9.16917 10.9665C9.35666 10.7794 9.50539 10.5572 9.60686 10.3126C9.70833 10.0681 9.76055 9.80602 9.76055 9.54135C9.7592 9.00769 9.54587 8.49636 9.16736 8.11949C8.78885 7.74261 8.27606 7.53097 7.74144 7.53097ZM39.4885 15.4527C39.4877 12.7433 38.6799 10.6159 37.0653 9.0706C35.4499 7.52527 33.2061 6.7526 30.3341 6.7526C27.4706 6.75345 25.229 7.52654 23.6092 9.07187C21.9895 10.6172 21.1797 12.7446 21.1797 15.454V22.5765C21.1797 23.2715 21.4562 23.938 21.9486 24.4295C22.4409 24.9209 23.1086 25.197 23.8049 25.197C24.5011 25.197 25.1689 24.9209 25.6612 24.4295C26.1535 23.938 26.4301 23.2715 26.4301 22.5765V15.6225C26.4293 14.1265 26.7545 12.9956 27.4058 12.2298C28.0571 11.4639 29.0106 11.081 30.2663 11.081C31.545 11.0861 32.5156 11.469 33.178 12.2298C33.8404 12.9905 34.1716 14.1214 34.1716 15.6225V22.5752C34.1716 23.27 34.448 23.9363 34.94 24.4277C35.4321 24.9191 36.0995 25.1954 36.7955 25.1957H36.8633C37.208 25.1957 37.5494 25.1279 37.8679 24.9963C38.1864 24.8646 38.4758 24.6715 38.7196 24.4282C38.9634 24.1849 39.1568 23.896 39.2887 23.578C39.4206 23.2601 39.4885 22.9193 39.4885 22.5752V15.4527ZM58.9635 17.2678H46.9844C46.9411 17.2679 46.8985 17.278 46.8598 17.2973C46.8212 17.3167 46.7876 17.3447 46.7616 17.3793C46.7357 17.4138 46.7182 17.4539 46.7105 17.4964C46.7027 17.5388 46.705 17.5825 46.7171 17.624C46.9887 18.5585 47.5761 19.3703 48.3795 19.9215C49.3002 20.5708 50.4446 20.8954 51.8129 20.8954C52.6675 20.9103 53.5175 20.768 54.3205 20.4755C54.5657 20.3815 54.8038 20.2698 55.0327 20.1411C55.8422 19.6892 57.0058 19.8513 57.6349 20.5317L57.6631 20.5623C57.8766 20.7945 58.035 21.0717 58.1267 21.3734C58.2183 21.675 58.2407 21.9934 58.1924 22.3049C58.144 22.6164 58.026 22.913 57.8471 23.1728C57.6683 23.4326 57.4332 23.6489 57.1592 23.8057C55.6759 24.666 53.8461 25.0962 51.6697 25.0962C49.6237 25.0962 47.8173 24.6988 46.2504 23.904C44.7471 23.17 43.4859 22.0214 42.6162 20.5942C41.7637 19.1833 41.3375 17.5818 41.3375 15.7897C41.314 14.1093 41.7504 12.4543 42.5996 11.0031C43.4255 9.59583 44.6259 8.44446 46.0675 7.67674C47.5372 6.8811 49.1804 6.48371 50.997 6.48456C52.7694 6.48456 54.3737 6.86493 55.8102 7.62569C57.2292 8.37126 58.4034 9.50872 59.1924 10.9023C60.0117 12.3242 60.4213 13.9759 60.4213 15.8574V15.8752C60.4054 16.2503 60.2448 16.6048 59.9731 16.8643C59.7014 17.1239 59.3396 17.2685 58.9635 17.2678ZM48.0381 11.4563C47.3249 12.0554 46.8329 12.8753 46.6404 13.7857C46.6287 13.8371 46.6287 13.8905 46.6405 13.9418C46.6523 13.9932 46.6755 14.0413 46.7084 14.0825C46.7413 14.1237 46.7831 14.1569 46.8306 14.1798C46.8782 14.2027 46.9303 14.2146 46.9831 14.2146H55.0493C55.1022 14.2147 55.1545 14.2028 55.2021 14.1798C55.2497 14.1569 55.2915 14.1234 55.3244 14.0821C55.3573 14.0407 55.3803 13.9924 55.3918 13.9409C55.4033 13.8893 55.4029 13.8358 55.3908 13.7845C55.1899 12.8841 54.7001 12.0738 53.9957 11.4767C53.1875 10.7959 52.2003 10.4555 51.0341 10.4555C49.844 10.4504 48.8454 10.784 48.0381 11.4563ZM16.0232 8.07168C15.7043 7.94021 15.3625 7.8728 15.0174 7.87331H15.0212C14.325 7.87331 13.6572 8.14939 13.1649 8.64084C12.6726 9.13228 12.396 9.79881 12.396 10.4938V21.3562C12.396 22.0512 12.6726 22.7178 13.1649 23.2092C13.6572 23.7007 14.325 23.9767 15.0212 23.9767C15.7175 23.9767 16.3852 23.7007 16.8776 23.2092C17.3699 22.7178 17.6465 22.0512 17.6465 21.3562V10.4938C17.6465 10.1494 17.5784 9.80829 17.4463 9.4901C17.3141 9.17192 17.1204 8.88287 16.8762 8.63948C16.632 8.39609 16.3422 8.20315 16.0232 8.07168ZM12.373 7.84995C13.0754 7.14859 14.0278 6.75395 15.0212 6.7526C16.0147 6.75395 16.9671 7.14859 17.6695 7.84995C18.3719 8.55131 18.7669 9.50212 18.7679 10.4938V21.3562C18.7679 22.3481 18.3732 23.2994 17.6705 24.0008C16.9679 24.7021 16.0149 25.0962 15.0212 25.0962C14.0276 25.0962 13.0746 24.7021 12.3719 24.0008C11.6693 23.2994 11.2746 22.3481 11.2746 21.3562V10.4938C11.2756 9.50212 11.6706 8.55131 12.373 7.84995Z" fill="#FA8C16"/>
<path fill-rule="evenodd" clip-rule="evenodd" d="M82.9896 24.3149C81.4732 23.5437 80.2006 22.368 79.3132 20.9184C78.4258 19.4717 77.9825 17.8362 77.9833 16.0118C77.9842 14.1873 78.4258 12.5518 79.3081 11.1052C80.1967 9.65439 81.4711 8.47815 82.9896 7.70732C84.5547 6.89126 86.3194 6.48365 88.2835 6.4845C90.2476 6.48535 92.0123 6.89296 93.5774 7.70732C95.0924 8.47983 96.3635 9.65588 97.25 11.1052C98.1366 12.5518 98.5798 14.1873 98.5798 16.0118C98.5798 17.8362 98.1366 19.4717 97.25 20.9184C96.3622 22.3681 95.0892 23.5439 93.5723 24.3149C92.0072 25.1301 90.2425 25.5382 88.2784 25.539C86.3143 25.5399 84.5513 25.1318 82.9896 24.3149ZM90.3563 20.007C90.9825 19.622 91.4908 19.0727 91.8256 18.4191C92.2043 17.6741 92.3923 16.847 92.3729 16.0118C92.3922 15.1761 92.2042 14.3487 91.8256 13.6031C91.489 12.9491 90.979 12.3999 90.3512 12.0153C89.722 11.6492 89.0067 11.4563 88.2784 11.4563C87.5501 11.4563 86.8348 11.6492 86.2056 12.0153C85.5779 12.3996 85.0682 12.949 84.7325 13.6031C84.3529 14.3484 84.1644 15.176 84.1839 16.0118C84.1642 16.8472 84.3527 17.6744 84.7325 18.4191C85.0679 19.0736 85.5776 19.623 86.2056 20.007C86.8345 20.374 87.5499 20.5674 88.2784 20.5674C89.0069 20.5674 89.7223 20.374 90.3512 20.007H90.3563ZM68.9389 14.1176V12.0753C68.9389 11.9317 68.996 11.7941 69.0977 11.6926C69.1994 11.5911 69.3373 11.5341 69.4811 11.5341H75.298C75.6029 11.5342 75.9048 11.4744 76.1864 11.3581C76.4681 11.2417 76.724 11.071 76.9395 10.8559C77.1551 10.6407 77.326 10.3853 77.4426 10.1041C77.5592 9.82296 77.6191 9.52163 77.6189 9.21734C77.6189 8.6038 77.3751 8.0153 76.941 7.58098C76.5068 7.14666 75.9178 6.90198 75.3032 6.90063H65.1066C64.4911 6.90096 63.901 7.14515 63.4658 7.57955C63.0306 8.01395 62.786 8.60302 62.7857 9.21734V22.8062C62.786 23.4203 63.0305 24.0092 63.4654 24.4436C63.9003 24.8779 64.4901 25.1223 65.1053 25.1229H66.6219C67.2363 25.1219 67.8252 24.8777 68.2596 24.4439C68.694 24.0101 68.9382 23.4221 68.9389 22.8088V19.8347C68.9389 19.6911 68.996 19.5535 69.0977 19.452C69.1994 19.3505 69.3373 19.2935 69.4811 19.2935H74.2329C74.5377 19.2936 74.8396 19.2338 75.1212 19.1175C75.4029 19.0011 75.6588 18.8305 75.8744 18.6153C76.0899 18.4001 76.2609 18.1447 76.3774 17.8635C76.494 17.5824 76.5539 17.281 76.5538 16.9768C76.5541 16.6723 76.4943 16.3708 76.3778 16.0894C76.2613 15.808 76.0904 15.5523 75.8749 15.3369C75.6593 15.1215 75.4034 14.9507 75.1216 14.8341C74.8399 14.7175 74.5379 14.6575 74.2329 14.6575H69.4811C69.41 14.6577 69.3395 14.6438 69.2737 14.6168C69.2079 14.5897 69.1482 14.5499 69.0978 14.4998C69.0474 14.4496 69.0075 14.3901 68.9802 14.3245C68.9529 14.2589 68.9389 14.1886 68.9389 14.1176ZM17.0148 10.435C17.0148 11.5362 16.1205 12.4288 15.0174 12.4288C13.9143 12.4288 13.02 11.5362 13.02 10.435C13.02 9.33391 13.9143 8.44127 15.0174 8.44127C16.1205 8.44127 17.0148 9.33391 17.0148 10.435ZM100.751 20.9184C101.639 22.3682 102.912 23.5439 104.429 24.315C105.994 25.1319 107.759 25.5399 109.723 25.5391C111.687 25.5382 113.451 25.1302 115.017 24.315C116.533 23.5437 117.806 22.368 118.693 20.9184C119.58 19.4718 120.024 17.8362 120.023 16.0118C120.022 14.1873 119.579 12.5518 118.693 11.1052C117.806 9.65511 116.533 8.47894 115.017 7.70734C113.453 6.89213 111.689 6.48452 109.723 6.48452C107.757 6.48452 105.992 6.89213 104.429 7.70734C102.912 8.47908 101.639 9.6552 100.751 11.1052C99.8637 12.5518 99.4204 14.1873 99.4213 16.0118C99.4221 17.8362 99.8654 19.4718 100.751 20.9184ZM113.269 18.4191C112.933 19.0733 112.423 19.6227 111.796 20.007H111.79C111.161 20.374 110.446 20.5674 109.717 20.5674C108.988 20.5674 108.273 20.374 107.644 20.007C107.016 19.6223 106.507 19.0731 106.17 18.4191C105.792 17.6741 105.604 16.847 105.623 16.0118C105.605 15.1757 105.795 14.3483 106.176 13.6032C106.512 12.9495 107.022 12.4003 107.649 12.0153C108.278 11.6491 108.994 11.4561 109.722 11.4561C110.451 11.4561 111.166 11.6491 111.796 12.0153C112.423 12.4 112.932 12.9492 113.269 13.6032C113.648 14.3485 113.836 15.1761 113.816 16.0118C113.836 16.8471 113.648 17.6743 113.269 18.4191ZM121.767 9.21734C121.767 8.60302 122.012 8.01395 122.447 7.57955C122.882 7.14515 123.473 6.90096 124.088 6.90063H130.764C132.798 6.90063 134.593 7.26951 136.149 8.00729C137.639 8.68788 138.899 9.78694 139.774 11.1703C140.635 12.5412 141.066 14.155 141.066 16.0118C141.066 17.8686 140.635 19.4824 139.774 20.8533C138.899 22.2366 137.639 23.3357 136.149 24.0163C134.592 24.754 132.797 25.1229 130.764 25.1229H124.088C123.473 25.1226 122.882 24.8784 122.447 24.444C122.012 24.0096 121.767 23.4205 121.767 22.8062V9.21734ZM130.503 20.3325C131.825 20.3325 132.881 19.9551 133.672 19.2003C134.463 18.4455 134.859 17.3818 134.859 16.0092C134.859 14.6383 134.463 13.5746 133.672 12.8182C132.881 12.0617 131.825 11.6843 130.503 11.686H128.457C128.386 11.6858 128.316 11.6996 128.25 11.7267C128.184 11.7538 128.125 11.7935 128.074 11.8436C128.024 11.8938 127.984 11.9534 127.957 12.019C127.929 12.0846 127.915 12.1549 127.915 12.2259V19.7875C127.915 19.8585 127.929 19.9288 127.957 19.9944C127.984 20.06 128.024 20.1195 128.074 20.1697C128.125 20.2198 128.184 20.2596 128.25 20.2866C128.316 20.3137 128.386 20.3276 128.457 20.3274L130.503 20.3325ZM143.878 24.7017C144.252 24.8217 144.652 24.9315 145.078 25.031C146.527 25.3746 148.01 25.5485 149.499 25.5492C151.324 25.5475 152.876 25.274 154.153 24.7285C155.431 24.183 156.392 23.4457 157.034 22.5164C157.673 21.6051 158.01 20.5177 158 19.4058C158.001 18.0894 157.649 17.0482 156.944 16.2824C156.264 15.5322 155.408 14.962 154.453 14.623C153.304 14.2362 152.127 13.9375 150.932 13.7295C149.854 13.5266 149.081 13.3249 148.611 13.1436C148.142 12.9624 147.908 12.6879 147.908 12.3242C147.907 11.5583 148.698 11.1754 150.28 11.1754C151.332 11.1847 152.377 11.3609 153.373 11.6974C153.93 11.8826 154.537 11.8508 155.072 11.6084C155.606 11.3661 156.029 10.931 156.256 10.3904L156.33 10.2117C156.455 9.90897 156.515 9.58322 156.505 9.25583C156.495 8.92844 156.416 8.60683 156.273 8.31216C156.13 8.01749 155.926 7.75642 155.674 7.54614C155.422 7.33585 155.129 7.18111 154.813 7.09208C154.558 7.0189 154.294 6.95252 154.023 6.89296C152.811 6.62157 151.572 6.48458 150.33 6.4845C148.506 6.48365 146.954 6.75255 145.676 7.2912C144.397 7.82986 143.436 8.56721 142.793 9.50326C142.157 10.4205 141.82 11.512 141.829 12.628C141.829 13.9469 142.177 14.9923 142.873 15.7641C143.537 16.5159 144.38 17.0887 145.324 17.4299C146.474 17.8264 147.65 18.1441 148.844 18.3808C149.938 18.6063 150.724 18.8144 151.202 19.005C151.68 19.1956 151.92 19.482 151.92 19.864C151.92 20.1946 151.737 20.441 151.372 20.6056C151.007 20.7707 150.399 20.8533 149.546 20.8533C148.496 20.8447 147.452 20.6914 146.444 20.3976C146.12 20.307 145.806 20.2061 145.502 20.0976C144.948 19.8947 144.338 19.9092 143.795 20.138C143.251 20.3669 142.815 20.7932 142.575 21.3306L142.471 21.563C142.339 21.8593 142.271 22.1801 142.272 22.5044C142.272 22.8287 142.341 23.1492 142.473 23.4453C142.606 23.7413 142.8 24.0061 143.042 24.2226C143.284 24.4391 143.568 24.6023 143.878 24.7017Z" fill="#FA541C"/>
</svg>
