<svg width="38" height="37" viewBox="0 0 38 37" fill="none" xmlns="http://www.w3.org/2000/svg">
<path fill-rule="evenodd" clip-rule="evenodd" d="M4.23988 12.7582L4.63989 8.99823L2.08988 6.21823C1.9682 6.08582 1.88448 5.92306 1.84752 5.74707C1.81056 5.57109 1.82174 5.38839 1.87988 5.21823C1.93458 5.05026 2.0328 4.89977 2.16454 4.78209C2.29628 4.6644 2.45683 4.58371 2.62988 4.54823L6.31989 3.76823L8.20988 0.49823C8.29779 0.346691 8.42397 0.220904 8.57578 0.133465C8.72758 0.0460254 8.89969 0 9.07488 0C9.25007 0 9.42219 0.0460254 9.574 0.133465C9.72581 0.220904 9.85198 0.346691 9.93989 0.49823L11.8199 3.76823L15.5399 4.53823C15.7117 4.57517 15.8707 4.65671 16.0009 4.77465C16.1311 4.8926 16.228 5.04277 16.2817 5.21006C16.3355 5.37734 16.3442 5.55583 16.307 5.72755C16.2698 5.89927 16.188 6.05817 16.0699 6.18823L13.5399 8.98823L13.9399 12.7382C13.9591 12.9141 13.9312 13.092 13.8592 13.2536C13.7871 13.4152 13.6735 13.5549 13.5299 13.6582C13.3869 13.7617 13.219 13.8254 13.0434 13.843C12.8677 13.8605 12.6906 13.8313 12.5299 13.7582L9.07989 12.2182L5.63989 13.7582C5.48106 13.8283 5.30673 13.8558 5.13405 13.8381C4.96137 13.8203 4.79628 13.7579 4.65502 13.657C4.51376 13.5561 4.4012 13.4202 4.32842 13.2626C4.25563 13.105 4.22512 12.9312 4.23988 12.7582ZM7.56664 5.47046C7.4511 5.55323 7.31926 5.61042 7.17989 5.63823L4.74989 6.14823L6.41988 7.98823C6.51425 8.09323 6.58532 8.21702 6.62841 8.35146C6.6715 8.4859 6.68563 8.62794 6.66988 8.76823L6.40988 11.2382L8.66988 10.2382C8.9328 10.1315 9.22697 10.1315 9.48988 10.2382L11.7599 11.2382L11.4899 8.76823C11.4755 8.62722 11.4912 8.48474 11.536 8.35027C11.5808 8.21579 11.6537 8.09239 11.7499 7.98823L13.4099 6.14823L10.9799 5.63823C10.8423 5.60912 10.7124 5.55133 10.5987 5.46862C10.485 5.38591 10.39 5.28015 10.3199 5.15823L9.07989 3.00823L7.84988 5.15823C7.77873 5.28125 7.68217 5.38769 7.56664 5.47046ZM20.6239 27.4015C20.7544 27.7141 20.8211 28.0496 20.82 28.3883C20.8133 29.0757 20.5368 29.733 20.05 30.2183C20.146 30.495 20.1966 30.7854 20.2 31.0783C20.1994 31.575 20.0643 32.0623 19.809 32.4884C19.5537 32.9145 19.1877 33.2635 18.75 33.4983C18.7603 33.6448 18.7603 33.7918 18.75 33.9383C18.754 34.3242 18.681 34.707 18.5351 35.0643C18.3893 35.4216 18.1736 35.7462 17.9008 36.0191C17.6279 36.292 17.3033 36.5076 16.946 36.6535C16.5887 36.7993 16.2059 36.8723 15.82 36.8683H6.74C6.01454 36.8811 5.30732 36.6406 4.74 36.1883C4.17476 36.6444 3.46611 36.8854 2.74 36.8683H1C0.734784 36.8683 0.480429 36.763 0.292892 36.5754C0.105356 36.3879 0 36.1335 0 35.8683C0 35.6031 0.105356 35.3488 0.292892 35.1612C0.480429 34.9737 0.734784 34.8683 1 34.8683H2.72C2.85679 34.8932 2.99758 34.8845 3.13029 34.8431C3.263 34.8016 3.38367 34.7286 3.48199 34.6303C3.5803 34.532 3.65331 34.4113 3.69476 34.2786C3.73622 34.1459 3.74488 34.0051 3.72 33.8683V24.9383H1C0.734784 24.9383 0.480429 24.833 0.292892 24.6454C0.105356 24.4579 0 24.2035 0 23.9383C0 23.6731 0.105356 23.4188 0.292892 23.2312C0.480429 23.0437 0.734784 22.9383 1 22.9383H4.72C5.2005 22.9774 5.68377 22.9118 6.13641 22.7458C6.58904 22.5799 7.00026 22.3177 7.34162 21.9773C7.68299 21.6368 7.94637 21.2264 8.11356 20.7742C8.28076 20.322 8.34778 19.8389 8.31 19.3583V16.7783C8.31 16.5131 8.41535 16.2588 8.60289 16.0712C8.79043 15.8837 9.04478 15.7783 9.31 15.7783C10.4116 15.781 11.4671 16.2204 12.2451 17.0003C13.0231 17.7802 13.46 18.8368 13.46 19.9383V22.9383H17.2C17.5865 22.9357 17.9696 23.0095 18.3274 23.1556C18.6852 23.3017 19.0106 23.5171 19.2848 23.7894C19.559 24.0617 19.7766 24.3856 19.9251 24.7424C20.0736 25.0992 20.15 25.4819 20.15 25.8683C20.1496 26.1045 20.1194 26.3397 20.06 26.5683C20.3016 26.8057 20.4933 27.089 20.6239 27.4015ZM5.72 24.8683V33.8683C5.72 34.1383 5.72 34.8583 6.71 34.8083H15.87C16.106 34.8083 16.3324 34.7146 16.4993 34.5476C16.6662 34.3807 16.76 34.1544 16.76 33.9183C16.7647 33.8885 16.7647 33.8581 16.76 33.8283H14.76C14.4948 33.8283 14.2404 33.723 14.0529 33.5354C13.8654 33.3479 13.76 33.0935 13.76 32.8283C13.76 32.5631 13.8654 32.3088 14.0529 32.1212C14.2404 31.9337 14.4948 31.8283 14.76 31.8283H17.34C17.5434 31.8257 17.7378 31.7438 17.8816 31.5999C18.0255 31.4561 18.1074 31.2617 18.11 31.0583C18.1214 30.9888 18.1214 30.9179 18.11 30.8483H14.76C14.4948 30.8483 14.2404 30.743 14.0529 30.5554C13.8654 30.3679 13.76 30.1135 13.76 29.8483C13.76 29.5831 13.8654 29.3288 14.0529 29.1412C14.2404 28.9537 14.4948 28.8483 14.76 28.8483H18.51C18.5967 28.7939 18.6685 28.7188 18.7191 28.6298C18.7697 28.5408 18.7975 28.4407 18.8 28.3383C18.7956 28.243 18.7677 28.1502 18.7189 28.0682C18.6701 27.9863 18.6017 27.9176 18.52 27.8683H14.76C14.4948 27.8683 14.2404 27.763 14.0529 27.5754C13.8654 27.3879 13.76 27.1335 13.76 26.8683C13.76 26.6031 13.8654 26.3488 14.0529 26.1612C14.2404 25.9737 14.4948 25.8683 14.76 25.8683H18.13C18.13 25.6217 18.032 25.3851 17.8576 25.2107C17.6832 25.0363 17.4466 24.9383 17.2 24.9383H12.46C12.1948 24.9383 11.9404 24.833 11.7529 24.6454C11.5654 24.4579 11.46 24.2035 11.46 23.9383V19.9383C11.4612 19.5452 11.3547 19.1594 11.1519 18.8226C10.9492 18.4859 10.658 18.2111 10.31 18.0283V19.3683C10.3909 20.6976 9.96064 22.0075 9.10736 23.0299C8.25408 24.0524 7.04229 24.7101 5.72 24.8683ZM25.6804 17.7184L29.4504 17.5284C29.6272 17.5216 29.799 17.4681 29.9484 17.3732C30.0977 17.2783 30.2192 17.1456 30.3004 16.9884C30.3792 16.8312 30.4152 16.6559 30.4047 16.4804C30.3941 16.3048 30.3375 16.1351 30.2404 15.9884L28.1804 12.8184L29.1804 9.1784C29.2322 9.00384 29.2354 8.81845 29.1896 8.64222C29.1438 8.466 29.0507 8.30562 28.9204 8.1784C28.7932 8.04813 28.6328 7.95506 28.4566 7.90925C28.2804 7.86343 28.095 7.8666 27.9204 7.91841L24.2704 8.91841L21.1104 6.84841C20.9628 6.75292 20.7927 6.69801 20.6171 6.68924C20.4416 6.68046 20.2668 6.71811 20.1104 6.79841C19.9547 6.87882 19.8228 6.99875 19.7281 7.14618C19.6333 7.2936 19.5789 7.46335 19.5704 7.6384L19.3704 11.4084L16.4404 13.7784C16.3027 13.8893 16.1968 14.0347 16.1335 14.1998C16.0703 14.3649 16.052 14.5439 16.0804 14.7184C16.1075 14.8924 16.18 15.0561 16.2906 15.1931C16.4012 15.33 16.546 15.4354 16.7104 15.4984L20.2404 16.8384L21.5804 20.3684C21.6435 20.5328 21.7488 20.6776 21.8858 20.7882C22.0227 20.8988 22.1865 20.9713 22.3604 20.9984H22.5204C22.6681 20.9974 22.8138 20.9637 22.9469 20.8998C23.0801 20.8358 23.1974 20.7431 23.2904 20.6284L25.6804 17.7184ZM21.9604 15.7184C21.9113 15.5872 21.8352 15.4678 21.737 15.3678C21.6388 15.2679 21.5208 15.1898 21.3904 15.1384L19.0704 14.2584L21.0004 12.6984C21.1101 12.6097 21.1998 12.4988 21.2635 12.373C21.3273 12.2472 21.3637 12.1093 21.3704 11.9684L21.4904 9.48841L23.5704 10.8484C23.6893 10.9244 23.823 10.9744 23.9626 10.9951C24.1022 11.0158 24.2446 11.0067 24.3804 10.9684L26.7804 10.3284L26.1304 12.7184C26.0936 12.8549 26.0861 12.9977 26.1085 13.1373C26.1309 13.277 26.1827 13.4103 26.2604 13.5284L27.6204 15.6084L25.1404 15.7284C24.9987 15.7363 24.8604 15.7743 24.7345 15.8398C24.6086 15.9053 24.4982 15.9969 24.4104 16.1084L22.8204 18.0484L21.9604 15.7184ZM33.3402 25.2782L36.6102 27.1582V27.1982C36.7641 27.2854 36.8922 27.4119 36.9812 27.5647C37.0703 27.7176 37.1172 27.8913 37.1172 28.0682C37.1172 28.2451 37.0703 28.4188 36.9812 28.5717C36.8922 28.7245 36.7641 28.851 36.6102 28.9382L33.3402 30.8282L32.5602 34.5282C32.5232 34.6994 32.4418 34.8579 32.3242 34.9878C32.2066 35.1177 32.057 35.2144 31.8902 35.2682C31.7908 35.2833 31.6897 35.2833 31.5902 35.2682C31.339 35.2701 31.0962 35.1772 30.9102 35.0082L28.1102 32.4782L24.3602 32.8782C24.1873 32.893 24.0135 32.8625 23.8559 32.7897C23.6983 32.7169 23.5623 32.6043 23.4614 32.4631C23.3605 32.3218 23.2981 32.1567 23.2804 31.984C23.2627 31.8113 23.2902 31.637 23.3602 31.4782L24.9002 28.0282L23.3602 24.5882C23.2878 24.4289 23.2584 24.2535 23.275 24.0793C23.2916 23.9051 23.3536 23.7384 23.4548 23.5957C23.556 23.453 23.6929 23.3393 23.8518 23.266C24.0107 23.1928 24.186 23.1625 24.3602 23.1782L28.1102 23.5782L30.9102 21.0482C31.041 20.93 31.2006 20.8485 31.373 20.8119C31.5454 20.7752 31.7244 20.7848 31.8919 20.8396C32.0593 20.8945 32.2094 20.9926 32.3268 21.124C32.4441 21.2555 32.5247 21.4156 32.5602 21.5882L33.3402 25.2782ZM31.6499 29.547C31.7326 29.4333 31.8383 29.3383 31.9602 29.2682L34.1102 28.0282L31.9602 26.7982C31.8372 26.727 31.7308 26.6305 31.648 26.515C31.5652 26.3994 31.5081 26.2676 31.4802 26.1282L30.9602 23.6982L29.1202 25.3682C29.0164 25.4612 28.8943 25.5316 28.7617 25.5746C28.6291 25.6177 28.4889 25.6325 28.3502 25.6182L25.8802 25.3582L26.8802 27.6182C26.9382 27.7471 26.9682 27.8869 26.9682 28.0282C26.9682 28.1695 26.9382 28.3093 26.8802 28.4382L25.8802 30.7082L28.3502 30.4382H28.4502C28.6968 30.4361 28.9354 30.5251 29.1202 30.6882L30.9702 32.3582L31.4802 29.9282C31.5094 29.7906 31.5671 29.6607 31.6499 29.547Z" fill="#595959"/>
</svg>
