<svg enable-background="new 0 0 800 300" height="64" viewBox="0 0 64 64" width="64" xmlns="http://www.w3.org/2000/svg"><g transform="matrix(.4638723155 0 0 .4638723155 -1.37145325995 -17.29547871)"><path d="m88.822 51.582v25.966l29.179 74.943s8.908 18.303-16.57 22.763h-58.123s-23.747-2.478-18.054-21.281l30.664-76.424v-25.967z" fill="#009688"/><path d="m89.438 48.563h-35.003c-2.835 0-5.141-2.522-5.141-5.638 0-3.118 2.305-5.64 5.141-5.64h35.003c2.848 0 5.15 2.522 5.15 5.64 0 3.116-2.303 5.638-5.15 5.638z" fill="#004d40"/><path d="m80.204 93.979c3.756 0 6.819 3.67 6.819 8.215 0 4.525-3.065 8.204-6.819 8.204-3.765 0-6.819-3.679-6.819-8.204 0-4.547 3.054-8.215 6.819-8.215z" fill="#fff"/><ellipse cx="59.271" cy="108.362" fill="#fff" rx="5.748" ry="6.928"/><path d="m91.417 75.827v-12.35s15.661-3.453 23.488 14.763c0-.001-12.198 8.887-23.488-2.413z" fill="#004d40"/><path d="m53.059 75.827v-12.35s-15.663-3.453-23.486 14.763c0-.001 12.186 8.887 23.486-2.413z" fill="#004d40"/><path d="m100.833 126.935c-25.467-7.9-46.878-3.659-57.343-.453l-10.553 25.401c-4.751 15.164 15.087 17.157 15.087 17.157h48.545c21.279-3.595 13.842-18.347 13.842-18.347z" fill="#fff"/><g fill="#004d40"><path d="m64.131 136.373c0 2.739-3.681 4.967-8.215 4.967s-8.204-2.229-8.204-4.967c0-2.75 3.67-4.97 8.204-4.97 4.536.002 8.215 2.22 8.215 4.97z"/><path d="m93.345 136.373c0 2.739-3.681 4.967-8.204 4.967-4.547 0-8.215-2.229-8.215-4.967 0-2.75 3.668-4.97 8.215-4.97 4.525.002 8.204 2.22 8.204 4.97z"/></g></g></svg>