<svg xmlns="http://www.w3.org/2000/svg" width="187.47" height="182.806"  fill="#ff7102" fill-rule="evenodd" xmlns:v="https://vecta.io/nano"><path d="M97.376 7.001c-4.085.01-8.23 2.082-10.983 6.187L4.345 137.08c-7.211 15.19 3.238 29.709 17.402 33.826 26.605 5.925 50.972-9.914 50.972-9.914 35.892-22.966 59.072-35.93 59.072-35.93 28.605-14.501 53.627 3.292 53.68 3.33L108.027 13.188c-2.538-4.141-6.566-6.196-10.651-6.187zm.034 12.73c3.215-.01 6.385 1.611 8.382 4.87 18.914 28.075 40.41 57.02 58.509 85.601 0 0-17.273-8.988-39.806 2.435 0 0-18.247 10.205-46.491 28.277 0 0-19.169 12.457-40.105 7.794-11.146-3.24-19.374-14.667-13.7-26.62L88.77 24.601c2.167-3.23 5.424-4.863 8.639-4.87zm64.574 108.64c-30.943.765-57.794 29.676-79.664 38.221 33.249 39.96 132.792-7.446 95.517-33.93-4.729-3.224-10.085-4.433-15.853-4.291zm10.981 11.457c17.547 17.529-48.352 48.024-76.374 27.971 10.737-.829 55.926-44.308 76.374-27.971z"/></svg>