<?xml version="1.0" encoding="UTF-8" standalone="no"?>
<svg width="256px" height="256px" viewBox="0 0 256 256" version="1.1" xmlns="http://www.w3.org/2000/svg" xmlns:xlink="http://www.w3.org/1999/xlink" preserveAspectRatio="xMidYMid">
	<g>
		<path d="M256,236.393515 L256,19.6065524 C256,10.7132614 250.077122,3.20765291 241.962667,0.807144974 L232.747683,6.32096508 L130.483132,115.358002 L127.277037,125.379251 L125.403767,134.998214 L157.293376,254.178404 L162.227471,255.999865 L236.393651,255.999865 C247.221841,255.999865 256,247.222044 256,236.393515" fill="#EA6618"/>
		<path d="M0,19.6064847 L0,236.393448 C0,243.097532 3.36660317,249.012622 8.49913228,252.548199 L14.7873862,249.537151 L123.033397,133.643649 L127.277037,125.379183 L127.435513,117.38968 L97.9751958,5.30502434 L93.5141587,0.000135449735 L19.6063492,0.000135449735 C8.77815873,0.000135449735 0,8.77829418 0,19.6064847" fill="#d65813"/>
		<path d="M127.276902,125.379183 L241.962531,0.807415873 C240.196605,0.284918519 238.328753,0.000135449735 236.393515,0.000135449735 L93.5143619,0.000135449735 L127.276902,125.379183 Z" fill="#e05e11"/>
		<path d="M19.6064847,256 L162.227606,256 L127.276834,125.379048 L8.49926772,252.548402 C11.6569397,254.723725 15.4820402,256 19.6064847,256" fill="#de5c16"/>
		<path d="M94.9181291,97.0292825 L109.143399,97.0292825 C114.810954,118.41578 121.261748,137.182341 128.458531,154.114912 C136.610574,135.064246 142.585939,116.285156 147.64397,97.0292825 L161.085663,97.0292825 C155.0656,120.955462 145.218066,145.06924 133.954066,169.959145 L122.064288,169.959145 C111.244563,146.372605 102.033304,122.122362 94.9181291,97.0292825 Z M47.9982392,59.9745693 L79.6288,59.9745693 L79.6288,195.611903 L47.8587259,195.611903 L47.8587259,185.156199 L67.3296254,185.156199 L67.3296254,70.1515852 L47.9982392,70.1515852 L47.9982392,59.9745693 Z M208.166739,70.1516868 L188.835014,70.1516868 L188.835014,185.156301 L208.305913,185.156301 L208.305913,195.612004 L176.536178,195.612004 L176.536178,59.9746709 L208.166739,59.9746709 L208.166739,70.1516868 Z" fill="#FFFFFF"/>
	</g>
</svg>