<?xml version="1.0" encoding="utf-8"?>
<!-- Generator: Adobe Illustrator 24.1.0, SVG Export Plug-In . SVG Version: 6.00 Build 0)  -->
<svg version="1.1" id="Objects" xmlns="http://www.w3.org/2000/svg" xmlns:xlink="http://www.w3.org/1999/xlink" x="0px" y="0px"
	 viewBox="0 0 650 650" style="enable-background:new 0 0 800 800;" xml:space="preserve">
<style type="text/css">
	.st0{fill:#8E2323;}
	.st1{fill:#EA8383;stroke:#EA8383;stroke-miterlimit:10;}
	.st2{fill:#FFFFFF;}
</style>
	<g>
		<path class="st0" d="M483.5,96.4H309.7c-34.2,0-65.8,18.2-82.9,47.8L140,294.8c-17.1,29.6-17.1,66.1,0,95.7L226.8,541
			c17.1,29.6,48.7,47.8,82.9,47.8h173.8c34.2,0,65.8-18.2,82.9-47.8l86.9-150.5c17.1-29.6,17.1-66.1,0-95.7l-86.9-150.5
			C549.3,114.7,517.7,96.4,483.5,96.4z"/>
		<g>
			<g>
				<path class="st1" d="M140.3,431.4c12.4-54.2,45.2-141.7,63.6-180.3c4.5-8.9,7.9-11.1,11.9-4.5c7.4,11.9,11.4,43.8-0.5,80.9
					c-10.4,32.7-31.3,83.1-41.7,120.2c-11.9,43-10.9,72,5,70.5c22.3-1.5,49.7-50.5,64.6-101.7c2.5-6.7,6-5.9,7.9,0
					c4,11.9,2.5,27.5-3.5,46c-14.9,46-46.2,77.2-74,77.2C135.8,539.7,126.4,492.2,140.3,431.4z M251,237.7
					c-6.5,10.4-20.4,8.2-27.8-11.1c-7.9-20-5.5-42.3,2.5-54.9c7.9-12.6,22.3-3.7,28.8,16.3C260.9,207.3,257.5,227.3,251,237.7z"/>
				<path class="st1" d="M303.8,231.8c11.9-17.2,26.2-38,38.1-57c3.6-4.7,6.4-5.3,10.3,0c11.5,15.4,12.3,38-2.8,80.7
					c-23,65.9-67.1,175.7-98.5,287.9c-1.6,5.9-4.4,7.1-7.2,2.4c-6.4-10.7-9.5-29.1-2-65.9c7.9-37.4,46.5-154.9,76.3-235.7
					C297.9,246,300.3,237.1,303.8,231.8z"/>
				<path class="st1" d="M442.5,379.6c14.3,46.3,17.9,91.4-11.1,135.4c-20.7,31.5-61.6,41.6-85,24.3
					c-34.2-24.9-31.4-77.8-16.7-116.4c11.9-32.1,35-67.7,61.2-99.1c-6.4-21.4-11.1-42.7-9.5-60c3.2-40.4,24.2-71.8,48.5-86.1
					c35.4-20.8,72.3-4.7,69.5,53.4c11.1-4.2,19.5-3,24.6,1.8c3.6,3,3.6,7.7-0.4,10.7c-27,22-63.2,54.6-96.1,90.8
					C432.2,348.7,437.7,364.1,442.5,379.6z M349.9,456.2c-8.3,27.3-8.7,52.8,4.8,62.9c13.5,10.1,34.6,1.8,48.5-20.2
					c13.5-21.4,24.6-45.1,13.5-91.4c-3.6-14.2-8.3-29.1-13.5-44.5C379.3,393.2,359.5,425.3,349.9,456.2z M450.8,191.4
					c-19.5,5.3-38.9,41-38.9,72.4c0,10.1,1.6,20.8,4.4,32.1c19.5-20.2,40.1-38,58.4-50.5C476.3,214.5,469.1,186.6,450.8,191.4z"/>
				<path class="st1" d="M623.5,237.7c16.4,3.7,31.8,40.1,19.4,78.7c-10.4,32.7-34.8,87.6-46.2,126.2c-12.9,43-9.9,77.9,7.9,76.4
					c20.4-1.5,44.7-50.5,63.6-102.4c2.5-6.7,6-6.7,8.4-0.7c3.5,8.2,2.5,25.2-4.5,46.7c-13.4,41.6-44.7,79.4-73.5,79.4
					c-42.2,0-52.1-46-37.7-110.6C577.3,358.7,621,280,612,274.1c-5-3-33.8,17.8-65.5,69.8c-29.3,47.5-51.2,118.7-72.5,188.5
					c-2,6.7-5,9.6-9.4,3c-9.9-14.8-12.9-39.3-5-76.4c9.9-46.7,48.2-149.9,79.5-218.9c3.5-8.2,7.4-7.4,10.4,0
					c7.4,18.6,7,43.8,1.5,70.5C573.3,274.8,607.1,234,623.5,237.7z"/>
			</g>
			<g>
				<path class="st2" d="M127.3,416.5c12-52.2,43.5-136.6,61.2-173.7c4.3-8.6,7.7-10.7,11.5-4.3c7.2,11.4,11,42.2-0.5,77.9
					c-10,31.5-30.1,80.1-40.2,115.8c-11.5,41.5-10.5,69.4,4.8,67.9c21.5-1.4,47.8-48.6,62.2-97.9c2.4-6.4,5.7-5.7,7.7,0
					c3.8,11.4,2.4,26.5-3.4,44.3c-14.4,44.3-44.5,74.4-71.3,74.4C123,520.9,113.9,475.1,127.3,416.5z M234,229.9
					c-6.2,10-19.6,7.9-26.8-10.7c-7.7-19.3-5.3-40.8,2.4-52.9c7.7-12.2,21.5-3.6,27.8,15.7C243.6,200.6,240.2,219.9,234,229.9z"/>
				<path class="st2" d="M284.9,224.2c11.5-16.6,25.3-36.6,36.7-54.9c3.4-4.6,6.1-5.1,9.9,0c11.1,14.9,11.9,36.6-2.7,77.8
					c-22.2,63.5-64.7,169.3-94.9,277.4c-1.5,5.7-4.2,6.9-6.9,2.3c-6.1-10.3-9.2-28-1.9-63.5c7.7-36,44.8-149.3,73.5-227.1
					C279.2,237.9,281.5,229.3,284.9,224.2z"/>
				<path class="st2" d="M418.5,366.6c13.8,44.6,17.2,88.1-10.7,130.4c-19.9,30.3-59.3,40-81.9,23.5c-32.9-24-30.2-74.9-16.1-112.1
					c11.5-30.9,33.7-65.2,58.9-95.5c-6.1-20.6-10.7-41.2-9.2-57.8c3.1-38.9,23.3-69.2,46.7-82.9c34.1-20,69.7-4.6,67,51.5
					c10.7-4,18.8-2.9,23.7,1.7c3.4,2.9,3.4,7.4-0.4,10.3c-26,21.2-60.9,52.6-92.6,87.5C408.6,336.8,413.9,351.7,418.5,366.6z
					 M329.3,440.4c-8,26.3-8.4,50.9,4.6,60.6s33.3,1.7,46.7-19.4c13-20.6,23.7-43.5,13-88.1c-3.4-13.7-8-28-13-42.9
					C357.6,379.7,338.5,410.6,329.3,440.4z M426.5,185.3c-18.8,5.1-37.5,39.5-37.5,69.8c0,9.7,1.5,20,4.2,30.9
					c18.8-19.4,38.7-36.6,56.3-48.6C451,207.6,444.2,180.7,426.5,185.3z"/>
				<path class="st2" d="M592.9,229.9c15.8,3.6,30.6,38.6,18.7,75.8c-10,31.5-33.5,84.4-44.5,121.5c-12.4,41.5-9.6,75.1,7.7,73.6
					c19.6-1.4,43.1-48.6,61.2-98.7c2.4-6.4,5.7-6.4,8.1-0.7c3.3,7.9,2.4,24.3-4.3,45c-12.9,40-43.1,76.5-70.8,76.5
					c-40.7,0-50.2-44.3-36.4-106.5c15.8-70.1,57.9-145.9,49.3-151.6c-4.8-2.9-32.5,17.2-63.2,67.2c-28.2,45.8-49.3,114.4-69.9,181.6
					c-1.9,6.4-4.8,9.3-9.1,2.9c-9.6-14.3-12.4-37.9-4.8-73.6c9.6-45,46.4-144.4,76.6-210.9c3.3-7.9,7.2-7.1,10,0
					c7.2,17.9,6.7,42.2,1.4,67.9C544.5,265.6,577.1,226.3,592.9,229.9z"/>
			</g>
		</g>
	</g>
</svg>
