<svg width="400px" height="400px" viewBox="0 0 400 400" version="1.1" xmlns="http://www.w3.org/2000/svg" xmlns:xlink="http://www.w3.org/1999/xlink" style="background: #1A2B34;">
    <defs></defs>
    <g id="Page-1" stroke="none" stroke-width="1" fill="none" fill-rule="evenodd">
        <g id="prettier-avatar-dark">
            <g id="Icon-(Dark)" transform="translate(95.000000, 95.000000)">
                <g id="Group">
                    <rect id="Rectangle" fill="#56B3B4" x="150" y="40" width="20" height="10" rx="5"></rect>
                    <rect id="Rectangle" fill="#EA5E5E" x="0" y="200" width="60" height="10" rx="5"></rect>
                    <rect id="Rectangle" fill="#BF85BF" x="120" y="120" width="40" height="10" rx="5"></rect>
                    <rect id="Rectangle" fill="#EA5E5E" x="60" y="120" width="50" height="10" rx="5"></rect>
                    <rect id="Rectangle" fill="#56B3B4" x="0" y="120" width="50" height="10" rx="5"></rect>
                    <rect id="Rectangle" fill="#BF85BF" x="0" y="160" width="60" height="10" rx="5"></rect>
                    <rect id="Rectangle" fill="#BF85BF" x="0" y="80" width="60" height="10" rx="5"></rect>
                    <rect id="Rectangle" fill="#F7BA3E" x="50" y="20" width="110" height="10" rx="5"></rect>
                    <rect id="Rectangle" fill="#EA5E5E" x="0" y="20" width="40" height="10" rx="5"></rect>
                    <rect id="Rectangle" fill="#F7BA3E" x="40" y="180" width="20" height="10" rx="5"></rect>
                    <rect id="Rectangle" fill="#56B3B4" x="40" y="60" width="20" height="10" rx="5"></rect>
                    <rect id="Rectangle" fill="#56B3B4" x="0" y="180" width="30" height="10" rx="5"></rect>
                    <rect id="Rectangle" fill="#F7BA3E" x="0" y="60" width="30" height="10" rx="5"></rect>
                    <rect id="Rectangle" fill="#4D616E" opacity="0.5" x="130" y="180" width="20" height="10" rx="5"></rect>
                    <rect id="Rectangle" fill="#4D616E" opacity="0.5" x="70" y="180" width="50" height="10" rx="5"></rect>
                    <rect id="Rectangle" fill="#4D616E" opacity="0.5" x="160" y="180" width="50" height="10" rx="5"></rect>
                    <rect id="Rectangle" fill="#56B3B4" x="80" y="100" width="90" height="10" rx="5"></rect>
                    <rect id="Rectangle" fill="#F7BA3E" x="30" y="100" width="40" height="10" rx="5"></rect>
                    <rect id="Rectangle" fill="#EA5E5E" x="0" y="100" width="20" height="10" rx="5"></rect>
                    <rect id="Rectangle" fill="#BF85BF" x="90" y="40" width="50" height="10" rx="5"></rect>
                    <rect id="Rectangle" fill="#56B3B4" x="0" y="40" width="80" height="10" rx="5"></rect>
                    <rect id="Rectangle" fill="#F7BA3E" x="30" y="140" width="100" height="10" rx="5"></rect>
                    <rect id="Rectangle" fill="#BF85BF" x="0" y="140" width="20" height="10" rx="5"></rect>
                    <rect id="Rectangle" fill="#EA5E5E" x="120" y="60" width="60" height="10" rx="5"></rect>
                    <rect id="Rectangle" fill="#F7BA3E" x="120" y="80" width="60" height="10" rx="5"></rect>
                    <rect id="Rectangle" fill="#56B3B4" x="0" y="0" width="130" height="10" rx="5"></rect>
                    <rect id="Rectangle" fill="#4D616E" opacity="0.5" x="140" y="0" width="70" height="10" rx="5"></rect>
                    <rect id="Rectangle" fill="#4D616E" opacity="0.5" x="140" y="140" width="30" height="10" rx="5"></rect>
                    <rect id="Rectangle" fill="#4D616E" opacity="0.5" x="180" y="140" width="30" height="10" rx="5"></rect>
                    <rect id="Rectangle" fill="#4D616E" opacity="0.5" x="170" y="120" width="40" height="10" rx="5"></rect>
                    <rect id="Rectangle" fill="#4D616E" opacity="0.5" x="170" y="20" width="40" height="10" rx="5"></rect>
                    <rect id="Rectangle" fill="#4D616E" opacity="0.5" x="180" y="100" width="30" height="10" rx="5"></rect>
                    <rect id="Rectangle" fill="#4D616E" opacity="0.5" x="180" y="40" width="30" height="10" rx="5"></rect>
                    <rect id="Rectangle" fill="#4D616E" opacity="0.5" x="190" y="60" width="20" height="10" rx="5"></rect>
                    <rect id="Rectangle" fill="#4D616E" opacity="0.5" x="190" y="80" width="20" height="10" rx="5"></rect>
                    <rect id="Rectangle" fill="#4D616E" opacity="0.5" x="110" y="160" width="100" height="10" rx="5"></rect>
                    <rect id="Rectangle" fill="#4D616E" opacity="0.5" x="70" y="160" width="30" height="10" rx="5"></rect>
                    <rect id="Rectangle" fill="#4D616E" opacity="0.5" x="150" y="200" width="60" height="10" rx="5"></rect>
                    <rect id="Rectangle" fill="#4D616E" opacity="0.5" x="70" y="200" width="70" height="10" rx="5"></rect>
                    <rect id="Rectangle" fill="#4D616E" opacity="0.5" x="70" y="60" width="40" height="10" rx="5"></rect>
                    <rect id="Rectangle" fill="#4D616E" opacity="0.5" x="70" y="80" width="40" height="10" rx="5"></rect>
                </g>
            </g>
        </g>
    </g>
</svg>
