<svg width="190" height="190" viewBox="0 0 190 190" xmlns="http://www.w3.org/2000/svg">
  <g fill="none" fill-rule="evenodd">
    <path d="M150.28 61.34c3.09-14.98 3.75-26.47 1.75-34.81-1.19-4.96-3.36-9.01-6.66-11.93-3.5-3.08-7.9-4.6-12.86-4.6-8.18 0-16.78 3.73-25.97 10.8a118.25 118.25 0 00-11.67 10.44c-.32-.4-.69-.8-1.1-1.16C82.37 19.91 72.75 13.6 64.53 11.16c-4.89-1.44-9.48-1.58-13.66-.18-4.41 1.49-7.93 4.55-10.4 8.85-4.1 7.09-5.18 16.4-3.66 27.9.63 4.69 1.69 9.8 3.2 15.33-.57.07-1.14.2-1.7.38-14.5 4.8-24.75 9.95-30.97 15.85-3.7 3.5-6.1 7.41-6.98 11.73-.92 4.56-.02 9.14 2.46 13.43 4.08 7.08 11.6 12.66 22.3 17.08 4.3 1.78 9.16 3.39 14.6 4.83a8.73 8.73 0 00-.57 1.78c-3.1 14.98-3.76 26.47-1.76 34.81 1.19 4.97 3.36 9.01 6.67 11.93 3.49 3.09 7.9 4.6 12.86 4.6 8.18 0 16.77-3.72 25.96-10.8 3.79-2.92 7.72-6.44 11.8-10.57a8.7 8.7 0 001.55 1.8c11.42 10.18 21.04 16.5 29.26 18.93 4.89 1.44 9.48 1.58 13.66.18 4.41-1.49 7.93-4.55 10.4-8.85 4.1-7.09 5.18-16.4 3.66-27.9a119.5 119.5 0 00-3.36-15.93c.62-.06 1.25-.2 1.87-.4 14.48-4.8 24.74-9.95 30.96-15.85 3.7-3.5 6.1-7.41 6.98-11.73.92-4.56.02-9.14-2.46-13.43-4.08-7.08-11.6-12.66-22.3-17.08a118.57 118.57 0 00-15.08-4.96c.2-.5.36-1 .47-1.55z" fill="#002C4B" fill-rule="nonzero"/>
    <path d="M80.4 64h29.2a5 5 0 014.34 2.51l14.64 25.5a5 5 0 010 4.98l-14.64 25.5a5 5 0 01-4.33 2.51H80.4a5 5 0 01-4.34-2.51l-14.63-25.5a5 5 0 010-4.98l14.63-25.5A5 5 0 0180.4 64zm25.59 6.28a5 5 0 014.34 2.51l11.01 19.22a5 5 0 010 4.98l-11.01 19.22a5 5 0 01-4.34 2.51H84.02a5 5 0 01-4.34-2.51L68.66 96.99a5 5 0 010-4.98L79.68 72.8a5 5 0 014.34-2.51h21.97zm-3.9 6.86H87.91a5 5 0 00-4.33 2.51l-7.1 12.36a5 5 0 000 4.98l7.1 12.36a5 5 0 004.33 2.5h14.16a5 5 0 004.34-2.5l7.1-12.36a5 5 0 000-4.98l-7.1-12.36a5 5 0 00-4.34-2.5zm-3.77 6.57a5 5 0 014.33 2.5l3.33 5.8a5 5 0 010 4.98l-3.33 5.8a5 5 0 01-4.33 2.5h-6.63a5 5 0 01-4.34-2.5l-3.33-5.8a5 5 0 010-4.98l3.33-5.8a5 5 0 014.34-2.5h6.63zM95 90.18a4.32 4.32 0 100 8.64 4.32 4.32 0 100-8.64zM60 94.5h7.77" fill="#FFD94C"/>
    <path d="M54.86 108.36a2.71 2.71 0 013.72 1.04l.47.84c3.8 6.74 7.77 13.14 11.9 19.2a286.9 286.9 0 0016.41 21.71 2.78 2.78 0 01-.3 3.85l-.6.53c-20.11 17.57-33.18 21.08-39.21 10.53-5.9-10.32-3.77-29.08 6.4-56.28.23-.6.65-1.1 1.21-1.42zm85.67 20.68a2.7 2.7 0 013.13 2.15l.15.8c4.97 26 1.47 39.01-10.5 39.01-11.7 0-26.6-11.1-44.7-33.27a2.72 2.72 0 012.12-4.44h.95c7.63.05 15.03-.22 22.23-.79a281.1 281.1 0 0026.62-3.46zm6.88-55.23a2.82 2.82 0 013.54-1.66l.8.27c25.83 8.8 35.65 18.47 29.45 29.02-6.07 10.31-23.72 17.82-52.94 22.52-.65.1-1.31-.01-1.88-.34a2.73 2.73 0 01-1-3.77l.5-.84c4-6.7 7.6-13.36 10.82-19.99a284.1 284.1 0 0010.7-25.2zm-85.67-7.77c.65-.1 1.31.01 1.88.34a2.73 2.73 0 011 3.77l-.5.84c-4 6.7-7.6 13.36-10.82 19.99a284.09 284.09 0 00-10.7 25.2 2.82 2.82 0 01-3.55 1.67l-.8-.27C12.43 108.78 2.6 99.11 8.8 88.56c6.07-10.31 23.72-17.82 52.94-22.52zm41.8-31.57c20.11-17.57 33.18-21.08 39.21-10.53 5.9 10.32 3.77 29.08-6.4 56.28a2.71 2.71 0 01-4.93.38l-.47-.84a269.42 269.42 0 00-11.9-19.2 286.9 286.9 0 00-16.41-21.71 2.78 2.78 0 01.3-3.85zM57.69 18c11.71 0 26.61 11.1 44.7 33.27a2.72 2.72 0 01-2.11 4.44h-.95c-7.63-.05-15.03.22-22.23.79a281.1 281.1 0 00-26.62 3.46 2.7 2.7 0 01-3.13-2.15l-.15-.8C42.22 31.01 45.72 18 57.69 18z" fill="#FF4154"/>
  </g>
</svg>
