<svg width="16" height="16" viewBox="0 0 16 16" fill="none" xmlns="http://www.w3.org/2000/svg">
  <rect width="16" height="16" fill="white"/>
  <path fill-rule="evenodd" clip-rule="evenodd" d="M9.0435 1.24634C8.3866 0.917888 7.6134 0.917888 6.9565 1.24634L2.28983 3.57967C1.49934 3.97492 1 4.78287 1 5.66667V10.3333C1 11.2171 1.49934 12.0251 2.28983 12.4203L6.9565 14.7537C7.6134 15.0821 8.3866 15.0821 9.0435 14.7537L13.7102 12.4203C14.5007 12.0251 15 11.2171 15 10.3333V5.66667C15 4.78287 14.5007 3.97492 13.7102 3.57967L9.0435 1.24634ZM5.66667 5.66667C5.66667 4.378 6.71134 3.33333 8 3.33333C9.28866 3.33333 10.3333 4.378 10.3333 5.66667V10.3333C10.3333 11.622 9.28866 12.6667 8 12.6667C6.71134 12.6667 5.66667 11.622 5.66667 10.3333V5.66667Z" fill="#14141F"/>
  <path d="M9.16667 5.66667C9.16667 6.311 8.64433 6.83333 8 6.83333C7.35567 6.83333 6.83333 6.311 6.83333 5.66667C6.83333 5.02233 7.35567 4.5 8 4.5C8.64433 4.5 9.16667 5.02233 9.16667 5.66667Z" fill="#14141F"/>
  </svg>
  