<svg xmlns="http://www.w3.org/2000/svg" version="1.1" xmlns:xlink="http://www.w3.org/1999/xlink" xmlns:svgjs="http://svgjs.com/svgjs" width="520" height="520"><svg width="520" height="520" viewBox="0 0 520 520" fill="none" xmlns="http://www.w3.org/2000/svg">
<g clip-path="url(#clip0_1862_20241)">
<path fill-rule="evenodd" clip-rule="evenodd" d="M316.875 146.25C316.875 114.839 291.411 89.375 260 89.375C228.589 89.375 203.125 114.839 203.125 146.25V373.75C203.125 405.161 228.589 430.625 260 430.625C291.411 430.625 316.875 405.161 316.875 373.75V146.25ZM260 189.583C283.932 189.583 303.333 170.182 303.333 146.25C303.333 122.318 283.932 102.917 260 102.917C236.068 102.917 216.667 122.318 216.667 146.25C216.667 170.182 236.068 189.583 260 189.583Z" fill="#14141F"></path>
<path fill-rule="evenodd" clip-rule="evenodd" d="M520 260C520 403.594 403.594 520 260 520C116.406 520 0 403.594 0 260C0 116.406 116.406 0 260 0C403.594 0 520 116.406 520 260ZM260 65C215.127 65 178.75 101.377 178.75 146.25V373.75C178.75 418.623 215.127 455 260 455C304.873 455 341.25 418.623 341.25 373.75V146.25C341.25 101.377 304.873 65 260 65Z" fill="#14141F"></path>
</g>
<defs>
<clipPath id="SvgjsClipPath1000">
<rect width="520" height="520" fill="white"></rect>
</clipPath>
</defs>
</svg><style>@media (prefers-color-scheme: light) { :root { filter: none; } }
@media (prefers-color-scheme: dark) { :root { filter: contrast(0.3846153846153846) brightness(4.5); } }
</style></svg>