<svg width="16" height="16" viewBox="0 0 16 16" fill="none" xmlns="http://www.w3.org/2000/svg">
  <rect width="16" height="16" fill="white"/>
  <path fill-rule="evenodd" clip-rule="evenodd" d="M8.89443 2.21115C8.33137 1.92962 7.66863 1.92962 7.10557 2.21115L3.10557 4.21115C2.428 4.54993 2 5.24246 2 6V10C2 10.7575 2.428 11.4501 3.10557 11.7889L7.10557 13.7889C7.66863 14.0704 8.33137 14.0704 8.89443 13.7889L12.8944 11.7889C13.572 11.4501 14 10.7575 14 10V6C14 5.24246 13.572 4.54993 12.8944 4.21115L8.89443 2.21115ZM6 6C6 4.89543 6.89543 4 8 4C9.10457 4 10 4.89543 10 6V10C10 11.1046 9.10457 12 8 12C6.89543 12 6 11.1046 6 10V6Z" fill="#14141F"/>
  <path d="M9 6C9 6.55229 8.55228 7 8 7C7.44772 7 7 6.55229 7 6C7 5.44772 7.44772 5 8 5C8.55228 5 9 5.44772 9 6Z" fill="#14141F"/>
</svg>