<svg xmlns="http://www.w3.org/2000/svg" viewBox="0 0 32 32"><title>file_type_storybook</title><path d="M20.735,5.442l.133-3.173,2.72-.168.122,3.23a.216.216,0,0,1-.047.143.21.21,0,0,1-.3.029l-1.05-.82-1.243.934a.212.212,0,0,1-.3-.04A.206.206,0,0,1,20.735,5.442Z" style="fill:#fff"/><path d="M20.868,2.268l-.133,3.174a.206.206,0,0,0,.043.135.212.212,0,0,0,.3.04l1.243-.934,1.05.82a.21.21,0,0,0,.3-.029.216.216,0,0,0,.047-.143L23.588,2.1,25.154,2A1.415,1.415,0,0,1,26.66,3.321q0,.043,0,.087V28.592A1.414,1.414,0,0,1,25.245,30l-.066,0L6.231,29.156A1.414,1.414,0,0,1,4.876,27.8L4,4.69A1.412,1.412,0,0,1,5.33,3.232l15.537-.963Z" style="fill:#ff4785"/><path d="M17.253,12.554c0,.547,3.72.285,4.22-.1,0-3.73-2.018-5.69-5.714-5.69S9.993,8.754,9.993,11.74c0,5.2,7.077,5.3,7.077,8.136a1.127,1.127,0,0,1-1.258,1.27c-1.127,0-1.573-.572-1.52-2.512,0-.421-4.3-.553-4.43,0-.334,4.7,2.621,6.06,6,6.06,3.276,0,5.845-1.733,5.845-4.868,0-5.573-7.182-5.423-7.182-8.185a1.18,1.18,0,0,1,1.337-1.269C16.388,10.372,17.332,10.464,17.253,12.554Z" style="fill:#fff"/></svg>