<svg xmlns="http://www.w3.org/2000/svg" xmlns:xlink="http://www.w3.org/1999/xlink" viewBox="0 0 32 32" width="64" height="64"><g transform="matrix(.16 0 0 .16 0 .010224)"><path d="M47.78 86.572s-31.118 21.903-32.335 30.247l2.335-.48s37.264-24.7 66.803-27.7l.67-3.75-37.472 1.693zm48.85-3.13l-24.5 17.385 1.325 1.063c1-.806 43.54-13.798 43.54-13.798l8.97-5.623c-6.018.75-29.322.973-29.322.973zm21.302 21.028c17.405 0 43.495-17.046 43.495-17.046l-8.434-1.605c-.417.417-13.6-.462-13.6-.462l-6.258-1.738-14.95 17.036-1.217 2.956c1.075-.437.965.86.965.86zm56.796 54.362l-5.377 1.514-24.843-.537-15.54-12.085-18.784 4.7-21.726-1.88-12.166 13.294-22.828 6.82-11.398-3.534-.574-.494 5.116 12.527s11.588 12.424 18.06 13.885 18.165-.105 26.935-1.463 15.764-4.5 18.582-9.603 3.236-6.578 3.236-6.578 8.353 11.797 15.556 13.155 28.605-5.952 28.605-5.952 13.05-3.55 15.346-8.038 8.353-19.2 8.353-19.2l-6.553 3.48zM44.456 169.038l-.36-.166-2.013-1.736 2.374 1.902z" fill="#cb3349"/><path d="M195.832 70.085l-.2-2.01-.215-1.424c-1.793-1.51-3.83-2.85-5.952-4.07-2.3-1.343-4.704-2.546-7.16-3.663l-7.46-3.207-3.798-1.477-3.835-1.424 8.015 1.74 5.14 1.477c-12.112-31.655-41.07-52.27-72.687-52.27s-60.577 20.615-72.686 52.27c1.703-.532 3.417-1.03 5.137-1.477 2.653-.682 5.323-1.294 8.018-1.74l-3.84 1.424L40.5 55.71c-2.52 1.016-5.016 2.057-7.46 3.207-2.45 1.117-4.857 2.32-7.156 3.663-2.12 1.22-4.157 2.562-5.957 4.07-.075.457-.15.95-.2 1.424-.08.667-.155 1.338-.2 2.01-.118 1.35-.166 2.703-.177 4.06-.027 2.713.156 5.426.5 8.1.37 2.692.864 5.366 1.595 7.95.36 1.295.768 2.572 1.24 3.808.237.617.495 1.225.764 1.816a27.84 27.84 0 0 0 .413.864l.172.328.607.3 1.204.575 2.368 1.1a1.69 1.69 0 0 0 .123-.114l-2.235-8.513c.474-.13 4.718-1.225 12.032-2.617-.6-.112-1.186-.24-1.772-.38-1.665-.414-3.31-.92-4.9-1.564-.8-.333-1.568-.697-2.31-1.115-.742-.426-1.472-.908-2.037-1.548 8.036 2.622 24.64 1.434 39.4-.09 13.5-1.39 27.03-2.293 40.63-2.32 13.602.027 27.137.93 40.63 2.32 14.766 1.525 31.37 2.713 39.405.09-.564.64-1.293 1.123-2.035 1.548a22.5 22.5 0 0 1-2.308 1.115c-1.592.645-3.234 1.15-4.9 1.564-.247.06-.496.113-.743.166 8.02 1.488 12.69 2.697 13.188 2.83l-2.138 8.1 1.3-.574 1.202-.575.607-.3.166-.328a16.85 16.85 0 0 0 .419-.864c.27-.59.528-1.2.764-1.816.473-1.236.882-2.513 1.24-3.808.73-2.585 1.225-5.26 1.595-7.95.345-2.685.526-5.398.5-8.1-.01-1.356-.06-2.7-.18-4.06z" fill="#f4edae"/><path d="M116.787 182.66l-3.186.375-2.06.102-.242.005 1.92-4.34 3.568 3.857zm2.313 2.358c3.304 3.272 7.398 5.146 11.904 5.48-7.57 3.074-14.702 4.26-20.197 4.63-5.478.367-11.032-.28-16.474-1.77a22.39 22.39 0 0 1 1.193-.19c.447-.054 10.206-1.327 14.605-7.868h.413 1.08c.73 0 1.395-.06 2.094-.087a43.69 43.69 0 0 0 4.878-.703l.504.5z" fill="#e6ccad"/><path d="M128.464 87.07l-1.048 1.343c-1.933 2.444-4.614 5.57-7.794 8.627l-11.404-.177c-6.46 0-12.655.17-18.537.457 8.3-3.45 18.296-6.818 29.1-8.842 3.158-.598 6.4-1.076 9.674-1.408zM79.82 90.792c-2.966 2.084-6.317 4.744-9.566 7.97-8.32.833-15.578 1.842-21.567 2.8 9.207-4.232 19.713-8.127 31.133-10.78zm101.66 17.178l-3.384 23.68-16.212 11.355-42.283-4.807-6.365-20.96c-.15-.5-.58-.885-1.108-.97-1.567-.253-2.953-.382-4.108-.382s-2.54.13-4.115.382c-.522.086-.95.46-1.106.97l-6.2 20.45-42.047 9.357L37.88 135.37l-3.283-26.572 2.176-1.2 3.475-.704 3.094 25.073a1.39 1.39 0 0 0 .586.967l11.462 8.032c.236.16.516.246.795.246.1 0 .2-.01.306-.033l34.57-7.692a1.47 1.47 0 0 0 .344-.124 1.39 1.39 0 0 0 .682-.827l6.225-20.498c1.67-.43 5.947-1.43 9.706-1.43 3.75 0 8.03 1 9.7 1.43l6.225 20.498c.16.532.624.912 1.176.977l34.57 3.927c.335.037.677-.05.952-.242l11.47-8.025a1.44 1.44 0 0 0 .573-.946l3.062-21.42 5.733 1.172zm4.27-14.85l-2.976 11.3c-6.086-1.342-19.456-3.975-37.654-5.747 5.946-2.535 12-5.715 17.53-9.7 10.83 1.53 18.78 3.17 23.1 4.147z" fill="#656c67"/><g fill="#e5caa3"><use xlink:href="#B"/><use xlink:href="#C"/></g><g fill="#c7b39a"><use xlink:href="#B"/><use xlink:href="#C"/></g><path d="M187.48 115.502c.508.42.9 1.504.456 6.558-.56 6.188-3.16 17.05-4.77 18.8-1.778.344-5.505-.064-7.778-.595.393-1.56.505-2.306.822-3.9l3.975-2.78a1.39 1.39 0 0 0 .58-.941l2.778-19.466c1.686.912 3.42 1.9 3.938 2.325zM40.937 140.908l.624 2.1c-2.14.628-6.495 1.23-8.465.886-1.633-1.645-4.68-12.966-5.345-18.978-.543-4.87-.162-5.924.333-6.334.575-.483 2.728-1.708 4.593-2.707l2.52 20.45c.048.393.257.74.586.967l5.155 3.617zm80.4.286l-.15 1.305s-4.58 4.248-11.956 5.2-13.17-3.582-13.17-3.582c.242.788.586 2.567 2.256 4.086-1.965-.235-4.087-.393-6.313-.393a49.99 49.99 0 0 0-2.401.061c-4.54.237-10.924 7.1-15.414 14.014l-17.06 5.237c-7.44-10.3-11.098-20.842-11.47-21.932l.005-.006-.44-1.268 1.913 1.338v.005l4.726 3.3 1.58 1.1c.236.167.515.253.794.253a1.57 1.57 0 0 0 .305-.031l43.435-9.67c.487-.107.88-.473 1.025-.95l6.194-20.4c1.07-.145 2.008-.22 2.814-.22s1.746.075 2.815.22l6.374 20.997c.162.532.624.92 1.17.977l2.97.34zm49.59-1.128l1.402-.984-.747 2.896c-1.95 6.248-4.25 11.774-6.805 16.656a26.05 26.05 0 0 1-1.8.061c-1.972 0-3.986-.167-6.215-.37l-11.946-1.283-12.14-9.615-.505-.42c-.837-.708-1.8-1.513-3.717-1.513-1.75 0-4.308.638-10.5 2.508 3.212-2.4 3.233-5.5 3.233-5.5l.15-1.305 40.748 4.63a1.41 1.41 0 0 0 .955-.241l7.875-5.518z" fill="#e6ccad"/><path d="M140.937 54.337c.124 3.625.033 10.194-1.655 16.345-.068.237-.058.48 0 .704l-6.446-.6c2.412-5.054 2.938-10.436 3.052-12.332 1.852-1.317 3.696-2.896 5.05-4.126zm-61.48 4.125c.112 1.896.638 7.267 3.046 12.317l-6.44.596c.058-.22.065-.457 0-.694-1.686-6.14-1.772-12.714-1.654-16.345 1.353 1.23 3.2 2.8 5.05 4.126z" fill="#ebd599"/><path d="M151.835 125.675c-2.9-1.396-6.06.377-11.828.484-4.292.15-7.896.198-8.132-6.543-.237-6.747 2.513-12.326 6.805-12.478s8.207 5.2 8.735 11.93c.145 1.854-.06 3.207-.52 4.2 3.996-.477 4.9 2.235 4.94 2.396zm-13.488-9.878c1.21-.027 2.175-1.026 2.154-2.235s-1.02-2.18-2.235-2.153a2.19 2.19 0 0 0-2.152 2.234c.02 1.208 1.02 2.176 2.233 2.154z" fill="#2d3136"/><circle transform="matrix(.9998 -.0183 .0183 .9998 -2.0526 2.5461)" cx="138.307" cy="113.602" r="2.194" fill="#edf6fa"/><path d="M83.484 120.953c.063 6.747-3.51 6.34-7.806 6.38l-1.258.022a29.44 29.44 0 0 1-1.39.005c-4.168-.005-6.833-.194-9.2 1.08.058-.145 1.1-2.46 4.835-3.4-.414-.914-.673-2.18-.742-3.937-.257-6.74 3.9-12.27 8.197-12.306s7.29 5.41 7.354 12.156zm-6.634-3.53c1.21-.03 2.165-1.043 2.133-2.25-.033-1.214-1.04-2.17-2.25-2.137-1.215.03-2.172 1.04-2.14 2.25.032 1.215 1.042 2.17 2.256 2.138z" fill="#2d3136"/><circle transform="matrix(.9997 -.0257 .0257 .9997 -2.9357 2.0113)" cx="76.79" cy="115.23" r="2.195" fill="#edf6fa"/><path d="M50.7 75.155s.667-8.692 2.03-12.023c.702-1.717 4.996-2.8 8.276-3.6s8.508-2.342 9.524 2.264 2.653 7.963 3.746 9.446l-1.404-18.97L50.3 57.745 48.817 74.53l.703 1.327 1.17-.703m114.165.001s-.666-8.692-2.03-12.023c-.703-1.717-4.997-2.8-8.275-3.6s-8.5-2.342-9.526 2.264-2.654 7.963-3.748 9.446l1.407-18.97 22.562 5.464 1.483 16.786-.703 1.327-1.17-.703" opacity=".8" fill="#ebd599"/><path d="M132.965 18.378s-.598 45.5-11.224 45.5H94.114c-10.626 0-11.484-45.47-11.484-45.47L77.4 33.836l.085 21.183 3.707 2.947 1.685 9.096 2.357 5.307 45.482.084 2.105-3.8 1.77-6.4.254-4.043 5.023-14.34-6.912-25.5zm33.465 42.416s2.187 15.692 7.974 18.522 0 0 0 0l-8.103-2.444.13-16.078zm-117.522 0s-2.187 15.692-7.975 18.522 0 0 0 0l8.104-2.444-.13-16.078z" opacity=".75" fill="#ebd599"/><path d="M167.987 76.8c2.755.902 5.526 1.858 8.036 3.325-1.343-.532-2.73-.913-4.126-1.257l-4.2-.924-8.498-1.327-8.546-.924-8.573-.65c-11.446-.704-22.924-.88-34.4-.892-11.483.006-22.962.22-34.4.897-2.862.166-5.715.4-8.572.65a181.92 181.92 0 0 0-8.546.923c-2.847.345-5.678.796-8.498 1.327a72.37 72.37 0 0 0-4.206.919c-1.4.344-2.783.725-4.126 1.257 2.5-1.466 5.28-2.427 8.04-3.33.232-.075.467-.14.703-.214-.015-.06-.032-.113-.043-.177-.048-.317-1.07-7.86.7-18.645.086-.516.456-.935.962-1.075l2.917-.83c.634-22.625 9.952-33.266 10.243-33.594-8.326 13.397-8.25 29.286-8.106 32.986l18.128-5.152c.016-.005.026-.005.042-.01.076-.016.15-.027.226-.032.02 0 .05-.006.075-.006a1.19 1.19 0 0 1 .297.027c.015 0 .03.01.053.016.075.016.145.042.224.075.033.016.054.033.086.05a1.8 1.8 0 0 1 .177.112c.016.01.034.016.05.033.01.01.02.022.032.032.016.016.037.027.054.044a56.74 56.74 0 0 0 1.262 1.21c-.182-5.973.102-23.108 8.262-37.3-.172.498-6.646 19.428-4.415 40.645a33.9 33.9 0 0 0 2.229 1.649 1.35 1.35 0 0 1 .585 1.09c.006.07.16 6.833 3.148 12.586.042.086.074.177.102.268 7.43-.505 14.878-.7 22.312-.714 7.436.005 14.88.22 22.307.73a1.34 1.34 0 0 1 .11-.285c2.986-5.753 3.142-12.516 3.142-12.586.01-.436.23-.843.6-1.1a36.73 36.73 0 0 0 2.224-1.65c2.234-21.217-4.24-40.147-4.4-40.645 8.153 14.2 8.444 31.336 8.262 37.3l1.26-1.2c.016-.016.04-.027.053-.044.012-.01.018-.02.033-.032s.033-.022.05-.033c.06-.042.12-.08.177-.118.028-.01.054-.027.08-.043a1.64 1.64 0 0 1 .236-.08c.016 0 .033-.01.05-.01a1.14 1.14 0 0 1 .296-.027c.027 0 .05.006.07.006a1.63 1.63 0 0 1 .23.032c.012.006.028.006.042.01l18.13 5.152c.146-3.7.22-19.6-8.104-32.986.3.328 9.6 10.97 10.237 33.594l2.922.83a1.35 1.35 0 0 1 .962 1.075c1.777 10.786.752 18.328.708 18.645a1.57 1.57 0 0 1-.042.182l.707.215zm-3.297-.968c.14-1.207.8-7.8-.6-16.8L143.58 53.2c.184 3.475.265 11.012-1.707 18.2a1.62 1.62 0 0 1-.101.258c.203.02.408.037.606.064 5.77.66 11.5 1.584 17.2 2.83 1.712.398 3.426.823 5.124 1.283zm-25.4-5.15c1.688-6.15 1.78-12.72 1.655-16.345-1.353 1.23-3.197 2.8-5.05 4.125-.114 1.896-.64 7.278-3.052 12.332l6.446.6a1.33 1.33 0 0 1 0-.703zm-56.78.098c-2.408-5.05-2.934-10.422-3.046-12.317-1.858-1.316-3.696-2.895-5.05-4.125-.12 3.63-.032 10.206 1.654 16.345.065.237.058.473 0 .694l6.44-.597zm-8.933.864a1.65 1.65 0 0 1-.098-.247c-1.975-7.187-1.9-14.723-1.712-18.2L51.244 59.03c-1.38 8.982-.736 15.583-.597 16.797 1.703-.462 3.4-.887 5.13-1.284 2.835-.628 5.693-1.154 8.556-1.638 2.87-.478 5.747-.843 8.626-1.192.205-.027.404-.042.608-.07zm55.726-52.67v17.025h-12.068v-4.974h-2.72v22.98h4.1v12.85h-21.1v-12.85h4.092v-22.98h-2.7V36h-12.06V18.973h42.467zm-3.626 13.408v-9.8H90.443v9.8h4.816v-4.974h9.964v30.225h-4.1v5.606h13.865v-5.606h-4.1V27.407h9.964v4.974h4.815z" fill="#2d3136"/><path d="M90.443 32.38v-9.8h35.224v9.8h-4.816v-4.974h-9.964v30.225h4.1v5.606h-13.864v-5.606h4.1V27.407H95.26v4.974z" fill="#cb3349"/><path d="M30.694 93.12l7.05-1.47-6.222 4.597-.83-3.127z" fill="#656c67"/><g fill="#c7b39a"><path d="M95.1 139.78s.492 3.165-3.938 4.52-32.482 9.716-35.682 9.263-11.32-5.874-11.32-5.874l-1.97-7.004 12.016 7.492 40.892-8.396zm25.132-.613s-.354 3.182 4.13 4.345 32.875 8.295 36.05 7.704 11.053-6.36 11.053-6.36l1.663-7.084-11.045 6.588-41.852-5.192z"/><path d="M28.412 133.956s3.887 7.775 10.166 5.083l4.485 1.645-.448 3.3-9.42 1.195-2.54-1.494-2.243-9.72zm159.138-2.134s-6.353 8.115-12.632 5.424l-2.02 1.302.448 3.3 9.42 1.196 2.54-1.495 2.244-9.716zm-98.27 61.082s23.03 11.6 49.106-4.188l-8.374-.57s-18.272 7.232-32.738 3.235l-7.994 1.524z"/></g><path d="M112.626 171.51l1.594 1.9c.036.046 3.577 4.26 7.906 8.552 2.88 2.853 6.357 4.297 10.343 4.297 1.36 0 2.79-.175 4.235-.523l4.287-1.03 14.438-3.577c.585-.166 1.238-.315 1.925-.472 3.935-.91 9.33-2.163 12.187-7.89l7.197-13.96c-1.863.86-3.816 1.8-5.203 2.52-2.138 1.123-4.938 1.667-8.558 1.667-2.152 0-4.266-.18-6.605-.39-4.675-.43-12.586-1.36-12.667-1.372l-.606-.067-.478-.383c-.07-.052-7.003-5.575-12.606-9.98l-.62-.513c-.6-.503-.6-.503-.942-.503-1.797 0-7.02 1.62-18.462 5.167l-.703.223-.69-.26c-.078-.026-7.585-2.8-16.58-2.8a42.44 42.44 0 0 0-2.185.056c-.9.046-5.958 2.448-12.425 12.68l-.42.657-.74.238c-.107.037-11.238 3.63-23.042 7.005l-.766.218-.725-.337c-.077-.03-4.696-2.174-9.09-4.194 2.397 3.54 5.462 7.958 8.16 11.422 4.71 6.067 10.65 11.674 22.034 11.674a40.13 40.13 0 0 0 4.503-.265c11.58-1.31 14.563-1.837 16.168-2.117.543-.092.973-.17 1.522-.238.088-.01 9.57-1.237 12.232-7.206l3.32-7.65.968-2.583s.12-.67.317-.877l.024.02c.305.22.757.902.757.902zM40.5 55.7c-2.516 1.014-5.016 2.06-7.46 3.21-2.45 1.12-4.856 2.32-7.155 3.66-2.12 1.222-4.157 2.563-5.954 4.076-.077.455-.15.952-.21 1.423l-.208 2.01c-.12 1.346-.166 2.703-.18 4.06-.026 2.713.16 5.426.502 8.112.372 2.692.864 5.37 1.594 7.952.363 1.295.767 2.573 1.243 3.804.233.623.492 1.228.762 1.818a27.84 27.84 0 0 0 .413.864l.172.326a19.91 19.91 0 0 0 .605.3l1.206.574 2.366 1.093c.046-.037.088-.078.124-.114l-2.23-8.51c.47-.13 4.717-1.227 12.032-2.62-.6-.11-1.19-.238-1.775-.38-1.662-.413-3.31-.92-4.898-1.563-.787-.336-1.57-.7-2.31-1.12s-1.47-.905-2.035-1.547C35.137 85.76 51.74 84.57 66.5 83.05c13.5-1.393 27.028-2.293 40.628-2.325 13.6.03 27.138.93 40.63 2.325 14.77 1.522 31.374 2.713 39.406.088-.564.642-1.293 1.122-2.034 1.547s-1.522.782-2.31 1.12c-1.595.642-3.236 1.15-4.903 1.563l-.74.166c8.02 1.486 12.69 2.697 13.186 2.832l-2.138 8.107 1.288-.574 1.207-.574.606-.3.166-.326a20.99 20.99 0 0 0 .419-.864c.27-.59.528-1.196.767-1.818a41.72 41.72 0 0 0 1.236-3.804c.73-2.583 1.228-5.26 1.595-7.952.346-2.686.528-5.4.502-8.112-.01-1.356-.062-2.713-.176-4.06-.057-.673-.13-1.34-.213-2.01a29.83 29.83 0 0 0-.213-1.423c-1.797-1.513-3.83-2.853-5.954-4.076-2.3-1.34-4.704-2.54-7.16-3.66-2.438-1.15-4.943-2.195-7.46-3.21l-3.8-1.476-3.835-1.423c2.696.445 5.37 1.06 8.013 1.74a104.78 104.78 0 0 1 5.141 1.481c-12.1-31.658-41.07-52.272-72.685-52.272-31.622 0-60.576 20.614-72.684 52.272 1.702-.533 3.416-1.035 5.135-1.48 2.65-.678 5.322-1.294 8.02-1.74l-3.842 1.423a150.15 150.15 0 0 0-3.799 1.475zm159.43 18.316c.146 2.914.068 5.833-.258 8.733-.305 2.894-.854 5.762-1.62 8.605a45.03 45.03 0 0 1-1.404 4.198c-.275.693-.57 1.383-.9 2.07a17.74 17.74 0 0 1-.523 1.025l-.284.512c-.104.186-.187.326-.348.574l-.294.457-.46.237a34.23 34.23 0 0 1-1.342.653l-1.298.585a88.22 88.22 0 0 1-2.62 1.065l-1.662.674-1.444 5.487-1.283-.315-.078.574c1.594.833 4.726 2.522 5.793 3.403 2.148 1.775 2.3 4.587 1.823 9.84-.244 2.697-1.14 7.946-2.38 12.767-2.144 8.298-3.283 9.273-4.753 9.65a12.89 12.89 0 0 1-3.008.383c-2.266 0-5.353.063-7.43-.44-.533 1.888-2.055 6.812-5.068 12.962.15-.073.3-.135.435-.207 3.717-1.952 10.86-5.064 11.162-5.2l5.643-2.452-2.9 5.435c-.067.118-6.264 11.773-10.06 19.383-3.77 7.538-10.835 9.18-15.065 10.15l-1.733.425c-3.035.854-9.18 2.32-14.6 3.623-.064.016-.13.033-.197.042-3.335 2.06-6.974 3.9-10.955 5.41-14.568 5.518-29.923 5.208-43.844.092l-9.193 1.097a45.12 45.12 0 0 1-4.985.291c-13.264 0-20.294-6.736-25.425-13.33-5.493-7.062-12.212-17.546-12.497-17.985L31 158.426l6.585 2.96 15.205 7 .642-.186c-4.457-6.357-8.112-13.605-10.695-21.634-2.195.662-5.576 1.175-8.206 1.175-.96 0-1.822-.072-2.484-.228-1.47-.336-3.148-1.754-5.43-9.795-1.325-4.668-2.314-9.764-2.603-12.387-.57-5.12-.466-7.864 1.662-9.636 1.283-1.07 5.61-3.344 6.507-3.81l-.192-1.58c-13.75 8.08-21.99 15.22-22.157 15.366L0 134.302l7.005-11.047c5.544-8.755 11.948-15.832 17.84-21.284l-.7-.294-1.3-.585c-.445-.208-.85-.4-1.34-.653l-.46-.237-.295-.457c-.166-.25-.238-.388-.347-.574l-.3-.512-.518-1.025a30.88 30.88 0 0 1-.89-2.071 44.74 44.74 0 0 1-1.404-4.198c-.77-2.843-1.315-5.7-1.62-8.605-.32-2.9-.404-5.82-.26-8.733a51.71 51.71 0 0 1 .419-4.354c.104-.725.213-1.45.358-2.17a31.83 31.83 0 0 1 .518-2.221l.155-.564.404-.317c2.294-1.802 4.768-3.163 7.284-4.37a78.87 78.87 0 0 1 6.311-2.616c5.943-16.493 16.162-31.118 29.59-41.31C74.337 5.57 90.664 0 107.67 0s33.334 5.57 47.218 16.106c13.43 10.193 23.65 24.82 29.588 41.307 2.133.787 4.24 1.64 6.316 2.62 2.515 1.206 5 2.567 7.283 4.37l.404.317.156.564a26.98 26.98 0 0 1 .517 2.221 32.8 32.8 0 0 1 .357 2.17 48.1 48.1 0 0 1 .419 4.352zm-11.995 48.03c.456-5.052.058-6.14-.455-6.554-.513-.43-2.247-1.412-3.935-2.33l-2.78 19.464a1.39 1.39 0 0 1-.58.942l-3.977 2.78c-.315 1.593-.43 2.345-.817 3.903 2.273.528 6 .938 7.775.595 1.612-1.748 4.214-12.6 4.768-18.802zm-5.16-17.648l2.977-11.3c-4.318-.978-12.27-2.615-23.1-4.148-5.53 3.976-11.582 7.155-17.53 9.69 18.2 1.77 31.57 4.406 37.653 5.747zm-4.68 27.237l3.385-23.676-5.73-1.17-3.06 21.422c-.057.378-.265.725-.575.943l-11.472 8.023a1.39 1.39 0 0 1-.947.243l-34.572-3.93a1.39 1.39 0 0 1-1.176-.973l-6.227-20.5c-1.668-.43-5.95-1.43-9.696-1.43-3.764 0-8.04 1-9.708 1.43l-6.228 20.5a1.39 1.39 0 0 1-.682.822c-.104.057-.223.098-.343.125L56.5 141.17c-.11.022-.202.033-.306.033a1.36 1.36 0 0 1-.792-.25l-11.467-8.03c-.32-.223-.534-.575-.585-.968l-3.09-25.072-3.48.703-2.174 1.213 3.28 26.568 16.666 11.675 42.047-9.354 6.207-20.45a1.39 1.39 0 0 1 1.108-.975c1.574-.253 2.95-.382 4.116-.382 1.153 0 2.536.13 4.105.382.528.083.957.46 1.108.975l6.366 20.956 42.282 4.808 16.21-11.357zm-8.07-4.41l2.992-20.948c-8.44-1.536-20.78-3.394-35.897-4.554-13.647 4.707-25.077 6.108-25.766 6.155l-.797.057c4.353.374 8.454 1.544 8.66 1.605.452.135.804.48.944.933l6.186 20.366 33.138 3.764 10.54-7.378zm2.303 11.845l-1.404.983-7.874 5.52c-.28.192-.62.28-.954.243l-43.712-4.97a1.39 1.39 0 0 1-1.171-.977l-6.377-20.998c-1.066-.145-2.014-.22-2.8-.22-.81 0-1.75.073-2.817.22l-6.192 20.392c-.145.476-.538.84-1.025.946L54.555 149.9a1.61 1.61 0 0 1-.305.03c-.28 0-.56-.083-.798-.253l-1.578-1.098-4.726-3.307v-.01l-1.9-1.335c.135.43.29.85.44 1.268l-.006.006c.368 1.092 4.028 11.622 11.467 21.93l17.057-5.234c4.488-6.917 10.877-13.777 15.418-14.014a51.12 51.12 0 0 1 2.402-.061 53.64 53.64 0 0 1 6.31.393c-1.67-1.517-2.013-3.298-2.256-4.085 0 0 5.793 4.53 13.17 3.584 7.378-.953 11.96-5.204 11.96-5.204s-.02 3.102-3.236 5.503c6.182-1.87 8.74-2.51 10.49-2.51 1.93 0 2.883.808 3.717 1.52.16.13.322.268.507.42l12.14 9.614 11.943 1.283c2.23.2 4.245.372 6.217.372.637 0 1.233-.026 1.797-.063 2.558-4.88 4.857-10.41 6.808-16.653a82.67 82.67 0 0 0 .743-2.901zm-15.034-51.593c-.01-.006-.02-.012-.03-.012l-9.826-.65-13.667-.668a72.95 72.95 0 0 1-1.574 2.225c-2.48 3.355-7.398 9.5-13.704 14.73 8.926-1.6 24.41-5.56 37.803-14.905l1-.718zm-29.876.926l1.044-1.34a112.16 112.16 0 0 0-9.67 1.408c-10.814 2.024-20.8 5.39-29.1 8.837a383.26 383.26 0 0 1 18.54-.455c3.908 0 7.708.067 11.404.176 3.18-3.056 5.86-6.182 7.792-8.626zm3.587 102.085c-4.503-.332-8.598-2.205-11.903-5.477l-.502-.512a44.25 44.25 0 0 1-4.881.704c-.698.026-1.36.087-2.09.087l-1.083.01-.413-.01c-4.396 6.54-14.16 7.813-14.605 7.87-.403.046-.734.103-1.19.186 5.442 1.49 10.996 2.138 16.474 1.77 5.492-.367 12.627-1.558 20.195-4.628zm-17.4-7.46c1.056-.083 2.117-.218 3.184-.378a138.96 138.96 0 0 1-3.568-3.857l-1.92 4.34h.243c.658.001 1.378-.07 2.06-.104zm-3.354-78.632c1.827-1.103 3.582-2.366 5.25-3.712l-7.278-.072a376.29 376.29 0 0 0-28.189 1.061c-8.6 4.21-13.875 7.672-13.998 7.76l-8.268 5.514 5.68-8.15c.937-1.353 1.93-2.636 2.956-3.857-9.536 1.066-17.477 2.33-23.4 3.422l3.038 24.632 10.453 7.32 33.184-7.378 6.212-20.464c.104-.337.33-.62.627-.793a1.13 1.13 0 0 1 .315-.14c.192-.052 3.5-1 7.336-1.465l6.094-3.68zm3.816-18.788l-6.938-.062-10.19.11-6.27 2.97c-.005.005-.04.02-.088.048-.942.46-9.174 4.613-16.92 12.02 6.943-3.65 17.146-8.418 29.153-12.115 3.597-1.102 7.366-2.118 11.25-2.972zM70.25 98.76c3.25-3.225 6.605-5.886 9.567-7.967-11.415 2.65-21.923 6.543-31.128 10.778 5.99-.968 13.242-1.977 21.56-2.81zm2.16-9.95c3.825-1.072 7.77-2.01 11.813-2.796l-17.393.808-10.065.667-5.007.445c-.476.046-.942.098-1.418.16-4.37 2.614-21.127 13.134-32.63 26.89 11.18-7.77 30.654-19.443 54.7-26.173zM41.56 143.01a68.86 68.86 0 0 1-.621-2.102l-5.162-3.612a1.39 1.39 0 0 1-.586-.969l-2.516-20.45c-1.864 1-4.017 2.225-4.592 2.707-.497.41-.875 1.46-.336 6.332.668 6 3.712 17.333 5.348 18.98 1.968.347 6.327-.258 8.465-.886zm-3.815-51.36l-7.05 1.47.83 3.127a103.93 103.93 0 0 1 6.222-4.597z" fill="#2d3136"/></g><defs ><path id="B" d="M63.84 128.44c2.357-1.274 5.02-1.085 9.2-1.08l1.4-.005 1.258-.022c4.296-.042 7.87.366 7.806-6.38s-3.062-12.198-7.354-12.155c-4.297.037-8.454 5.564-8.197 12.306.07 1.756.328 3.023.742 3.937-3.745.938-4.777 3.254-4.835 3.4zm51.657-27.75c-1.665 1.35-3.42 2.6-5.25 3.712l-6.097 3.68c-3.824.466-7.143 1.412-7.33 1.467-.112.03-.22.08-.317.14-.296.17-.52.455-.63.794l-6.21 20.46-33.185 7.38-10.452-7.32-3.04-24.634c5.936-1.1 13.874-2.352 23.4-3.42-1.022 1.225-2.014 2.508-2.955 3.855l-5.677 8.15 8.266-5.51c.123-.086 5.387-3.55 13.998-7.76 8.582-.644 18.053-1.06 28.188-1.06l7.28.07z"/><path id="C" d="M151.835 125.675c-.042-.16-.945-2.873-4.942-2.397.46-1.003.666-2.356.52-4.2-.528-6.73-4.443-12.08-8.735-11.93s-7.042 5.73-6.805 12.478c.236 6.74 3.84 6.694 8.132 6.543 5.77-.107 8.94-1.88 11.83-.483zm21.18-19.385l-2.992 20.944-10.54 7.38-33.14-3.766-6.183-20.363a1.41 1.41 0 0 0-.945-.934c-.205-.06-4.308-1.23-8.66-1.607l.795-.053c.687-.05 12.118-1.45 25.767-6.157 15.115 1.16 27.458 3.02 35.897 4.557z"/></defs></svg>