<svg width="38" height="54" viewBox="0 0 38 54" fill="none" xmlns="http://www.w3.org/2000/svg">
  <path d="M19 45.25L34.106 52.7889C35.094 53.2828 36.2953 52.8824 36.7893 51.8944C37.2833 50.9065 36.8828 49.7051 35.8949 49.2111L23.4726 43L35.8949 36.7889C36.8828 36.2949 37.2833 35.0935 36.7893 34.1056C36.2953 33.1176 35.094 32.7172 34.106 33.2111L27.1865 36.6709C28.7839 34.7768 30.3439 32.8558 31.8377 30.8954C34.8548 26.9359 37.0004 22.9702 37.0004 18.1397C37.0004 8.57097 28.836 1 19.0004 1C9.16491 1 1.00044 8.57097 1.00044 18.1397C1.00044 22.9458 3.03297 26.9028 6.01971 30.8835C7.47534 32.8236 9.01568 34.7098 10.6002 36.5638L3.89487 33.2111C2.90691 32.7172 1.70556 33.1176 1.21158 34.1056C0.717605 35.0935 1.11805 36.2949 2.10601 36.7889L14.5283 43L2.10601 49.2111C1.11805 49.7051 0.717605 50.9065 1.21158 51.8944C1.70556 52.8824 2.90691 53.2828 3.89487 52.7889L19 45.25Z" fill="white"/>
  <path d="M19 45.8088L4.11847 53.2361L19 45.8088ZM19 45.8088L33.8824 53.2361L19 45.8088ZM37.2365 52.118C36.6191 53.3529 35.1176 53.8535 33.8827 53.2362L37.2365 52.118ZM37.2365 52.118C37.854 50.8831 37.3534 49.3814 36.1185 48.7639M37.2365 52.118L36.1185 48.7639M36.1185 48.7639L24.5906 43M36.1185 48.7639L24.5906 43M24.5906 43L36.1185 37.2361C37.3534 36.6186 37.854 35.1169 37.2365 33.882C36.619 32.647 35.1173 32.1465 33.8824 32.7639L29.0982 35.156C30.1679 33.8532 31.2168 32.5353 32.2354 31.1985C35.2773 27.2064 37.5004 23.1327 37.5004 18.1397C37.5004 8.26828 29.0848 0.5 19.0004 0.5C8.91609 0.5 0.500438 8.26828 0.500438 18.1397C0.500438 23.1022 2.60462 27.165 5.61977 31.1836C6.60055 32.4908 7.61889 33.7728 8.66219 35.0358L4.11847 32.7639C2.88353 32.1465 1.38184 32.647 0.76437 33.882C0.146897 35.1169 0.647457 36.6186 1.8824 37.2361L13.4103 43L1.8824 48.7639C0.647459 49.3814 0.146896 50.8831 0.76437 52.118C1.38179 53.3529 2.88326 53.8535 4.11815 53.2362L24.5906 43Z" stroke="black" stroke-opacity="0.45" stroke-miterlimit="1.4875"/>
  <path d="M3 18.1397C3 9.77825 10.1634 3 19 3C27.8366 3 35 9.77825 35 18.1397C35 26.5011 27.6573 32.2744 19 43C9.98414 32.2744 3 26.5011 3 18.1397Z" fill="#FA541C"/>
  <path d="M23 41L35 35M23 45L35 51M3 35L15 41M3 51L15 45" stroke="#FA541C" stroke-width="2" stroke-linecap="round" stroke-dasharray="4 4"/>
  <g clip-path="url(#clip0_975_3725)">
  <path d="M24.7813 15.2535V13.2519C24.7813 12.9753 24.5578 12.7519 24.2813 12.7519H13.7188C13.4422 12.7519 13.2188 12.9753 13.2188 13.2519V15.2535C12.9578 15.2691 12.75 15.4863 12.75 15.7519V17.8097C12.749 18.1879 12.8256 18.5623 12.975 18.9097C13.0422 19.0691 13.125 19.2191 13.2188 19.3613V24.7519C13.2188 25.0269 13.4422 25.2519 13.7188 25.2519H24.2813C24.5578 25.2519 24.7813 25.0285 24.7813 24.7519V19.3613C24.8765 19.2187 24.9581 19.0675 25.025 18.9097C25.1734 18.5613 25.25 18.191 25.25 17.8097V15.7519C25.25 15.4863 25.0422 15.2691 24.7813 15.2535ZM14.3438 13.8769H23.6563V15.2519H14.3438V13.8769ZM20 24.1285H18V22.5019H20V24.1285ZM23.6563 24.1285H21V22.0019C21 21.7253 20.7766 21.5019 20.5 21.5019H17.5C17.2234 21.5019 17 21.7253 17 22.0019V24.1285H14.3438V20.3441C14.3891 20.366 14.4359 20.3878 14.4844 20.4066C14.8328 20.5535 15.2031 20.6269 15.5844 20.6269C15.9656 20.6269 16.3344 20.5535 16.6844 20.4066C16.9 20.316 17.1031 20.2003 17.2891 20.0613C17.2922 20.0597 17.2953 20.0597 17.2984 20.0613C17.485 20.2009 17.6881 20.3169 17.9031 20.4066C18.2516 20.5535 18.6219 20.6269 19.0031 20.6269C19.3844 20.6269 19.7531 20.5535 20.1031 20.4066C20.3188 20.316 20.5219 20.2003 20.7078 20.0613C20.7109 20.0597 20.7141 20.0597 20.7172 20.0613C20.9037 20.2009 21.1068 20.3169 21.3219 20.4066C21.6703 20.5535 22.0406 20.6269 22.4219 20.6269C22.8031 20.6269 23.1719 20.5535 23.5219 20.4066C23.5688 20.3863 23.6156 20.366 23.6625 20.3441V24.1285H23.6563ZM24.125 17.8097C24.125 18.7441 23.3594 19.5019 22.4172 19.5019C21.7797 19.5019 21.2234 19.1566 20.9297 18.6441C20.8844 18.566 20.8031 18.5175 20.7125 18.5175H20.7031C20.6141 18.5175 20.5313 18.566 20.4859 18.6441C20.336 18.9055 20.1196 19.1226 19.8586 19.2733C19.5976 19.4239 19.3014 19.5028 19 19.5019C18.3641 19.5019 17.8094 19.1581 17.5156 18.6472C17.4688 18.5675 17.3844 18.5175 17.2922 18.5175C17.2 18.5175 17.1141 18.5675 17.0688 18.6472C16.918 18.9076 16.7013 19.1238 16.4404 19.2738C16.1795 19.4238 15.8838 19.5025 15.5828 19.5019C14.6406 19.5019 13.875 18.7441 13.875 17.8097V16.3847C13.875 16.38 13.8781 16.3769 13.8828 16.3769H24.1172C24.1219 16.3769 24.125 16.38 24.125 16.3847V17.8097Z" fill="white"/>
  </g>
  <defs>
  <clipPath id="clip0_975_3725">
  <rect width="14" height="14" fill="white" transform="translate(12 12)"/>
  </clipPath>
  </defs>
  </svg>
  