<svg width="32" height="40" viewBox="0 0 32 40" fill="none" xmlns="http://www.w3.org/2000/svg">
  <path d="M0 15.1397C0 6.77825 7.16345 1.18171e-06 16 0C24.8366 -1.18171e-06 32 6.77825 32 15.1397C32 23.5011 24.6573 29.2744 16 40C6.98414 29.2744 0 23.5011 0 15.1397Z" fill="#FA541C"/>
  <g clip-path="url(#clip0_942_4854)">
  <path d="M21.7815 12.2535V10.2519C21.7815 9.97533 21.5581 9.75189 21.2815 9.75189H10.719C10.4424 9.75189 10.219 9.97533 10.219 10.2519V12.2535C9.95807 12.2691 9.75025 12.4863 9.75025 12.7519V14.8097C9.74925 15.1879 9.82583 15.5623 9.97525 15.9097C10.0424 16.0691 10.1253 16.2191 10.219 16.3613V21.7519C10.219 22.0269 10.4424 22.2519 10.719 22.2519H21.2815C21.5581 22.2519 21.7815 22.0285 21.7815 21.7519V16.3613C21.8767 16.2187 21.9583 16.0675 22.0253 15.9097C22.1737 15.5613 22.2503 15.191 22.2503 14.8097V12.7519C22.2503 12.4863 22.0424 12.2691 21.7815 12.2535ZM11.344 10.8769H20.6565V12.2519H11.344V10.8769ZM17.0003 21.1285H15.0003V19.5019H17.0003V21.1285ZM20.6565 21.1285H18.0003V19.0019C18.0003 18.7253 17.7768 18.5019 17.5003 18.5019H14.5003C14.2237 18.5019 14.0003 18.7253 14.0003 19.0019V21.1285H11.344V17.3441C11.3893 17.366 11.4362 17.3878 11.4846 17.4066C11.8331 17.5535 12.2034 17.6269 12.5846 17.6269C12.9659 17.6269 13.3346 17.5535 13.6846 17.4066C13.9003 17.316 14.1034 17.2003 14.2893 17.0613C14.2924 17.0597 14.2956 17.0597 14.2987 17.0613C14.4852 17.2009 14.6883 17.3169 14.9034 17.4066C15.2518 17.5535 15.6221 17.6269 16.0034 17.6269C16.3846 17.6269 16.7534 17.5535 17.1034 17.4066C17.319 17.316 17.5221 17.2003 17.7081 17.0613C17.7112 17.0597 17.7143 17.0597 17.7174 17.0613C17.904 17.2009 18.1071 17.3169 18.3221 17.4066C18.6706 17.5535 19.0409 17.6269 19.4221 17.6269C19.8034 17.6269 20.1721 17.5535 20.5221 17.4066C20.569 17.3863 20.6159 17.366 20.6628 17.3441V21.1285H20.6565ZM21.1253 14.8097C21.1253 15.7441 20.3596 16.5019 19.4174 16.5019C18.7799 16.5019 18.2237 16.1566 17.9299 15.6441C17.8846 15.566 17.8034 15.5175 17.7128 15.5175H17.7034C17.6143 15.5175 17.5315 15.566 17.4862 15.6441C17.3363 15.9055 17.1198 16.1226 16.8588 16.2733C16.5978 16.4239 16.3016 16.5028 16.0003 16.5019C15.3643 16.5019 14.8096 16.1581 14.5159 15.6472C14.469 15.5675 14.3846 15.5175 14.2924 15.5175C14.2003 15.5175 14.1143 15.5675 14.069 15.6472C13.9182 15.9076 13.7015 16.1238 13.4406 16.2738C13.1798 16.4238 12.884 16.5025 12.5831 16.5019C11.6409 16.5019 10.8753 15.7441 10.8753 14.8097V13.3847C10.8753 13.38 10.8784 13.3769 10.8831 13.3769H21.1174C21.1221 13.3769 21.1253 13.38 21.1253 13.3847V14.8097Z" fill="white"/>
  </g>
  <defs>
  <clipPath id="clip0_942_4854">
  <rect width="14" height="14" fill="white" transform="translate(9 9)"/>
  </clipPath>
  </defs>
  </svg>
  