<svg width="60" height="16" viewBox="0 0 60 16" fill="none" xmlns="http://www.w3.org/2000/svg">
<path d="M25.4118 4.77888H23.9475C23.8883 4.77764 23.832 4.75401 23.7902 4.71293C23.7484 4.67186 23.7243 4.6165 23.7231 4.55842V4.29257C23.7225 3.18323 24.2362 2.62856 25.2641 2.62856C25.6045 2.62487 25.9418 2.69171 26.2541 2.8247C26.3036 2.8467 26.3571 2.85844 26.4114 2.85919C26.4657 2.85994 26.5196 2.8497 26.5697 2.82908C26.6197 2.80847 26.665 2.77795 26.7025 2.7394C26.74 2.70085 26.7691 2.65512 26.7878 2.60505L27.4057 0.930508C27.4396 0.839266 27.4377 0.738904 27.4003 0.648994C27.3629 0.559083 27.2928 0.48607 27.2036 0.444193C26.94 0.320844 26.6633 0.226258 26.3787 0.16213C25.9052 0.0530733 25.4204 -0.00132959 24.9341 2.46718e-05C23.5009 -0.000515678 22.3899 0.383405 21.6012 1.15178C20.8126 1.92016 20.4182 2.95844 20.4182 4.26663V14.3358C20.4182 14.7771 20.5967 15.2003 20.9143 15.5124C21.2319 15.8245 21.6627 15.9998 22.1119 15.9998C22.3343 15.9998 22.5545 15.9567 22.76 15.8731C22.9655 15.7895 23.1522 15.6669 23.3095 15.5124C23.4668 15.3579 23.5915 15.1745 23.6766 14.9726C23.7618 14.7707 23.8056 14.5543 23.8056 14.3358V7.56303C23.8056 7.50349 23.8296 7.44638 23.8725 7.40428C23.9153 7.36217 23.9735 7.33852 24.0341 7.33852H25.4118C25.7573 7.33852 26.0886 7.20368 26.3329 6.96367C26.5772 6.72365 26.7144 6.39813 26.7144 6.0587C26.7144 5.71927 26.5772 5.39374 26.3329 5.15373C26.0886 4.91372 25.7573 4.77888 25.4118 4.77888Z" fill="#1890FF"/>
<path d="M45.8942 9.81245C45.8942 8.09252 45.3731 6.74164 44.3309 5.75982C43.2887 4.77855 41.8411 4.28818 39.9882 4.28872C38.1353 4.28926 36.6877 4.7799 35.6455 5.76064C34.6033 6.74137 34.0822 8.09225 34.0822 9.81326V14.336C34.0822 14.7773 34.2606 15.2006 34.5783 15.5126C34.8959 15.8247 35.3267 16 35.7759 16C36.2251 16 36.6559 15.8247 36.9735 15.5126C37.2911 15.2006 37.4695 14.7773 37.4695 14.336V9.92025C37.469 8.97032 37.6788 8.25219 38.099 7.76587C38.5192 7.27956 39.1343 7.0364 39.9445 7.0364C40.77 7.03964 41.3962 7.2828 41.8229 7.76587C42.2497 8.24895 42.4631 8.96707 42.4631 9.92025V14.3352C42.4631 14.7765 42.6416 15.1997 42.9592 15.5118C43.2768 15.8239 43.7076 15.9992 44.1568 15.9992H44.2005C44.6497 15.9992 45.0805 15.8239 45.3981 15.5118C45.7158 15.1997 45.8942 14.7765 45.8942 14.3352V9.81245Z" fill="#1890FF"/>
<path fill-rule="evenodd" clip-rule="evenodd" d="M58.4585 10.9648H50.7302C50.7023 10.9648 50.6748 10.9712 50.6498 10.9835C50.6249 10.9958 50.6032 11.0136 50.5865 11.0355C50.5698 11.0575 50.5585 11.0829 50.5535 11.1099C50.5485 11.1368 50.55 11.1646 50.5578 11.1909C50.733 11.7843 51.1119 12.2998 51.6302 12.6498C52.2215 13.0621 52.9587 13.2683 53.842 13.2683C54.3933 13.2777 54.9417 13.1873 55.4598 13.0016C55.6179 12.9418 55.7715 12.8708 55.9193 12.7892C56.4415 12.5023 57.1922 12.6053 57.5981 13.0373L57.6162 13.0567C57.7539 13.2039 57.8562 13.3796 57.9155 13.5708C57.9748 13.7621 57.9896 13.9639 57.9589 14.1615C57.9282 14.3591 57.8527 14.5475 57.738 14.7126C57.6233 14.8777 57.4723 15.0153 57.2962 15.1155C56.3403 15.6617 55.16 15.9349 53.7554 15.9349C52.4354 15.9349 51.27 15.6826 50.2591 15.1779C49.2893 14.7118 48.4756 13.9824 47.9145 13.0762C47.3646 12.1808 47.0896 11.1639 47.0896 10.0254C47.0744 8.95828 47.3559 7.90736 47.9038 6.98589C48.4367 6.09227 49.2111 5.36115 50.1411 4.87366C51.0893 4.36951 52.1491 4.11744 53.3206 4.11744C54.464 4.11744 55.4991 4.35898 56.4258 4.84205C57.3411 5.31571 58.0986 6.03793 58.6079 6.92267C59.1364 7.82559 59.4007 8.87441 59.4007 10.0691V10.0805C59.3904 10.3189 59.2866 10.5442 59.1109 10.7091C58.9353 10.874 58.7015 10.9656 58.4585 10.9648ZM51.41 7.27443C50.9503 7.65424 50.633 8.174 50.5083 8.75121C50.5007 8.78384 50.5007 8.81772 50.5083 8.85034C50.5159 8.88296 50.5309 8.91348 50.5521 8.93964C50.5734 8.9658 50.6003 8.98693 50.631 9.00145C50.6617 9.01598 50.6953 9.02353 50.7294 9.02355H55.9358C55.9698 9.02344 56.0035 9.01578 56.0341 9.00116C56.0648 8.98653 56.0917 8.96531 56.1128 8.93907C56.134 8.91283 56.1489 8.88224 56.1563 8.84958C56.1638 8.81692 56.1637 8.78302 56.156 8.7504C56.0265 8.17866 55.7104 7.66411 55.256 7.28497C54.7346 6.85269 54.0977 6.63655 53.3453 6.63655C52.5759 6.63493 51.9308 6.84756 51.41 7.27443Z" fill="#1890FF"/>
<path fill-rule="evenodd" clip-rule="evenodd" d="M28.3983 4.98631C28.8514 4.54096 29.4659 4.29037 30.1068 4.28951C30.7478 4.29037 31.3622 4.54096 31.8153 4.98631C32.2685 5.43167 32.5233 6.03543 32.524 6.66516V13.5627C32.524 14.1926 32.2693 14.7966 31.816 15.242C31.3627 15.6874 30.7479 15.9376 30.1068 15.9376C29.4657 15.9376 28.8509 15.6874 28.3976 15.242C27.9443 14.7966 27.6896 14.1926 27.6896 13.5627V6.66516C27.6903 6.03543 27.9451 5.43167 28.3983 4.98631ZM31.3044 5.48852C30.9868 5.17646 30.556 5.00115 30.1068 5.00115C29.8844 5.00115 29.6642 5.04419 29.4587 5.12781C29.2532 5.21144 29.0665 5.33401 28.9092 5.48852C28.7519 5.64304 28.6272 5.82648 28.5421 6.02837C28.4569 6.23026 28.4131 6.44664 28.4131 6.66516V13.5627C28.4131 14.004 28.5916 14.4273 28.9092 14.7394C29.2268 15.0514 29.6576 15.2267 30.1068 15.2267C30.556 15.2267 30.9868 15.0514 31.3044 14.7394C31.622 14.4273 31.8005 14.004 31.8005 13.5627V6.66516C31.8005 6.22384 31.622 5.80059 31.3044 5.48852Z" fill="#1890FF"/>
<path d="M6.02479 6.08299C6.41005 5.44143 6.89177 4.86075 7.45365 4.36062L7.48995 4.25444C6.9675 4.16014 6.43718 4.11428 5.906 4.11746C4.0531 4.11746 2.60555 4.6081 1.56333 5.58938C0.521109 6.57065 0 7.92153 0 9.642V14.3349C0 14.7763 0.17844 15.1995 0.496065 15.5116C0.813691 15.8236 1.24448 15.999 1.69367 15.999C2.14286 15.999 2.57366 15.8236 2.89128 15.5116C3.20891 15.1995 3.38735 14.7763 3.38735 14.3349V9.74899C3.38735 8.79582 3.59717 8.07769 4.0168 7.59462C4.39299 7.16234 4.92538 6.92377 5.61396 6.87892C5.73466 6.60582 5.87185 6.34003 6.02479 6.08299Z" fill="#3FDCF7"/>
<path fill-rule="evenodd" clip-rule="evenodd" d="M18.141 10.9648H10.4127C10.3848 10.9649 10.3573 10.9713 10.3323 10.9836C10.3073 10.9959 10.2856 11.0136 10.2688 11.0356C10.252 11.0575 10.2407 11.0829 10.2356 11.1099C10.2305 11.1368 10.2318 11.1646 10.2394 11.1909C10.4152 11.7841 10.794 12.2995 11.3119 12.6499C11.9037 13.0622 12.6412 13.2683 13.5245 13.2683C14.0758 13.2777 14.6242 13.1873 15.1423 13.0016C15.3004 12.9418 15.454 12.8709 15.6018 12.7893C16.124 12.5024 16.8747 12.6053 17.2806 13.0373L17.2979 13.0568C17.4358 13.2038 17.5382 13.3795 17.5977 13.5707C17.6571 13.7619 17.6721 13.9638 17.6414 14.1614C17.6108 14.3591 17.5353 14.5475 17.4206 14.7126C17.3059 14.8777 17.1548 15.0154 16.9786 15.1155C16.0217 15.6618 14.8414 15.9349 13.4379 15.9349C12.1179 15.9349 10.9525 15.6826 9.94161 15.1779C8.97169 14.7116 8.15785 13.9823 7.5962 13.0762C7.04622 12.1809 6.77123 11.1639 6.77123 10.0254C6.75605 8.95832 7.03758 7.9074 7.58548 6.98593C8.11769 6.09315 8.89087 5.36241 9.81951 4.87451C10.7677 4.36929 11.8281 4.11694 13.0006 4.11748C14.144 4.11748 15.1791 4.35902 16.1058 4.84209C17.021 5.31601 17.7783 6.03818 18.2879 6.92271C18.8159 7.82564 19.0801 8.87446 19.0807 10.0692C19.0809 10.0713 19.0809 10.0734 19.0809 10.0755C19.0809 10.0763 19.0809 10.0772 19.0809 10.0781C19.0808 10.0789 19.0808 10.0797 19.0807 10.0805C19.0705 10.3186 18.967 10.5435 18.7919 10.7083C18.6167 10.8731 18.3835 10.965 18.141 10.9648ZM11.0924 7.27448C10.6328 7.65428 10.3154 8.17404 10.1908 8.75126C10.1832 8.78382 10.1832 8.81763 10.1908 8.85019C10.1983 8.88275 10.2132 8.91322 10.2343 8.93937C10.2555 8.96551 10.2823 8.98665 10.3129 9.00123C10.3435 9.01581 10.377 9.02345 10.411 9.02359H15.6158C15.6499 9.02348 15.6835 9.01583 15.7141 9.0012C15.7448 8.98658 15.7717 8.96536 15.7929 8.93912C15.814 8.91287 15.8289 8.88229 15.8364 8.84962C15.8438 8.81696 15.8437 8.78306 15.8361 8.75044C15.7058 8.1786 15.3892 7.66411 14.9344 7.28501C14.413 6.85273 13.7758 6.63659 13.0229 6.63659C12.2568 6.63497 11.6133 6.8476 11.0924 7.27448Z" fill="#3FDCF7"/>
<path d="M31.3953 6.62614C31.3953 7.32536 30.8184 7.89218 30.1067 7.89218C29.395 7.89218 28.8181 7.32536 28.8181 6.62614C28.8181 5.92693 29.395 5.3601 30.1067 5.3601C30.8184 5.3601 31.3953 5.92693 31.3953 6.62614Z" fill="#3FDCF7"/>
</svg>
