<svg width="124" height="24" viewBox="0 0 124 24" fill="none" xmlns="http://www.w3.org/2000/svg">
<path fill-rule="evenodd" clip-rule="evenodd" d="M82.3388 17.0449V15.7702C82.8902 16.6625 83.9936 17.2998 85.4365 17.2998C88.4074 17.2998 90.3595 14.9417 90.3595 11.7764C90.3595 8.67484 88.5982 6.31681 85.5427 6.31681C83.9936 6.31681 82.8479 6.9966 82.3811 7.74009V1.66443H79.6016V17.0449H82.3388ZM87.5371 11.7976C87.5371 13.7096 86.3914 14.7718 84.9485 14.7718C83.5269 14.7718 82.3388 13.6884 82.3388 11.7976C82.3388 9.88571 83.5269 8.84479 84.9485 8.84479C86.3914 8.84479 87.5371 9.88571 87.5371 11.7976Z" fill="white"/>
<path d="M36.4996 17.3635C33.3592 17.3635 32.2771 15.3241 32.1499 14.1344L34.5688 13.6033C34.6323 14.4318 35.2478 15.1966 36.4784 15.1966C37.4121 15.1966 37.8577 14.708 37.8577 14.1557C37.8577 13.6883 37.5393 13.3059 36.7331 13.136L35.3538 12.8173C33.338 12.3712 32.4258 11.1603 32.4258 9.69448C32.4258 7.82507 34.0807 6.27429 36.3299 6.27429C39.3004 6.27429 40.2978 8.16496 40.425 9.29088L38.0698 9.82198C37.9849 9.20588 37.5393 8.41989 36.3512 8.41989C35.6084 8.41989 35.0144 8.86597 35.0144 9.46081C35.0144 9.97067 35.3963 10.2893 35.9691 10.3955L37.4545 10.7142C39.5126 11.1391 40.5525 12.3924 40.5525 13.922C40.5525 15.6215 39.2367 17.3635 36.4996 17.3635Z" fill="white"/>
<path d="M52.2657 17.0448H49.5709C49.5284 16.8323 49.4861 16.3437 49.4861 15.9189C48.9133 16.8961 47.7033 17.321 46.6002 17.321C44.0751 17.321 42.6323 15.4727 42.6323 13.1997V6.5929H45.4543V12.6261C45.4543 13.7945 46.0486 14.7292 47.3641 14.7292C48.616 14.7292 49.3372 13.8795 49.3372 12.6686V6.5929H52.1595V15.1541C52.1595 15.9614 52.2232 16.6836 52.2657 17.0448Z" fill="white"/>
<path fill-rule="evenodd" clip-rule="evenodd" d="M57.9932 21.0811V16.0251C58.5023 16.7261 59.5634 17.2998 61.0064 17.2998C63.9556 17.2998 65.9287 14.9629 65.9287 11.7976C65.9287 8.69607 64.1678 6.35925 61.1123 6.35925C59.5424 6.35925 58.3753 7.06027 57.9084 7.86756V6.59292H55.1714V21.0811H57.9932ZM63.1492 11.8189C63.1492 13.6883 62.0035 14.7717 60.5606 14.7717C59.118 14.7717 57.9509 13.6671 57.9509 11.8189C57.9509 9.97068 59.118 8.88724 60.5606 8.88724C62.0035 8.88724 63.1492 9.97068 63.1492 11.8189Z" fill="white"/>
<path fill-rule="evenodd" clip-rule="evenodd" d="M71.1128 17.3422C68.8847 17.3422 67.5269 15.8339 67.5269 14.1982C67.5269 12.3287 68.9061 11.2878 70.646 11.0329L73.2134 10.6505C73.8076 10.5655 73.9984 10.2681 73.9984 9.90694C73.9984 9.1634 73.4255 8.54735 72.237 8.54735C71.0066 8.54735 70.3276 9.33336 70.2427 10.2468L67.739 9.71574C67.9085 8.07996 69.4152 6.27429 72.2162 6.27429C75.5261 6.27429 76.7569 8.1437 76.7569 10.2468V15.3878C76.7569 15.9401 76.8202 16.6837 76.8839 17.0448H74.2953C74.2316 16.7686 74.1891 16.1951 74.1891 15.7914C73.6588 16.6199 72.6614 17.3422 71.1128 17.3422ZM70.3487 14.0282C70.3487 14.6443 70.7945 15.2391 71.7067 15.2391C72.895 15.2391 73.9984 14.6655 73.9984 12.8173V12.35L71.6432 12.7111C70.9215 12.8173 70.3487 13.221 70.3487 14.0282Z" fill="white"/>
<path fill-rule="evenodd" clip-rule="evenodd" d="M95.543 17.3422C93.3151 17.3422 91.9573 15.8339 91.9573 14.1982C91.9573 12.3287 93.3365 11.2878 95.0764 11.0329L97.6436 10.6505C98.2378 10.5655 98.4288 10.2681 98.4288 9.90694C98.4288 9.1634 97.856 8.54735 96.6674 8.54735C95.4371 8.54735 94.7581 9.33336 94.6729 10.2468L92.1695 9.71574C92.3392 8.07996 93.8456 6.27429 96.6464 6.27429C99.9565 6.27429 101.187 8.1437 101.187 10.2468V15.3878C101.187 15.9401 101.251 16.6837 101.314 17.0448H98.7257C98.6622 16.7686 98.6195 16.1951 98.6195 15.7914C98.0894 16.6199 97.0918 17.3422 95.543 17.3422ZM94.7791 14.0282C94.7791 14.6443 95.2249 15.2391 96.1373 15.2391C97.3254 15.2391 98.4288 14.6655 98.4288 12.8173V12.35L96.0736 12.7111C95.3519 12.8173 94.7791 13.221 94.7791 14.0282Z" fill="white"/>
<path d="M103.141 14.1344C103.268 15.3241 104.35 17.3635 107.49 17.3635C110.227 17.3635 111.543 15.6215 111.543 13.922C111.543 12.3924 110.503 11.1391 108.445 10.7142L106.96 10.3955C106.387 10.2893 106.005 9.97067 106.005 9.46081C106.005 8.86597 106.599 8.41989 107.342 8.41989C108.53 8.41989 108.976 9.20588 109.061 9.82198L111.416 9.29088C111.288 8.16496 110.291 6.27429 107.321 6.27429C105.071 6.27429 103.417 7.82507 103.417 9.69448C103.417 11.1603 104.329 12.3712 106.345 12.8173L107.724 13.136C108.53 13.3059 108.848 13.6883 108.848 14.1557C108.848 14.708 108.403 15.1966 107.469 15.1966C106.238 15.1966 105.623 14.4318 105.56 13.6033L103.141 14.1344Z" fill="white"/>
<path fill-rule="evenodd" clip-rule="evenodd" d="M118.396 14.9417C119.712 14.9417 120.433 14.2831 120.773 13.3484L123.128 14.0494C122.597 15.8552 120.942 17.3635 118.375 17.3635C115.51 17.3635 112.985 15.3028 112.985 11.7764C112.985 8.44111 115.447 6.27429 118.12 6.27429C121.346 6.27429 123.276 8.33489 123.276 11.6914C123.276 11.9961 123.252 12.3129 123.24 12.4682C123.237 12.5186 123.234 12.552 123.234 12.5624H115.765C115.829 13.9432 116.996 14.9417 118.396 14.9417ZM118.163 8.56856C116.699 8.56856 115.892 9.67327 115.829 10.6292H120.497C120.454 9.58829 119.775 8.56856 118.163 8.56856Z" fill="white"/>
<path d="M13.5256 23.3784C12.9183 24.1432 11.6869 23.7241 11.6722 22.7476L11.4583 8.46411H21.0624C22.802 8.46411 23.7722 10.4733 22.6905 11.8357L13.5256 23.3784Z" fill="url(#paint0_linear_5_653)"/>
<path d="M13.5256 23.3784C12.9183 24.1432 11.6869 23.7241 11.6722 22.7476L11.4583 8.46411H21.0624C22.802 8.46411 23.7722 10.4733 22.6905 11.8357L13.5256 23.3784Z" fill="url(#paint1_linear_5_653)" fill-opacity="0.2"/>
<path d="M9.61961 0.395012C10.2269 -0.369887 11.4584 0.0492226 11.473 1.0258L11.5668 15.3092H2.08279C0.343162 15.3092 -0.62706 13.3 0.454692 11.9376L9.61961 0.395012Z" fill="#3ECF8E"/>
<defs>
<linearGradient id="paint0_linear_5_653" x1="11.4583" y1="11.6311" x2="19.9941" y2="15.211" gradientUnits="userSpaceOnUse">
<stop stop-color="#249361"/>
<stop offset="1" stop-color="#3ECF8E"/>
</linearGradient>
<linearGradient id="paint1_linear_5_653" x1="7.6739" y1="6.44966" x2="11.5667" y2="13.7776" gradientUnits="userSpaceOnUse">
<stop/>
<stop offset="1" stop-opacity="0"/>
</linearGradient>
</defs>
</svg>
