<svg width="1920" height="288" viewBox="0 0 1920 288" fill="none" xmlns="http://www.w3.org/2000/svg">
<path d="M654.178 111C430.163 93.3488 211.554 56.4735 0 2.02344V287H1920V2.02344C1708.45 56.4735 1489.84 93.3488 1265.82 111H1257.13C1246.43 111 1236.43 105.653 1230.5 96.7504L1185.5 29.2496C1179.56 20.3473 1169.57 15 1158.87 15H761.126C750.427 15 740.435 20.3472 734.5 29.2496L689.5 96.7504C683.565 105.653 673.573 111 662.874 111H654.178Z" fill="#0A0A29"/>
<path d="M0.124629 1.53922L-0.5 1.37845V2.02344V287V287.5H0H1920H1920.5V287V2.02344V1.37845L1919.88 1.53922C1708.36 55.9806 1489.78 92.8505 1265.8 110.5H1257.13C1246.59 110.5 1236.76 105.236 1230.92 96.473L1185.92 28.9723C1179.89 19.9308 1169.74 14.5 1158.87 14.5H761.126C750.259 14.5 740.112 19.9308 734.084 28.9722L689.084 96.4731C683.242 105.236 673.406 110.5 662.874 110.5H654.197C430.218 92.8505 211.644 55.9806 0.124629 1.53922Z" stroke="url(#paint0_radial_736_21771)" stroke-opacity="0.2"/>
<defs>
<radialGradient id="paint0_radial_736_21771" cx="0" cy="0" r="1" gradientUnits="userSpaceOnUse" gradientTransform="translate(960 2.02344) rotate(90) scale(284.977 632.008)">
<stop stop-color="white"/>
<stop offset="1" stop-color="white" stop-opacity="0"/>
</radialGradient>
</defs>
</svg>
