<svg width="20" height="16" viewBox="0 0 20 16" fill="none" xmlns="http://www.w3.org/2000/svg">
  <g clip-path="url(#clip0_3606_9591)">
  <path fill-rule="evenodd" clip-rule="evenodd" d="M0.500126 0L0.500012 2.71691L5.0002 5.41691L9.50001 2.7169L9.50013 0H10.5001L10.5 2.71691L15 5.41691L19.5 2.7169V0H20V3.58309L15.5 6.2831V10.7169L20 13.4169V16H19.5V14.2831L15 11.5831L10.5002 14.2831L10.5001 16H9.50013L9.5002 14.2831L5.00001 11.5831L0.500199 14.2831L0.500126 16H0V13.4168L4.50001 10.7169L4.5002 6.28309L1.09673e-05 3.58309L0 0H0.500126ZM5.5002 6.2831L10 3.5831L14.5 6.2831V10.7169L10.0002 13.4169L5.50001 10.7169L5.5002 6.2831Z" fill="white"/>
  </g>
  <defs>
  <clipPath id="clip0_3606_9591">
  <rect width="20" height="16" fill="white"/>
  </clipPath>
  </defs>
  </svg>