<svg width="360" height="158" viewBox="0 0 360 158" fill="none" xmlns="http://www.w3.org/2000/svg">
<path d="M180 148.333V1M180 148.333C193.966 148.333 207.747 148.352 221.299 148.39M180 148.333C166.034 148.333 152.253 148.352 138.701 148.39M312 1L221.299 148.39M444 1L262.386 148.561M48 1L138.701 148.39M-84.0001 1L97.6139 148.561M-180 157C-180 155.996 -172.909 155.032 -159.867 154.135C-151.942 153.59 -141.819 153.07 -129.755 152.581M540 157C540 155.996 532.909 155.032 519.867 154.135C511.942 153.59 501.819 153.07 489.755 152.581C479.775 152.177 468.466 151.793 455.974 151.435M455.974 151.435C444.843 151.115 432.772 150.815 419.863 150.537M455.974 151.435L540 131.929M419.863 150.537C407.952 150.281 395.329 150.043 382.073 149.826M419.863 150.537L540 118M382.073 149.826C369.595 149.622 356.557 149.437 343.026 149.271M382.073 149.826L540 98.5M343.026 149.271C330.126 149.113 316.779 148.973 303.041 148.853M343.026 149.271L540 69.25M303.041 148.853C289.833 148.737 276.264 148.64 262.386 148.561M303.041 148.853L540 20.5M262.386 148.561C248.964 148.486 235.252 148.428 221.299 148.39M138.701 148.39C124.748 148.428 111.036 148.486 97.6139 148.561M97.6139 148.561C83.7359 148.64 70.167 148.737 56.9588 148.853M56.9588 148.853C43.2211 148.973 29.8736 149.113 16.9743 149.271M56.9588 148.853L-180 20.5M16.9743 149.271C3.44298 149.437 -9.59504 149.622 -22.0726 149.826M16.9743 149.271L-180 69.25M-22.0726 149.826C-35.3287 150.043 -47.9523 150.281 -59.8628 150.537M-22.0726 149.826L-180 98.5M-59.8628 150.537C-87.2587 151.127 -110.882 151.816 -129.755 152.581M-59.8628 150.537L-180 118M-129.755 152.581L-180 142.375M-95.9848 151.435L-180 131.931M540 152.616C538.13 152.282 536.05 151.951 533.769 151.625C485.222 144.683 345.184 139.667 180 139.667C7.05293 139.667 -138.329 145.166 -180 152.616M540 142.538C477.388 130.613 339.739 122.333 180 122.333C20.2606 122.333 -117.388 130.613 -180 142.538M540 123.453C462.606 107.107 330.262 96.3333 180 96.3333C29.738 96.3333 -102.606 107.107 -180 123.453M540 93.9412C452.047 74.1495 323.363 61.6667 180 61.6667C36.6368 61.6667 -92.0467 74.1495 -180 93.9412M540 53.6422C444.464 31.6848 318.304 18.3333 180 18.3333C41.6961 18.3333 -84.4639 31.6848 -180 53.6422" stroke="url(#paint0_radial_691_10147)"/>
<defs>
<radialGradient id="paint0_radial_691_10147" cx="0" cy="0" r="1" gradientUnits="userSpaceOnUse" gradientTransform="translate(179.741 157) rotate(-90) scale(156 430.113)">
<stop stop-color="#4545A1"/>
<stop offset="0.776101" stop-color="#4545A1" stop-opacity="0"/>
</radialGradient>
</defs>
</svg>
