<svg width="1442" height="314" viewBox="0 0 1442 314" fill="none" xmlns="http://www.w3.org/2000/svg">
<path opacity="0.5" d="M721 18.3333V313M721 18.3333C693.068 18.3333 665.507 18.295 638.403 18.2205M721 18.3333C748.933 18.3333 776.493 18.295 803.597 18.2205M457 313L638.403 18.2205M193 313L556.228 17.8773M985 313L803.597 18.2205M1249 313L885.772 17.8773M1441 1C1441 3.00793 1426.82 4.93611 1400.73 6.72967C1384.88 7.81954 1364.64 8.8597 1340.51 9.83783M1 1C1 3.00793 15.1822 4.93612 41.2665 6.72967C57.1168 7.81954 77.3622 8.8597 101.491 9.83783C121.45 10.647 144.067 11.4136 169.052 12.1309M169.052 12.1309C191.314 12.77 215.457 13.3699 241.275 13.9256M169.052 12.1309L1 51.1429M241.275 13.9256C265.096 14.4384 290.343 14.9135 316.855 15.3472M241.275 13.9256L1 79M316.855 15.3472C341.81 15.7554 367.886 16.1269 394.949 16.4583M316.855 15.3472L1 118M394.949 16.4583C420.747 16.7743 447.442 17.054 474.918 17.2945M394.949 16.4583L1 176.5M474.918 17.2945C501.334 17.5258 528.472 17.7209 556.228 17.8773M474.918 17.2945L1 274M556.228 17.8773C583.072 18.0286 610.495 18.1438 638.403 18.2205M803.597 18.2205C831.505 18.1438 858.928 18.0286 885.772 17.8773M885.772 17.8773C913.528 17.7209 940.666 17.5258 967.082 17.2945M967.082 17.2945C994.558 17.054 1021.25 16.7743 1047.05 16.4583M967.082 17.2945L1441 274M1047.05 16.4583C1074.11 16.1269 1100.19 15.7554 1125.15 15.3472M1047.05 16.4583L1441 176.5M1125.15 15.3472C1151.66 14.9135 1176.9 14.4384 1200.73 13.9256M1125.15 15.3472L1441 118M1200.73 13.9256C1255.52 12.7463 1302.76 11.3679 1340.51 9.83783M1200.73 13.9256L1441 79M1340.51 9.83783L1441 30.25M1272.97 12.1309L1441 51.138M1 9.76753C4.74091 10.4364 8.89972 11.0973 13.4627 11.7498C110.556 25.6335 390.632 35.6667 721 35.6667C1066.89 35.6667 1357.66 24.6683 1441 9.76756M1 29.9244C126.224 53.7737 401.521 70.3333 721 70.3333C1040.48 70.3333 1315.78 53.7737 1441 29.9245M1 68.0932C155.789 100.786 420.476 122.333 721 122.333C1021.52 122.333 1286.21 100.786 1441 68.0932M1 127.118C176.907 166.701 434.274 191.667 721 191.667C1007.73 191.667 1265.09 166.701 1441 127.118M1 207.716C192.072 251.63 444.392 278.333 721 278.333C997.608 278.333 1249.93 251.63 1441 207.716" stroke="url(#paint0_radial_736_20147)"/>
<defs>
<radialGradient id="paint0_radial_736_20147" cx="0" cy="0" r="1" gradientUnits="userSpaceOnUse" gradientTransform="translate(721.518 1) rotate(90) scale(312 860.227)">
<stop stop-color="#4545A1"/>
<stop offset="0.776101" stop-color="#4545A1" stop-opacity="0"/>
</radialGradient>
</defs>
</svg>
