<svg xmlns="http://www.w3.org/2000/svg" width="4694" height="1000" fill="none">
    <path stroke="url(#a)" stroke-opacity=".3"
        d="M2347 689.333V984m0-294.667c-27.58 0-54.79-.038-81.55-.112m81.55.112c27.58 0 54.79-.038 81.55-.112M2086.33 984l179.12-294.779M1825.67 984l358.64-295.123M1565 984l539.02-295.705M1304.33 984l720.74-296.542M1043.67 984l904.29-297.653M783 984l1090.33-299.074M522.333 984 1802.02 683.131M261.667 984 1735.31 680.838M1 984l1674.85-306.27M2607.67 984l-179.12-294.779M2868.33 984l-358.64-295.123M3129 984l-539.02-295.705M3389.67 984l-720.74-296.542M3650.33 984l-904.29-297.653M3911 984 2820.67 684.926M4432.33 984 2958.69 680.838M4693 984 3018.15 677.73m39.76-5.73c0 2.008-14 3.936-39.76 5.73M1636.09 672c0 2.008 14 3.936 39.76 5.73M3081.61 672c0 19.146-328.9 34.667-734.61 34.667-405.71 0-734.61-15.521-734.61-34.667M3129 672c0 38.292-350.11 69.333-782 69.333S1565 710.292 1565 672m1635.09 0c0 67.011-381.94 121.333-853.09 121.333-471.15 0-853.09-54.322-853.09-121.333m1800.97 0c0 105.302-424.38 190.667-947.88 190.667S1399.12 777.302 1399.12 672m2014.24 0c0 153.167-477.42 277.333-1066.36 277.333-588.94 0-1066.36-124.166-1066.36-277.333m395.21 5.73c15.65 1.09 35.64 2.13 59.46 3.108m0 0c19.71.809 42.04 1.576 66.71 2.293m0 0c21.98.639 45.82 1.239 71.31 1.795m0 0c23.52.512 48.45.988 74.63 1.421m0 0c24.64.408 50.38.78 77.11 1.111m0 0c25.47.316 51.83.596 78.95.837m0 0c26.09.231 52.88.426 80.29.582m0 0c26.5.152 53.58.267 81.14.344m163.1 0c27.56-.077 54.64-.192 81.14-.344m0 0c27.41-.156 54.2-.351 80.29-.582m0 0c27.12-.241 53.48-.521 78.95-.837m0 0c26.73-.331 52.47-.703 77.11-1.111m0 0c26.18-.433 51.11-.909 74.63-1.421m0 0c54.1-1.18 100.75-2.558 138.02-4.088m0 0c23.82-.978 43.81-2.018 59.46-3.108M4171.69 984 2892 683.131">
    </path>
    <defs>
        <radialGradient id="a" cx="0" cy="0" r="1" gradientTransform="matrix(0 312 -849.365 0 2347.51 672)"
            gradientUnits="userSpaceOnUse">
            <stop stop-color="#fff"></stop>
            <stop offset=".776" stop-color="#fff" stop-opacity="0"></stop>
        </radialGradient>
    </defs>
</svg>