<svg xmlns="http://www.w3.org/2000/svg" width="24" height="24" viewBox="0 0 16 16" fill="none"><path fill="currentColor" fill-rule="evenodd" d="M8 0a3 3 0 0 0-1 5.83V7H5.5a1 1 0 0 0 0 2H7v4.9a5.01 5.01 0 0 1-3.616-2.974l.063-.032a1 1 0 0 0 .26-1.601l-2-2A1 1 0 0 0 0 8v3a1 1 0 0 0 1.447.894l.145-.072a7.001 7.001 0 0 0 12.816 0l.145.072A1 1 0 0 0 16 11V8a1 1 0 0 0-1.707-.707l-2 2a1 1 0 0 0 .26 1.601l.063.032A5.009 5.009 0 0 1 9 13.9V9h1.5a1 1 0 1 0 0-2H9V5.83A3.001 3.001 0 0 0 8 0zM7 3a1 1 0 1 1 2 0 1 1 0 0 1-2 0z" clip-rule="evenodd"/></svg>