<svg width="24" height="24" viewBox="0 0 24 24" fill="none" xmlns="http://www.w3.org/2000/svg">
<path fill-rule="evenodd" clip-rule="evenodd" d="M12 4C10.3431 4 9 5.34315 9 7C9 8.30622 9.83481 9.41746 11 9.82929V11H9.5C8.94772 11 8.5 11.4477 8.5 12C8.5 12.5523 8.94772 13 9.5 13H11V17.9C9.36247 17.5676 8.01433 16.4348 7.38403 14.926L7.44721 14.8944C7.73472 14.7507 7.9356 14.4775 7.98709 14.1602C8.03858 13.8429 7.9344 13.5202 7.70711 13.2929L5.70711 11.2929C5.42111 11.0069 4.99099 10.9213 4.61732 11.0761C4.24364 11.2309 4 11.5955 4 12V15C4 15.3466 4.17945 15.6684 4.47427 15.8507C4.76909 16.0329 5.13723 16.0494 5.44721 15.8944L5.59227 15.8219C6.67695 18.2813 9.13658 20 11.9999 20C14.8632 20 17.3229 18.2813 18.4076 15.8218L18.5528 15.8944C18.8628 16.0494 19.2309 16.0329 19.5257 15.8507C19.8205 15.6684 20 15.3466 20 15V12C20 11.5955 19.7564 11.2309 19.3827 11.0761C19.009 10.9213 18.5789 11.0069 18.2929 11.2929L16.2929 13.2929C16.0656 13.5202 15.9614 13.8429 16.0129 14.1602C16.0644 14.4775 16.2653 14.7507 16.5528 14.8944L16.6158 14.9259C15.9855 16.4347 14.6375 17.5675 13 17.8999V13H14.5C15.0523 13 15.5 12.5523 15.5 12C15.5 11.4477 15.0523 11 14.5 11H13V9.82929C14.1652 9.41746 15 8.30622 15 7C15 5.34315 13.6569 4 12 4ZM11 7C11 6.44772 11.4477 6 12 6C12.5523 6 13 6.44772 13 7C13 7.55228 12.5523 8 12 8C11.4477 8 11 7.55228 11 7Z" fill="white"/>
</svg>
