<svg width="24" height="24" viewBox="0 0 24 24" fill="none" xmlns="http://www.w3.org/2000/svg">
<path d="M15.5153 15.5153C16.3913 14.6394 17.181 13.7406 17.8701 12.8492C19.8571 15.7597 20.5865 18.3907 19.4886 19.4886C18.3907 20.5865 15.7597 19.8571 12.8492 17.8701C13.7406 17.181 14.6394 16.3913 15.5153 15.5153Z" fill="white"/>
<path d="M8.48467 15.5153C9.36062 16.3913 10.2594 17.181 11.1508 17.8701C8.24027 19.8571 5.60932 20.5865 4.5114 19.4886C3.41347 18.3907 4.14289 15.7597 6.12991 12.8492C6.81896 13.7406 7.60871 14.6394 8.48467 15.5153Z" fill="white"/>
<path d="M17.8701 11.1508C19.8571 8.24027 20.5865 5.60932 19.4886 4.5114C18.3907 3.41347 15.7597 4.14289 12.8492 6.12991C13.7406 6.81896 14.6394 7.60871 15.5153 8.48467C16.3913 9.36062 17.181 10.2594 17.8701 11.1508Z" fill="white"/>
<path d="M8.48467 8.48467C9.36062 7.60871 10.2594 6.81896 11.1508 6.12991C8.24027 4.14289 5.60932 3.41347 4.5114 4.5114C3.41347 5.60932 4.14289 8.24027 6.12991 11.1508C6.81896 10.2594 7.60871 9.36062 8.48467 8.48467Z" fill="white"/>
<path fill-rule="evenodd" clip-rule="evenodd" d="M12 8.00739C11.2998 8.57135 10.5933 9.20451 9.89888 9.89888C9.20451 10.5932 8.57135 11.2998 8.00739 12C8.57135 12.7002 9.20451 13.4068 9.89888 14.1011C10.5933 14.7955 11.2998 15.4287 12 15.9926C12.7002 15.4287 13.4068 14.7955 14.1011 14.1011C14.7955 13.4068 15.4287 12.7002 15.9926 12C15.4287 11.2998 14.7955 10.5932 14.1011 9.89888C13.4068 9.20451 12.7002 8.57135 12 8.00739ZM12.0001 13C12.5523 13 13.0001 12.5522 13.0001 12C13.0001 11.4477 12.5523 11 12.0001 11C11.4478 11 11.0001 11.4477 11.0001 12C11.0001 12.5522 11.4478 13 12.0001 13Z" fill="white"/>
</svg>
