<svg xmlns="http://www.w3.org/2000/svg" width="24" height="24" viewBox="0 0 16 16" fill="none"><g fill="currentColor"><path d="M11.515 11.515A28.069 28.069 0 0 0 13.87 8.85c1.987 2.91 2.717 5.542 1.619 6.64s-3.73.368-6.64-1.619c.892-.689 1.79-1.479 2.666-2.355zM4.485 11.515A28.075 28.075 0 0 0 7.15 13.87C4.24 15.857 1.609 16.587.51 15.49c-1.098-1.098-.368-3.73 1.619-6.64.689.892 1.479 1.79 2.355 2.666zM13.87 7.15c1.987-2.91 2.717-5.54 1.619-6.639-1.098-1.098-3.73-.368-6.64 1.619.892.689 1.79 1.479 2.666 2.355A28.075 28.075 0 0 1 13.87 7.15zM4.485 4.485A28.073 28.073 0 0 1 7.15 2.13C4.24.143 1.609-.587.51.51-.587 1.61.143 4.241 2.13 7.151c.689-.892 1.479-1.79 2.355-2.666z"/><path fill-rule="evenodd" d="M8 4.007c-.7.564-1.407 1.198-2.101 1.892S4.57 7.299 4.007 8c.564.7 1.198 1.407 1.892 2.101A26.42 26.42 0 0 0 8 11.993c.7-.564 1.407-1.197 2.101-1.892.694-.694 1.328-1.4 1.892-2.101A26.42 26.42 0 0 0 10.1 5.899 26.434 26.434 0 0 0 8 4.007zM8 9a1 1 0 1 0 0-2 1 1 0 0 0 0 2z" clip-rule="evenodd"/></g></svg>