<svg width="24" height="24" viewBox="0 0 24 24" fill="none" xmlns="http://www.w3.org/2000/svg">
<path d="M14.682 11.682C16.4393 9.92462 16.4393 7.07538 14.682 5.31802C12.9246 3.56066 10.0754 3.56066 8.31802 5.31802L5.31802 8.31802C3.56066 10.0754 3.56066 12.9246 5.31802 14.682C7.07538 16.4393 9.92462 16.4393 11.682 14.682L12.1213 14.2426L17.4393 19.5607C18.0251 20.1464 18.9749 20.1464 19.5607 19.5607C20.1464 18.9749 20.1464 18.0251 19.5607 17.4393L14.2426 12.1213L14.682 11.682Z" fill="white"/>
<path d="M4 19C4 18.4477 4.44772 18 5 18H11C11.5523 18 12 18.4477 12 19C12 19.5523 11.5523 20 11 20H5C4.44772 20 4 19.5523 4 19Z" fill="white"/>
</svg>
