<svg width="24" height="24" viewBox="0 0 24 24" fill="none" xmlns="http://www.w3.org/2000/svg">
<path d="M16 14.4722C17.2275 13.3736 18 11.777 18 10C18 6.68629 15.3137 4 12 4C8.68629 4 6 6.68629 6 10C6 11.777 6.7725 13.3736 8 14.4722C8.06007 14.526 8.12123 14.5785 8.18344 14.6299C9.2206 15.4858 10.5503 16 12 16C13.5367 16 14.9385 15.4223 16 14.4722Z" fill="white"/>
<path d="M8 19V15.7453C9.13383 16.5362 10.5128 17 12 17C13.4872 17 14.8662 16.5362 16 15.7453V19C16 19.3466 15.8205 19.6684 15.5257 19.8506C15.2309 20.0329 14.8628 20.0494 14.5528 19.8944L12 18.618L9.44721 19.8944C9.13722 20.0494 8.76909 20.0329 8.47427 19.8506C8.17945 19.6684 8 19.3466 8 19Z" fill="white"/>
</svg>
