<svg width="24" height="24" viewBox="0 0 24 24" fill="none" xmlns="http://www.w3.org/2000/svg">
<path d="M9 4C7.89543 4 7 4.89543 7 6V11C7 13.1328 8.33544 14.9538 10.2158 15.6723C10.66 15.842 11 16.2418 11 16.7174V17C11 17.5523 10.5523 18 10 18H8C7.44772 18 7 18.4477 7 19C7 19.5523 7.44772 20 8 20H16C16.5523 20 17 19.5523 17 19C17 18.4477 16.5523 18 16 18H14C13.4477 18 13 17.5523 13 17V16.7174C13 16.2418 13.34 15.842 13.7842 15.6723C15.6646 14.9538 17 13.1328 17 11V6C17 4.89543 16.1046 4 15 4H9Z" fill="white"/>
<path d="M4 7C4 6.44772 4.44772 6 5 6C5.55228 6 6 6.44772 6 7V11C6 11.5523 5.55228 12 5 12C4.44772 12 4 11.5523 4 11V7Z" fill="white"/>
<path d="M19 6C18.4477 6 18 6.44772 18 7V11C18 11.5523 18.4477 12 19 12C19.5523 12 20 11.5523 20 11V7C20 6.44772 19.5523 6 19 6Z" fill="white"/>
</svg>
