<svg width="24" height="24" viewBox="0 0 24 24" fill="none" xmlns="http://www.w3.org/2000/svg">
<path fill-rule="evenodd" clip-rule="evenodd" d="M8.00001 5C7.04665 5 6.22582 5.67292 6.03885 6.60776L4.03886 16.6077C3.92135 17.1953 4.07346 17.8046 4.45333 18.2679C4.83321 18.7313 5.40083 19 6.00001 19H18C18.5992 19 19.1668 18.7313 19.5467 18.2679C19.9265 17.8046 20.0787 17.1953 19.9611 16.6077L17.9611 6.60776C17.7742 5.67292 16.9534 5 16 5H8.00001ZM9.99999 8.99999C9.99999 8.44771 9.55227 7.99999 8.99999 7.99999C8.44771 7.99999 7.99999 8.44771 7.99999 8.99999C7.99999 11.2091 9.79085 13 12 13C14.2091 13 16 11.2091 16 8.99999C16 8.44771 15.5523 7.99999 15 7.99999C14.4477 7.99999 14 8.44771 14 8.99999C14 10.1046 13.1045 11 12 11C10.8954 11 9.99999 10.1046 9.99999 8.99999Z" fill="white"/>
</svg>
