<svg width="24" height="24" viewBox="0 0 24 24" fill="none" xmlns="http://www.w3.org/2000/svg">
<path fill-rule="evenodd" clip-rule="evenodd" d="M11.2889 4.17929C11.7328 3.94024 12.2672 3.94024 12.7111 4.17929L19.2112 7.67929C19.697 7.94091 20 8.44818 20 9V11C20 11.8284 19.3284 12.5 18.5 12.5H5.5C4.67157 12.5 4 11.8284 4 11V9C4 8.44818 4.30299 7.94091 4.78885 7.67929L11.2889 4.17929ZM12 10C12.8284 10 13.5 9.32843 13.5 8.5C13.5 7.67157 12.8284 7 12 7C11.1716 7 10.5 7.67157 10.5 8.5C10.5 9.32843 11.1716 10 12 10Z" fill="white"/>
<path d="M11 14.5C11 13.9477 11.4477 13.5 12 13.5C12.5523 13.5 13 13.9477 13 14.5V18H15V14.5C15 13.9477 15.4477 13.5 16 13.5C16.5523 13.5 17 13.9477 17 14.5V18H19C19.5523 18 20 18.4477 20 19C20 19.5523 19.5523 20 19 20H5C4.44772 20 4 19.5523 4 19C4 18.4477 4.44772 18 5 18H7V14.5C7 13.9477 7.44772 13.5 8 13.5C8.55228 13.5 9 13.9477 9 14.5V18H11V14.5Z" fill="white"/>
</svg>
