<svg width="24" height="24" viewBox="0 0 24 24" fill="none" xmlns="http://www.w3.org/2000/svg">
<path d="M10 5.5C10 4.67157 10.6716 4 11.5 4H12.5C13.3284 4 14 4.67157 14 5.5V17H10V5.5Z" fill="white"/>
<path d="M9 8.5C9 7.67157 8.32843 7 7.5 7H6.5C5.67157 7 5 7.67157 5 8.5V16C5 16.5523 5.44772 17 6 17H9V8.5Z" fill="white"/>
<path d="M19 19C19 18.4477 18.5523 18 18 18H6C5.44772 18 5 18.4477 5 19V19C5 19.5523 5.44772 20 6 20H18C18.5523 20 19 19.5523 19 19V19Z" fill="white"/>
<path d="M19 11.5C19 10.6716 18.3284 10 17.5 10H16.5C15.6716 10 15 10.6716 15 11.5V17H18C18.5523 17 19 16.5523 19 16V11.5Z" fill="white"/>
</svg>
