<svg width="24" height="24" viewBox="0 0 24 24" fill="none" xmlns="http://www.w3.org/2000/svg">
<path d="M12 4C10.8954 4 10 4.89543 10 6V6.20707C8.25946 6.76704 7 8.39955 7 10.3262V11.1366C7 12.2786 6.35478 13.3226 5.33333 13.8333C5.12904 13.9355 5 14.1443 5 14.3727V15C5 15.5523 5.44772 16 6 16H18C18.5523 16 19 15.5523 19 15V14.3727C19 14.1443 18.871 13.9355 18.6667 13.8333C17.6452 13.3226 17 12.2786 17 11.1366V10.3262C17 8.39955 15.7405 6.76704 14 6.20707V6C14 4.89543 13.1046 4 12 4Z" fill="white"/>
<path d="M9 18C9 17.4477 9.44772 17 10 17H14C14.5523 17 15 17.4477 15 18C15 19.1046 14.1046 20 13 20H11C9.89543 20 9 19.1046 9 18Z" fill="white"/>
</svg>
