<svg width="24" height="24" viewBox="0 0 24 24" fill="none" xmlns="http://www.w3.org/2000/svg">
<path fill-rule="evenodd" clip-rule="evenodd" d="M11 8.50008C11 7.11936 9.88071 6 8.5 6C7.36884 6 6.41314 6.75125 6.10463 7.78203L4.21413 13.2918C4.07562 13.6684 4 14.0754 4 14.5C4 16.433 5.567 18 7.5 18C9.43297 18 11 16.433 11 14.5001V14C11 13.4477 11.4477 13 12 13C12.5523 13 13 13.4477 13 14V14.5001C13 16.433 14.567 18 16.5 18C18.433 18 20 16.433 20 14.5C20 14.0754 19.9244 13.6684 19.7859 13.2918L17.8954 7.78203C17.5869 6.75125 16.6312 6 15.5 6C14.1193 6 13 7.11936 13 8.50008V10.1707C12.6872 10.0602 12.3506 10 12 10C11.6494 10 11.3128 10.0602 11 10.1707V8.50008ZM9 14.5C9 15.3284 8.32843 16 7.5 16C6.67157 16 6 15.3284 6 14.5C6 13.6716 6.67157 13 7.5 13C8.32843 13 9 13.6716 9 14.5ZM16.5 16C17.3284 16 18 15.3284 18 14.5C18 13.6716 17.3284 13 16.5 13C15.6716 13 15 13.6716 15 14.5C15 15.3284 15.6716 16 16.5 16Z" fill="white"/>
</svg>
