<svg xmlns="http://www.w3.org/2000/svg" width="24" height="24" viewBox="0 0 16 16" fill="none"><g fill="currentColor"><path d="M9.5 2.4C9.5 3.284 8.828 4 8 4s-1.5-.716-1.5-1.6S8 0 8 0s1.5 1.516 1.5 2.4zM2 9c0-1.134 1.258-2.12 3.114-2.63.457-.126.886.235.886.709 0 .36-.255.667-.6.768a5.848 5.848 0 0 0-.972.373c-.418.21-.674.42-.811.581a.64.64 0 0 0-.107.163A.16.16 0 0 0 3.5 9l.001.008a.16.16 0 0 0 .01.028.64.64 0 0 0 .106.163c.137.162.393.372.811.58.837.419 2.098.721 3.572.721s2.735-.302 3.572-.72c.418-.21.675-.42.811-.581a.644.644 0 0 0 .107-.163A.165.165 0 0 0 12.5 9v-.003l-.001-.005a.165.165 0 0 0-.01-.028.644.644 0 0 0-.106-.163c-.136-.162-.393-.372-.811-.58a5.848 5.848 0 0 0-.971-.374A.814.814 0 0 1 10 7.08c0-.474.43-.835.886-.71C12.742 6.88 14 7.866 14 9v4c0 1.657-2.686 3-6 3s-6-1.343-6-3z"/><path d="M8 5a1 1 0 0 0-1 1v2a1 1 0 1 0 2 0V6a1 1 0 0 0-1-1z"/></g></svg>