<svg width="24" height="24" viewBox="0 0 24 24" fill="none" xmlns="http://www.w3.org/2000/svg">
<path d="M13.5 6.4C13.5 7.28366 12.8284 8 12 8C11.1716 8 10.5 7.28366 10.5 6.4C10.5 5.51634 12 4 12 4C12 4 13.5 5.51634 13.5 6.4Z" fill="white"/>
<path d="M6 13C6 11.8662 7.25788 10.8793 9.11393 10.3692C9.57066 10.2437 10 10.6051 10 11.0787C10 11.4395 9.74546 11.7463 9.39916 11.8474C9.03351 11.9542 8.70725 12.0808 8.42818 12.2203C8.01029 12.4293 7.75353 12.6393 7.61672 12.801C7.55125 12.8784 7.52226 12.9339 7.51014 12.9635C7.50416 12.9782 7.50186 12.9874 7.50096 12.9918C7.5001 12.9961 7.5 13 7.5 13C7.5 13 7.5001 13.0039 7.50096 13.0082C7.50186 13.0126 7.50416 13.0219 7.51014 13.0365C7.52226 13.0661 7.55125 13.1216 7.61672 13.199C7.75353 13.3607 8.01029 13.5707 8.42818 13.7797C9.26479 14.198 10.5255 14.5 12 14.5C13.4745 14.5 14.7352 14.198 15.5718 13.7797C15.9897 13.5707 16.2465 13.3607 16.3833 13.199C16.4487 13.1216 16.4777 13.0661 16.4899 13.0365C16.4958 13.0219 16.4981 13.0126 16.499 13.0082C16.4999 13.0039 16.5 13 16.5 13L16.4998 12.9966L16.499 12.9918C16.4981 12.9874 16.4958 12.9782 16.4899 12.9635C16.4777 12.9339 16.4487 12.8784 16.3833 12.801C16.2465 12.6393 15.9897 12.4293 15.5718 12.2203C15.2927 12.0808 14.9665 11.9542 14.6008 11.8474C14.2545 11.7463 14 11.4395 14 11.0787C14 10.6051 14.4293 10.2437 14.8861 10.3692C16.7421 10.8793 18 11.8662 18 13V17C18 18.6569 15.3137 20 12 20C8.68629 20 6 18.6569 6 17V13Z" fill="white"/>
<path d="M12 9C11.4477 9 11 9.44772 11 10V12C11 12.5523 11.4477 13 12 13C12.5523 13 13 12.5523 13 12V10C13 9.44772 12.5523 9 12 9Z" fill="white"/>
</svg>
