<svg xmlns="http://www.w3.org/2000/svg" width="24" height="24" viewBox="0 0 16 16" fill="none"><g fill="currentColor"><path fill-rule="evenodd" d="M8.832.445a1 1 0 0 0-1.664 0l-2 3c-.694 1.041-.863 2.315-.504 3.396.37 1.115 1.312 2.015 2.705 2.132a7.556 7.556 0 0 0 1.262 0c1.393-.117 2.335-1.017 2.705-2.133.36-1.08.19-2.354-.504-3.395z" clip-rule="evenodd"/><path d="M.1 8.961A1.5 1.5 0 0 0 .962 10.9l13 5a1.5 1.5 0 1 0 1.076-2.8l-2.86-1.1 2.86-1.1a1.5 1.5 0 0 0-1.077-2.8l-5.96 2.293L2.038 8.1A1.5 1.5 0 0 0 .1 8.96zM5.932 14.402l-4.179-1.607-.791.305a1.5 1.5 0 1 0 1.077 2.8z"/></g></svg>