<svg width="24" height="24" viewBox="0 0 24 24" fill="none" xmlns="http://www.w3.org/2000/svg">
<path fill-rule="evenodd" clip-rule="evenodd" d="M12.8321 4.44529C12.6466 4.1671 12.3344 4 12 4C11.6657 4 11.3535 4.1671 11.168 4.44529L9.16805 7.4452C8.47396 8.48635 8.30471 9.75994 8.66351 10.8405C9.03397 11.9562 9.97643 12.8559 11.3687 12.9726C11.5755 12.99 11.7866 12.9998 12 12.9998C12.2135 12.9998 12.4246 12.99 12.6313 12.9726C14.0236 12.8559 14.9661 11.9562 15.3365 10.8405C15.6953 9.75994 15.5261 8.48635 14.832 7.4452L12.8321 4.44529Z" fill="white"/>
<path d="M4.10022 12.9613C3.80284 13.7345 4.18856 14.6023 4.96175 14.8997L17.9614 19.8996C18.7346 20.197 19.6024 19.8112 19.8998 19.0381C20.1972 18.2649 19.8115 17.397 19.0383 17.0996L16.1784 15.9997L19.0382 14.8998C19.8114 14.6024 20.1971 13.7345 19.8997 12.9613C19.6024 12.1881 18.7345 11.8024 17.9613 12.0998L12 14.3926L6.03866 12.0998C5.26547 11.8024 4.3976 12.1881 4.10022 12.9613Z" fill="white"/>
<path d="M9.93161 18.4023L5.75321 16.7952L4.96166 17.0997C4.18848 17.397 3.80276 18.2649 4.10014 19.0381C4.39752 19.8113 5.26538 20.197 6.03857 19.8996L9.93161 18.4023Z" fill="white"/>
</svg>
