<svg width="24" height="24" viewBox="0 0 24 24" fill="none" xmlns="http://www.w3.org/2000/svg">
<path d="M6.90983 6.07295L6.21115 6.42229C4.85601 7.09986 4 8.48491 4 10V14C4 15.5151 4.85601 16.9001 6.21115 17.5777L10.2111 19.5777C11.3373 20.1408 12.6627 20.1408 13.7889 19.5777L17.7889 17.5777C19.144 16.9001 20 15.5151 20 14V10C20 8.48491 19.144 7.09986 17.7889 6.42229L13.7889 4.42229C12.6627 3.85924 11.3373 3.85924 10.2111 4.42229L9.1459 4.95492L14.3416 7.55279C15.358 8.06096 16 9.09975 16 10.2361V14.5C16 15.0523 15.5523 15.5 15 15.5C14.4477 15.5 14 15.0523 14 14.5V10.2361C14 9.8573 13.786 9.51103 13.4472 9.34164L6.90983 6.07295Z" fill="white"/>
</svg>
