<svg xmlns="http://www.w3.org/2000/svg" width="24" height="24" viewBox="0 0 16 16" fill="none"><g fill="currentColor"><path fill-rule="evenodd" d="M4 2a2 2 0 0 1 2-2h4a2 2 0 0 1 2 2v1.5a.5.5 0 0 0 .5.5H14a2 2 0 0 1 2 2v.586l-.172.171a11.071 11.071 0 0 1-15.656 0L0 6.586V6a2 2 0 0 1 2-2h1.5a.5.5 0 0 0 .5-.5zm5.5 0a.5.5 0 0 1 .5.5v1a.5.5 0 0 1-.5.5h-3a.5.5 0 0 1-.5-.5v-1a.5.5 0 0 1 .5-.5z" clip-rule="evenodd"/><path d="M9 11.962a13.072 13.072 0 0 0 7-2.696V14a2 2 0 0 1-2 2H2a2 2 0 0 1-2-2V9.266c2.016 1.56 4.45 2.5 7 2.696V13a1 1 0 1 0 2 0z"/></g></svg>