<svg width="24" height="24" viewBox="0 0 24 24" fill="none" xmlns="http://www.w3.org/2000/svg">
<path fill-rule="evenodd" clip-rule="evenodd" d="M8 6C8 4.89545 8.89543 4 10 4H14C15.1046 4 16 4.89545 16 6V7.5C16 7.77614 16.2239 8 16.5 8H18C19.1046 8 20 8.89545 20 10V10.5858L19.8284 10.7574C17.7522 12.8336 14.9362 14 12 14C9.06377 14 6.2478 12.8336 4.17157 10.7574L4 10.5858V10C4 8.89545 4.89543 8 6 8H7.5C7.77614 8 8 7.77614 8 7.5V6ZM13.5 6C13.7761 6 14 6.22386 14 6.5V7.5C14 7.77614 13.7761 8 13.5 8H10.5C10.2239 8 10 7.77614 10 7.5V6.5C10 6.22386 10.2239 6 10.5 6H13.5Z" fill="white"/>
<path d="M13 15.9617C15.5508 15.7661 17.9842 14.8261 20 13.266V18C20 19.1046 19.1046 20 18 20H6C4.89543 20 4 19.1046 4 18V13.266C6.01577 14.8261 8.44916 15.7661 11 15.9617V17C11 17.5523 11.4477 18 12 18C12.5523 18 13 17.5523 13 17V15.9617Z" fill="white"/>
</svg>
