<svg xmlns="http://www.w3.org/2000/svg" width="24" height="24" viewBox="0 0 16 16" fill="none"><path fill="currentColor" fill-rule="evenodd" d="M16 4v.219a8 8 0 0 1-.151 1.547l-1.225 6.215A5 5 0 0 1 9.72 16H6.279a5 5 0 0 1-4.903-4.02L.151 5.769A8.01 8.01 0 0 1 0 4.218V4c0-.752.36-1.386.838-1.87.475-.48 1.11-.867 1.818-1.17C4.075.352 5.965 0 8 0s3.925.352 5.344.96c.707.303 1.343.69 1.818 1.17C15.64 2.614 16 3.248 16 4zM8 6c3.314 0 6-.895 6-2s-2.686-2-6-2-6 .895-6 2 2.686 2 6 2z" clip-rule="evenodd"/></svg>