<svg width="24" height="24" viewBox="0 0 24 24" fill="none" xmlns="http://www.w3.org/2000/svg">
<path fill-rule="evenodd" clip-rule="evenodd" d="M20 8C20 8.0676 20 8.14204 20 8.21886C20 8.73835 19.9494 9.25666 19.8489 9.76633L18.6238 15.9806C18.1563 18.3177 16.1043 20 13.7207 20H10.2793C7.89577 20 5.84377 18.3177 5.37624 15.9806L4.15122 9.76804C4.0505 9.25723 3.99992 8.73776 4 8.21711C4.00001 8.14091 4.00002 8.06709 4.00002 8C4.00002 7.24768 4.36013 6.6145 4.8384 6.12988C5.31252 5.64941 5.94875 5.2627 6.65627 4.95959C8.07497 4.35156 9.96486 4 12 4C14.0352 4 15.9251 4.35156 17.3438 4.95959C18.0513 5.2627 18.6875 5.64941 19.1616 6.12988C19.6399 6.6145 20 7.24768 20 8ZM12 10C15.3137 10 18 9.10461 18 8C18 6.89539 15.3137 6 12 6C8.6863 6 6.00002 6.89539 6.00002 8C6.00002 9.10461 8.6863 10 12 10Z" fill="white"/>
</svg>
