<svg width="24" height="24" viewBox="0 0 24 24" fill="none" xmlns="http://www.w3.org/2000/svg">
<path fill-rule="evenodd" clip-rule="evenodd" d="M4 6C4 4.89543 4.89543 4 6 4H12C13.1046 4 14 4.89543 14 6V7C14 7.55228 14.4477 8 15 8H18C19.1046 8 20 8.89543 20 10V18C20 19.1046 19.1046 20 18 20H12C11.4477 20 11 19.5523 11 19V18C11 17.4477 10.5523 17 10 17H8C7.44772 17 7 17.4477 7 18V18.5C7 19.3284 6.32843 20 5.5 20C4.67157 20 4 19.3284 4 18.5V6ZM7 7C6.44772 7 6 7.44772 6 8C6 8.55228 6.44772 9 7 9H11C11.5523 9 12 8.55228 12 8C12 7.44772 11.5523 7 11 7H7ZM6 12C6 11.4477 6.44772 11 7 11H11C11.5523 11 12 11.4477 12 12C12 12.5523 11.5523 13 11 13H7C6.44772 13 6 12.5523 6 12ZM14 12C14 11.4477 14.4477 11 15 11H17C17.5523 11 18 11.4477 18 12C18 12.5523 17.5523 13 17 13H15C14.4477 13 14 12.5523 14 12ZM15 15C14.4477 15 14 15.4477 14 16C14 16.5523 14.4477 17 15 17H17C17.5523 17 18 16.5523 18 16C18 15.4477 17.5523 15 17 15H15Z" fill="white"/>
</svg>
