<svg width="24" height="24" viewBox="0 0 24 24" fill="none" xmlns="http://www.w3.org/2000/svg">
<path d="M4 6C4 4.89542 4.89542 4 6 4H18C19.1046 4 20 4.89542 20 6V14C20 15.1046 19.1046 16 18 16V15.3541C18 13.7184 17.0042 12.2476 15.4856 11.6402L13 10.6459V9.5C13 7.56702 11.433 6 9.5 6C7.56702 6 6 7.56702 6 9.5V16C4.89542 16 4 15.1046 4 14V6Z" fill="white"/>
<path d="M8 9.5V18C8 19.1046 8.89543 20 10 20H14C15.1046 20 16 19.1046 16 18V15.3541C16 14.5363 15.5021 13.8008 14.7428 13.4971L11.9393 12.3757C11.372 12.1488 11 11.5994 11 10.9884V9.5C11 8.67157 10.3284 8 9.5 8C8.67157 8 8 8.67157 8 9.5Z" fill="white"/>
</svg>
