<svg width="24" height="24" viewBox="0 0 24 24" fill="none" xmlns="http://www.w3.org/2000/svg">
<path fill-rule="evenodd" clip-rule="evenodd" d="M16.8284 4.96739C13.8118 3.29153 10.0438 3.83575 7.61065 6.26887C7.18487 6.69465 6.83528 7.18435 6.5719 7.71564L17.9996 12.9101V6.958C17.9996 6.131 17.5513 5.36901 16.8284 4.96739ZM13.4999 8.00052C14.3283 8.00052 14.9998 7.32898 14.9998 6.5006C14.9998 5.67221 14.3283 5.00067 13.4999 5.00067C12.6715 5.00067 11.9999 5.67221 11.9999 6.5006C11.9999 7.32898 12.6715 8.00052 13.4999 8.00052Z" fill="white"/>
<path d="M17.9996 14.5577L6.09354 9.14581C6.03194 9.47494 6.00024 9.81121 6.00024 10.1507V11.4556L17.9996 16.9099V14.5577Z" fill="white"/>
<path d="M6.00024 13.8504V13.1032L17.9986 18.557C17.9802 19.043 17.7268 19.4914 17.3171 19.7577C16.8913 20.0344 16.3545 20.0769 15.8905 19.8707L7.48482 16.1348C6.58205 15.7336 6.00024 14.8383 6.00024 13.8504Z" fill="white"/>
</svg>
