<svg width="24" height="24" viewBox="0 0 24 24" fill="none" xmlns="http://www.w3.org/2000/svg">
<path fill-rule="evenodd" clip-rule="evenodd" d="M8 4C7.44772 4 7 4.44769 7 5C7 5.55228 6.55228 6 6 6C4.89542 6 4 6.89545 4 8V18C4 19.1046 4.89542 20 6 20H18C19.1046 20 20 19.1046 20 18V8C20 6.89545 19.1046 6 18 6C17.4477 6 17 5.55228 17 5C17 4.44769 16.5523 4 16 4C15.4477 4 15 4.44769 15 5C15 5.55228 14.5523 6 14 6H10C9.44772 6 9 5.55228 9 5C9 4.44769 8.55228 4 8 4ZM8 12C8.55228 12 9 11.5523 9 11C9 10.4477 8.55228 10 8 10C7.44772 10 7 10.4477 7 11C7 11.5523 7.44772 12 8 12ZM9 15C9 15.5523 8.55228 16 8 16C7.44772 16 7 15.5523 7 15C7 14.4477 7.44772 14 8 14C8.55228 14 9 14.4477 9 15ZM12 12C12.5523 12 13 11.5523 13 11C13 10.4477 12.5523 10 12 10C11.4477 10 11 10.4477 11 11C11 11.5523 11.4477 12 12 12ZM13 15C13 15.5523 12.5523 16 12 16C11.4477 16 11 15.5523 11 15C11 14.4477 11.4477 14 12 14C12.5523 14 13 14.4477 13 15ZM16 12C16.5523 12 17 11.5523 17 11C17 10.4477 16.5523 10 16 10C15.4477 10 15 10.4477 15 11C15 11.5523 15.4477 12 16 12Z" fill="white"/>
</svg>
