<svg xmlns="http://www.w3.org/2000/svg" width="24" height="24" viewBox="0 0 16 16" fill="none"><path fill="currentColor" fill-rule="evenodd" d="M4 0a1 1 0 0 0-1 1 1 1 0 0 1-1 1 2 2 0 0 0-2 2v10a2 2 0 0 0 2 2h12a2 2 0 0 0 2-2V4a2 2 0 0 0-2-2 1 1 0 0 1-1-1 1 1 0 1 0-2 0 1 1 0 0 1-1 1H6a1 1 0 0 1-1-1 1 1 0 0 0-1-1zm0 8a1 1 0 1 0 0-2 1 1 0 0 0 0 2zm1 3a1 1 0 1 1-2 0 1 1 0 0 1 2 0zm3-3a1 1 0 1 0 0-2 1 1 0 0 0 0 2zm1 3a1 1 0 1 1-2 0 1 1 0 0 1 2 0zm3-3a1 1 0 1 0 0-2 1 1 0 0 0 0 2z" clip-rule="evenodd"/></svg>