<svg width="24" height="24" viewBox="0 0 24 24" fill="none" xmlns="http://www.w3.org/2000/svg">
<path d="M10 5C10 4.44772 10.4477 4 11 4H13C13.5523 4 14 4.44772 14 5C14 5.55228 13.5523 6 13 6H11C10.4477 6 10 5.55228 10 5Z" fill="white"/>
<path d="M4 19C4 18.4477 4.44772 18 5 18H19C19.5523 18 20 18.4477 20 19C20 19.5523 19.5523 20 19 20H5C4.44772 20 4 19.5523 4 19Z" fill="white"/>
<path d="M12 7C7.58172 7 4 10.5817 4 15C4 15.5523 4.44772 16 5 16H19C19.5523 16 20 15.5523 20 15C20 10.5817 16.4183 7 12 7Z" fill="white"/>
</svg>
