<svg width="24" height="24" viewBox="0 0 24 24" fill="none" xmlns="http://www.w3.org/2000/svg">
<path d="M12 15C13.1046 15 14 14.1046 14 13C14 11.8954 13.1046 11 12 11C10.8954 11 10 11.8954 10 13C10 14.1046 10.8954 15 12 15Z" fill="white"/>
<path fill-rule="evenodd" clip-rule="evenodd" d="M13.5858 5C13.851 5 14.1053 5.10535 14.2929 5.29291L15.7071 6.70709C15.8947 6.89465 16.149 7 16.4142 7H18C19.1046 7 20 7.89542 20 9V17C20 18.1046 19.1046 19 18 19H6C4.89542 19 4 18.1046 4 17V9C4 7.89542 4.89542 7 6 7H7.58578C7.85101 7 8.10535 6.89465 8.29291 6.70709L9.70709 5.29291C9.89465 5.10535 10.149 5 10.4142 5H13.5858ZM17 11C17.5523 11 18 10.5523 18 10C18 9.44772 17.5523 9 17 9C16.4477 9 16 9.44772 16 10C16 10.5523 16.4477 11 17 11ZM16 13C16 15.2091 14.2091 17 12 17C9.79086 17 8 15.2091 8 13C8 10.7909 9.79086 9 12 9C14.2091 9 16 10.7909 16 13Z" fill="white"/>
</svg>
