<svg width="24" height="24" viewBox="0 0 24 24" fill="none" xmlns="http://www.w3.org/2000/svg">
<path d="M8.56064 6.56065C8.83209 6.28921 8.99998 5.91421 8.99998 5.49999C8.99998 4.67157 8.32841 4 7.49999 4C6.67156 4 5.99999 4.67157 5.99999 5.49999C5.99999 5.73117 6.05229 5.95014 6.1457 6.1457C5.95014 6.05229 5.73117 5.99999 5.49999 5.99999C4.67157 5.99999 4 6.67156 4 7.49999C4 8.32841 4.67157 8.99998 5.49999 8.99998C5.91421 8.99998 6.28921 8.83209 6.56065 8.56064L8.12922 10.1292C8.26944 9.66667 8.52205 9.23545 8.87875 8.87875C9.23545 8.52205 9.66667 8.26944 10.1292 8.12922L8.56064 6.56065Z" fill="white"/>
<path d="M9.58583 9.58583C10.1641 9.00755 11.0362 8.8396 11.7879 9.16175L17.3269 11.5356C18.9486 12.2306 20 13.8252 20 15.5895C20 18.0254 18.0254 20 15.5895 20C13.8252 20 12.2306 18.9486 11.5356 17.3269L9.16175 11.7879C8.8396 11.0362 9.00755 10.1641 9.58583 9.58583Z" fill="white"/>
</svg>
