<svg width="24" height="24" viewBox="0 0 24 24" fill="none" xmlns="http://www.w3.org/2000/svg">
<path fill-rule="evenodd" clip-rule="evenodd" d="M10.2111 4.42229C11.3373 3.85924 12.6627 3.85924 13.7889 4.42229L17.7889 6.42229C19.144 7.09986 20 8.48491 20 10V14C20 15.5151 19.144 16.9001 17.7889 17.5777L13.7889 19.5777C12.6627 20.1408 11.3373 20.1408 10.2111 19.5777L6.21115 17.5777C4.85601 16.9001 4 15.5151 4 14V10C4 8.48491 4.85601 7.09986 6.21115 6.42229L10.2111 4.42229ZM6.14254 8.9855C6.42668 8.51192 7.04094 8.35836 7.51453 8.64251L10.971 10.7164C11.6044 11.0964 12.3957 11.0964 13.029 10.7164L16.4855 8.64251C16.9591 8.35836 17.5734 8.51192 17.8575 8.9855C18.1417 9.45908 17.9881 10.0733 17.5145 10.3575L13.4855 12.7749C13.1843 12.9556 13 13.2811 13 13.6324V17C13 17.5523 12.5523 18 12 18C11.4477 18 11 17.5523 11 17V13.6324C11 13.2811 10.8157 12.9556 10.5145 12.7749L6.48553 10.3575C6.01195 10.0733 5.85839 9.45908 6.14254 8.9855Z" fill="white"/>
</svg>
