<svg xmlns="http://www.w3.org/2000/svg" width="24" height="24" viewBox="0 0 16 16" fill="none"><path fill="currentColor" fill-rule="evenodd" d="M6.211.422a4 4 0 0 1 3.578 0l4 2A4 4 0 0 1 16 6v4a4 4 0 0 1-2.211 3.578l-4 2a4 4 0 0 1-3.578 0l-4-2A4 4 0 0 1 0 10V6a4 4 0 0 1 2.211-3.578zM2.143 4.985a1 1 0 0 1 1.372-.342L6.97 6.716a2 2 0 0 0 2.058 0l3.457-2.073a1 1 0 1 1 1.029 1.714l-4.03 2.418A1 1 0 0 0 9 9.632V13a1 1 0 1 1-2 0V9.632a1 1 0 0 0-.485-.857l-4.03-2.418a1 1 0 0 1-.342-1.371z" clip-rule="evenodd"/></svg>