<svg width="24" height="24" viewBox="0 0 24 24" fill="none" xmlns="http://www.w3.org/2000/svg">
<path fill-rule="evenodd" clip-rule="evenodd" d="M9 5C8.46957 5 7.96086 5.21071 7.58579 5.58579L4.58579 8.58578C3.84682 9.32476 3.80137 10.5081 4.48149 11.3016L10.4815 18.3016C10.8615 18.7449 11.4162 19 12 19C12.5838 19 13.1385 18.7449 13.5185 18.3016L19.5185 11.3016C20.1986 10.5081 20.1532 9.32476 19.4142 8.58578L16.4142 5.58579C16.0391 5.21071 15.5304 5 15 5H9ZM12 10C13.6568 10 15 8.65685 15 7C15 8.65685 16.3431 10 18 10C16.3431 10 15 11.3431 15 13C15 11.3431 13.6568 10 12 10Z" fill="white"/>
</svg>
