<svg width="24" height="24" viewBox="0 0 24 24" fill="none" xmlns="http://www.w3.org/2000/svg">
<path d="M10.5 4C9.94775 4 9.5 4.44775 9.5 5V6H6C4.89539 6 4 6.89539 4 8V12C4 13.1046 4.89539 14 6 14H15.5858C16.1162 14 16.6249 13.7893 17 13.4142L19.7072 10.7072C20.0977 10.3165 20.0977 9.68347 19.7072 9.29285L17 6.58582C16.6249 6.21069 16.1162 6 15.5858 6H12.5V5C12.5 4.44775 12.0522 4 11.5 4H10.5Z" fill="white"/>
<path d="M9.5 15H12.5V18H14C14.5522 18 15 18.4478 15 19C15 19.5522 14.5522 20 14 20H8C7.44775 20 7 19.5522 7 19C7 18.4478 7.44775 18 8 18H9.5V15Z" fill="white"/>
</svg>
