<svg width="24" height="24" viewBox="0 0 24 24" fill="none" xmlns="http://www.w3.org/2000/svg">
<path d="M15 9C15.5523 9 16 8.55228 16 8C16 7.44772 15.5523 7 15 7C15 5.89543 14.1046 5 13 5C12.5318 5 12.1011 5.16091 11.7603 5.43045C11.3595 4.58481 10.498 4 9.5 4C8.25642 4 7.22491 4.908 7.03228 6.09718C6.86686 6.03438 6.68745 6 6.5 6C5.67157 6 5 6.67157 5 7.5C5 8.32843 5.67157 9 6.5 9H15Z" fill="white"/>
<path fill-rule="evenodd" clip-rule="evenodd" d="M7 10C6.44772 10 6 10.4477 6 11V18C6 19.1046 6.89543 20 8 20H13C14.1046 20 15 19.1046 15 18H16C17.6569 18 19 16.6569 19 15V13C19 11.3431 17.6569 10 16 10H13V13C13 13.5523 12.5523 14 12 14C11.4477 14 11 13.5523 11 13V10H7ZM16 16H15V12H16C16.5523 12 17 12.4477 17 13V15C17 15.5523 16.5523 16 16 16Z" fill="white"/>
</svg>
