<svg width="24" height="24" viewBox="0 0 24 24" fill="none" xmlns="http://www.w3.org/2000/svg">
<path d="M14.9996 4C16.6563 4 17.9996 5.34312 17.9996 6.99995H11.9997C11.9997 5.34312 13.3429 4 14.9996 4Z" fill="white"/>
<path d="M6.99974 4.00024C6.44746 4.00024 5.99976 4.44795 5.99976 5.00023C5.99976 5.55251 6.44746 6.00021 6.99974 6.00021H8.27896L8.94554 7.99994L6.00049 7.99994C6.00049 10.9728 8.16241 13.4407 10.9998 13.917V17.9998H9.4997C8.94743 17.9998 8.49972 18.4475 8.49972 18.9998C8.49972 19.552 8.94743 19.9998 9.4997 19.9998L14.4996 20C15.0519 20 15.4996 19.5523 15.4996 19C15.4996 18.4477 15.0519 18 14.4996 18L12.9997 17.9998V13.9172C15.8377 13.4414 18.0003 10.9732 18.0003 7.99994L11.0537 7.99994L9.94838 4.68401C9.81227 4.27567 9.43013 4.00024 8.99971 4.00024H6.99974Z" fill="white"/>
</svg>
