<svg width="24" height="24" viewBox="0 0 24 24" fill="none" xmlns="http://www.w3.org/2000/svg">
<path d="M16.9579 13.5382L16.957 13.5374L18.6471 11.8473C20.441 10.0534 20.4519 7.13398 18.6579 5.34004C16.864 3.54611 13.9446 3.55695 12.1507 5.35089L10.285 7.21655L10.2842 7.21571L6.58723 10.9126C6.21227 11.2876 6.00162 11.7962 6.00162 12.3264V16.4968L4.0022 18.4962V20L5.50176 19.9958L12.2927 13.2948C12.6831 12.9044 13.3161 12.9044 13.7065 13.2948C14.0969 13.6852 14.0969 14.3182 13.7065 14.7086L11.5473 16.9228C11.1567 17.3233 11.4405 17.9964 11.9999 17.9964C12.2927 17.9964 12.7104 17.7857 13.0853 17.4107L16.9579 13.5382Z" fill="white"/>
</svg>
