<svg width="24" height="24" viewBox="0 0 24 24" fill="none" xmlns="http://www.w3.org/2000/svg">
<path d="M8.66692 7.27292C9.55218 6.48059 10.7188 6 12 6C14.7614 6 17 8.23858 17 11V17C17 17.5523 17.4477 18 18 18C18.5523 18 19 17.5523 19 17V11C19 7.13401 15.866 4 12 4C10.2078 4 8.57086 4.67482 7.3331 5.78265C6.92157 6.15098 6.88655 6.78317 7.25487 7.1947C7.6232 7.60623 8.2554 7.64125 8.66692 7.27292Z" fill="white"/>
<path d="M10 11C10 9.89543 10.8954 9 12 9C13.1046 9 14 9.89543 14 11C14 11.5523 14.4477 12 15 12C15.5523 12 16 11.5523 16 11C16 8.79086 14.2091 7 12 7C9.79086 7 8 8.79086 8 11V18C8 18.5523 8.44772 19 9 19C9.55229 19 10 18.5523 10 18V11Z" fill="white"/>
<path d="M12 10C12.5523 10 13 10.4477 13 11V19C13 19.5523 12.5523 20 12 20C11.4477 20 11 19.5523 11 19V11C11 10.4477 11.4477 10 12 10Z" fill="white"/>
<path d="M15 13C15.5523 13 16 13.4477 16 14V18C16 18.5523 15.5523 19 15 19C14.4477 19 14 18.5523 14 18V14C14 13.4477 14.4477 13 15 13Z" fill="white"/>
<path d="M6.67466 8.05719C7.19537 8.24124 7.4683 8.81256 7.28425 9.33327C7.10045 9.85329 7 10.4138 7 11V17C7 17.5523 6.55228 18 6 18C5.44772 18 5 17.5523 5 17V11C5 10.1837 5.14016 9.39788 5.39857 8.66678C5.58262 8.14607 6.15394 7.87314 6.67466 8.05719Z" fill="white"/>
</svg>
