<svg width="24" height="24" viewBox="0 0 24 24" fill="none" xmlns="http://www.w3.org/2000/svg">
<path fill-rule="evenodd" clip-rule="evenodd" d="M20 7C20 7.93793 19.8524 8.84139 19.5792 9.68843C17.8239 10.919 15.3862 10.7502 13.818 9.182C13.6228 8.98674 13.3062 8.98674 13.1109 9.182C12.9157 9.37726 12.9157 9.69385 13.1109 9.88911C14.6924 11.4706 16.9974 11.8876 18.9604 11.1402C17.4837 13.8845 14.5847 15.75 11.25 15.75H10.5372C10.528 16.1586 10.4688 16.5818 10.3548 17.0075C9.96768 18.4521 9.04697 19.5573 8 20C7.37876 19.1779 7.11951 17.9363 7.3648 16.6352C6.06372 16.8805 4.8221 16.6212 4 16C4.44275 14.953 5.54786 14.0323 6.99248 13.6453C7.41814 13.5312 7.84143 13.472 8.25 13.4628V12.75C8.25 7.91751 12.1675 4 17 4H19.25C19.6642 4 20 4.33579 20 4.75V7ZM16 8C16.5523 8 17 7.55228 17 7C17 6.44772 16.5523 6 16 6C15.4477 6 15 6.44772 15 7C15 7.55228 15.4477 8 16 8Z" fill="white"/>
</svg>
