<svg xmlns="http://www.w3.org/2000/svg" width="24" height="24" viewBox="0 0 16 16" fill="none"><path fill="currentColor" fill-rule="evenodd" d="M16 3c0 .938-.148 1.841-.42 2.688a4.501 4.501 0 0 1-5.762-.506.5.5 0 0 0-.707.707 5.501 5.501 0 0 0 5.85 1.251 8.748 8.748 0 0 1-7.711 4.61h-.713c-.009.409-.068.832-.182 1.258C5.968 14.451 5.047 15.558 4 16c-.621-.822-.88-2.064-.635-3.365C2.064 12.881.822 12.621 0 12c.443-1.047 1.548-1.968 2.992-2.355a5.332 5.332 0 0 1 1.258-.182V8.75A8.75 8.75 0 0 1 13 0h2.25a.75.75 0 0 1 .75.75zm-4 1a1 1 0 1 0 0-2 1 1 0 0 0 0 2z" clip-rule="evenodd"/></svg>