<svg width="24" height="24" viewBox="0 0 24 24" fill="none" xmlns="http://www.w3.org/2000/svg">
<path fill-rule="evenodd" clip-rule="evenodd" d="M7 5C7 4.44772 7.44772 4 8 4H10.5858C11.7565 4 12.8793 4.46507 13.7071 5.29289C14.1599 5.74565 14.7739 6 15.4142 6H18C18.5523 6 19 6.44772 19 7V13C19 13.5523 18.5523 14 18 14H15.4142C14.2435 14 13.1207 13.5349 12.2929 12.7071C11.8401 12.2544 11.2261 12 10.5858 12H9V18H10C10.5523 18 11 18.4477 11 19C11 19.5523 10.5523 20 10 20H6C5.44772 20 5 19.5523 5 19C5 18.4477 5.44772 18 6 18H7V5Z" fill="white"/>
</svg>
