<svg width="24" height="24" viewBox="0 0 24 24" fill="none" xmlns="http://www.w3.org/2000/svg">
<path fill-rule="evenodd" clip-rule="evenodd" d="M8 6C5.79102 6 4 7.79083 4 10V16C4 17.1046 4.89551 18 6 18H7.17139C7.70215 18 8.21094 17.7893 8.58594 17.4142L9.41406 16.5858C9.78906 16.2107 10.2979 16 10.8286 16H13.1714C13.7021 16 14.2109 16.2107 14.5859 16.5858L15.4141 17.4142C15.7891 17.7893 16.2979 18 16.8286 18H18C19.1045 18 20 17.1046 20 16V10C20 7.79083 18.209 6 16 6H8ZM10 9C10 8.44769 9.55225 8 9 8C8.44775 8 8 8.44769 8 9V10H7C6.44775 10 6 10.4477 6 11C6 11.5523 6.44775 12 7 12H8V13C8 13.5523 8.44775 14 9 14C9.55225 14 10 13.5523 10 13V12H11C11.5522 12 12 11.5523 12 11C12 10.4477 11.5522 10 11 10H10V9ZM15 11C15.5522 11 16 10.5523 16 10C16 9.44769 15.5522 9 15 9C14.4478 9 14 9.44769 14 10C14 10.5523 14.4478 11 15 11ZM18 12C18 12.5523 17.5522 13 17 13C16.4478 13 16 12.5523 16 12C16 11.4477 16.4478 11 17 11C17.5522 11 18 11.4477 18 12Z" fill="white"/>
</svg>
