<svg xmlns="http://www.w3.org/2000/svg" width="24" height="24" viewBox="0 0 16 16" fill="none"><path fill="currentColor" fill-rule="evenodd" d="M8 0a8 8 0 0 0-8 8v1.838a3 3 0 0 0 2.051 2.846 2 2 0 0 1 1.265 1.265l.456 1.367a1 1 0 0 0 .949.684H5a1 1 0 0 0 1-1 1 1 0 0 0 2 0 1 1 0 0 0 2 0 1 1 0 0 0 1 1h.28a1 1 0 0 0 .948-.684l.456-1.367a2 2 0 0 1 1.265-1.265A3 3 0 0 0 16 9.838V8a8 8 0 0 0-8-8zm.416 10.723a.5.5 0 0 0-.832 0l-1 1.5A.5.5 0 0 0 7 13h2a.5.5 0 0 0 .416-.777zM3.204 7.43a1 1 0 0 1 1.207-1.117l2.007.445a1 1 0 0 1 .731 1.293L6.77 9.189a1 1 0 0 1-1.113.67l-.713-.118a2 2 0 0 1-1.651-1.69zm8.385-1.117a1 1 0 0 1 1.206 1.117l-.088.62a2 2 0 0 1-1.651 1.69l-.713.119a1 1 0 0 1-1.113-.67l-.38-1.138a1 1 0 0 1 .732-1.293z" clip-rule="evenodd"/></svg>