<svg width="24" height="24" viewBox="0 0 24 24" fill="none" xmlns="http://www.w3.org/2000/svg">
<path fill-rule="evenodd" clip-rule="evenodd" d="M8.70711 6.29289C8.31658 5.90237 7.68342 5.90237 7.29289 6.29289C6.90237 6.68342 6.90237 7.31658 7.29289 7.70711L8.72509 9.1393L7.40919 10.192L4.4453 12.1679C4.1671 12.3534 4 12.6656 4 13V15C4 15.5523 4.44772 16 5 16C5.55228 16 6 15.5523 6 15V13.5352L7 12.8685V15C7 16.6569 8.34315 18 10 18C10.5523 18 11 17.5523 11 17C11 16.4477 10.5523 16 10 16L9.9947 16C9.44485 15.9971 9 15.5505 9 15H15C15 15.5505 14.5551 15.9971 14.0053 16L14 16C13.4477 16 13 16.4477 13 17C13 17.5523 13.4477 18 14 18C15.6569 18 17 16.6569 17 15V12.8685L18 13.5352V15C18 15.5523 18.4477 16 19 16C19.5523 16 20 15.5523 20 15V13C20 12.6656 19.8329 12.3534 19.5547 12.1679L16.5908 10.192L15.2749 9.1393L16.7071 7.70711C17.0976 7.31658 17.0976 6.68342 16.7071 6.29289C16.3166 5.90237 15.6834 5.90237 15.2929 6.29289L13.5858 8H10.4142L8.70711 6.29289ZM11 11C11 11.5523 10.5523 12 10 12C9.44772 12 9 11.5523 9 11C9 10.4477 9.44772 10 10 10C10.5523 10 11 10.4477 11 11ZM14 12C14.5523 12 15 11.5523 15 11C15 10.4477 14.5523 10 14 10C13.4477 10 13 10.4477 13 11C13 11.5523 13.4477 12 14 12Z" fill="white"/>
</svg>
