<svg width="24" height="24" viewBox="0 0 24 24" fill="none" xmlns="http://www.w3.org/2000/svg">
<path d="M7.5 4C7.22386 4 7 4.22386 7 4.5V8C7 9.10457 7.89543 10 9 10H9.25001C9.6068 10 9.84877 10.363 9.71155 10.6923L8.07698 14.6154C7.80254 15.2741 8.28649 16 9.00007 16H15.0001C15.7136 16 16.1976 15.2741 15.9231 14.6154L14.2885 10.6923C14.1512 10.363 14.3932 10 14.75 10H15C16.1046 10 17 9.10457 17 8V4.5C17 4.22386 16.7761 4 16.5 4H15.5C15.2239 4 15 4.22386 15 4.5V5.5C15 5.77614 14.7761 6 14.5 6H13.5C13.2239 6 13 5.77614 13 5.5V4.5C13 4.22386 12.7761 4 12.5 4H11.5C11.2239 4 11 4.22386 11 4.5V5.5C11 5.77614 10.7761 6 10.5 6H9.5C9.22386 6 9 5.77614 9 5.5V4.5C9 4.22386 8.77614 4 8.5 4H7.5Z" fill="white"/>
<path d="M8 18C7.44772 18 7 18.4477 7 19C7 19.5523 7.44772 20 8 20H16C16.5523 20 17 19.5523 17 19C17 18.4477 16.5523 18 16 18H8Z" fill="white"/>
</svg>
