<svg width="24" height="24" viewBox="0 0 24 24" fill="none" xmlns="http://www.w3.org/2000/svg">
<path d="M18.7734 16.292C19.5505 15.0492 20 13.5775 20 12C20 10.4225 19.5505 8.95078 18.7734 7.70801C17.6782 8.80352 17 10.322 17 12C17 13.678 17.6782 15.1965 18.7734 16.292Z" fill="white"/>
<path d="M17.5 17.8549C15.9604 16.3854 15 14.3057 15 12C15 9.69432 15.9604 7.61463 17.5 6.14514C16.2942 4.99426 14.7332 4.21775 13 4V20C14.7332 19.7823 16.2942 19.0057 17.5 17.8549Z" fill="white"/>
<path d="M4 12C4 10.4225 4.44946 8.95078 5.22656 7.70801C6.32178 8.80352 7 10.322 7 12C7 13.678 6.32178 15.1965 5.22656 16.292C4.44946 15.0492 4 13.5775 4 12Z" fill="white"/>
<path d="M9 12C9 9.69432 8.03955 7.61463 6.5 6.14514C7.70581 4.99426 9.26685 4.21775 11 4V20C9.26685 19.7823 7.70581 19.0057 6.5 17.8549C8.03955 16.3854 9 14.3057 9 12Z" fill="white"/>
</svg>
