<svg width="24" height="24" viewBox="0 0 24 24" fill="none" xmlns="http://www.w3.org/2000/svg">
<path d="M12 4V6L16.5145 8.7087C16.8157 8.88942 17 9.21493 17 9.56619V11.057C17 11.7552 16.3026 12.2385 15.6489 11.9933L13.6556 11.2458C13.3384 11.1269 13 11.3614 13 11.7001C13 11.8839 13.1038 12.0519 13.2682 12.1341L16.5777 13.7889C16.8365 13.9183 17 14.1828 17 14.4721C17 15.316 16.316 16 15.4721 16H8.89974C7.85054 16 7 15.1495 7 14.1003V11.6056C7 9.353 8.12577 7.24949 10 6C10 4.89543 10.8954 4 12 4Z" fill="white"/>
<path d="M7 19C7 18.4477 7.44772 18 8 18H16C16.5523 18 17 18.4477 17 19C17 19.5523 16.5523 20 16 20H8C7.44772 20 7 19.5523 7 19Z" fill="white"/>
</svg>
