<svg width="24" height="24" viewBox="0 0 24 24" fill="none" xmlns="http://www.w3.org/2000/svg">
<path d="M13.8 9.40023C14.5287 8.8529 15 7.9815 15 7C15 5.34315 13.6569 4 12 4C10.3431 4 9 5.34315 9 7C9 7.98143 9.47128 8.8528 10.1999 9.40013L9.99992 10L8.0769 14.6154C7.80246 15.2741 8.28641 16 8.99998 16H15C15.7136 16 16.1975 15.2741 15.9231 14.6154L13.9999 10L13.8 9.40023Z" fill="white"/>
<path d="M7 19C7 18.4477 7.44772 18 8 18H16C16.5523 18 17 18.4477 17 19C17 19.5523 16.5523 20 16 20H8C7.44772 20 7 19.5523 7 19Z" fill="white"/>
</svg>
