<svg width="24" height="24" viewBox="0 0 24 24" fill="none" xmlns="http://www.w3.org/2000/svg">
<path d="M15.6586 12C15.8797 11.3744 16 10.7013 16 10C16 6.68629 13.3137 4 10 4C6.68629 4 4 6.68629 4 10C4 10.7013 4.12031 11.3744 4.34141 12H15.6586Z" fill="white"/>
<path d="M15.5 13L15.2977 13.6068C14.8213 15.036 13.4838 16 11.9773 16H11.2808L11.9702 18.7575C12.0448 19.0562 11.9777 19.3727 11.7882 19.6154C11.5987 19.8581 11.3079 20 11 20H9.00001C8.69207 20 8.40131 19.8581 8.2118 19.6154C8.0223 19.3727 7.95518 19.0562 8.02987 18.7575L8.71923 16H8.02266C6.51615 16 5.17866 15.036 4.70227 13.6068L4.5 13H15.5Z" fill="white"/>
<path d="M17.5 20C18.8807 20 20 18.8807 20 17.5C20 16.1193 18.8807 15 17.5 15C16.1193 15 15 16.1193 15 17.5C15 18.8807 16.1193 20 17.5 20Z" fill="white"/>
</svg>
