<svg width="24" height="24" viewBox="0 0 24 24" fill="none" xmlns="http://www.w3.org/2000/svg">
<path fill-rule="evenodd" clip-rule="evenodd" d="M15.9678 8.51038C15.9465 8.67773 15.9148 8.8418 15.8735 9.00195C15.9155 9.00061 15.9578 9 16 9C18.2092 9 20 10.7909 20 13C20 15.2091 18.2092 17 16 17C15.1799 17 14.4177 16.7533 13.7832 16.3301L14.8945 18.5527C15.0493 18.8628 15.033 19.231 14.8506 19.5258C14.6685 19.8206 14.3467 20 14 20H10C9.65332 20 9.33154 19.8206 9.14941 19.5258C8.96704 19.231 8.95068 18.8628 9.10547 18.5527L10.2168 16.3301C9.58228 16.7533 8.82007 17 8 17C5.79077 17 4 15.2091 4 13C4 10.7909 5.79077 9 8 9C8.04224 9 8.08447 9.00061 8.12646 9.00195C8.04395 8.68176 8 8.34595 8 8C8 5.79089 9.79077 4 12 4C14.2092 4 16 5.79089 16 8C16 8.17285 15.989 8.34326 15.9678 8.51038Z" fill="white"/>
</svg>
