<svg width="24" height="24" viewBox="0 0 24 24" fill="none" xmlns="http://www.w3.org/2000/svg">
<path d="M4.99786 12.326C4.37375 11.5536 4 10.5704 4 9.5C4 7.01472 6.01472 5 8.5 5C9.91363 5 11.175 5.65183 12 6.67134C12.825 5.65183 14.0864 5 15.5 5C17.9853 5 20 7.01472 20 9.5C20 10.5704 19.6263 11.5535 19.0022 12.3259C18.9529 12.4007 18.8964 12.4717 18.833 12.5379L13.083 18.5379C12.8001 18.8331 12.4089 19 12 19C11.5911 19 11.1999 18.8331 10.917 18.5379L5.16702 12.5379C5.10362 12.4717 5.04717 12.4007 4.99786 12.326Z" fill="white"/>
</svg>
