<svg width="24" height="24" viewBox="0 0 24 24" fill="none" xmlns="http://www.w3.org/2000/svg">
<path fill-rule="evenodd" clip-rule="evenodd" d="M18.9785 19.3613L18.8009 19.5988C18.6121 19.8513 18.3153 20 18 20C17.6847 20 17.3879 19.8513 17.1991 19.5988L16 17.995L14.8009 19.5988C14.6121 19.8513 14.3153 20 14 20C13.6847 20 13.3879 19.8513 13.1991 19.5988L12 17.995L10.8009 19.5988C10.6121 19.8513 10.3153 20 10 20C9.68472 20 9.3879 19.8513 9.1991 19.5988L8 17.995L6.8009 19.5988C6.6121 19.8513 6.31528 20 6 20C5.68472 20 5.3879 19.8513 5.1991 19.5988L5.02155 19.3613C5.00732 19.2429 5 19.1223 5 19V10.9999C5 7.13394 8.13401 4 12 4C15.866 4 19 7.13401 19 11V19C19 19.1223 18.9927 19.2429 18.9785 19.3613ZM11 8.5C11 9.32843 10.3284 10 9.5 10C8.67157 10 8 9.32843 8 8.5C8 7.67157 8.67157 7 9.5 7C10.3284 7 11 7.67157 11 8.5ZM14.5 10C15.3284 10 16 9.32843 16 8.5C16 7.67157 15.3284 7 14.5 7C13.6716 7 13 7.67157 13 8.5C13 9.32843 13.6716 10 14.5 10Z" fill="white"/>
</svg>
