<svg width="24" height="24" viewBox="0 0 24 24" fill="none" xmlns="http://www.w3.org/2000/svg">
<path d="M10.4887 4.02445C7.20959 4.62402 4.62402 7.20946 4.02458 10.4886C5.35545 9.57849 7.13487 9.54237 8.51687 10.4635C9.34808 11.0176 9.94286 11.8616 10.1852 12.8307L10.4371 13.8384C10.6554 14.7121 11.2801 15.4278 12.1165 15.7623C14.4059 16.6782 16.6781 14.406 15.7623 12.1164C15.4278 11.2801 14.7121 10.6555 13.8384 10.437L12.8307 10.1851C11.8616 9.94286 11.0176 9.34808 10.4637 8.51687C9.54224 7.13499 9.57862 5.35533 10.4887 4.02445Z" fill="white"/>
<path d="M4 13.263C4.62845 17.0847 7.94691 20 11.9464 20C16.3942 20 20 16.3943 20 11.9464C20 7.94691 17.0846 4.62845 13.263 4L12.3891 4.87398C11.7142 5.54876 11.6095 6.60608 12.1389 7.40006C12.4151 7.81444 12.8359 8.11097 13.3191 8.23177L14.3268 8.48369C15.8277 8.85899 17.0571 9.93217 17.6317 11.3686C19.2049 15.3019 15.3018 19.2049 11.3686 17.6317C9.93204 17.0571 8.85899 15.8276 8.48369 14.3266L8.23177 13.3191C8.11109 12.8359 7.81444 12.4151 7.40006 12.1389C6.60596 11.6095 5.54888 11.7142 4.87398 12.3889L4 13.263Z" fill="white"/>
</svg>
