<svg width="24" height="24" viewBox="0 0 24 24" fill="none" xmlns="http://www.w3.org/2000/svg">
<path fill-rule="evenodd" clip-rule="evenodd" d="M11 9.5C11 9.88418 10.8556 10.2346 10.6181 10.5C10.8556 10.7654 11 11.1158 11 11.5C11 12.3284 10.3284 13 9.5 13C8.67157 13 8 12.3284 8 11.5C8 11.1158 8.14443 10.7654 8.38195 10.5C8.14443 10.2346 8 9.88418 8 9.5C8 8.67157 8.67157 8 9.5 8C10.3284 8 11 8.67157 11 9.5ZM9.5 10C9.77614 10 10 9.77614 10 9.5C10 9.22386 9.77614 9 9.5 9C9.22386 9 9 9.22386 9 9.5C9 9.77614 9.22386 10 9.5 10ZM9 11.5C9 11.2239 9.22386 11 9.5 11C9.77614 11 10 11.2239 10 11.5C10 11.7761 9.77614 12 9.5 12C9.22386 12 9 11.7761 9 11.5Z" fill="white"/>
<path fill-rule="evenodd" clip-rule="evenodd" d="M20 12C20 16.4183 16.4183 20 12 20C7.58172 20 4 16.4183 4 12C4 7.58172 7.58172 4 12 4C16.4183 4 20 7.58172 20 12ZM13 10.5C13 12.433 11.433 14 9.5 14C7.567 14 6 12.433 6 10.5C6 8.567 7.567 7 9.5 7C11.433 7 13 8.567 13 10.5Z" fill="white"/>
</svg>
