<svg width="24" height="24" viewBox="0 0 24 24" fill="none" xmlns="http://www.w3.org/2000/svg">
<path d="M10.0088 5.72466L9.27393 7.00342C8.6792 8.0387 9.12646 9.27283 10.0757 9.77289L10 10L8.07666 14.6154C7.80225 15.2741 8.28662 16 9 16H15C15.7134 16 16.1978 15.274 15.9229 14.6154L14 10L13.9248 9.7738C14.8755 9.27417 15.3237 8.03857 14.7275 7.00262L13.4985 4.86658C13.1899 4.33044 12.6187 4 12.0005 4C11.6304 4 11.2774 4.11818 10.9874 4.32783L12.4058 7.16458C12.591 7.53506 12.4408 7.98556 12.0704 8.17081C11.6999 8.35605 11.2494 8.20588 11.0641 7.8354L10.0088 5.72466Z" fill="white"/>
<path d="M8 18C7.44775 18 7 18.4477 7 19C7 19.5523 7.44775 20 8 20H16C16.5522 20 17 19.5523 17 19C17 18.4477 16.5522 18 16 18H8Z" fill="white"/>
</svg>
