<svg width="24" height="24" viewBox="0 0 24 24" fill="none" xmlns="http://www.w3.org/2000/svg">
<path fill-rule="evenodd" clip-rule="evenodd" d="M12.5515 4.16547C12.2173 3.94485 11.7838 3.94484 11.4496 4.16545L6.19466 7.63456C4.88018 8.4202 4 9.85731 4 11.5C4 13.9853 6.01472 16 8.5 16C9.28143 16 10.0163 15.8008 10.6567 15.4505L9.10557 18.5528C8.95058 18.8628 8.96714 19.2309 9.14935 19.5257C9.33156 19.8205 9.65342 20 10 20H14C14.3466 20 14.6684 19.8205 14.8507 19.5257C15.0329 19.2309 15.0494 18.8628 14.8944 18.5528L13.3433 15.4505C13.9837 15.8008 14.7186 16 15.5 16C17.9853 16 20 13.9853 20 11.5C20 9.86004 19.1227 8.42498 17.8119 7.63848L12.5515 4.16547Z" fill="white"/>
</svg>
