<svg xmlns="http://www.w3.org/2000/svg" width="24" height="24" viewBox="0 0 16 16" fill="none"><g fill="currentColor"><path d="M8 0a1 1 0 0 1 1 1v1h1a1 1 0 1 1 0 2H9v2.349a.651.651 0 0 0 1.193.36L11.42 4.87A1.954 1.954 0 0 1 15 5.954v.662c0 .255-.037.508-.11.752l-1.176 3.92a1 1 0 0 1-.958.712H3.244a1 1 0 0 1-.958-.713L1.11 7.367A2.616 2.616 0 0 1 1 6.617v-.662A1.954 1.954 0 0 1 4.58 4.87l1.227 1.84A.651.651 0 0 0 7 6.349V4H6a1 1 0 0 1 0-2h1V1a1 1 0 0 1 1-1zM4 14a1 1 0 1 0 0 2h8a1 1 0 1 0 0-2z"/></g></svg>