<svg width="24" height="24" viewBox="0 0 24 24" fill="none" xmlns="http://www.w3.org/2000/svg">
<path d="M4 12C4 10.4348 4.44952 8.9745 5.22651 7.74129C6.32177 8.82832 7 10.335 7 12C7 13.665 6.32177 15.1717 5.22651 16.2587C4.44952 15.0255 4 13.5652 4 12Z" fill="white"/>
<path d="M9 12C9 9.71214 8.03962 7.64859 6.5 6.1905C7.93366 4.83275 9.86958 4 12 4C14.1304 4 16.0663 4.83275 17.5 6.1905C15.9604 7.64859 15 9.71214 15 12C15 14.2879 15.9604 16.3514 17.5 17.8095C16.0663 19.1672 14.1304 20 12 20C9.86958 20 7.93367 19.1672 6.5 17.8095C8.03962 16.3514 9 14.2879 9 12Z" fill="white"/>
<path d="M18.7735 7.74129C19.5505 8.9745 20 10.4348 20 12C20 13.5652 19.5505 15.0255 18.7735 16.2587C17.6782 15.1717 17 13.665 17 12C17 10.335 17.6782 8.82832 18.7735 7.74129Z" fill="white"/>
</svg>
