<svg width="24" height="24" viewBox="0 0 24 24" fill="none" xmlns="http://www.w3.org/2000/svg">
<path fill-rule="evenodd" clip-rule="evenodd" d="M13.7889 4.42229C12.6627 3.85924 11.3373 3.85924 10.2111 4.42229L6.21115 6.42229C4.85601 7.09986 4 8.48491 4 10V14C4 15.5151 4.85601 16.9001 6.21115 17.5777L10.2111 19.5777C11.3373 20.1408 12.6627 20.1408 13.7889 19.5777L17.7889 17.5777C19.144 16.9001 20 15.5151 20 14V10C20 8.48491 19.144 7.09986 17.7889 6.42229L13.7889 4.42229ZM12 9C12.5523 9 13 8.55229 13 8C13 7.44772 12.5523 7 12 7C11.4477 7 11 7.44772 11 8C11 8.55229 11.4477 9 12 9ZM8 11C8 11.5523 7.55229 12 7 12C6.44772 12 6 11.5523 6 11C6 10.4477 6.44772 10 7 10C7.55229 10 8 10.4477 8 11ZM7 15C7.55229 15 8 14.5523 8 14C8 13.4477 7.55229 13 7 13C6.44772 13 6 13.4477 6 14C6 14.5523 6.44772 15 7 15ZM11 13C11 13.5523 10.5523 14 10 14C9.44772 14 9 13.5523 9 13C9 12.4477 9.44772 12 10 12C10.5523 12 11 12.4477 11 13ZM10 17C10.5523 17 11 16.5523 11 16C11 15.4477 10.5523 15 10 15C9.44772 15 9 15.4477 9 16C9 16.5523 9.44772 17 10 17ZM18 12C18 12.5523 17.5523 13 17 13C16.4477 13 16 12.5523 16 12C16 11.4477 16.4477 11 17 11C17.5523 11 18 11.4477 18 12ZM15 16C15.5523 16 16 15.5523 16 15C16 14.4477 15.5523 14 15 14C14.4477 14 14 14.4477 14 15C14 15.5523 14.4477 16 15 16Z" fill="white"/>
</svg>
