<svg xmlns="http://www.w3.org/2000/svg" width="24" height="24" viewBox="0 0 16 16" fill="none"><g fill="currentColor"><path d="M6.489.024A8.061 8.061 0 0 0 .025 6.49a4.016 4.016 0 0 1 6.16 2.342l.252 1.007c.218.874.843 1.59 1.68 1.924 2.289.916 4.561-1.356 3.645-3.646a2.805 2.805 0 0 0-1.924-1.679l-1.007-.252A4.014 4.014 0 0 1 6.489.025z"/><path d="M0 9.263A8.054 8.054 0 1 0 9.263 0l-.874.874a2.002 2.002 0 0 0 .93 3.358l1.008.252a4.818 4.818 0 0 1 3.305 2.885c1.573 3.933-2.33 7.836-6.263 6.263a4.818 4.818 0 0 1-2.885-3.305l-.252-1.008a2.001 2.001 0 0 0-3.358-.93z"/></g></svg>