<svg width="24" height="24" viewBox="0 0 24 24" fill="none" xmlns="http://www.w3.org/2000/svg">
<path d="M12.6227 7.90115C13.4224 7.63938 14 6.88714 14 6C14 4.89543 13.1046 4 12 4C10.8954 4 10 4.89543 10 6C10 6.88714 10.5776 7.63938 11.3773 7.90115L10.7375 9.3407C10.3192 10.2819 9.25448 10.7515 8.27739 10.4258L6.92341 9.97447C6.97309 9.82535 7 9.66582 7 9.5C7 8.67157 6.32843 8 5.5 8C4.67157 8 4 8.67157 4 9.5C4 10.3284 4.67157 11 5.5 11C5.616 11 5.72893 10.9868 5.83736 10.9619L6.82112 15.2249C6.92583 15.6786 7.32986 16 7.79551 16H16.2045C16.6701 16 17.0742 15.6786 17.1789 15.2249L18.1626 10.9619C18.2711 10.9868 18.384 11 18.5 11C19.3284 11 20 10.3284 20 9.5C20 8.67157 19.3284 8 18.5 8C17.6716 8 17 8.67157 17 9.5C17 9.66582 17.0269 9.82535 17.0766 9.97447L15.7226 10.4258C14.7455 10.7515 13.6808 10.2819 13.2625 9.3407L12.6227 7.90115Z" fill="white"/>
<path d="M7 19C7 18.4477 7.44772 18 8 18H16C16.5523 18 17 18.4477 17 19C17 19.5523 16.5523 20 16 20H8C7.44772 20 7 19.5523 7 19Z" fill="white"/>
</svg>
