<svg xmlns="http://www.w3.org/2000/svg" width="24" height="24" viewBox="0 0 16 16" fill="none"><path fill="currentColor" d="M0 8c0-1.565.45-3.026 1.227-4.259A5.981 5.981 0 0 1 3 8a5.981 5.981 0 0 1-1.773 4.259A7.963 7.963 0 0 1 0 8Z"/><path fill="currentColor" d="M5 8c0-2.288-.96-4.351-2.5-5.81A7.973 7.973 0 0 1 8 0c2.13 0 4.066.833 5.5 2.19A7.978 7.978 0 0 0 11 8c0 2.288.96 4.351 2.5 5.81A7.973 7.973 0 0 1 8 16a7.973 7.973 0 0 1-5.5-2.19A7.977 7.977 0 0 0 5 8Z"/><path fill="currentColor" d="M14.774 3.741A7.962 7.962 0 0 1 16 8c0 1.565-.45 3.025-1.226 4.259A5.981 5.981 0 0 1 13 8c0-1.665.678-3.172 1.774-4.259Z"/></svg>