<svg width="24" height="24" viewBox="0 0 24 24" fill="none" xmlns="http://www.w3.org/2000/svg">
<path fill-rule="evenodd" clip-rule="evenodd" d="M20 12C20 16.4183 16.4182 20 12 20C7.58179 20 4 16.4183 4 12C4 7.58167 7.58179 4 12 4C16.4182 4 20 7.58167 20 12ZM14.166 18.1304C13.4885 18.3698 12.7595 18.5 12 18.5C11.2405 18.5 10.5115 18.3698 9.83398 18.1304L9.33594 16.6357L10.375 15.25H13.625L14.6643 16.6357L14.166 18.1304ZM17.3098 15.75C17.9663 14.822 18.386 13.7142 18.48 12.5151L16.8406 11.313L15.6023 11.6226L14.8235 14.348L15.875 15.75H17.3098ZM17.1223 7.99817L16.4333 9.86865L15.1401 10.192L12.75 8.59863V6.86047L14.0417 5.82715C15.2727 6.23401 16.3403 6.99878 17.1223 7.99817ZM6.69019 15.75H8.125L9.17676 14.348L8.39795 11.6226L7.15967 11.313L5.52002 12.5153C5.61401 13.7144 6.03369 14.822 6.69019 15.75ZM6.87769 7.99817L7.56665 9.86865L8.86011 10.192L11.25 8.59863V6.86047L9.95825 5.82715C8.72729 6.23401 7.65967 6.99878 6.87769 7.99817Z" fill="white"/>
</svg>
