<svg width="24" height="24" viewBox="0 0 24 24" fill="none" xmlns="http://www.w3.org/2000/svg">
<path d="M12 4C12.5523 4 13 4.44772 13 5V6H14C14.5523 6 15 6.44772 15 7C15 7.55228 14.5523 8 14 8H13V10.3486C13 10.7084 13.2916 11 13.6514 11C13.8692 11 14.0726 10.8912 14.1934 10.7099L15.4199 8.87019C15.7823 8.32654 16.3925 8 17.0458 8C18.1251 8 19 8.87491 19 9.95416V10.616C19 10.8707 18.9628 11.1239 18.8897 11.3678L17.7138 15.2873C17.5869 15.7103 17.1976 16 16.756 16H7.24403C6.80242 16 6.4131 15.7103 6.2862 15.2873L5.11033 11.3678C5.03717 11.1239 5 10.8707 5 10.616V9.95416C5 8.87491 5.87491 8 6.95416 8C7.60754 8 8.21769 8.32654 8.58013 8.87019L9.80662 10.7099C9.92743 10.8912 10.1308 11 10.3486 11C10.7084 11 11 10.7084 11 10.3486V8H10C9.44772 8 9 7.55228 9 7C9 6.44772 9.44772 6 10 6H11V5C11 4.44772 11.4477 4 12 4Z" fill="white"/>
<path d="M8 18C7.44772 18 7 18.4477 7 19C7 19.5523 7.44772 20 8 20H16C16.5523 20 17 19.5523 17 19C17 18.4477 16.5523 18 16 18H8Z" fill="white"/>
</svg>
