<svg width="24" height="24" viewBox="0 0 24 24" fill="none" xmlns="http://www.w3.org/2000/svg">
<path fill-rule="evenodd" clip-rule="evenodd" d="M12 4C7.58179 4 4 7.58167 4 12V13.8378C4 15.129 4.82617 16.2754 6.05127 16.6837C6.64844 16.8828 7.11719 17.3514 7.31616 17.9487L7.77197 19.3163C7.9082 19.7246 8.29028 20 8.7207 20H9C9.55225 20 10 19.5522 10 19C10 19.5522 10.4478 20 11 20C11.5522 20 12 19.5522 12 19C12 19.5522 12.4478 20 13 20C13.5522 20 14 19.5522 14 19C14 19.5522 14.4478 20 15 20H15.2793C15.7097 20 16.0918 19.7246 16.228 19.3163L16.6838 17.9487C16.8828 17.3514 17.3516 16.8828 17.9487 16.6837C19.1738 16.2754 20 15.129 20 13.8378V12C20 7.58167 16.4182 4 12 4ZM12.416 14.7226C12.3233 14.5836 12.1672 14.5 12 14.5C11.8328 14.5 11.6767 14.5836 11.584 14.7226L10.584 16.2226C10.4817 16.3761 10.4722 16.5733 10.5592 16.7359C10.6462 16.8985 10.8156 17 11 17H13C13.1844 17 13.3538 16.8985 13.4408 16.7359C13.5278 16.5733 13.5183 16.3761 13.416 16.2226L12.416 14.7226ZM7.20446 11.4312C7.10561 10.7393 7.72902 10.162 8.41134 10.3136L10.4176 10.7595C10.9965 10.8881 11.3369 11.4893 11.1494 12.0519L10.7702 13.1894C10.6146 13.6562 10.1425 13.9404 9.65713 13.8595L8.94406 13.7407C8.08422 13.5974 7.41624 12.9137 7.29296 12.0507L7.20446 11.4312ZM15.5887 10.3136C16.271 10.162 16.8944 10.7393 16.7955 11.4312L16.707 12.0507C16.5838 12.9137 15.9158 13.5974 15.0559 13.7407L14.3429 13.8595C13.8575 13.9404 13.3854 13.6562 13.2298 13.1894L12.8506 12.0519C12.6631 11.4893 13.0035 10.8881 13.5824 10.7595L15.5887 10.3136Z" fill="white"/>
</svg>
