<svg xmlns="http://www.w3.org/2000/svg" width="24" height="24" viewBox="0 0 16 16" fill="none"><g fill="currentColor"><path d="M14.773 12.292C15.551 11.049 16 9.578 16 8s-.45-3.05-1.227-4.292C13.678 4.804 13 6.322 13 8s.678 3.196 1.773 4.292z"/><path d="M13.5 13.855A8.07 8.07 0 0 1 11 8a8.07 8.07 0 0 1 2.5-5.855A7.947 7.947 0 0 0 9 0v16a7.947 7.947 0 0 0 4.5-2.145zM0 8c0-1.578.45-3.05 1.227-4.292C2.322 4.804 3 6.322 3 8s-.678 3.196-1.773 4.292A8.07 8.07 0 0 1 0 8z"/><path d="M5 8a8.07 8.07 0 0 0-2.5-5.855A7.947 7.947 0 0 1 7 0v16a7.947 7.947 0 0 1-4.5-2.145A8.07 8.07 0 0 0 5 8z"/></g></svg>