<svg width="24" height="24" viewBox="0 0 24 24" fill="none" xmlns="http://www.w3.org/2000/svg">
<path d="M20 7V8C17.7909 8 16 6.20914 16 4H17C18.6569 4 20 5.34315 20 7Z" fill="white"/>
<path fill-rule="evenodd" clip-rule="evenodd" d="M14.0017 4.14304C14.0765 7.34312 16.6569 9.92346 19.857 9.99833C19.6338 11.3687 19.1523 12.6899 18.4324 13.8896L18.1437 14.3708C17.2148 15.919 15.919 17.2148 14.3708 18.1437L13.8896 18.4324C12.6899 19.1523 11.3687 19.6338 9.99833 19.857C9.92346 16.6569 7.34312 14.0765 4.14304 14.0017C4.36622 12.6313 4.84774 11.3101 5.56758 10.1104L5.85627 9.62924C6.78522 8.08099 8.08099 6.78521 9.62924 5.85627L10.1104 5.56758C11.3101 4.84774 12.6313 4.36622 14.0017 4.14304ZM13.7071 8.29289C13.3166 7.90237 12.6834 7.90237 12.2929 8.29289C11.9024 8.68342 11.9024 9.31658 12.2929 9.70711L12.5858 10L12 10.5858L11.2071 9.79289C10.8166 9.40237 10.1834 9.40237 9.79289 9.79289C9.40237 10.1834 9.40237 10.8166 9.79289 11.2071L10.5858 12L10 12.5858L9.70711 12.2929C9.31658 11.9024 8.68342 11.9024 8.29289 12.2929C7.90237 12.6834 7.90237 13.3166 8.29289 13.7071L10.2929 15.7071C10.6834 16.0976 11.3166 16.0976 11.7071 15.7071C12.0976 15.3166 12.0976 14.6834 11.7071 14.2929L11.4142 14L12 13.4142L12.7929 14.2071C13.1834 14.5976 13.8166 14.5976 14.2071 14.2071C14.5976 13.8166 14.5976 13.1834 14.2071 12.7929L13.4142 12L14 11.4142L14.2929 11.7071C14.6834 12.0976 15.3166 12.0976 15.7071 11.7071C16.0976 11.3166 16.0976 10.6834 15.7071 10.2929L13.7071 8.29289Z" fill="white"/>
<path d="M8 20C8 17.7909 6.20914 16 4 16V17C4 18.6569 5.34315 20 7 20H8Z" fill="white"/>
</svg>
