<svg width="24" height="24" viewBox="0 0 24 24" fill="none" xmlns="http://www.w3.org/2000/svg">
<path fill-rule="evenodd" clip-rule="evenodd" d="M6 7C6 7.35064 6.06015 7.68722 6.17071 8H6C4.89543 8 4 8.89543 4 10V11H20V10C20 8.89543 19.1046 8 18 8H17.8293C17.9398 7.68722 18 7.35064 18 7C18 5.34315 16.6569 4 15 4C13.6688 4 12.6572 4.65761 12 5.57649C11.3428 4.65761 10.3312 4 9 4C7.34315 4 6 5.34315 6 7ZM9 6C8.44772 6 8 6.44772 8 7C8 7.55228 8.44772 8 9 8H10.8969C10.7991 7.54154 10.6349 7.13006 10.4179 6.8047C10.0716 6.28518 9.61209 6 9 6ZM13.1031 8H15C15.5523 8 16 7.55228 16 7C16 6.44772 15.5523 6 15 6C14.3879 6 13.9284 6.28518 13.5821 6.8047C13.3651 7.13006 13.2009 7.54154 13.1031 8Z" fill="white"/>
<path d="M11 13V20H7C5.89543 20 5 19.1046 5 18V13H11Z" fill="white"/>
<path d="M19 18V13H13V20H17C18.1046 20 19 19.1046 19 18Z" fill="white"/>
</svg>
