<svg xmlns="http://www.w3.org/2000/svg" width="24" height="24" viewBox="0 0 16 16" fill="none"><g fill="currentColor"><path fill-rule="evenodd" d="M2 3c0 .35.06.687.17 1H2a2 2 0 0 0-2 2v1h16V6a2 2 0 0 0-2-2h-.17A3 3 0 0 0 11 0C9.669 0 8.657.658 8 1.576 7.343.658 6.331 0 5 0a3 3 0 0 0-3 3zm3-1a1 1 0 0 0 0 2h1.897a3.476 3.476 0 0 0-.48-1.195C6.073 2.285 5.613 2 5.001 2zm4.103 2H11a1 1 0 1 0 0-2c-.612 0-1.072.285-1.418.805A3.476 3.476 0 0 0 9.103 4z" clip-rule="evenodd"/><path d="M7 9v7H3a2 2 0 0 1-2-2V9zM15 14V9H9v7h4a2 2 0 0 0 2-2z"/></g></svg>