<svg xmlns="http://www.w3.org/2000/svg" width="24" height="24" viewBox="0 0 16 16" fill="none"><path fill="currentColor" fill-rule="evenodd" d="M16 8A8 8 0 1 0 0 8a8 8 0 0 0 16 0zM4.527 9c.093 1.696.417 3.227.9 4.421A6.008 6.008 0 0 1 2.082 9zM6.53 9c.097 1.57.414 2.91.827 3.855.238.543.472.875.643 1.05.17-.175.405-.507.643-1.05.413-.945.73-2.285.827-3.855zm2.94-2H6.53c.097-1.57.414-2.91.827-3.855.238-.543.472-.875.643-1.05.17.175.405.507.643 1.05.413.945.73 2.285.827 3.855zm2.003 2c-.093 1.696-.417 3.227-.9 4.421A6.008 6.008 0 0 0 13.918 9zm2.444-2a6.008 6.008 0 0 0-3.343-4.421c.482 1.194.806 2.725.899 4.421zm-9.39 0H2.083a6.008 6.008 0 0 1 3.343-4.421C4.944 3.772 4.62 5.303 4.527 7z" clip-rule="evenodd"/></svg>