<svg width="24" height="24" viewBox="0 0 24 24" fill="none" xmlns="http://www.w3.org/2000/svg">
<path fill-rule="evenodd" clip-rule="evenodd" d="M20 12C20 7.58172 16.4183 4 12 4C7.58172 4 4 7.58172 4 12C4 16.4183 7.58172 20 12 20C16.4183 20 20 16.4183 20 12ZM8.52708 13C8.6196 14.6958 8.94433 16.2268 9.42625 17.4215C7.68889 16.5953 6.41153 14.9585 6.08296 13H8.52708ZM10.5304 13C10.6268 14.57 10.944 15.9101 11.3574 16.8552C11.595 17.3982 11.8292 17.7303 12 17.9057C12.1708 17.7303 12.405 17.3982 12.6426 16.8552C13.056 15.9101 13.3732 14.57 13.4696 13H10.5304ZM13.4696 11H10.5304C10.6268 9.43001 10.944 8.0899 11.3574 7.14478C11.595 6.60177 11.8292 6.26966 12 6.09426C12.1708 6.26966 12.405 6.60177 12.6426 7.14478C13.056 8.0899 13.3732 9.43001 13.4696 11ZM15.4729 13C15.3804 14.6958 15.0557 16.2268 14.5737 17.4215C16.3111 16.5953 17.5885 14.9585 17.917 13H15.4729ZM17.917 11C17.5885 9.04151 16.3111 7.40475 14.5737 6.5785C15.0557 7.77317 15.3804 9.30417 15.4729 11H17.917ZM8.52708 11H6.08296C6.41153 9.04151 7.68889 7.40475 9.42625 6.5785C8.94433 7.77317 8.6196 9.30417 8.52708 11Z" fill="white"/>
</svg>
