<svg width="24" height="24" viewBox="0 0 24 24" fill="none" xmlns="http://www.w3.org/2000/svg">
<path d="M4 13C4 12.1716 4.67157 11.5 5.5 11.5H18.5C19.3284 11.5 20 12.1716 20 13C20 13.8284 19.3284 14.5 18.5 14.5H5.5C4.67157 14.5 4 13.8284 4 13Z" fill="white"/>
<path d="M19 10C19.5523 10 20 9.55228 20 9C20 6.23853 16.4182 4 12 4C7.58179 4 4 6.23853 4 9C4 9.55228 4.44772 10 5 10H19Z" fill="white"/>
<path d="M13.279 16.5039C13.101 16.1923 12.7696 16 12.4108 16H5C4.44772 16 4 16.4477 4 17C4 18.6569 7.58179 20 12 20C16.4182 20 20 18.6569 20 17C20 16.4477 19.5523 16 19 16H17.5892C17.2304 16 16.899 16.1923 16.721 16.5039L15.8682 17.9961C15.6902 18.3077 15.3589 18.5 15 18.5C14.6411 18.5 14.3098 18.3077 14.1318 17.9961L13.279 16.5039Z" fill="white"/>
</svg>
