<svg width="24" height="24" viewBox="0 0 24 24" fill="none" xmlns="http://www.w3.org/2000/svg">
<path fill-rule="evenodd" clip-rule="evenodd" d="M15.0002 5C15.0002 4.44772 14.5525 4 14.0002 4C13.4479 4 13.0002 4.44772 13.0002 5V10.5C13.0002 10.7761 12.7764 11 12.5002 11C12.2241 11 12.0002 10.7761 12.0002 10.5V6C12.0002 5.44772 11.5525 5 11.0002 5C10.4479 5 10.0002 5.44772 10.0002 6L10.0001 13.1111C10.0001 13.3636 9.6684 13.4569 9.53678 13.2414L7.89465 10.5528C7.64766 10.0588 7.04698 9.85858 6.55301 10.1056C6.05903 10.3526 5.8588 10.9532 6.10579 11.4472L9.27661 17.7889C9.95418 19.144 11.3392 20 12.8543 20H13.0002C15.7616 20 18.0002 17.7614 18.0002 15V7C18.0002 6.44772 17.5525 6 17.0002 6C16.4479 6 16.0002 6.44772 16.0002 7V10.5C16.0002 10.7761 15.7764 11 15.5002 11C15.2241 11 15.0002 10.7761 15.0002 10.5V5Z" fill="white"/>
</svg>
