<svg xmlns="http://www.w3.org/2000/svg" width="24" height="24" viewBox="0 0 16 16" fill="none"><g fill="currentColor"><path d="M0 5.573c0-.475.163-.948.53-1.25a4.57 4.57 0 0 1 .854-.553l4.572-2.286a4.571 4.571 0 0 1 4.088 0l4.572 2.286c.308.154.594.34.853.553.306.25.47.62.517 1.01.01.055.014.111.014.169v6.5a1 1 0 1 1-2 0V7.684l-3.956 1.978a4.572 4.572 0 0 1-4.088 0L1.384 7.376a4.57 4.57 0 0 1-.853-.553C.163 6.522 0 6.05 0 5.573z"/><path d="M5.061 14.304 3 13.274V10.42l2.061 1.03a6.57 6.57 0 0 0 5.878 0L13 10.42v2.854l-2.061 1.03a6.571 6.571 0 0 1-5.878 0z"/></g></svg>