<svg width="24" height="24" viewBox="0 0 24 24" fill="none" xmlns="http://www.w3.org/2000/svg">
<path d="M4 9.57326C4 9.09759 4.16276 8.62475 4.53065 8.32324C4.79043 8.11034 5.07601 7.92424 5.38417 7.77016L9.95559 5.48445C11.2426 4.84096 12.7574 4.84096 14.0444 5.48445L18.6158 7.77016C18.924 7.92424 19.2096 8.11034 19.4693 8.32324C19.7752 8.57387 19.9392 8.94287 19.9859 9.33348C19.9952 9.38821 20 9.44446 20 9.50183V16.0018C20 16.5541 19.5523 17.0018 19 17.0018C18.4477 17.0018 18 16.5541 18 16.0018V11.6843L14.0444 13.6621C12.7574 14.3056 11.2426 14.3056 9.95559 13.6621L5.38417 11.3763C5.07601 11.2223 4.79043 11.0362 4.53065 10.8233C4.16276 10.5218 4 10.0489 4 9.57326Z" fill="white"/>
<path d="M9.06117 18.3044L7 17.2739V14.4203L9.06117 15.4509C10.9112 16.3759 13.0888 16.3759 14.9388 15.4509L17 14.4203V17.2739L14.9388 18.3044C13.0888 19.2295 10.9112 19.2295 9.06117 18.3044Z" fill="white"/>
</svg>
