<svg xmlns="http://www.w3.org/2000/svg" width="24" height="24" viewBox="0 0 16 16" fill="none"><path fill="currentColor" fill-rule="evenodd" d="M8 0a1 1 0 0 1 1 1v1.083a5.992 5.992 0 0 1 3.556 2.013l.93-.558a1 1 0 1 1 1.03 1.714l-.928.557C13.854 6.488 14 7.227 14 8c0 .773-.146 1.512-.412 2.19l.927.558a1 1 0 0 1-1.03 1.714l-.929-.558A5.992 5.992 0 0 1 9 13.917V15a1 1 0 1 1-2 0v-1.083a5.992 5.992 0 0 1-3.556-2.013l-.93.558a1 1 0 1 1-1.03-1.714l.929-.557A5.984 5.984 0 0 1 2 8c0-.773.146-1.512.413-2.19l-.928-.558a1 1 0 1 1 1.03-1.714l.929.558A5.993 5.993 0 0 1 7 2.083V1a1 1 0 0 1 1-1zm1 4.449c0-.164.154-.283.309-.23.463.16.888.404 1.257.712.125.105.102.3-.038.383l-1.15.69A.25.25 0 0 1 9 5.792zM4.085 7.175c.034-.16.216-.23.356-.147l1.26.758a.25.25 0 0 1 0 .428l-1.26.758c-.14.084-.322.013-.356-.147a4.017 4.017 0 0 1 0-1.65zM7 10.209a.25.25 0 0 0-.379-.214l-1.149.69c-.14.085-.163.279-.038.384.369.308.794.551 1.257.712.155.053.31-.066.31-.23zm4.915-3.034c-.034-.16-.216-.231-.356-.147l-1.26.758a.25.25 0 0 0 0 .428l1.26.758c.14.084.322.013.356-.147a4.014 4.014 0 0 0 0-1.65zM7 5.79a.25.25 0 0 1-.379.214l-1.15-.69c-.14-.085-.162-.279-.037-.384a3.994 3.994 0 0 1 1.257-.712c.155-.053.31.066.31.23zM9.38 9.995A.25.25 0 0 0 9 10.21v1.342c0 .164.154.283.309.23.463-.16.888-.404 1.257-.712.125-.105.102-.3-.038-.383z" clip-rule="evenodd"/></svg>