<svg width="24" height="24" viewBox="0 0 24 24" fill="none" xmlns="http://www.w3.org/2000/svg">
<path fill-rule="evenodd" clip-rule="evenodd" d="M12.0003 4C12.5526 4 13.0003 4.44772 13.0003 5V6.08296C14.4149 6.32028 15.6616 7.0526 16.5564 8.09573L17.4853 7.53757C17.9587 7.25312 18.573 7.4063 18.8575 7.8797C19.1419 8.3531 18.9888 8.96745 18.5154 9.2519L17.5878 9.80927C17.854 10.4879 18.0003 11.2269 18.0003 12C18.0003 12.7731 17.854 13.5121 17.5877 14.1908L18.5153 14.7481C18.9887 15.0325 19.1419 15.6469 18.8574 16.1203C18.573 16.5937 17.9586 16.7469 17.4852 16.4624L16.5563 15.9043C15.6616 16.9474 14.4149 17.6797 13.0003 17.917V19C13.0003 19.5523 12.5526 20 12.0003 20C11.448 20 11.0003 19.5523 11.0003 19V17.917C9.58562 17.6797 8.33883 16.9474 7.4441 15.9042L6.51502 16.4624C6.04162 16.7469 5.42726 16.5937 5.14281 16.1203C4.85836 15.6469 5.01154 15.0325 5.48494 14.7481L6.41274 14.1906C6.14647 13.512 6.00027 12.7731 6.00027 12C6.00027 11.2269 6.14647 10.488 6.41272 9.80941L5.48487 9.2519C5.01147 8.96745 4.85829 8.3531 5.14274 7.87969C5.42719 7.40629 6.04154 7.25312 6.51494 7.53757L7.44408 8.09584C8.3388 7.05266 9.58561 6.32029 11.0003 6.08296V5C11.0003 4.44772 11.448 4 12.0003 4ZM13.0003 8.44851C13.0003 8.28515 13.1546 8.16557 13.309 8.219C13.7726 8.37944 14.1975 8.62275 14.5661 8.93121C14.6914 9.03611 14.6684 9.2301 14.5283 9.31428L13.379 10.0049C13.2124 10.105 13.0003 9.98496 13.0003 9.79056V8.44851ZM8.08545 11.1749C8.119 11.0149 8.30111 10.9441 8.44123 11.0283L9.70187 11.7857C9.86352 11.8829 9.86353 12.1172 9.70187 12.2143L8.44124 12.9718C8.30112 13.056 8.11901 12.9851 8.08546 12.8251C8.02963 12.5589 8.00027 12.2829 8.00027 12C8.00027 11.7172 8.02962 11.4412 8.08545 11.1749ZM11.0003 14.2093C11.0003 14.0149 10.7881 13.8949 10.6215 13.995L9.4721 14.6856C9.33201 14.7698 9.30905 14.9638 9.43437 15.0687C9.80293 15.3772 10.2279 15.6205 10.6915 15.781C10.8459 15.8344 11.0003 15.7148 11.0003 15.5515V14.2093ZM15.915 11.1748C15.8815 11.0148 15.6994 10.9439 15.5593 11.0281L14.2984 11.7857C14.1367 11.8829 14.1367 12.1172 14.2984 12.2143L15.5593 12.9719C15.6994 13.0561 15.8815 12.9853 15.915 12.8253C15.9709 12.559 16.0003 12.2829 16.0003 12C16.0003 11.7171 15.9709 11.4411 15.915 11.1748ZM11.0003 9.79074C11.0003 9.98514 10.7881 10.1052 10.6215 10.005L9.47207 9.31438C9.33198 9.23021 9.30902 9.03622 9.43434 8.93132C9.8029 8.62281 10.2279 8.37946 10.6915 8.219C10.8459 8.16557 11.0003 8.28515 11.0003 8.44851V9.79074ZM13.379 13.9952C13.2124 13.8951 13.0003 14.0151 13.0003 14.2095V15.5515C13.0003 15.7148 13.1546 15.8344 13.309 15.781C13.7726 15.6206 14.1975 15.3773 14.566 15.0688C14.6914 14.9639 14.6684 14.7699 14.5283 14.6857L13.379 13.9952Z" fill="white"/>
</svg>
