<svg width="24" height="24" viewBox="0 0 24 24" fill="none" xmlns="http://www.w3.org/2000/svg">
<path d="M14.4 4.8C12.9778 3.73333 11.0222 3.73333 9.59999 4.8L5.59999 7.8C4.25821 8.80634 3.68673 10.5429 4.16868 12.1494L5.66868 17.1494C6.17626 18.8413 7.73356 20 9.49999 20H10C10.2761 20 10.5 19.7761 10.5 19.5V17.5C10.5 16.6716 11.1716 16 12 16C12.8284 16 13.5 16.6716 13.5 17.5V19.5C13.5 19.7761 13.7239 20 14 20H14.5C16.2664 20 17.8237 18.8413 18.3313 17.1494L19.8313 12.1494C20.3132 10.5429 19.7418 8.80634 18.4 7.8L14.4 4.8Z" fill="white"/>
</svg>
