<svg width="24" height="24" viewBox="0 0 24 24" fill="none" xmlns="http://www.w3.org/2000/svg">
<path d="M18 6C18 4.89543 17.1046 4 16 4H8C6.89543 4 6 4.89543 6 6V7.10187C6 7.67314 6.2443 8.21715 6.67127 8.59669L9.65916 11.2526C10.1067 11.6504 10.1067 12.3496 9.65916 12.7474L6.67127 15.4033C6.2443 15.7828 6 16.3269 6 16.8981V18C6 19.1046 6.89543 20 8 20H16C17.1046 20 18 19.1046 18 18V16.8981C18 16.3269 17.7557 15.7828 17.3287 15.4033L14.3408 12.7474C13.8933 12.3496 13.8933 11.6504 14.3408 11.2526L17.3287 8.59669C17.7557 8.21715 18 7.67314 18 7.10187V6Z" fill="white"/>
</svg>
