<svg width="24" height="24" viewBox="0 0 24 24" fill="none" xmlns="http://www.w3.org/2000/svg">
<path fill-rule="evenodd" clip-rule="evenodd" d="M15.4171 4.7938C14.3587 3.7354 12.6427 3.7354 11.5843 4.7938L8.7953 7.58281C7.7369 8.64121 7.7369 10.3572 8.7953 11.4156L9.18973 11.81L4.29292 16.7069C4.10536 16.8944 4 17.1488 4 17.414V18.9999C4 19.5522 4.44775 20 5.00007 20H6.58598C6.85122 20 7.10559 19.8946 7.29314 19.7071L12.19 14.8103L12.5844 15.2047C13.6428 16.2631 15.3588 16.2631 16.4172 15.2047L19.2062 12.4157C20.2646 11.3573 20.2646 9.64128 19.2062 8.58288L15.4171 4.7938ZM14.5002 10.9999C15.3287 10.9999 16.0003 10.3283 16.0003 9.4998C16.0003 8.67131 15.3287 7.99969 14.5002 7.99969C13.6717 7.99969 13.0001 8.67131 13.0001 9.4998C13.0001 10.3283 13.6717 10.9999 14.5002 10.9999Z" fill="white"/>
</svg>
