<svg xmlns="http://www.w3.org/2000/svg" width="24" height="24" viewBox="0 0 16 16" fill="none"><g fill="currentColor"><path fill-rule="evenodd" d="M6 0a1 1 0 0 0-1 1v1H4a2 2 0 0 0-2 2v7a2 2 0 0 0 2 2h8a2 2 0 0 0 2-2V4a2 2 0 0 0-2-2h-1V1a1 1 0 0 0-1-1zm0 7a1 1 0 1 0 0-2 1 1 0 0 0 0 2zm5-1a1 1 0 1 1-2 0 1 1 0 0 1 2 0zM6.663 8.963a.75.75 0 1 0-.619 1.367c.598.27 1.26.42 1.956.42s1.358-.15 1.956-.42a.75.75 0 1 0-.619-1.367c-.407.184-.859.287-1.337.287s-.93-.103-1.337-.287z" clip-rule="evenodd"/><path d="M5 15a1 1 0 0 1 1-1h4a1 1 0 1 1 0 2H6a1 1 0 0 1-1-1z"/></g></svg>