<svg width="24" height="24" viewBox="0 0 24 24" fill="none" xmlns="http://www.w3.org/2000/svg">
<path fill-rule="evenodd" clip-rule="evenodd" d="M10 4C9.44772 4 9 4.44772 9 5V6H8C6.89543 6 6 6.89543 6 8V15C6 16.1046 6.89543 17 8 17H16C17.1046 17 18 16.1046 18 15V8C18 6.89543 17.1046 6 16 6H15V5C15 4.44772 14.5523 4 14 4H10ZM10 11C10.5523 11 11 10.5523 11 10C11 9.44772 10.5523 9 10 9C9.44772 9 9 9.44772 9 10C9 10.5523 9.44772 11 10 11ZM15 10C15 10.5523 14.5523 11 14 11C13.4477 11 13 10.5523 13 10C13 9.44772 13.4477 9 14 9C14.5523 9 15 9.44772 15 10ZM10.6626 12.9631C10.2851 12.7924 9.84083 12.96 9.67015 13.3374C9.49947 13.7149 9.66706 14.1592 10.0445 14.3299C10.6418 14.6 11.3044 14.75 12 14.75C12.6956 14.75 13.3582 14.6 13.9556 14.3299C14.333 14.1592 14.5006 13.7149 14.3299 13.3374C14.1592 12.96 13.7149 12.7924 13.3375 12.9631C12.9305 13.1472 12.4783 13.25 12 13.25C11.5217 13.25 11.0695 13.1472 10.6626 12.9631Z" fill="white"/>
<path d="M9 19C9 18.4477 9.44772 18 10 18H14C14.5523 18 15 18.4477 15 19C15 19.5523 14.5523 20 14 20H10C9.44772 20 9 19.5523 9 19Z" fill="white"/>
</svg>
