<svg width="24" height="24" viewBox="0 0 24 24" fill="none" xmlns="http://www.w3.org/2000/svg">
<path d="M20 9C20 8.65344 19.8206 8.33154 19.5258 8.14935C19.231 7.96716 18.8628 7.95056 18.5527 8.10559L13.7888 10.4875C12.6627 11.0506 11.3373 11.0506 10.2112 10.4875L5.44727 8.10559C5.13721 7.95056 4.76904 7.96716 4.47424 8.14935C4.17944 8.33154 4 8.65344 4 9V14C4 15.5151 4.85601 16.9001 6.21115 17.5777L10.2111 19.5777C11.3373 20.1408 12.6627 20.1408 13.7889 19.5777L17.7889 17.5777C19.144 16.9001 20 15.5151 20 14V9Z" fill="white"/>
<path d="M16 6C16 7.10455 14.2091 8 12 8C9.79089 8 8 7.10455 8 6C8 4.89545 9.79089 4 12 4C14.2091 4 16 4.89545 16 6Z" fill="white"/>
</svg>
