<svg width="24" height="24" viewBox="0 0 24 24" fill="none" xmlns="http://www.w3.org/2000/svg">
<path fill-rule="evenodd" clip-rule="evenodd" d="M9.12129 4.90912C9.35766 4.3576 9.89996 4 10.5 4H16.5C17.028 4 17.517 4.27756 17.7878 4.73082C18.0585 5.18408 18.071 5.7463 17.8207 6.21115L15.2421 11H16.5C17.1277 11 17.689 11.3909 17.9068 11.9796C18.1246 12.5683 17.9528 13.2304 17.4762 13.6389L10.4762 19.6389C9.92761 20.1091 9.12178 20.1214 8.55909 19.6682C7.99639 19.215 7.83675 18.425 8.1793 17.7888L10.2194 14H7.50001C6.99579 14 6.52531 13.7467 6.24774 13.3257C5.97018 12.9048 5.92267 12.3726 6.12129 11.9091L9.12129 4.90912Z" fill="white"/>
</svg>
