<svg width="24" height="24" viewBox="0 0 24 24" fill="none" xmlns="http://www.w3.org/2000/svg">
<path fill-rule="evenodd" clip-rule="evenodd" d="M18 10C18 12.2209 16.7935 14.1599 15 15.1973V16C15 16.5523 14.5522 17 14 17H10C9.44775 17 9 16.5523 9 16V15.1973C7.20654 14.1599 6 12.2209 6 10C6 6.68628 8.68628 4 12 4C15.3137 4 18 6.68628 18 10ZM10.5858 8.58577C10.9763 8.19524 10.9763 7.56208 10.5858 7.17156C10.1953 6.78103 9.5621 6.78103 9.17157 7.17156C8.44881 7.89432 8 8.89569 8 9.99998C8 11.1043 8.44881 12.1056 9.17157 12.8284C9.5621 13.2189 10.1953 13.2189 10.5858 12.8284C10.9763 12.4379 10.9763 11.8047 10.5858 11.4142C10.2228 11.0512 10 10.5525 10 9.99998C10 9.44742 10.2228 8.94879 10.5858 8.58577Z" fill="white"/>
<path d="M11 18C10.4478 18 10 18.4477 10 19C10 19.5523 10.4478 20 11 20H13C13.5522 20 14 19.5523 14 19C14 18.4477 13.5522 18 13 18H11Z" fill="white"/>
</svg>
