<svg width="24" height="24" viewBox="0 0 24 24" fill="none" xmlns="http://www.w3.org/2000/svg">
<path d="M18.876 14.121C19.4728 14.0464 20 14.5118 20 15.1133V18.1367C20 18.641 19.6245 19.0664 19.124 19.129L16.562 19.4492C16.2636 19.4865 16 19.2538 16 18.9531V14.9219C16 14.6698 16.1878 14.4571 16.438 14.4258L18.876 14.121Z" fill="white"/>
<path d="M15 8.82806C15 9.12881 14.7364 9.36151 14.438 9.3242L11.8674 9.00288C10.2721 9.07227 9 10.3876 9 12C9 13.6124 10.2721 14.9277 11.8674 14.9971L14.438 14.6758C14.7364 14.6385 15 14.8712 15 15.1719V19.2031C15 19.4552 14.8122 19.6679 14.562 19.6992L12.1556 20H12C7.58172 20 4 16.4183 4 12C4 7.58172 7.58172 4 12 4L12.1556 4L14.562 4.3008C14.8122 4.33207 15 4.54477 15 4.79694V8.82806Z" fill="white"/>
<path d="M16 9.07806C16 9.33023 16.1878 9.54293 16.438 9.5742L18.876 9.87895C19.4728 9.95356 20 9.48817 20 8.88667V5.86333C20 5.359 19.6245 4.9336 19.124 4.87105L16.562 4.5508C16.2636 4.51349 16 4.74619 16 5.04694V9.07806Z" fill="white"/>
</svg>
