<svg xmlns="http://www.w3.org/2000/svg" width="24" height="24" viewBox="0 0 16 16" fill="none"><g fill="currentColor"><path d="M14.876 10.121a1 1 0 0 1 1.124.992v3.024a1 1 0 0 1-.876.992l-2.562.32a.5.5 0 0 1-.562-.496v-4.031a.5.5 0 0 1 .438-.496zM11 4.828a.5.5 0 0 1-.562.496l-2.57-.321a3 3 0 0 0 0 5.994l2.57-.321a.5.5 0 0 1 .562.496v4.031a.5.5 0 0 1-.438.496L8.156 16H8A8 8 0 1 1 8 0h.156l2.406.3A.5.5 0 0 1 11 .798zM12 5.078a.5.5 0 0 0 .438.496l2.438.305A1 1 0 0 0 16 4.887V1.863a1 1 0 0 0-.876-.992l-2.562-.32a.5.5 0 0 0-.562.496z"/></g></svg>