<svg width="24" height="24" viewBox="0 0 24 24" fill="none" xmlns="http://www.w3.org/2000/svg">
<path d="M17.5607 4.43934C16.9749 3.85355 16.0251 3.85355 15.4393 4.43934L14.4393 5.43934L18.5607 9.56066L19.5607 8.56066C20.1464 7.97487 20.1464 7.02513 19.5607 6.43934L17.5607 4.43934Z" fill="white"/>
<path d="M17.5607 10.5607L13.4393 6.43934L8.43934 11.4393L12.5607 15.5607L17.5607 10.5607Z" fill="white"/>
<path d="M6.43934 13.4393L7.43934 12.4393L11.5607 16.5607L10.5607 17.5607C10.3839 17.7374 10.1741 17.8608 9.95109 17.9309C9.83581 17.9761 9.71203 18 9.58579 18H8.91421C8.649 18 8.39464 18.1054 8.20711 18.2929L7.35355 19.1464C7.15829 19.3417 6.84171 19.3417 6.64645 19.1464L6.25 18.75L5 20H4V19L5.25 17.75L4.85355 17.3536C4.65829 17.1583 4.65829 16.8417 4.85355 16.6464L5.70711 15.7929C5.89464 15.6054 6 15.351 6 15.0858V14.4142C6 14.288 6.02387 14.1642 6.06911 14.0489C6.1392 13.8259 6.26261 13.6161 6.43934 13.4393Z" fill="white"/>
</svg>
