<svg xmlns="http://www.w3.org/2000/svg" width="24" height="24" viewBox="0 0 16 16" fill="none"><g fill="currentColor"><path d="M13.56.44a1.5 1.5 0 0 0-2.12 0l-1 1 4.12 4.12 1-1a1.5 1.5 0 0 0 0-2.12zM13.56 6.56 9.44 2.44l-5 5 4.12 4.12zM2.44 9.44l1-1 4.12 4.12-1 1c-.176.177-.386.3-.609.37a1 1 0 0 1-.365.07h-.672a1 1 0 0 0-.707.293l-.853.853a.5.5 0 0 1-.708 0l-.396-.396L1 16H0v-1l1.25-1.25-.396-.396a.5.5 0 0 1 0-.708l.853-.853A1 1 0 0 0 2 11.086v-.672a1 1 0 0 1 .07-.365c.07-.223.193-.433.37-.61z"/></g></svg>