<svg width="24" height="24" viewBox="0 0 24 24" fill="none" xmlns="http://www.w3.org/2000/svg">
<path d="M14.0007 13C15.1053 13 16.0007 12.1046 16.0007 11C16.0007 9.89543 15.1053 9 14.0007 9C12.8962 9 12.0007 9.89543 12.0007 11C12.0007 12.1046 12.8962 13 14.0007 13Z" fill="white"/>
<path fill-rule="evenodd" clip-rule="evenodd" d="M6.80192 7.44332C8.5425 6.01634 11.0165 5 14 5C17.3137 5 20 7.68629 20 11L20 13.0001C20 15.6814 18 18.9741 13.9959 19.0001C12.9827 18.9941 11.9866 18.3955 11.2936 17.7026C10.2702 16.6794 9.87988 16.419 9.44918 16.3447C8.658 16.2082 7.75137 16.4906 6.94614 16.7415C6.75105 16.8022 6.56192 16.8611 6.38182 16.9118C5.97298 17.0268 5.51729 17.0527 5.08488 16.8636C4.16817 16.4626 4 15.3902 4 14.5001V12.5C4 10.7288 5.09213 8.84506 6.80192 7.44332ZM14.018 15C16.2189 14.9903 18 13.2031 18 11C18 8.79086 16.2091 7 14 7C11.4793 7 9.45328 7.85586 8.06992 8.98999C7.12937 9.76107 6.25524 10.877 6.03741 12.1096C5.95625 12.5688 6.41105 12.8801 6.85853 12.7488C7.81624 12.4679 8.82749 12.2078 9.78921 12.3738C10.6494 12.5222 11.2852 13.1286 11.9074 13.7221C12.5485 14.3337 13.1752 14.9314 14.018 15Z" fill="white"/>
</svg>
