<svg xmlns="http://www.w3.org/2000/svg" width="24" height="24" viewBox="0 0 16 16" fill="none"><g fill="currentColor"><path d="M10 9a2 2 0 1 0 0-4 2 2 0 0 0 0 4z"/><path fill-rule="evenodd" d="M2.802 3.443C4.542 2.016 7.016 1 10 1a6 6 0 0 1 6 6v2c0 2.681-2 5.974-6.004 6-1.013-.006-2.01-.605-2.702-1.297-1.024-1.024-1.414-1.284-1.845-1.358-.791-.137-1.698.146-2.503.396-.195.061-.384.12-.564.17-.409.116-.865.142-1.297-.047C.168 12.463 0 11.39 0 10.5v-2c0-1.771 1.092-3.655 2.802-5.057zM10.018 11A4 4 0 0 0 10 3c-2.52 0-4.547.856-5.93 1.99-.94.771-1.815 1.887-2.033 3.12-.08.459.374.77.822.639.957-.281 1.968-.541 2.93-.375.86.148 1.496.755 2.118 1.348.642.612 1.268 1.21 2.111 1.278z" clip-rule="evenodd"/></g></svg>