<svg width="24" height="24" viewBox="0 0 24 24" fill="none" xmlns="http://www.w3.org/2000/svg">
<path d="M17 7C17 6.26242 16.594 5.58469 15.9437 5.23666C15.2935 4.88861 14.5043 4.92676 13.8906 5.33591L10.6503 7.49616C10.1575 7.82468 9.57849 8 8.98621 8H7C5.34314 8 4 9.34314 4 11C4 12.3062 4.83481 13.4175 6 13.8293V17.5C6 18.3284 6.67157 19 7.5 19C8.32843 19 9 18.3284 9 17.5V15.2558C9 14.5632 9.58672 13.9802 10.2182 14.2647C10.3679 14.3321 10.5125 14.412 10.6503 14.5038L13.8906 16.6641C14.5043 17.0732 15.2935 17.1114 15.9437 16.7633C16.594 16.4153 17 15.7376 17 15V7Z" fill="white"/>
<path d="M19 9C18.4478 9 18 9.44772 18 10V12C18 12.5523 18.4478 13 19 13C19.5522 13 20 12.5523 20 12V10C20 9.44772 19.5522 9 19 9Z" fill="white"/>
</svg>
