<svg width="24" height="24" viewBox="0 0 24 24" fill="none" xmlns="http://www.w3.org/2000/svg">
<path fill-rule="evenodd" clip-rule="evenodd" d="M6 4C4.89543 4 4 4.89543 4 6V16C4 17.1046 4.89543 18 6 18H8.75736C9.28779 18 9.7965 18.2107 10.1716 18.5858L11.2929 19.7071C11.6834 20.0976 12.3166 20.0976 12.7071 19.7071L13.8284 18.5858C14.2035 18.2107 14.7122 18 15.2426 18H18C19.1046 18 20 17.1046 20 16V6C20 4.89543 19.1046 4 18 4H6ZM8 9C8 8.44772 8.44772 8 9 8H15C15.5523 8 16 8.44772 16 9C16 9.55228 15.5523 10 15 10H9C8.44772 10 8 9.55228 8 9ZM9 12C8.44772 12 8 12.4477 8 13C8 13.5523 8.44772 14 9 14H13C13.5523 14 14 13.5523 14 13C14 12.4477 13.5523 12 13 12H9Z" fill="white"/>
</svg>
