<svg width="24" height="24" viewBox="0 0 24 24" fill="none" xmlns="http://www.w3.org/2000/svg">
<path d="M12 4C10.3431 4 9 5.34315 9 7V11C9 12.6569 10.3431 14 12 14C13.6569 14 15 12.6569 15 11V7C15 5.34315 13.6569 4 12 4Z" fill="white"/>
<path d="M7 10C7.55228 10 8 10.4477 8 11C8 13.2091 9.79086 15 12 15C14.2091 15 16 13.2091 16 11C16 10.4477 16.4477 10 17 10C17.5523 10 18 10.4477 18 11C18 14.3137 15.3137 17 12 17C8.68629 17 6 14.3137 6 11C6 10.4477 6.44772 10 7 10Z" fill="white"/>
<path d="M9 19C9 18.4477 9.44772 18 10 18H14C14.5523 18 15 18.4477 15 19C15 19.5523 14.5523 20 14 20H10C9.44772 20 9 19.5523 9 19Z" fill="white"/>
</svg>
