<svg width="24" height="24" viewBox="0 0 24 24" fill="none" xmlns="http://www.w3.org/2000/svg">
<path fill-rule="evenodd" clip-rule="evenodd" d="M19 5.00001C19 4.69207 18.8581 4.40131 18.6154 4.2118C18.3727 4.0223 18.0562 3.95518 17.7575 4.02987L9.75746 6.02987C9.3123 6.14116 9 6.54114 9 7.00001V14.1707C8.68722 14.0602 8.35063 14 8 14C6.34315 14 5 15.3431 5 17C5 18.6569 6.34315 20 8 20C9.65685 20 11 18.6569 11 17V11.2808C11 10.8219 11.3123 10.4219 11.7575 10.3106L16.3787 9.15531C16.6943 9.07642 17 9.3151 17 9.64039V12.1707C16.6872 12.0602 16.3506 12 16 12C14.3431 12 13 13.3432 13 15C13 16.6569 14.3431 18 16 18C17.6568 18 19 16.6569 19 15V5.00001Z" fill="white"/>
</svg>
