<svg width="24" height="24" viewBox="0 0 24 24" fill="none" xmlns="http://www.w3.org/2000/svg">
<path d="M11 5C11 4.44772 10.5523 4 10 4H6C4.89551 4 4 4.89545 4 6V12C4 12.5523 4.44772 13 5 13H10C10.5523 13 11 12.5523 11 12V5Z" fill="white"/>
<path d="M5 15C4.44772 15 4 15.4477 4 16V18C4 19.1046 4.89551 20 6 20H10C10.5523 20 11 19.5523 11 19V16C11 15.4477 10.5523 15 10 15H5Z" fill="white"/>
<path d="M13 19C13 19.5523 13.4477 20 14 20H18C19.1045 20 20 19.1046 20 18V12C20 11.4477 19.5523 11 19 11H14C13.4477 11 13 11.4477 13 12V19Z" fill="white"/>
<path d="M19 9C19.5523 9 20 8.55228 20 8V6C20 4.89545 19.1045 4 18 4H14C13.4477 4 13 4.44772 13 5V8C13 8.55228 13.4477 9 14 9H19Z" fill="white"/>
</svg>
