<svg width="24" height="24" viewBox="0 0 24 24" fill="none" xmlns="http://www.w3.org/2000/svg">
<path d="M20 6.65002C20 7.49091 19.6083 8.2403 18.9974 8.72577L19 8.72827L13.0087 13.9208C12.4306 12.6176 11.3823 11.5693 10.0792 10.9913L15.2716 5L15.2742 5.00256C15.7596 4.39166 16.5091 4 17.35 4C18.8136 4 20 5.18646 20 6.65002Z" fill="white"/>
<path d="M9.07617 12.7784C10.0833 13.1159 10.8841 13.9167 11.2216 14.9238C11.3827 15.4048 11.4382 15.9329 11.36 16.48C11.1467 17.9733 9.97333 19.1467 8.47998 19.36L4 20L4.64001 15.52C4.85333 14.0267 6.02667 12.8533 7.52002 12.64C8.06714 12.5618 8.59521 12.6173 9.07617 12.7784Z" fill="white"/>
</svg>
