<svg width="24" height="24" viewBox="0 0 24 24" fill="none" xmlns="http://www.w3.org/2000/svg">
<path d="M19 4C19.5523 4 20 4.44772 20 5V9C20 9.55228 19.5523 10 19 10C18.4477 10 18 9.55228 18 9V5C18 4.44772 18.4477 4 19 4Z" fill="white"/>
<path d="M9 6C8.44772 6 8 6.44772 8 7V8.12602C6.94916 8.39648 6.06545 9.08324 5.53513 10H5C4.44772 10 4 10.4477 4 11C4 11.5523 4.44772 12 5 12H13C13.5523 12 14 11.5523 14 11C14 10.4477 13.5523 10 13 10H12.4649C11.9346 9.08324 11.0508 8.39648 10 8.12602V7C10 6.44772 9.55228 6 9 6Z" fill="white"/>
<path d="M5 18C4.44772 18 4 18.4477 4 19C4 19.5523 4.44772 20 5 20H13C13.5523 20 14 19.5523 14 19C14 18.4477 13.5523 18 13 18V13H5V18Z" fill="white"/>
<path d="M13 6C12.4477 6 12 6.44772 12 7C12 7.55228 12.4477 8 13 8C13.5523 8 14 7.55228 14 7C14 6.44772 13.5523 6 13 6Z" fill="white"/>
<path d="M17 6C17 5.44772 16.5523 5 16 5C15.4477 5 15 5.44772 15 6V8C15 8.55228 15.4477 9 16 9C16.5523 9 17 8.55228 17 8V6Z" fill="white"/>
</svg>
