<svg width="24" height="24" viewBox="0 0 24 24" fill="none" xmlns="http://www.w3.org/2000/svg">
<path d="M6 5C6 4.44772 6.44772 4 7 4L17 4C17.5523 4 18 4.44772 18 5V10H6V5Z" fill="white"/>
<path fill-rule="evenodd" clip-rule="evenodd" d="M6 11H18V12C18 12.5523 17.5523 13 17 13H14.3471C13.7292 13 13.2591 13.5549 13.3607 14.1644L13.9749 17.8492C13.9916 17.9496 14 18.0511 14 18.1529C14 19.173 13.173 20 12.1529 20H11.8471C10.827 20 10 19.173 10 18.1529C10 18.0511 10.0084 17.9496 10.0251 17.8492L10.6393 14.1644C10.7409 13.5549 10.2708 13 9.65287 13H7C6.44772 13 6 12.5523 6 12V11Z" fill="white"/>
</svg>
