<svg width="24" height="24" viewBox="0 0 24 24" fill="none" xmlns="http://www.w3.org/2000/svg">
<path d="M19.9336 5.94116C20.097 5.41012 19.9535 4.83225 19.5606 4.43938C19.1677 4.0465 18.5899 3.90297 18.0588 4.06637L5.0589 8.06635C4.55609 8.22106 4.17107 8.62788 4.04426 9.13844C3.91745 9.649 4.06738 10.1887 4.43937 10.5607L7.52515 13.6465C7.91568 14.037 8.54884 14.037 8.93936 13.6465L11.2929 11.2929C11.6834 10.9024 12.3166 10.9024 12.7071 11.2929C13.0976 11.6834 13.0976 12.3166 12.7071 12.7071L10.3536 15.0607C9.96305 15.4512 9.96304 16.0843 10.3536 16.4749L13.4393 19.5606C13.8113 19.9326 14.351 20.0825 14.8616 19.9557C15.3721 19.8289 15.7789 19.4439 15.9336 18.9411L19.9336 5.94116Z" fill="white"/>
</svg>
