<svg width="24" height="24" viewBox="0 0 24 24" fill="none" xmlns="http://www.w3.org/2000/svg">
<path d="M20 6.65002C20 7.49091 19.6083 8.2403 18.9974 8.72577L19 8.72827L12.0311 14.768C11.4364 15.2834 10.5444 15.2516 9.98804 14.6951L9.30481 14.012C8.74841 13.4555 8.71655 12.5636 9.23193 11.9689L15.2716 5L15.2742 5.00256C15.7596 4.39166 16.5092 4 17.35 4C18.8136 4 20 5.18646 20 6.65002Z" fill="white"/>
<path d="M4 20L4.47522 18.5745C4.4917 18.5249 4.50427 18.4741 4.51294 18.4226L4.89612 16.1235C4.95959 15.7427 5.23657 15.4324 5.60779 15.3264L8.5 14.5L9.5 15.5L8.67371 18.3922C8.56763 18.7634 8.25732 19.0405 7.87646 19.1039L5.57739 19.4871C5.52588 19.4957 5.4751 19.5083 5.42554 19.5248L4 20Z" fill="white"/>
</svg>
