<svg width="24" height="24" viewBox="0 0 24 24" fill="none" xmlns="http://www.w3.org/2000/svg">
<path d="M16.4142 4.58578C15.6331 3.80474 14.3668 3.80474 13.5858 4.58578C12.8047 5.36683 12.8047 6.63316 13.5858 7.4142L16.5857 10.4142C17.3668 11.1952 18.6331 11.1952 19.4142 10.4142C20.1952 9.63315 20.1952 8.36682 19.4142 7.58578L16.4142 4.58578Z" fill="white"/>
<path d="M7.03816 10.0939C7.41186 9.13294 8.33714 8.49999 9.36817 8.49999H11.5858C11.9836 8.49999 12.3652 8.65802 12.6465 8.93932L15.0607 11.3535C15.342 11.6348 15.5 12.0164 15.5 12.4142V14.6318C15.5 15.6629 14.8671 16.5881 13.9061 16.9618L6.18127 19.966C5.96086 20.0517 5.71054 19.9712 5.58131 19.7732C5.45207 19.5751 5.47927 19.3136 5.64649 19.1464L9.8108 14.9821C9.87206 14.9938 9.9353 15 9.99998 15C10.5523 15 11 14.5523 11 14C11 13.4477 10.5523 13 9.99998 13C9.4477 13 8.99998 13.4477 8.99998 14C8.99998 14.0647 9.00613 14.128 9.01787 14.1892L4.8536 18.3535C4.68638 18.5207 4.42487 18.5479 4.22682 18.4187C4.02876 18.2895 3.94834 18.0391 4.03405 17.8187L7.03816 10.0939Z" fill="white"/>
</svg>
