<svg width="24" height="24" viewBox="0 0 24 24" fill="none" xmlns="http://www.w3.org/2000/svg">
<path d="M15.1029 4.89714L7 13L11 17L19.1027 8.89735C19.1258 8.87573 19.1486 8.85365 19.1711 8.83111C20.2763 7.72593 20.2763 5.93407 19.1711 4.82889C18.066 3.7237 16.2741 3.7237 15.1689 4.82889C15.1464 4.85136 15.1244 4.87411 15.1029 4.89714Z" fill="white"/>
<path d="M5.99998 13.9918L10.0082 18L9.50407 18.5041C9.34819 18.66 9.15816 18.7774 8.94902 18.8471L5.49042 20H5C4.44772 20 4 19.5523 4 19V18.5095L5.15285 15.051C5.22256 14.8418 5.34001 14.6518 5.49589 14.4959L5.99998 13.9918Z" fill="white"/>
</svg>
