<svg width="24" height="24" viewBox="0 0 24 24" fill="none" xmlns="http://www.w3.org/2000/svg">
<path d="M13.9673 4.00122C13.5709 4.00122 13.1825 4.03979 12.8061 4.11375L11.9988 4.27218V11.0002C11.9988 11.3383 12.1696 11.6534 12.4529 11.838C12.7362 12.0225 13.0934 12.0514 13.4027 11.9149L20 9.00123L19.7153 8.13954C18.9201 5.73266 16.6287 4.00122 13.9673 4.00122Z" fill="white"/>
<path d="M4 12.5C4 8.8721 6.57629 5.84592 9.99913 5.15108V11.0002C9.99913 13.1406 12.1765 14.5922 14.1523 13.7691L18.9623 11.7649C18.9857 12.0068 18.9978 12.252 18.9978 12.5C18.9978 16.6415 15.6404 19.9989 11.4989 19.9989C7.35742 19.9989 4 16.6415 4 12.5Z" fill="white"/>
</svg>
