<svg width="24" height="24" viewBox="0 0 24 24" fill="none" xmlns="http://www.w3.org/2000/svg">
<path fill-rule="evenodd" clip-rule="evenodd" d="M15.5 5.99976C13.9391 5.99976 12.5637 6.79452 11.7566 8.00146C7.91888 8.05584 6 9.4143 6 12.4998C6 12.6718 6.00596 12.8384 6.01789 12.9998H6C5.44772 12.9998 5 12.552 5 11.9998C5.27614 11.9998 5.5 11.7759 5.5 11.4998C5.5 11.2236 5.27614 10.9998 5 10.9998H4.5C4.22386 10.9998 4 11.2236 4 11.4998V11.9998C4 13.1043 4.89543 13.9998 6 13.9998H6.18631C6.38054 14.6968 6.72663 15.2632 7.22459 15.7084L7.19764 15.7555C6.78662 16.4748 7.03652 17.3911 7.75579 17.8021C8.47507 18.2131 9.39135 17.9632 9.80236 17.244L10.0197 16.8637C10.6139 16.9553 11.274 16.9998 12 16.9998C12.726 16.9998 13.3861 16.9553 13.9803 16.8637L14.1976 17.244C14.6087 17.9632 15.5249 18.2131 16.2442 17.8021C16.9635 17.3911 17.2134 16.4748 16.8024 15.7555L16.7754 15.7084C17.2734 15.2632 17.6195 14.6968 17.8137 13.9998H19C19.5523 13.9998 20 13.552 20 12.9998V11.9998C20 11.4475 19.5523 10.9998 19 10.9998H17.8137C17.531 9.98504 16.9264 9.2472 16 8.75719V6.49976C16 6.22361 15.7761 5.99976 15.5 5.99976ZM9.30029 11.3992C10.0523 10.8343 10.9864 10.4998 12 10.4998C12.2761 10.4998 12.5 10.2759 12.5 9.99976C12.5 9.72361 12.2761 9.49976 12 9.49976C10.7624 9.49976 9.61898 9.90911 8.69971 10.5996C8.47892 10.7655 8.43437 11.0789 8.60022 11.2997C8.76606 11.5205 9.07949 11.565 9.30029 11.3992Z" fill="white"/>
</svg>
