<svg xmlns="http://www.w3.org/2000/svg" width="24" height="24" viewBox="0 0 16 16" fill="none"><path fill="currentColor" fill-rule="evenodd" d="M11.5 2c-1.56 0-2.936.795-3.743 2.002C3.919 4.056 2 5.414 2 8.5c0 .172.006.339.018.5H2a1 1 0 0 1-1-1 .5.5 0 0 0 0-1H.5a.5.5 0 0 0-.5.5V8a2 2 0 0 0 2 2h.186c.195.697.54 1.263 1.039 1.709l-.027.047a1.5 1.5 0 1 0 2.604 1.488l.218-.38C6.614 12.955 7.274 13 8 13s1.386-.045 1.98-.136l.218.38a1.5 1.5 0 1 0 2.604-1.488l-.027-.047c.498-.446.844-1.012 1.039-1.71H15a1 1 0 0 0 1-1V8a1 1 0 0 0-1-1h-1.186C13.53 5.986 12.926 5.248 12 4.758V2.5a.5.5 0 0 0-.5-.5zM5.3 7.4A4.478 4.478 0 0 1 8 6.5a.5.5 0 0 0 0-1c-1.238 0-2.381.41-3.3 1.1a.5.5 0 1 0 .6.8z" clip-rule="evenodd"/></svg>