<svg width="24" height="24" viewBox="0 0 24 24" fill="none" xmlns="http://www.w3.org/2000/svg">
<path d="M13.2929 4.29289C13.6834 3.90237 14.3166 3.90237 14.7071 4.29289L19.7071 9.29289C20.0976 9.68342 20.0976 10.3166 19.7071 10.7071C19.3166 11.0976 18.6834 11.0976 18.2929 10.7071L17.95 10.3642L15.469 14.263C15.1627 14.7443 15 15.3031 15 15.8736V18C15 19.1046 14.1046 20 13 20H12.4142C12.149 20 11.8946 19.8946 11.7071 19.7071L9 17L6 20H4V18L7 15L4.29289 12.2929C4.10536 12.1054 4 11.851 4 11.5858V11C4 9.89543 4.89543 9 6 9H8.1264C8.69695 9 9.25567 8.8373 9.73702 8.53098L13.6358 6.04997L13.2929 5.70711C12.9024 5.31658 12.9024 4.68342 13.2929 4.29289Z" fill="white"/>
</svg>
