<svg width="24" height="24" viewBox="0 0 24 24" fill="none" xmlns="http://www.w3.org/2000/svg">
<path d="M16.9916 4C12.8147 4 9.03167 5.68002 6.29537 8.39339C5.90154 8.78391 5.90154 9.41708 6.29537 9.8076L6.32904 9.84099C6.74195 10.2504 7.41364 10.2197 7.82634 9.81009C10.1987 7.45534 13.4763 6 17.093 6C17.5841 6 18.0001 5.61399 18.0001 5.1229V5C18.0001 4.44771 17.5486 4 16.9916 4Z" fill="white"/>
<path fill-rule="evenodd" clip-rule="evenodd" d="M18.0001 8.94421C18.0001 8.43139 17.6058 7.99999 17.093 7.99999C13.9682 7.99999 11.1483 9.27797 9.13245 11.333C8.76954 11.703 8.80109 12.2923 9.16909 12.6572L16.2785 19.7071C16.5669 19.9931 17.0007 20.0786 17.3775 19.9239C17.7544 19.7691 18.0001 19.4044 18.0001 19V8.94421ZM15.0761 12C15.0761 13.1046 14.1731 14 13.0592 14C11.9453 14 11.0423 13.1046 11.0423 12C11.0423 10.8954 11.9453 9.99999 13.0592 9.99999C14.1731 9.99999 15.0761 10.8954 15.0761 12ZM16.0845 16C16.6415 16 17.093 15.5523 17.093 15C17.093 14.4477 16.6415 14 16.0845 14C15.5276 14 15.0761 14.4477 15.0761 15C15.0761 15.5523 15.5276 16 16.0845 16Z" fill="white"/>
</svg>
