<svg xmlns="http://www.w3.org/2000/svg" width="24" height="24" viewBox="0 0 16 16" fill="none"><g fill="currentColor"><path d="M12.992 0C8.815 0 5.032 1.68 2.295 4.393a.994.994 0 0 0 0 1.415l.034.033c.413.41 1.085.379 1.497-.03A13.115 13.115 0 0 1 13.093 2c.491 0 .907-.386.907-.877V1c0-.552-.452-1-1.008-1z"/><path fill-rule="evenodd" d="M14 4.944c0-.513-.394-.944-.907-.944a11.115 11.115 0 0 0-7.96 3.333c-.363.37-.332.96.036 1.324l7.11 7.05c.288.286.722.372 1.099.217A1 1 0 0 0 14 15zM11.076 8c0 1.105-.903 2-2.017 2a2.008 2.008 0 0 1-2.017-2c0-1.105.903-2 2.017-2 1.114 0 2.017.895 2.017 2zm1.008 4c.557 0 1.009-.448 1.009-1s-.452-1-1.008-1c-.558 0-1.009.448-1.009 1s.452 1 1.008 1z" clip-rule="evenodd"/></g></svg>