<svg width="24" height="24" viewBox="0 0 24 24" fill="none" xmlns="http://www.w3.org/2000/svg">
<path d="M9 6C9 4.89543 9.89543 4 11 4C12.1046 4 13 4.89543 13 6V7H15C16.1046 7 17 7.89543 17 9V11H18C19.1046 11 20 11.8954 20 13C20 14.1046 19.1046 15 18 15H17V17C17 18.6569 15.6569 20 14 20H12V18.5C12 17.6716 11.3284 17 10.5 17C9.67157 17 9 17.6716 9 18.5V20H7C5.34315 20 4 18.6569 4 17V15H5.5C6.32843 15 7 14.3284 7 13.5C7 12.6716 6.32843 12 5.5 12H4V10C4 8.34315 5.34315 7 7 7H9V6Z" fill="white"/>
</svg>
