<svg width="24" height="24" viewBox="0 0 24 24" fill="none" xmlns="http://www.w3.org/2000/svg">
<path d="M12 10C13.1046 10 14 9.10457 14 8C14 6.89543 13.1046 6 12 6C10.8954 6 10 6.89543 10 8C10 9.10457 10.8954 10 12 10Z" fill="white"/>
<path fill-rule="evenodd" clip-rule="evenodd" d="M20 12C20 16.4183 16.4183 20 12 20C7.58172 20 4 16.4183 4 12C4 7.58172 7.58172 4 12 4C16.4183 4 20 7.58172 20 12ZM9.33333 8C9.33333 6.52724 10.5272 5.33333 12 5.33333C13.4728 5.33333 14.6667 6.52724 14.6667 8V16C14.6667 17.4728 13.4728 18.6667 12 18.6667C10.5272 18.6667 9.33333 17.4728 9.33333 16V8Z" fill="white"/>
</svg>
