<svg width="24" height="24" viewBox="0 0 24 24" fill="none" xmlns="http://www.w3.org/2000/svg">
<path fill-rule="evenodd" clip-rule="evenodd" d="M12.5 6.91465C13.0826 6.70873 13.5 6.15311 13.5 5.5C13.5 4.67157 12.8284 4 12 4C11.1716 4 10.5 4.67157 10.5 5.5C10.5 6.15311 10.9174 6.70873 11.5 6.91465V8.02469C8.97334 8.27555 7 10.4073 7 13V18C7 19.1046 7.89543 20 9 20H15C16.1046 20 17 19.1046 17 18V13C17 10.4073 15.0267 8.27555 12.5 8.02469V6.91465ZM11 13.5C11 14.3284 10.3284 15 9.5 15C8.67157 15 8 14.3284 8 13.5C8 12.6716 8.67157 12 9.5 12C10.3284 12 11 12.6716 11 13.5ZM14.5 15C15.3284 15 16 14.3284 16 13.5C16 12.6716 15.3284 12 14.5 12C13.6716 12 13 12.6716 13 13.5C13 14.3284 13.6716 15 14.5 15Z" fill="white"/>
<path d="M4 14C4 12.8954 4.89543 12 6 12V17C4.89543 17 4 16.1046 4 15V14Z" fill="white"/>
<path d="M18 12C19.1046 12 20 12.8954 20 14V15C20 16.1046 19.1046 17 18 17V12Z" fill="white"/>
</svg>
