<svg width="24" height="24" viewBox="0 0 24 24" fill="none" xmlns="http://www.w3.org/2000/svg">
<path fill-rule="evenodd" clip-rule="evenodd" d="M14.4518 15.0679C15.8136 14.1788 16.9153 13.1636 17.768 12.008C19.306 9.92364 20 7.42864 20 4.50012C20 4.22398 19.7761 4.00012 19.5 4.00012C16.5715 4.00012 14.0765 4.69408 11.9921 6.23209C10.8365 7.08477 9.82131 8.1864 8.93218 9.54819L8.14674 9.36693C7.02157 9.10728 5.86497 9.65203 5.34855 10.6849L4.05279 13.2764C3.97529 13.4314 3.98357 13.6154 4.07467 13.7629C4.16578 13.9103 4.32671 14 4.49999 14L7.52935 13.6213C8.14175 13.5448 8.7552 13.7553 9.1916 14.1917L9.80826 14.8083C10.2447 15.2447 10.4551 15.8582 10.3786 16.4706L9.99993 19.4999C9.99993 19.6732 10.0897 19.8341 10.2371 19.9252C10.3845 20.0163 10.5685 20.0246 10.7235 19.9471L13.3151 18.6514C14.3479 18.1349 14.8926 16.9783 14.633 15.8532L14.4518 15.0679ZM15.4999 10.0001C16.3283 10.0001 16.9998 9.32849 16.9998 8.50007C16.9998 7.67165 16.3283 7.00009 15.4999 7.00009C14.6714 7.00009 13.9999 7.67165 13.9999 8.50007C13.9999 9.32849 14.6714 10.0001 15.4999 10.0001Z" fill="white"/>
<path d="M4.77341 16.5972C5.20603 15.0109 7.19089 14.4838 8.35351 15.6464C9.51614 16.809 8.98903 18.7939 7.40277 19.2265L4.63156 19.9823C4.45846 20.0295 4.27333 19.9803 4.14646 19.8535C4.01958 19.7266 3.97042 19.5415 4.01763 19.3684L4.77341 16.5972Z" fill="white"/>
</svg>
