<svg width="24" height="24" viewBox="0 0 24 24" fill="none" xmlns="http://www.w3.org/2000/svg">
<path fill-rule="evenodd" clip-rule="evenodd" d="M13.8 4.40006C13.5417 4.05572 13.0921 3.91527 12.6838 4.05138C12.2754 4.1875 12 4.56963 12 5.00006V13.0001C12 13.5523 12.4477 14.0001 13 14.0001H19C19.3788 14.0001 19.725 13.7861 19.8944 13.4473C20.0638 13.1085 20.0273 12.7031 19.8 12.4001L13.8 4.40006Z" fill="white"/>
<path fill-rule="evenodd" clip-rule="evenodd" d="M10 7.00006C10 6.5594 9.71154 6.17067 9.28978 6.04297C8.86802 5.91527 8.41239 6.07871 8.16795 6.44536L4.16795 12.4454C3.96338 12.7522 3.94431 13.1468 4.11833 13.4719C4.29235 13.7971 4.63121 14.0001 5 14.0001H9C9.55228 14.0001 10 13.5523 10 13.0001V7.00006Z" fill="white"/>
<path d="M5.00003 16.0001C4.59557 16.0001 4.23093 16.2438 4.07615 16.6174C3.92137 16.9911 4.00692 17.4212 4.29292 17.7072L6.29292 19.7072C6.48046 19.8948 6.73481 20.0001 7.00003 20.0001H17C17.2652 20.0001 17.5196 19.8948 17.7071 19.7072L19.7071 17.7072C19.9931 17.4212 20.0787 16.9911 19.9239 16.6174C19.7691 16.2438 19.4045 16.0001 19 16.0001H5.00003Z" fill="white"/>
</svg>
