<svg width="24" height="24" viewBox="0 0 24 24" fill="none" xmlns="http://www.w3.org/2000/svg">
<path fill-rule="evenodd" clip-rule="evenodd" d="M8.89091 10.7127C8.46459 10.8975 7.99426 11 7.5 11C5.567 11 4 9.433 4 7.5C4 5.567 5.567 4 7.5 4C9.433 4 11 5.567 11 7.5C11 7.90928 10.9298 8.30215 10.8007 8.66721L12 10L16.3905 6.43538C16.7869 6.15222 17.2619 6 17.7491 6C18.5306 6 19.2604 6.39058 19.6939 7.04085L20 7.5L13.5 12L20 16.5L19.6939 16.9592C19.2604 17.6094 18.5306 18 17.7491 18C17.2619 18 16.7869 17.8478 16.3905 17.5646L12 14L10.8007 15.3328C10.9298 15.6979 11 16.0907 11 16.5C11 18.433 9.433 20 7.5 20C5.567 20 4 18.433 4 16.5C4 14.567 5.567 13 7.5 13C7.99426 13 8.46459 13.1025 8.89091 13.2873L10.5 12L8.89091 10.7127ZM9 7.5C9 8.32843 8.32843 9 7.5 9C6.67157 9 6 8.32843 6 7.5C6 6.67157 6.67157 6 7.5 6C8.32843 6 9 6.67157 9 7.5ZM9 16.5C9 17.3284 8.32843 18 7.5 18C6.67157 18 6 17.3284 6 16.5C6 15.6716 6.67157 15 7.5 15C8.32843 15 9 15.6716 9 16.5Z" fill="white"/>
</svg>
