<svg width="24" height="24" viewBox="0 0 24 24" fill="none" xmlns="http://www.w3.org/2000/svg">
<path d="M12 10C16.4183 10 20 8.65685 20 7C20 5.34315 16.4183 4 12 4C7.58172 4 4 5.34315 4 7C4 8.65685 7.58172 10 12 10Z" fill="white"/>
<path d="M12 12C16.4183 12 20 10.6569 20 9V12C20 13.6569 16.4183 15 12 15C7.58172 15 4 13.6569 4 12V9C4 10.6569 7.58172 12 12 12Z" fill="white"/>
<path d="M12 17C16.4183 17 20 15.6569 20 14V17C20 18.6569 16.4183 20 12 20C7.58172 20 4 18.6569 4 17V14C4 15.6569 7.58172 17 12 17Z" fill="white"/>
</svg>
