<svg xmlns="http://www.w3.org/2000/svg" width="24" height="24" viewBox="0 0 16 16" fill="none"><path fill="currentColor" fill-rule="evenodd" d="m8 3.077-3.974 1.59c.155 2.038.99 4.083 1.956 5.694.532.886 1.084 1.607 1.542 2.094.19.2.35.347.476.447zM8.743.143a2 2 0 0 0-1.486 0l-5 2A2 2 0 0 0 1 4c0 2.992 1.179 5.852 2.41 7.904.624 1.04 1.302 1.94 1.932 2.609a7 7 0 0 0 .994.89C6.58 15.578 7.2 16 8 16s1.42-.422 1.664-.597c.346-.247.683-.56.994-.89.63-.668 1.308-1.57 1.932-2.609C13.821 9.852 15 6.992 15 4a2 2 0 0 0-1.257-1.857z" clip-rule="evenodd"/></svg>