<svg width="24" height="24" viewBox="0 0 24 24" fill="none" xmlns="http://www.w3.org/2000/svg">
<path fill-rule="evenodd" clip-rule="evenodd" d="M12 7.07703L8.02574 8.66674C8.18076 10.7053 9.016 12.7497 9.98249 14.3605C10.5143 15.2469 11.066 15.9683 11.5245 16.4546C11.7131 16.6547 11.8739 16.8021 12 16.9018L12 7.07703ZM12.7428 4.14305C12.266 3.95232 11.734 3.95232 11.2572 4.14305L6.25722 6.14305C5.4979 6.44677 5 7.18219 5 8C5 10.9918 6.17868 13.8518 7.41001 15.904C8.03386 16.9437 8.71181 17.8446 9.3417 18.5127C9.65308 18.8429 9.98978 19.1559 10.3356 19.4029C10.5802 19.5776 11.1997 20 12 20C12.8003 20 13.4198 19.5776 13.6644 19.4029C14.0102 19.1559 14.3469 18.8429 14.6583 18.5127C15.2882 17.8446 15.9661 16.9437 16.59 15.904C17.8213 13.8518 19 10.9918 19 8C19 7.18219 18.5021 6.44677 17.7428 6.14305L12.7428 4.14305Z" fill="white"/>
</svg>
