<svg width="24" height="24" viewBox="0 0 24 24" fill="none" xmlns="http://www.w3.org/2000/svg">
<path d="M6.99989 4.00024C7.44798 4.00024 7.83586 4.2972 7.9593 4.71809L7.98625 4.83582L8.17985 5.99918L18.9995 6.00018C19.62 6.00018 20.0807 6.55554 19.9881 7.15121L19.9642 7.26325L18.4643 12.7631C18.3729 13.0979 18.1159 13.3582 17.7894 13.457L17.6639 13.4863L9.6508 14.8219L9.84679 15.9998H15.9996C17.1041 15.9998 17.9995 16.8952 17.9995 17.9998C17.9995 19.1043 17.1041 19.9997 15.9996 19.9997C14.9453 19.9997 14.0815 19.1838 14.0051 18.149L13.9996 17.9998H9.99979C9.99979 19.1043 9.10439 19.9997 7.99986 19.9997C6.89533 19.9997 5.99993 19.1043 5.99993 17.9998C5.99993 16.9558 6.79989 16.0986 7.82029 16.0078L6.15192 6.00018H4.99996C4.48715 6.00018 4.06449 5.61415 4.00673 5.11683L4 5.00021C4 4.48739 4.38603 4.06473 4.88335 4.00697L4.99996 4.00024H6.99989Z" fill="white"/>
</svg>
