<svg xmlns="http://www.w3.org/2000/svg" width="24" height="24" viewBox="0 0 16 16" fill="none"><path fill="currentColor" d="M6.707.293a1 1 0 0 0-1.414 1.414L7 3.414v2.847L4.562 4.84l-.62-2.33a1 1 0 0 0-1.22-.713 1 1 0 0 0-.705 1.226l.47 1.766-1.752.473a1 1 0 0 0-.7 1.229 1 1 0 0 0 1.223.709l2.31-.624L6.013 8 3.568 9.423 1.258 8.8a1 1 0 0 0-1.223.71 1 1 0 0 0 .7 1.228l1.752.473-.47 1.766c-.142.535.174 1.084.705 1.226a1 1 0 0 0 1.22-.714l.62-2.33L7 9.74v2.847l-1.707 1.707a1 1 0 1 0 1.414 1.414L8 14.414l1.293 1.293a1 1 0 0 0 1.414-1.414L9 12.586V9.739l2.438 1.42.62 2.33c.142.535.688.854 1.22.713s.847-.69.704-1.226l-.469-1.766 1.752-.473a1 1 0 0 0 .7-1.229 1 1 0 0 0-1.223-.709l-2.31.624L9.987 8l2.445-1.423 2.31.624a1 1 0 0 0 1.223-.71 1 1 0 0 0-.7-1.228l-1.752-.473.47-1.766a1 1 0 0 0-.705-1.226 1 1 0 0 0-1.22.714l-.62 2.33L9 6.26V3.414l1.707-1.707A1 1 0 0 0 9.293.293L8 1.586z"/></svg>