<svg width="24" height="24" viewBox="0 0 24 24" fill="none" xmlns="http://www.w3.org/2000/svg">
<path d="M10.7071 4.29289C10.3166 3.90237 9.68342 3.90237 9.29289 4.29289C8.90237 4.68342 8.90237 5.31658 9.29289 5.70711L11 7.41421V10.2608L8.56157 8.84117L7.94264 6.51188C7.80034 5.97634 7.25402 5.65684 6.72239 5.79825C6.19076 5.93967 5.87515 6.48845 6.01745 7.02398L6.48674 8.79012L4.73533 9.26336C4.20426 9.40686 3.89078 9.95687 4.03515 10.4919C4.17951 11.0268 4.72706 11.3442 5.25813 11.2007L7.56799 10.5766L10.0129 12L7.56801 13.4234L5.25815 12.7993C4.72708 12.6558 4.17953 12.9731 4.03517 13.5081C3.8908 14.0431 4.20429 14.5931 4.73535 14.7366L6.48676 15.2099L6.01747 16.976C5.87517 17.5115 6.19078 18.0603 6.72241 18.2017C7.25404 18.3431 7.80036 18.0236 7.94266 17.4881L8.56159 15.1588L11 13.7391V16.5858L9.29289 18.2929C8.90237 18.6834 8.90237 19.3166 9.29289 19.7071C9.68342 20.0976 10.3166 20.0976 10.7071 19.7071L12 18.4142L13.2929 19.7071C13.6834 20.0976 14.3166 20.0976 14.7071 19.7071C15.0976 19.3166 15.0976 18.6834 14.7071 18.2929L13 16.5858V13.7391L15.4384 15.1588L16.0573 17.4881C16.1996 18.0236 16.746 18.3431 17.2776 18.2017C17.8092 18.0603 18.1248 17.5115 17.9825 16.976L17.5132 15.2098L19.2646 14.7366C19.7957 14.5931 20.1092 14.0431 19.9648 13.5081C19.8205 12.9731 19.2729 12.6558 18.7418 12.7993L16.432 13.4234L13.9872 12L16.432 10.5766L18.7419 11.2007C19.2729 11.3442 19.8205 11.0269 19.9649 10.4919C20.1092 9.95689 19.7957 9.40687 19.2647 9.26337L17.5133 8.79014L17.9825 7.024C18.1249 6.48846 17.8092 5.93968 17.2776 5.79827C16.746 5.65685 16.1997 5.97635 16.0574 6.51189L15.4384 8.84118L13 10.2609V7.41421L14.7071 5.70711C15.0976 5.31658 15.0976 4.68342 14.7071 4.29289C14.3166 3.90237 13.6834 3.90237 13.2929 4.29289L12 5.58579L10.7071 4.29289Z" fill="white"/>
</svg>
