<svg xmlns="http://www.w3.org/2000/svg" width="24" height="24" viewBox="0 0 16 16" fill="none"><g fill="currentColor"><path d="m5.53 6.68.975-1.114A2 2 0 0 0 7 4.249v-.607c0-.095-.006-.188-.023-.281C6.858 2.71 6.26 0 4.5 0S2.142 2.71 2.023 3.36A1.565 1.565 0 0 0 2 3.643v.607a2 2 0 0 0 .495 1.317L3.47 6.68a1 1 0 0 1 .244.741l-.59 7.083a1.38 1.38 0 1 0 2.75 0l-.59-7.083a1 1 0 0 1 .244-.741zM12.53 6.68l.975-1.114A2 2 0 0 0 14 4.249V.5a.5.5 0 0 0-1 0v3a.5.5 0 0 1-1 0v-3a.5.5 0 0 0-1 0v3a.5.5 0 0 1-1 0v-3a.5.5 0 0 0-1 0v3.749a2 2 0 0 0 .495 1.317l.976 1.115a1 1 0 0 1 .244.741l-.59 7.083a1.38 1.38 0 1 0 2.75 0l-.59-7.083a1 1 0 0 1 .244-.741z"/></g></svg>