<svg width="24" height="24" viewBox="0 0 24 24" fill="none" xmlns="http://www.w3.org/2000/svg">
<path d="M9.52918 10.6809L10.5052 9.56554C10.8242 9.20096 11 8.73298 11 8.24853V7.64214C11 7.5475 10.9936 7.45402 10.9767 7.36091C10.8584 6.71043 10.26 4 8.5 4C6.73999 4 6.14159 6.71043 6.02333 7.36091C6.0064 7.45402 6 7.5475 6 7.64214V8.24853C6 8.73298 6.17584 9.20096 6.49485 9.56554L7.47082 10.6809C7.64925 10.8849 7.73729 11.1525 7.71479 11.4225L7.12457 18.5052C7.05751 19.3099 7.69253 20 8.5 20C9.30747 20 9.94249 19.3099 9.87543 18.5052L9.28521 11.4225C9.26271 11.1525 9.35075 10.8849 9.52918 10.6809Z" fill="white"/>
<path d="M16.5292 10.6809L17.5052 9.56554C17.8242 9.20096 18 8.73298 18 8.24853V4.5C18 4.22386 17.7761 4 17.5 4C17.2239 4 17 4.22386 17 4.5V7.5C17 7.77614 16.7761 8 16.5 8C16.2239 8 16 7.77614 16 7.5V4.5C16 4.22386 15.7761 4 15.5 4C15.2239 4 15 4.22386 15 4.5V7.5C15 7.77614 14.7761 8 14.5 8C14.2239 8 14 7.77614 14 7.5V4.5C14 4.22386 13.7761 4 13.5 4C13.2239 4 13 4.22386 13 4.5V8.24853C13 8.73298 13.1758 9.20096 13.4948 9.56554L14.4708 10.6809C14.6493 10.8849 14.7373 11.1525 14.7148 11.4225L14.1246 18.5052C14.0575 19.3099 14.6925 20 15.5 20C16.3075 20 16.9425 19.3099 16.8754 18.5052L16.2852 11.4225C16.2627 11.1525 16.3507 10.8849 16.5292 10.6809Z" fill="white"/>
</svg>
