<svg width="24" height="24" viewBox="0 0 24 24" fill="none" xmlns="http://www.w3.org/2000/svg">
<path d="M12 4C9.45923 4 8.05444 6.9801 9.70776 8.90913L10.3352 9.64111C10.9924 10.4079 10.9485 11.5514 10.2344 12.2655C10.0825 12.4175 9.88428 12.5145 9.6709 12.5411L7.75195 12.781C6.75098 12.9061 6 13.7569 6 14.7656V15C6 15.5523 6.44775 16 7 16H17C17.5522 16 18 15.5523 18 15V14.7656C18 13.7569 17.249 12.9061 16.248 12.781L14.3291 12.5411C14.1157 12.5145 13.9175 12.4175 13.7656 12.2655C13.0515 11.5514 13.0076 10.4079 13.6648 9.64111L14.2922 8.90913C15.9456 6.9801 14.5408 4 12 4Z" fill="white"/>
<path d="M9 18C8.44775 18 8 18.4477 8 19C8 19.5523 8.44775 20 9 20H15C15.5522 20 16 19.5523 16 19C16 18.4477 15.5522 18 15 18H9Z" fill="white"/>
</svg>
