<svg width="24" height="24" viewBox="0 0 24 24" fill="none" xmlns="http://www.w3.org/2000/svg">
<path fill-rule="evenodd" clip-rule="evenodd" d="M12 4C12.1573 3.99994 12.3118 4.02475 12.4583 4.07182C12.6384 4.1295 12.8024 4.21953 12.9442 4.33452C13.0858 4.44909 13.2076 4.59037 13.3013 4.75408C13.3301 4.8042 13.356 4.85607 13.3789 4.90946L14.7111 7.90692C14.9031 8.33883 15.3098 8.63642 15.7796 8.68862L18.6656 9.00928C19.2386 9.07295 19.7245 9.45948 19.9153 10.0036C20.1062 10.5477 19.9683 11.153 19.5606 11.5607L17.1591 13.9622C16.8375 14.2838 16.7026 14.7473 16.8012 15.1912L17.4642 18.1746C17.5953 18.7647 17.3595 19.3758 16.8659 19.7248C16.3723 20.0738 15.7175 20.0924 15.2049 19.772L12.7049 18.2094C12.2736 17.9399 11.7264 17.9399 11.2951 18.2094L8.795 19.772C8.28241 20.0924 7.62761 20.0738 7.13404 19.7248C6.64048 19.3758 6.40461 18.7647 6.53574 18.1746L7.19873 15.1912C7.29737 14.7473 7.16239 14.2838 6.84085 13.9622L4.43938 11.5607C4.03166 11.153 3.89374 10.5477 4.0846 10.0036C4.27546 9.45948 4.76131 9.07295 5.33438 9.00928L8.22034 8.68862C8.6901 8.63642 9.09686 8.33883 9.28882 7.90692L10.621 4.90946C10.6439 4.85607 10.6698 4.80419 10.6986 4.75408C10.7923 4.59042 10.9141 4.44917 11.0556 4.33461C11.1975 4.21957 11.3615 4.12952 11.5416 4.07182C11.6881 4.02475 11.8426 3.99994 12 4Z" fill="white"/>
</svg>
