<svg xmlns="http://www.w3.org/2000/svg" width="24" height="24" viewBox="0 0 16 16" fill="none"><path fill="currentColor" fill-rule="evenodd" d="M8 0a1.496 1.496 0 0 1 1.379.91l1.332 2.997c.192.432.599.73 1.069.782l2.886.32a1.5 1.5 0 0 1 .895 2.552l-2.402 2.401a1.33 1.33 0 0 0-.358 1.23l.663 2.983a1.5 1.5 0 0 1-2.259 1.597l-2.5-1.563a1.33 1.33 0 0 0-1.41 0l-2.5 1.563a1.5 1.5 0 0 1-2.26-1.597L3.2 11.19a1.33 1.33 0 0 0-.358-1.229L.439 7.561a1.5 1.5 0 0 1 .895-2.552l2.886-.32a1.33 1.33 0 0 0 1.069-.782L6.62.909A1.502 1.502 0 0 1 8 0z" clip-rule="evenodd"/></svg>