<svg width="24" height="24" viewBox="0 0 24 24" fill="none" xmlns="http://www.w3.org/2000/svg">
<path fill-rule="evenodd" clip-rule="evenodd" d="M12 20C16.4183 20 20 16.4183 20 12C20 7.58172 16.4183 4 12 4C7.58172 4 4 7.58172 4 12C4 16.4183 7.58172 20 12 20ZM16.4947 13.621C17.0118 14.0089 17.7588 13.8075 17.8844 13.1734C17.9375 12.9054 17.9724 12.6338 17.9889 12.3609C18.0161 11.9107 17.6803 11.5336 17.236 11.4554C16.9757 11.4095 16.7141 11.3671 16.4515 11.328C15.9481 11.2531 15.4813 11.5935 15.3815 12.0925C15.3078 12.4611 15.4523 12.8392 15.753 13.0647L16.4947 13.621ZM15.597 16.8027C16.0705 16.4475 16.0048 15.7536 15.5313 15.3985L13.979 14.2342C13.8232 14.1174 13.6368 14.0481 13.4423 14.0379C12.9648 14.0127 12.4839 14 12 14C11.5162 14 11.0353 14.0127 10.5576 14.0379C10.3632 14.0481 10.1768 14.1174 10.021 14.2342L8.4687 15.3985C7.99516 15.7536 7.92953 16.4475 8.40304 16.8027C9.40531 17.5546 10.6506 18 12 18C13.3494 18 14.5947 17.5546 15.597 16.8027ZM7.54858 11.328C8.05195 11.2531 8.51871 11.5934 8.61851 12.0925C8.69223 12.461 8.54775 12.8392 8.24704 13.0647L7.50533 13.621C6.98818 14.0089 6.24118 13.8075 6.11556 13.1734C6.06247 12.9054 6.02757 12.6338 6.01111 12.3609C5.98395 11.9107 6.31974 11.5335 6.76397 11.4554C7.02437 11.4095 7.28592 11.367 7.54858 11.328ZM8.45602 9.19402C7.65347 9.28244 7.07944 8.47268 7.63327 7.88517C8.72737 6.72452 10.2791 6 12 6C13.8685 6 15.5375 6.85412 16.638 8.19324C17.0405 8.68314 16.581 9.31911 15.9517 9.2416C15.6036 9.19872 15.2537 9.16143 14.9022 9.12983C13.9463 9.0439 12.9783 9 12 9C11.6865 9 11.3739 9.00451 11.0625 9.01347L11.0002 9.01532C10.9172 9.01787 10.8343 9.02073 10.7514 9.02391C9.97895 9.05355 9.21351 9.11056 8.45602 9.19402Z" fill="white"/>
</svg>
