<svg xmlns="http://www.w3.org/2000/svg" width="24" height="24" viewBox="0 0 16 16" fill="none"><path fill="currentColor" fill-rule="evenodd" d="M8 16A8 8 0 1 0 8 0a8 8 0 0 0 0 16zm4.495-6.379c.517.388 1.264.187 1.39-.448.052-.268.087-.54.104-.812.027-.45-.309-.827-.753-.906-.26-.045-.522-.088-.785-.127a.953.953 0 0 0-1.07.764.976.976 0 0 0 .372.973zm-.898 3.182c.473-.355.408-1.05-.066-1.404L9.98 10.234a.981.981 0 0 0-.537-.196 27.372 27.372 0 0 0-2.884 0 .981.981 0 0 0-.537.196L4.469 11.4c-.474.355-.54 1.049-.066 1.404C5.405 13.555 6.651 14 8 14s2.595-.445 3.597-1.197zM3.549 7.328a.953.953 0 0 1 1.07.764.976.976 0 0 1-.372.973l-.742.556c-.517.388-1.264.187-1.39-.448a6.061 6.061 0 0 1-.104-.812c-.027-.45.309-.827.753-.906.26-.045.522-.088.785-.127zm.907-2.134c-.803.088-1.377-.721-.823-1.309A5.983 5.983 0 0 1 8 2c1.869 0 3.537.854 4.638 2.193.402.49-.057 1.126-.686 1.049a32.077 32.077 0 0 0-4.89-.229L7 5.015a32.503 32.503 0 0 0-2.544.179z" clip-rule="evenodd"/></svg>