<svg width="24" height="24" viewBox="0 0 24 24" fill="none" xmlns="http://www.w3.org/2000/svg">
<path d="M16 4C16.6294 4 17.2224 4.29639 17.6001 4.80005L19.6001 7.46667C19.8596 7.81287 20 8.23389 20 8.66663V10C20 11.1046 19.1045 12 18 12C16.8955 12 16 11.1046 16 10C16 11.1046 15.1045 12 14 12C12.8955 12 12 11.1046 12 10C12 11.1046 11.1045 12 10 12C8.89551 12 8 11.1046 8 10C8 11.1046 7.10449 12 6 12C4.89551 12 4 11.1046 4 10V8.66663C4 8.23389 4.14038 7.81287 4.3999 7.46667L6.3999 4.80005C6.77759 4.29639 7.37061 4 8 4H16Z" fill="white"/>
<path fill-rule="evenodd" clip-rule="evenodd" d="M18 13C18.5522 13 19 13.4478 19 14V19C19 19.5522 18.5522 20 18 20C17.4478 20 17 19.5522 17 19V16C17 15.4478 16.5522 15 16 15H14C13.4478 15 13 15.4478 13 16C13 16.4514 13 17 13 17H14.5C14.7761 17 15 17.2239 15 17.5C15 17.7761 14.7761 18 14.5 18H13C13 18 13 18.4862 13 19C13 19.5522 12.5522 20 12 20H7C5.89551 20 5 19.1046 5 18V14C5 13.4478 5.44775 13 6 13H18ZM7 16C7 15.4478 7.44775 15 8 15H10C10.5522 15 11 15.4478 11 16C11 16.5522 10.5522 17 10 17H8C7.44775 17 7 16.5522 7 16Z" fill="white"/>
</svg>
