<svg width="24" height="24" viewBox="0 0 24 24" fill="none" xmlns="http://www.w3.org/2000/svg">
<path fill-rule="evenodd" clip-rule="evenodd" d="M18 19H6C4.89543 19 4 18.1046 4 17V15C4 13.8954 4.89543 13 6 13H18C19.1046 13 20 13.8954 20 15V17C20 18.1046 19.1046 19 18 19ZM7 15C6.44772 15 6 15.4477 6 16C6 16.5523 6.44772 17 7 17H9C9.55228 17 10 16.5523 10 16C10 15.4477 9.55228 15 9 15H7Z" fill="white"/>
<path d="M6 11C5.53162 11 5.08203 11.0805 4.66434 11.2284L6.51334 6.29775C6.80607 5.51715 7.55231 5 8.386 5H15.614C16.4477 5 17.1939 5.51715 17.4867 6.29775L19.3357 11.2284C18.918 11.0805 18.4684 11 18 11H6Z" fill="white"/>
</svg>
