<svg xmlns="http://www.w3.org/2000/svg" width="24" height="24" viewBox="0 0 16 16" fill="none"><g fill="currentColor"><path d="M12 0a2 2 0 0 1 1.6.8l2 2.667a2 2 0 0 1 .4 1.2V6a2 2 0 0 1-4 0 2 2 0 0 1-4 0 2 2 0 0 1-4 0 2 2 0 0 1-4 0V4.667a2 2 0 0 1 .4-1.2L2.4.8A2 2 0 0 1 4 0z"/><path fill-rule="evenodd" d="M14 9a1 1 0 0 1 1 1v5a1 1 0 0 1-2 0v-3a1 1 0 0 0-1-1h-2a1 1 0 0 0-1 1v1h1.5a.5.5 0 0 1 0 1H9v1a1 1 0 0 1-1 1H3a2 2 0 0 1-2-2v-4a1 1 0 0 1 1-1zM3 12a1 1 0 0 1 1-1h2a1 1 0 0 1 0 2H4a1 1 0 0 1-1-1z" clip-rule="evenodd"/></g></svg>