<svg width="24" height="24" viewBox="0 0 24 24" fill="none" xmlns="http://www.w3.org/2000/svg">
<path d="M8.31623 7.94895C8.84017 7.77431 9.12333 7.20799 8.94868 6.68404C8.77404 6.1601 8.20772 5.87694 7.68377 6.05159L7.41886 6.13989C5.37715 6.82046 4 8.73116 4 10.8833V14.0003C4 14.0595 4.00515 14.1175 4.01502 14.1739C4.00508 14.2813 4 14.3902 4 14.5003C4 16.4333 5.567 18.0003 7.5 18.0003C9.433 18.0003 11 16.4333 11 14.5003C11 14.1369 10.9446 13.7866 10.8419 13.4571C10.8705 13.4275 10.8999 13.3993 10.93 13.3725C11.1695 13.1596 11.4957 13.0002 11.9998 13.0001C12.5039 13.0002 12.8305 13.1597 13.07 13.3726C13.1001 13.3994 13.1295 13.4275 13.1581 13.4571C13.0554 13.7866 13 14.137 13 14.5003C13 16.4333 14.567 18.0003 16.5 18.0003C18.433 18.0003 20 16.4333 20 14.5003C20 14.3902 19.9949 14.2813 19.985 14.1739C19.9949 14.1175 20 14.0595 20 14.0003V10.8833C20 8.73116 18.6228 6.82046 16.5811 6.13989L16.3162 6.05159C15.7923 5.87694 15.226 6.1601 15.0513 6.68404C14.8767 7.20799 15.1598 7.77431 15.6838 7.94895L15.9487 8.03726C17.1737 8.4456 18 9.59202 18 10.8833V11.3371C17.5506 11.1236 17.0486 11.0031 16.5187 11.0003C16.5125 11.0002 16.5062 11.0001 16.5 11.0001H7.5C7.49376 11.0001 7.48754 11.0002 7.48133 11.0003C6.95141 11.0031 6.44935 11.1236 6 11.3371V10.8833C6 9.59202 6.82629 8.4456 8.05132 8.03726L8.31623 7.94895Z" fill="white"/>
</svg>
