<svg xmlns="http://www.w3.org/2000/svg" width="24" height="24" viewBox="0 0 16 16" fill="none"><path fill="currentColor" d="M4.316 3.949a1 1 0 0 0-.632-1.898l-.265.089A5 5 0 0 0 0 6.883V10c0 .06.005.117.015.174a3.5 3.5 0 1 0 6.827-.717c.029-.03.058-.058.088-.085C7.17 9.16 7.496 9 8 9c.504 0 .83.16 1.07.372.03.027.06.055.088.085a3.5 3.5 0 1 0 6.827.717c.01-.057.015-.115.015-.174V6.883a5 5 0 0 0-3.419-4.743l-.265-.089a1 1 0 0 0-.632 1.898l.265.088A3 3 0 0 1 14 6.883v.454A3.486 3.486 0 0 0 12.5 7H3.481A3.486 3.486 0 0 0 2 7.337v-.454a3 3 0 0 1 2.051-2.846z"/></svg>