<svg xmlns="http://www.w3.org/2000/svg" width="24" height="24" viewBox="0 0 16 16" fill="none"><g fill="currentColor"><path d="M8 0a1 1 0 0 1 1 1v1a1 1 0 0 1-2 0V1a1 1 0 0 1 1-1zM16 8a1 1 0 0 1-1 1h-1a1 1 0 0 1 0-2h1a1 1 0 0 1 1 1zM3.757 2.343a1 1 0 1 0-1.414 1.414l.707.707A1 1 0 0 0 4.465 3.05zM13.657 3.757l-.707.707a1 1 0 0 1-1.415-1.414l.708-.707a1 1 0 1 1 1.414 1.414zM9 14a1 1 0 0 0-2 0v1a1 1 0 0 0 2 0zM3 8a1 1 0 0 1-1 1H1a1 1 0 0 1 0-2h1a1 1 0 0 1 1 1zM13.657 12.243l-.707-.707a1 1 0 1 0-1.414 1.414l.707.707a1 1 0 0 0 1.414-1.414zM4.464 12.95l-.707.707a1 1 0 0 1-1.414-1.414l.707-.707a1 1 0 1 1 1.414 1.414zM8 12a4 4 0 1 0 0-8 4 4 0 0 0 0 8z"/></g></svg>