<svg width="24" height="24" viewBox="0 0 24 24" fill="none" xmlns="http://www.w3.org/2000/svg">
<path d="M12 4C12.5522 4 13 4.44772 13 5V6C13 6.55228 12.5522 7 12 7C11.4478 7 11 6.55228 11 6V5C11 4.44772 11.4478 4 12 4Z" fill="white"/>
<path d="M20 12C20 12.5523 19.5522 13 19 13H18C17.4478 13 17 12.5523 17 12C17 11.4477 17.4478 11 18 11H19C19.5522 11 20 11.4477 20 12Z" fill="white"/>
<path d="M7.75732 6.34317C7.36694 5.95264 6.73364 5.95264 6.34326 6.34317C5.95264 6.73367 5.95264 7.36685 6.34326 7.75735L7.05029 8.46448C7.44092 8.85501 8.07397 8.85501 8.4646 8.46448C8.85498 8.07394 8.85498 7.4408 8.4646 7.05026L7.75732 6.34317Z" fill="white"/>
<path d="M17.6567 7.75735L16.9497 8.46448C16.5591 8.85501 15.926 8.85501 15.5354 8.46448C15.145 8.07394 15.145 7.4408 15.5354 7.05026L16.2427 6.34317C16.6331 5.95264 17.2664 5.95264 17.6567 6.34317C18.0474 6.73367 18.0474 7.36685 17.6567 7.75735Z" fill="white"/>
<path d="M13 18C13 17.4477 12.5522 17 12 17C11.4478 17 11 17.4477 11 18V19C11 19.5523 11.4478 20 12 20C12.5522 20 13 19.5523 13 19V18Z" fill="white"/>
<path d="M7 12C7 12.5523 6.55225 13 6 13H5C4.44775 13 4 12.5523 4 12C4 11.4477 4.44775 11 5 11H6C6.55225 11 7 11.4477 7 12Z" fill="white"/>
<path d="M17.657 16.2426L16.9497 15.5356C16.5593 15.145 15.926 15.145 15.5356 15.5356C15.145 15.9261 15.145 16.5592 15.5356 16.9497L16.2427 17.6569C16.6333 18.0474 17.2664 18.0474 17.657 17.6569C18.0474 17.2663 18.0474 16.6332 17.657 16.2426Z" fill="white"/>
<path d="M8.46436 16.9497L7.75732 17.6569C7.3667 18.0474 6.73364 18.0474 6.34302 17.6569C5.95264 17.2663 5.95264 16.6332 6.34302 16.2426L7.05029 15.5356C7.44067 15.145 8.07397 15.145 8.46436 15.5356C8.85498 15.9261 8.85498 16.5592 8.46436 16.9497Z" fill="white"/>
<path d="M12 16C14.2092 16 16 14.2091 16 12C16 9.79086 14.2092 8 12 8C9.79077 8 8 9.79086 8 12C8 14.2091 9.79077 16 12 16Z" fill="white"/>
</svg>
