<svg width="24" height="24" viewBox="0 0 24 24" fill="none" xmlns="http://www.w3.org/2000/svg">
<path d="M15.9393 5.93931C16.1681 5.71054 16.1681 5.33962 15.9393 5.11085L15.4142 4.58579C14.6332 3.80474 13.3668 3.80474 12.5858 4.58579L10.2929 6.8787L17.1213 13.7071L19.4142 11.4142C20.1953 10.6332 20.1953 9.36684 19.4142 8.58579L18.8891 8.06063C18.6603 7.83186 18.2894 7.83186 18.0606 8.06063C17.4748 8.64642 16.5251 8.64642 15.9393 8.06063C15.3535 7.47484 15.3535 6.5251 15.9393 5.93931Z" fill="white"/>
<path d="M15.7071 15.1213L8.87866 8.29291L4.58579 12.5858C3.80474 13.3668 3.80474 14.6332 4.58579 15.4142L5.11088 15.9393C5.33964 16.1681 5.71052 16.1681 5.93928 15.9393C6.52507 15.3535 7.47481 15.3535 8.0606 15.9393C8.64639 16.5251 8.64639 17.4748 8.0606 18.0606C7.83184 18.2894 7.83184 18.6603 8.0606 18.889L8.58579 19.4142C9.36684 20.1953 10.6332 20.1953 11.4142 19.4142L15.7071 15.1213Z" fill="white"/>
</svg>
