<svg width="24" height="24" viewBox="0 0 24 24" fill="none" xmlns="http://www.w3.org/2000/svg">
<path fill-rule="evenodd" clip-rule="evenodd" d="M20 12C20 7.58172 16.4183 4 12 4C7.58172 4 4 7.58172 4 12C4 16.4183 7.58172 20 12 20C16.4183 20 20 16.4183 20 12ZM12.9933 8.88338C12.9355 8.38604 12.5128 8 12 8C11.4477 8 11 8.44772 11 9V12L11.0077 12.1241C11.0435 12.4104 11.2019 12.6698 11.4453 12.8321L14.4453 14.8321L14.5461 14.8911C14.9919 15.119 15.5476 14.9814 15.8321 14.5547L15.8911 14.4539C16.119 14.0081 15.9814 13.4524 15.5547 13.1679L13 11.464V9L12.9933 8.88338Z" fill="white"/>
</svg>
