<svg width="24" height="24" viewBox="0 0 24 24" fill="none" xmlns="http://www.w3.org/2000/svg">
<path d="M6.77003 15C6.91599 15 7.05466 14.9362 7.14966 14.8254L9.53006 12.0482C9.75736 11.7831 9.64965 11.3725 9.32145 11.253L4.56334 9.52109C3.92093 9.30696 3.80025 8.45051 4.35847 8.0672L5.39134 7.35796C5.78417 7.08821 6.26041 6.9676 6.73428 7.01782L12.5071 7.46206C12.8177 7.48597 13.1218 7.3637 13.3294 7.13136L14.7993 5.48665C15.5586 4.54644 16.7024 4 17.911 4H18C19.1046 4 20 4.89543 20 6V6.08899C20 7.29757 19.4536 8.44135 18.5133 9.20075L16.8686 10.6705C16.6363 10.8782 16.514 11.1822 16.5379 11.4929L16.9822 17.2657C17.0324 17.7396 16.9118 18.2158 16.642 18.6087L15.9328 19.6415C15.5495 20.1997 14.693 20.0791 14.4789 19.4367L12.747 14.6785C12.6275 14.3503 12.2169 14.2426 11.9517 14.4699L9.17462 16.8503C9.0638 16.9453 9.00002 17.084 9.00002 17.2299V19C9.00002 19.4044 8.75638 19.7691 8.3827 19.9239C8.00903 20.0786 7.57891 19.9931 7.29292 19.7071L4.29292 16.7071C4.00692 16.4211 3.92137 15.991 4.07615 15.6173C4.23093 15.2436 4.59557 15 5.00003 15H6.77003Z" fill="white"/>
</svg>
