<svg width="24" height="24" viewBox="0 0 24 24" fill="none" xmlns="http://www.w3.org/2000/svg">
<path d="M14.0001 5.49998C14.0001 6.32839 13.3286 6.99996 12.5001 6.99996C11.6717 6.99996 11.0002 6.32839 11.0002 5.49998C11.0002 4.67156 11.6717 4 12.5001 4C13.3286 4 14.0001 4.67156 14.0001 5.49998Z" fill="white"/>
<path d="M11.0002 11.4141V13.3818L9.55297 14.1054C9.29187 14.236 9.10085 14.4741 9.03005 14.7573L8.03006 18.7572C7.89611 19.293 8.22187 19.836 8.75766 19.9699C9.29344 20.1039 9.83637 19.7781 9.97032 19.2423L10.8588 15.6886L12.0001 15.1179V15.1208L14.0001 14.1208V10.8684L15.0001 11.5351V12.9999C15.0001 13.5521 15.4478 13.9999 16.0001 13.9999C16.5524 13.9999 17.0001 13.5521 17.0001 12.9999V10.9999C17.0001 10.6655 16.833 10.3533 16.5548 10.1679L13.5548 8.16789C13.3906 8.05838 13.1976 7.99994 13.0001 7.99994H12.0001C11.7349 7.99994 11.4806 8.1053 11.293 8.29283L9.40782 10.1781L7.553 11.1055C7.05903 11.3525 6.8588 11.9531 7.10579 12.4471C7.35278 12.9411 7.95344 13.1413 8.44741 12.8943L10.4474 11.8943C10.5435 11.8462 10.6313 11.783 10.7073 11.707L11.0002 11.4141Z" fill="white"/>
<path d="M14.0001 15.2388L12.0001 16.2388V16.9998C12.0001 17.265 12.1055 17.5194 12.293 17.7069L14.293 19.7069C14.6835 20.0974 15.3167 20.0974 15.7072 19.7069C16.0977 19.3164 16.0977 18.6832 15.7072 18.2927L14.0001 16.5856V15.2388Z" fill="white"/>
</svg>
