<svg xmlns="http://www.w3.org/2000/svg" width="24" height="24" viewBox="0 0 16 16" fill="none"><path fill="currentColor" fill-rule="evenodd" d="M5.677 2A2 2 0 0 0 3.82 3.257l-.7 1.75A1.011 1.011 0 0 0 3 5H1a1 1 0 0 0 0 2v3a2 2 0 0 0 1 1.732V13a1 1 0 0 0 1 1h1a1 1 0 0 0 1-1v-1h6v1a1 1 0 0 0 1 1h1a1 1 0 0 0 1-1v-1.268A2 2 0 0 0 15 10V7a1 1 0 1 0 0-2h-2c-.04 0-.08.002-.12.007l-.7-1.75A2 2 0 0 0 10.323 2zM10.5 4h-5l-1 2.5h7zM13 9a1 1 0 1 1-2 0 1 1 0 0 1 2 0zm-9 1a1 1 0 1 0 0-2 1 1 0 0 0 0 2z" clip-rule="evenodd"/></svg>