<svg width="24" height="24" viewBox="0 0 24 24" fill="none" xmlns="http://www.w3.org/2000/svg">
<path fill-rule="evenodd" clip-rule="evenodd" d="M13 7C13 6.44772 13.4477 6 14 6H15.382C15.7607 6 16.107 6.214 16.2764 6.55279L18 10C18.5523 10 19 10.4477 19 11C19 11.5523 18.5523 12 18 12H17.2808L17.5308 13.0002C18.8973 13.0167 20 14.1296 20 15.5C20 16.8807 18.8807 18 17.5 18C16.1193 18 15 16.8807 15 15.5C15 14.8425 15.2538 14.2444 15.6687 13.7981L15.3438 12.4982C14.5339 13.0354 14 13.9554 14 15C14 15.5523 13.5523 16 13 16H8.94999C8.71836 17.1411 7.70948 18 6.5 18C5.11929 18 4 16.8807 4 15.5C4 14.1193 5.11929 13 6.5 13C7.31791 13 8.04408 13.3928 8.50018 14H10C9.58816 12.8348 8.47692 12 7.17071 12H5C4.44772 12 4 11.5523 4 11C4 10.4477 4.44772 10 5 10H7C8.02909 10 8.98556 10.3109 9.78062 10.8439L10.6093 10.6781C11.1901 10.562 11.7235 10.2765 12.1423 9.85772L12.4142 9.58579C12.7893 9.21071 13.298 9 13.8284 9H15.5L15 8H14C13.4477 8 13 7.55228 13 7ZM7.5 15.5C7.5 16.0523 7.05228 16.5 6.5 16.5C5.94772 16.5 5.5 16.0523 5.5 15.5C5.5 14.9477 5.94772 14.5 6.5 14.5C7.05228 14.5 7.5 14.9477 7.5 15.5ZM17.5 16.5C18.0523 16.5 18.5 16.0523 18.5 15.5C18.5 14.9477 18.0523 14.5 17.5 14.5C16.9477 14.5 16.5 14.9477 16.5 15.5C16.5 16.0523 16.9477 16.5 17.5 16.5Z" fill="white"/>
</svg>
