<svg width="24" height="24" viewBox="0 0 24 24" fill="none" xmlns="http://www.w3.org/2000/svg">
<path fill-rule="evenodd" clip-rule="evenodd" d="M5 7C5 5.34315 6.34315 4 8 4H16C17.6569 4 19 5.34315 19 7V14C19 15.3808 18.0671 16.5438 16.7971 16.8929L17.8321 18.4453C18.0366 18.7522 18.0557 19.1467 17.8817 19.4719C17.7077 19.797 17.3688 20 17 20H7C6.6312 20 6.29234 19.797 6.11833 19.4719C5.94431 19.1467 5.96338 18.7522 6.16795 18.4453L7.20286 16.8929C5.93292 16.5438 5 15.3808 5 14V7ZM9.53518 17L8.86852 18H15.1315L14.4648 17H9.53518ZM15 15C15.5523 15 16 14.5523 16 14C16 13.4477 15.5523 13 15 13C14.4477 13 14 13.4477 14 14C14 14.5523 14.4477 15 15 15ZM9 15C9.55228 15 10 14.5523 10 14C10 13.4477 9.55228 13 9 13C8.44772 13 8 13.4477 8 14C8 14.5523 8.44772 15 9 15ZM7 7C7 6.44772 7.44772 6 8 6H10.5C10.7761 6 11 6.22386 11 6.5V10.5C11 10.7761 10.7761 11 10.5 11H8C7.44772 11 7 10.5523 7 10V7ZM13.5 6C13.2239 6 13 6.22386 13 6.5V10.5C13 10.7761 13.2239 11 13.5 11H16C16.5523 11 17 10.5523 17 10V7C17 6.44772 16.5523 6 16 6H13.5Z" fill="white"/>
</svg>
