<svg xmlns="http://www.w3.org/2000/svg" width="24" height="24" viewBox="0 0 16 16" fill="none"><g fill="currentColor"><path d="M10 1.5a1.5 1.5 0 1 1-3 0 1.5 1.5 0 0 1 3 0zM7 7.414v1.968l-1.447.723a1 1 0 0 0-.523.652l-1 4a1 1 0 1 0 1.94.485l.889-3.553L8 11.118v.003l2-1V6.868l1 .667V9a1 1 0 0 0 2 0V7a1 1 0 0 0-.445-.832l-3-2A1 1 0 0 0 9 4H8a1 1 0 0 0-.707.293L5.408 6.178l-1.855.927a1 1 0 1 0 .894 1.79l2-1a1 1 0 0 0 .26-.188z"/><path d="m10 11.239-2 1v.76a1 1 0 0 0 .293.708l2 2a1 1 0 0 0 1.414-1.414L10 12.586z"/></g></svg>