<svg width="24" height="24" viewBox="0 0 24 24" fill="none" xmlns="http://www.w3.org/2000/svg">
<path fill-rule="evenodd" clip-rule="evenodd" d="M9.67704 6C8.85923 6 8.12381 6.4979 7.82008 7.25722L7.12012 9.00714C7.08073 9.00243 7.04065 9 7 9H5C4.44772 9 4 9.44772 4 10C4 10.5523 4.44772 11 5 11V12V14C5 14.7403 5.4022 15.3866 6 15.7324V17C6 17.5523 6.44772 18 7 18H8C8.55228 18 9 17.5523 9 17V16H15V17C15 17.5523 15.4477 18 16 18H17C17.5523 18 18 17.5523 18 17V15.7324C18.5978 15.3866 19 14.7403 19 14V12V11C19.5523 11 20 10.5523 20 10C20 9.44772 19.5523 9 19 9H17C16.9594 9 16.9193 9.00243 16.8799 9.00714L16.1799 7.25722C15.8762 6.4979 15.1408 6 14.323 6H9.67704ZM14.5 8H9.5L8.5 10.5H15.5L14.5 8ZM17 13C17 13.5523 16.5523 14 16 14C15.4477 14 15 13.5523 15 13C15 12.4477 15.4477 12 16 12C16.5523 12 17 12.4477 17 13ZM8 14C8.55228 14 9 13.5523 9 13C9 12.4477 8.55228 12 8 12C7.44772 12 7 12.4477 7 13C7 13.5523 7.44772 14 8 14Z" fill="white"/>
</svg>
