<svg xmlns="http://www.w3.org/2000/svg" width="24" height="24" viewBox="0 0 16 16" fill="none"><path fill="currentColor" fill-rule="evenodd" d="M1 3a3 3 0 0 1 3-3h8a3 3 0 0 1 3 3v7c0 1.38-.933 2.544-2.203 2.893l1.035 1.552A1 1 0 0 1 13 16H3a1 1 0 0 1-.832-1.555l1.035-1.552A3.001 3.001 0 0 1 1 10zm4.535 10-.666 1h6.263l-.667-1zM11 11a1 1 0 1 0 0-2 1 1 0 0 0 0 2zm-6 0a1 1 0 1 0 0-2 1 1 0 0 0 0 2zM3 3a1 1 0 0 1 1-1h2.5a.5.5 0 0 1 .5.5v4a.5.5 0 0 1-.5.5H4a1 1 0 0 1-1-1zm6.5-1a.5.5 0 0 0-.5.5v4a.5.5 0 0 0 .5.5H12a1 1 0 0 0 1-1V3a1 1 0 0 0-1-1z" clip-rule="evenodd"/></svg>