<svg xmlns="http://www.w3.org/2000/svg" width="24" height="24" viewBox="0 0 16 16" fill="none"><path fill="currentColor" d="M2.77 11a.5.5 0 0 0 .38-.175l2.38-2.777a.5.5 0 0 0-.209-.795L.563 5.521a.82.82 0 0 1-.205-1.454l1.033-.709a2 2 0 0 1 1.343-.34l5.773.444a1 1 0 0 0 .822-.33l1.47-1.645A4 4 0 0 1 13.911 0H14a2 2 0 0 1 2 2v.089a4 4 0 0 1-1.487 3.112L12.87 6.67a1 1 0 0 0-.331.822l.444 5.773a2 2 0 0 1-.34 1.343l-.71 1.032a.82.82 0 0 1-1.453-.204l-1.732-4.759a.5.5 0 0 0-.795-.208l-2.777 2.38a.5.5 0 0 0-.175.38V15a1 1 0 0 1-1.707.707l-3-3A1 1 0 0 1 1 11z"/></svg>