<svg width="24" height="24" viewBox="0 0 24 24" fill="none" xmlns="http://www.w3.org/2000/svg">
<path fill-rule="evenodd" clip-rule="evenodd" d="M12 4C8 4 5 5 5 7V8C4.44771 8 4 8.44769 4 9V10C4 10.5523 4.44771 11 5 11V16C5 16.7403 5.40221 17.3866 6 17.7324V19C6 19.5523 6.44771 20 7 20H8C8.55229 20 9 19.5523 9 19V18H15V19C15 19.5523 15.4477 20 16 20H17C17.5523 20 18 19.5523 18 19V17.7324C18.5978 17.3866 19 16.7403 19 16V11C19.5523 11 20 10.5523 20 10V9C20 8.44769 19.5523 8 19 8V7C19 5 16 4 12 4ZM8 16C8.55229 16 9 15.5523 9 15C9 14.4477 8.55229 14 8 14C7.44771 14 7 14.4477 7 15C7 15.5523 7.44771 16 8 16ZM17 15C17 15.5523 16.5523 16 16 16C15.4477 16 15 15.5523 15 15C15 14.4477 15.4477 14 16 14C16.5523 14 17 14.4477 17 15ZM8 7C7.44771 7 7 7.44769 7 8V11C7 11.5523 7.44771 12 8 12H16C16.5523 12 17 11.5523 17 11V8C17 7.44769 16.5523 7 16 7H8Z" fill="white"/>
</svg>
