<svg width="24" height="24" viewBox="0 0 24 24" fill="none" xmlns="http://www.w3.org/2000/svg">
<path d="M8 8C8 7.44772 8.44772 7 9 7H19C19.5523 7 20 7.44772 20 8C20 8.55228 19.5523 9 19 9H15.0048C14.726 9 14.5 9.22601 14.5 9.50482C14.5 9.78018 14.7214 10.0023 14.9953 10.0313C17.8082 10.3285 20 12.7083 20 15.6C20 16.3732 19.3732 17 18.6 17H13C12.3705 17 11.7777 16.7036 11.4 16.2L9.45848 13.6113C9.16323 13.2176 8.73323 12.9466 8.25071 12.8501L4.88348 12.1767C4.36978 12.074 4 11.6229 4 11.099C4 11.082 4.00039 11.0651 4.00115 11.0483C4.00039 11.0323 4 11.0162 4 11V9C4 8.44772 4.44772 8 5 8H5.5C5.87877 8 6.22504 8.214 6.39443 8.55279L6.74308 9.38601C6.8987 9.75791 7.26243 10 7.66558 10H13C13.2761 10 13.5 9.77614 13.5 9.5C13.5 9.22386 13.2761 9 13 9H9C8.44771 9 8 8.55228 8 8Z" fill="white"/>
</svg>
