<svg xmlns="http://www.w3.org/2000/svg" width="24" height="24" viewBox="0 0 16 16" fill="none"><path fill="currentColor" fill-rule="evenodd" d="M9 3a1 1 0 0 1 1-1h1.382a1 1 0 0 1 .894.553L14 6a1 1 0 1 1 0 2h-.72l.25 1a2.5 2.5 0 1 1-1.861.798l-.325-1.3A2.997 2.997 0 0 0 10 11a1 1 0 0 1-1 1H4.95a2.5 2.5 0 1 1-.45-2H6a3.001 3.001 0 0 0-2.83-2H1a1 1 0 0 1 0-2h2c1.03 0 1.986.31 2.78.844l.83-.166a3 3 0 0 0 1.532-.82l.272-.272A2 2 0 0 1 9.828 5H11.5L11 4h-1a1 1 0 0 1-1-1zm-5.5 8.5a1 1 0 1 1-2 0 1 1 0 0 1 2 0zm10 1a1 1 0 1 0 0-2 1 1 0 0 0 0 2z" clip-rule="evenodd"/></svg>