<svg xmlns="http://www.w3.org/2000/svg" width="24" height="24" viewBox="0 0 16 16" fill="none"><g fill="currentColor"><path d="M9 8a1 1 0 1 1-2 0 1 1 0 0 1 2 0zM6.98 5.394l.254-1.601a.5.5 0 0 0-.089-.372l-.221-.305a4.974 4.974 0 0 0-1.909.872 5.026 5.026 0 0 0-1.327 1.48l.22.304a.5.5 0 0 0 .327.2l1.602.254a1 1 0 0 0 1.144-.832zM8.855 3.42l.221-.304a4.975 4.975 0 0 1 1.917.879c.532.397.981.898 1.32 1.473l-.222.304a.5.5 0 0 1-.326.2l-1.602.254a1 1 0 0 1-1.144-.832l-.254-1.6a.502.502 0 0 1 .09-.373zM12.62 7.398l.357.116a5.066 5.066 0 0 1-.258 2.143 4.996 4.996 0 0 1-.979 1.661l-.357-.116a.5.5 0 0 1-.29-.248l-.737-1.445a1 1 0 0 1 .437-1.345l1.445-.736a.5.5 0 0 1 .381-.03zM10 12.207v.377c-.613.268-1.289.416-2 .416s-1.387-.148-2-.416v-.377a.5.5 0 0 1 .146-.353l1.147-1.147a1 1 0 0 1 1.414 0l1.147 1.147a.5.5 0 0 1 .146.353zM4.617 11.202l-.357.116a4.997 4.997 0 0 1-1.237-3.804l.358-.116a.5.5 0 0 1 .381.03l1.445.736a1 1 0 0 1 .437 1.345l-.736 1.445a.5.5 0 0 1-.291.248z"/><path fill-rule="evenodd" d="M8 16A8 8 0 1 0 8 0a8 8 0 0 0 0 16zm0-2A6 6 0 1 0 8 2a6 6 0 0 0 0 12z" clip-rule="evenodd"/></g></svg>