<svg width="24" height="24" viewBox="0 0 24 24" fill="none" xmlns="http://www.w3.org/2000/svg">
<path d="M13 12C13 12.5523 12.5523 13 12 13C11.4477 13 11 12.5523 11 12C11 11.4477 11.4477 11 12 11C12.5523 11 13 11.4477 13 12Z" fill="white"/>
<path d="M10.9807 9.39441L11.2344 7.79297C11.2551 7.66199 11.2229 7.5282 11.145 7.4209L10.9236 7.11609C10.2615 7.26135 9.64868 7.53784 9.11353 7.91687C9.08057 7.94031 9.04761 7.96411 9.01514 7.98828C8.48022 8.38696 8.02759 8.89014 7.68774 9.46765L7.90894 9.77197C7.98682 9.87927 8.10425 9.95117 8.23511 9.97192L9.83667 10.2256C10.3821 10.312 10.8943 9.93982 10.9807 9.39441Z" fill="white"/>
<path d="M12.8547 7.4209L13.0762 7.11609C13.7346 7.2605 14.3445 7.53467 14.8777 7.91052C14.9167 7.93799 14.9553 7.96619 14.9934 7.99475C15.5247 8.39233 15.9744 8.89319 16.3123 9.46753L16.0908 9.77209C16.0129 9.87939 15.8955 9.95129 15.7646 9.97205L14.1633 10.2257C13.6177 10.312 13.1055 9.93994 13.019 9.39441L12.7654 7.79309C12.7449 7.66211 12.7769 7.5282 12.8547 7.4209Z" fill="white"/>
<path d="M16.6191 11.3979L16.9768 11.5142C16.9922 11.6741 17 11.8361 17 12C17 12.4989 16.927 12.9808 16.791 13.4354C16.7688 13.51 16.7446 13.5837 16.719 13.6569C16.502 14.2753 16.1665 14.8381 15.7402 15.3184L15.3831 15.2023C15.2571 15.1613 15.1523 15.0719 15.0923 14.9537L14.3562 13.509C14.1055 13.017 14.301 12.4148 14.7932 12.1641L16.2378 11.428C16.356 11.3678 16.4932 11.3571 16.6191 11.3979Z" fill="white"/>
<path d="M14 16.2072V16.584C13.3875 16.8516 12.7112 17 12 17C11.2888 17 10.6125 16.8516 10 16.584V16.2072C10 16.0746 10.0525 15.9474 10.1462 15.8536L11.2927 14.7072C11.6833 14.3167 12.3164 14.3167 12.707 14.7072L13.8535 15.8536C13.9473 15.9474 14 16.0746 14 16.2072Z" fill="white"/>
<path d="M8.6167 15.2023L8.25977 15.3182C7.8313 14.8356 7.49463 14.2693 7.27759 13.6471C7.25439 13.5804 7.23267 13.5132 7.21216 13.4453C7.07422 12.9878 7 12.5026 7 12C7 11.8361 7.00781 11.6741 7.02319 11.5142L7.38062 11.3981C7.50659 11.3571 7.6438 11.3678 7.76196 11.4281L9.20654 12.1641C9.69873 12.4148 9.89453 13.017 9.6438 13.5092L8.90771 14.9537C8.84741 15.0719 8.74268 15.1613 8.6167 15.2023Z" fill="white"/>
<path fill-rule="evenodd" clip-rule="evenodd" d="M12 20C16.4183 20 20 16.4183 20 12C20 7.58172 16.4183 4 12 4C7.58172 4 4 7.58172 4 12C4 16.4183 7.58172 20 12 20ZM12 18C15.3137 18 18 15.3137 18 12C18 8.68629 15.3137 6 12 6C8.68629 6 6 8.68629 6 12C6 15.3137 8.68629 18 12 18Z" fill="white"/>
</svg>
