<svg width="24" height="24" viewBox="0 0 24 24" fill="none" xmlns="http://www.w3.org/2000/svg">
<path d="M16 18.2222C16 14.7893 13.3121 12 10 12C6.68629 12 4 14.7858 4 18.2222C4 19.2041 4.76751 20 5.71429 20H14.2857L14.4137 19.9951C15.3007 19.9273 16 19.1594 16 18.2222Z" fill="white"/>
<path d="M13.5 7.5C13.5 5.5 12 4 10 4C8 4 6.5 5.5 6.5 7.5C6.5 9.5 7 11 10 11C13 11 13.5 9.5 13.5 7.5Z" fill="white"/>
<path d="M17 18.2222C17 15.6027 15.6363 13.2816 13.5808 12.0149C13.7193 12.005 13.8591 12 14 12C17.3121 12 20 14.7893 20 18.2222C20 19.1594 19.3007 19.9273 18.4137 19.9951L18.2857 20H16.3712C16.7662 19.5138 17 18.8904 17 18.2222Z" fill="white"/>
<path d="M14 11C13.762 11 13.5398 10.9906 13.3323 10.9722C13.448 10.8654 13.5559 10.7497 13.6559 10.6247C14.3845 9.71385 14.5 8.5314 14.5 7.5C14.5 6.13256 13.9409 4.93865 13.0293 4.12487C13.3352 4.04325 13.6604 4 14 4C16 4 17.5 5.5 17.5 7.5C17.5 9.5 17 11 14 11Z" fill="white"/>
</svg>
