<svg width="24" height="24" viewBox="0 0 24 24" fill="none" xmlns="http://www.w3.org/2000/svg">
<path d="M12 6.99997C12.8284 6.99997 13.5 6.3284 13.5 5.49999C13.5 4.67157 12.8284 4 12 4C11.1716 4 10.5 4.67157 10.5 5.49999C10.5 6.3284 11.1716 6.99997 12 6.99997Z" fill="white"/>
<path d="M8.93634 13.351L9.7672 11.1354L9.99448 12.9519L9.01365 18.8354C8.92283 19.3802 9.29083 19.8954 9.83559 19.9862C10.3803 20.077 10.8956 19.7091 10.9864 19.1643L11.8473 13.9999H12.1531L13.0136 19.1642C13.1044 19.709 13.6196 20.077 14.1643 19.9862C14.7091 19.8955 15.0771 19.3803 14.9864 18.8355L14.0063 12.9534L14.2332 11.136L15.0639 13.351C15.2578 13.8681 15.8342 14.1301 16.3513 13.9362C16.8684 13.7423 17.1304 13.1659 16.9365 12.6488L15.5582 8.97327C15.3386 8.38782 14.779 7.99996 14.1537 7.99996H9.8465C9.22124 7.99996 8.66156 8.38782 8.44202 8.97327L7.0637 12.6488C6.86978 13.1659 7.13178 13.7423 7.6489 13.9362C8.16601 14.1301 8.74242 13.8681 8.93634 13.351Z" fill="white"/>
</svg>
