<svg xmlns="http://www.w3.org/2000/svg" width="24" height="24" viewBox="0 0 16 16" fill="none"><g fill="currentColor"><path d="M12 14.222C12 10.79 9.312 8 6 8c-3.314 0-6 2.786-6 6.222C0 15.204.768 16 1.714 16h8.572l.128-.005C11.3 15.927 12 15.16 12 14.222zM9.5 3.5C9.5 1.5 8 0 6 0S2.5 1.5 2.5 3.5 3 7 6 7s3.5-1.5 3.5-3.5z"/><path d="M13 14.222c0-2.62-1.364-4.94-3.42-6.207.14-.01.28-.015.42-.015 3.312 0 6 2.79 6 6.222 0 .937-.7 1.705-1.586 1.773l-.128.005H12.37c.395-.486.629-1.11.629-1.778zM10 7c-.238 0-.46-.01-.668-.028.116-.107.224-.222.324-.347.728-.911.844-2.094.844-3.125 0-1.367-.56-2.561-1.47-3.375A3.76 3.76 0 0 1 10 0c2 0 3.5 1.5 3.5 3.5S13 7 10 7z"/></g></svg>