<svg width="24" height="24" viewBox="0 0 24 24" fill="none" xmlns="http://www.w3.org/2000/svg">
<path fill-rule="evenodd" clip-rule="evenodd" d="M4 8C4 6.89543 4.89543 6 6 6H14C15.1046 6 16 6.89543 16 8V9.38197L18.5528 8.10557C18.8628 7.95058 19.2309 7.96714 19.5257 8.14935C19.8205 8.33156 20 8.65342 20 9V15C20 15.3466 19.8205 15.6684 19.5257 15.8507C19.2309 16.0329 18.8628 16.0494 18.5528 15.8944L16 14.618V16C16 17.1046 15.1046 18 14 18H6C4.89543 18 4 17.1046 4 16V8ZM8 10.5C8 10.3267 8.08973 10.1658 8.23713 10.0747C8.38454 9.98357 8.56861 9.97529 8.72361 10.0528L11.7236 11.5528C11.893 11.6375 12 11.8106 12 12C12 12.1894 11.893 12.3625 11.7236 12.4472L8.72361 13.9472C8.56861 14.0247 8.38454 14.0164 8.23713 13.9253C8.08973 13.8342 8 13.6733 8 13.5V10.5Z" fill="white"/>
</svg>
