<svg width="24" height="24" viewBox="0 0 24 24" fill="none" xmlns="http://www.w3.org/2000/svg">
<path d="M15.7709 11.9641C15.8441 11.9876 15.9213 12 16 12C16.0787 12 16.1559 11.9876 16.2292 11.9641C16.3193 11.9352 16.4013 11.8902 16.4722 11.8327C16.543 11.7754 16.6039 11.7048 16.6507 11.623C16.6651 11.5979 16.678 11.572 16.6895 11.5453L17.3556 10.0465C17.4516 9.83058 17.655 9.68179 17.8898 9.65569L19.3328 9.49536C19.6194 9.46352 19.8623 9.27026 19.9577 8.99821C20.0531 8.72616 19.9842 8.42349 19.7803 8.21963L18.5796 7.01889C18.4188 6.85812 18.3513 6.62636 18.4006 6.40441L18.7321 4.91269C18.7977 4.61765 18.6798 4.31209 18.433 4.13761C18.1862 3.96312 17.8588 3.95382 17.6025 4.114L16.3525 4.89528C16.1368 5.03005 15.8632 5.03005 15.6476 4.89528L14.3975 4.114C14.1412 3.95382 13.8138 3.96312 13.567 4.13761C13.3203 4.31209 13.2023 4.61765 13.2679 4.91269L13.5994 6.40441C13.6487 6.62636 13.5812 6.85812 13.4204 7.01889L12.2197 8.21963C12.0158 8.42349 11.9469 8.72616 12.0423 8.99821C12.1377 9.27026 12.3807 9.46352 12.6672 9.49536L14.1102 9.65569C14.3451 9.68179 14.5485 9.83058 14.6444 10.0465L15.3105 11.5453C15.322 11.572 15.335 11.5979 15.3493 11.623C15.3962 11.7048 15.4571 11.7755 15.5279 11.8327C15.5988 11.8902 15.6808 11.9353 15.7709 11.9641Z" fill="white"/>
<path d="M11.3444 9.82719C11.8517 11.1189 12.8811 12.1483 14.1728 12.6556L7.41421 19.4142C6.63317 20.1953 5.36684 20.1953 4.58579 19.4142C3.80474 18.6332 3.80474 17.3668 4.58579 16.5858L11.3444 9.82719Z" fill="white"/>
</svg>
