<svg width="24" height="24" viewBox="0 0 24 24" fill="none" xmlns="http://www.w3.org/2000/svg">
<path fill-rule="evenodd" clip-rule="evenodd" d="M18 14C18 17.3137 15.3137 20 12 20C8.68629 20 6 17.3137 6 14C6 11.716 7.11997 9.26968 8.28382 7.45924C8.87563 6.53865 9.50959 5.73424 10.0793 5.14727C10.3623 4.85566 10.6485 4.59798 10.922 4.40526C11.1439 4.24884 11.5393 4 12 4C12.4607 4 12.8561 4.24884 13.078 4.40526C13.3515 4.59798 13.6377 4.85566 13.9207 5.14727C14.4904 5.73424 15.1244 6.53865 15.7162 7.45924C16.88 9.26968 18 11.716 18 14ZM10 14C10 13.4477 9.55228 13 9 13C8.44772 13 8 13.4477 8 14C8 16.2091 9.79086 18 12 18C12.5523 18 13 17.5523 13 17C13 16.4477 12.5523 16 12 16C10.8954 16 10 15.1046 10 14Z" fill="white"/>
</svg>
