<svg width="24" height="24" viewBox="0 0 24 24" fill="none" xmlns="http://www.w3.org/2000/svg">
<path fill-rule="evenodd" clip-rule="evenodd" d="M9.99991 6C9.72349 6 9.47486 6.11083 9.2928 6.29289C8.90228 6.68342 8.26911 6.68342 7.87859 6.29289C7.48806 5.90237 7.48806 5.2692 7.87859 4.87868C8.42038 4.33688 9.17176 4 9.99991 4C11.6568 4 12.9999 5.34315 12.9999 7C12.9999 8.65685 11.6568 10 9.99991 10H5C4.44772 10 4 9.55228 4 9C4 8.44772 4.44772 8 5 8H9.99991C10.5522 8 10.9999 7.55228 10.9999 7C10.9999 6.44772 10.5522 6 9.99991 6ZM16.4999 8C16.0855 8 15.7118 8.1668 15.4393 8.43934C15.0488 8.82986 14.4156 8.82986 14.0251 8.43934C13.6345 8.04882 13.6345 7.41565 14.0251 7.02513C14.6574 6.39285 15.5337 6 16.4999 6C18.4329 6 19.9999 7.567 19.9999 9.5C19.9999 11.433 18.4329 13 16.4999 13H5C4.44772 13 4 12.5523 4 12C4 11.4477 4.44772 11 5 11H16.4999C17.3284 11 17.9999 10.3284 17.9999 9.5C17.9999 8.67157 17.3284 8 16.4999 8ZM4 15C4 14.4477 4.44772 14 5 14H13.9999C15.6568 14 16.9999 15.3431 16.9999 17C16.9999 18.6569 15.6568 20 13.9999 20C13.1718 20 12.4204 19.6631 11.8786 19.1213C11.4881 18.7308 11.4881 18.0976 11.8786 17.7071C12.2691 17.3166 12.9023 17.3166 13.2928 17.7071C13.4749 17.8892 13.7235 18 13.9999 18C14.5522 18 14.9999 17.5523 14.9999 17C14.9999 16.4477 14.5522 16 13.9999 16H5C4.44772 16 4 15.5523 4 15Z" fill="white"/>
</svg>
