<svg width="24" height="24" viewBox="0 0 24 24" fill="none" xmlns="http://www.w3.org/2000/svg">
<path fill-rule="evenodd" clip-rule="evenodd" d="M12 20C16.4182 20 20 16.4183 20 12C20 7.58167 16.4182 4 12 4C7.58179 4 4 7.58167 4 12C4 16.4183 7.58179 20 12 20ZM10 17V17.6586C9.65063 17.5352 9.31616 17.3802 9 17.1974V15L8 14.5L7.5 13.5V12.5L6.5 11.5L6.1792 10.5376C6.59668 8.87097 7.71094 7.48071 9.19458 6.6947L9.5 7L11.5 7.5L11 8.5H10.5L10 9.5L9 10L7.5 10.5V11L8 11.5V12L8.5 11.5L9 12.5H10.5L11 13.5H12V15L11 16V16.5L10 17ZM16.5 15.9684C17.4333 14.9108 17.9998 13.5215 17.9998 12C17.9998 11.2004 17.8435 10.4376 17.5596 9.74011L16 10L14.5 9.5L14 9H13L12 10L12.5 11.5L14 12.5L15 12L15.5 12.5V13.5L16.5 15V15.9684ZM16.5 9L16.9927 8.67151C16.5081 7.94604 15.8694 7.33203 15.1238 6.87634L15 7L14 7.5H13L12.5 8.5H13.5L14.5 8L15.5 9H16.5Z" fill="white"/>
</svg>
