<svg xmlns="http://www.w3.org/2000/svg" width="24" height="24" viewBox="0 0 16 16" fill="none"><path fill="currentColor" fill-rule="evenodd" d="M8 16A8 8 0 1 0 8 0a8 8 0 0 0 0 16zm-2-3v.659a5.97 5.97 0 0 1-1-.462V11l-1-.5-.5-1v-1l-1-1-.32-.962a6.012 6.012 0 0 1 3.015-3.843L5.5 3l2 .5-.5 1h-.5l-.5 1L5 6l-1.5.5V7l.5.5V8l.5-.5.5 1h1.5l.5 1h1V11l-1 1v.5zm6.5-1.032A5.978 5.978 0 0 0 14 8c0-.8-.156-1.562-.44-2.26L12 6l-1.5-.5L10 5H9L8 6l.5 1.5 1.5 1 1-.5.5.5v1l1 1.5zM12.5 5l.493-.328a6.034 6.034 0 0 0-1.87-1.796L11 3l-1 .5H9l-.5 1h1l1-.5 1 1z" clip-rule="evenodd"/></svg>