<svg width="24" height="24" viewBox="0 0 24 24" fill="none" xmlns="http://www.w3.org/2000/svg"><path d="m21.319 20.027-6.087-6.086a6.968 6.968 0 0 0 1.456-4.285c0-1.88-.734-3.642-2.06-4.97a6.98 6.98 0 0 0-4.972-2.061 6.99 6.99 0 0 0-4.97 2.06 6.975 6.975 0 0 0-2.061 4.971c0 1.878.734 3.645 2.06 4.971a6.975 6.975 0 0 0 4.971 2.06c1.57 0 3.061-.51 4.282-1.453l6.087 6.085a.19.19 0 0 0 .136.056.191.191 0 0 0 .136-.056l1.022-1.02a.19.19 0 0 0 .041-.21.191.191 0 0 0-.041-.062Zm-7.95-6.658a5.222 5.222 0 0 1-3.713 1.537 5.222 5.222 0 0 1-3.712-1.537 5.222 5.222 0 0 1-1.538-3.713c0-1.401.546-2.72 1.538-3.712a5.222 5.222 0 0 1 3.712-1.538c1.402 0 2.721.544 3.713 1.538a5.222 5.222 0 0 1 1.537 3.712 5.218 5.218 0 0 1-1.537 3.713Z" fill="#fff"/></svg>